<?xml version="1.0" encoding="UTF-8"?>
<svg width="90px" height="90px" viewBox="0 0 90 90" version="1.1" xmlns="http://www.w3.org/2000/svg" xmlns:xlink="http://www.w3.org/1999/xlink">
    <title>Group 2</title>
    <g id="Page-1" stroke="none" stroke-width="1" fill="none" fill-rule="evenodd">
        <g id="thumbnail-copy-4" transform="translate(-40.000000, -245.000000)" fill="#FFFFFF" fill-rule="nonzero">
            <g id="Group" transform="translate(40.000000, 245.000000)">
                <path d="M45,0 C56.934742,0 68.3806681,4.74105782 76.8198052,13.1801948 C85.2589422,21.6193319 90,33.065258 90,45 C90,69.8528137 69.8528137,90 45,90 C20.1471863,90 0,69.8528137 0,45 C0,20.1471863 20.1471863,0 45,0 Z M37.107,66.339 C36.212878,66.3394903 35.3589342,66.7104744 34.7483725,67.3636732 C34.1378107,68.016872 33.8252257,68.8938781 33.885,69.786 C33.7946022,70.9945964 34.3881793,72.1521392 35.4223744,72.7840549 C36.4565695,73.4159706 37.7574305,73.4159706 38.7916256,72.7840549 C39.8258207,72.1521392 40.4193978,70.9945964 40.329,69.786 C40.3755575,68.8972229 40.0585036,68.027755 39.4507596,67.3775707 C38.8430155,66.7273864 37.9968941,66.3524517 37.107,66.339 Z M27.639,66.393 C27.2045153,66.3842379 26.8258263,66.6871891 26.739,67.113 L25.839,72.351 C25.8341301,72.4048902 25.8341301,72.4591098 25.839,72.513 C25.839,72.9007039 26.1532961,73.215 26.541,73.215 C26.9287039,73.215 27.243,72.9007039 27.243,72.513 L27.792,68.697 L28.917,72.621 C29.0246702,72.9446263 29.3274327,73.1629765 29.6685,73.1629765 C30.0095673,73.1629765 30.3123298,72.9446263 30.42,72.621 L31.544,68.697 L32.103,72.513 C32.103,72.8683952 32.367096,73.1621075 32.7097428,73.2085916 L32.805,73.215 C33.1927039,73.215 33.507,72.9007039 33.507,72.513 C33.5113463,72.4590875 33.5113463,72.4049125 33.507,72.351 L32.607,67.122 C32.5201737,66.6961891 32.1414847,66.3932379 31.707,66.402 C31.2967826,66.4206422 30.9397574,66.6884111 30.807,67.077 L29.7,70.785 L28.539,67.068 C28.4062426,66.6794111 28.0492174,66.4116422 27.639,66.393 Z M53.082,66.456 C52.8847086,66.4389851 52.6900774,66.510647 52.5509259,66.6515379 C52.4117744,66.7924288 52.3425357,66.9879352 52.362,67.185 L52.38,67.185 L52.38,72.45 C52.38,72.8377039 52.6942961,73.152 53.082,73.152 C53.4697039,73.152 53.784,72.8377039 53.784,72.45 L53.784,70.443 L55.863,72.963 C56.0005144,73.1167502 56.1967273,73.205046 56.403,73.206 C56.7935982,73.196232 57.1051221,72.8767203 57.105,72.486 C57.0975604,72.3288355 57.0298758,72.180574 56.916,72.072 L55.323,70.371 C56.2924262,70.3370495 57.0605943,69.5410203 57.06,68.571 C57.06,67.104 56.169,66.456 54.729,66.456 Z M64.8,66.339 C64.3336585,66.3565739 63.9293756,66.6670054 63.792,67.113 L61.911,72.225 C61.8703418,72.3219453 61.8489439,72.4258782 61.848,72.531 C61.8527108,72.7100423 61.9283855,72.8798723 62.0583624,73.0030972 C62.1883393,73.126322 62.3619611,73.1928381 62.541,73.188 C62.856682,73.2099481 63.1420461,73.0006811 63.216,72.693 L63.495,71.793 L66.06,71.793 L66.339,72.693 C66.4203906,72.998457 66.7077713,73.2026485 67.023,73.179 C67.1923258,73.186369 67.3573065,73.1242103 67.4796735,73.0069419 C67.6020405,72.8896736 67.6711603,72.727486 67.6710003,72.558 C67.6662199,72.4378664 67.6419014,72.3193138 67.599,72.207 L65.799,67.113 C65.6724442,66.6633833 65.2669762,66.3492369 64.8,66.339 Z M41.742,66.402 C41.5485747,66.3936205 41.360863,66.4687005 41.2265693,66.6081594 C41.0922756,66.7476182 41.02433,66.9380284 41.04,67.131 L41.058,67.131 L41.058,72.45 C41.058,72.8377039 41.3722961,73.152 41.76,73.152 C42.1477039,73.152 42.462,72.8377039 42.462,72.45 L42.462,68.985 L45.432,72.9 C45.5833304,73.0604327 45.788301,73.1597153 46.008,73.179 C46.2014253,73.1873795 46.389137,73.1122995 46.5234307,72.9728406 C46.6577244,72.8333818 46.72567,72.6429716 46.71,72.45 L46.71,67.131 C46.71,66.7432961 46.3957039,66.429 46.008,66.429 C45.6202961,66.429 45.306,66.7432961 45.306,67.131 L45.306,70.677 L42.336,66.717 C42.1861283,66.5392066 41.9732585,66.4263211 41.742,66.402 Z M51.3,66.447 L47.835,66.447 C47.6631918,66.4444747 47.4978066,66.5122342 47.3771593,66.6345807 C47.2565121,66.7569273 47.1910721,66.9232439 47.196,67.095 C47.1826322,67.2690233 47.2453226,67.4403019 47.3678722,67.5645775 C47.4904217,67.688853 47.6608068,67.7539327 47.835,67.743 L48.861,67.743 L48.861,72.45 C48.861,72.8377039 49.1752961,73.152 49.563,73.152 C49.9507039,73.152 50.265,72.8377039 50.265,72.45 L50.265,67.743 L51.3,67.743 C51.4741932,67.7539327 51.6445783,67.688853 51.7671278,67.5645775 C51.8896774,67.4403019 51.9523678,67.2690233 51.939,67.095 C51.9439279,66.9232439 51.8784879,66.7569273 51.7578407,66.6345807 C51.6371934,66.5122342 51.4718082,66.4444747 51.3,66.447 Z M68.922,66.429 C68.5342961,66.429 68.22,66.7432961 68.22,67.131 L68.22,72.369 C68.1985214,72.5713503 68.2670624,72.7729149 68.4074415,72.9202263 C68.5478207,73.0675378 68.74585,73.1457075 68.949,73.134 L71.289,73.134 C71.645171,73.1442894 71.9446242,72.8687924 71.964,72.513 C71.9745814,72.3309407 71.9068704,72.1530348 71.7779178,72.0240822 C71.6489652,71.8951296 71.4710593,71.8274186 71.289,71.838 L69.624,71.838 L69.624,67.131 C69.624,66.7432961 69.3097039,66.429 68.922,66.429 Z M60.1723818,65.4119282 C60.0352548,65.4254716 59.9093414,65.493611 59.823,65.601 L58.923,66.447 L58.5,66.447 C58.2898468,66.4396096 58.0872018,66.5256246 57.9465298,66.6819268 C57.8058578,66.838229 57.7415902,67.0487837 57.771,67.257 L57.771,72.414 C57.7657051,72.6049259 57.8404811,72.7893694 57.9772366,72.922706 C58.1139922,73.0560427 58.3002693,73.126126 58.491,73.116 L60.912,73.116 C61.0876753,73.1234493 61.2586573,73.0581797 61.3846815,72.9355616 C61.5107058,72.8129434 61.5806344,72.6438135 61.578,72.468 C61.5812088,72.2895644 61.5085884,72.11814 61.3781781,71.9963093 C61.2477678,71.8744787 61.0718052,71.8136742 60.894,71.829 L59.157,71.829 L59.157,70.407 L60.696,70.407 C60.8740083,70.4169049 61.0482338,70.3530318 61.1776593,70.2304182 C61.3070848,70.1078045 61.3802754,69.9372835 61.38,69.759 C61.3829697,69.5798761 61.31061,69.407732 61.1805566,69.2845236 C61.0505033,69.1613151 60.874702,69.0983593 60.696,69.111 L59.157,69.111 L59.157,67.743 L60.804,67.743 C60.9804056,67.7531779 61.1529769,67.6888052 61.2796216,67.5655833 C61.4062663,67.4423614 61.4753419,67.2716182 61.47,67.095 C61.4782038,66.9175608 61.4100312,66.7451024 61.2827201,66.6212321 C61.155409,66.4973619 60.9811479,66.4339388 60.804,66.447 L60.228,66.447 L60.471,66.222 C60.5850944,66.149296 60.660424,66.0291177 60.6761302,65.8947425 C60.6918364,65.7603672 60.6462523,65.6260562 60.552,65.529 C60.446319,65.4405762 60.3095088,65.3983848 60.1723818,65.4119282 Z M37.071,67.626 C38.286,67.626 38.871,68.652 38.871,69.786 C38.871,70.929 38.304,71.937 37.071,71.937 C35.838,71.937 35.271,70.92 35.271,69.786 C35.271,68.652 35.856,67.626 37.071,67.626 Z M64.8,67.824 L65.7,70.524 L63.9,70.524 L64.8,67.824 Z M54.729,67.743 C54.9641334,67.7068851 55.2029336,67.779625 55.3780048,67.9406905 C55.553076,68.101756 55.6454292,68.3336772 55.629,68.571 C55.6415247,68.8079426 55.5483564,69.0382448 55.3746078,69.199831 C55.2008592,69.3614172 54.9644128,69.4376567 54.729,69.408 L53.766,69.408 L53.766,67.743 Z M41.022,57.6 C39.2147341,57.7306836 37.8152529,59.2350154 37.8152529,61.047 C37.8152529,62.8589846 39.2147341,64.3633164 41.022,64.494 C41.715,64.494 43.128,64.287 43.128,63.387 C43.1191276,63.0447254 42.8488815,62.7666461 42.507,62.748 C42.0270908,62.9311982 41.5294059,63.0639142 41.022,63.144 C40.4939235,63.1499802 39.9898621,62.9237521 39.6433273,62.5252371 C39.2967925,62.1267221 39.1427496,61.5961302 39.222,61.074 C39.222,59.94 39.861,58.95 41.022,58.95 C41.5085194,59.0151582 41.9876979,59.1266651 42.453,59.283 C42.6154107,59.2808385 42.7698521,59.2122646 42.8803744,59.0932406 C42.9908968,58.9742165 43.0478583,58.8151257 43.038,58.653 C43.038,57.825 41.706,57.6 41.022,57.6 Z M60.246,57.6 C58.438889,57.7330227 57.0413495,59.2391877 57.043712,61.0511864 C57.0460805,62.8631852 58.4475479,64.3656961 60.255,64.494 C60.948,64.494 62.361,64.287 62.361,63.387 C62.3521276,63.0447254 62.0818815,62.7666461 61.74,62.748 C61.257132,62.9316137 60.75642,63.0643325 60.246,63.144 C59.7179235,63.1499802 59.2138621,62.9237521 58.8673273,62.5252371 C58.5207925,62.1267221 58.3667496,61.5961302 58.446,61.074 C58.446,59.94 59.085,58.95 60.246,58.95 C60.7325194,59.0151582 61.2116979,59.1266651 61.677,59.283 C61.8394107,59.2808385 61.9938521,59.2122646 62.1043744,59.0932406 C62.2148968,58.9742165 62.2718583,58.8151257 62.262,58.653 C62.262,57.825 60.93,57.6 60.246,57.6 Z M35.1,57.6 C34.5066017,57.5477589 33.9178356,57.7418683 33.4718582,58.1367796 C33.0258809,58.5316908 32.7619507,59.0926407 32.742,59.688 C32.742,61.857 35.874,61.191 35.874,62.298 C35.8715781,62.5381388 35.7650149,62.765396 35.5819492,62.9208291 C35.3988836,63.0762622 35.1573522,63.1445569 34.92,63.108 C34.308,63.108 33.786,62.748 33.345,62.748 C33.1706413,62.7450124 33.0030608,62.815473 32.8832239,62.9421577 C32.763387,63.0688425 32.7023379,63.240076 32.715,63.414 C32.715,64.296 34.272,64.467 34.992,64.467 C35.6043407,64.5168344 36.2100027,64.3110309 36.6652128,63.8984435 C37.1204229,63.485856 37.384588,62.903277 37.395,62.289 C37.395,59.877 34.263,60.489 34.263,59.526 C34.2785476,59.3413941 34.3692863,59.1712926 34.5139496,59.055562 C34.6586129,58.9398313 34.8444838,58.8886452 35.028,58.914 C35.586,58.914 35.883,59.193 36.27,59.193 C36.4468028,59.1885182 36.6140914,59.1119656 36.7330601,58.9811001 C36.8520287,58.8502346 36.9123387,58.6764287 36.9,58.5 C36.9,57.762 35.577,57.6 35.1,57.6 Z M69.633,57.6 C69.0425465,57.5555016 68.4595689,57.7543332 68.0193592,58.150352 C67.5791494,58.5463708 67.3199813,59.1051451 67.302,59.697 C67.302,61.866 70.434,61.2 70.434,62.307 C70.4315781,62.5471388 70.3250149,62.774396 70.1419492,62.9298291 C69.9588836,63.0852622 69.7173522,63.1535569 69.48,63.117 C68.868,63.117 68.346,62.748 67.905,62.748 C67.7306413,62.7450124 67.5630608,62.815473 67.4432239,62.9421577 C67.323387,63.0688425 67.2623379,63.240076 67.275,63.414 C67.275,64.296 68.832,64.467 69.552,64.467 C70.1643407,64.5168344 70.7700027,64.3110309 71.2252128,63.8984435 C71.6804229,63.485856 71.944588,62.903277 71.955,62.289 C71.955,59.877 68.823,60.489 68.823,59.526 C68.8385476,59.3413941 68.9292863,59.1712926 69.0739496,59.055562 C69.2186129,58.9398313 69.4044838,58.8886452 69.588,58.914 C70.155,58.914 70.452,59.193 70.839,59.193 C71.0158028,59.1885182 71.1830914,59.1119656 71.3020601,58.9811001 C71.4210287,58.8502346 71.4813387,58.6764287 71.469,58.5 C71.469,57.762 70.155,57.6 69.633,57.6 Z M51.3,57.6 C51.1093449,57.6014538 50.9281968,57.6834695 50.801316,57.8257817 C50.6744352,57.968094 50.6136573,58.1574277 50.634,58.347 L50.598,58.347 L50.598,63.675 C50.598,64.0627039 50.9122961,64.377 51.3,64.377 C51.6877039,64.377 52.002,64.0627039 52.002,63.675 L52.002,60.183 L54.972,64.098 C55.1233974,64.2724445 55.3360692,64.3820027 55.566,64.404 C55.7594253,64.4123795 55.947137,64.3372995 56.0814307,64.1978406 C56.2157244,64.0583818 56.28367,63.8679716 56.268,63.675 L56.268,58.347 C56.268,57.9592961 55.9537039,57.645 55.566,57.645 C55.1782961,57.645 54.864,57.9592961 54.864,58.347 L54.864,61.866 L51.894,57.906 C51.7426026,57.7315555 51.5299308,57.6219973 51.3,57.6 Z M44.478,57.645 C44.0902961,57.645 43.776,57.9592961 43.776,58.347 L43.776,63.675 C43.776,64.0627039 44.0902961,64.377 44.478,64.377 C44.8657039,64.377 45.18,64.0627039 45.18,63.675 L45.18,58.347 C45.18,57.9592961 44.8657039,57.645 44.478,57.645 Z M66.06,57.681 L63.729,57.681 C63.5170281,57.6731461 63.3126197,57.7603453 63.1715886,57.9187876 C63.0305575,58.07723 62.9676342,58.2903665 63,58.5 L63.009,63.612 C63.0037051,63.8029259 63.0784811,63.9873694 63.2152366,64.120706 C63.3519922,64.2540427 63.5382693,64.324126 63.729,64.314 L66.15,64.314 C66.3264056,64.3241779 66.4989769,64.2598052 66.6256216,64.1365833 C66.7522663,64.0133614 66.8213419,63.8426182 66.816,63.666 C66.8242038,63.4885608 66.7560312,63.3161024 66.6287201,63.1922321 C66.501409,63.0683619 66.3271479,63.0049388 66.15,63.018 L64.413,63.018 L64.413,61.596 L65.952,61.596 C66.1300083,61.6059049 66.3042338,61.5420318 66.4336593,61.4194182 C66.5630848,61.2968045 66.6362754,61.1262835 66.636,60.948 C66.6418159,60.7680176 66.5703347,60.5941494 66.4396078,60.4703029 C66.3088809,60.3464564 66.1314055,60.2844709 65.952,60.3 L64.413,60.3 L64.413,58.977 L66.06,58.977 C66.2356753,58.9844493 66.4066573,58.9191797 66.5326815,58.7965616 C66.6587058,58.6739434 66.7286344,58.5048135 66.726,58.329 C66.7342038,58.1515608 66.6660312,57.9791024 66.5387201,57.8552321 C66.411409,57.7313619 66.2371479,57.6679388 66.06,57.681 Z M49.23,57.681 L46.908,57.681 C46.6960281,57.6731461 46.4916197,57.7603453 46.3505886,57.9187876 C46.2095575,58.07723 46.1466342,58.2903665 46.179,58.5 L46.179,63.612 C46.1737051,63.8029259 46.2484811,63.9873694 46.3852366,64.120706 C46.5219922,64.2540427 46.7082693,64.324126 46.899,64.314 L49.32,64.314 C49.4956753,64.3214493 49.6666573,64.2561797 49.7926815,64.1335616 C49.9187058,64.0109434 49.9886344,63.8418135 49.986,63.666 C49.9942038,63.4885608 49.9260312,63.3161024 49.7987201,63.1922321 C49.671409,63.0683619 49.4971479,63.0049388 49.32,63.018 L47.583,63.018 L47.583,61.596 L49.122,61.596 C49.3000083,61.6059049 49.4742338,61.5420318 49.6036593,61.4194182 C49.7330848,61.2968045 49.8062754,61.1262835 49.806,60.948 C49.8118159,60.7680176 49.7403347,60.5941494 49.6096078,60.4703029 C49.4788809,60.3464564 49.3014055,60.2844709 49.122,60.3 L47.583,60.3 L47.583,58.977 L49.23,58.977 C49.4056753,58.9844493 49.5766573,58.9191797 49.7026815,58.7965616 C49.8287058,58.6739434 49.8986344,58.5048135 49.896,58.329 C49.9042038,58.1515608 49.8360312,57.9791024 49.7087201,57.8552321 C49.581409,57.7313619 49.4071479,57.6679388 49.23,57.681 Z M69.624,48.789 C69.0304714,48.7469288 68.4457219,48.9505345 68.0066785,49.3521401 C67.5676351,49.7537456 67.3128556,50.3180813 67.302,50.913 C67.302,53.091 70.434,52.425 70.434,53.532 C70.4315781,53.7721388 70.3250149,53.999396 70.1419492,54.1548291 C69.9588836,54.3102622 69.7173522,54.3785569 69.48,54.342 C68.868,54.342 68.346,53.973 67.905,53.973 C67.731485,53.9727165 67.5655351,54.0440099 67.4462954,54.1700633 C67.3270558,54.2961166 67.2650846,54.4657683 67.275,54.639 C67.275,55.521 68.832,55.692 69.552,55.692 C70.1643407,55.7418344 70.7700027,55.5360309 71.2252128,55.1234435 C71.6804229,54.710856 71.944588,54.128277 71.955,53.514 C71.955,51.102 68.823,51.714 68.823,50.751 C68.8385476,50.5663941 68.9292863,50.3962926 69.0739496,50.280562 C69.2186129,50.1648313 69.4044838,50.1136452 69.588,50.139 C70.155,50.139 70.452,50.418 70.839,50.418 C71.0158028,50.4135182 71.1830914,50.3369656 71.3020601,50.2061001 C71.4210287,50.0752346 71.4813387,49.9014287 71.469,49.725 C71.469,48.978 70.155,48.789 69.624,48.789 Z M58.977,48.897 L57.42,48.897 C57.2267902,48.8893136 57.0391553,48.9626992 56.9024273,49.0994273 C56.7656992,49.2361553 56.6923136,49.4237902 56.7,49.617 L56.7,54.9 C56.7039711,55.0914544 56.7880176,55.2724768 56.931708,55.3990612 C57.0753984,55.5256456 57.2655727,55.5861986 57.456,55.566 L59.076,55.566 C59.9468535,55.6173225 60.7976394,55.291185 61.4110385,54.6708937 C62.0244377,54.0506024 62.3410492,53.1962257 62.28,52.326 C62.28,50.247 61.074,48.897 58.977,48.897 Z M66.06,48.897 L63.729,48.897 C63.5170281,48.8891461 63.3126197,48.9763453 63.1715886,49.1347876 C63.0305575,49.29323 62.9676342,49.5063665 63,49.716 L63,54.9 C63.0044976,55.0863361 63.084843,55.2627665 63.2224528,55.3884841 C63.3600626,55.5142017 63.5430171,55.5783168 63.729,55.566 L66.15,55.566 C66.3256753,55.5734493 66.4966573,55.5081797 66.6226815,55.3855616 C66.7487058,55.2629434 66.8186344,55.0938135 66.816,54.918 C66.8242038,54.7405608 66.7560312,54.5681024 66.6287201,54.4442321 C66.501409,54.3203619 66.3271479,54.2569388 66.15,54.27 L64.413,54.27 L64.413,52.848 L65.916,52.848 C66.0940083,52.8579049 66.2682338,52.7940318 66.3976593,52.6714182 C66.5270848,52.5488045 66.6002754,52.3782835 66.6,52.2 C66.600017,52.0289557 66.5314599,51.8650446 66.4096705,51.7449468 C66.2878812,51.6248489 66.1230273,51.5585909 65.952,51.561 L64.413,51.561 L64.413,50.193 L66.06,50.193 C66.2356753,50.2004493 66.4066573,50.1351797 66.5326815,50.0125616 C66.6587058,49.8899434 66.7286344,49.7208135 66.726,49.545 C66.7342038,49.3675608 66.6660312,49.1951024 66.5387201,49.0712321 C66.411409,48.9473619 66.2371479,48.8839388 66.06,48.897 Z M58.995,50.184 C60.291,50.184 60.849,51.057 60.849,52.254 C60.9110892,52.7675575 60.7492286,53.2830039 60.4047005,53.6688754 C60.0601724,54.0547469 59.5662837,54.2737397 59.049,54.27 L58.122,54.27 L58.122,50.184 Z M44.262,39.951 C42.4242231,40.0448754 40.9823058,41.5623271 40.9823058,43.4025 C40.9823058,45.2426729 42.4242231,46.7601246 44.262,46.854 C44.955,46.854 46.368,46.647 46.368,45.747 C46.3591276,45.4047254 46.0888815,45.1266461 45.747,45.108 C45.2670908,45.2911982 44.7694059,45.4239142 44.262,45.504 C43.7339235,45.5099802 43.2298621,45.2837521 42.8833273,44.8852371 C42.5367925,44.4867221 42.3827496,43.9561302 42.462,43.434 C42.462,42.291 43.101,41.31 44.262,41.31 C44.7482024,41.3723362 45.2273647,41.4808258 45.693,41.634 C45.8554107,41.6318385 46.0098521,41.5632646 46.1203744,41.4442406 C46.2308968,41.3252165 46.2878583,41.1661257 46.278,41.004 C46.278,40.176 44.946,39.951 44.262,39.951 Z M63.477,40.068 C63.2797086,40.0509851 63.0850774,40.122647 62.9459259,40.2635379 C62.8067744,40.4044288 62.7375357,40.5999352 62.757,40.797 L62.775,40.797 L62.775,46.098 C62.775,46.4857039 63.0892961,46.8 63.477,46.8 C63.8647039,46.8 64.179,46.4857039 64.179,46.098 L64.179,44.064 L66.258,46.584 C66.3955144,46.7377502 66.5917273,46.826046 66.798,46.827 C67.1885982,46.817232 67.5001221,46.4977203 67.5,46.107 C67.4934936,45.9496108 67.4256569,45.8010161 67.311,45.693 L65.718,43.983 C66.6874262,43.9490495 67.4555943,43.1530203 67.455,42.183 C67.455,40.716 66.564,40.068 65.124,40.068 Z M52.137,40.014 C51.9435747,40.0056205 51.755863,40.0807005 51.6215693,40.2201594 C51.4872756,40.3596182 51.41933,40.5500284 51.435,40.743 L51.426,46.062 C51.426,46.4497039 51.7402961,46.764 52.128,46.764 C52.5157039,46.764 52.83,46.4497039 52.83,46.062 L52.83,42.57 L55.8,46.485 C55.9535845,46.6615018 56.1698664,46.7712568 56.403,46.791 C56.5964253,46.7993795 56.784137,46.7242995 56.9184307,46.5848406 C57.0527244,46.4453818 57.12067,46.2549716 57.105,46.062 L57.105,40.743 C57.105,40.3552961 56.7907039,40.041 56.403,40.041 C56.0152961,40.041 55.701,40.3552961 55.701,40.743 L55.701,44.28 L52.731,40.32 C52.5796026,40.1455555 52.3669308,40.0359973 52.137,40.014 Z M61.686,40.068 L58.239,40.068 C58.0671918,40.0654747 57.9018066,40.1332342 57.7811593,40.2555807 C57.6605121,40.3779273 57.5950721,40.5442439 57.6,40.716 C57.5755711,40.8942368 57.6320012,41.0740721 57.7538811,41.2063989 C57.8757611,41.3387258 58.0503598,41.4097217 58.23,41.4 L59.256,41.4 L59.256,46.071 C59.256,46.4587039 59.5702961,46.773 59.958,46.773 C60.3457039,46.773 60.66,46.4587039 60.66,46.071 L60.66,41.364 L61.686,41.364 C61.8601932,41.3749327 62.0305783,41.309853 62.1531278,41.1855775 C62.2756774,41.0613019 62.3383678,40.8900233 62.325,40.716 C62.3299279,40.5442439 62.2644879,40.3779273 62.1438407,40.2555807 C62.0231934,40.1332342 61.8578082,40.0654747 61.686,40.068 Z M71.199,40.059 L68.877,40.059 C68.6650281,40.0511461 68.4606197,40.1383453 68.3195886,40.2967876 C68.1785575,40.45523 68.1156342,40.6683665 68.148,40.878 L68.148,46.044 C68.1427051,46.2349259 68.2174811,46.4193694 68.3542366,46.552706 C68.4909922,46.6860427 68.6772693,46.756126 68.868,46.746 L71.289,46.746 C71.4646753,46.7534493 71.6356573,46.6881797 71.7616815,46.5655616 C71.8877058,46.4429434 71.9576344,46.2738135 71.955,46.098 C71.9632038,45.9205608 71.8950312,45.7481024 71.7677201,45.6242321 C71.640409,45.5003619 71.4661479,45.4369388 71.289,45.45 L69.552,45.45 L69.552,44.019 L71.1,44.019 C71.2780083,44.0289049 71.4522338,43.9650318 71.5816593,43.8424182 C71.7110848,43.7198045 71.7842754,43.5492835 71.784,43.371 C71.7869697,43.1918761 71.71461,43.019732 71.5845566,42.8965236 C71.4545033,42.7733151 71.278702,42.7103593 71.1,42.723 L69.552,42.723 L69.552,41.355 L71.199,41.355 C71.3754056,41.3651779 71.5479769,41.3008052 71.6746216,41.1775833 C71.8012663,41.0543614 71.8703419,40.8836182 71.865,40.707 C71.8732038,40.5295608 71.8050312,40.3571024 71.6777201,40.2332321 C71.550409,40.1093619 71.3761479,40.0459388 71.199,40.059 Z M50.022,40.068 L47.7,40.068 C47.4898468,40.0606096 47.2872018,40.1466246 47.1465298,40.3029268 C47.0058578,40.459229 46.9415902,40.6697837 46.971,40.878 L46.98,46.044 C46.9747051,46.2349259 47.0494811,46.4193694 47.1862366,46.552706 C47.3229922,46.6860427 47.5092693,46.756126 47.7,46.746 L50.112,46.746 C50.2884056,46.7561779 50.4609769,46.6918052 50.5876216,46.5685833 C50.7142663,46.4453614 50.7833419,46.2746182 50.778,46.098 C50.7862038,45.9205608 50.7180312,45.7481024 50.5907201,45.6242321 C50.463409,45.5003619 50.2891479,45.4369388 50.112,45.45 L48.375,45.45 L48.375,44.028 L49.914,44.028 C50.0920083,44.0379049 50.2662338,43.9740318 50.3956593,43.8514182 C50.5250848,43.7288045 50.5982754,43.5582835 50.598,43.38 C50.6038159,43.2000176 50.5323347,43.0261494 50.4016078,42.9023029 C50.2708809,42.7784564 50.0934055,42.7164709 49.914,42.732 L48.375,42.732 L48.375,41.364 L50.022,41.364 C50.1976753,41.3714493 50.3686573,41.3061797 50.4946815,41.1835616 C50.6207058,41.0609434 50.6906344,40.8918135 50.688,40.716 C50.6962038,40.5385608 50.6280312,40.3661024 50.5007201,40.2422321 C50.373409,40.1183619 50.1991479,40.0549388 50.022,40.068 Z M36.2078601,15.7178089 C35.6664961,14.237211 34.1380221,13.3611624 32.5868481,13.6424171 C31.0356741,13.9236718 29.9120751,15.280587 29.925,16.857 C29.9278422,17.1150031 29.9610712,17.3717729 30.024,17.622 L22.725,21.348 C21.7010918,20.0593469 19.9741207,19.5593099 18.4200905,20.101532 C16.8660603,20.6437542 15.8250093,22.1095915 15.8250093,23.7555 C15.8250093,25.4014085 16.8660603,26.8672458 18.4200905,27.409468 C19.9741207,27.9516901 21.7010918,27.4516531 22.725,26.163 L29.7,29.763 C29.5541569,30.2351611 29.4813163,30.726835 29.484,31.221 C29.4822972,31.7032983 29.5551574,32.1829617 29.7,32.643 L21.888,36.63 C20.5170294,34.5996536 17.9805612,33.7032121 15.6382669,34.4212122 C13.2959726,35.1392123 11.6976181,37.3031304 11.7,39.753 C11.6662292,41.9886367 12.9723323,44.0278687 15.0171932,44.9321672 C17.062054,45.8364658 19.4494486,45.4306087 21.0806109,43.9013862 C22.7117732,42.3721638 23.2706398,40.0158868 22.5,37.917 L30.366,33.885 C31.5403183,35.5331831 33.6453037,36.2333291 35.5728706,35.6168739 C37.5004374,35.0004188 38.808513,33.2087418 38.808513,31.185 C38.808513,29.1612582 37.5004374,27.3695812 35.5728706,26.7531261 C33.6453037,26.1366709 31.5403183,26.8368169 30.366,28.485 L23.4,24.93 C23.6317236,24.1886864 23.6317236,23.3943136 23.4,22.653 L30.672,18.9 C31.6789743,20.11295 33.4128362,20.4250668 34.7795835,19.6394163 C36.1463308,18.8537658 36.7492241,17.1984067 36.2078601,15.7178089 Z M65.124,41.355 C65.3591334,41.3188851 65.5979336,41.391625 65.7730048,41.5526905 C65.948076,41.713756 66.0404292,41.9456772 66.024,42.183 C66.0365247,42.4199426 65.9433564,42.6502448 65.7696078,42.811831 C65.5958592,42.9734172 65.3594128,43.0496567 65.124,43.02 L64.161,43.02 L64.161,41.355 Z" id="Combined-Shape"></path>
            </g>
        </g>
    </g>
</svg>