<?xml version="1.0" encoding="UTF-8"?>
<svg width="135px" height="44px" viewBox="0 0 135 44" version="1.1" xmlns="http://www.w3.org/2000/svg" xmlns:xlink="http://www.w3.org/1999/xlink">
    <title>Calque 2</title>
    <g id="Page-1" stroke="none" stroke-width="1" fill="none" fill-rule="evenodd">
        <g id="thumbnail" transform="translate(-40.000000, -291.000000)" fill="#FFFFFF" fill-rule="nonzero">
            <g id="Calque-2" transform="translate(40.000000, 291.682000)">
                <path d="M75.1652778,20.657 L74.8922778,20.793 L74.1642778,20.793 C73.9822778,20.793 73.9372778,20.884 73.6182778,20.793 C73.2992778,20.702 73.2092778,20.748 73.1632778,20.657 C73.1411345,20.4286819 73.156675,20.1982766 73.2092778,19.975 C73.2874286,19.5589559 73.3936718,19.1486835 73.5272778,18.747 C73.6642778,18.338 73.6182778,17.837 73.7092778,17.519 C73.8002778,17.201 73.9362778,16.655 73.9822778,16.564 C74.0098167,16.5184651 74.0559049,16.4872639 74.1084112,16.478609 C74.1609174,16.4699541 74.2145814,16.4847127 74.2552778,16.519 C74.3912778,16.61 74.3462778,16.974 74.4372778,17.292 L74.7552778,18.338 C74.7552778,18.52 74.8922778,18.656 74.8922778,18.838 C74.8922778,19.02 75.0282778,19.475 75.0282778,19.657 C75.0282778,19.839 75.2102778,20.521 75.0742778,20.657 M78.2592778,22.886 C78.1682778,22.659 77.9412778,21.476 77.7592778,20.93 C77.5788767,20.4079698 77.426986,19.8765191 77.3042778,19.338 C77.1829445,18.944 77.0616112,18.5193333 76.9402778,18.064 L76.5762778,16.699 L76.3942778,16.062 C76.3128923,15.7631809 76.2520831,15.4591351 76.2122778,15.152 L76.0762778,14.561 C75.9834267,14.2777911 75.9076243,13.9892744 75.8492778,13.697 C75.8492778,13.697 75.8032778,13.561 75.5312778,12.514 C75.5052773,12.2003939 75.4286165,11.8930756 75.3042778,11.604 C75.2132778,11.422 74.7582778,11.422 74.6222778,11.377 L73.5762778,11.377 C73.2780037,11.3567889 72.9837705,11.4548666 72.7572778,11.65 C72.6064467,11.8992744 72.5131775,12.1790818 72.4842778,12.469 L72.2112778,13.288 C72.1652778,13.515 71.9382778,14.971 71.9382778,15.062 L71.5742778,16.154 C71.4372778,16.518 71.5742778,16.563 71.4372778,16.882 C71.3002778,17.201 71.1642778,18.11 71.0732778,18.382 C70.9822778,18.654 70.7092778,19.565 70.6642778,19.747 C70.5516905,20.1512337 70.4605632,20.5611397 70.3912778,20.975 C70.3679426,21.1618862 70.3219373,21.3452355 70.2542778,21.521 C70.1454704,21.7520643 70.0690827,21.9970434 70.0272778,22.249 C69.9758167,22.5578635 69.8999115,22.8621531 69.8002778,23.159 C69.6428165,23.6495358 69.5211637,24.1508526 69.4362778,24.659 C69.4362778,24.932 69.3452778,25.25 69.3452778,25.523 C69.355847,25.6149597 69.4058394,25.6977939 69.4822778,25.75 C69.711366,25.8638068 69.9571057,25.9404317 70.2102778,25.977 C70.5239579,26.0445116 70.8466393,26.0597165 71.1652778,26.022 C71.3422696,25.9947196 71.5121636,25.9328782 71.6652778,25.84 C71.8249181,25.6244754 71.9336409,25.3755755 71.9832778,25.112 C72.0292778,24.93 72.0742778,24.794 72.1202778,24.566 C72.1662778,24.338 72.1202778,24.202 72.1662778,24.066 C72.2122778,23.93 72.2572778,23.202 72.4842778,23.02 C72.7112778,22.838 72.9842778,22.929 73.3032778,22.929 L73.9402778,22.929 C74.4711416,22.8907815 75.0045064,22.9061928 75.5322778,22.975 C75.8052778,23.066 75.8052778,23.339 75.9412778,23.748 C76.0047907,23.9853574 76.03541,24.230312 76.0322778,24.476 C76.0249361,24.7345167 76.0403287,24.9931785 76.0782778,25.249 C76.1154534,25.5946864 76.297077,25.908532 76.5782778,26.113 C76.9455314,26.228865 77.3342708,26.2599778 77.7152778,26.204 C77.9932029,26.1962328 78.2687584,26.1504751 78.5342778,26.068 C78.7564154,25.9845232 78.8892769,25.7564025 78.8522778,25.522 C78.7884875,25.1369789 78.697255,24.7570105 78.5792778,24.385 C78.4673794,23.888122 78.31521,23.4011799 78.1242778,22.929 M67.7502778,24.294 C67.7502778,23.885 67.7962778,23.839 67.7962778,23.521 C67.7962778,23.203 67.8422778,22.839 67.8422778,22.521 L67.8422778,20.521 C67.8422778,20.339 67.7962778,19.611 67.7962778,18.929 L67.7962778,12.467 C67.789393,12.3747765 67.7739941,12.2833874 67.7502778,12.194 C67.7387534,12.0687243 67.7080625,11.9459607 67.6592778,11.83 C67.6057126,11.645816 67.4720021,11.4955754 67.2952778,11.421 L66.7952778,11.33 L66.2952778,11.33 L65.6582778,11.466 C65.446653,11.5534391 65.2930306,11.7412416 65.2492778,11.966 C65.2222082,12.238329 65.2222082,12.512671 65.2492778,12.785 C65.2813508,13.0108939 65.2967259,13.2388451 65.2952778,13.467 L65.2952778,16.24 C65.339975,16.6481755 65.2608831,17.0603593 65.0682778,17.423 C64.8862778,17.65 64.1582778,17.65 64.0222778,17.65 L63.8402778,17.65 L62.7482778,17.559 C62.4752778,17.514 62.1112778,17.514 62.0662778,17.104 C62.0212778,16.694 61.9752778,16.149 62.0202778,16.331 C62.0652778,16.513 62.0662778,15.649 62.0662778,15.421 L62.0662778,14.648 C62.0574988,14.3289905 62.0725406,14.0097706 62.1112778,13.693 C62.1354403,13.3447519 62.1354403,12.9952481 62.1112778,12.647 C62.1112778,12.42 62.0662778,12.01 62.0662778,11.874 C62.0593511,11.6237425 61.8954954,11.4050011 61.6572778,11.328 C61.269368,11.2381024 60.867896,11.2228309 60.4742778,11.283 C60.1915681,11.2924109 59.9337271,11.4470399 59.7922778,11.692 C59.6790027,12.0136042 59.6633464,12.3615215 59.7472778,12.692 L59.7472778,13.511 C59.770082,13.7531309 59.770082,13.9968691 59.7472778,14.239 C59.7244593,14.5872933 59.7244593,14.9367067 59.7472778,15.285 L59.7472778,17.34 C59.7472778,17.704 59.7012778,18.978 59.7012778,19.296 C59.6552778,20.433 59.7012778,22.208 59.7012778,22.481 L59.7012778,23.118 C59.6890639,23.2844429 59.6890639,23.4515571 59.7012778,23.618 C59.7012778,23.754 59.7472778,24.391 59.7472778,24.482 C59.7472778,24.573 59.7932778,24.755 59.7932778,24.982 C59.7818943,25.163822 59.7818943,25.346178 59.7932778,25.528 C59.8392778,25.801 59.8392778,25.846 60.0202778,25.983 C60.2598797,26.1005798 60.5279327,26.1477404 60.7932778,26.119 L61.6122778,26.119 C61.7554924,26.119 61.8903491,26.0515717 61.9762778,25.937 C62.096374,25.7463337 62.1595169,25.5253335 62.1582778,25.3 L62.1582778,24.16 C62.1582778,23.978 62.2042778,22.977 62.2042778,22.66 L62.2042778,21.203 C62.2042778,21.067 62.1132778,19.929 62.3402778,19.703 C62.5672778,19.477 62.7952778,19.521 63.2502778,19.476 L63.9782778,19.476 C64.282352,19.4598821 64.5872774,19.4749609 64.8882778,19.521 C65.0960174,19.5778409 65.2647004,19.7294702 65.3432778,19.93 C65.3995379,20.1062126 65.4152627,20.2928584 65.3892778,20.476 L65.3892778,25.117 C65.3923139,25.28457 65.4076889,25.4516888 65.4352778,25.617 C65.4308481,25.8366561 65.5840068,26.0281045 65.7992778,26.072 C66.2832745,26.1462442 66.7767898,26.1309913 67.2552778,26.027 C67.4463892,26.0247364 67.6277813,25.9423844 67.7552778,25.8 C67.8472302,25.6663606 67.8948096,25.5071797 67.8912778,25.345 C67.8964977,25.1920096 67.8813653,25.0390039 67.8462778,24.89 C67.8032959,24.6805723 67.787832,24.4664303 67.8002778,24.253 M56.7382778,12.467 C56.5495181,12.2723098 56.335233,12.1041112 56.1012778,11.967 L55.6922778,11.74 C55.3044891,11.5001056 54.8703008,11.3450384 54.4182778,11.285 C53.9354925,11.2146678 53.4450631,11.2146678 52.9622778,11.285 C52.4910036,11.3595406 52.0318909,11.4971062 51.5972778,11.694 C51.1935734,11.8710637 50.8239922,12.1174512 50.5052778,12.422 C50.2224407,12.6600544 50.0167326,12.9767962 49.9142778,13.332 C49.8126222,13.7329039 49.7818255,14.1484912 49.8232778,14.56 C49.8417506,14.8510682 49.8109855,15.1431672 49.7322778,15.424 C49.6654195,15.7529716 49.6502374,16.090353 49.6872778,16.424 C49.7371128,16.6632529 49.752268,16.908431 49.7322778,17.152 C49.6862778,17.425 49.7772778,19.063 49.7772778,19.563 C49.7465588,20.1106851 49.7770812,20.6600879 49.8682778,21.201 L49.8682778,23.567 C49.865137,24.026513 50.0450479,24.4683742 50.3682778,24.795 C50.7546989,25.2015711 51.2188897,25.5263347 51.7332778,25.75 C52.384155,26.0679119 53.102159,26.2239997 53.8262778,26.205 C54.2398907,26.2157113 54.653032,26.1699562 55.0542778,26.069 C55.4277059,25.960039 55.7809677,25.7911758 56.1002778,25.569 L56.7372778,25.023 C56.9456372,24.8469826 57.1157912,24.6302064 57.2372778,24.386 C57.3899774,24.2003766 57.4986923,23.982605 57.5552778,23.749 C57.6200812,23.5259864 57.6655822,23.2978122 57.6912778,23.067 L57.6912778,22.248 C57.6880976,22.153951 57.6367046,22.06817 57.5552778,22.021 L57.2372778,21.93 C57.2372778,21.93 55.4172778,21.566 55.3722778,22.248 C55.3656182,22.4667839 55.3195472,22.6825723 55.2362778,22.885 L55.0092778,23.431 C54.9427206,23.6442797 54.7961311,23.8234845 54.6002778,23.931 C54.3409638,24.0372931 54.0610286,24.083778 53.7812778,24.067 C53.0992778,24.067 52.5072778,23.885 52.4162778,23.43 C52.3366237,22.9337074 52.2911833,22.4325258 52.2802778,21.93 C52.2274594,21.5990963 52.1970569,21.2650023 52.1892778,20.93 L52.1892778,15.106 C52.18323,14.8926618 52.1986408,14.6792558 52.2352778,14.469 C52.2667295,14.2496022 52.3616197,14.0441806 52.5082778,13.878 C52.668005,13.6944224 52.8711953,13.553805 53.0992778,13.469 C53.3799735,13.3878135 53.6755485,13.3720769 53.9632778,13.423 C54.2358667,13.4643915 54.4981531,13.5570231 54.7362778,13.696 C54.9155523,13.7812941 55.0599837,13.9257255 55.1452778,14.105 C55.2175954,14.2631274 55.2635364,14.4320279 55.2812778,14.605 C55.2812778,14.787 55.3262778,14.923 55.3262778,15.151 C55.3262778,15.379 55.5532778,15.606 56.0542778,15.606 L56.7822778,15.606 C57.0314851,15.5839379 57.268681,15.48899 57.4642778,15.333 C57.6083923,15.1903432 57.6759753,14.9875941 57.6462778,14.787 L57.6462778,14.24 C57.642516,13.9087536 57.5649691,13.5825103 57.4192778,13.285 C57.2585406,12.9755187 57.0426705,12.6979714 56.7822778,12.466 M88.3122778,14.195 L88.3122778,11.966 C88.2970281,11.875951 88.248484,11.7949253 88.1762778,11.739 L88.0392778,11.603 C87.9238703,11.4945981 87.7833209,11.4165915 87.6302778,11.376 C87.1869642,11.2301605 86.7085915,11.2301605 86.2652778,11.376 C85.9377586,11.4917953 85.7189218,11.8016137 85.7192778,12.149 L85.7192778,13.832 L85.9012778,18.382 C85.8919735,19.3844551 85.831227,20.3857721 85.7192778,21.382 L85.7192778,21.746 C85.7192778,22.0186667 85.7039445,22.3066667 85.6732778,22.61 C85.7043729,22.9159583 85.623746,23.2228379 85.4462778,23.474 C85.2938888,23.6009361 85.1258519,23.7078076 84.9462778,23.792 C84.7472478,23.8921052 84.5311513,23.9538471 84.3092778,23.974 C84.0598549,23.9790406 83.8120588,23.932749 83.5812778,23.838 C83.3542778,23.747 83.2632778,23.793 83.0352778,23.611 C82.8811247,23.402767 82.7584757,23.1729687 82.6712778,22.929 C82.5765756,22.7629385 82.5291929,22.5740996 82.5342778,22.383 L82.5342778,20.883 C82.5342778,20.519 82.5802778,20.337 82.5802778,20.019 C82.5821665,19.6850971 82.5668127,19.3513194 82.5342778,19.019 C82.4882778,18.428 82.4882778,18.019 82.4882778,17.654 C82.4882778,17.289 82.5342778,16.972 82.5342778,16.608 L82.5342778,15.88 C82.5523403,15.5469114 82.5523403,15.2130886 82.5342778,14.88 C82.5342778,14.744 82.5802778,14.471 82.5802778,14.243 C82.6046218,13.9859083 82.6046218,13.7270917 82.5802778,13.47 C82.5549527,13.3044243 82.5399238,13.1374369 82.5352778,12.97 L82.5352778,11.97 C82.5479512,11.820785 82.4987814,11.6729141 82.3992778,11.561 C82.1067896,11.3962922 81.7796283,11.3027686 81.4442778,11.288 C81.1315351,11.2841506 80.8214829,11.346161 80.5342778,11.47 C80.3011053,11.6129947 80.1759235,11.8814664 80.2162778,12.152 C80.2115553,12.4272407 80.1810892,12.7014358 80.1252778,12.971 C80.0539991,13.5749677 80.0389345,14.1842477 80.0802778,14.791 C80.1319417,15.0452182 80.1470942,15.3055042 80.1252778,15.564 C80.1290621,15.8992182 80.1594913,16.233605 80.2162778,16.564 L80.2162778,17.34 C80.2162778,17.476 80.1252778,17.931 80.1252778,18.204 L80.1252778,19.114 C80.1757943,19.5061779 80.1911888,19.9020836 80.1712778,20.297 C80.1712778,20.388 80.2172778,20.797 80.2172778,21.389 C80.2172778,21.981 80.1712778,22.435 80.1712778,22.754 C80.145177,23.1052915 80.1759049,23.4584935 80.2622778,23.8 C80.3831809,24.0845403 80.5523353,24.3460531 80.7622778,24.573 C81.1418205,24.934998 81.5707524,25.2413779 82.0362778,25.483 L82.5822778,25.756 C83.0441279,25.9446197 83.5394685,26.0374961 84.0382778,26.029 C84.5008407,26.0593253 84.9648198,25.9974615 85.4032778,25.847 L86.1762778,25.574 L86.8582778,25.165 L87.4492778,24.619 C88.0343406,23.9368292 88.3425994,23.0602181 88.3132778,22.162 C88.3132778,21.616 88.3592778,21.07 88.3592778,20.57 L88.3592778,17.34 C88.3799682,16.9309281 88.3799682,16.5210719 88.3592778,16.112 C88.3132778,15.43 88.3592778,14.247 88.3592778,14.247 M121.759278,16.795 C121.721934,17.033568 121.568726,17.2380948 121.350278,17.341 L120.668278,17.705 C120.398998,17.8339499 120.102694,17.8963657 119.804278,17.887 C119.513097,17.9136292 119.219522,17.8827087 118.940278,17.796 C118.713278,17.705 118.485278,17.751 118.394278,17.614 C118.295866,17.3525088 118.249662,17.0742639 118.258278,16.795 C118.265306,16.5351213 118.295763,16.2764063 118.349278,16.022 C118.348386,15.595742 118.31798,15.1700573 118.258278,14.748 C118.254673,14.4440322 118.269701,14.1401292 118.303278,13.838 C118.349278,13.656 118.303278,13.429 118.485278,13.338 L119.709278,13.338 L120.482278,13.429 C120.714372,13.4896617 120.931304,13.5979573 121.119278,13.747 C121.304281,13.8968808 121.432673,14.1053422 121.483278,14.338 C121.544781,14.5309264 121.590268,14.7285963 121.619278,14.929 C121.678107,15.1226491 121.723547,15.3201151 121.755278,15.52 C121.791553,15.9589184 121.791553,16.4000816 121.755278,16.839 M124.212278,24.574 L123.848278,23.801 L123.530278,22.937 C123.439278,22.664 123.394278,22.482 123.212278,21.891 C123.030278,21.3 122.985278,21.345 122.848278,20.891 C122.592021,20.4046622 122.364302,19.9038144 122.166278,19.391 C122.533555,19.1272037 122.869114,18.8218445 123.166278,18.481 C123.400098,18.1708459 123.598341,17.8354098 123.757278,17.481 C123.895574,17.154088 124.017066,16.820319 124.121278,16.481 C124.307401,15.8932748 124.384336,15.2764368 124.348278,14.661 C124.302278,14.388 124.166278,14.115 124.121278,13.888 C124.090436,13.6621135 124.01278,13.4451527 123.893278,13.251 C123.788911,12.9464386 123.599427,12.678177 123.347278,12.478 L122.483278,11.932 C122.030672,11.6724436 121.538949,11.4880475 121.027278,11.386 C120.501687,11.2936049 119.968925,11.2480926 119.435278,11.2499425 L117.069278,11.2499425 L116.387278,11.341 C116.224129,11.3910525 116.070386,11.4677551 115.932278,11.568 C115.833559,11.6471526 115.768522,11.7607896 115.750278,11.886 C115.726362,12.0060939 115.71099,12.1277321 115.704278,12.25 C115.707141,12.4026228 115.722189,12.5547732 115.749278,12.705 C115.77649,13.09981 115.761405,13.4963982 115.704278,13.888 L115.704278,23.807 L115.795278,25.217 C115.755773,25.4389447 115.804578,25.6675402 115.931278,25.854 C116.00825,25.9845795 116.14415,26.0693304 116.295278,26.081 C116.743417,26.1927404 117.212138,26.1927404 117.660278,26.081 C117.889743,26.0532242 118.092383,25.9181308 118.206278,25.717 C118.309309,25.5054118 118.341227,25.2661999 118.297278,25.035 C118.212993,24.7544955 118.16724,24.463833 118.161278,24.171 C118.202992,23.7019256 118.202992,23.2300744 118.161278,22.761 C118.102332,22.4462696 118.086854,22.1249388 118.115278,21.806 C118.109173,21.5019621 118.124545,21.1978725 118.161278,20.896 L118.252278,20.35 C118.271073,20.162399 118.31688,19.9784986 118.388278,19.804 C118.434278,19.713 118.752278,19.804 118.979278,19.804 L119.934278,19.804 C120.070278,19.849 120.070278,20.486 120.207278,20.714 C120.296817,20.8524598 120.358627,21.0069846 120.389278,21.169 C120.436117,21.4342705 120.512249,21.6935238 120.616278,21.942 C120.70781,22.1169907 120.78377,22.2996951 120.843278,22.488 C120.891473,22.680242 120.967976,22.8642527 121.070278,23.034 C121.136275,23.1787074 121.182038,23.3318112 121.206278,23.489 L121.342278,23.762 L121.478278,24.126 L121.660278,24.49 L121.933278,25.081 C122.107572,25.4231267 122.321363,25.7436465 122.570278,26.036 C122.989755,26.1193421 123.419883,26.1348727 123.844278,26.082 C124.074719,26.0726892 124.296881,25.9935201 124.481278,25.855 C124.663278,25.719 124.617278,25.491 124.527278,25.264 L124.209278,24.582 M108.924278,13.331 C109.219913,13.1391781 109.580016,13.0736393 109.924278,13.149 L111.653278,13.149 C112.284011,13.2066455 112.919788,13.1292614 113.518278,12.922 C113.745278,12.786 113.791278,12.422 113.791278,12.058 C113.813665,11.8131927 113.710991,11.5736215 113.518278,11.421 C113.163054,11.2574944 112.76979,11.1945445 112.381278,11.239 L107.331278,11.239 C107.126745,11.24093 106.925081,11.2873366 106.740278,11.375 C106.536298,11.4541388 106.407464,11.6567085 106.422278,11.875 C106.41427,11.9971472 106.398909,12.1187008 106.376278,12.239 C106.376278,12.375 106.194278,14.787 106.194278,14.787 C106.19639,15.1375485 106.226822,15.4873533 106.285278,15.833 C106.339152,16.2293255 106.308133,16.6325768 106.194278,17.016 L106.194278,17.653 C106.19821,17.880959 106.213563,18.1085777 106.240278,18.335 C106.247997,18.7154713 106.278384,19.0951443 106.331278,19.472 C106.376278,19.654 106.194278,21.472 106.194278,21.472 L106.194278,25.157 C106.194278,25.8543333 106.649278,26.203 107.559278,26.203 L110.152278,26.203 L112.927278,26.067 C113.180759,26.0634852 113.429964,26.0011838 113.655278,25.885 C113.776861,25.7472687 113.841875,25.5686609 113.837278,25.385 C113.830711,25.2627189 113.815338,25.1410703 113.791278,25.021 C113.791278,24.885 113.882278,24.384 113.609278,24.202 C113.031462,24.0469637 112.432537,23.9855182 111.835278,24.02 L110.925278,24.02 C110.54934,24.0793962 110.167734,24.0944993 109.788278,24.065 C109.379278,24.065 108.924278,23.974 108.833278,23.747 C108.752542,23.5281821 108.706651,23.2980486 108.697278,23.065 C108.672665,22.8993176 108.657308,22.732392 108.651278,22.565 L108.651278,21.476 C108.655881,21.2630278 108.671234,21.0504239 108.697278,20.839 C108.692079,20.5182761 108.7226,20.1979702 108.788278,19.884 C108.879278,19.657 109.061278,19.702 109.379278,19.702 L112.200278,19.702 C112.357116,19.7094924 112.513386,19.6782386 112.655278,19.611 C112.804247,19.5642773 112.932713,19.4679281 113.019278,19.338 C113.102778,19.1049781 113.13385,18.856406 113.110278,18.61 C113.129525,18.4231305 113.098091,18.2345262 113.019278,18.064 C112.929685,17.8807223 112.762752,17.7471755 112.564278,17.7 C111.989106,17.6482433 111.410449,17.6482433 110.835278,17.7 L110.109278,17.7 C109.739661,17.7394525 109.365927,17.6929069 109.017278,17.564 C108.744278,17.382 108.744278,16.973 108.744278,16.7 L108.744278,14.105 C108.744278,13.923 108.744278,13.468 108.926278,13.332 M129.309278,13.332 C129.604913,13.1401781 129.965016,13.0746393 130.309278,13.15 L132.038278,13.15 C132.669011,13.2076455 133.304788,13.1302614 133.903278,12.923 C134.130278,12.787 134.176278,12.423 134.176278,12.059 C134.198665,11.8141927 134.095991,11.5746215 133.903278,11.422 C133.548054,11.2584944 133.15479,11.1955445 132.766278,11.24 L127.716278,11.24 C127.511745,11.24193 127.310081,11.2883366 127.125278,11.376 C126.921298,11.4551388 126.792464,11.6577085 126.807278,11.876 C126.79927,11.9981472 126.783909,12.1197008 126.761278,12.24 C126.761278,12.376 126.579278,14.788 126.579278,14.788 C126.58139,15.1385485 126.611822,15.4883533 126.670278,15.834 C126.724152,16.2303255 126.693133,16.6335768 126.579278,17.017 L126.579278,17.654 C126.583219,17.8819586 126.598571,18.1095769 126.625278,18.336 C126.63299,18.7164716 126.663377,19.0961451 126.716278,19.473 C126.762278,19.655 126.580278,21.473 126.580278,21.473 L126.580278,25.158 C126.580278,25.8553333 127.035278,26.204 127.945278,26.204 L130.538278,26.204 L133.313278,26.068 C133.566759,26.0644852 133.815964,26.0021838 134.041278,25.886 C134.162861,25.7482687 134.227875,25.5696609 134.223278,25.386 C134.216711,25.2637189 134.201338,25.1420703 134.177278,25.022 C134.177278,24.886 134.268278,24.385 133.995278,24.203 C133.417462,24.0479637 132.818537,23.9865182 132.221278,24.021 L131.311278,24.021 C130.93534,24.0803962 130.553734,24.0954993 130.174278,24.066 C129.765278,24.066 129.310278,23.975 129.219278,23.748 C129.138201,23.5292373 129.091971,23.2991021 129.082278,23.066 C129.057986,22.9003005 129.042962,22.7333742 129.037278,22.566 L129.037278,21.476 C129.041866,21.2630271 129.057219,21.0504224 129.083278,20.839 C129.078087,20.5182764 129.108608,20.1979714 129.174278,19.884 C129.265278,19.657 129.447278,19.702 129.765278,19.702 L132.586278,19.702 C132.743119,19.7095338 132.899399,19.6782779 133.041278,19.611 C133.190247,19.5642773 133.318713,19.4679281 133.405278,19.338 C133.488778,19.1049781 133.51985,18.856406 133.496278,18.61 C133.515475,18.423132 133.484043,18.2345409 133.405278,18.064 C133.315685,17.8807223 133.148752,17.7471755 132.950278,17.7 C132.375107,17.648238 131.796449,17.648238 131.221278,17.7 L130.493278,17.7 C130.123661,17.7394525 129.749927,17.6929069 129.401278,17.564 C129.128278,17.382 129.128278,16.973 129.128278,16.7 L129.128278,14.105 C129.128278,13.923 129.128278,13.468 129.310278,13.332 M103.829278,16.107 C103.806522,15.8194495 103.806522,15.5305505 103.829278,15.243 C103.820977,15.1361595 103.805947,15.0299487 103.784278,14.925 C103.738011,14.6701092 103.722567,14.410579 103.738278,14.152 C103.785034,13.9116696 103.815437,13.6684449 103.829278,13.424 C103.836556,13.2708924 103.821053,13.1175528 103.783278,12.969 C103.764853,12.7406424 103.780355,12.5108151 103.829278,12.287 C103.836948,12.1384208 103.788394,11.9924007 103.693278,11.878 L103.375278,11.605 C103.242023,11.5057904 103.085193,11.4430584 102.920278,11.423 C102.695199,11.3777198 102.463356,11.3777198 102.238278,11.423 L101.556278,11.514 C101.329278,11.605 101.238278,12.105 101.283278,12.424 C101.306513,12.6507396 101.306513,12.8792604 101.283278,13.106 L101.283278,14.016 C101.258573,14.3795808 101.258573,14.7444192 101.283278,15.108 C101.329278,15.563 101.283278,16.518 101.283278,16.973 L101.283278,23.934 C101.283278,24.252 101.192278,24.525 101.192278,24.798 C101.198565,25.090879 101.244654,25.3815425 101.329278,25.662 C101.442937,25.8192642 101.581014,25.9573409 101.738278,26.071 C101.974984,26.1375969 102.223172,26.1529382 102.466278,26.116 L103.194278,26.116 C103.372038,26.078014 103.532109,25.981971 103.649278,25.843 C103.75768,25.7275924 103.835686,25.5870431 103.876278,25.434 C103.907713,24.9948952 103.907713,24.5541048 103.876278,24.115 L103.876278,22.249 C103.886483,21.8088136 103.871124,21.368406 103.830278,20.93 C103.830278,20.748 103.739278,19.975 103.739278,19.747 C103.720214,19.489686 103.720214,19.231314 103.739278,18.974 C103.766075,18.7626504 103.781431,18.550007 103.785278,18.337 C103.799209,18.1402463 103.799209,17.9427537 103.785278,17.746 C103.744339,17.5826879 103.728823,17.4140403 103.739278,17.246 C103.756095,17.0919405 103.786547,16.9396768 103.830278,16.791 C103.843093,16.5638473 103.843093,16.3361527 103.830278,16.109 M96.2762778,19.84 C96.2762778,19.931 96.2312778,20.386 96.2312778,20.522 C96.2579517,20.9766091 96.2579517,21.4323909 96.2312778,21.887 C96.1852778,22.205 96.2762778,22.797 96.2312778,23.07 C96.1939101,23.3508313 96.0843427,23.6171696 95.9132778,23.843 L95.3672778,24.116 C94.9965514,24.2202507 94.6150221,24.2813223 94.2302778,24.298 C94.2302778,24.298 93.5482778,24.343 93.4112778,24.161 C93.308246,23.9309333 93.2466341,23.6844856 93.2292778,23.433 C93.1832778,23.251 93.2292778,22.25 93.1832778,22.068 C93.1905064,21.6869267 93.1600247,21.3060727 93.0922778,20.931 L93.0922778,20.476 C93.1536444,20.1606241 93.1536444,19.8363759 93.0922778,19.521 C93.0462778,19.112 93.0922778,18.93 93.0462778,18.657 C93.0412059,18.4738542 93.0566351,18.2907157 93.0922778,18.111 C93.1457087,17.8878488 93.1612585,17.657305 93.1382778,17.429 L93.1382778,16.792 C93.1382778,16.701 93.0922778,15.973 93.0922778,15.882 L93.0922778,15.109 C93.0922778,14.836 93.0012778,13.699 93.1832778,13.562 C93.435094,13.4291956 93.7179154,13.3663464 94.0022778,13.38 C95.1392778,13.198 95.8672778,13.471 96.1402778,14.335 C96.2322302,14.4686394 96.2798096,14.6278203 96.2762778,14.79 C96.2977446,14.8950218 96.3131037,15.0012 96.3222778,15.108 L96.3222778,18.793 C96.3958208,19.1532853 96.3958208,19.5247147 96.3222778,19.885 M98.8702778,15.654 C98.8696703,15.2277316 98.8392628,14.8020272 98.7792778,14.38 C98.5656637,13.7467829 98.2589686,13.1488959 97.8692778,12.606 L97.4142778,12.197 C97.0203448,11.9280764 96.5917765,11.7137922 96.1402778,11.56 L94.6842778,11.378 L93.2742778,11.287 L91.6822778,11.378 C91.444879,11.4191641 91.2149916,11.4956809 91.0002778,11.605 C90.826557,11.8080465 90.7299023,12.0657924 90.7272778,12.333 C90.7253584,12.515882 90.7099835,12.6983748 90.6812778,12.879 L90.6812778,14.24 C90.6352778,14.422 90.6352778,15.65 90.6352778,16.014 L90.6352778,16.651 C90.6594027,16.923467 90.6594027,17.197533 90.6352778,17.47 C90.5962862,17.7871393 90.5962862,18.1078607 90.6352778,18.425 C90.6514413,18.6835785 90.6359939,18.9431633 90.5892778,19.198 C90.5607038,19.3939639 90.5607038,19.5930361 90.5892778,19.789 C90.6209601,20.0303566 90.6363283,20.2735751 90.6352778,20.517 L90.6352778,21.245 C90.6122125,21.6236491 90.6122125,22.0033509 90.6352778,22.382 C90.6812778,22.882 90.6352778,24.247 90.6352778,24.247 L90.6352778,24.702 C90.6592195,25.1045217 90.7355291,25.5022054 90.8622778,25.885 C90.9982778,26.158 91.9082778,26.203 91.9992778,26.203 L94.6832778,26.203 L95.6382778,26.021 C95.9674727,25.9735154 96.2887235,25.8816813 96.5932778,25.748 L97.5482778,25.202 C97.8517652,24.8742201 98.083987,24.4870702 98.2302778,24.065 C98.3629869,23.6783357 98.4692323,23.2830895 98.5482778,22.882 C98.6601608,22.3895534 98.7211478,21.8869139 98.7302778,21.382 C98.7377767,20.8185447 98.7835488,20.25625 98.8672778,19.699 C98.9132778,19.017 98.8672778,17.699 98.8672778,17.699 L98.8702778,15.654 Z M109.379278,10.24 C109.425278,10.331 109.606278,10.331 109.697278,10.422 C109.848115,10.4444258 110.00144,10.4444258 110.152278,10.422 L110.652278,10.422 C110.789278,10.422 111.016278,10.467 111.061278,10.422 C111.036704,10.1649042 110.924419,9.92409214 110.743278,9.74 C110.561278,9.604 110.606278,9.422 110.516278,9.285 C110.452177,9.20462368 110.405826,9.11158205 110.380278,9.012 L110.243278,8.785 L110.061278,8.512 L109.879278,8.285 L109.788278,8.058 C109.743278,8.013 109.697278,7.558 109.424278,7.512 C109.182957,7.47584993 108.937598,7.47584993 108.696278,7.512 L107.650278,7.512 C107.604278,7.512 107.286278,7.512 107.286278,7.694 C107.286278,7.876 107.559278,8.012 107.650278,8.103 C107.760667,8.26310747 107.882307,8.41515802 108.014278,8.558 L108.287278,8.785 L108.651278,9.194 L108.833278,9.421 L109.106278,9.694 L109.333278,10.012 L109.379278,10.24 Z" id="Tracé_42"></path>
                <g id="Groupe_15" transform="translate(37.452278, 28.248261)">
                    <path d="M16.874,4.8287386 C16.8967562,5.27046441 16.8662026,5.71332306 16.783,6.1477386 C16.646,6.6477386 16.237,6.8757386 15.509,7.0577386 L14.963,7.1937386 L14.463,7.1937386 C14.2337639,7.23879595 13.9968305,7.1711007 13.826,7.0117386 C13.6936368,6.6803533 13.6481979,6.32062899 13.694,5.9667386 C13.742691,5.60436691 13.742691,5.2371103 13.694,4.8747386 C13.648,4.1467386 13.694,3.1457386 13.694,2.8747386 C13.6907018,2.66345752 13.7544159,2.45656184 13.876,2.2837386 C14.0289614,2.20161237 14.2039116,2.16977144 14.376,2.1927386 C14.7985045,2.14018069 15.2248052,2.12478835 15.65,2.1467386 C15.8269918,2.17401902 15.9968858,2.23586042 16.15,2.3287386 L16.423,2.5557386 C16.5566362,2.6953151 16.6508419,2.86785305 16.696,3.0557386 L16.832,3.7837386 C16.8835339,4.12986967 16.8989501,4.48041991 16.878,4.8297386 M18.561,1.5087386 C18.3903241,1.21860549 18.1573917,0.96996216 17.879,0.780738602 L17.288,0.462738602 C16.9483592,0.350231285 16.5977236,0.27413732 16.242,0.235738602 L15.194,0.142738602 L14.148,0.0517386023 L13.102,0.142738602 L12.056,0.233738602 C11.7890797,0.244518835 11.5266909,0.306297323 11.283,0.415738602 C11.2101145,0.53899313 11.17825,0.682208218 11.192,0.824738602 C11.2253121,1.15700167 11.2406677,1.49082046 11.238,1.8247386 C11.192,2.0977386 11.284,3.2347386 11.238,3.5077386 C11.2233944,3.82681005 11.2387954,4.14654807 11.284,4.4627386 C11.3075131,4.82733905 11.2920926,5.19340726 11.238,5.5547386 C11.1797202,5.94642277 11.1493105,6.3417491 11.147,6.7377386 C11.147,7.1927386 11.192,7.6017386 11.192,7.8297386 C11.192,8.0577386 11.192,9.1487386 11.147,9.3767386 C11.1093725,9.61747556 11.0943071,9.86120024 11.102,10.1047386 C11.102,10.3317386 11.056,10.9237386 11.102,11.6047386 L11.102,13.6047386 C11.102,13.7867386 11.147,13.9227386 11.147,14.1047386 C11.1463755,14.5648775 11.5064852,14.9447734 11.966,14.9687386 L13.234,14.9687386 C13.598,14.9687386 13.689,14.3777386 13.689,14.1957386 C13.7124269,14.029938 13.7274461,13.8630578 13.734,13.6957386 C13.7280111,13.4205804 13.6975577,13.1465003 13.643,12.8767386 C13.6089951,12.5442725 13.6089951,12.2092047 13.643,11.8767386 C13.6668205,11.5892312 13.6668205,11.3002461 13.643,11.0127386 C13.5803171,10.5147032 13.5803171,10.010774 13.643,9.5127386 C13.87,9.1947386 14.28,9.3767386 14.507,9.3767386 C14.8245923,9.40745594 15.1444077,9.40745594 15.462,9.3767386 L16.235,9.0587386 C16.5371368,9.05418279 16.8336422,8.97628149 17.099,8.8317386 L17.827,8.3767386 C18.0305155,8.23520712 18.2141494,8.06704423 18.373,7.8767386 C18.6199403,7.64965738 18.8343027,7.38952845 19.01,7.1037386 C19.1301234,6.83153952 19.1920939,6.537265 19.192,6.2397386 L19.192,3.5097386 C19.1934355,3.23608326 19.1784084,2.96258934 19.147,2.6907386 C19.0102847,2.25503295 18.8112208,1.84141108 18.556,1.4627386 M26.837,4.8297386 C26.8597562,5.27146441 26.8292026,5.71432306 26.746,6.1487386 C26.609,6.6487386 26.2,6.8767386 25.472,7.0587386 L24.926,7.1947386 L24.426,7.1947386 C24.1967639,7.23979595 23.9598305,7.1721007 23.789,7.0127386 C23.6551109,6.68140027 23.6082908,6.32129813 23.653,5.9667386 C23.701691,5.60436691 23.701691,5.2371103 23.653,4.8747386 C23.607,4.1467386 23.653,3.1457386 23.653,2.8747386 C23.6497018,2.66345752 23.7134159,2.45656184 23.835,2.2837386 C23.9879614,2.20161237 24.1629116,2.16977144 24.335,2.1927386 C24.7575045,2.14018069 25.1838052,2.12478835 25.609,2.1467386 C25.7859918,2.17401902 25.9558858,2.23586042 26.109,2.3287386 L26.382,2.5557386 C26.5156362,2.6953151 26.6098419,2.86785305 26.655,3.0557386 L26.791,3.7837386 C26.8425267,4.12987036 26.8579428,4.48041985 26.837,4.8297386 M28.52,1.5087386 C28.3493241,1.21860549 28.1163917,0.96996216 27.838,0.780738602 L27.247,0.462738602 C26.9073592,0.350231285 26.5567236,0.27413732 26.201,0.235738602 L25.155,0.144738602 L24.109,0.0537386023 L23.063,0.144738602 L22.017,0.235738602 C21.7500797,0.246518835 21.4876909,0.308297323 21.244,0.417738602 C21.1711145,0.54099313 21.13925,0.684208218 21.153,0.826738602 C21.1863121,1.15900167 21.2016677,1.49282046 21.199,1.8267386 C21.153,2.0997386 21.245,3.2367386 21.199,3.5097386 C21.1843944,3.82881005 21.1997954,4.14854807 21.245,4.4647386 C21.2685131,4.82933905 21.2530926,5.19540726 21.199,5.5567386 C21.1407235,5.94842315 21.1103138,6.34374924 21.108,6.7397386 C21.108,7.1947386 21.154,7.6037386 21.154,7.8317386 C21.154,8.0597386 21.154,9.1507386 21.108,9.3787386 C21.0700321,9.61944358 21.0546319,9.86316898 21.062,10.1067386 C21.062,10.3337386 21.017,10.9257386 21.062,11.6067386 L21.062,13.6067386 C21.062,13.7887386 21.108,13.9247386 21.108,14.1067386 C21.1073755,14.5668775 21.4674852,14.9467734 21.927,14.9707386 L23.194,14.9707386 C23.558,14.9707386 23.649,14.3797386 23.649,14.1977386 C23.6727581,14.0319546 23.6881111,13.8650745 23.695,13.6977386 C23.6890058,13.4225807 23.6585525,13.1485011 23.604,12.8787386 C23.5699951,12.5462725 23.5699951,12.2112047 23.604,11.8787386 C23.6280279,11.5912398 23.6280279,11.3022374 23.604,11.0147386 C23.5413171,10.5167032 23.5413171,10.012774 23.604,9.5147386 C23.831,9.1967386 24.241,9.3787386 24.468,9.3787386 C24.7855923,9.40945594 25.1054077,9.40945594 25.423,9.3787386 L26.242,9.2877386 C26.5441368,9.28318279 26.8406422,9.20528149 27.106,9.0607386 L27.834,8.6057386 C28.0375155,8.46420712 28.2211494,8.29604423 28.38,8.1057386 C28.6269403,7.87865738 28.8413027,7.61852845 29.017,7.3327386 C29.1371234,7.06053952 29.1990945,6.766265 29.199,6.4687386 L29.199,3.7387386 C29.2004404,3.46508314 29.1854132,3.19158893 29.154,2.9197386 C29.0172847,2.48403295 28.8182208,2.07041108 28.563,1.6917386 M96.494,9.9697386 C96.387947,9.66051414 96.2664612,9.35679977 96.13,9.0597386 C95.9856944,8.74957589 95.8021969,8.45920614 95.584,8.1957386 L94.993,7.7867386 C94.8174004,7.66170615 94.6503609,7.52506782 94.493,7.3777386 C94.1874432,7.20771967 93.8982183,7.0098818 93.629,6.7867386 C93.4388129,6.59363952 93.2247487,6.42561424 92.992,6.2867386 C92.8536237,6.1837375 92.7310011,6.06111494 92.628,5.9227386 L92.31,5.5587386 L91.946,5.1497386 L91.582,4.7407386 L91.264,4.2407386 C91.1949845,3.97343481 91.1643442,3.69767253 91.173,3.4217386 C91.1790677,3.14854566 91.2573904,2.88183452 91.4,2.6487386 C91.5803102,2.32881415 91.8717191,2.08615134 92.219,1.9667386 C92.4064491,1.88694065 92.6065261,1.84089924 92.81,1.8307386 L93.356,1.8307386 L93.993,2.1487386 C94.1523097,2.2249881 94.2807505,2.35342892 94.357,2.5127386 L94.493,2.8767386 C94.5027518,3.0318051 94.5333607,3.18484962 94.584,3.3317386 C94.63,3.5137386 94.584,3.5137386 94.63,3.6497386 L94.721,3.7857386 L94.948,3.8767386 L95.63,3.8767386 C95.8883188,3.90695025 96.1499318,3.89172051 96.403,3.8317386 L96.721,3.6047386 C96.7865313,3.51213191 96.8186214,3.39999275 96.812,3.2867386 L96.812,2.9147386 C96.8053081,2.79252196 96.7902731,2.67090538 96.767,2.5507386 C96.719221,2.39422916 96.658339,2.24202405 96.585,2.0957386 C96.51301,1.80337614 96.3897706,1.52608745 96.221,1.2767386 C95.9853414,0.982178663 95.7096756,0.721995932 95.402,0.503738602 C95.1733397,0.337682846 94.9083172,0.228656763 94.629,0.185738602 L93.81,0.0947386023 L92.536,0.0947386023 C92.0773986,0.0900853525 91.6196678,0.135690771 91.171,0.230738602 C90.7348029,0.321788187 90.318736,0.491196513 89.943,0.730738602 C89.7143044,0.892732257 89.5010648,1.07550906 89.306,1.2767386 C89.0456385,1.64136267 88.8743895,2.06195004 88.806,2.5047386 C88.7192668,2.92527152 88.6584853,3.35074171 88.624,3.7787386 C88.624,3.9607386 88.715,4.3697386 88.715,4.5067386 C88.7494047,4.6912878 88.7948192,4.87361348 88.851,5.0527386 C88.8594708,5.24816672 88.9225197,5.43731365 89.033,5.5987386 L89.624,6.3267386 C89.806,6.5537386 90.67,7.2367386 90.716,7.3727386 L91.307,7.9637386 C91.443,8.0997386 91.989,8.3727386 92.08,8.5097386 L92.444,8.7827386 L92.853,9.0557386 L93.217,9.3737386 C93.5512251,9.67700542 93.8150594,10.0497182 93.99,10.4657386 C94.1195263,10.7757491 94.2258194,11.0949627 94.308,11.4207386 C94.308,11.6487386 94.399,12.0117386 94.308,12.1487386 C94.201718,12.3118571 94.0798098,12.4642423 93.944,12.6037386 L93.626,12.8307386 C93.171,13.1037386 92.944,13.0127386 92.944,13.0127386 C92.6737976,13.0917345 92.3846571,13.0754946 92.125,12.9667386 C91.898,12.8307386 91.488,12.7397386 91.397,12.6027386 C91.2541372,12.3398247 91.1324198,12.0659605 91.033,11.7837386 C90.943141,11.5675966 90.8969207,11.3358155 90.897,11.1017386 L90.897,10.8747386 L90.715,10.6477386 C90.5473449,10.557068 90.3596011,10.5099601 90.169,10.5107386 C89.8014008,10.5473785 89.4366122,10.6081767 89.077,10.6927386 C88.713,10.7377386 88.44,10.9657386 88.486,11.2387386 C88.532,11.5117386 88.577,11.7847386 88.577,11.8297386 C88.5801933,11.9223724 88.5956616,12.0141732 88.623,12.1027386 C88.6610313,12.419506 88.7533835,12.7273468 88.896,13.0127386 C89.0421057,13.1769475 89.1646171,13.3607145 89.26,13.5587386 C89.6782041,14.0291746 90.1699174,14.4286916 90.716,14.7417386 L91.626,14.9237386 C92.1526077,15.0061004 92.6875153,15.0215563 93.218,14.9697386 C93.4582794,14.928063 93.7024172,14.912972 93.946,14.9247386 L94.81,14.6977386 C95.0941248,14.6443305 95.3696553,14.552487 95.629,14.4247386 C95.9572152,14.1622953 96.2479193,13.8561139 96.493,13.5147386 C96.7149594,13.1610548 96.826054,12.7490643 96.812,12.3317386 C96.8281308,11.9521186 96.8127447,11.5718148 96.766,11.1947386 C96.7195731,10.7805367 96.6437147,10.3701658 96.539,9.9667386 M46.445,12.8787386 L44.17,12.8787386 C43.8070094,12.9017966 43.4447795,12.8231865 43.124,12.6517386 C42.8653312,12.3460805 42.7207717,11.9601173 42.715,11.5597386 L42.715,10.7867386 C42.715,10.6047386 42.669,10.2407386 42.624,9.8317386 C42.5851222,9.40824914 42.5697653,8.98292914 42.578,8.5577386 C42.6149065,8.33238245 42.6299764,8.10399026 42.623,7.8757386 C42.623,7.6937386 42.578,7.4207386 42.578,7.2387386 C42.578,7.0567386 42.532,6.2387386 42.578,5.7387386 C42.624,5.2387386 42.624,4.1007386 42.669,3.7387386 C42.7263039,3.10302735 42.7263039,2.46344985 42.669,1.8277386 C42.6088866,1.57445612 42.5783492,1.31505671 42.578,1.0547386 C42.611463,0.804571952 42.5277119,0.552949678 42.351,0.372738602 C42.0744927,0.201631929 41.7638972,0.0930941609 41.441,0.0547386023 C41.1684533,0.0648711271 40.9027501,0.142897789 40.668,0.281738602 C40.4301118,0.384797929 40.2712278,0.613823497 40.258,0.872738602 C40.258,1.13140527 40.243,1.38907194 40.213,1.6457386 C40.2099063,1.99494877 40.2249265,2.34408439 40.258,2.6917386 C40.2501293,2.95155583 40.2196813,3.21019662 40.167,3.4647386 C40.1277147,3.73586499 40.1123222,4.00991832 40.121,4.2837386 C40.1208574,4.54209343 40.1362184,4.80022402 40.167,5.0567386 C40.212,5.2387386 40.167,5.3297386 40.212,5.5567386 C40.2357277,5.7834528 40.2357277,6.01202441 40.212,6.2387386 C40.196486,6.50084874 40.1505098,6.76026161 40.075,7.0117386 C40.0520474,7.25386253 40.0520474,7.49761468 40.075,7.7397386 C40.1096789,8.1026659 40.1250339,8.46718055 40.121,8.8317386 C40.1306737,9.13678381 40.1610771,9.44081831 40.212,9.7417386 C40.212,9.8777386 40.166,10.0147386 40.166,10.1967386 C40.1625123,10.4249512 40.177898,10.6530614 40.212,10.8787386 L40.212,11.5147386 C40.212,11.7877386 40.258,12.1517386 40.258,12.4697386 L40.258,14.1147386 C40.258,14.3417386 40.212,14.5237386 40.304,14.6147386 C40.4457649,14.729364 40.6217222,14.7934125 40.804,14.7967386 L41.213,14.8877386 L41.713,14.9787386 L42.941,14.9787386 C43.3673944,14.9756647 43.7933714,15.0060917 44.215,15.0697386 L46.262,15.0697386 C46.5540658,15.0557354 46.8437555,15.0101361 47.126,14.9337386 C47.3864106,14.840398 47.5770906,14.6150143 47.626,14.3427386 C47.6895053,14.0889849 47.6895053,13.8234923 47.626,13.5697386 C47.49,13.1147386 47.308,12.9327386 46.534,12.9327386 M77.063,13.1147386 C77.063,12.7057386 77.109,12.6597386 77.109,12.3417386 C77.109,12.0237386 77.155,11.6597386 77.155,11.3417386 L77.155,9.3417386 C77.155,9.1597386 77.109,8.4317386 77.109,7.7497386 L77.109,1.2797386 C77.1021151,1.18751515 77.0867162,1.096126 77.063,1.0067386 C77.0514912,0.881460215 77.0207998,0.758694239 76.972,0.642738602 C76.9184347,0.458554609 76.7847243,0.308314045 76.608,0.233738602 L76.108,0.142738602 L75.608,0.142738602 L74.971,0.278738602 C74.7590996,0.366059362 74.6051207,0.553838535 74.561,0.778738602 C74.5339369,1.0510679 74.5339369,1.32540931 74.561,1.5977386 C74.5930839,1.8236314 74.6084589,2.05158339 74.607,2.2797386 L74.607,5.0547386 C74.6516972,5.46291407 74.5726053,5.87509792 74.38,6.2377386 C74.198,6.4647386 73.47,6.4647386 73.334,6.4647386 L73.152,6.4647386 L72.06,6.3737386 C71.787,6.3277386 71.423,6.3277386 71.378,5.9187386 C71.333,5.5097386 71.287,4.9637386 71.332,5.1457386 C71.377,5.3277386 71.378,4.4637386 71.378,4.2357386 L71.378,3.4627386 C71.3695601,3.14370425 71.3849361,2.82448481 71.424,2.5077386 C71.4481625,2.15949055 71.4481625,1.80998666 71.424,1.4617386 C71.424,1.2347386 71.378,0.824738602 71.378,0.688738602 C71.3710733,0.438481121 71.2072176,0.219739724 70.969,0.142738602 C70.5811539,0.0525082545 70.1796815,0.0368973228 69.786,0.0967386023 C69.5032903,0.106149482 69.2454492,0.260778518 69.104,0.505738602 C68.9903942,0.827243331 68.97439,1.17516195 69.058,1.5057386 L69.058,2.3247386 C69.0808041,2.56686952 69.0808041,2.81060768 69.058,3.0527386 C69.0351815,3.40103193 69.0351815,3.75044527 69.058,4.0987386 L69.058,6.1457386 C69.058,6.5097386 69.012,7.7837386 69.012,8.1017386 C68.966,9.2387386 69.012,11.0137386 69.012,11.2867386 L69.012,11.9237386 C68.9999384,12.090187 68.9999384,12.2572902 69.012,12.4237386 C69.012,12.5597386 69.058,13.1967386 69.058,13.2877386 C69.058,13.3787386 69.104,13.5607386 69.104,13.7877386 C69.0926165,13.9695606 69.0926165,14.1519166 69.104,14.3337386 C69.15,14.6067386 69.15,14.6517386 69.331,14.7887386 C69.5705019,14.9066614 69.8385596,14.9541697 70.104,14.9257386 L70.923,14.9257386 C71.0662146,14.9257386 71.2010713,14.8583103 71.287,14.7437386 C71.4070962,14.5530723 71.4702391,14.3320721 71.469,14.1067386 L71.469,12.9727386 C71.469,12.7907386 71.515,11.7897386 71.515,11.4727386 L71.515,10.0147386 C71.515,9.8787386 71.424,8.7407386 71.651,8.5147386 C71.878,8.2887386 72.106,8.3327386 72.561,8.2877386 L73.289,8.2877386 C73.5930741,8.27162776 73.8979989,8.28670645 74.199,8.3327386 C74.4067396,8.38957946 74.5754226,8.54120881 74.654,8.7417386 C74.7102601,8.91795119 74.7259849,9.10459695 74.7,9.2877386 L74.7,13.9287386 C74.7030361,14.0963086 74.7184111,14.2634274 74.746,14.4287386 C74.7415703,14.6483947 74.8947289,14.8398431 75.11,14.8837386 C75.5940578,14.9576542 76.0875734,14.9420624 76.566,14.8377386 C76.7570841,14.8353523 76.9384291,14.7530217 77.066,14.6107386 C77.1579524,14.4770992 77.2055318,14.3179183 77.202,14.1557386 C77.2072199,14.0027482 77.1920875,13.8497425 77.157,13.7007386 C77.1140181,13.4913109 77.0985541,13.2771689 77.111,13.0637386 M66.149,1.2347386 C65.9602402,1.04004844 65.7459552,0.871849808 65.512,0.734738602 L65.103,0.507738602 C64.7152113,0.267844246 64.281023,0.112776995 63.829,0.0527386023 C63.3462137,-0.0175795341 62.8557863,-0.0175795341 62.373,0.0527386023 C61.9017258,0.127279167 61.4426131,0.26484481 61.008,0.461738602 C60.6042956,0.638802344 60.2347144,0.885189807 59.916,1.1897386 C59.6331629,1.42779302 59.4274548,1.74453478 59.325,2.0997386 C59.2233444,2.50064246 59.1925476,2.91622983 59.234,3.3277386 C59.2524728,3.61880683 59.2217077,3.91090581 59.143,4.1917386 C59.075808,4.52065792 59.0602885,4.85803973 59.097,5.1917386 C59.1468487,5.43098964 59.1620041,5.67616974 59.142,5.9197386 C59.097,6.1927386 59.188,7.8307386 59.188,8.3307386 C59.157281,8.87842375 59.1878034,9.42782655 59.279,9.9687386 L59.279,12.3347386 C59.2758591,12.7942516 59.4557701,13.2361128 59.779,13.5627386 C60.1654211,13.9693097 60.6296119,14.2940733 61.144,14.5177386 C61.7948772,14.8356505 62.5128812,14.9917383 63.237,14.9727386 C63.6506129,14.9834499 64.0637542,14.9376948 64.465,14.8367386 C64.8381401,14.727025 65.1912851,14.5582177 65.511,14.3367386 L66.148,13.7907386 C66.3563594,13.6147212 66.5265134,13.397945 66.648,13.1537386 C66.8007288,12.9681342 66.9094472,12.7503555 66.966,12.5167386 C67.0310466,12.2937846 67.0765519,12.0655891 67.102,11.8347386 L67.102,11.0147386 C67.0988198,10.9206896 67.0474268,10.8349086 66.966,10.7877386 L66.648,10.6967386 C66.648,10.6967386 64.828,10.3327386 64.783,11.0147386 C64.7760226,11.2335842 64.7296123,11.4493749 64.646,11.6517386 L64.419,12.1977386 C64.3524428,12.4110183 64.2058533,12.5902231 64.01,12.6977386 C63.750686,12.8040317 63.4707508,12.8505166 63.191,12.8337386 C62.509,12.8337386 61.917,12.6517386 61.826,12.1967386 C61.7460046,11.70047 61.70023,11.1992878 61.689,10.6967386 C61.6361877,10.3658342 61.6057851,10.0317405 61.598,9.6967386 L61.598,3.8737386 C61.591959,3.66040051 61.6073697,3.44699525 61.644,3.2367386 C61.6755081,3.01735753 61.7703912,2.81195133 61.917,2.6457386 C62.0767272,2.46216098 62.2799175,2.32154362 62.508,2.2367386 C62.7886957,2.15555211 63.0842707,2.13981548 63.372,2.1907386 C63.6445889,2.23213011 63.9068753,2.32476168 64.145,2.4637386 C64.3242745,2.54903271 64.4687059,2.69346413 64.554,2.8727386 C64.6263346,3.03085981 64.6722763,3.19976324 64.69,3.3727386 C64.69,3.5547386 64.736,3.6907386 64.736,3.9187386 C64.736,4.1467386 64.963,4.3737386 65.464,4.3737386 L66.192,4.3737386 C66.4412073,4.35167648 66.6784031,4.25672857 66.874,4.1007386 C67.0181144,3.95808176 67.0856974,3.75533274 67.056,3.5547386 L67.056,3.0547386 C67.0522381,2.72349218 66.9746913,2.39724891 66.829,2.0997386 C66.6682439,1.79026943 66.4523763,1.51272539 66.192,1.2807386 M82.162,2.1907386 C82.4576347,1.99891669 82.817738,1.93337789 83.162,2.0087386 L84.894,2.0087386 C85.5247332,2.06638413 86.1605102,1.989 86.759,1.7817386 C86.987,1.6457386 87.032,1.2817386 87.032,0.917738602 C87.0543868,0.672931318 86.9517134,0.433360106 86.759,0.280738602 C86.4037761,0.117232964 86.0105123,0.0542830858 85.622,0.0987386023 L80.572,0.0987386023 C80.3674675,0.10066862 80.1658037,0.147075189 79.981,0.234738602 C79.7770203,0.3138774 79.648186,0.516447056 79.663,0.734738602 C79.6549754,0.856884165 79.6396143,0.978436789 79.617,1.0987386 C79.617,1.2347386 79.435,3.6467386 79.435,3.6467386 C79.4370774,3.99728871 79.46751,4.34709628 79.526,4.6927386 C79.5798744,5.08906409 79.5488551,5.49231539 79.435,5.8757386 L79.435,6.5147386 C79.4389324,6.74269756 79.454285,6.9703163 79.481,7.1967386 C79.4887119,7.57721021 79.5190991,7.95688371 79.572,8.3337386 C79.617,8.5157386 79.436,10.3337386 79.436,10.3337386 L79.436,14.0147386 C79.436,14.7120719 79.891,15.0607386 80.801,15.0607386 L83.394,15.0607386 L86.169,14.9237386 C86.4224808,14.9202238 86.6716864,14.8579224 86.897,14.7417386 C87.0185835,14.6040073 87.0835967,14.4253995 87.079,14.2417386 C87.0727635,14.1194818 87.0577245,13.9978334 87.034,13.8777386 C87.034,13.7417386 87.125,13.2407386 86.852,13.0587386 C86.2741845,12.9037023 85.6752587,12.8422568 85.078,12.8767386 L84.168,12.8767386 C83.7921007,12.9364594 83.4104952,12.9518981 83.031,12.9227386 C82.622,12.9227386 82.167,12.8317386 82.076,12.6047386 C81.9952645,12.3859207 81.9493727,12.1557872 81.94,11.9227386 C81.915373,11.7570579 81.9000158,11.5901315 81.894,11.4227386 L81.894,10.3337386 C81.8985882,10.1207657 81.9139411,9.908161 81.94,9.6967386 C81.9348007,9.3760147 81.965322,9.05570875 82.031,8.7417386 C82.122,8.5147386 82.304,8.5597386 82.622,8.5597386 L85.443,8.5597386 C85.5998415,8.56727238 85.7561209,8.5360165 85.898,8.4687386 C86.0470066,8.42208896 86.1754945,8.32572304 86.262,8.1957386 C86.3455003,7.96271667 86.3765718,7.71414455 86.353,7.4677386 C86.3721973,7.28087061 86.3407654,7.09227948 86.262,6.9217386 C86.1724076,6.73846094 86.0054741,6.60491411 85.807,6.5577386 C85.2318289,6.50597656 84.6531711,6.50597656 84.078,6.5577386 L83.35,6.5577386 C82.9803833,6.59715475 82.6066578,6.55061017 82.258,6.4217386 C81.985,6.2397386 81.985,5.8307386 81.985,5.5577386 L81.985,2.9637386 C81.985,2.7817386 81.985,2.3267386 82.167,2.1907386 M5.727,9.4247386 L5.454,9.5607386 L4.681,9.5607386 C4.499,9.5607386 4.454,9.6517386 4.135,9.5607386 C3.816,9.4697386 3.726,9.5147386 3.68,9.4247386 C3.65752932,9.19647525 3.67273198,8.96607051 3.725,8.7427386 C3.80301252,8.32666371 3.90925812,7.91638195 4.043,7.5147386 C4.18,7.1057386 4.134,6.6047386 4.225,6.2867386 C4.316,5.9687386 4.452,5.4227386 4.498,5.3317386 C4.52553888,5.28620371 4.57162707,5.25500246 4.62413335,5.24634758 C4.67663963,5.2376927 4.73030362,5.25245128 4.771,5.2867386 C4.907,5.3777386 4.862,5.7417386 4.953,6.0597386 L5.271,7.1057386 C5.271,7.2877386 5.407,7.4237386 5.407,7.6057386 C5.407,7.7877386 5.543,8.2427386 5.543,8.4247386 C5.543,8.6067386 5.725,9.2887386 5.588,9.4247386 M9.228,13.1097386 C9.11610154,12.6128606 8.96393213,12.1259185 8.773,11.6537386 C8.637,11.3357386 8.455,10.2437386 8.273,9.6977386 C8.09268518,9.17568118 7.94079579,8.6442352 7.818,8.1057386 C7.69666667,7.7117386 7.57533333,7.28707194 7.454,6.8317386 L7.094,5.4657386 L6.912,4.8287386 C6.83061449,4.52991952 6.76980533,4.22587372 6.73,3.9187386 L6.684,3.3277386 C6.59135325,3.04446945 6.51555404,2.75596498 6.457,2.4637386 C6.457,2.4637386 6.411,2.3267386 6.139,1.2807386 C6.11268144,0.967076327 6.03568247,0.659755855 5.911,0.370738602 C5.82,0.188738602 5.365,0.188738602 5.229,0.143738602 L4.229,0.143738602 C3.93072584,0.123527483 3.63649266,0.221605208 3.41,0.416738602 C3.25771963,0.665340799 3.16433702,0.94548862 3.137,1.2357386 L2.864,2.0547386 C2.819,2.2817386 2.591,3.7377386 2.591,3.8287386 L2.227,4.9207386 C2.091,5.2847386 2.227,5.3297386 2.091,5.6487386 C1.955,5.9677386 1.818,6.8767386 1.727,7.1487386 C1.636,7.4207386 1.363,8.3317386 1.318,8.5137386 C1.2054018,8.91796963 1.11427438,9.32787614 1.045,9.7417386 C1.02198707,9.92858236 0.976317924,10.1119305 0.909,10.2877386 C0.800192599,10.5188029 0.723804863,10.763782 0.682,11.0157386 C0.630542983,11.324603 0.554637689,11.6288929 0.455,11.9257386 C0.297535341,12.4162734 0.175882405,12.9175905 0.091,13.4257386 C0.091,13.6987386 1.42108547e-14,14.0167386 1.42108547e-14,14.2897386 C0.0103311412,14.3815264 0.0599403585,14.46433 0.136,14.5167386 C0.365029101,14.6308916 0.610771238,14.7078547 0.864,14.7447386 C1.17768013,14.8122502 1.50036148,14.8274551 1.819,14.7897386 C1.99599181,14.7624582 2.16588578,14.7006168 2.319,14.6077386 C2.47864029,14.392214 2.58736303,14.1433141 2.637,13.8797386 C2.682,13.6977386 2.728,13.5617386 2.773,13.3337386 C2.818,13.1057386 2.773,12.9697386 2.819,12.8337386 C2.865,12.6977386 2.91,11.9697386 3.137,11.7877386 C3.364,11.6057386 3.637,11.6967386 3.956,11.6967386 L4.594,11.6967386 C5.12483023,11.6581886 5.65819494,11.6732648 6.186,11.7417386 C6.459,11.8327386 6.459,12.1057386 6.595,12.5147386 C6.65851289,12.752096 6.68913221,12.9970506 6.686,13.2427386 C6.67833248,13.5012259 6.69339038,13.7598871 6.731,14.0157386 C6.76817554,14.361425 6.94979917,14.6752706 7.231,14.8797386 C7.59825355,14.9956036 7.98699298,15.0267164 8.368,14.9707386 C8.64597144,14.9626472 8.92152798,14.9165528 9.187,14.8337386 C9.40913753,14.7502618 9.54199905,14.5221411 9.505,14.2877386 C9.44120303,13.9027189 9.34997062,13.5227509 9.232,13.1507386 M34.575,9.4197386 L34.302,9.5557386 L33.529,9.5557386 C33.347,9.5557386 33.302,9.6467386 32.983,9.5557386 C32.664,9.4647386 32.574,9.5097386 32.528,9.4197386 C32.5058749,9.19142025 32.5214152,8.96101787 32.574,8.7377386 C32.6528908,8.32330538 32.7598028,7.91470082 32.894,7.5147386 C33.031,7.1057386 32.985,6.6047386 33.076,6.2867386 C33.167,5.9687386 33.303,5.4227386 33.349,5.3317386 C33.3765389,5.28620371 33.4226271,5.25500246 33.4751333,5.24634758 C33.5276396,5.2376927 33.5813036,5.25245128 33.622,5.2867386 C33.758,5.3777386 33.713,5.7417386 33.804,6.0597386 L34.122,7.1057386 C34.122,7.2877386 34.259,7.4237386 34.259,7.6057386 C34.259,7.7877386 34.395,8.2427386 34.395,8.4247386 C34.395,8.6067386 34.577,9.2887386 34.441,9.4247386 M38.081,13.1097386 C37.969093,12.6128629 37.8169238,12.1259215 37.626,11.6537386 C37.49,11.3357386 37.308,10.2437386 37.126,9.6977386 C36.9455989,9.17570838 36.7937082,8.64425768 36.671,8.1057386 C36.5496667,7.7117386 36.4283333,7.28707194 36.307,6.8317386 L35.943,5.4667386 L35.761,4.8297386 C35.6796206,4.53091808 35.6188115,4.2268727 35.579,3.9197386 L35.442,3.3287386 C35.3493533,3.04546945 35.273554,2.75696498 35.215,2.4647386 C35.215,2.4647386 35.169,2.3277386 34.897,1.2817386 C34.8709994,0.968132543 34.7943387,0.660814159 34.67,0.371738602 C34.579,0.189738602 34.124,0.189738602 33.988,0.144738602 L33.078,0.144738602 C32.7797258,0.124527483 32.4854927,0.222605208 32.259,0.417738602 C32.1067196,0.666340799 32.013337,0.94648862 31.986,1.2367386 L31.713,2.0557386 C31.667,2.2827386 31.44,3.7387386 31.44,3.8297386 L31.076,4.9217386 C30.94,5.2857386 31.076,5.3307386 30.94,5.6497386 C30.804,5.9687386 30.667,6.8777386 30.576,7.1497386 C30.485,7.4217386 30.212,8.3327386 30.167,8.5147386 C30.0543982,8.91896872 29.9632707,9.32887542 29.894,9.7427386 C29.870655,9.92962293 29.82465,10.1129711 29.757,10.2887386 C29.6482045,10.5198075 29.5718173,10.764785 29.53,11.0167386 C29.478543,11.325603 29.4026377,11.6298929 29.303,11.9267386 C29.1456905,12.4173171 29.0240403,12.9186228 28.939,13.4267386 C28.939,13.6997386 28.848,14.0177386 28.848,14.2907386 C28.8582027,14.3825697 28.9078415,14.4654228 28.984,14.5177386 C29.2130945,14.6315296 29.4588316,14.7081537 29.712,14.7447386 C30.0256801,14.8122502 30.3483615,14.8274551 30.667,14.7897386 C30.8439918,14.7624582 31.0138858,14.7006168 31.167,14.6077386 C31.3266403,14.392214 31.435363,14.1433141 31.485,13.8797386 C31.531,13.6977386 31.576,13.5617386 31.621,13.3337386 C31.666,13.1057386 31.621,12.9697386 31.667,12.8337386 C31.713,12.6977386 31.758,11.9697386 31.985,11.7877386 C32.212,11.6057386 32.485,11.6967386 32.804,11.6967386 L33.532,11.6967386 C34.0628301,11.6581818 34.5961955,11.6732581 35.124,11.7417386 C35.397,11.8327386 35.397,12.1057386 35.533,12.5147386 C35.5965129,12.752096 35.6271322,12.9970506 35.624,13.2427386 C35.6166583,13.5012553 35.6320508,13.7599171 35.67,14.0157386 C35.7071755,14.361425 35.8887992,14.6752706 36.17,14.8797386 C36.5372535,14.9956036 36.925993,15.0267164 37.307,14.9707386 C37.5849714,14.9626472 37.860528,14.9165528 38.126,14.8337386 C38.3481375,14.7502618 38.4809991,14.5221411 38.444,14.2877386 C38.3802097,13.9027175 38.2889772,13.5227491 38.171,13.1507386 M54.186,9.4197386 L53.913,9.5557386 L53.14,9.5557386 C52.958,9.5557386 52.913,9.6467386 52.594,9.5557386 C52.275,9.4647386 52.185,9.5097386 52.139,9.4197386 C52.1168567,9.19142052 52.1323972,8.96101516 52.185,8.7377386 C52.2629974,8.32166034 52.3692433,7.91137757 52.503,7.5097386 C52.639,7.1007386 52.594,6.5997386 52.685,6.2817386 C52.776,5.9637386 52.912,5.4177386 52.958,5.3267386 C52.9855389,5.28120371 53.0316271,5.25000246 53.0841333,5.24134758 C53.1366396,5.2326927 53.1903036,5.24745128 53.231,5.2817386 C53.367,5.3727386 53.322,5.7367386 53.413,6.0547386 L53.731,7.1007386 C53.731,7.2827386 53.868,7.4187386 53.868,7.6007386 C53.868,7.7827386 54.004,8.2377386 54.004,8.4197386 C54.004,8.6017386 54.186,9.2837386 54.05,9.4197386 M57.69,13.1047386 C57.5780844,12.6078652 57.4259155,12.1209245 57.235,11.6487386 C57.099,11.3307386 56.917,10.2387386 56.735,9.6927386 C56.5546871,9.17068059 56.4027977,8.63923471 56.28,8.1007386 C56.1586667,7.7067386 56.0373333,7.28207194 55.916,6.8267386 L55.552,5.4617386 L55.37,4.8247386 C55.2886145,4.52591952 55.2278053,4.22187372 55.188,3.9147386 L55.051,3.3237386 C54.9583533,3.04046945 54.882554,2.75196498 54.824,2.4597386 C54.824,2.4597386 54.778,2.3227386 54.506,1.2767386 C54.4799994,0.963132543 54.4033387,0.655814159 54.279,0.366738602 C54.188,0.184738602 53.733,0.184738602 53.597,0.139738602 L52.642,0.139738602 C52.3437258,0.119527483 52.0494927,0.217605208 51.823,0.412738602 C51.6707196,0.661340799 51.577337,0.94148862 51.55,1.2317386 L51.277,2.0507386 C51.231,2.2777386 51.004,3.7337386 51.004,3.8247386 L50.64,4.9167386 C50.504,5.2807386 50.64,5.3257386 50.504,5.6447386 C50.368,5.9637386 50.231,6.8727386 50.14,7.1447386 C50.049,7.4167386 49.776,8.3277386 49.731,8.5097386 C49.6183982,8.91396872 49.5272707,9.32387542 49.458,9.7377386 C49.4346647,9.92462476 49.3886595,10.1079741 49.321,10.2837386 C49.2122045,10.5148075 49.1358173,10.759785 49.094,11.0117386 C49.042543,11.320603 48.9666377,11.6248929 48.867,11.9217386 C48.709532,12.4122725 48.587879,12.9135898 48.503,13.4217386 C48.503,13.6947386 48.412,14.0127386 48.412,14.2857386 C48.4224403,14.3777422 48.4724627,14.4606261 48.549,14.5127386 C48.7780882,14.6265454 49.0238279,14.7031703 49.277,14.7397386 C49.5906801,14.8072502 49.9133615,14.8224551 50.232,14.7847386 C50.4089918,14.7574582 50.5788858,14.6956168 50.732,14.6027386 C50.8916403,14.387214 51.000363,14.1383141 51.05,13.8747386 C51.096,13.6927386 51.141,13.5567386 51.187,13.3287386 C51.233,13.1007386 51.187,12.9647386 51.233,12.8287386 C51.279,12.6927386 51.324,11.9647386 51.551,11.7827386 C51.778,11.6007386 52.051,11.6917386 52.37,11.6917386 L53.098,11.6917386 C53.6288637,11.6535133 54.1622292,11.6689246 54.69,11.7377386 C54.963,11.8287386 54.963,12.1017386 55.099,12.5107386 C55.1625129,12.748096 55.1931322,12.9930506 55.19,13.2387386 C55.1826583,13.4972553 55.1980508,13.7559171 55.236,14.0117386 C55.2731755,14.357425 55.4547992,14.6712706 55.736,14.8757386 C56.1032535,14.9916036 56.491993,15.0227164 56.873,14.9667386 C57.1509714,14.9586472 57.426528,14.9125528 57.692,14.8297386 C57.9141375,14.7462618 58.0469991,14.5181411 58.01,14.2837386 C57.9462097,13.8987175 57.8549772,13.5187491 57.737,13.1467386" id="Tracé_43"></path>
                </g>
                <path d="M59.1032778,5.87 C59.1032778,5.506 59.1492778,4.778 59.1492778,4.414 C59.1492778,4.05 59.2402778,1.775 59.1952778,1.593 L59.1952778,1.456 L59.1042778,1.365 L58.4672778,1.138 L57.7852778,1.047 L55.0082778,0.592 L53.4612778,0.501 C52.7786306,0.479407566 52.0953167,0.494429123 51.4142778,0.546 C50.7859197,0.630100763 50.1631445,0.751650444 49.5492778,0.91 C48.4666382,1.22746238 47.4032063,1.60709255 46.3642778,2.047 C45.4523744,2.53926557 44.571097,3.08626537 43.7252778,3.685 C43.3162778,4.003 42.9972778,4.322 42.5882778,4.64 L41.8602778,5.231 L41.1722778,5.912 L39.6722778,7.322 L39.1262778,7.868 L38.6712778,8.368 L38.0802778,9.096 L38.0802778,9.187 L37.2612778,9.96 L36.3972778,10.597 C35.7818173,10.9974626 35.1437563,11.3620689 34.4862778,11.689 L33.4402778,12.053 L32.3032778,12.326 C31.4463105,12.4950117 30.5806571,12.6165303 29.7102778,12.69 L28.2102778,12.69 L26.9822778,12.463 C26.241088,12.2618581 25.5119148,12.0188004 24.7982778,11.735 C24.1421344,11.4055735 23.5042104,11.0410455 22.8872778,10.643 L22.0232778,9.961 L21.2042778,9.233 L19.9722778,10.328 L18.4722778,12.012 L17.4722778,12.967 C17.7902778,13.285 18.1092778,13.649 18.4722778,13.967 C18.8352778,14.285 20.5192778,15.467 20.9722778,15.787 L22.3822778,16.606 C22.9022472,16.8306971 23.4336438,17.0279681 23.9742778,17.197 L25.6572778,17.743 C26.2709484,17.9022145 26.8937761,18.0237744 27.5222778,18.107 C28.8862409,18.1822437 30.2533147,18.1822437 31.6172778,18.107 L33.4372778,17.834 C34.5045575,17.5155343 35.5526238,17.1359066 36.5762778,16.697 L37.9412778,15.969 L39.2602778,15.014 L41.8082778,12.876 L43.8082778,10.876 L45.0362778,9.739 L46.7192778,8.283 C47.3190332,7.83594277 47.9448007,7.4248863 48.5932778,7.052 L49.6392778,6.597 L50.8222778,6.279 L52.0962778,6.097 L54.3252778,6.097 L55.8252778,6.233 L57.7812778,6.779 L58.3722778,7.052 L58.9212778,7.412 L59.0582778,7.412 C59.0650761,7.36692153 59.0650761,7.32107847 59.0582778,7.276 C59.0582778,7.003 59.1042778,6.276 59.1042778,5.911" id="Tracé_44"></path>
                <path d="M40.7222778,4.368 L39.5392778,3.458 C38.662185,2.85893929 37.7506104,2.31199453 36.8092778,1.82 C35.7565336,1.35002936 34.6781599,0.939713168 33.5792778,0.591 L31.6682778,0.227 C30.9908711,0.109696024 30.3069303,0.0338881378 29.6202778,0 L27.5732778,0.136 C26.3906325,0.354906974 25.2219347,0.643408369 24.0732778,1 C23.0912927,1.4184 22.1325692,1.88941632 21.2012778,2.411 C20.7462778,2.684 18.0622778,4.777 17.7012778,5.095 L17.4282778,5.413 L15.8812778,6.913 L15.3812778,7.368 L14.8812778,7.868 L14.2012778,8.6 L13.4282778,9.373 C13.1552778,9.6 11.0172778,11.102 10.6982778,11.238 C10.339587,11.3788607 9.97335759,11.4997131 9.60127782,11.6 L8.46427782,11.918 L7.19027782,12.145 L5.78027782,12.236 L4.18727782,12.1 L2.73127782,11.921 L1.45727782,11.466 L0.866277819,11.193 L0.320277819,10.829 L0.229277819,10.738 L0.0462778189,10.738 C0.0116088795,10.7742713 -0.00491442923,10.8242084 0.00127781886,10.874 L0.00127781886,11.6 C0.00127781886,11.964 0.0462778189,12.646 0.0462778189,13.01 C0.0462778189,13.374 0.0912778189,14.056 0.0912778189,14.42 L0.0912778189,15.83 C0.0912778189,16.194 0.0462778189,16.194 0.0462778189,16.558 C0.0441083815,16.5882945 0.0441083815,16.6187055 0.0462778189,16.649 C0.0428928226,16.6792389 0.0428928226,16.7097611 0.0462778189,16.74 L0.183277819,16.74 L1.41127782,17.149 L2.77627782,17.422 L5.00127782,17.562 L5.77427782,17.562 C7.08625841,17.4855099 8.39275096,17.3335922 9.68727782,17.107 L11.3702778,16.607 C12.3776052,16.2344858 13.3646361,15.8092313 14.3272778,15.333 C14.7822778,15.06 15.1462778,14.696 15.5552778,14.423 L17.5552778,12.831 L18.5552778,11.876 L20.0552778,10.193 L21.2942778,9.1 L21.3392778,9.1 L22.2032778,8.418 L23.0672778,7.781 C23.6486025,7.33530705 24.2563813,6.9252233 24.8872778,6.553 C25.2081888,6.36256699 25.5423848,6.19546897 25.8872778,6.053 C27.1202417,5.65188348 28.4133199,5.46715803 29.7092778,5.507 L31.0742778,5.598 C31.8965828,5.65685701 32.7073818,5.82500279 33.4852778,6.098 C34.1568444,6.40877369 34.8099288,6.75802023 35.4412778,7.144 L37.2152778,8.418 C37.4882778,8.645 37.8972778,8.827 38.1702778,9.1 L38.6702778,8.372 L39.1702778,7.872 L39.7162778,7.326 L41.1722778,5.916 L41.9002778,5.325 C41.5362778,5.007 41.0812778,4.734 40.6722778,4.415" id="Tracé_45"></path>
            </g>
        </g>
    </g>
</svg>