<svg width="135" height="44" xmlns="http://www.w3.org/2000/svg"><g fill="#FFF"><path d="M75.165 21.339l-.273.136h-.728c-.182 0-.227.091-.546 0-.319-.091-.409-.045-.455-.136a2.093 2.093 0 0 1 .046-.682c.078-.416.185-.826.318-1.228.137-.409.091-.91.182-1.228.091-.318.227-.864.273-.955a.182.182 0 0 1 .273-.045c.136.091.091.455.182.773l.318 1.046c0 .182.137.318.137.5s.136.637.136.819c0 .182.182.864.046 1m3.185 2.229c-.09-.227-.318-1.41-.5-1.956a15.241 15.241 0 0 1-.455-1.592 34.695 34.695 0 0 1-.364-1.274l-.364-1.365-.182-.637a6.778 6.778 0 0 1-.182-.91l-.136-.591a7.463 7.463 0 0 1-.227-.864s-.046-.136-.318-1.183a2.912 2.912 0 0 0-.227-.91c-.09-.182-.546-.182-.682-.227h-1.046a1.137 1.137 0 0 0-.819.273c-.15.25-.244.53-.273.819l-.273.819a43.19 43.19 0 0 0-.273 1.774l-.364 1.092c-.137.364 0 .409-.137.728s-.273 1.228-.364 1.5a37.025 37.025 0 0 0-.409 1.365 11.9 11.9 0 0 0-.273 1.228 2.32 2.32 0 0 1-.137.546 2.775 2.775 0 0 0-.227.728 5.915 5.915 0 0 1-.227.91c-.157.49-.279.992-.364 1.5 0 .273-.09.591-.09.864.01.092.06.175.136.227.23.114.475.19.728.227.314.068.637.083.955.045.177-.027.347-.09.5-.182.16-.216.269-.464.318-.728.046-.182.091-.318.137-.546.046-.228 0-.364.046-.5s.091-.864.318-1.046c.227-.182.5-.091.82-.091h.636a7.917 7.917 0 0 1 1.592.046c.273.091.273.364.41.773.063.237.093.482.09.728a4.44 4.44 0 0 0 .046.773c.037.346.22.66.5.864.368.116.756.147 1.137.091.278-.008.554-.054.82-.136a.5.5 0 0 0 .317-.546 8.189 8.189 0 0 0-.273-1.137 9.383 9.383 0 0 0-.455-1.456M67.75 24.976c0-.409.046-.455.046-.773s.046-.682.046-1v-2c0-.182-.046-.91-.046-1.592v-6.462a1.5 1.5 0 0 0-.046-.273 1.229 1.229 0 0 0-.09-.364.637.637 0 0 0-.365-.409l-.5-.091h-.5l-.637.136a.682.682 0 0 0-.409.5 4.14 4.14 0 0 0 0 .819c.032.226.048.454.046.682v2.773c.045.408-.034.82-.227 1.183-.182.227-.91.227-1.046.227h-.182l-1.092-.091c-.273-.045-.637-.045-.682-.455-.045-.41-.09-.955-.046-.773.045.182.046-.682.046-.91v-.773a6.414 6.414 0 0 1 .045-.955 7.556 7.556 0 0 0 0-1.046c0-.227-.045-.637-.045-.773a.591.591 0 0 0-.409-.546 3.139 3.139 0 0 0-1.183-.045.819.819 0 0 0-.682.409c-.113.322-.129.67-.045 1v.819a3.85 3.85 0 0 1 0 .728 8 8 0 0 0 0 1.046v2.055c0 .364-.046 1.638-.046 1.956-.046 1.137 0 2.912 0 3.185v.637a3.416 3.416 0 0 0 0 .5c0 .136.046.773.046.864 0 .091.046.273.046.5a4.369 4.369 0 0 0 0 .546c.046.273.046.318.227.455.24.118.508.165.773.136h.82a.455.455 0 0 0 .363-.182c.12-.19.184-.412.182-.637v-1.14c0-.182.046-1.183.046-1.5v-1.457c0-.136-.09-1.274.136-1.5.227-.226.455-.182.91-.227h.728c.304-.016.61-.001.91.045a.682.682 0 0 1 .455.409c.057.176.072.363.046.546v4.641c.003.168.019.335.046.5a.455.455 0 0 0 .364.455 4 4 0 0 0 1.456-.045.682.682 0 0 0 .5-.227.773.773 0 0 0 .136-.455 1.728 1.728 0 0 0-.045-.455 2.457 2.457 0 0 1-.046-.637M56.738 13.149a3 3 0 0 0-.637-.5l-.409-.227a3.23 3.23 0 0 0-1.274-.455 5.05 5.05 0 0 0-1.456 0c-.471.075-.93.212-1.365.409a3.776 3.776 0 0 0-1.092.728 1.865 1.865 0 0 0-.59.91 3.55 3.55 0 0 0-.092 1.228c.019.291-.012.583-.09.864a3.231 3.231 0 0 0-.046 1c.05.24.065.484.045.728-.046.273.045 1.911.045 2.411-.03.548 0 1.097.091 1.638v2.366c-.003.46.177.901.5 1.228.387.407.85.731 1.365.955a4.5 4.5 0 0 0 2.093.455 4.55 4.55 0 0 0 1.228-.136 3.594 3.594 0 0 0 1.046-.5l.637-.546a2 2 0 0 0 .5-.637c.153-.186.262-.403.318-.637a4.05 4.05 0 0 0 .136-.682v-.819a.273.273 0 0 0-.136-.227l-.318-.091s-1.82-.364-1.865.318a1.82 1.82 0 0 1-.136.637l-.227.546a.864.864 0 0 1-.409.5 1.865 1.865 0 0 1-.819.136c-.682 0-1.274-.182-1.365-.637-.08-.496-.125-.997-.136-1.5a7.44 7.44 0 0 1-.09-1v-5.824a3.162 3.162 0 0 1 .045-.637c.032-.22.127-.425.273-.591.16-.184.363-.324.591-.409.281-.081.577-.097.864-.046.273.041.535.134.773.273.18.085.324.23.41.409.072.158.118.327.135.5 0 .182.045.318.045.546 0 .228.227.455.728.455h.728a1.27 1.27 0 0 0 .682-.273.637.637 0 0 0 .182-.546v-.547a2.229 2.229 0 0 0-.227-.955 2.866 2.866 0 0 0-.637-.819m31.53 1.729v-2.229a.364.364 0 0 0-.136-.227l-.137-.136a.955.955 0 0 0-.409-.227 2.184 2.184 0 0 0-1.365 0 .819.819 0 0 0-.546.773v1.683l.182 4.55a29.3 29.3 0 0 1-.182 3v.364c0 .273-.015.56-.046.864.031.306-.05.613-.227.864a2.32 2.32 0 0 1-.5.318c-.199.1-.415.162-.637.182a1.82 1.82 0 0 1-.728-.136c-.227-.091-.318-.045-.546-.227a2.639 2.639 0 0 1-.364-.682 1.046 1.046 0 0 1-.137-.546v-1.5c0-.364.046-.546.046-.864a9.7 9.7 0 0 0-.046-1c-.046-.591-.046-1-.046-1.365s.046-.682.046-1.046v-.728a9.234 9.234 0 0 0 0-1c0-.136.046-.409.046-.637a4.1 4.1 0 0 0 0-.773 4.05 4.05 0 0 1-.045-.5v-1a.546.546 0 0 0-.136-.409 2.138 2.138 0 0 0-.955-.273 2.229 2.229 0 0 0-.91.182.682.682 0 0 0-.318.682c-.004.275-.035.55-.09.819a9.828 9.828 0 0 0-.046 1.82c.052.254.067.515.045.773.004.335.034.67.091 1v.776c0 .136-.09.591-.09.864v.91c.05.392.065.788.045 1.183 0 .091.046.5.046 1.092 0 .592-.046 1.046-.046 1.365-.026.351.005.704.091 1.046.121.285.29.546.5.773.38.362.809.668 1.274.91l.546.273c.462.189.957.281 1.456.273a3.5 3.5 0 0 0 1.365-.182l.773-.273.682-.409.591-.546a3.594 3.594 0 0 0 .864-2.457c0-.546.046-1.092.046-1.592v-3.23c.021-.41.021-.819 0-1.228-.046-.682 0-1.865 0-1.865m33.4 2.548a.728.728 0 0 1-.409.546l-.682.364a1.867 1.867 0 0 1-.864.182 2.229 2.229 0 0 1-.864-.091c-.227-.091-.455-.045-.546-.182a2.138 2.138 0 0 1-.136-.819c.007-.26.038-.519.091-.773 0-.426-.031-.852-.09-1.274a7.44 7.44 0 0 1 .044-.91c.046-.182 0-.409.182-.5h1.224l.773.091c.232.06.45.169.637.318.185.15.314.358.364.591.062.193.107.39.136.591.06.194.105.391.136.591.037.439.037.88 0 1.319m2.457 7.735l-.364-.773-.318-.864c-.09-.273-.136-.455-.318-1.046s-.227-.546-.364-1a14.16 14.16 0 0 1-.682-1.5c.368-.264.703-.57 1-.91.234-.31.432-.646.591-1 .139-.327.26-.66.364-1a5.05 5.05 0 0 0 .227-1.82c-.046-.273-.182-.546-.227-.773a1.638 1.638 0 0 0-.228-.637 1.684 1.684 0 0 0-.546-.773l-.864-.546a4.823 4.823 0 0 0-1.456-.546 9.014 9.014 0 0 0-1.592-.136h-2.366l-.682.091c-.163.05-.317.127-.455.227a.5.5 0 0 0-.182.318 2.59 2.59 0 0 0-.046.364c.003.153.018.305.045.455.027.395.012.791-.045 1.183v9.919l.091 1.41c-.04.222.01.45.136.637.077.13.213.215.364.227.448.112.917.112 1.365 0a.728.728 0 0 0 .546-.364c.103-.212.135-.45.091-.682a3.231 3.231 0 0 1-.136-.864c.042-.47.042-.94 0-1.41a3.5 3.5 0 0 1-.046-.955 6.46 6.46 0 0 1 .046-.91l.091-.546c.02-.188.065-.372.136-.546.046-.091.364 0 .591 0h.955c.136.045.136.682.273.91.09.138.152.293.182.455.047.265.123.525.227.773.092.175.168.358.227.546a2 2 0 0 0 .227.546c.066.145.112.298.136.455l.136.273.136.364.182.364.273.591c.175.342.388.663.637.955a4 4 0 0 0 1.274.046c.23-.01.453-.088.637-.227.182-.136.136-.364.046-.591l-.318-.682m-15.285-11.251a1.319 1.319 0 0 1 1-.182h1.73c.63.058 1.266-.02 1.864-.227.227-.136.273-.5.273-.864a.728.728 0 0 0-.273-.637 2.138 2.138 0 0 0-1.137-.182h-5.05a1.41 1.41 0 0 0-.59.136.5.5 0 0 0-.319.5 3.047 3.047 0 0 1-.046.364c0 .136-.182 2.548-.182 2.548.002.35.033.7.091 1.046.054.396.023.8-.09 1.183v.637c.003.228.019.456.045.682.008.38.038.76.091 1.137.045.182-.137 2-.137 2v3.685c0 .697.455 1.046 1.365 1.046h2.593l2.775-.136c.254-.004.503-.066.728-.182a.728.728 0 0 0 .182-.5 2.548 2.548 0 0 0-.046-.364c0-.136.091-.637-.182-.819a5.6 5.6 0 0 0-1.774-.182h-.91c-.376.06-.757.074-1.137.045-.409 0-.864-.091-.955-.318a2.229 2.229 0 0 1-.136-.682 4.507 4.507 0 0 1-.046-.5v-1.089a6.45 6.45 0 0 1 .046-.637 4.38 4.38 0 0 1 .091-.955c.091-.227.273-.182.591-.182h2.821a.956.956 0 0 0 .455-.091.683.683 0 0 0 .364-.273 1.67 1.67 0 0 0 .091-.728 1.046 1.046 0 0 0-.09-.546.682.682 0 0 0-.456-.364 9.646 9.646 0 0 0-1.729 0h-.726c-.37.04-.743-.007-1.092-.136-.273-.182-.273-.591-.273-.864v-2.595c0-.182 0-.637.182-.773m20.383 0a1.319 1.319 0 0 1 1-.182h1.73c.63.058 1.266-.02 1.864-.227.227-.136.273-.5.273-.864a.728.728 0 0 0-.273-.637 2.138 2.138 0 0 0-1.137-.182h-5.05a1.41 1.41 0 0 0-.59.136.5.5 0 0 0-.319.5 3.047 3.047 0 0 1-.046.364c0 .136-.182 2.548-.182 2.548.002.35.033.7.091 1.046.054.396.023.8-.09 1.183v.637c.003.228.019.456.045.682.008.38.038.76.091 1.137.046.182-.136 2-.136 2v3.685c0 .697.455 1.046 1.365 1.046h2.593l2.775-.136c.254-.004.503-.066.728-.182a.728.728 0 0 0 .182-.5 2.548 2.548 0 0 0-.046-.364c0-.136.091-.637-.182-.819a5.6 5.6 0 0 0-1.774-.182h-.91c-.376.06-.757.074-1.137.045-.409 0-.864-.091-.955-.318a2.229 2.229 0 0 1-.137-.682 4.5 4.5 0 0 1-.045-.5v-1.09a6.32 6.32 0 0 1 .046-.637 4.38 4.38 0 0 1 .091-.955c.091-.227.273-.182.591-.182h2.821a.955.955 0 0 0 .455-.091.683.683 0 0 0 .364-.273 1.67 1.67 0 0 0 .091-.728 1.047 1.047 0 0 0-.09-.546.682.682 0 0 0-.456-.364 9.645 9.645 0 0 0-1.729 0h-.728c-.37.04-.743-.007-1.092-.136-.273-.182-.273-.591-.273-.864v-2.595c0-.182 0-.637.182-.773m-25.48 2.775a5.476 5.476 0 0 1 0-.864 2.55 2.55 0 0 0-.046-.318 3.231 3.231 0 0 1-.046-.773c.047-.24.077-.484.091-.728a1.548 1.548 0 0 0-.046-.455 2.32 2.32 0 0 1 .046-.682.592.592 0 0 0-.136-.409l-.318-.273a.955.955 0 0 0-.455-.182 1.729 1.729 0 0 0-.682 0l-.682.091c-.227.091-.318.591-.273.91.024.227.024.455 0 .682v.91a8.054 8.054 0 0 0 0 1.092c.046.455 0 1.41 0 1.865v6.961c0 .318-.09.591-.09.864.006.293.052.584.136.864.114.157.252.295.41.409.236.067.484.082.727.045h.728a.819.819 0 0 0 .455-.273.955.955 0 0 0 .227-.409c.032-.44.032-.88 0-1.319v-1.866c.01-.44-.005-.88-.046-1.319 0-.182-.09-.955-.09-1.183a5.231 5.231 0 0 1 0-.773c.026-.211.041-.424.045-.637a4.184 4.184 0 0 0 0-.591 1.638 1.638 0 0 1-.046-.5 2.62 2.62 0 0 1 .091-.455 6.054 6.054 0 0 0 0-.682m-7.554 3.731c0 .091-.045.546-.045.682.027.455.027.91 0 1.365-.046.318.045.91 0 1.183a1.64 1.64 0 0 1-.318.773l-.546.273a5 5 0 0 1-1.137.182s-.682.045-.819-.137a2.142 2.142 0 0 1-.182-.728c-.046-.182 0-1.183-.046-1.365a5.78 5.78 0 0 0-.09-1.137v-.455a2.5 2.5 0 0 0 0-.955c-.047-.409 0-.591-.047-.864-.005-.183.01-.366.046-.546.054-.223.07-.454.046-.682v-.637c0-.091-.046-.819-.046-.91v-.773c0-.273-.09-1.41.091-1.547a1.59 1.59 0 0 1 .82-.182c1.136-.182 1.864.091 2.137.955a.77.77 0 0 1 .136.455c.022.105.037.211.046.318v3.685c.074.36.074.732 0 1.092m2.548-4.231c0-.426-.03-.852-.09-1.274a6.733 6.733 0 0 0-.91-1.774l-.456-.409a5.278 5.278 0 0 0-1.274-.637l-1.456-.182-1.41-.091-1.592.091a2.411 2.411 0 0 0-.682.227c-.173.203-.27.46-.273.728a3.728 3.728 0 0 1-.046.546v1.361c-.046.182-.046 1.41-.046 1.774v.637c.024.272.024.547 0 .819a3.913 3.913 0 0 0 0 .955c.016.259.001.518-.046.773a2.048 2.048 0 0 0 0 .591c.032.241.047.485.046.728v.728a9.35 9.35 0 0 0 0 1.137c.046.5 0 1.865 0 1.865v.455c.024.403.1.8.227 1.183.136.273 1.046.318 1.137.318h2.684l.955-.182c.33-.047.65-.14.955-.273l.955-.546c.304-.328.536-.715.682-1.137.133-.387.24-.782.318-1.183a7.35 7.35 0 0 0 .182-1.5c.008-.563.054-1.126.137-1.683.046-.682 0-2 0-2l.003-2.045zm10.51-5.414c.045.091.226.091.317.182.151.022.304.022.455 0h.5c.137 0 .364.045.41 0a1.125 1.125 0 0 0-.319-.682c-.182-.136-.137-.318-.227-.455a.728.728 0 0 1-.136-.273l-.137-.227-.182-.273-.182-.227-.09-.227c-.046-.045-.092-.5-.365-.546a2.457 2.457 0 0 0-.728 0h-1.046c-.046 0-.364 0-.364.182s.273.318.364.409c.11.16.232.312.364.455l.273.227.364.409.182.227.273.273.227.318.046.228zM54.326 33.759c.023.442-.008.885-.09 1.319-.138.5-.547.728-1.275.91l-.546.136h-.5a.728.728 0 0 1-.637-.182 2.093 2.093 0 0 1-.132-1.045 4.1 4.1 0 0 0 0-1.092c-.046-.728 0-1.729 0-2a1 1 0 0 1 .182-.591.826.826 0 0 1 .5-.091 7.28 7.28 0 0 1 1.274-.046c.177.027.347.09.5.182l.273.227c.134.14.228.312.273.5l.136.728c.052.346.067.697.046 1.046m1.683-3.321a2.275 2.275 0 0 0-.682-.728l-.59-.318a5.05 5.05 0 0 0-1.047-.227l-1.048-.093-1.046-.091-1.046.091-1.046.091c-.267.01-.529.073-.773.182a.676.676 0 0 0-.09.409c.033.332.048.666.045 1-.046.273.046 1.41 0 1.683a5.1 5.1 0 0 0 .046.955c.024.365.008.73-.046 1.092a8.37 8.37 0 0 0-.09 1.183c0 .455.044.864.044 1.092 0 .228 0 1.319-.045 1.547-.037.24-.052.484-.045.728 0 .227-.046.819 0 1.5v2c0 .182.045.318.045.5 0 .46.36.84.82.864h1.267c.364 0 .455-.591.455-.773.024-.166.039-.333.045-.5a4.641 4.641 0 0 0-.09-.819 4.914 4.914 0 0 1 0-1 5.232 5.232 0 0 0 0-.864 6.006 6.006 0 0 1 0-1.5c.226-.318.636-.136.863-.136.318.03.638.03.955 0l.773-.318c.302-.005.599-.082.864-.227l.728-.455a2.79 2.79 0 0 0 .546-.5 3.64 3.64 0 0 0 .637-.773 2.14 2.14 0 0 0 .182-.864v-2.73a6.824 6.824 0 0 0-.045-.819 4.732 4.732 0 0 0-.59-1.228m8.28 3.367c.023.442-.008.885-.09 1.319-.138.5-.547.728-1.275.91l-.546.136h-.5a.728.728 0 0 1-.637-.182 2.093 2.093 0 0 1-.136-1.046 4.1 4.1 0 0 0 0-1.092c-.046-.728 0-1.729 0-2a1 1 0 0 1 .182-.591.826.826 0 0 1 .5-.091 7.28 7.28 0 0 1 1.274-.046c.177.027.347.09.5.182l.273.227c.134.14.228.312.273.5l.136.728c.052.346.067.697.046 1.046m1.683-3.321a2.275 2.275 0 0 0-.682-.728l-.59-.318a5.05 5.05 0 0 0-1.047-.227l-1.046-.091-1.046-.091-1.046.091-1.046.091c-.267.01-.529.073-.773.182a.676.676 0 0 0-.09.409c.033.332.048.666.045 1-.046.273.046 1.41 0 1.683a5.1 5.1 0 0 0 .046.955c.024.365.008.73-.046 1.092a8.371 8.371 0 0 0-.09 1.183c0 .455.045.864.045 1.092 0 .228 0 1.319-.046 1.547-.038.24-.053.484-.046.728 0 .227-.045.819 0 1.5v2c0 .182.046.318.046.5 0 .46.36.84.82.864h1.266c.364 0 .455-.591.455-.773.024-.166.04-.333.046-.5a4.642 4.642 0 0 0-.09-.819 4.914 4.914 0 0 1 0-1 5.187 5.187 0 0 0 0-.864 6.006 6.006 0 0 1 0-1.5c.226-.318.636-.136.863-.136.318.03.638.03.955 0l.82-.091c.301-.005.598-.082.863-.227l.728-.455a2.79 2.79 0 0 0 .546-.5 3.64 3.64 0 0 0 .637-.773 2.14 2.14 0 0 0 .182-.864v-2.73a6.822 6.822 0 0 0-.045-.819 4.732 4.732 0 0 0-.59-1.228m67.93 8.278a9.783 9.783 0 0 0-.364-.91 4 4 0 0 0-.546-.864l-.59-.409a4.834 4.834 0 0 1-.5-.409 5.687 5.687 0 0 1-.865-.591 3.184 3.184 0 0 0-.637-.5 1.775 1.775 0 0 1-.364-.364l-.318-.364-.364-.409-.364-.409-.318-.5a2.911 2.911 0 0 1-.09-.819c.005-.273.084-.54.226-.773a1.5 1.5 0 0 1 .82-.682c.187-.08.387-.126.59-.136h.546l.637.318a.77.77 0 0 1 .364.364l.136.364c.01.155.04.308.091.455.046.182 0 .182.046.318l.091.136.227.091h.682c.259.03.52.015.773-.045l.318-.227a.5.5 0 0 0 .091-.318v-.372a2.687 2.687 0 0 0-.045-.364 2.913 2.913 0 0 0-.182-.455 2.548 2.548 0 0 0-.364-.819 4.049 4.049 0 0 0-.819-.773 1.774 1.774 0 0 0-.773-.318l-.819-.091h-1.274a6.279 6.279 0 0 0-1.365.136c-.436.091-.852.26-1.228.5a4.55 4.55 0 0 0-.637.546c-.26.365-.431.785-.5 1.228-.086.42-.147.846-.182 1.274 0 .182.091.591.091.728.035.185.08.367.136.546.009.195.072.385.182.546l.591.728c.182.227 1.046.91 1.092 1.046l.591.591c.136.136.682.409.773.546l.364.273.41.273.363.318c.335.303.598.676.773 1.092.13.31.236.63.318.955 0 .228.091.591 0 .728a3 3 0 0 1-.364.455l-.318.227c-.455.273-.682.182-.682.182-.27.079-.56.063-.819-.046-.227-.136-.637-.227-.728-.364a5.641 5.641 0 0 1-.364-.819 1.775 1.775 0 0 1-.136-.682v-.227l-.182-.227a1.138 1.138 0 0 0-.546-.137 8.418 8.418 0 0 0-1.092.182c-.364.045-.637.273-.59.546.045.273.09.546.09.591.003.093.019.184.046.273.038.317.13.625.273.91.146.164.269.348.364.546.418.47.91.87 1.456 1.183l.91.182a6.324 6.324 0 0 0 1.592.046 3.29 3.29 0 0 1 .728-.045l.864-.227c.284-.053.56-.145.82-.273a4.6 4.6 0 0 0 .863-.91c.222-.354.333-.766.32-1.183.015-.38 0-.76-.047-1.137a8.781 8.781 0 0 0-.227-1.228m-50.094 2.912h-2.275a1.956 1.956 0 0 1-1.046-.227 1.729 1.729 0 0 1-.409-1.092v-.773c0-.182-.046-.546-.09-.955a11.5 11.5 0 0 1-.047-1.274 3.54 3.54 0 0 0 .045-.682c0-.182-.045-.455-.045-.637s-.046-1 0-1.5.046-1.638.091-2c.058-.636.058-1.275 0-1.911a3.367 3.367 0 0 1-.09-.773.819.819 0 0 0-.228-.682 2.229 2.229 0 0 0-.91-.318c-.272.01-.538.088-.773.227a.682.682 0 0 0-.41.591c0 .259-.015.516-.045.773-.003.35.012.698.045 1.046-.008.26-.038.518-.09.773-.04.271-.055.545-.047.819 0 .258.015.516.046.773.045.182 0 .273.045.5.024.227.024.455 0 .682a3.383 3.383 0 0 1-.137.773 3.857 3.857 0 0 0 0 .728c.035.363.05.727.046 1.092.01.305.04.61.091.91 0 .136-.046.273-.046.455a4.21 4.21 0 0 0 .046.682v.636c0 .273.046.637.046.955v1.645c0 .227-.046.409.046.5a.819.819 0 0 0 .5.182l.41.091.5.091h1.227c.427-.003.853.027 1.274.091h2.047c.292-.014.582-.06.864-.136a.773.773 0 0 0 .5-.591 1.58 1.58 0 0 0 0-.773c-.136-.455-.318-.637-1.092-.637m30.53.182c0-.409.045-.455.045-.773s.046-.682.046-1v-2c0-.182-.046-.91-.046-1.592v-6.47a1.5 1.5 0 0 0-.046-.273 1.228 1.228 0 0 0-.09-.364.637.637 0 0 0-.365-.409l-.5-.091h-.5l-.637.136a.683.683 0 0 0-.41.5 4.141 4.141 0 0 0 0 .819c.032.226.048.454.046.682v2.775c.045.408-.034.82-.227 1.183-.182.227-.91.227-1.046.227h-.182l-1.092-.091c-.273-.046-.637-.046-.682-.455-.045-.409-.09-.955-.046-.773.045.182.046-.682.046-.91v-.773a6.416 6.416 0 0 1 .046-.955 7.556 7.556 0 0 0 0-1.046c0-.227-.046-.637-.046-.773a.591.591 0 0 0-.409-.546 3.139 3.139 0 0 0-1.183-.046.819.819 0 0 0-.682.409c-.113.322-.13.67-.046 1v.819a3.85 3.85 0 0 1 0 .728 8 8 0 0 0 0 1.046v2.047c0 .364-.046 1.638-.046 1.956-.046 1.137 0 2.912 0 3.185v.637a3.459 3.459 0 0 0 0 .5c0 .136.046.773.046.864 0 .091.046.273.046.5a4.369 4.369 0 0 0 0 .546c.046.273.046.318.227.455.24.118.508.165.773.137h.82a.455.455 0 0 0 .363-.182c.12-.19.184-.412.182-.637v-1.134c0-.182.046-1.183.046-1.5v-1.458c0-.136-.09-1.274.136-1.5.227-.226.455-.182.91-.227h.728c.304-.016.61-.001.91.045a.682.682 0 0 1 .455.409c.057.176.072.363.046.546v4.641c.003.168.019.335.046.5a.455.455 0 0 0 .364.455 4 4 0 0 0 1.456-.046.683.683 0 0 0 .5-.227.773.773 0 0 0 .136-.455 1.728 1.728 0 0 0-.045-.455 2.457 2.457 0 0 1-.046-.637m-10.962-11.829a3 3 0 0 0-.637-.5l-.409-.227a3.23 3.23 0 0 0-1.274-.455 5.051 5.051 0 0 0-1.456 0c-.471.075-.93.212-1.365.409a3.776 3.776 0 0 0-1.092.728 1.865 1.865 0 0 0-.59.91 3.55 3.55 0 0 0-.092 1.228c.019.291-.012.583-.09.864a3.231 3.231 0 0 0-.047 1c.05.24.065.484.045.728-.045.273.046 1.911.046 2.411-.03.548 0 1.097.091 1.638v2.366c-.003.46.177.901.5 1.228.387.407.85.731 1.365.955a4.5 4.5 0 0 0 2.093.455 4.55 4.55 0 0 0 1.228-.136 3.64 3.64 0 0 0 1.046-.5l.637-.546a2 2 0 0 0 .5-.637c.153-.186.262-.403.318-.637a4 4 0 0 0 .136-.682v-.82a.273.273 0 0 0-.136-.227l-.318-.091s-1.82-.364-1.865.318a1.82 1.82 0 0 1-.137.637l-.227.546a.864.864 0 0 1-.409.5 1.865 1.865 0 0 1-.819.136c-.682 0-1.274-.182-1.365-.637-.08-.496-.125-.997-.137-1.5a7.442 7.442 0 0 1-.09-1v-5.823a3.162 3.162 0 0 1 .045-.637c.032-.22.127-.425.273-.591.16-.184.363-.324.591-.409.281-.081.577-.097.864-.046.273.041.535.134.773.273.18.085.324.23.41.409.072.158.118.327.135.5 0 .182.046.318.046.546 0 .228.227.455.728.455h.728a1.27 1.27 0 0 0 .682-.273.637.637 0 0 0 .182-.546v-.5a2.229 2.229 0 0 0-.227-.955 2.867 2.867 0 0 0-.637-.819m15.97.91a1.319 1.319 0 0 1 1-.182h1.732a4.456 4.456 0 0 0 1.865-.227c.228-.136.273-.5.273-.864a.728.728 0 0 0-.273-.637 2.138 2.138 0 0 0-1.137-.182h-5.05a1.41 1.41 0 0 0-.59.136.5.5 0 0 0-.319.5 3.054 3.054 0 0 1-.046.364c0 .136-.182 2.548-.182 2.548.002.35.033.7.091 1.046.054.396.023.8-.09 1.183v.639c.003.228.019.456.045.682.008.38.038.76.091 1.137.045.182-.136 2-.136 2v3.681c0 .697.455 1.046 1.365 1.046h2.593l2.775-.137c.254-.004.503-.066.728-.182a.728.728 0 0 0 .182-.5 2.548 2.548 0 0 0-.045-.364c0-.136.091-.637-.182-.819a5.6 5.6 0 0 0-1.774-.182h-.91c-.376.06-.757.075-1.137.046-.409 0-.864-.091-.955-.318a2.229 2.229 0 0 1-.136-.682 4.5 4.5 0 0 1-.046-.5v-1.089a6.32 6.32 0 0 1 .046-.637 4.38 4.38 0 0 1 .091-.955c.091-.227.273-.182.591-.182h2.821a.955.955 0 0 0 .455-.091.682.682 0 0 0 .364-.273 1.67 1.67 0 0 0 .091-.728 1.047 1.047 0 0 0-.09-.546.682.682 0 0 0-.456-.364 9.645 9.645 0 0 0-1.729 0h-.728c-.37.04-.743-.007-1.092-.136-.273-.182-.273-.591-.273-.864v-2.594c0-.182 0-.637.182-.773m-76.44 7.234l-.273.136h-.773c-.182 0-.227.091-.546 0-.319-.091-.409-.046-.455-.136a2.093 2.093 0 0 1 .045-.682c.078-.416.185-.826.318-1.228.137-.409.091-.91.182-1.228.091-.318.227-.864.273-.955a.182.182 0 0 1 .273-.045c.136.091.091.455.182.773l.318 1.046c0 .182.136.318.136.5s.136.637.136.819c0 .182.182.864.045 1m3.64 3.685a9.383 9.383 0 0 0-.455-1.456c-.136-.318-.318-1.41-.5-1.956a15.287 15.287 0 0 1-.455-1.592 34.695 34.695 0 0 1-.364-1.274l-.36-1.366-.182-.637a6.778 6.778 0 0 1-.182-.91l-.046-.591a7.553 7.553 0 0 1-.227-.864s-.046-.137-.318-1.183a2.912 2.912 0 0 0-.228-.91c-.09-.182-.546-.182-.682-.227h-1a1.137 1.137 0 0 0-.819.273 1.911 1.911 0 0 0-.273.819l-.273.819a44.985 44.985 0 0 0-.273 1.774l-.364 1.092c-.136.364 0 .409-.136.728s-.273 1.228-.364 1.5a37.025 37.025 0 0 0-.409 1.365c-.112.404-.203.814-.273 1.228a2.32 2.32 0 0 1-.136.546 2.775 2.775 0 0 0-.227.728 5.914 5.914 0 0 1-.227.91c-.157.49-.279.992-.364 1.5 0 .273-.09.591-.09.864.01.092.06.175.135.227.23.114.475.191.728.228.314.068.637.083.955.045.177-.027.347-.09.5-.182.16-.216.269-.464.318-.728.045-.182.091-.318.136-.546.045-.228 0-.364.046-.5s.091-.864.318-1.046c.227-.182.5-.091.82-.091h.637a7.917 7.917 0 0 1 1.592.045c.273.091.273.364.41.773.063.237.093.482.09.728-.007.258.008.517.045.773.037.346.22.66.5.864.368.116.756.147 1.137.091.278-.008.554-.054.82-.137a.5.5 0 0 0 .317-.546 8.191 8.191 0 0 0-.273-1.137m25.343-3.731l-.273.136h-.773c-.182 0-.227.091-.546 0-.319-.091-.409-.046-.455-.136a2.094 2.094 0 0 1 .046-.682 9.56 9.56 0 0 1 .32-1.223c.137-.409.091-.91.182-1.228.091-.318.227-.864.273-.955a.182.182 0 0 1 .273-.045c.136.091.091.455.182.773l.318 1.046c0 .182.137.318.137.5s.136.637.136.819c0 .182.182.864.046 1m3.64 3.685a9.385 9.385 0 0 0-.455-1.456c-.136-.318-.318-1.41-.5-1.956a15.241 15.241 0 0 1-.455-1.592 34.695 34.695 0 0 1-.364-1.274l-.364-1.365-.182-.637a6.78 6.78 0 0 1-.182-.91l-.137-.591a7.553 7.553 0 0 1-.227-.864s-.046-.137-.318-1.183a2.912 2.912 0 0 0-.227-.91c-.09-.182-.546-.182-.682-.227h-.91a1.137 1.137 0 0 0-.819.273 1.911 1.911 0 0 0-.273.819l-.273.819a43.19 43.19 0 0 0-.273 1.774l-.364 1.092c-.136.364 0 .409-.136.728s-.273 1.228-.364 1.5a37.025 37.025 0 0 0-.409 1.365c-.112.404-.203.814-.273 1.228-.023.187-.07.37-.137.546a2.776 2.776 0 0 0-.227.728 5.914 5.914 0 0 1-.227.91c-.157.49-.279.992-.364 1.5 0 .273-.09.591-.09.864.01.092.06.175.135.227.23.114.475.19.728.227.314.068.637.083.955.045.177-.027.347-.09.5-.182.16-.216.269-.464.318-.728.046-.182.091-.318.136-.546.045-.228 0-.364.046-.5s.091-.864.318-1.046c.227-.182.5-.091.82-.091h.727a7.916 7.916 0 0 1 1.592.045c.273.091.273.364.41.773.063.237.093.482.09.728a4.44 4.44 0 0 0 .046.773c.037.346.22.66.5.864.368.116.756.147 1.137.091.278-.008.554-.054.82-.137a.5.5 0 0 0 .317-.546 8.189 8.189 0 0 0-.273-1.137m16.015-3.731l-.273.136h-.773c-.182 0-.227.091-.546 0-.319-.091-.409-.046-.455-.136a2.093 2.093 0 0 1 .046-.682c.078-.416.185-.826.318-1.228.136-.409.091-.91.182-1.228.091-.318.227-.864.273-.955a.182.182 0 0 1 .273-.045c.136.091.091.455.182.773l.318 1.046c0 .182.137.318.137.5s.136.637.136.819c0 .182.182.864.046 1m3.64 3.685a9.387 9.387 0 0 0-.455-1.456c-.136-.318-.318-1.41-.5-1.956a15.288 15.288 0 0 1-.455-1.592 34.695 34.695 0 0 1-.364-1.274l-.364-1.365-.182-.637a6.778 6.778 0 0 1-.182-.91l-.137-.591a7.553 7.553 0 0 1-.227-.864s-.046-.137-.318-1.183a2.912 2.912 0 0 0-.227-.91c-.09-.182-.546-.182-.682-.227h-.955a1.137 1.137 0 0 0-.819.273 1.911 1.911 0 0 0-.273.819l-.273.819a43.19 43.19 0 0 0-.273 1.774l-.364 1.092c-.136.364 0 .409-.136.728s-.273 1.228-.364 1.5a37.025 37.025 0 0 0-.409 1.365c-.112.404-.203.814-.273 1.228a2.32 2.32 0 0 1-.137.546 2.776 2.776 0 0 0-.227.728 5.914 5.914 0 0 1-.227.91c-.157.49-.279.992-.364 1.5 0 .273-.09.591-.09.864.01.092.06.175.136.227.23.114.475.19.728.227.314.068.637.083.955.045.177-.027.347-.09.5-.182.16-.216.269-.464.318-.728.046-.182.091-.318.137-.546.046-.228 0-.364.046-.5s.091-.864.318-1.046c.227-.182.5-.091.82-.091h.727a7.916 7.916 0 0 1 1.592.046c.273.091.273.364.41.773.063.237.093.482.09.728a4.44 4.44 0 0 0 .046.773c.037.346.22.66.5.864.368.116.756.147 1.137.091.278-.008.554-.054.82-.137a.5.5 0 0 0 .317-.546 8.189 8.189 0 0 0-.273-1.137M59.103 6.552c0-.364.046-1.092.046-1.456 0-.364.091-2.639.046-2.821v-.137l-.09-.091-.638-.227-.682-.091-2.777-.455-1.547-.091a19.109 19.109 0 0 0-2.047.045c-.628.084-1.25.206-1.865.364a29.347 29.347 0 0 0-3.185 1.137 25.686 25.686 0 0 0-2.639 1.638c-.409.318-.728.637-1.137.955l-.728.591-.688.681-1.5 1.41-.546.546-.455.5-.59.728v.091l-.82.773-.864.637c-.615.4-1.253.765-1.91 1.092l-1.047.364-1.137.273c-.857.169-1.722.29-2.593.364h-1.5l-1.228-.227a20.292 20.292 0 0 1-2.184-.728 20.447 20.447 0 0 1-1.91-1.092l-.865-.682-.819-.728-1.232 1.095-1.5 1.684-1 .955c.318.318.637.682 1 1 .363.318 2.047 1.5 2.5 1.82l1.41.819a16.2 16.2 0 0 0 1.592.591l1.683.546c.614.16 1.237.28 1.865.364 1.364.075 2.731.075 4.095 0l1.82-.273a29.028 29.028 0 0 0 3.14-1.137l1.364-.728 1.32-.955 2.547-2.138 2-2 1.228-1.137 1.683-1.456a18.9 18.9 0 0 1 1.874-1.231l1.046-.455 1.183-.318 1.274-.182h2.23l1.5.136 1.955.546.591.273.55.36h.136a.456.456 0 0 0 0-.136c0-.273.046-1 .046-1.365"/><path d="M40.722 5.05l-1.183-.91a27.083 27.083 0 0 0-2.73-1.638 30.71 30.71 0 0 0-3.229-1.229L31.67.909a16.879 16.879 0 0 0-2.05-.227l-2.047.136a30.574 30.574 0 0 0-3.5.864c-.982.418-1.94.89-2.872 1.411-.455.273-3.139 2.366-3.5 2.684l-.273.318-1.547 1.5-.5.455-.5.5-.68.732-.773.773c-.273.227-2.41 1.729-2.73 1.865-.358.14-.725.262-1.097.362l-1.137.318-1.274.227-1.41.091-1.593-.136-1.456-.179-1.274-.455-.59-.273-.547-.364-.09-.091H.045a.167.167 0 0 0-.045.136v.726c0 .364.045 1.046.045 1.41 0 .364.045 1.046.045 1.41v1.41c0 .364-.045.364-.045.728a.637.637 0 0 0 0 .091.409.409 0 0 0 0 .091h.137l1.228.409 1.365.273 2.225.14h.773a34.26 34.26 0 0 0 3.913-.455l1.683-.5a30.62 30.62 0 0 0 2.957-1.274c.455-.273.82-.637 1.228-.91l2-1.592 1-.955 1.5-1.683 1.24-1.093h.044l.864-.682.864-.637c.582-.446 1.19-.856 1.82-1.228a7.78 7.78 0 0 1 1-.5 11.238 11.238 0 0 1 3.822-.546l1.365.091a9.282 9.282 0 0 1 2.411.5c.672.31 1.325.66 1.956 1.046L37.214 9.1c.273.227.682.409.955.682l.5-.728.5-.5.546-.546 1.456-1.41.728-.591c-.364-.318-.819-.591-1.228-.91"/></g></svg>