<svg width="78" height="90" xmlns="http://www.w3.org/2000/svg"><path d="M77.143 0v90H0V0h77.143zM17.58 77.136h-.073c-.893 0-1.96.466-1.96 2.686 0 2.218 1.067 2.685 1.96 2.685h.073c.894 0 1.96-.467 1.96-2.685 0-2.22-1.067-2.686-1.96-2.686zm25.183.072H40.85l-.12.12v4.987l.12.12h.645l.121-.12V80.29l.024-.024h.74l.109.053 1.29 2.007.012.018.163.084.36.008.118-.12v-.566l-1.002-1.575c.695-.184 1.075-.692 1.075-1.438 0-1.001-.603-1.53-1.742-1.53zm-34.432 0H7.47l-.121.12v4.986l.12.12h.645l.12-.12v-3.356l.566 1.64.114.116h.572l.113-.115.566-1.64v3.355l.121.12h.645l.12-.12v-4.987l-.12-.12h-.862l-.113.115-.756 1.93-.75-1.907-.006-.023-.113-.114zm19.215 0H26.9l-.119.12v3.375l-1.665-3.401-.168-.085-.72-.01-.12.12v4.987l.12.12h.644l.12-.12v-3.373l1.666 3.4.168.086.72.008.119-.121v-4.987l-.119-.12zm8.56 0h-3.825l-.12.12v.574l.12.12h1.446l.023.024v4.268l.121.12h.646l.12-.12v-4.268l.025-.024h1.443l.12-.12v-.575l-.12-.12zm16.47 0h-3.318l-.12.12v4.986l.12.12h3.317l.12-.12v-.574l-.12-.12h-2.528l-.026-.024v-1.378l.026-.025h2.384l.119-.12v-.575l-.119-.12h-2.384l-.026-.025v-1.307l.026-.024h2.526l.122-.12v-.575l-.12-.12zm14.157 0h-.645l-.12.12v4.986l.12.12h3.005l.12-.12v-.574l-.12-.12h-2.216l-.022-.024v-4.269l-.122-.12zm-7.108-.014h-.731l-.1.102-1.599 4.416-.006.57.128.141h.515l.1-.103.299-.86.085-.044h1.89l.082.044.274.821.125.142h.514l.132-.133v-.544l-1.583-4.413-.125-.14zm-42.045.756c.733 0 1.074.595 1.074 1.872 0 1.275-.341 1.872-1.074 1.872h-.073c-.733 0-1.073-.597-1.073-1.872 0-1.277.34-1.872 1.073-1.872h.073zm41.68.501l.019.054.736 2.08-.026.025h-1.456l-.029-.026.005-.013.751-2.12zm-16.498-.429c.625 0 .857.194.857.714s-.232.714-.856.714H41.64l-.024-.024v-1.38l.024-.024h1.123zm9.091-2.521h-.756l-.182.081-.623.767v.208l.124.12h.554l.164-.08.839-.762v-.214l-.12-.12zM29.097 45.384c-.269-.322-.54-.32-.827-.032-.287.287-.431.578-.431 1.044v2.56c0 .416.24 1.105.52 1.44l.062.075.125.15c.948 1.14 5.09 6.12 5.326 6.402.261.314.39.674.39 1.082l-.005 4.984c0 .788-.206 1.235-.72 1.739l-.384.385c-.556.556-1.015.727-1.735.72l-.916.001c-.685 0-.91.109-1.356.606-.14.156-1.381 1.528-1.648 1.834-.49.562-.48.99.01 1.123.574.159 1.14.205 1.97.205h1.902c2.207 0 2.902-.29 4.358-1.75l.434-.433c1.56-1.563 1.846-2.259 1.846-4.324l.004-4.768c0-2.357-.147-2.504-1.092-3.637l-3.714-4.46-.63-.756-1.591-1.911-.355-.426a5715.03 5715.03 0 0 0-1.543-1.853zm-14.755-5.846H8.684c-.601 0-1.322.694-1.322 1.324v12.715c0 .486.125 1.237.883.767.246-.153.399-.228.838-.483.7-.405.709-.402 1.061-.603.682-.386.978-.895.978-1.779v-7.256c0-.572.352-.916.916-.916h2.197c.786 0 1.233.203 1.736.72l.384.383c.557.557.727 1.018.72 1.74v3.56c0 .62-.32.997-.707 1.221l-3.129 1.802-.48.277-3.116 1.796c-1.798 1.034-2.282 1.312-2.282 4.14v9.537c0 .612.495 1.213 1.539 1.213h.686c1.044 0 1.537-.601 1.537-1.213v-9.269c0-.62.407-1.15.794-1.374l6.766-3.9c1.65-.95 2.153-2.102 2.153-4.268v-3.485c0-2.21-.288-2.906-1.746-4.366l-.432-.433c-1.56-1.562-2.254-1.85-4.316-1.85zm33.366 0H42.05c-.6 0-1.324.693-1.324 1.323V53.12c0 .485.127 1.237.886.767.244-.153.399-.229.837-.484.7-.405.708-.403 1.06-.603.681-.387.979-.895.979-1.778l.002-6.8c0-.571.352-.915.916-.915h2.196c.785 0 1.233.203 1.735.72l.384.383c.556.557.729 1.018.72 1.74l-.002 3.102c0 .62-.316.999-.703 1.222-.337.192-6.728 3.874-6.728 3.874-1.796 1.034-2.281 1.312-2.281 4.141v9.993c0 .612.496 1.213 1.54 1.213h.685c1.044 0 1.538-.6 1.538-1.213v-9.726c0-.62.405-1.15.793-1.374l6.765-3.9c1.652-.948 2.154-2.102 2.154-4.268v-3.028c0-2.21-.288-2.906-1.745-4.366l-.434-.432c-1.56-1.563-2.254-1.85-4.315-1.85zm15.909 4.888h-2.135c-.596 0-.814.216-.814.814v23.242c0 .612.494 1.213 1.539 1.213h.685c1.043 0 1.538-.6 1.538-1.213V45.24c0-.598-.218-.814-.814-.814zM52.163 55.53c-.266-.314-.653-.434-1.076-.19l-2.028 1.166a.597.597 0 0 0-.16.9l.95 1.135c.475.567.588 1.065.588 1.72v8.221c0 .612.496 1.213 1.538 1.213h.685c1.045 0 1.54-.6 1.54-1.213l-.002-7.973c-.007-2.417-.13-2.712-1.46-4.294-.32-.376-.332-.393-.575-.685zm-20.944 1.322s-6.788 7.54-7.172 7.97c-.384.432-.551 1.195.146 1.978l.524.587c.697.783 1.52.755 1.909.33.169-.185 1.361-1.51 2.655-2.949l.39-.434 3.144-3.5c.272-.303.374-.658.374-1.066v-1.056c0-.395-.054-.836-.307-1.136l-.334-.392-.122-.144-.142-.17c-.33-.395-.715-.41-1.065-.018zm.306-17.314H29.48c-2.063 0-2.756.288-4.316 1.85l-.433.433c-1.458 1.46-1.745 2.156-1.745 4.366V63.11c0 .655.479.757.843.333.247-.287.44-.486.88-.98.42-.471.59-.66.737-.82l.096-.106.228-.253c.68-.755.978-1.425.978-2.308V46.149c-.009-.72.163-1.182.718-1.738l.385-.386c.504-.514.95-.719 1.736-.719h1.834c.785 0 1.23.205 1.735.72l.385.384c.556.558.727 1.018.72 1.74v2.353c.01 1.095.118 1.557.968 2.554l.23.272.097.118c.149.18.323.393.743.89.513.609.747.898 1.002 1.205.379.456.721.186.721-.22v-7.135c0-2.21-.287-2.906-1.746-4.366l-.433-.433c-1.56-1.562-2.255-1.85-4.317-1.85zm37.057 0H56.515c-.61 0-1.21.495-1.21 1.54v.688c0 1.044.6 1.54 1.21 1.54h12.068c.61 0 1.21-.496 1.21-1.54v-.688c0-1.045-.6-1.54-1.211-1.54zM42.78 7.494h-.687c-1.043 0-1.538.6-1.538 1.212v22.298c0 2.21.286 2.905 1.744 4.365l.433.434c1.558 1.563 2.255 1.85 4.316 1.85l1.595-.003c.758 0 1.09-.47.71-.824l-4.021-3.768c-.749-.746-1.016-1.327-1.016-2.423V8.705c0-.611-.493-1.211-1.536-1.211zm23.739 16.332a.601.601 0 0 0-.864 0l-.15.15-.228.23-.43.43-.827.827-.162.162a.608.608 0 0 0 0 .865l.615.615.106.106.2.201.285.285.043.044c.336.333.576.85.576 1.39v7.307c0 .613.496 1.213 1.538 1.213h.687c1.043 0 1.535-.6 1.535-1.213V29.13c0-1.918-.176-2.553-1.744-4.121l-.039-.04-.105-.105-.437-.437-.294-.294zM19.296 7.494h-.685c-1.044 0-1.539.6-1.539 1.212v19.59c0 .778-.152 1.55-.583 2.157l-4.218 6.034c-.455.651-.36 1.163.49 1.163h1.188l.17.001h.856c.934-.002 1.116-.05 1.892-1.169.3-.432 2.45-3.505 2.736-3.913l.031-.045c.93-1.33 1.2-2.429 1.2-5.058V8.706c0-.612-.495-1.213-1.538-1.212zm48.612 0h-.686c-1.043 0-1.539.6-1.539 1.212v7.407c0 .486-.304 1.12-.575 1.39l-7.492 7.506c-1.457 1.46-1.745 2.06-1.745 4.122v7.307c0 .612.496 1.212 1.538 1.212h.685c1.045 0 1.539-.6 1.539-1.212v-7.306c0-.485.303-1.119.576-1.39l7.49-7.504c1.459-1.46 1.745-2.063 1.745-4.124V8.706c0-.612-.492-1.212-1.536-1.212zm-42.648 0h-.686c-1.044 0-1.538.6-1.538 1.212v27.731c0 .613.494 1.214 1.538 1.214h.686c1.043 0 1.537-.601 1.537-1.214V8.706c0-.612-.495-1.212-1.537-1.212zm12.35 11.61c-.8 0-1.077.076-1.742.506l-2.082 1.198-.579.334-1.674.963c-2.185 1.256-2.633 1.912-2.633 4.75L28.899 31c0 2.21.287 2.905 1.745 4.365l.433.434c1.559 1.562 2.254 1.85 4.316 1.85h2.424c.612 0 1.212-.495 1.212-1.54v-.688c0-1.045-.6-1.54-1.212-1.54H35.5c-.785 0-1.23-.205-1.736-.72l-.383-.385c-.556-.556-.728-1.018-.72-1.739l.001-4.23c0-.666.243-1.155 1.058-1.627.177-.103 3.47-1.997 3.626-2.085.776-.442 1.058-1.164 1.058-1.729v-1.183c0-.695-.074-1.08-.794-1.08zm14.472-11.61h-.686c-1.044 0-1.54.6-1.54 1.212v22.791c0 .663-.258 1.064-.742 1.511l-.51.476c-.39.364-.442.699 0 1.112l1.568 1.465c.368.345.857.31 1.19 0l.692-.647c1.513-1.413 1.566-2.019 1.566-4.65V8.707c0-.612-.494-1.212-1.538-1.212zm-42.496 0H8.9c-1.044 0-1.539.6-1.539 1.212v18.76c0 2.63.27 3.727 1.2 5.058l2.092 2.99c.225.32.688.339.934 0 .236-.328 1.17-1.676 1.361-1.95.387-.552.374-.78 0-1.334a208.73 208.73 0 0 0-1.24-1.776c-.432-.607-.585-1.38-.585-2.158V8.706c0-.612-.493-1.212-1.537-1.212zm28.231-.002h-2.424c-2.062 0-2.757.288-4.316 1.85l-.433.434c-1.458 1.46-1.745 2.155-1.745 4.365v6.877c0 .655.344 1.11.708.897.246-.143.575-.33 1.015-.584.7-.405.708-.403 1.061-.603.681-.387.978-.895.978-1.78v-4.845c-.009-.72.163-1.182.72-1.738l.383-.385c.504-.514.95-.72 1.735-.72h2.318c.612 0 1.212-.495 1.212-1.54v-.687c0-1.045-.6-1.54-1.212-1.54zm20.277.002h-.685c-1.043 0-1.538.6-1.538 1.212v7.41c0 1.917.177 2.554 1.744 4.123l.146.145.736.737.173.174.133.133a.6.6 0 0 0 .863 0l.258-.257.553-.554.715-.715.272-.274a.606.606 0 0 0 0-.864l-.51-.51-.213-.215-.104-.104-.268-.269-.16-.16a2.022 2.022 0 0 1-.576-1.39v-7.41c0-.612-.494-1.212-1.539-1.212z" fill="#FFF"/></svg>