<svg height="85" width="129" xmlns="http://www.w3.org/2000/svg"><g fill="#fff"><path d="m79.167 14.207c-1.364-1.175-3.652-2.414-5.897-2.435-5.142-.02-8.228 3.82-10.012 8.08-2.036 4.849-1.154 8.795 4.429 8.837 2.938.02 6.485-1.385 9.528-2.624l-4.491 5.52c-2.707.609-5.31.819-7.829.798-3.84-.021-6.82-.63-8.815-3.086-1.93-2.308-2.098-5.624-.587-9.192 1.364-3.233 4.24-6.633 7.786-8.794 3.82-2.267 8.08-3.086 11.754-3.065l5.52.483zm-1.3 11.711c1.426 1.637 4.05 2.77 6.736 2.792 1.7 0 4.219-.504 5.037-2.477 1.805-4.281-10.032-3.484-6.737-11.354.84-2.015 2.708-3.925 4.911-5.08 2.456-1.259 4.89-1.658 7.178-1.658 2.1.021 4.282.378 5.94 1.092l-.672 4.617c-1.175-.965-3.756-2.162-5.645-2.183-1.47-.02-3.526.567-4.219 2.225-.714 1.68 1.196 2.372 2.35 2.938 1.49.756 2.897 1.428 3.905 2.666 1.175 1.49 1.51 3.085.545 5.33-.944 2.289-2.833 4.324-5.394 5.689-2.854 1.49-5.394 1.805-8.06 1.784-2.476-.021-4.785-.462-6.757-1.323l.881-5.058zm32.573 3.044c-5.184-.021-3.862-6.507-2.309-10.243 1.406-3.379 4.198-6.989 8.5-6.968 2.75.021 3.337 1.742 3.421 3.904.063 1.931-.482 4.219-1.364 6.339-1.343 3.169-4.093 6.989-8.248 6.968zm-.315 3.253c1.763 2.099 4.365 5.394 7.933 5.394 3.442 0 5.143-.945 7.304-2.225-3.924-.273-5.834-3.106-7.492-5.583 3.945-2.33 6.989-5.982 8.5-9.57 1.322-3.17 1.385-6.465-.063-8.732-1.49-2.308-4.24-3.232-7.66-3.253-7.62-.063-15.26 4.765-18.24 11.9-2.728 6.549-.126 12.195 7.241 12.237z"/><g transform="translate(1.465)"><path d="m8.714 8.162c.587-.881-6.465 8.983-7.2 10.159-1.573 2.54-5.1 19.875 9.95 26.298 12.067 5.142 23.82-.378 29.446-9.382 8.31-13.327 4.03-25.144-2.687-30.6-9.801-7.997-22.71-4.807-27.935 3.168-3.694 5.624-5.625 15.216-.483 21.827 7.682 9.844 21.261 6.884 24.745-2.036 1.637-4.218.504-8.73.63-7.408 0 .104 0 .461-.105 1.343-.063.483-.714 9.486-11.711 8.437-7.43-.714-12.593-11.229-7.304-18.302 9.402-12.572 33.665.252 21.492 20.863-5.856 9.906-19.142 9.36-26.089 2.476-7.22-7.136-8.017-19.057-2.75-26.844z"/><circle cx="26.215" cy="20.739" r="8.08" transform="matrix(.90504244 -.42532126 .42532126 .90504244 -6.331425 13.119122)"/></g><path d="m6.758 64.285-.084 2.078-.063.083a4.66 4.66 0 0 1 -2.12.483c-3 0-4.449-2.35-4.449-5.016 0-2.435 1.112-5.226 4.303-5.226 1.09 0 1.847.315 2.287.525l.042.063-.105 1.93-.105.022c-.314-.273-.818-.672-1.742-.672-2.015 0-2.371 2.099-2.371 3.295 0 1.973.986 3.17 2.392 3.17a2.772 2.772 0 0 0 1.931-.777zm2.708-2.12c.042-.44.126-1.008.587-1.343a.837.837 0 0 1 .504-.147c.399 0 .65.23.798.482.168.315.188.63.188.966zm3.736 2.497c-.462.273-1.029.61-1.931.61-.735 0-1.239-.274-1.553-.756-.19-.294-.231-.567-.273-.84l3.987-.084.084-.105c-.02-.692-.02-1.385-.189-2.078-.44-1.637-1.385-1.973-1.804-2.078a2.636 2.636 0 0 0 -.882-.125c-1.93 0-3.211 1.427-3.211 3.84 0 .651.105 1.344.294 1.826.713 1.89 2.392 2.036 3.274 2.036 1.028 0 1.469-.21 2.12-.504l.084-.104.084-1.575zm7.43 2.057c-.987 0-1.197.021-2.015.042l-.084-.084c0-.482.02-.965.02-1.427 0-.525-.02-2.434-.041-2.896-.042-.504-.105-1.322-.777-1.322-.399 0-.693.23-.944.44.02 2.498.02 3.044.104 5.184l-.083.084c-.987 0-1.176 0-2.057.042l-.063-.084c.02-.881.02-1.784.02-2.665 0-2.267-.083-3.148-.167-4.366l.063-.105a25.787 25.787 0 0 0 2.078-.398l.126.105-.021.776c.566-.378 1.217-.818 1.972-.818.441 0 1.155.104 1.533.84.314.566.314 1.216.335 2.539v1.091c.021 1.364.021 1.763.084 2.98l-.084.042zm5.037-1.532-.126 1.427-.084.105c-.441.084-.819.168-1.302.168-1.93 0-1.952-1.385-1.952-2.665 0-.357.021-.714.021-1.05l.042-2.203-.776.02-.084-.083.105-1.49.063-.064.671.021-.02-1.742.041-.105a25.956 25.956 0 0 0 1.931-.608l.084.084-.042 2.33h1.239l.084.083-.126 1.49-.084.085-1.113-.063-.02 1.972c-.022.567-.022 1.323.02 1.68.021.21.084.65.714.65.21 0 .357-.063.567-.126zm4.281-3.568c-.168-.105-.294-.189-.504-.189-.84 0-.84.924-.84 1.553 0 .966.085 2.54.127 3.652l-.063.105c-.987-.02-1.176 0-2.099.042l-.063-.084c.021-1.154.042-2.287.042-3.442 0-1.93-.042-2.56-.105-3.61l.084-.084a18.83 18.83 0 0 0 2.057-.42l.105.106-.042 1.28c.399-1.029.965-1.343 1.469-1.343.084 0 .168.02.252.02l.084.105-.336 2.267zm4.638 3.17c-.251.167-.587.356-1.007.356-.44 0-.818-.273-.818-.84 0-.923.965-1.07 1.805-1.196v1.68zm2.036-2.204c.021-1.26.021-1.805-.314-2.372-.252-.44-.735-1.007-2.33-1.007-1.07 0-1.721.23-2.414.461l-.084.105-.063 1.511.105.063c.441-.189 1.239-.566 2.057-.566.462 0 .65.084.798.273.126.146.168.398.168.587-1.49.231-2.183.378-2.918.882-.692.482-.923 1.28-.923 1.91 0 1.49.944 2.455 2.161 2.455.924 0 1.449-.504 1.721-.734v.524l.084.105c.882-.042 1.155-.063 1.952-.042l.063-.105c-.084-1.364-.084-1.72-.084-3.022zm3.526 4.134c-.902-.02-1.238 0-2.056.042l-.084-.105c.042-1.385.084-2.203.084-3.715 0-.818 0-1.637-.021-2.455-.021-2.246-.042-2.708-.168-4.408l.042-.084 2.12-.377.083.105c-.042 1.51-.063 2.14-.063 3.463 0 4.407.063 5.855.126 7.471zm3.254-4.554c.042-.44.125-1.008.587-1.343a.837.837 0 0 1 .504-.147c.399 0 .65.23.797.482.168.315.19.63.19.966zm3.735 2.497c-.461.273-1.028.61-1.93.61-.735 0-1.239-.274-1.533-.756-.189-.294-.23-.567-.272-.84l3.987-.084.084-.105c-.02-.692-.02-1.385-.189-2.078-.44-1.637-1.385-1.973-1.805-2.078a2.636 2.636 0 0 0 -.881-.125c-1.931 0-3.211 1.427-3.211 3.84 0 .651.105 1.344.293 1.826.714 1.89 2.393 2.036 3.275 2.036 1.028 0 1.469-.21 2.12-.504l.083-.104.084-1.575zm9.025-3.693c.021 1.847 0 2.203-.042 3.903-.252.168-.503.336-.84.336-1.195 0-1.195-1.72-1.195-2.015 0-1.07.272-2.266 1.658-2.266.125 0 .23.02.42.042zm2.1 5.666c-.043-1.259-.085-2.098-.085-3.903 0-3.673.042-5.185.105-7.031l-.084-.084-2.036.356-.063.084c.084 1.302.084 1.658.084 3.253-.923-.02-2.078-.062-3.022.777-.86.756-1.217 1.91-1.217 3.337 0 1.092.252 2.162.986 2.855.546.503 1.217.608 1.616.608.882 0 1.343-.462 1.637-.755l-.02.545.062.084c.86-.042 1.092-.042 2.015-.042l.021-.084zm3.147-4.47c.042-.44.126-1.008.588-1.343a.837.837 0 0 1 .504-.147c.399 0 .65.23.797.482.168.315.19.63.19.966zm3.736 2.497c-.461.273-1.028.61-1.93.61-.735 0-1.239-.274-1.554-.756-.189-.294-.23-.567-.273-.84l3.988-.084.084-.105c-.02-.692-.02-1.385-.189-2.078-.44-1.637-1.385-1.973-1.805-2.078a2.636 2.636 0 0 0 -.881-.125c-1.931 0-3.232 1.427-3.232 3.84 0 .651.104 1.344.293 1.826.714 1.89 2.393 2.036 3.275 2.036 1.028 0 1.469-.21 2.12-.504l.083-.104.084-1.575zm4.639-2.497c.671.294 1.637.692 1.637 2.225 0 .105 0 .189-.021.314-.231 1.994-2.078 2.183-3.002 2.183-.902 0-1.427-.23-2.014-.483l-.063-.125c.042-.693.063-.84.084-1.575l.105-.063c.188.168.293.273.503.4.462.272.966.398 1.301.398.693 0 .966-.378.966-.735 0-.503-.546-.713-.882-.84l-.461-.188c-.588-.252-1.595-.693-1.595-2.183 0-.566.168-.965.335-1.217.651-1.05 1.847-1.091 2.456-1.091.798 0 1.301.167 1.889.356l.063.084-.126 1.511-.105.042c-.315-.23-.797-.587-1.532-.587-.756 0-.86.462-.86.63 0 .398.335.545.755.713l.567.23zm9.528 0c.672.294 1.637.692 1.637 2.225 0 .105 0 .189-.02.314-.231 1.994-2.078 2.183-3.002 2.183-.902 0-1.427-.23-2.015-.483l-.063-.125c.042-.693.063-.84.084-1.575l.105-.063c.189.168.294.273.504.4.462.272.965.398 1.301.398.693 0 .966-.378.966-.735 0-.503-.546-.713-.882-.84l-.462-.188c-.587-.252-1.595-.693-1.595-2.183 0-.566.168-.965.336-1.217.65-1.05 1.847-1.091 2.456-1.091.797 0 1.3.167 1.889.356l.063.084-.126 1.511-.105.042c-.315-.23-.798-.587-1.553-.587-.756 0-.861.462-.861.63 0 .398.336.545.756.713l.587.23zm8.29-2.75a49.855 49.855 0 0 1 -.545 1.638c-1.637 4.848-1.952 6.023-2.645 9.024l-.084.084c-.314 0-.63-.02-.944-.02-.315 0-.672.02-.965.02l-.063-.105c.566-1.385.65-1.637 1.154-3.085-.756-2.665-1.91-6.17-2.35-7.493l.062-.105c1.008-.02 1.218-.042 2.183-.125l.105.083.504 2.12.356 1.47.231.986.273-1.05.315-1.196c.294-1.091.336-1.301.546-2.246l.105-.105 1.72-.041.043.146zm6.549 7.304c-.987 0-1.196.021-2.015.042l-.084-.084c0-.482.021-.965.021-1.427 0-.525-.02-2.434-.042-2.896-.042-.504-.105-1.322-.776-1.322-.4 0-.693.23-.945.44.021 2.498.021 3.044.105 5.184l-.084.084c-.986 0-1.175 0-2.057.042l-.084-.084c.021-.881.021-1.784.021-2.665 0-2.267-.084-3.148-.168-4.366l.084-.105a25.787 25.787 0 0 0 2.078-.398l.126.105-.02.776c.566-.378 1.216-.818 1.972-.818.44 0 1.154.104 1.532.84.315.566.315 1.216.336 2.539v1.091c.02 1.364.02 1.763.084 2.98zm5.457-5.75c.02 1.847 0 2.203-.042 3.903-.252.168-.504.336-.84.336-1.196 0-1.196-1.72-1.196-2.015 0-1.07.273-2.266 1.658-2.266.126 0 .252.02.42.042zm2.099 5.666c-.042-1.259-.084-2.098-.084-3.903 0-3.673.042-5.185.105-7.031l-.084-.084-2.036.356-.063.084c.084 1.302.084 1.658.084 3.253-.924-.02-2.078-.062-3.022.777-.861.756-1.218 1.91-1.218 3.337 0 1.092.252 2.162.987 2.855.545.503 1.217.608 1.616.608.881 0 1.343-.462 1.637-.755l-.021.545.063.084c.86-.042 1.091-.042 2.015-.042l.02-.084zm3.547.084c-1.008-.02-1.239 0-2.141.042l-.084-.105c.042-1.133.084-1.994.084-3.505 0-1.973-.042-2.455-.126-3.526l.084-.084 2.12-.42.084.106a199.878 199.878 0 0 0 -.042 3.568c0 1.93.042 2.749.105 3.82zm-.168-8.815c-.882.126-1.113.147-1.952.315l-.084-.084c.02-.273.02-.546.02-.797 0-.336-.02-.63-.041-1.134l.063-.105 2.015-.273.084.084-.042 1.89zm6.548 6.884-.042 1.68-.084.083c-.525.168-.944.315-1.595.315-2.77 0-3.526-2.162-3.526-3.778 0-1.427.567-3.903 3.463-3.903.714 0 1.175.167 1.721.356l.063.084c-.105.735-.105.924-.168 1.68l-.126.041c-.378-.273-.671-.503-1.217-.503-1.196 0-1.595 1.175-1.595 2.182 0 .84.273 2.141 1.679 2.141.63 0 .944-.23 1.28-.44zm4.45 0c-.252.168-.588.357-1.008.357-.44 0-.818-.273-.818-.84 0-.923.965-1.07 1.805-1.196v1.68h.02zm2.035-2.203c.021-1.26.021-1.805-.314-2.372-.252-.44-.735-1.007-2.33-1.007-1.07 0-1.721.23-2.414.461l-.084.105-.063 1.511.105.063c.441-.189 1.239-.566 2.057-.566.462 0 .65.084.798.273.126.146.168.398.168.587-1.49.231-2.162.378-2.918.882-.692.482-.923 1.28-.923 1.91 0 1.49.944 2.455 2.162 2.455.923 0 1.448-.504 1.72-.734v.524l.085.105c.881-.042 1.154-.063 1.951-.042l.063-.105c-.084-1.364-.084-1.72-.084-3.022zm4.996 2.602-.126 1.427-.084.105c-.441.084-.819.168-1.302.168-1.93 0-1.951-1.385-1.951-2.665 0-.357.02-.714.02-1.05l.043-2.203-.777.02-.084-.083.105-1.49.084-.064.672.021-.021-1.742.041-.105a25.956 25.956 0 0 0 1.931-.608l.084.084-.042 2.33h1.239l.084.083-.126 1.49-.084.085-1.113-.063-.02 1.972c-.022.567-.022 1.323.02 1.68.021.21.084.65.714.65.21 0 .357-.063.567-.126zm4.008-3.022c.672.294 1.637.692 1.637 2.225 0 .105 0 .189-.02.314-.231 1.994-2.078 2.183-3.002 2.183-.902 0-1.427-.23-2.015-.483l-.063-.125c.042-.693.063-.84.084-1.575l.105-.063c.19.168.294.273.504.4.462.272.965.398 1.301.398.693 0 .966-.378.966-.735 0-.503-.546-.713-.882-.84l-.462-.188c-.587-.252-1.595-.693-1.595-2.183 0-.566.168-.965.336-1.217.65-1.05 1.847-1.091 2.456-1.091.797 0 1.301.167 1.889.356l.063.084-.126 1.511-.105.042c-.315-.23-.798-.587-1.553-.587-.756 0-.86.462-.86.63 0 .398.335.545.755.713l.587.23zm-122.905 14.608c.02 1.847 0 2.203-.042 3.903-.252.168-.504.336-.84.336-1.196 0-1.196-1.72-1.196-2.015 0-1.07.273-2.266 1.658-2.266.147 0 .252.02.42.042zm2.098 5.666c-.042-1.259-.084-2.098-.084-3.903 0-3.673.042-5.184.105-7.031l-.084-.084-2.035.356-.063.084c.084 1.302.084 1.658.084 3.254-.924-.021-2.078-.063-3.023.776-.861.756-1.218 1.91-1.218 3.337 0 1.092.252 2.162.986 2.855.546.503 1.218.608 1.617.608.881 0 1.343-.461 1.637-.755l-.021.545.063.084c.86-.042 1.091-.042 2.014-.042l.021-.084zm7.43-7.24a244.692 244.692 0 0 0 -.042 3.924c0 1.805.021 2.33.084 3.337l-.084.084c-.797 0-1.07 0-1.973.042l-.084-.084.021-.63c-.44.4-.944.84-1.826.84-.608 0-1.217-.23-1.616-.734-.44-.588-.503-1.218-.503-2.75v-.965c0-1.406-.021-1.805-.084-2.96l.084-.083 2.035-.105.084.105-.02 2.812c-.022.357-.022.714-.022 1.05 0 .818 0 1.888.882 1.888.336 0 .588-.21.923-.461.021-.546.021-.777.021-1.176 0-.23 0-2.455-.084-4.03l.084-.083 2.015-.105zm10.746 2.497c0 1.47-.23 3.253-1.784 3.253-.525 0-1.028-.252-1.343-.84-.399-.713-.462-1.636-.462-2.602 0-.44.021-.881.105-1.322.231-1.26.86-1.93 1.68-1.93.734 0 1.09.356 1.342.776.336.545.483 1.574.462 2.665zm2.078 7.241.65-1.7-.041-.105c-1.218-.44-1.449-.525-2.498-.965.462-.273.987-.588 1.47-1.533.503-.923.65-2.035.65-3.127 0-1.343-.315-2.96-1.28-3.946-.651-.671-1.7-1.049-2.792-1.049-2.476 0-4.155 1.826-4.155 5.226 0 .714.104 3.127 1.616 4.24.671.482 1.259.63 1.847.734l.084.021c1.07.525 1.385.693 4.344 2.267zm7.493-9.738a244.69 244.69 0 0 0 -.042 3.924c0 1.805.02 2.33.084 3.337l-.084.084c-.798 0-1.07 0-1.973.042l-.084-.084.021-.63c-.44.4-.945.84-1.826.84-.609 0-1.217-.23-1.616-.734-.44-.588-.504-1.218-.504-2.75v-.965c0-1.406-.02-1.805-.084-2.96l.084-.083 2.036-.105.084.105-.021 2.812c-.021.357-.021.714-.021 1.05 0 .818 0 1.888.882 1.888.335 0 .587-.21.923-.461.021-.546.021-.777.021-1.176 0-.23 0-2.455-.084-4.03l.084-.083 2.015-.105zm3.19 2.77c.042-.44.126-1.007.588-1.343a.837.837 0 0 1 .503-.147c.4 0 .651.23.798.483.168.314.189.65.189.965zm2.875-6.192-1.952.021-.062.063c-.294 1.092-.378 1.365-.756 2.33l.042.084h1.343l.084-.063c.378-.714.945-1.679 1.322-2.35l-.02-.085zm.86 8.69c-.46.272-1.028.608-1.93.608-.735 0-1.238-.273-1.532-.755-.19-.294-.231-.567-.273-.84l3.988-.084.084-.105c-.021-.671-.021-1.385-.19-2.078-.44-1.637-1.384-1.972-1.804-2.098a2.636 2.636 0 0 0 -.882-.126c-1.93 0-3.232 1.427-3.232 3.84 0 .651.105 1.344.294 1.826.714 1.89 2.393 2.057 3.274 2.057 1.029 0 1.47-.21 2.12-.503l.084-.105.084-1.574-.084-.063zm3.527-3.547c.252-.147.483-.273.797-.273.819 0 1.28.818 1.28 2.099 0 1.007-.398 1.658-.734 1.93-.399.315-.944.336-1.364.357v-4.113h.02zm-1.175 5.645h.251c1.973 0 3.254-.105 4.177-1.238.882-1.05.966-2.309.966-2.896 0-1.931-.987-3.442-2.666-3.442-.819 0-1.238.314-1.595.566l.084-4.03-.105-.083-2.057.356-.084.105c.105 1.176.126 1.637.126 4.45 0 1.196-.02 3.568-.02 6.15l.083.104zm8.29-4.596c.042-.44.126-1.007.588-1.343a.837.837 0 0 1 .503-.147c.4 0 .65.23.798.483.168.314.189.65.189.965zm3.757 2.498c-.462.272-1.029.608-1.931.608-.735 0-1.238-.273-1.553-.755-.19-.294-.231-.567-.273-.84l3.988-.084.084-.105c-.021-.671-.021-1.385-.19-2.078-.44-1.637-1.385-1.972-1.804-2.098a2.636 2.636 0 0 0 -.882-.126c-1.93 0-3.232 1.427-3.232 3.84 0 .651.105 1.344.294 1.826.713 1.89 2.393 2.057 3.274 2.057 1.028 0 1.47-.21 2.12-.503l.084-.105.084-1.574zm6.38.125-.042 1.68-.084.083c-.524.168-.944.315-1.595.315-2.77 0-3.526-2.182-3.526-3.778 0-1.427.567-3.903 3.463-3.903.714 0 1.176.168 1.721.356l.063.084c-.105.735-.105.924-.168 1.68l-.126.041c-.377-.272-.671-.503-1.217-.503-1.196 0-1.595 1.175-1.595 2.182 0 .84.294 2.141 1.679 2.141.63 0 .944-.23 1.28-.44z"/></g></svg>