<svg height="34" width="140" xmlns="http://www.w3.org/2000/svg"><path d="m133.876 20.565a6.483 6.483 0 0 1 -2.635.639h-3.461v12.788h-5.191v-33.972h8.178c2.89 0 5.016.787 6.376 2.36 1.191 1.373 1.786 3.289 1.786 5.747v4.943a7.896 7.896 0 0 1 -2.773 6.1 11.033 11.033 0 0 1 -2.28 1.395zm0-12.348c.002-1.971-.986-2.956-2.964-2.956h-3.132v10.871h3.132c.792.014 1.553-.3 2.099-.866.565-.55.877-1.304.865-2.088zm-29.629 20.608h5.189v.023h9.585v5.152h-14.774zm5.189-14.403h7.004v5.153h-7.004v6.427h-5.189v-26.002h14.774v5.153h-9.585zm-15.021-6.094h5.19v25.672h-5.19zm0-8.3h5.19v5.477h-5.19v-5.477zm-17.712 0h5.191v28.875h8.952v5.097h-14.143v-33.972zm-18.341 7.958h5.187v6.436h7.004v5.153h-7.004v9.273h9.586v5.152h-14.773zm5.187-2.823h-5.187v-5.163h14.773v5.153h-9.586zm-15.459 28.837h-5.191v-28.82h-3.94l-.934-5.152h16.74v5.152h-6.675zm-12.518 0-1.215-7.807h-10.74l4.504-26.165h7.142l5.767 33.972zm-3.911-26.191-1.923 13.395h3.844zm-3.981 26.191h-5.405l.857-4.981h5.351zm-14.815-23.355v-1.75a2.695 2.695 0 0 0 1.863-1.02c.413-.559.619-1.425.619-2.597h-2.482v-4.973h4.678v4.533c0 1.758-.34 3.094-1.02 4.009s-1.899 1.514-3.658 1.798zm1.276 23.355h-14.141v-33.972h5.191v28.875h8.95zm124.959 0h-4.714l-2.446-10.416 5.208-1.365z" fill="#fff" fill-rule="evenodd"/></svg>