<svg xmlns="http://www.w3.org/2000/svg" width="170.361" height="28.513" viewBox="0 0 170.361 28.513">
  <path id="Tracé_48" data-name="Tracé 48" d="M155.28,28.521c-7.965-.038-14.986-5.821-14.947-14.327S147.449-.028,155.414.008,170.4,5.829,170.36,14.333s-7.113,14.223-15.08,14.187Zm.1-21.572a7.415,7.415,0,0,0-7.739,7.28,7.715,7.715,0,0,0,15.41.071,7.414,7.414,0,0,0-7.67-7.352ZM102.939.781h25.527V7.152H102.939ZM122.68,17.1H109.975v4.242h18.491V27.79H102.939V10.877H122.68ZM81.067,27.718H62.495V.762H79.678c4.786,0,8.28,2.925,8.28,7.459a5.133,5.133,0,0,1-1.866,4.241c2.3,1.363,3.637,3.362,3.637,6.774A8.515,8.515,0,0,1,81.067,27.718ZM79.4,7.178H69.437v3.643h10.2c.726,0,1.451-.935,1.451-1.821A1.732,1.732,0,0,0,79.4,7.178Zm1.3,9.845H69.428v4.233H80.885a1.936,1.936,0,0,0,1.982-2.069,2.115,2.115,0,0,0-2.176-2.166ZM39.12.762h7.345V27.718H39.12ZM0,.761H7.037v20.51h18v6.445H0Z" transform="translate(0.001 -0.008)" fill="#fff" fill-rule="evenodd"/>
</svg>
