<?xml version="1.0" encoding="UTF-8"?>
<svg width="154px" height="50px" viewBox="0 0 154 50" version="1.1" xmlns="http://www.w3.org/2000/svg" xmlns:xlink="http://www.w3.org/1999/xlink">
    <title>Group 3</title>
    <g id="Page-1" stroke="none" stroke-width="1" fill="none" fill-rule="evenodd">
        <g id="thumbnail-copy" transform="translate(-40.000000, -285.000000)" fill="#FFFFFF" fill-rule="nonzero">
            <g id="Group" transform="translate(40.000000, 285.000000)">
                <path d="M28.6733167,2.73316708 L18.4538653,2.73316708 C8.26207694,2.73316708 0,10.995244 0,21.1870324 L0,31.5461347 C0,41.7379231 8.26207694,50 18.4538653,50 L28.6733167,50 C38.8651051,50 47.1271881,41.7379231 47.1271881,31.5461347 L47.1271881,21.201995 C47.1311525,16.3051337 45.1886645,11.607476 41.727463,8.1434681 C38.2662614,4.67946022 33.5701796,2.73316708 28.6733167,2.73316708 L28.6733167,2.73316708 Z M20.6932668,32.4339152 L26.4139651,32.4339152 C27.2515617,30.0751372 29.6659531,28.662153 32.1326927,29.0871208 C34.5994322,29.5120887 36.4018139,31.651535 36.4018139,34.1546135 C36.4018139,36.6576919 34.5994322,38.7971383 32.1326927,39.2221061 C29.6659531,39.6470739 27.2515617,38.2340897 26.4139651,35.8753117 L20.713217,35.8753117 C19.9111559,38.1321983 17.6583346,39.5375714 15.2786629,39.265539 C12.8989913,38.9935066 11.021456,37.1159713 10.7494236,34.7362996 C10.4773912,32.356628 11.8827643,30.1038067 14.1396509,29.3017456 L14.1396509,23.4613466 C11.880784,22.658764 10.4750381,20.4030431 10.7496566,18.0216143 C11.024275,15.6401855 12.9065415,13.7636272 15.2887934,13.4962429 C17.6710452,13.2288586 19.9224862,14.6414491 20.7182045,16.9027431 L26.3990025,16.9027431 C27.2161713,14.5339021 29.6205246,13.0977719 32.0936462,13.5013089 C34.5667678,13.9048459 36.3899037,16.0307716 36.4118899,18.5365046 C36.4334817,21.0422376 34.6475913,23.1995462 32.1818612,23.6460297 C29.716131,24.0925132 27.287167,22.6984119 26.4289277,20.3441397 L20.7082294,20.3441397 C20.1803634,21.7948694 19.0342922,22.935457 17.5810474,23.4563591 L17.5810474,29.3017456 C19.0412068,29.8244913 20.1904713,30.9737558 20.713217,32.4339152 L20.6932668,32.4339152 Z" id="Shape"></path>
                <rect id="Rectangle" x="90.2094763" y="12.6483791" width="8.45386534" height="29.840399"></rect>
                <path d="M115.581047,12.2244389 C112.089776,12.2244389 108.598504,13.2518703 107.102244,14.7182045 C105.705736,16.1047382 104.837905,17.6259352 104.802993,20.9326683 L104.733167,42.4389027 L113.391521,42.4389027 L113.391521,22.8877805 C113.363938,21.8318361 113.790727,20.8148055 114.563591,20.0947631 C115.329651,19.4851371 116.25704,19.112448 117.23192,19.0224439 C117.482136,18.996583 117.73349,18.9832663 117.985037,18.9825436 C119.955112,18.9825436 121.875312,19.9800499 122.84788,20.4139651 L122.84788,14.0897756 C120.646039,12.908239 118.194193,12.2687756 115.695761,12.2244389 L115.581047,12.2244389 Z" id="Path"></path>
                <ellipse id="Oval" cx="94.4339152" cy="4.50872818" rx="4.38902743" ry="4.50872818"></ellipse>
                <path d="M68.8379052,13.4114713 C66.9227999,14.0793239 65.168057,15.1393041 63.6857855,16.5236908 C62.2838256,17.8744166 61.191399,19.5130565 60.4837905,21.3266833 C59.7234242,23.3230849 59.3460999,25.4448995 59.3715711,27.5810474 C59.3456525,29.7156101 59.7230019,31.8358738 60.4837905,33.8304239 C61.191399,35.6440507 62.2838256,37.2826907 63.6857855,38.6334165 C65.1675236,40.0185086 66.9224237,41.0785838 68.8379052,41.7456359 C70.9282807,42.5087336 73.1416576,42.8790388 75.3665835,42.8379052 C80.5586035,42.8379052 83.7905237,40.8428928 84.2094763,40.5885287 L84.2094763,34.0299252 C83.9650873,34.2244389 81.7157107,36.0249377 77.2269327,36.0249377 C74.3990025,36.0249377 71.840399,35.2568579 70.3990025,33.7456359 C68.957606,32.234414 68.2394015,30.1546135 68.2394015,27.5610973 C68.2394015,24.967581 69.0024938,22.8877805 70.4139651,21.3915212 C71.8254364,19.8952618 74.40399,19.1122195 77.2418953,19.1122195 C79.6598025,19.1024241 82.0480206,19.6448908 84.2244389,20.6982544 L84.2244389,14.2593516 C81.6138635,12.9323154 78.7239703,12.248317 75.7955112,12.2643392 C73.4273803,12.2409409 71.0731833,12.6290881 68.8379052,13.4114713 Z" id="Path"></path>
                <path d="M145.311721,42.5037406 L153.665835,42.5037406 L153.581047,25.5461347 C153.581047,21.19202 152.528678,17.6957606 149.591022,15.4164589 C147.047382,13.4214464 143.835411,12.244389 139.730673,12.244389 C135.805486,12.244389 132.508728,12.5436409 128.42394,14.2394015 L128.453865,20.6932668 C131.750623,18.9925187 135.371571,18.6234414 137.900249,18.6234414 C145.65586,18.7630923 145.311721,24.4438903 145.311721,24.4438903 L139.052369,24.4438903 C134.508728,24.4438903 131.117207,25.2518703 128.972569,26.8528678 C127.959056,27.5875977 127.141999,28.5605294 126.593516,29.6857855 C126.050379,30.8814188 125.781148,32.1832685 125.805486,33.4962594 C125.776051,35.175661 126.214702,36.8301019 127.072319,38.2743142 C127.983435,39.7243251 129.294697,40.8796905 130.84788,41.6009975 C132.722291,42.4648424 134.769635,42.8879601 136.832918,42.8379052 C139.791489,42.8987414 142.618067,41.614767 144.518703,39.3466334 L145.311721,38.4488778 L145.311721,42.5037406 Z M145.281796,33.5261845 C144.860886,34.4062208 144.21154,35.1571885 143.401496,35.7007481 C142.350136,36.3776959 141.120483,36.7250555 139.870324,36.6982544 C138.709716,36.7523473 137.566638,36.3995456 136.638404,35.7007481 C135.822029,35.0427448 135.360638,34.0406039 135.391521,32.9925187 C135.391521,31.3117207 136.289277,29.3067332 140.548628,29.3067332 L145.311721,29.3067332 L145.311721,29.765586 L145.311721,33.286783 L145.311721,33.3965087 L145.281796,33.5261845 Z" id="Shape"></path>
            </g>
        </g>
    </g>
</svg>