<?xml version="1.0" encoding="UTF-8"?>
<svg width="256px" height="256px" viewBox="0 0 256 256" version="1.1" xmlns="http://www.w3.org/2000/svg" xmlns:xlink="http://www.w3.org/1999/xlink">
    <title>La CSQ Copy 3</title>
    <g id="La-CSQ-Copy-3" stroke="none" stroke-width="1" fill="none" fill-rule="evenodd">
        <rect fill="#FFFFFF" x="0" y="0" width="256" height="256"></rect>
        <rect id="Rectangle" fill="#FFFFFF" x="0" y="0" width="256" height="256"></rect>
        <g id="Group" transform="translate(46.396777, 18.000000)" fill="#000000" fill-rule="nonzero">
            <g id="ML" transform="translate(0.297220, -0.000000)">
                <path d="M0,97.6032353 L24.0471739,97.6032353 L24.0471739,24.0471739 C33.2416816,24.4715358 43.8507289,30.9784182 43.8507289,44.5579987 L43.8507289,97.6032353 L65.9175473,97.6032353 L65.9175473,44.5579987 C65.9175473,30.9784182 76.5265946,24.4715358 85.7211023,24.0471739 L85.7211023,97.6032353 L109.768276,97.6032353 L109.768276,0 L85.7211023,0 C72.5658836,0 59.8350269,7.07269821 54.8841381,14.1453964 C49.9332494,7.07269821 37.2023926,0 24.0471739,0 L0,0 L0,97.6032353 Z" id="Path"></path>
                <polygon id="Path" points="138.059069 74.2633312 138.059069 0 114.011895 0 114.011895 97.6032353 162.106243 97.6032353 162.106243 74.2633312"></polygon>
            </g>
            <g id="101-copy" transform="translate(0.000000, 109.171437)">
                <polygon id="Path" points="38.7140871 3.03639899 0 3.03639899 0 27.3275909 12.9046957 27.3275909 12.9046957 107.792164 38.7140871 107.792164"></polygon>
                <path d="M81.9827727,110.828563 C106.273965,110.828563 121.45596,91.8510694 121.45596,72.8735757 L121.45596,40.2322866 C121.45596,18.9774937 106.273965,0 81.9827727,0 C57.6915808,0 42.5095858,18.9774937 42.5095858,40.2322866 L42.5095858,72.8735757 C42.5095858,91.8510694 57.6915808,110.828563 81.9827727,110.828563 Z M81.9827727,85.7782714 C70.5962765,85.7782714 68.3189772,78.1872739 68.3189772,66.8007777 L68.3189772,45.5459848 C68.3189772,33.4003889 70.5962765,25.0502917 81.9827727,25.0502917 C93.3692689,25.0502917 95.6465681,33.4003889 95.6465681,45.5459848 L95.6465681,66.8007777 C95.6465681,78.1872739 93.3692689,85.7782714 81.9827727,85.7782714 Z" id="Shape"></path>
                <polygon id="Path" points="163.206446 3.03639899 124.492359 3.03639899 124.492359 27.3275909 137.397054 27.3275909 137.397054 107.792164 163.206446 107.792164"></polygon>
            </g>
        </g>
    </g>
</svg>