<svg xmlns="http://www.w3.org/2000/svg" width="256" height="256">
    <style>
    path { fill: #000; }
    @media (prefers-color-scheme: dark) {
        path { fill: #ffffff; }
    }
    </style>
    <path d="M28.503 214.683h56.03c29.145 0 53.015-21.356 53.015-53.266 0-14.824-5.025-28.643-15.327-37.437-9.296-8.04-23.115-12.06-40.2-17.086-7.79-2.26-11.307-7.035-11.307-13.316 0-6.03 3.266-10.804 12.06-10.804h33.417V41.317H92.824c-17.337 0-22.11.502-26.382 1.507C41.317 48.101 28 68.704 28 93.327c0 14.07 4.271 26.382 13.568 35.93 8.543 8.793 18.844 12.06 41.457 19.597 6.03 2.01 11.81 6.533 11.81 13.317 0 6.03-4.775 11.055-15.327 11.055H28.503v41.457ZM185.286 173.227V41.317h-42.713v173.367H228v-41.457z"/>
</svg>
