<svg height="35" width="133" xmlns="http://www.w3.org/2000/svg" xmlns:xlink="http://www.w3.org/1999/xlink"><mask id="a" fill="#fff"><path d="m0 0h10.4523273v34.1603966h-10.4523273z" fill="#fff" fill-rule="evenodd"/></mask><g fill="#fff" fill-rule="nonzero"><path d="m11.767 14.154c3.072 0 5.482-1.68 5.482-4.798 0-2.975-2.032-4.078-5.01-4.078h-5.669l-.473 8.876h5.671zm1.796 15.305c3.308 0 6.143-1.68 6.143-5.758 0-2.926-2.08-4.845-6.19-4.845h-7.656l-.567 10.603zm-12.098-26.244c.094-1.823.945-2.639 2.74-2.639h8.885c6.002 0 9.64 3.359 9.64 8.204 0 2.879-1.653 5.518-3.638 6.717 3.592 1.296 6.096 3.983 6.096 8.156 0 6.477-4.584 10.507-11.294 10.507h-11.437c-1.795 0-2.457-.815-2.457-2.638zm44.634 19.407c0-4.414-2.704-6.909-6.18-6.909-4.247 0-7.095 3.455-7.095 8.108 0 4.127 2.268 6.957 6.275 6.957s7-3.166 7-8.156m-5.938-11.13c6.517 0 11.055 4.221 11.055 11.034 0 7.054-4.683 12.474-12.213 12.474-6.227 0-11.296-3.646-11.296-11.035 0-6.764 4.634-12.474 12.454-12.474m13.574 15.339.61-11.902c.094-1.842 1.174-2.597 2.442-2.597 1.643 0 2.348.944 2.348 2.597l-.61 11.618c0 2.787 1.314 4.298 3.85 4.298 1.972 0 3.522-.567 4.977-2.03 1.127-1.182 1.362-2.173 1.456-3.59l.516-10.296c.094-1.842 1.174-2.597 2.443-2.597 1.643 0 2.347.944 2.347 2.597l-.751 13.46c0 1.606.282 2.078.798 2.598.376.378.564.755.564 1.511 0 1.18-.846 2.03-2.349 2.03-1.408 0-2.582-.802-3.287-2.171-2.347 2.03-4.883 2.644-7.466 2.644-4.977 0-7.888-2.74-7.888-7.462zm26.785-23.688c.097-1.82 1.211-2.566 2.52-2.566 1.694 0 2.421.933 2.421 2.566l-.92 15.952 6.296-5.877c.727-.7 1.55-.98 2.326-.98 1.21 0 2.131.794 2.131 1.913 0 .746-.242 1.4-1.066 2.192l-4.795 4.478 6.346 8.956c.532.746.774 1.306.774 2.052 0 1.54-1.114 2.332-2.373 2.332-1.017 0-1.89-.466-2.616-1.539l-5.86-8.396-1.503 1.4-.339 5.97c-.096 1.819-1.21 2.565-2.519 2.565-1.695 0-2.421-.932-2.421-2.565zm23.32-1.726c1.888 0 3.38 1.44 3.38 3.265 0 1.824-1.492 3.265-3.38 3.265-1.89 0-3.381-1.441-3.381-3.265 0-1.825 1.49-3.265 3.38-3.265zm-3.033 12.82c.099-1.873 1.242-2.641 2.585-2.641 1.74 0 2.485.96 2.485 2.64l-.795 14.164c-.05 1.008.1 1.44 1.044 1.824.845.337 1.342.817 1.342 1.777 0 1.248-1.044 2.16-2.883 2.16-2.635 0-4.673-.96-4.673-4.609l.895-15.316z"/><path d="m1.466 2.574c.095-1.825 1.184-2.574 2.46-2.574 1.654 0 2.364.936 2.364 2.574l-1.419 25.129c-.094 1.684.71 2.34 1.608 2.34 1.041 0 1.419-.469 2.223-.469 1.183 0 1.75.75 1.75 1.779 0 1.59-1.466 2.807-4.966 2.807-2.932 0-5.486-1.59-5.486-5.708z" mask="url(#a)" transform="translate(111.043)"/><path d="m129.028 1.416c1.89 0 3.38 1.44 3.38 3.265 0 1.824-1.49 3.265-3.38 3.265s-3.38-1.441-3.38-3.265c0-1.825 1.49-3.265 3.38-3.265zm-3.032 12.82c.1-1.873 1.242-2.641 2.585-2.641 1.74 0 2.486.96 2.486 2.64l-.797 14.165c-.05 1.008.1 1.44 1.044 1.824.845.337 1.342.817 1.342 1.777 0 1.248-1.044 2.16-2.883 2.16-2.635 0-4.673-.96-4.673-4.609l.895-15.316z"/></g></svg>