<?xml version="1.0" encoding="UTF-8"?>
<svg width="157px" height="47px" viewBox="0 0 157 47" version="1.1" xmlns="http://www.w3.org/2000/svg" xmlns:xlink="http://www.w3.org/1999/xlink">
    <title>TSLSJ_Logo-gris</title>
    <defs>
        <polygon id="path-1" points="0 0 101.250693 0 101.250693 8.55672823 0 8.55672823"></polygon>
    </defs>
    <g id="Page-1" stroke="none" stroke-width="1" fill="none" fill-rule="evenodd">
        <g id="tslsj" transform="translate(-40.000000, -288.000000)">
            <g id="TSLSJ_Logo-gris" transform="translate(40.000000, 288.000000)">
                <path d="M23.5029012,0 C36.4844753,0 47.0072531,10.5205913 47.0072531,23.4989122 C47.0072531,36.4794088 36.4844753,47 23.5029012,47 C10.5213272,47 0,36.4794088 0,23.4989122 C0,10.5205913 10.5213272,0 23.5029012,0 Z M33.1925895,23.4989122 L23.502466,33.1884152 L33.1925895,33.1884152 L33.1925895,23.4989122 Z M13.8127777,33.1881976 L23.5029012,33.1881976 L13.8135238,23.498881 L23.5026111,13.81231 L13.8132129,13.81231 L13.8127777,33.1881976 Z M33.1930247,13.812165 L23.5029012,13.812165 L33.1930247,23.4994924 L33.1930247,13.812165 Z" id="Combined-Shape" fill="#FFFFFF" fill-rule="nonzero"></path>
                <path d="M58.7512331,21.5002392 C57.9142269,21.2340878 57.1896435,21.0041969 57.1896435,20.4465121 C57.1896435,20.2420034 57.25202,20.0773812 57.3738719,19.9584472 C57.5116806,19.8228332 57.7191188,19.7532133 57.9751527,19.7532133 L58.0070664,19.7532133 C58.546696,19.7640914 58.9028225,20.0723048 58.9376373,20.5560185 C58.9390879,20.5864772 58.9644738,20.6096839 58.9942114,20.6096839 L61.2477454,20.6096839 C61.2629769,20.6096839 61.2782083,20.603157 61.2883627,20.5915536 C61.2999675,20.5806756 61.3064954,20.5654461 61.3043194,20.5487664 C61.2194583,18.970714 60.0009398,18.029394 58.0447825,18.029394 C56.1169121,18.029394 54.8708318,19.0062491 54.8708318,20.516132 C54.8556003,22.2573563 56.3439336,22.7084355 57.5392423,23.0695891 C58.3871281,23.3263127 59.1196898,23.5482264 59.1196898,24.1450724 C59.1196898,24.586724 58.7592114,24.8623031 58.1789645,24.8623031 C57.5871127,24.8623031 57.2317114,24.5475629 57.1773133,23.9739234 C57.1751373,23.9449151 57.1490262,23.9224337 57.1192886,23.9224337 L54.904196,23.9224337 C54.8882392,23.9224337 54.8737331,23.9282352 54.8621281,23.9398386 C54.8512485,23.9514419 54.8461713,23.9659461 54.8461713,23.9819006 C54.9034706,25.5635791 56.2358627,26.5861223 58.2391652,26.5861223 C60.4332238,26.5861223 61.4145664,25.2836489 61.4145664,23.9920535 C61.4145664,22.3465568 59.9378379,21.8773473 58.7512331,21.5002392 L58.7512331,21.5002392 Z M129.642175,21.6713882 L124.695569,21.6713882 C124.662931,21.6713882 124.637544,21.6967705 124.637544,21.7294049 L124.637544,23.0572606 C124.637544,23.0898949 124.662931,23.1152772 124.695569,23.1152772 L129.642175,23.1152772 C129.674813,23.1152772 129.7002,23.0898949 129.7002,23.0572606 L129.7002,21.7294049 C129.7002,21.6967705 129.674813,21.6713882 129.642175,21.6713882 L129.642175,21.6713882 Z M123.434258,18.1541298 L121.408471,18.1541298 C121.387437,18.1541298 121.367128,18.165008 121.3577,18.1845886 L119.614057,21.5908901 L117.829073,18.1838633 C117.819644,18.165008 117.799335,18.1541298 117.7783,18.1541298 L115.753239,18.1541298 C115.732931,18.1541298 115.714798,18.1635576 115.703919,18.1802373 C115.693764,18.1976423 115.692313,18.2193986 115.701742,18.2375287 L118.55148,23.8397599 L118.55148,26.3772625 C118.55148,26.4084464 118.576866,26.4338286 118.609504,26.4338286 L120.633841,26.4338286 C120.665754,26.4338286 120.69114,26.4084464 120.69114,26.3772625 L120.69114,23.781018 L123.485754,18.2375287 C123.494458,18.2186733 123.493733,18.1976423 123.483579,18.1802373 C123.473425,18.1635576 123.454567,18.1541298 123.434258,18.1541298 L123.434258,18.1541298 Z M110.470091,23.2429138 L111.471017,20.5560185 L112.450909,23.2429138 L110.470091,23.2429138 Z M112.566233,18.1541298 L110.486773,18.1541298 C110.462113,18.1541298 110.441804,18.1679088 110.432375,18.1889398 L107.101758,26.3540558 C107.094505,26.3729111 107.095955,26.3932169 107.106835,26.4084464 C107.11844,26.4244009 107.135847,26.4338286 107.154705,26.4338286 L109.23489,26.4338286 C109.259551,26.4338286 109.280585,26.4200497 109.290014,26.3975682 L109.818764,24.9906649 L113.091356,24.9906649 L113.609227,26.3961178 C113.617206,26.4200497 113.638965,26.4338286 113.663625,26.4338286 L115.820693,26.4338286 C115.840277,26.4338286 115.858409,26.4251261 115.869289,26.4084464 C115.879443,26.3932169 115.882344,26.3736364 115.874366,26.354781 L112.619906,18.1896651 C112.611927,18.1679088 112.590168,18.1541298 112.566233,18.1541298 L112.566233,18.1541298 Z M103.768965,18.1541298 C103.753008,18.1541298 103.739227,18.1592063 103.727622,18.1708097 C103.716017,18.1809626 103.71094,18.1961919 103.71094,18.2106961 L103.721094,22.9477541 L100.295461,18.1773365 C100.284582,18.1621072 100.2679,18.1541298 100.248316,18.1541298 L98.4662331,18.1541298 C98.4350448,18.1541298 98.409659,18.1787869 98.409659,18.2106961 L98.409659,26.3772625 C98.409659,26.4084464 98.4350448,26.4338286 98.4662331,26.4338286 L100.358563,26.4338286 C100.391202,26.4338286 100.416588,26.4084464 100.416588,26.3772625 L100.416588,21.6750143 L103.832066,26.4106219 C103.843671,26.4258514 103.860353,26.4338286 103.879211,26.4338286 L105.64969,26.4338286 C105.682329,26.4338286 105.707715,26.4084464 105.707715,26.3772625 L105.707715,18.2106961 C105.707715,18.1787869 105.682329,18.1541298 105.64969,18.1541298 L103.768965,18.1541298 Z M92.1879614,24.6186332 L92.1879614,23.1957753 L95.8261096,23.184172 C95.8587485,23.184172 95.8841342,23.1587896 95.8841342,23.1276057 L95.8841342,21.4378713 C95.8841342,21.405237 95.8587485,21.3805799 95.8261096,21.3805799 L92.1879614,21.3805799 L92.1879614,19.9686001 L96.2250293,19.9686001 C96.2569429,19.9686001 96.2823287,19.9432178 96.2823287,19.9120339 L96.2823287,18.2106961 C96.2823287,18.1787869 96.2569429,18.1541298 96.2250293,18.1541298 L90.1041497,18.1541298 C90.0722361,18.1541298 90.0475756,18.1787869 90.0475756,18.2106961 L90.0475756,26.3772625 C90.0475756,26.4084464 90.0722361,26.4338286 90.1041497,26.4338286 L96.3352762,26.4338286 C96.3679152,26.4338286 96.3933009,26.4084464 96.3933009,26.3772625 L96.3933009,24.6759247 C96.3933009,24.6440155 96.3679152,24.6186332 96.3352762,24.6186332 L92.1879614,24.6186332 Z M85.9880231,18.1541298 C85.9553842,18.1541298 85.9299985,18.1787869 85.9299985,18.2106961 L85.9299985,23.0108473 C85.9299985,23.5141415 85.7994429,23.9188076 85.5412331,24.2117916 C85.2837485,24.5055008 84.9435787,24.6534432 84.5279769,24.6534432 C84.1036713,24.6534432 83.7489954,24.5026 83.4748287,24.2059899 L83.4748287,24.2052647 C83.1977608,23.9072042 83.0570509,23.505439 83.0570509,23.0108473 L83.0570509,18.2106961 C83.0570509,18.1787869 83.0316652,18.1541298 82.9997515,18.1541298 L80.9754152,18.1541298 C80.9427762,18.1541298 80.9173904,18.1787869 80.9173904,18.2106961 L80.9173904,23.0108473 C80.9173904,23.7237266 81.066804,24.3575584 81.3612793,24.8956627 C81.6572052,25.4352173 82.0822361,25.8565631 82.6247669,26.1473715 C83.1643966,26.4381799 83.8004923,26.5861223 84.5170973,26.5861223 C85.2315262,26.5861223 85.8639954,26.4381799 86.3985479,26.1473715 C86.932375,25.8565631 87.3501527,25.4352173 87.6388256,24.8956627 C87.9260479,24.3568332 88.0718348,23.7222762 88.0718348,23.0108473 L88.0718348,18.2106961 C88.0718348,18.1787869 88.0464491,18.1541298 88.0138102,18.1541298 L85.9880231,18.1541298 Z M65.4349521,23.2429138 L66.4358781,20.5560185 L67.41577,23.2429138 L65.4349521,23.2429138 Z M67.5310942,18.1541298 L65.450909,18.1541298 C65.4284244,18.1541298 65.4066652,18.1679088 65.3972361,18.1889398 L62.0666188,26.3540558 C62.0593658,26.3729111 62.0608164,26.3932169 62.071696,26.4084464 C62.0833009,26.4244009 62.1007083,26.4338286 62.1195664,26.4338286 L64.2004769,26.4338286 C64.2244121,26.4338286 64.2461713,26.4200497 64.254875,26.3975682 L64.7828997,24.9906649 L68.0562175,24.9906649 L68.5740879,26.3961178 C68.5827917,26.4200497 68.6038256,26.4338286 68.6284861,26.4338286 L70.785554,26.4338286 C70.8051373,26.4338286 70.82327,26.4251261 70.8341497,26.4084464 C70.844304,26.3932169 70.8472052,26.3736364 70.8392269,26.354781 L67.5854923,18.1896651 C67.5767886,18.1679088 67.5550293,18.1541298 67.5310942,18.1541298 L67.5310942,18.1541298 Z" id="Fill-11" fill="#FFFFFF" fill-rule="nonzero"></path>
                <g id="Fill-13-Clipped" transform="translate(55.415973, 30.481867)">
                    <mask id="mask-2" fill="white">
                        <use xlink:href="#path-1"></use>
                    </mask>
                    <g id="path-1"></g>
                    <path d="M32.8470525,3.4708451 C32.0085957,3.20469379 31.2847377,2.97552809 31.2847377,2.4178432 C31.2847377,2.21260936 31.3471142,2.04798716 31.4696914,1.92905306 C31.6140277,1.78836272 31.8287192,1.72164359 32.1028858,1.72381922 C32.6425154,1.73614776 32.9986419,2.04291071 33.0320062,2.5273496 C33.0349075,2.55780833 33.0595679,2.58101498 33.0900308,2.58101498 L35.3421142,2.58101498 C35.358071,2.58101498 35.3733025,2.57448811 35.3849075,2.56288479 C35.3950617,2.55128146 35.4015895,2.5360521 35.3994136,2.51937231 C35.3152777,0.941319879 34.096034,0 32.1406019,0 C30.2120062,0 28.9659259,0.976855067 28.9659259,2.48818837 C28.9514198,4.22941258 30.4397531,4.67904149 31.6343364,5.04092024 C32.4829475,5.29691864 33.214784,5.51883227 33.214784,6.11567838 C33.214784,6.55805521 32.8543056,6.83290901 32.2740586,6.83290901 C31.6829321,6.83290901 31.3275308,6.51816877 31.2724075,5.94597972 C31.2695062,5.91552099 31.245571,5.89376475 31.2151081,5.89376475 L28.9992902,5.89376475 C28.9833333,5.89376475 28.9695525,5.90029163 28.9579475,5.91116975 C28.9463425,5.92204786 28.9412654,5.93800244 28.9419908,5.9532318 C28.9992902,7.53491028 30.3309568,8.55672823 32.3357098,8.55672823 C34.5275925,8.55672823 35.5089352,7.25425482 35.5089352,5.96338472 C35.5089352,4.31788795 34.0336575,3.84795321 32.8470525,3.4708451 L32.8470525,3.4708451 Z M72.133395,0.124735762 C72.1007562,0.124735762 72.0753704,0.150118039 72.0753704,0.182752395 L72.0753704,5.64574365 C72.0753704,5.93365119 72.0079167,6.15556481 71.8730092,6.30640806 C71.7410031,6.45725131 71.5618519,6.53122252 71.3254012,6.53122252 C71.0998302,6.53122252 70.8445216,6.45290006 70.5674537,6.29915598 C70.286034,6.14396148 70.0082408,5.91842182 69.7406019,5.62978907 C69.7289969,5.61601013 69.7108642,5.61455971 69.6927315,5.61020846 C69.6753241,5.61238409 69.6586419,5.62181178 69.6492129,5.63776636 L68.7208179,7.09325865 C68.7063117,7.11501489 68.7084877,7.14184758 68.7237192,7.16142819 C69.4483025,8.04908269 70.3716204,8.49871159 71.4690123,8.49871159 C72.3139969,8.49871159 72.9921605,8.24996528 73.4853704,7.75972473 C73.977855,7.27020938 74.2273611,6.57400978 74.2273611,5.69215695 L74.2273611,0.182752395 C74.2273611,0.150118039 74.2019753,0.124735762 74.1700617,0.124735762 L72.133395,0.124735762 Z M101.192886,0.124735762 L99.3114352,0.124735762 C99.2962037,0.124735762 99.2816975,0.129812217 99.2715432,0.141415544 C99.2599383,0.151568455 99.2541358,0.166797821 99.2541358,0.182752395 L99.2642902,4.91836011 L95.8386575,0.147942416 C95.8277777,0.133438257 95.8103704,0.124735762 95.7922377,0.124735762 L94.009429,0.124735762 C93.9775154,0.124735762 93.9521296,0.150118039 93.9521296,0.182752395 L93.9521296,8.34786835 C93.9521296,8.38050271 93.9775154,8.40588498 94.009429,8.40588498 L95.9024846,8.40588498 C95.9343981,8.40588498 95.959784,8.38050271 95.959784,8.34786835 L95.959784,3.64562021 L99.3752623,8.38195312 C99.3861419,8.39718249 99.4042747,8.40588498 99.4224075,8.40588498 L101.192886,8.40588498 C101.225525,8.40588498 101.25091,8.38050271 101.25091,8.34786835 L101.25091,0.182752395 C101.25091,0.150118039 101.225525,0.124735762 101.192886,0.124735762 L101.192886,0.124735762 Z M87.3692284,5.21497015 L88.3701544,2.5273496 L89.3507716,5.21497015 L87.3692284,5.21497015 Z M89.4653704,0.124735762 L87.3851852,0.124735762 C87.36125,0.124735762 87.340216,0.138514713 87.3315123,0.159545742 L84.000895,8.32538691 C83.9936419,8.3435171 83.9958179,8.36454814 84.0059723,8.38050271 C84.0175771,8.39573208 84.0349846,8.40588498 84.0545679,8.40588498 L86.1347531,8.40588498 C86.1594136,8.40588498 86.1804475,8.39065562 86.1877006,8.36817418 L86.7171759,6.96127081 L89.9904938,6.96127081 L90.5083642,8.36817418 C90.5163425,8.39065562 90.5381019,8.40588498 90.5620371,8.40588498 L92.7198302,8.40588498 C92.7394136,8.40588498 92.7575463,8.39573208 92.7684259,8.38050271 C92.7785802,8.36454814 92.7807562,8.34424231 92.7735031,8.32683732 L89.5190432,0.16027095 C89.5110648,0.138514713 89.4893056,0.124735762 89.4653704,0.124735762 L89.4653704,0.124735762 Z M78.5378704,6.58996436 L78.5378704,5.16710642 L82.1760185,5.1555031 C82.2086575,5.1555031 82.2340432,5.1293956 82.2340432,5.09821166 L82.2340432,3.40920243 C82.2340432,3.37729328 82.2086575,3.3511858 82.1760185,3.3511858 L78.5378704,3.3511858 L78.5378704,1.93993118 L82.5756636,1.93993118 C82.6068519,1.93993118 82.6322377,1.91454891 82.6322377,1.88263975 L82.6322377,0.182752395 C82.6322377,0.150118039 82.6068519,0.124735762 82.5756636,0.124735762 L76.4540586,0.124735762 C76.422145,0.124735762 76.3967592,0.150118039 76.3967592,0.182752395 L76.3967592,8.34786835 C76.3967592,8.38050271 76.422145,8.40588498 76.4540586,8.40588498 L82.6859105,8.40588498 C82.7178241,8.40588498 82.7432098,8.38050271 82.7432098,8.34786835 L82.7432098,6.64725578 C82.7432098,6.61534663 82.7178241,6.58996436 82.6859105,6.58996436 L78.5378704,6.58996436 Z M59.8684259,0.124735762 C59.8365123,0.124735762 59.8104012,0.150118039 59.8104012,0.182752395 L59.8104012,1.9413816 C59.8104012,1.97401596 59.8365123,1.99939823 59.8684259,1.99939823 L61.7005556,1.99939823 L61.7005556,8.34786835 C61.7005556,8.38050271 61.7259414,8.40588498 61.7571296,8.40588498 L63.7836419,8.40588498 C63.8155556,8.40588498 63.8409414,8.38050271 63.8409414,8.34786835 L63.8409414,1.99939823 L65.6505864,1.99939823 C65.6825,1.99939823 65.7078858,1.97401596 65.7078858,1.9413816 L65.7078858,0.182752395 C65.7078858,0.150118039 65.6825,0.124735762 65.6505864,0.124735762 L59.8684259,0.124735762 Z M56.2382562,0.124735762 C56.22375,0.124735762 56.2085185,0.129812217 56.1983642,0.141415544 C56.1867592,0.151568455 56.1816821,0.166797821 56.1816821,0.182752395 L56.1918364,4.91836011 L52.7654784,0.147942416 C52.7545988,0.133438257 52.7371914,0.124735762 52.7190586,0.124735762 L50.9369753,0.124735762 C50.9043364,0.124735762 50.8789506,0.150118039 50.8789506,0.182752395 L50.8789506,8.34786835 C50.8789506,8.38050271 50.9043364,8.40588498 50.9369753,8.40588498 L52.8293056,8.40588498 C52.8619444,8.40588498 52.8873302,8.38050271 52.8873302,8.34786835 L52.8873302,3.64562021 L56.3028086,8.38195312 C56.3129629,8.39718249 56.3303704,8.40588498 56.3492284,8.40588498 L58.1204321,8.40588498 C58.1516204,8.40588498 58.1770062,8.38050271 58.1770062,8.34786835 L58.1770062,0.182752395 C58.1770062,0.150118039 58.1516204,0.124735762 58.1204321,0.124735762 L56.2382562,0.124735762 Z M46.5401544,0.124735762 C46.5082408,0.124735762 46.4835802,0.150118039 46.4835802,0.182752395 L46.4835802,8.34786835 C46.4835802,8.38050271 46.5082408,8.40588498 46.5401544,8.40588498 L48.5659414,8.40588498 C48.5985802,8.40588498 48.623966,8.38050271 48.623966,8.34786835 L48.623966,0.182752395 C48.623966,0.150118039 48.5985802,0.124735762 48.5659414,0.124735762 L46.5401544,0.124735762 Z M39.6838117,5.21497015 L40.6832871,2.5273496 L41.6646296,5.21497015 L39.6838117,5.21497015 Z M41.7799537,0.124735762 L39.6997685,0.124735762 C39.6758333,0.124735762 39.6547994,0.138514713 39.6460956,0.159545742 L36.3147531,8.32538691 C36.3067747,8.3435171 36.3096759,8.36454814 36.3205556,8.38050271 C36.3307098,8.39573208 36.3488425,8.40588498 36.3684259,8.40588498 L38.4486111,8.40588498 C38.4725463,8.40588498 38.4943056,8.39065562 38.502284,8.36817418 L39.0317592,6.96127081 L42.3043519,6.96127081 L42.8222223,8.36817418 C42.8302006,8.39065562 42.8519598,8.40588498 42.875895,8.40588498 L45.0344136,8.40588498 C45.0532716,8.40588498 45.0714043,8.39573208 45.0815586,8.38050271 C45.0931636,8.36454814 45.0946142,8.34424231 45.0880864,8.32683732 L41.8329012,0.16027095 C41.8256481,0.138514713 41.8031636,0.124735762 41.7799537,0.124735762 L41.7799537,0.124735762 Z M10.0194136,5.21497015 L11.0196142,2.5273496 L12.0002315,5.21497015 L10.0194136,5.21497015 Z M12.1155556,0.124735762 L10.0353704,0.124735762 C10.0114352,0.124735762 9.99040123,0.138514713 9.98169753,0.159545742 L6.65035494,8.32538691 C6.64382716,8.3435171 6.64527777,8.36454814 6.65615741,8.38050271 C6.66703704,8.39573208 6.68444444,8.40588498 6.70402777,8.40588498 L8.78421296,8.40588498 C8.80887346,8.40588498 8.82990741,8.39065562 8.83861111,8.36817418 L9.36736111,6.96127081 L12.6399537,6.96127081 L13.1578241,8.36817418 C13.1658025,8.39065562 13.1875617,8.40588498 13.2114969,8.40588498 L15.3700154,8.40588498 C15.3888735,8.40588498 15.4077315,8.39573208 15.4178858,8.38050271 C15.4287654,8.36454814 15.430216,8.34424231 15.4236883,8.32683732 L12.1685031,0.16027095 C12.1605247,0.138514713 12.1387654,0.124735762 12.1155556,0.124735762 L12.1155556,0.124735762 Z M2.14183642,6.47320588 L2.14183642,0.182752395 C2.14183642,0.150118039 2.11645062,0.124735762 2.08381173,0.124735762 L0.0580246914,0.124735762 C0.0253858025,0.124735762 0,0.150118039 0,0.182752395 L0,8.34786835 C0,8.38050271 0.0253858025,8.40588498 0.0580246914,8.40588498 L5.3709105,8.40588498 C5.40354938,8.40588498 5.42893519,8.38050271 5.42893519,8.34786835 L5.42893519,6.53122252 C5.42893519,6.49858816 5.40354938,6.47320588 5.3709105,6.47320588 L2.14183642,6.47320588 Z M21.9862808,5.3948217 C21.8941667,5.37161505 21.8854629,5.41730316 21.8462963,5.47822062 C21.5648765,6.08376923 21.0042129,6.47755713 20.2063735,6.47755713 C19.2235802,6.47755713 18.250216,5.79803731 18.250216,4.31136107 C18.250216,3.03644555 19.0001852,2.09657609 20.1701081,2.09657609 C20.9810031,2.09657609 21.540216,2.46570693 21.8854629,3.18221235 C21.9050463,3.24022898 21.9173765,3.26271042 21.9862808,3.24022898 L23.7342747,2.55055625 C23.7828704,2.52589918 23.8263889,2.47731025 23.7698148,2.33589471 C23.2403395,1.12117144 22.0580864,0.0616426731 20.1244136,0.0616426731 C17.8302623,0.0616426731 16.0249692,1.85798268 16.0249692,4.29830734 C16.0249692,6.58343749 17.6888271,8.50233763 20.1853395,8.50233763 C22.0109414,8.50233763 23.32375,7.33402768 23.8525,6.03808113 C23.8749846,5.96556034 23.8633796,5.91842182 23.7480556,5.88216142 L21.9862808,5.3948217 Z" id="Fill-13" fill="#FFFFFF" fill-rule="nonzero" mask="url(#mask-2)"></path>
                </g>
                <path d="M82.4427145,10.1936675 C81.9110633,10.0239689 81.4519429,9.87892731 81.4519429,9.53517876 C81.4519429,9.40899258 81.489659,9.30818868 81.5643658,9.23566789 C81.6485015,9.15299419 81.7776065,9.1087565 81.9364491,9.1087565 L81.9574831,9.1087565 C82.2976527,9.11673379 82.5137948,9.30311222 82.5348287,9.60624914 C82.53773,9.63743308 82.5623904,9.65991452 82.5928534,9.65991452 L84.04202,9.65991452 C84.0579769,9.65991452 84.0732083,9.65411285 84.0840879,9.64250953 C84.0956929,9.6309062 84.10077,9.61567683 84.1000448,9.59972226 C84.0449213,8.58733201 83.2325756,7.95930195 81.9821435,7.95930195 C80.7288102,7.95930195 79.9186404,8.5953093 79.9186404,9.57941643 C79.9084861,10.715092 80.8745973,11.0073508 81.6499521,11.2415929 C82.1881312,11.4047647 82.6523287,11.5454551 82.6523287,11.9145859 C82.6523287,12.1858137 82.4289336,12.3555123 82.06773,12.3555123 C81.6992731,12.3555123 81.478054,12.1582558 81.4439645,11.8029039 C81.4410633,11.7731704 81.4156775,11.7514141 81.3859398,11.7514141 L79.9614336,11.7514141 C79.9454769,11.7514141 79.9309706,11.7572158 79.9193658,11.7688191 C79.9084861,11.7796973 79.9026836,11.7949266 79.903409,11.8108812 C79.9403997,12.8399513 80.8049675,13.5049669 82.1076219,13.5049669 C83.3225139,13.5049669 84.1703997,12.810943 84.1703997,11.8166828 C84.1703997,10.7419247 83.2122669,10.4373374 82.4427145,10.1936675 L82.4427145,10.1936675 Z M96.2924831,12.2177229 L93.6465571,12.2177229 L93.6465571,11.3452978 L95.9660942,11.3373204 C95.9972825,11.3373204 96.0226682,11.3104878 96.0226682,11.2793038 L96.0226682,10.1943928 C96.0226682,10.1617584 95.9972825,10.1363761 95.9660942,10.1363761 L93.6465571,10.1363761 L93.6465571,9.27120307 L96.2221281,9.27120307 C96.2540417,9.27120307 96.2794275,9.2458208 96.2794275,9.21391165 L96.2794275,8.12102331 C96.2794275,8.08838896 96.2540417,8.06300668 96.2221281,8.06300668 L92.288054,8.06300668 C92.2568658,8.06300668 92.2307546,8.08838896 92.2307546,8.12102331 L92.2307546,13.3679026 C92.2307546,13.4005369 92.2568658,13.4259193 92.288054,13.4259193 L96.2924831,13.4259193 C96.3236713,13.4259193 96.3505077,13.4005369 96.3505077,13.3679026 L96.3505077,12.2750143 C96.3505077,12.2431051 96.3236713,12.2177229 96.2924831,12.2177229 L96.2924831,12.2177229 Z M89.4520973,8.06300668 C89.4296127,8.06300668 89.409304,8.07606042 89.399875,8.09636625 L88.0152608,11.0537641 L86.6233935,8.09564104 C86.6146898,8.07606042 86.5936558,8.06300668 86.570446,8.06300668 L85.1560942,8.06300668 C85.1241806,8.06300668 85.0987948,8.08838896 85.0987948,8.12102331 L85.0987948,13.3679026 C85.0987948,13.4005369 85.1241806,13.4259193 85.1560942,13.4259193 L86.3158627,13.4259193 C86.3485015,13.4259193 86.3731621,13.4005369 86.3731621,13.3679026 L86.3731621,10.310426 L87.5430848,12.8682343 C87.5525139,12.8885402 87.5728225,12.9015939 87.5960325,12.9015939 L88.4352145,12.9015939 C88.4576991,12.9015939 88.4787331,12.8885402 88.4874367,12.8675092 L89.6515571,10.310426 L89.6573596,13.3679026 C89.6573596,13.4005369 89.6827454,13.4259193 89.714659,13.4259193 L90.8678997,13.4259193 C90.9005386,13.4259193 90.9259244,13.4005369 90.9259244,13.3679026 L90.9259244,8.12102331 C90.9259244,8.08838896 90.9005386,8.06300668 90.8678997,8.06300668 L89.4520973,8.06300668 Z M77.3553997,8.06300668 C77.3242114,8.06300668 77.2981003,8.08838896 77.2981003,8.12102331 L77.2981003,13.3679026 C77.2981003,13.4005369 77.3242114,13.4259193 77.3553997,13.4259193 L78.6573287,13.4259193 C78.6892423,13.4259193 78.7153534,13.4005369 78.7153534,13.3679026 L78.7153534,8.12102331 C78.7153534,8.08838896 78.6892423,8.06300668 78.6573287,8.06300668 L77.3553997,8.06300668 Z M74.6035787,10.5722261 C74.4701219,10.6998627 74.2771898,10.7651314 74.0291342,10.7651314 L73.1406312,10.7651314 L73.1406312,9.27120307 L74.0291342,9.27120307 C74.2771898,9.27120307 74.4715725,9.33502137 74.604304,9.46120755 C74.7370355,9.58811893 74.8030386,9.76652008 74.8030386,10.0065639 C74.8030386,10.2574858 74.7370355,10.4416887 74.6035787,10.5722261 L74.6035787,10.5722261 Z M75.290446,11.6752673 C75.5624367,11.5120955 75.7749521,11.2887315 75.9221898,11.0109769 C76.0774058,10.7172677 76.1557392,10.3648166 76.1557392,9.96305143 C76.1557392,9.36402969 75.9657083,8.89191934 75.5921744,8.55977411 C75.2208164,8.22980451 74.6927917,8.06300668 74.0218812,8.06300668 L71.7806775,8.06300668 C71.7494892,8.06300668 71.7241034,8.08838896 71.7241034,8.12102331 L71.7241034,13.3679026 C71.7241034,13.4005369 71.7494892,13.4259193 71.7806775,13.4259193 L73.0826065,13.4259193 C73.1152454,13.4259193 73.1406312,13.4005369 73.1406312,13.3679026 L73.1406312,11.9733278 L74.0146281,11.9733278 L74.7232546,13.3940101 C74.733409,13.4128655 74.7537175,13.4259193 74.7754769,13.4259193 L76.2478534,13.4259193 C76.2688873,13.4259193 76.2884706,13.4143159 76.298625,13.3961857 C76.308054,13.3787807 76.308054,13.3555741 76.2978997,13.3381691 L75.290446,11.6752673 Z M69.1173442,8.06300668 C69.0847052,8.06300668 69.0593194,8.08838896 69.0593194,8.12102331 L69.0593194,11.2046074 C69.0593194,11.5222484 68.9766342,11.7775216 68.8134398,11.9631749 C68.6502454,12.1495533 68.4428071,12.2402043 68.1773442,12.2402043 C67.9111558,12.2402043 67.6892114,12.1452021 67.5151373,11.9588236 C67.3417886,11.7717199 67.2525756,11.5178972 67.2525756,11.2046074 L67.2525756,8.12102331 C67.2525756,8.08838896 67.2271898,8.06300668 67.1952762,8.06300668 L65.8940725,8.06300668 C65.8614336,8.06300668 65.8360479,8.08838896 65.8360479,8.12102331 L65.8360479,11.2046074 C65.8360479,11.6665648 65.9325139,12.0770325 66.1239954,12.4265827 C66.3154769,12.776133 66.5918194,13.0502615 66.9450448,13.2388156 C67.2968194,13.4273697 67.7080694,13.523097 68.1708164,13.523097 C68.6306621,13.523097 69.0419121,13.4273697 69.3893348,13.2388156 C69.7367577,13.0502615 70.0080231,12.776133 70.1951527,12.4251323 C70.3822825,12.0741317 70.4758473,11.663664 70.4758473,11.2046074 L70.4758473,8.12102331 C70.4758473,8.08838896 70.4504614,8.06300668 70.4178225,8.06300668 L69.1173442,8.06300668 Z M63.3025448,11.5041183 C63.1872207,11.7347344 63.0341806,11.9109599 62.8347206,12.0436729 C62.6388873,12.1734852 62.42202,12.2402043 62.1884706,12.2402043 C61.9505694,12.2402043 61.738054,12.1749356 61.5371435,12.0429478 C61.3362331,11.9109599 61.1737639,11.729658 61.0540879,11.503393 C60.9344121,11.2749525 60.8720355,11.0189542 60.8720355,10.7411995 C60.8720355,10.4677961 60.9322361,10.2132482 61.0519121,9.98480766 C61.1686867,9.75854279 61.3297052,9.57869124 61.5320664,9.44960423 C61.7366034,9.32051721 61.9505694,9.25742412 62.1884706,9.25742412 C62.42202,9.25742412 62.6388873,9.32196762 62.8347206,9.44887902 C63.0312793,9.57651561 63.187946,9.75636717 63.3025448,9.98408246 C63.4164182,10.2132482 63.4744429,10.4685213 63.4744429,10.7411995 C63.4744429,11.0189542 63.4164182,11.2756778 63.3025448,11.5041183 L63.3025448,11.5041183 Z M63.5781621,8.3400361 C63.1625602,8.1014427 62.6903842,7.98105818 62.1732392,7.98105818 C61.6575448,7.98105818 61.1839182,8.1014427 60.767591,8.3400361 C60.3512639,8.5779043 60.0183473,8.91077474 59.7789954,9.32631887 C59.5410942,9.74403863 59.4199675,10.2175994 59.4199675,10.7332222 C59.4199675,11.2539215 59.5410942,11.733284 59.7789954,12.1568054 C60.0176219,12.5817772 60.3505386,12.9197241 60.767591,13.1597679 C61.1860942,13.4005369 61.6589954,13.523097 62.1732392,13.523097 C62.6889336,13.523097 63.1611096,13.3998118 63.5788873,13.1554167 C63.9966652,12.912472 64.3288565,12.5752504 64.5660325,12.1539046 C64.8061096,11.733284 64.9257855,11.2553719 64.9257855,10.7332222 C64.9257855,10.2154238 64.8061096,9.74258823 64.5660325,9.32631887 C64.3274058,8.91077474 63.9944892,8.5779043 63.5781621,8.3400361 L63.5781621,8.3400361 Z M54.6322052,8.06300668 C54.5995664,8.06300668 54.5741806,8.08838896 54.5741806,8.12102331 L54.5741806,9.25089726 C54.5741806,9.2828064 54.5995664,9.30818868 54.6322052,9.30818868 L56.0530848,9.30818868 L56.0530848,13.3679026 C56.0530848,13.4005369 56.0784706,13.4259193 56.1111096,13.4259193 L57.4137639,13.4259193 C57.4449521,13.4259193 57.4703379,13.4005369 57.4703379,13.3679026 L57.4703379,9.30818868 L58.9071744,9.30818868 C58.9390879,9.30818868 58.9651991,9.2828064 58.9651991,9.25089726 L58.9651991,8.12102331 C58.9651991,8.08838896 58.9390879,8.06300668 58.9071744,8.06300668 L54.6322052,8.06300668 Z" id="Fill-16" fill="#FFFFFF" fill-rule="nonzero"></path>
                <path d="M85.9878781,18.1539123 C85.9552392,18.1539123 85.9298534,18.1785694 85.9298534,18.2112037 L85.9298534,23.0106297 C85.9298534,23.513924 85.7992979,23.9185901 85.5410879,24.2122992 C85.2836034,24.5052832 84.9434336,24.6532257 84.5285571,24.6532257 C84.1035262,24.6532257 83.7488503,24.5023824 83.4746836,24.2057724 L83.4746836,24.2050471 C83.1976158,23.9077119 83.0569058,23.5052215 83.0569058,23.0106297 L83.0569058,18.2112037 C83.0569058,18.1785694 83.03152,18.1539123 83.0003318,18.1539123 L80.97527,18.1539123 C80.9426312,18.1539123 80.9172454,18.1785694 80.9172454,18.2112037 L80.9172454,23.0106297 C80.9172454,23.7242343 81.066659,24.3573408 81.3611342,24.8954451 C81.6570602,25.435725 82.082091,25.8563456 82.6246219,26.1471539 C83.1642515,26.4386875 83.8003473,26.5859047 84.5169521,26.5859047 C85.2313812,26.5859047 85.8638503,26.4386875 86.3984027,26.1471539 C86.93223,25.8563456 87.3500077,25.435725 87.6386806,24.8954451 C87.9259027,24.3566156 88.0716898,23.7220587 88.0716898,23.0106297 L88.0716898,18.2112037 C88.0716898,18.1785694 88.046304,18.1539123 88.0136652,18.1539123 L85.9878781,18.1539123 Z" id="Fill-18" fill="#FFFFFF" fill-rule="nonzero"></path>
                <path d="M77.3765787,35.8763983 C77.2844645,35.8539169 77.2757608,35.8988798 77.2373194,35.9597972 C76.9551744,36.5653459 76.3945108,36.9591337 75.5966713,36.9591337 C74.6146034,36.9591337 73.6412392,36.2803391 73.6412392,34.7936629 C73.6412392,33.5180221 74.3904831,32.5781527 75.5604058,32.5781527 C76.3713009,32.5781527 76.9305139,32.9480087 77.2757608,33.6637889 C77.2960694,33.7218056 77.3083997,33.7450122 77.3765787,33.7218056 L79.1252979,33.0321329 C79.1731682,33.0074758 79.2174121,32.9588869 79.1601127,32.8181965 C78.6306373,31.6034733 77.4483842,30.5432194 75.5147114,30.5432194 C73.2205602,30.5432194 71.4152669,32.3395594 71.4152669,34.7806092 C71.4152669,37.0657394 73.079125,38.9839142 75.5756373,38.9839142 C77.4012392,38.9839142 78.7140479,37.8156043 79.2427979,36.5196578 C79.2652825,36.4478621 79.2544027,36.3999985 79.1383534,36.3644632 L77.3765787,35.8763983 Z" id="Fill-20" fill="#FFFFFF" fill-rule="nonzero"></path>
                <path d="M76.095466,19.9574318 C76.715605,19.9574318 77.2740925,20.1097255 77.7556975,20.5187428 L77.8949568,20.6391272 C77.9181667,20.6594331 77.9544321,20.6579827 77.9761914,20.6369517 L78.1945092,20.4208396 L79.0025031,19.6267371 C79.0032284,19.6260118 79.0032284,19.6260118 79.0039537,19.6260118 L79.2367777,19.3968461 C79.2585371,19.3750899 79.2570864,19.3417303 79.2338765,19.3221497 C79.2338765,19.3221497 79.0104815,19.1524511 78.9676883,19.1205419 C78.1161759,18.4801834 77.0035525,18.0994491 75.9808673,18.0994491 C73.4502654,18.0994491 71.4150494,19.9806385 71.4150494,22.3324878 C71.4150494,24.6836119 73.4502654,26.5408693 75.9808673,26.5408693 C77.8246019,26.5408693 79.1345092,25.7765002 79.1345092,25.7765002 C79.1852808,25.7416902 79.2360525,25.6474132 79.2360525,25.5893965 L79.2229969,21.9024395 C79.2229969,21.8719808 79.1954352,21.8465984 79.1627963,21.8465984 L76.2564846,21.8465984 C76.2238457,21.8465984 76.1970092,21.8712555 76.1970092,21.9017143 L76.1970092,22.4224135 L76.1970092,23.38694 C76.1970092,23.4195745 76.2252963,23.4456819 76.2601111,23.4456819 L77.2392777,23.4456819 L77.2392777,24.4841797 C76.7736296,24.6553287 76.3094321,24.687963 75.8677192,24.6654816 C75.0742315,24.62487 74.3351419,24.2405098 73.9529044,23.5965251 C72.9077346,21.8320943 74.2698642,19.9574318 76.095466,19.9574318" id="Fill-22" fill="#FFFFFF" fill-rule="nonzero"></path>
                <path d="M121.630633,34.1246586 C121.597994,34.1246586 121.572608,34.1500409 121.572608,34.1819501 L121.572608,35.510531 C121.572608,35.5417149 121.597994,35.5670971 121.630633,35.5670971 L123.753611,35.5670971 C123.785525,35.5670971 123.81091,35.5417149 123.81091,35.510531 L123.81091,34.1819501 C123.81091,34.1500409 123.785525,34.1246586 123.753611,34.1246586 L121.630633,34.1246586 Z" id="Fill-24" fill="#FFFFFF" fill-rule="nonzero"></path>
                <path d="M80.6053627,34.1246586 C80.5727238,34.1246586 80.5473379,34.1500409 80.5473379,34.1819501 L80.5473379,35.510531 C80.5473379,35.5417149 80.5727238,35.5670971 80.6053627,35.5670971 L82.728341,35.5670971 C82.7602546,35.5670971 82.7856404,35.5417149 82.7856404,35.510531 L82.7856404,34.1819501 C82.7856404,34.1500409 82.7602546,34.1246586 82.728341,34.1246586 L80.6053627,34.1246586 Z" id="Fill-26" fill="#FFFFFF" fill-rule="nonzero"></path>
            </g>
        </g>
    </g>
</svg>