<?xml version="1.0" encoding="UTF-8"?>
<svg width="78px" height="90px" viewBox="0 0 78 90" version="1.1" xmlns="http://www.w3.org/2000/svg" xmlns:xlink="http://www.w3.org/1999/xlink">
    <title>logo-fr</title>
    <g id="Page-1" stroke="none" stroke-width="1" fill="none" fill-rule="evenodd">
        <g id="thumbnail-copy-3" transform="translate(-40.000000, -245.000000)" fill="#FFFFFF" fill-rule="nonzero">
            <g id="logo-fr" transform="translate(40.000000, 245.000000)">
                <path d="M77.1428571,0 L77.1428571,90 L0,90 L0,0 L77.1428571,0 Z M17.5808571,77.1357857 L17.5082143,77.1357857 C16.6152857,77.1357857 15.5487857,77.6018571 15.5487857,79.8216429 C15.5487857,82.0401429 16.6152857,82.5068571 17.5082143,82.5068571 L17.5808571,82.5068571 C18.4750714,82.5068571 19.5402857,82.0401429 19.5402857,79.8216429 C19.5402857,77.6018571 18.4744286,77.1357857 17.5808571,77.1357857 Z M42.7635,77.2077857 L40.851,77.2077857 L40.7301429,77.328 L40.7301429,82.3146429 L40.851,82.4355 L41.4964286,82.4355 L41.6172857,82.3146429 L41.6172857,80.2896429 L41.6410714,80.2658571 L42.3816429,80.2658571 L42.4896429,80.3185714 L43.7792143,82.3255714 L43.7920714,82.3435714 L43.9553571,82.4277857 L44.3147143,82.4361429 L44.433,82.3152857 L44.433,81.7502143 L43.4307857,80.1752143 C44.1263571,79.9907143 44.5062857,79.4828571 44.5062857,78.7365 C44.5062857,77.7355714 43.9032857,77.2077857 42.7635,77.2077857 Z M8.33207143,77.2077857 L7.47064286,77.2077857 L7.34978571,77.3273571 L7.34978571,82.314 L7.47064286,82.4348571 L8.11478571,82.4348571 L8.235,82.314 L8.235,78.9582857 L8.80135714,80.5988571 L8.9145,80.7139286 L9.48664286,80.7139286 L9.60042857,80.5988571 L10.1661429,78.9582857 L10.1661429,82.314 L10.287,82.4348571 L10.9324286,82.4348571 L11.0526429,82.314 L11.0526429,77.3273571 L10.9324286,77.2077857 L10.0703571,77.2077857 L9.95721429,77.3215714 L9.20121429,79.2527143 L8.45035714,77.3453571 L8.44457143,77.3215714 L8.33207143,77.2077857 Z M27.5470714,77.2077857 L26.901,77.2077857 L26.7820714,77.3273571 L26.7820714,80.703 L25.1170714,77.3016429 L24.9492857,77.2167857 L24.2286429,77.2077857 L24.1090714,77.3273571 L24.1090714,82.314 L24.2286429,82.4348571 L24.8727857,82.4348571 L24.993,82.314 L24.993,78.9409286 L26.6586429,82.341 L26.8270714,82.4271429 L27.5470714,82.4348571 L27.666,82.314 L27.666,77.3273571 L27.5470714,77.2077857 Z M36.1060714,77.2077857 L32.2823571,77.2077857 L32.1627857,77.3273571 L32.1627857,77.9020714 L32.2823571,78.0222857 L33.7281429,78.0222857 L33.7512857,78.0460714 L33.7512857,82.314 L33.8721429,82.4348571 L34.5182143,82.4348571 L34.6371429,82.314 L34.6371429,78.0460714 L34.6628571,78.0222857 L36.1060714,78.0222857 L36.2269286,77.9020714 L36.2269286,77.3273571 L36.1060714,77.2077857 Z M52.5760714,77.2077857 L49.2589286,77.2077857 L49.1387143,77.3273571 L49.1387143,82.314 L49.2589286,82.4348571 L52.5760714,82.4348571 L52.6956429,82.314 L52.6956429,81.7399286 L52.5760714,81.6203571 L50.0477143,81.6203571 L50.022,81.5959286 L50.022,80.2176429 L50.0477143,80.1925714 L52.4320714,80.1925714 L52.551,80.0723571 L52.551,79.4976429 L52.4320714,79.3780714 L50.0477143,79.3780714 L50.022,79.353 L50.022,78.0460714 L50.0477143,78.0222857 L52.5735,78.0222857 L52.6956429,77.9020714 L52.6956429,77.3273571 L52.5760714,77.2077857 Z M66.7343571,77.2077857 L66.0889286,77.2077857 L65.9693571,77.3273571 L65.9693571,82.314 L66.0889286,82.4348571 L69.0942857,82.4348571 L69.2138571,82.314 L69.2138571,81.7399286 L69.0942857,81.6203571 L66.8783571,81.6203571 L66.8558571,81.5959286 L66.8558571,77.3273571 L66.7343571,77.2077857 Z M59.6256429,77.1936429 L58.8947143,77.1936429 L58.7944286,77.2965 L57.1962857,81.7122857 L57.1898571,82.2825 L57.3177857,82.4232857 L57.8327143,82.4232857 L57.933,82.3204286 L58.2319286,81.4596429 L58.3174286,81.4159286 L60.2061429,81.4159286 L60.2890714,81.4596429 L60.5629286,82.2812143 L60.6882857,82.4232857 L61.2019286,82.4232857 L61.3337143,82.2902143 L61.3337143,81.7457143 L59.751,77.3331429 L59.6256429,77.1936429 Z M17.5808571,77.9496429 C18.3137143,77.9496429 18.6550714,78.5449286 18.6550714,79.8216429 C18.6550714,81.0970714 18.3137143,81.6942857 17.5808571,81.6942857 L17.5082143,81.6942857 C16.7753571,81.6942857 16.4346429,81.0970714 16.4346429,79.8216429 C16.4346429,78.5449286 16.7753571,77.9496429 17.5082143,77.9496429 L17.5808571,77.9496429 Z M59.2611429,78.4510714 L59.2797857,78.5050714 L60.0158571,80.5840714 L59.9895,80.6097857 L58.5340714,80.6097857 L58.5051429,80.5840714 L58.5102857,80.5712143 L59.2611429,78.4510714 Z M42.7635,78.0222857 C43.3877143,78.0222857 43.6197857,78.2164286 43.6197857,78.7358571 C43.6197857,79.2552857 43.3877143,79.4500714 42.7635,79.4500714 L41.6410714,79.4500714 L41.6172857,79.4256429 L41.6172857,78.0460714 L41.6410714,78.0222857 L42.7635,78.0222857 Z M51.8541429,75.501 L51.0981429,75.501 L50.9162143,75.582 L50.2932857,76.3489286 L50.2932857,76.5565714 L50.4167143,76.6761429 L50.9715,76.6761429 L51.1347857,76.5964286 L51.9737143,75.8352857 L51.9737143,75.6212143 L51.8541429,75.501 Z M29.097,45.3844286 C28.8282857,45.0617143 28.5576429,45.0642857 28.2696429,45.3516429 C27.9829286,45.639 27.8389286,45.9295714 27.8389286,46.3956429 L27.8389286,48.9561429 C27.8389286,49.3720714 28.0793571,50.0605714 28.3596429,50.3961429 C28.3690505,50.4074634 28.3900365,50.4327058 28.4214791,50.4705211 L28.5460551,50.6203368 C29.4938876,51.760163 33.6366063,56.7414094 33.8721429,57.0233571 C34.1331429,57.3370714 34.2623571,57.6970714 34.2623571,58.1046429 L34.2565714,63.0893571 C34.2565714,63.8768571 34.0508571,64.3242857 33.5378571,64.8276429 L33.1527857,65.2127143 C32.5973571,65.7694286 32.1377143,65.9404286 31.4183571,65.9333571 L30.5022857,65.934 C29.817,65.934 29.5926429,66.0426429 29.1458571,66.5402143 C29.0063571,66.6964286 27.765,68.0676429 27.4975714,68.3736429 C27.0070714,68.9361429 27.0173571,69.3636429 27.5078571,69.4973571 C28.0819286,69.6555 28.6482857,69.7017857 29.4788571,69.7017857 L31.3804286,69.7011429 C33.5867143,69.7011429 34.2816429,69.4125 35.7377143,67.9525714 L36.1716429,67.5192857 C37.7318571,65.9558571 38.0179286,65.2602857 38.0179286,63.1947857 L38.0217857,58.4273571 C38.0217857,56.07 37.8745714,55.9234286 36.9295714,54.7900714 C36.9295714,54.7900714 35.1048853,52.5986819 33.2161454,50.3304871 L32.5866082,49.5744782 C32.0292044,48.9050985 31.4833516,48.2496028 30.9948477,47.6629964 L30.6399383,47.2368178 C29.7831251,46.2079604 29.1681818,45.4696364 29.097,45.3844286 Z M14.3421429,39.5382857 L8.68435714,39.5382857 C8.08264286,39.5382857 7.362,40.2319286 7.362,40.8619286 L7.36135714,53.577 C7.36135714,54.063 7.48671429,54.8138571 8.24464286,54.3439286 C8.49085714,54.1909286 8.64385714,54.1157143 9.08292857,53.8611429 C9.783,53.4555 9.792,53.4587143 10.1442857,53.2581429 C10.8257143,52.8717857 11.1220714,52.3626429 11.1220714,51.4793571 L11.1227143,44.2227857 C11.1227143,43.6506429 11.4743571,43.3067143 12.0381429,43.3067143 L14.2347857,43.3067143 C15.021,43.3067143 15.4677857,43.5105 15.9711429,44.0260714 L16.3549286,44.4105 C16.9116429,44.9665714 17.082,45.4275 17.0742857,46.1500714 L17.0742857,49.7102143 C17.0742857,50.3299286 16.7547857,50.7072857 16.3677857,50.931 C16.212277,51.0203728 14.7566989,51.8591113 13.2393898,52.7334884 L12.7596318,53.0099596 C11.1632277,53.9299297 9.64285714,54.8061429 9.64285714,54.8061429 C7.84478571,55.8398571 7.36135714,56.1175714 7.36135714,58.9467857 L7.36135714,68.4829286 C7.36135714,69.0949286 7.85571429,69.696 8.89971429,69.696 L9.58564286,69.696 C10.6296429,69.696 11.1233571,69.0949286 11.1233571,68.4829286 L11.1233571,59.2142143 C11.1233571,58.5945 11.5296429,58.0635 11.9166429,57.8404286 C12.1802143,57.6887143 18.6827143,53.9395714 18.6827143,53.9395714 C20.3329286,52.9907143 20.8362857,51.8380714 20.8362857,49.6716429 L20.8362857,46.1867143 C20.8362857,43.9765714 20.5482857,43.281 19.0902857,41.8210714 L18.6576429,41.3884286 C17.0974286,39.8256429 16.4037857,39.5382857 14.3421429,39.5382857 Z M47.7077143,39.5376429 L42.0499286,39.5376429 C41.4495,39.5376429 40.7262857,40.2312857 40.7262857,40.8612857 L40.7262857,53.1199286 C40.7262857,53.6052857 40.8529286,54.3574286 41.6115,53.8868571 C41.8564286,53.7338571 42.0107143,53.658 42.4491429,53.4034286 C43.1492143,52.9977857 43.1569286,53.0003571 43.5098571,52.8004286 C44.19,52.4127857 44.4876429,51.9049286 44.4876429,51.0216429 L44.4902143,44.2227857 C44.4902143,43.6506429 44.8418571,43.3067143 45.4056429,43.3067143 L47.6016429,43.3067143 C48.3872143,43.3067143 48.8346429,43.5105 49.3367143,44.0260714 L49.7211429,44.4105 C50.2772143,44.9665714 50.4495,45.4275 50.4405,46.1500714 L50.4392143,49.2525 C50.4392143,49.8722143 50.1229286,50.2508571 49.7359286,50.4739286 C49.3990714,50.6661429 43.0084286,54.3484286 43.0084286,54.3484286 C41.2116429,55.3821429 40.7269286,55.6598571 40.7269286,58.4890714 L40.7269286,68.4822857 C40.7269286,69.0942857 41.2232143,69.6953571 42.2665714,69.6953571 L42.9518571,69.6953571 C43.9965,69.6953571 44.4902143,69.0942857 44.4902143,68.4822857 L44.4902143,58.7558571 C44.4902143,58.1367857 44.8952143,57.6057857 45.2835,57.3820714 C45.5457857,57.231 52.0482857,53.4818571 52.0482857,53.4818571 C53.6997857,52.5336429 54.2018571,51.3797143 54.2018571,49.2139286 L54.2018571,46.1860714 C54.2018571,43.9759286 53.9145,43.2803571 52.4565,41.8204286 L52.0232143,41.3877857 C50.4636429,39.825 49.7693571,39.5376429 47.7077143,39.5376429 Z M63.6165,44.4259286 L61.4822143,44.4259286 C60.8856429,44.4259286 60.6683571,44.6419286 60.6683571,45.2404286 L60.6683571,68.4822857 C60.6683571,69.0942857 61.1620714,69.6953571 62.2067143,69.6953571 L62.892,69.6953571 C63.9353571,69.6953571 64.4303571,69.0942857 64.4303571,68.4822857 L64.4303571,45.2404286 C64.4303571,44.6419286 64.2117857,44.4259286 63.6165,44.4259286 Z M52.1627143,55.53 C51.8965714,55.2156429 51.5095714,55.0960714 51.0865714,55.3397143 C50.7336429,55.5422143 49.3669286,56.3277857 49.059,56.5058571 C48.7086429,56.7064286 48.6835714,57.1493571 48.8995714,57.4058571 C49.113,57.6617143 49.6755,58.3335 49.8490714,58.5405 C50.3235,59.1075 50.4366429,59.6063571 50.4366429,60.2601429 L50.4366429,68.4822857 C50.4366429,69.0942857 50.9329286,69.6953571 51.975,69.6953571 L52.6602857,69.6953571 C53.7049286,69.6953571 54.1999286,69.0942857 54.1999286,68.4822857 L54.1982727,60.508548 C54.1911131,58.0916283 54.0671556,57.7966454 52.7387143,56.2152857 C52.4185714,55.8385714 52.4063571,55.8225 52.1627143,55.53 Z M31.2190714,56.8523571 C31.2190714,56.8523571 24.4311429,64.3917857 24.0473571,64.8225 C23.6629286,65.2538571 23.4957857,66.0169286 24.1932857,66.7999286 L24.7172143,67.3868571 C25.4140714,68.1698571 26.2369286,68.1415714 26.6258571,67.7166429 C26.7949565,67.5321708 27.9870373,66.207083 29.2805845,64.7680912 L29.6707712,64.3340032 C31.2363216,62.5921965 32.8152857,60.8342143 32.8152857,60.8342143 C33.0865714,60.5307857 33.1894286,60.1759286 33.1894286,59.7683571 L33.1894286,58.7115 C33.1894286,58.3174286 33.1347857,57.8764286 32.8815,57.5762143 C32.72625,57.3926786 32.6312679,57.2821071 32.5479375,57.1844732 L32.4256038,57.0402221 C32.3836875,56.9903705 32.3386071,56.93625 32.2842857,56.8703571 C31.9545,56.475 31.5687857,56.4608571 31.2190714,56.8523571 Z M31.5250714,39.5382857 L29.4788571,39.5382857 C27.4159286,39.5382857 26.7229286,39.8256429 25.1627143,41.3884286 L24.7300714,41.8210714 C23.2720714,43.2816429 22.9853571,43.9765714 22.9853571,46.1867143 L22.9853571,63.1112143 C22.9853571,63.7656429 23.4636429,63.8678571 23.8281429,63.4442143 C24.075,63.1575 24.2672143,62.9575714 24.7075714,62.4638571 C25.1276143,61.9929 25.2988714,61.8038229 25.444764,61.6432114 L25.5407198,61.5375733 C25.6054543,61.4662514 25.6749857,61.3894286 25.7689286,61.2848571 C26.4497143,60.5295 26.7467143,59.8602857 26.7467143,58.977 L26.7467143,46.1494286 C26.7383571,45.4281429 26.91,44.9672143 27.4654286,44.4111429 L27.8498571,44.0254286 C28.3538571,43.5105 28.8,43.3060714 29.5855714,43.3060714 L31.4202857,43.3067143 C32.2052143,43.3067143 32.6507143,43.5111429 33.1553571,44.0260714 L33.5397857,44.4105 C34.0958571,44.9678571 34.2675,45.4275 34.2591429,46.1500714 L34.259987,48.5026152 C34.2698267,49.5981369 34.3784496,50.0604958 35.2279286,51.057 C35.3220429,51.1670571 35.3922943,51.2505086 35.4579804,51.3294434 L35.5554977,51.4472194 C35.7038743,51.6270857 35.8779857,51.84 36.2976429,52.3375714 C36.8106429,52.9457143 37.0446429,53.235 37.2998571,53.5422857 C37.6785,53.9980714 38.0211429,53.7280714 38.0211429,53.3217857 L38.0211429,46.1867143 C38.0211429,43.9765714 37.7337857,43.281 36.2745,41.8210714 L35.8418571,41.3884286 C34.2816429,39.8256429 33.5873571,39.5382857 31.5250714,39.5382857 Z M68.5819286,39.5382857 L56.5148571,39.5382857 C55.9047857,39.5382857 55.3043571,40.0332857 55.3043571,41.0779286 L55.3043571,41.7657857 C55.3043571,42.8104286 55.9047857,43.3060714 56.5148571,43.3060714 L68.5825714,43.3060714 C69.1939286,43.3060714 69.7924286,42.8104286 69.7924286,41.7657857 L69.7924286,41.0779286 C69.7924286,40.0332857 69.1932857,39.5382857 68.5819286,39.5382857 Z M42.7795714,7.49378571 L42.093,7.49378571 C41.0496429,7.49378571 40.5546429,8.09357143 40.5546429,8.70557143 L40.5546429,31.0037143 C40.5546429,33.2132143 40.8407143,33.9087857 42.2987143,35.3687143 L42.732,35.8026429 C44.2902857,37.3660714 44.9871429,37.6527857 47.0475,37.6527857 L48.6430714,37.6502143 C49.401,37.6502143 49.7327143,37.1796429 49.3534286,36.8260714 L45.3317143,33.0582857 C44.5834286,32.3119286 44.316,31.7314286 44.316,30.6347143 L44.3166429,8.70557143 C44.3166429,8.09357143 43.8229286,7.49378571 42.7795714,7.49378571 Z M66.519,23.8255714 C66.2650714,23.5729286 65.8909286,23.5902857 65.655,23.8255714 C65.6214857,23.8594286 65.5700743,23.9111371 65.505453,23.976016 L65.2766465,24.2054823 C65.1471156,24.3352897 64.9984088,24.4841977 64.8463453,24.6364074 L64.0202413,25.4628954 C63.9521,25.5310429 63.8965286,25.5866143 63.8582143,25.6249286 C63.6107143,25.8737143 63.6235714,26.2542857 63.8582143,26.4902143 L64.4725126,27.1047686 C64.5081253,27.1404279 64.5436607,27.1760123 64.5786964,27.2110982 L64.779534,27.4122434 C64.9049213,27.5378341 65.008793,27.6418941 65.0641088,27.6973129 L65.1072857,27.7405714 C65.4428571,28.0742143 65.6826429,28.5910714 65.6826429,29.1310714 L65.6826429,36.4384286 C65.6826429,37.0510714 66.1789286,37.6515 67.221,37.6515 L67.9075714,37.6515 C68.9509286,37.6515 69.4433571,37.0510714 69.4433571,36.4384286 L69.4433571,29.1291429 C69.4433571,27.2108571 69.2665714,26.5763571 67.6992857,25.0077857 L67.6603037,24.9687736 C67.6352938,24.9437436 67.5992461,24.9076657 67.5550949,24.8634743 L67.117868,24.4257578 C67.0183738,24.326128 66.9171521,24.224748 66.824106,24.1315212 Z M19.296,7.4937852 L18.6107143,7.4937852 C17.5667143,7.4937852 17.0723571,8.09421429 17.0723571,8.70557143 L17.0723571,28.2953571 C17.0723571,29.0738571 16.92,29.8459286 16.4892857,30.4534286 C16.4892857,30.4534286 12.5029286,36.1542857 12.2708571,36.4872857 C11.8157143,37.1385 11.9115,37.6502143 12.7600714,37.6502143 L13.9491258,37.6509139 C14.0068183,37.6509516 14.0638324,37.650989 14.1194362,37.6510256 L14.9747076,37.651403 C15.9088017,37.6492567 16.0909592,37.600102 16.8672857,36.4821429 C17.1678857,36.0501429 19.3176057,32.9766229 19.602899,32.5687402 L19.6341429,32.5240714 C20.5637143,31.194 20.8337143,30.0953571 20.8337143,27.4660714 L20.8337143,8.70557143 C20.8337143,8.09357143 20.3393571,7.49314286 19.296,7.4937852 Z M67.9082143,7.49378571 L67.2216429,7.49378571 C66.1789286,7.49378571 65.6832857,8.09421429 65.6832857,8.70557143 L65.6832857,16.1132143 C65.6832857,16.5992143 65.3792143,17.2324286 65.1079286,17.5037143 L57.6160714,25.0090714 C56.1593571,26.4683571 55.8707143,27.0687857 55.8707143,29.1310714 L55.8707143,36.4377857 C55.8707143,37.0504286 56.367,37.6502143 57.4090714,37.6502143 L58.0943571,37.6502143 C59.139,37.6502143 59.6327143,37.0504286 59.6327143,36.4377857 L59.6327143,29.1323571 C59.6327143,28.647 59.9361429,28.0131429 60.2087143,27.7418571 L67.6999286,20.2377857 C69.1579286,18.7785 69.444,18.1755 69.444,16.1138571 L69.444,8.70557143 C69.444,8.09421429 68.9515714,7.49378571 67.9082143,7.49378571 Z M25.2604286,7.49378571 L24.5738571,7.49378571 C23.5305,7.49378571 23.0361429,8.09357143 23.0361429,8.70557143 L23.0361429,36.4371429 C23.0361429,37.0497857 23.5305,37.6508571 24.5738571,37.6508571 L25.2604286,37.6508571 C26.3031429,37.6508571 26.7975,37.0497857 26.7975,36.4371429 L26.7975,8.70557143 C26.7975,8.09357143 26.3025,7.49378571 25.2604286,7.49378571 Z M37.6090714,19.1031429 C36.8093571,19.1031429 36.5329286,19.1796429 35.8682143,19.6103571 C35.8682143,19.6103571 34.8736414,20.1827836 33.7863821,20.8083791 L33.2070714,21.1416905 C32.5647857,21.5112143 31.9455,21.8674286 31.5327857,22.1046429 C29.3483571,23.3607857 28.8996429,24.0165 28.8996429,26.8547143 L28.899,31.0011429 C28.899,33.2106429 29.1857143,33.9062143 30.6437143,35.3661429 L31.077,35.8000714 C32.6359286,37.3622143 33.3315,37.6502143 35.3931429,37.6502143 L37.8173571,37.6502143 C38.4287143,37.6502143 39.0285,37.1545714 39.0285,36.1099286 L39.0285,35.4220714 C39.0285,34.3774286 38.4287143,33.8817857 37.8173571,33.8817857 L35.4992143,33.8811429 C34.7136429,33.8811429 34.2681429,33.6767143 33.7635,33.1611429 L33.3803571,32.7767143 C32.8236429,32.2206429 32.652,31.7590714 32.6603571,31.0384286 L32.661,26.8084286 C32.661,26.1417857 32.904,25.6525714 33.7191429,25.1813571 C33.8959286,25.0785 37.1886429,23.184 37.3448571,23.0959286 C38.1214286,22.6536429 38.403,21.9317143 38.403,21.3672857 L38.403,20.1844286 C38.403,19.4895 38.3290714,19.1031429 37.6090714,19.1031429 Z M52.0817143,7.49378571 L51.3964286,7.49378571 C50.3524286,7.49378571 49.8567857,8.09421429 49.8567857,8.70557143 L49.8567857,31.4974286 C49.8567857,32.1602143 49.5977143,32.5607143 49.1136429,33.0081429 C49.1136429,33.0081429 48.8237143,33.2794286 48.6038571,33.4845 C48.2149286,33.8483571 48.1615714,34.1826429 48.6038571,34.596 C48.9008571,34.8737143 49.9120714,35.8180714 50.1717857,36.0610714 C50.5401429,36.4062857 51.0293571,36.3702857 51.3610714,36.0610714 C51.6587143,35.7827143 52.0540714,35.4137143 52.0540714,35.4137143 C53.5673571,34.0013571 53.6200714,33.3951429 53.6200714,30.7645714 L53.6200714,8.70557143 C53.6200714,8.09421429 53.1263571,7.49378571 52.0817143,7.49378571 Z M9.58564286,7.49378571 L8.89971429,7.49378571 C7.85571429,7.49378571 7.36135714,8.09421429 7.36135714,8.70557143 L7.36135714,27.4660714 C7.36135714,30.0953571 7.63135714,31.1933571 8.56157143,32.5240714 C8.56157143,32.5240714 10.4194286,35.1803571 10.6527857,35.5133571 C10.8777857,35.8347857 11.3412857,35.8527857 11.5868571,35.5133571 C11.8227857,35.1861429 12.7575,33.8380714 12.9484286,33.5648571 C13.3354286,33.012 13.3219286,32.7844286 12.9484286,32.2296429 C12.7292143,31.905 11.7951429,30.5781429 11.7070714,30.4540714 C11.2757143,29.8465714 11.1233571,29.0745 11.1233571,28.296 L11.1233571,8.70557143 C11.1233571,8.09421429 10.6296429,7.49378571 9.58564286,7.49378571 Z M37.8173571,7.4925 L35.3931429,7.4925 C33.3315,7.4925 32.6359286,7.7805 31.077,9.34264286 L30.6437143,9.77592857 C29.1857143,11.2358571 28.899,11.9307857 28.899,14.1409286 L28.8996429,21.0182143 C28.8996429,21.6726429 29.2429286,22.1271429 29.6067857,21.915 C29.853,21.7722857 30.1821429,21.5858571 30.6225,21.3312857 C31.3219286,20.9256429 31.3302857,20.9282143 31.6832143,20.7282857 C32.364,20.3412857 32.661,19.8327857 32.661,18.9488571 L32.6603571,14.103 C32.652,13.3823571 32.8236429,12.9214286 33.3803571,12.3653571 L33.7635,11.9802857 C34.2681429,11.466 34.7136429,11.2602857 35.4992143,11.2602857 L37.8173571,11.2602857 C38.4287143,11.2602857 39.0285,10.7652857 39.0285,9.72 L39.0285,9.03278571 C39.0285,7.9875 38.4287143,7.4925 37.8173571,7.4925 Z M58.0943571,7.49378571 L57.4090714,7.49378571 C56.3663571,7.49378571 55.8707143,8.09357143 55.8707143,8.70557143 L55.8700714,16.1151429 C55.8700714,18.0334286 56.0481429,18.6698571 57.6154286,20.2390714 L57.7608248,20.3843973 C57.9388761,20.5623884 58.247548,20.8710402 58.4971172,21.1210313 L58.6702479,21.2945675 C58.7222879,21.3467746 58.7676696,21.3923571 58.8034286,21.4283571 C59.0560714,21.681 59.4315,21.663 59.6661429,21.4283571 C59.7171857,21.3775714 59.8082914,21.28662 59.9236817,21.1712966 L60.4773602,20.6174558 C60.7308583,20.3637263 60.9933754,20.100792 61.191864,19.901772 L61.4642143,19.6283571 C61.7117143,19.3802143 61.6988571,18.999 61.4642143,18.7643571 C61.3682679,18.6684107 61.1677266,18.4674174 60.954529,18.2536549 L60.7405179,18.0390536 C60.7052812,18.0037165 60.6705444,17.9688792 60.6367328,17.9349688 L60.3689062,17.6663371 C60.271192,17.5683214 60.2087143,17.5056429 60.2087143,17.5056429 C59.8750714,17.1713571 59.6327143,16.6551429 59.6327143,16.1151429 L59.6327143,8.70557143 C59.6327143,8.09357143 59.139,7.49378571 58.0943571,7.49378571 Z" id="Combined-Shape"></path>
            </g>
        </g>
    </g>
</svg>