<svg xmlns="http://www.w3.org/2000/svg" width="220.633" height="27.463" viewBox="0 0 220.633 27.463">
  <g id="Symbols" transform="translate(-2 -1)">
    <g id="Logo_Normal" data-name="Logo/Normal" transform="translate(2 1)">
      <g id="Mask">
        <path id="Tracé_40" data-name="Tracé 40" d="M4.819,7.549C4.819,5.621,6.8,4.23,9.973,4.23c3.457,0,4.929,2.254,4.929,3.45l4.559.031C19.46,3.779,15.978,0,10.04,0,3.979,0,.286,3.484.286,7.632c0,10.015,15.5,5.941,15.5,12.286,0,1.537-1.566,3.428-5.389,3.428C7,23.345,4.559,21.494,4.559,19.7L0,19.729c0,2.3,2.169,7.734,10.392,7.734,6.34,0,9.938-3.6,9.938-7.477C20.331,9.1,4.819,13.263,4.819,7.549ZM39.73,11.435,28.066,11.4V.766L23.534.7V26.744l4.532-.066V15.55l11.664-.026V26.508l4.609-.069V1.006L39.73.936Zm28.209,4.222a11.488,11.488,0,0,1-.335,1.69,8.687,8.687,0,0,1-.545,1.451,6.915,6.915,0,0,1-.748,1.209,6.093,6.093,0,0,1-1.088,1.083,6.3,6.3,0,0,1-1.348.787,7.674,7.674,0,0,1-1.6.486,10.434,10.434,0,0,1-1.855.177h-.125a10.4,10.4,0,0,1-1.748-.141,7.88,7.88,0,0,1-1.632-.459,6.426,6.426,0,0,1-1.382-.769A6.02,6.02,0,0,1,54.412,20.1a6.825,6.825,0,0,1-.774-1.211,8.56,8.56,0,0,1-.567-1.463,11.39,11.39,0,0,1-.348-1.719,16.6,16.6,0,0,1,0-3.952,11.5,11.5,0,0,1,.347-1.724,8.614,8.614,0,0,1,.567-1.471,6.77,6.77,0,0,1,.775-1.215,6.031,6.031,0,0,1,1.119-1.075,6.357,6.357,0,0,1,1.379-.766,7.794,7.794,0,0,1,1.631-.454,10.87,10.87,0,0,1,1.875-.138,10.427,10.427,0,0,1,1.856.177,7.751,7.751,0,0,1,1.608.486,6.311,6.311,0,0,1,1.35.786,5.966,5.966,0,0,1,1.083,1.079,6.9,6.9,0,0,1,.746,1.208A8.682,8.682,0,0,1,67.6,10.1a11.524,11.524,0,0,1,.334,1.693,16.481,16.481,0,0,1,0,3.863Zm3.9-6.932a12.4,12.4,0,0,0-.831-2.053,10.921,10.921,0,0,0-1.134-1.763,10.289,10.289,0,0,0-1.764-1.748,10.625,10.625,0,0,0-2.159-1.289,12.339,12.339,0,0,0-2.539-.809,15.577,15.577,0,0,0-2.9-.306l-.267,0a15.574,15.574,0,0,0-2.654.22A12.41,12.41,0,0,0,55,1.712a10.61,10.61,0,0,0-2.229,1.244,10.236,10.236,0,0,0-1.839,1.738,10.74,10.74,0,0,0-1.2,1.783,12.259,12.259,0,0,0-.879,2.1,15.144,15.144,0,0,0-.541,2.417,20.406,20.406,0,0,0,0,5.467,15.2,15.2,0,0,0,.54,2.414,12.334,12.334,0,0,0,.876,2.1,10.869,10.869,0,0,0,1.191,1.783,10.234,10.234,0,0,0,1.836,1.737,10.611,10.611,0,0,0,2.229,1.247,12.36,12.36,0,0,0,2.594.741,15.835,15.835,0,0,0,2.93.219,15.619,15.619,0,0,0,2.892-.3,12.348,12.348,0,0,0,2.536-.806A10.619,10.619,0,0,0,68.1,24.3a10.246,10.246,0,0,0,1.766-1.746,10.808,10.808,0,0,0,1.141-1.763,12.328,12.328,0,0,0,.833-2.056,15.17,15.17,0,0,0,.511-2.354,20.278,20.278,0,0,0,0-5.309,15.211,15.211,0,0,0-.511-2.35Zm22.7,11.589-3.053-7.177L96.382,1.732l-3.841.035L89.583,8.661,86.625,1.767l-3.841-.035,4.894,11.405-3.054,7.177L77.771,1.488,72.86,1.417l9.486,24.412,3.738-.055,3.5-8.19,3.5,8.19,3.739.055,9.485-24.411-4.911.071L94.541,20.314ZM120.369,22.1l-6.461-.062V15.473l6.707.015a3.372,3.372,0,0,1,3.3,3.3,3.253,3.253,0,0,1-3.542,3.311ZM113.908,5.427l5.857-.064a2.992,2.992,0,0,1,3.2,3.053c0,1.589-.883,3.18-2.8,3.18l-6.254.016V5.427Zm11.512,7.811a6.145,6.145,0,0,0,2.279-5.05c0-2.372-1.215-6.945-7.448-6.945L109.337,1.4V26.023l11.337.165c7.8,0,8-6,8-7.158a6.564,6.564,0,0,0-3.258-5.792ZM132.4,26.369l4.533.064V1L132.4,1.07v25.3Zm27.909-22.04V.667L141.328.945V5.013l13.12-.128L141.225,22.866V26.49l19.3.283V22.579l-13.572-.128L160.306,4.328Zm23.93-.347V.32L164.307.613V4.678l14.058-.138L164.194,23.2V26.82l20.276.3v-4.2l-14.539-.142,14.3-18.8Zm1.069,7.772a1.831,1.831,0,1,0,1.3.536,1.813,1.813,0,0,0-1.3-.536Zm12.19,3.186-4.806-6.779h-1.914V19.09h2.264V12.326l4.791,6.765h1.913V8.162h-2.25v6.779Zm7.554-.482h4.12V12.515h-4.12V10.148H209.8V8.161h-7.011V19.09h7.026v-2h-4.762v-2.63Zm6.8-6.3v1.987h3.272V19.09h2.25V10.148h3.258V8.162h-8.78Z" fill="#fff"/>
        <path id="Tracé_41" data-name="Tracé 41" d="M4.819,7.549C4.819,5.621,6.8,4.23,9.973,4.23c3.457,0,4.929,2.254,4.929,3.45l4.559.031C19.46,3.779,15.978,0,10.04,0,3.979,0,.286,3.484.286,7.632c0,10.015,15.5,5.941,15.5,12.286,0,1.537-1.566,3.428-5.389,3.428C7,23.345,4.559,21.494,4.559,19.7L0,19.729c0,2.3,2.169,7.734,10.392,7.734,6.34,0,9.938-3.6,9.938-7.477C20.331,9.1,4.819,13.263,4.819,7.549ZM39.73,11.435,28.066,11.4V.766L23.534.7V26.744l4.532-.066V15.55l11.664-.026V26.508l4.609-.069V1.006L39.73.936Zm28.209,4.222a11.488,11.488,0,0,1-.335,1.69,8.687,8.687,0,0,1-.545,1.451,6.915,6.915,0,0,1-.748,1.209,6.093,6.093,0,0,1-1.088,1.083,6.3,6.3,0,0,1-1.348.787,7.674,7.674,0,0,1-1.6.486,10.434,10.434,0,0,1-1.855.177h-.125a10.4,10.4,0,0,1-1.748-.141,7.88,7.88,0,0,1-1.632-.459,6.426,6.426,0,0,1-1.382-.769A6.02,6.02,0,0,1,54.412,20.1a6.825,6.825,0,0,1-.774-1.211,8.56,8.56,0,0,1-.567-1.463,11.39,11.39,0,0,1-.348-1.719,16.6,16.6,0,0,1,0-3.952,11.5,11.5,0,0,1,.347-1.724,8.614,8.614,0,0,1,.567-1.471,6.77,6.77,0,0,1,.775-1.215,6.031,6.031,0,0,1,1.119-1.075,6.357,6.357,0,0,1,1.379-.766,7.794,7.794,0,0,1,1.631-.454,10.87,10.87,0,0,1,1.875-.138,10.427,10.427,0,0,1,1.856.177,7.751,7.751,0,0,1,1.608.486,6.311,6.311,0,0,1,1.35.786,5.966,5.966,0,0,1,1.083,1.079,6.9,6.9,0,0,1,.746,1.208A8.682,8.682,0,0,1,67.6,10.1a11.524,11.524,0,0,1,.334,1.693,16.481,16.481,0,0,1,0,3.863Zm3.9-6.932a12.4,12.4,0,0,0-.831-2.053,10.921,10.921,0,0,0-1.134-1.763,10.289,10.289,0,0,0-1.764-1.748,10.625,10.625,0,0,0-2.159-1.289,12.339,12.339,0,0,0-2.539-.809,15.577,15.577,0,0,0-2.9-.306l-.267,0a15.574,15.574,0,0,0-2.654.22A12.41,12.41,0,0,0,55,1.712a10.61,10.61,0,0,0-2.229,1.244,10.236,10.236,0,0,0-1.839,1.738,10.74,10.74,0,0,0-1.2,1.783,12.259,12.259,0,0,0-.879,2.1,15.144,15.144,0,0,0-.541,2.417,20.406,20.406,0,0,0,0,5.467,15.2,15.2,0,0,0,.54,2.414,12.334,12.334,0,0,0,.876,2.1,10.869,10.869,0,0,0,1.191,1.783,10.234,10.234,0,0,0,1.836,1.737,10.611,10.611,0,0,0,2.229,1.247,12.36,12.36,0,0,0,2.594.741,15.835,15.835,0,0,0,2.93.219,15.619,15.619,0,0,0,2.892-.3,12.348,12.348,0,0,0,2.536-.806A10.619,10.619,0,0,0,68.1,24.3a10.246,10.246,0,0,0,1.766-1.746,10.808,10.808,0,0,0,1.141-1.763,12.328,12.328,0,0,0,.833-2.056,15.17,15.17,0,0,0,.511-2.354,20.278,20.278,0,0,0,0-5.309,15.211,15.211,0,0,0-.511-2.35Zm22.7,11.589-3.053-7.177L96.382,1.732l-3.841.035L89.583,8.661,86.625,1.767l-3.841-.035,4.894,11.405-3.054,7.177L77.771,1.488,72.86,1.417l9.486,24.412,3.738-.055,3.5-8.19,3.5,8.19,3.739.055,9.485-24.411-4.911.071L94.541,20.314ZM120.369,22.1l-6.461-.062V15.473l6.707.015a3.372,3.372,0,0,1,3.3,3.3,3.253,3.253,0,0,1-3.542,3.311ZM113.908,5.427l5.857-.064a2.992,2.992,0,0,1,3.2,3.053c0,1.589-.883,3.18-2.8,3.18l-6.254.016V5.427Zm11.512,7.811a6.145,6.145,0,0,0,2.279-5.05c0-2.372-1.215-6.945-7.448-6.945L109.337,1.4V26.023l11.337.165c7.8,0,8-6,8-7.158a6.564,6.564,0,0,0-3.258-5.792ZM132.4,26.369l4.533.064V1L132.4,1.07v25.3Zm27.909-22.04V.667L141.328.945V5.013l13.12-.128L141.225,22.866V26.49l19.3.283V22.579l-13.572-.128L160.306,4.328Zm23.93-.347V.32L164.307.613V4.678l14.058-.138L164.194,23.2V26.82l20.276.3v-4.2l-14.539-.142,14.3-18.8Zm1.069,7.772a1.831,1.831,0,1,0,1.3.536,1.813,1.813,0,0,0-1.3-.536Zm12.19,3.186-4.806-6.779h-1.914V19.09h2.264V12.326l4.791,6.765h1.913V8.162h-2.25v6.779Zm7.554-.482h4.12V12.515h-4.12V10.148H209.8V8.161h-7.011V19.09h7.026v-2h-4.762v-2.63Zm6.8-6.3v1.987h3.272V19.09h2.25V10.148h3.258V8.162h-8.78Z" fill="#fff"/>
      </g>
    </g>
  </g>
</svg>
