<svg width="109" height="83" xmlns="http://www.w3.org/2000/svg"><defs><linearGradient x1="38.713%" y1="52.243%" x2="63.378%" y2="47.802%" id="a"><stop stop-color="#FFF" offset="0%"/><stop stop-color="#FFF" offset="100%"/></linearGradient><linearGradient x1=".005%" y1="50.002%" x2="99.998%" y2="50.002%" id="b"><stop stop-color="#FFF" offset="0%"/><stop stop-color="#FFF" offset="100%"/></linearGradient></defs><g fill="none"><path d="M19.618 36.815c1.534 0 2.685.461 3.72 1.384.134.111.134.296.02.425l-1.209 1.2a.263.263 0 0 1-.383 0 3.172 3.172 0 0 0-2.071-.757c-1.746 0-3.03 1.404-3.03 3.065a2.999 2.999 0 0 0 3.03 3.01c.728 0 1.515-.258 2.07-.72.116-.092.308-.092.403.019l1.209 1.237c.115.11.095.295-.02.406-1.054.979-2.378 1.44-3.74 1.44-3.087 0-5.56-2.363-5.56-5.336 0-2.973 2.492-5.373 5.56-5.373zm5.6.443c0-.148.115-.277.287-.277h3.72c1.9 0 3.453 1.477 3.453 3.286 0 1.847-1.554 3.343-3.433 3.343h-1.611v3.471a.29.29 0 0 1-.288.277h-1.822a.277.277 0 0 1-.287-.277v-9.823h-.02zm3.873 4.173c.672 0 1.209-.499 1.209-1.164 0-.627-.557-1.089-1.209-1.089h-1.457v2.271h1.457v-.018zm5.14-4.34c0-.147.134-.258.288-.258h.383l6.156 5.706h.02v-5.263c0-.148.114-.277.287-.277h1.84c.154 0 .289.13.289.277v9.99c0 .147-.135.258-.288.258h-.25c-.038 0-.172-.037-.191-.074l-6.08-5.908h-.019v5.539a.277.277 0 0 1-.287.277h-1.841c-.154 0-.288-.13-.288-.277l-.02-9.99zm11.314 8.864l.73-1.237c.114-.185.421-.167.517-.093.058.037 1.17.813 2.186.813.614 0 1.055-.37 1.055-.887 0-.627-.537-1.09-1.592-1.495-1.323-.499-2.991-1.496-2.991-3.287 0-1.477 1.189-2.954 3.567-2.954 1.61 0 2.838.794 3.298 1.107.192.111.153.37.096.48l-.786 1.145c-.115.167-.384.296-.518.185-.134-.074-1.266-.886-2.206-.886-.556 0-.978.35-.978.757 0 .554.46.96 1.688 1.44 1.208.462 3.107 1.366 3.107 3.38 0 1.532-1.381 3.064-3.644 3.064-1.994 0-3.107-.794-3.471-1.145-.134-.129-.173-.184-.058-.387zm8.438 0l.73-1.237c.114-.185.421-.167.517-.093.058.037 1.17.813 2.186.813.614 0 1.055-.37 1.055-.887 0-.627-.537-1.09-1.592-1.495-1.323-.499-2.991-1.496-2.991-3.287 0-1.477 1.189-2.954 3.567-2.954 1.61 0 2.838.794 3.298 1.107.192.111.153.37.096.48l-.786 1.145c-.115.167-.384.296-.518.185-.134-.074-1.266-.886-2.206-.886-.556 0-.978.35-.978.757 0 .554.46.96 1.688 1.44 1.208.462 3.107 1.366 3.107 3.38 0 1.532-1.381 3.064-3.644 3.064-1.994 0-3.107-.794-3.471-1.145-.134-.129-.173-.184-.058-.387zm8.458 0l.728-1.237c.115-.185.422-.167.518-.093.058.037 1.17.813 2.186.813.614 0 1.055-.37 1.055-.887 0-.627-.537-1.09-1.592-1.495-1.323-.499-2.991-1.496-2.991-3.287 0-1.477 1.189-2.954 3.567-2.954 1.61 0 2.838.794 3.298 1.107.192.111.154.37.096.48l-.786 1.145c-.115.167-.384.296-.518.185-.134-.074-1.266-.886-2.205-.886-.557 0-.978.35-.978.757 0 .554.46.96 1.687 1.44 1.208.462 3.107 1.366 3.107 3.38 0 1.532-1.38 3.064-3.644 3.064-1.994 0-3.106-.794-3.47-1.145-.135-.129-.193-.184-.058-.387z" fill="url(#a)"/><g fill="#FFF"><path d="M37.002 51.281v.538a1.729 1.729 0 0 0-.44-.186 1.818 1.818 0 0 0-.496-.055c-.363 0-.669.13-.917.371-.248.242-.363.558-.363.967 0 .41.115.744.363.986.248.241.573.372.974.372.363 0 .65-.093.898-.26v.557c-.23.149-.535.223-.936.223-.554 0-1.012-.167-1.356-.502-.344-.335-.535-.78-.535-1.339 0-.539.172-.985.535-1.32.344-.334.802-.52 1.337-.52.382-.037.707.037.936.167zm1.757 3.495c-.401 0-.726-.13-.974-.39-.23-.261-.344-.596-.344-.986 0-.41.115-.744.363-1.004s.554-.41.955-.41c.42 0 .745.13.974.391.23.26.344.595.344 1.004 0 .41-.115.744-.363 1.004-.21.26-.535.39-.955.39zm0-2.343c-.23 0-.42.093-.554.279-.134.186-.19.409-.19.688 0 .26.075.483.21.669a.653.653 0 0 0 .553.279c.248 0 .44-.093.573-.26.134-.186.191-.41.191-.67 0-.279-.057-.52-.19-.688-.135-.204-.326-.297-.593-.297zm2.445-.41v.428c.153-.316.42-.464.783-.464.42 0 .687.167.802.52a.867.867 0 0 1 .344-.39.9.9 0 0 1 .496-.13c.287 0 .497.074.65.241.153.168.229.39.229.67v1.822h-.535v-1.71c0-.391-.153-.577-.477-.577-.153 0-.306.074-.44.204-.133.13-.19.335-.19.614v1.469h-.535v-1.71c0-.391-.172-.577-.497-.577a.569.569 0 0 0-.42.204c-.134.13-.191.335-.191.614v1.469h-.535v-2.715h.516v.019zm4.077-.594c-.086-.056-.143-.149-.143-.223 0-.093.057-.168.143-.242a.697.697 0 0 1 .344-.093c.143 0 .257.037.371.093a.3.3 0 0 1 .143.242c0 .093-.057.167-.143.223a.727.727 0 0 1-.714 0zm-.028 3.29v-2.713h.8v2.715h-.8zm1.948-2.286v1.487c0 .26.134.39.382.39a.658.658 0 0 0 .382-.11v.464a1.019 1.019 0 0 1-.44.093c-.572 0-.859-.279-.859-.855v-1.488h-.439v-.409h.44v-.67h.534v.67h.726v.41h-.726v.018zm3.4 1.673v.465c-.21.112-.478.167-.802.167-.44 0-.783-.13-1.032-.371a1.357 1.357 0 0 1-.382-.986c0-.428.115-.78.344-1.023.23-.241.535-.371.898-.371s.63.111.84.316c.21.223.306.52.306.93 0 .11-.02.222-.038.353h-1.834a.779.779 0 0 0 .306.539c.171.13.382.186.63.186.325 0 .573-.056.764-.205zm-.344-.93v-.092c0-.205-.057-.372-.172-.484a.61.61 0 0 0-.458-.186.643.643 0 0 0-.478.186c-.133.13-.21.316-.248.558h1.356v.019zm.344-2.285l-.65.855h-.458l.516-.855h.592zm2.636 1.134v.409c.19-.298.477-.446.86-.446.362 0 .649.13.859.39.21.26.324.595.324.985 0 .41-.114.744-.324 1.005-.21.26-.516.39-.86.39-.363 0-.65-.149-.84-.446v1.45h-.535v-3.738h.516zm.745 2.287c.21 0 .4-.075.534-.242.134-.167.21-.39.21-.688 0-.279-.076-.502-.21-.67a.622.622 0 0 0-.515-.241.732.732 0 0 0-.535.223c-.153.149-.23.39-.23.707 0 .316.077.539.23.706.153.13.325.205.516.205zm1.929-1.636v-.502c.21-.13.496-.186.86-.186.725 0 1.088.334 1.088 1.022v1.71h-.535v-.315c-.134.223-.401.334-.745.334-.267 0-.477-.074-.63-.223a.746.746 0 0 1-.23-.558c0-.26.096-.464.306-.613.21-.149.478-.223.84-.223h.459v-.151c0-.186-.038-.316-.134-.428-.095-.093-.248-.148-.458-.148-.306.037-.573.111-.821.279zm1.394.855h-.42c-.21 0-.363.037-.459.111a.385.385 0 0 0-.152.298c0 .13.038.223.114.297.077.075.191.112.344.112a.64.64 0 0 0 .42-.149.512.512 0 0 0 .153-.372v-.297zm1.948-1.097v1.487c0 .26.134.39.382.39a.658.658 0 0 0 .382-.11v.464a1.019 1.019 0 0 1-.44.093c-.572 0-.859-.279-.859-.855v-1.489h-.439v-.409h.44v-.67h.534v.67h.726v.41h-.726v.018zm1.872-.41v.484c.134-.334.382-.502.726-.502.057 0 .114 0 .172.019v.52a.601.601 0 0 0-.249-.055.522.522 0 0 0-.458.241.982.982 0 0 0-.172.577v1.431h-.535v-2.715h.516zm2.445 2.753c-.401 0-.726-.13-.974-.39-.23-.261-.344-.596-.344-.986 0-.41.114-.744.363-1.004.248-.26.554-.41.955-.41.42 0 .745.13.974.391.229.26.344.595.344 1.004 0 .41-.115.744-.363 1.004-.21.26-.535.39-.955.39zm0-2.343c-.23 0-.42.093-.554.279-.134.186-.191.409-.191.688 0 .26.076.483.21.669a.653.653 0 0 0 .554.279c.248 0 .44-.093.573-.26.133-.186.19-.41.19-.67 0-.279-.057-.52-.19-.688-.134-.204-.325-.297-.592-.297zm2.444-.41v.466c.172-.335.459-.502.86-.502.267 0 .497.074.65.241a.97.97 0 0 1 .248.67v1.822h-.535v-1.71c0-.187-.057-.335-.153-.428a.541.541 0 0 0-.382-.15c-.191 0-.344.075-.497.224-.133.149-.21.353-.21.614v1.468h-.534v-2.715h.553zm2.522.652v-.502c.21-.13.496-.186.86-.186.725 0 1.088.334 1.088 1.022v1.71h-.535v-.315c-.134.223-.401.334-.745.334-.267 0-.477-.074-.63-.223a.746.746 0 0 1-.23-.558c0-.26.096-.464.306-.613.21-.149.478-.223.84-.223h.459v-.151c0-.186-.038-.316-.134-.428-.095-.093-.248-.148-.458-.148-.306.037-.573.111-.821.279zm1.394.855h-.42c-.21 0-.363.037-.459.111a.385.385 0 0 0-.152.298c0 .13.038.223.114.297.077.075.191.112.344.112a.64.64 0 0 0 .42-.149.512.512 0 0 0 .153-.372v-.297zm1.26 1.189v-3.775h.535v3.775zm4.508-3.756h.535v3.774h-.535v-.409c-.19.298-.477.447-.84.447s-.65-.13-.86-.41a1.52 1.52 0 0 1-.325-.966c0-.428.115-.763.344-1.023a1.1 1.1 0 0 1 .86-.39c.363 0 .65.148.84.446v-1.469h-.019zm-.763 3.347c.21 0 .382-.075.535-.242.153-.149.21-.39.21-.707 0-.316-.076-.539-.23-.687a.722.722 0 0 0-.515-.224.659.659 0 0 0-.535.242c-.133.167-.21.41-.21.707a.99.99 0 0 0 .21.65c.153.168.325.26.535.26zm4.107-.205v.465c-.21.112-.478.167-.803.167-.439 0-.783-.13-1.031-.371a1.357 1.357 0 0 1-.382-.986c0-.428.115-.78.344-1.023.229-.241.535-.371.897-.371.363 0 .63.111.84.316.21.223.306.52.306.93 0 .11-.019.222-.038.353h-1.833c.038.241.133.409.305.539.172.13.382.186.63.186.325 0 .554-.056.765-.205zm-.344-.93v-.092c0-.205-.058-.372-.172-.484a.61.61 0 0 0-.459-.186.643.643 0 0 0-.477.186c-.134.13-.21.316-.248.558h1.356v.019zm2.98-1.152v.465c.171-.335.458-.502.859-.502.267 0 .496.074.65.241.152.168.247.39.247.67v1.822H82.9v-1.71c0-.187-.058-.335-.153-.428a.541.541 0 0 0-.382-.15c-.191 0-.344.075-.497.224-.133.149-.21.353-.21.614v1.468h-.535v-2.714h.554zm4.526 2.082v.465c-.21.112-.478.167-.802.167-.44 0-.783-.13-1.032-.371a1.357 1.357 0 0 1-.382-.986c0-.428.115-.78.344-1.023.23-.241.535-.371.898-.371s.63.111.84.316c.21.223.306.52.306.93 0 .11-.02.222-.038.353h-1.834a.779.779 0 0 0 .306.539c.172.13.382.186.63.186.325 0 .573-.056.764-.205zm-.344-.93v-.092c0-.205-.057-.372-.172-.484a.61.61 0 0 0-.458-.186.643.643 0 0 0-.478.186c-.133.13-.21.316-.248.558h1.356v.019zm.343-2.285l-.65.855h-.458l.516-.855h.592zm2.578 1.134h.535v2.473c0 .409-.114.725-.363.948-.248.204-.554.316-.936.316-.362 0-.668-.056-.897-.167v-.52c.229.148.515.222.84.222.554 0 .821-.26.821-.78v-.298c-.171.297-.439.446-.802.446-.305 0-.592-.112-.802-.335-.23-.223-.344-.539-.344-.967 0-.39.096-.725.306-.985s.477-.39.821-.39c.363 0 .63.148.802.464v-.427h.02zm-.706 2.174a.65.65 0 0 0 .496-.223c.134-.149.21-.353.21-.614 0-.316-.057-.557-.19-.706a.612.612 0 0 0-.478-.223.622.622 0 0 0-.516.242c-.133.167-.19.39-.19.65 0 .28.057.502.19.632a.577.577 0 0 0 .478.242zm3.113.577c-.401 0-.726-.13-.974-.39-.23-.261-.344-.596-.344-.986 0-.41.115-.744.363-1.004s.554-.41.955-.41c.42 0 .745.13.974.391.23.26.344.595.344 1.004 0 .41-.115.744-.363 1.004-.23.26-.554.39-.955.39zm-.02-2.343a.651.651 0 0 0-.553.279c-.134.186-.191.409-.191.688 0 .26.076.483.21.669a.653.653 0 0 0 .554.279c.248 0 .44-.093.573-.26.134-.186.191-.41.191-.67 0-.279-.057-.52-.191-.688-.134-.204-.325-.297-.592-.297zm2.312.948c0 .279.096.502.248.67a.95.95 0 0 0 .688.26c.21 0 .42-.056.611-.168v.465c-.172.112-.401.168-.687.168-.44 0-.784-.13-1.051-.41-.267-.26-.382-.594-.382-1.004 0-.39.134-.725.401-1.004.268-.278.611-.409 1.07-.409.248 0 .458.056.668.15v.483a1.113 1.113 0 0 0-.611-.168.95.95 0 0 0-.688.26 1.088 1.088 0 0 0-.267.707zm2.263-1.952c-.086-.056-.143-.149-.143-.223 0-.093.057-.168.143-.242a.697.697 0 0 1 .343-.093c.143 0 .257.037.371.093a.3.3 0 0 1 .143.242c0 .093-.057.167-.143.223a.727.727 0 0 1-.371.093.62.62 0 0 1-.343-.093zm-.057 3.29v-2.713h.8v2.715h-.8zm1.327-2.044v-.502c.21-.13.497-.186.86-.186.726 0 1.089.334 1.089 1.022v1.71h-.535v-.315c-.134.223-.401.334-.745.334-.267 0-.478-.074-.63-.223a.746.746 0 0 1-.23-.558c0-.26.096-.464.306-.613.21-.149.478-.223.84-.223h.459v-.15c0-.186-.038-.316-.134-.428-.095-.093-.248-.148-.458-.148-.306.037-.573.111-.822.279zm1.395.855h-.42c-.21 0-.363.037-.459.111a.385.385 0 0 0-.153.298c0 .13.039.223.115.297.076.075.191.112.344.112a.64.64 0 0 0 .42-.149.512.512 0 0 0 .153-.372v-.296zm1.948-1.097v1.487c0 .26.134.39.382.39a.658.658 0 0 0 .382-.11v.464a1.019 1.019 0 0 1-.44.093c-.572 0-.859-.279-.859-.855v-1.488h-.44v-.409h.44v-.67h.535v.67h.726v.41h-.726v.018zm1.423-1.004c-.086-.056-.143-.149-.143-.223 0-.093.057-.168.143-.242a.697.697 0 0 1 .342-.093c.115 0 .258.037.372.093a.3.3 0 0 1 .143.242c0 .093-.057.167-.143.223a.727.727 0 0 1-.372.093.62.62 0 0 1-.342-.093zm-.03 3.29v-2.713h.8v2.715h-.8zm2.408.057c-.401 0-.726-.13-.974-.39-.23-.261-.344-.596-.344-.986 0-.41.115-.744.363-1.004s.554-.41.955-.41c.42 0 .745.13.974.391.23.26.344.595.344 1.004 0 .41-.115.744-.363 1.004-.21.26-.535.39-.955.39zm0-2.343c-.23 0-.42.093-.554.279-.134.186-.191.409-.191.688 0 .26.076.483.21.669a.653.653 0 0 0 .554.279c.248 0 .44-.093.573-.26.134-.186.19-.41.19-.67 0-.279-.056-.52-.19-.688-.134-.204-.325-.297-.592-.297zm2.445-.41v.466c.172-.335.458-.502.86-.502.266 0 .496.074.648.241.153.168.249.39.249.67v1.822h-.535v-1.71c0-.187-.057-.335-.153-.428a.541.541 0 0 0-.382-.15c-.19 0-.344.075-.496.224-.134.149-.21.353-.21.614v1.468h-.535v-2.714h.554zM36.2 57.361h.534v3.774H36.2v-.409c-.191.298-.478.447-.84.447-.364 0-.65-.13-.86-.41a1.52 1.52 0 0 1-.325-.966c0-.428.115-.763.344-1.023.229-.26.515-.39.86-.39.362 0 .649.148.84.446v-1.47h-.02zm-.765 3.346c.21 0 .382-.075.534-.242.153-.149.21-.39.21-.706 0-.317-.076-.54-.229-.688a.722.722 0 0 0-.515-.224.659.659 0 0 0-.535.242c-.134.168-.21.41-.21.707a.99.99 0 0 0 .21.65c.153.186.324.26.535.26zm3.762-2.287h.535v2.714h-.535v-.463c-.153.334-.439.502-.86.502-.267 0-.496-.075-.649-.242a.918.918 0 0 1-.248-.65v-1.844h.535v1.711c0 .186.038.335.134.428a.54.54 0 0 0 .382.148.64.64 0 0 0 .496-.204c.134-.149.191-.335.191-.595V58.42h.02zm4.164.093v.483c-.172-.111-.401-.149-.688-.149a.495.495 0 0 0-.305.093.263.263 0 0 0-.115.224v.074c0 .019.02.037.038.074.02.019.02.037.039.056l.057.056c.038.018.057.037.076.037.02.019.039.019.077.037.038.019.057.037.076.037.02 0 .057.019.096.038a.328.328 0 0 0 .095.037c.21.093.382.204.516.316a.62.62 0 0 1 .19.465.726.726 0 0 1-.267.576c-.171.13-.42.205-.706.205-.325 0-.611-.056-.822-.168v-.502c.249.149.516.223.803.223a.557.557 0 0 0 .324-.093.263.263 0 0 0 .115-.223.295.295 0 0 0-.096-.204.583.583 0 0 0-.19-.13c-.058-.038-.172-.075-.325-.15-.44-.166-.65-.427-.65-.761 0-.242.096-.428.268-.558.19-.13.42-.205.687-.205.306 0 .535.037.707.112zm2.75 2.008v.465c-.21.111-.477.167-.802.167-.44 0-.783-.13-1.031-.372a1.357 1.357 0 0 1-.382-.985c0-.428.114-.781.344-1.023.229-.242.534-.372.897-.372s.63.112.84.316c.21.223.306.52.306.93 0 .112-.019.223-.038.353h-1.833c.038.242.133.41.305.54.172.13.382.185.63.185.325 0 .573-.074.764-.204zm-.343-.93v-.093c0-.204-.058-.372-.172-.483a.61.61 0 0 0-.459-.186.643.643 0 0 0-.477.186c-.134.13-.21.316-.248.558h1.356v.018zm1.528.205c0 .279.095.502.248.67a.95.95 0 0 0 .687.26c.21 0 .42-.056.612-.168v.465c-.172.111-.401.167-.688.167-.44 0-.783-.13-1.05-.409-.268-.26-.382-.595-.382-1.004 0-.39.133-.725.4-1.004.268-.279.612-.409 1.07-.409.249 0 .459.056.669.149v.483a1.113 1.113 0 0 0-.611-.167.95.95 0 0 0-.688.26 1.052 1.052 0 0 0-.267.707zm2.845-.967v1.487c0 .26.134.39.382.39a.658.658 0 0 0 .382-.11v.464a1.019 1.019 0 0 1-.439.093c-.573 0-.86-.279-.86-.855V58.81h-.439v-.409h.44v-.67h.534v.67h.726v.41h-.726v.018zm3.4 1.692v.465c-.21.111-.477.167-.802.167-.44 0-.783-.13-1.031-.372a1.357 1.357 0 0 1-.382-.985c0-.428.114-.781.343-1.023.23-.242.535-.372.898-.372s.63.112.84.316c.21.223.306.52.306.93 0 .112-.019.223-.038.353h-1.834c.039.242.134.41.306.54.172.13.382.185.63.185.325 0 .573-.074.764-.204zm-.344-.93v-.093c0-.204-.057-.372-.171-.483a.61.61 0 0 0-.459-.186.643.643 0 0 0-.477.186c-.134.13-.21.316-.249.558h1.356v.018zm2.848-1.17h.535v2.714h-.535v-.464c-.152.334-.439.502-.86.502-.267 0-.496-.075-.649-.242a.918.918 0 0 1-.248-.65v-1.844h.535v1.711c0 .186.038.335.134.428a.54.54 0 0 0 .382.148.64.64 0 0 0 .496-.204c.134-.149.191-.335.191-.595V58.42h.02zm1.815 0v.483c.134-.334.382-.502.726-.502.057 0 .114 0 .171.019v.52a.601.601 0 0 0-.248-.055.522.522 0 0 0-.458.241.982.982 0 0 0-.172.577v1.431h-.535v-2.714h.516zm4.488-1.06h.535v3.774h-.535v-.409c-.19.298-.477.447-.84.447s-.65-.13-.86-.41a1.52 1.52 0 0 1-.324-.966c0-.428.114-.763.343-1.023a1.1 1.1 0 0 1 .86-.39c.363 0 .65.148.84.446v-1.47h-.019zm-.745 3.347c.21 0 .382-.075.535-.242.153-.149.21-.39.21-.706 0-.317-.076-.54-.229-.688a.722.722 0 0 0-.516-.224.659.659 0 0 0-.534.242c-.134.168-.21.41-.21.707a.99.99 0 0 0 .21.65c.152.186.324.26.534.26zm4.088-.186v.465c-.21.111-.478.167-.802.167-.44 0-.784-.13-1.032-.372a1.357 1.357 0 0 1-.382-.985c0-.428.115-.781.344-1.023.23-.242.535-.372.898-.372s.63.112.84.316c.21.223.306.52.306.93 0 .112-.02.223-.039.353h-1.833c.038.242.134.41.305.54.172.13.382.185.63.185.325 0 .574-.074.765-.204zm-.344-.93v-.093c0-.204-.057-.372-.172-.483a.61.61 0 0 0-.458-.186.643.643 0 0 0-.478.186c-.134.13-.21.316-.248.558h1.356v.018zm2.463 1.542V57.36h.535v3.774zm1.355-2.063v-.502c.211-.13.498-.186.86-.186.726 0 1.09.334 1.09 1.022v1.71h-.536v-.314c-.133.223-.4.334-.745.334-.267 0-.477-.074-.63-.223a.746.746 0 0 1-.23-.557c0-.26.096-.465.307-.614.21-.149.477-.223.84-.223h.458v-.149c0-.186-.038-.316-.133-.428-.096-.093-.249-.148-.459-.148-.305.037-.573.111-.821.279zm1.414.855h-.42c-.21 0-.363.037-.458.111a.385.385 0 0 0-.153.298c0 .13.038.223.115.297.076.075.19.112.343.112a.64.64 0 0 0 .42-.149.512.512 0 0 0 .153-.372v-.297zm4.145-1.413v.483c-.172-.111-.401-.149-.688-.149a.495.495 0 0 0-.305.093.263.263 0 0 0-.115.224v.074c0 .019.02.037.038.074.02.019.02.037.039.056l.057.056c.038.018.057.037.076.037.02.019.038.019.077.037.038.019.057.037.076.037.02 0 .057.019.096.038a.328.328 0 0 0 .095.037c.21.093.382.204.516.316a.62.62 0 0 1 .19.465.726.726 0 0 1-.267.576c-.172.13-.42.205-.706.205-.325 0-.612-.056-.822-.168v-.502c.249.149.516.223.803.223a.557.557 0 0 0 .324-.093.263.263 0 0 0 .115-.223.295.295 0 0 0-.096-.204.583.583 0 0 0-.19-.13c-.058-.038-.173-.075-.325-.15-.44-.166-.65-.427-.65-.761 0-.242.096-.428.268-.558.19-.13.42-.205.687-.205.306 0 .535.037.707.112zm.745.558v-.502c.21-.13.496-.186.86-.186.725 0 1.088.334 1.088 1.022v1.71h-.535v-.314c-.133.223-.4.334-.745.334-.267 0-.477-.074-.63-.223a.746.746 0 0 1-.23-.557c0-.26.096-.465.306-.614.21-.149.478-.223.84-.223h.46v-.149c0-.186-.039-.316-.134-.428-.096-.093-.249-.148-.459-.148-.305.037-.573.111-.821.279zm1.394.855h-.42c-.21 0-.363.037-.458.111a.385.385 0 0 0-.153.298c0 .13.038.223.114.297.077.075.191.112.344.112a.64.64 0 0 0 .42-.149.512.512 0 0 0 .153-.372v-.297zm1.796-1.506v.465c.171-.335.458-.502.859-.502.267 0 .497.074.65.241a.97.97 0 0 1 .248.67v1.822h-.535v-1.692c0-.186-.057-.335-.153-.428a.541.541 0 0 0-.382-.149c-.19 0-.344.075-.496.224-.134.148-.21.353-.21.613v1.469h-.535v-2.715h.554v-.017zm3.151.409v1.487c0 .26.134.39.382.39a.658.658 0 0 0 .382-.11v.464a1.019 1.019 0 0 1-.44.093c-.572 0-.859-.279-.859-.855V58.81h-.44v-.409h.44v-.67h.535v.67h.726v.41h-.726v.018zm3.4 1.692v.465c-.21.111-.478.167-.802.167-.44 0-.784-.13-1.032-.372a1.357 1.357 0 0 1-.382-.985c0-.428.115-.781.344-1.023.23-.242.535-.372.898-.372s.63.112.84.316c.21.223.306.52.306.93 0 .112-.02.223-.039.353H83.51c.038.242.134.41.305.54.172.13.382.185.63.185.306 0 .555-.074.765-.204zm-.344-.93v-.093c0-.204-.057-.372-.172-.483a.61.61 0 0 0-.458-.186.643.643 0 0 0-.478.186c-.134.13-.21.316-.248.558h1.356v.018zm.344-2.305l-.65.855h-.458l.516-.855h.592zm-48.82 9.63v.466c-.21.111-.477.167-.802.167-.439 0-.783-.13-1.031-.372a1.357 1.357 0 0 1-.382-.985c0-.428.115-.781.344-1.023.229-.242.535-.372.897-.372.363 0 .63.112.84.316.211.224.306.521.306.93 0 .112-.019.223-.038.353H34.71c.038.242.133.41.305.54.172.13.382.185.63.185.287 0 .535-.055.746-.204zm-.343-.929v-.093c0-.204-.058-.372-.172-.483a.61.61 0 0 0-.459-.186.643.643 0 0 0-.477.186c-.134.13-.21.316-.248.558h1.356v.018zm1.814-.743v1.487c0 .26.134.39.382.39a.658.658 0 0 0 .382-.111v.465a1.019 1.019 0 0 1-.439.093c-.573 0-.86-.28-.86-.856v-1.487h-.439v-.41h.44v-.668h.534v.669h.726v.409h-.726v.019zm4.527-1.488h.535v3.774h-.535v-.409c-.191.298-.478.447-.84.447-.363 0-.65-.13-.86-.41a1.52 1.52 0 0 1-.325-.966c0-.428.115-.763.344-1.023a1.1 1.1 0 0 1 .86-.39c.363 0 .649.148.84.446v-1.469h-.02zm-.764 3.365c.21 0 .382-.074.535-.241.153-.149.21-.39.21-.707 0-.316-.077-.539-.23-.688a.722.722 0 0 0-.515-.223.659.659 0 0 0-.535.242c-.134.167-.21.409-.21.706a.99.99 0 0 0 .21.651c.153.167.325.26.535.26zm4.106-.204v.465c-.21.111-.477.167-.802.167-.44 0-.783-.13-1.031-.372a1.357 1.357 0 0 1-.382-.985c0-.428.114-.781.344-1.023.229-.242.534-.372.897-.372s.63.112.84.316c.21.224.306.521.306.93 0 .112-.019.223-.038.353h-1.833c.038.242.133.41.305.54.172.13.382.185.63.185.325 0 .573-.055.764-.204zm-.343-.93v-.093c0-.204-.058-.372-.172-.483a.61.61 0 0 0-.459-.186.643.643 0 0 0-.477.186c-.134.13-.21.316-.248.558h1.356v.018zm2.712-1.06v.484c-.172-.112-.401-.149-.688-.149a.495.495 0 0 0-.305.093.263.263 0 0 0-.115.223v.075c0 .018.02.037.038.074.02.019.02.037.038.056l.058.056c.038.018.057.037.076.037.02.018.038.018.076.037.039.018.058.037.077.037.019 0 .057.019.095.037a.328.328 0 0 0 .096.037c.21.093.382.205.516.317a.62.62 0 0 1 .19.464.726.726 0 0 1-.267.577c-.172.13-.42.204-.707.204-.324 0-.61-.056-.82-.167v-.502c.247.149.515.223.801.223a.557.557 0 0 0 .325-.093.263.263 0 0 0 .115-.223.295.295 0 0 0-.096-.205.583.583 0 0 0-.19-.13c-.058-.037-.173-.074-.326-.148-.439-.168-.649-.428-.649-.763a.67.67 0 0 1 .267-.558c.191-.13.42-.204.688-.204.306-.019.535.018.707.111zm3.59 0v.484c-.171-.112-.4-.149-.687-.149a.495.495 0 0 0-.306.093.263.263 0 0 0-.114.223v.075c0 .018.019.037.038.074.02.019.02.037.038.056.02.018.038.037.057.056.039.018.058.037.077.037.019 0 .038.018.076.037.038.018.058.037.077.037.019 0 .057.019.095.037a.328.328 0 0 0 .096.037c.21.093.382.205.515.317a.62.62 0 0 1 .191.464.726.726 0 0 1-.267.577c-.172.13-.42.204-.707.204-.324 0-.61-.056-.821-.167v-.502c.248.149.516.223.802.223a.557.557 0 0 0 .325-.093.263.263 0 0 0 .114-.223.295.295 0 0 0-.095-.205.583.583 0 0 0-.191-.13c-.057-.037-.172-.074-.325-.148-.439-.168-.65-.428-.65-.763 0-.241.096-.427.268-.558.191-.13.42-.204.688-.204.305-.019.535.018.707.111zm2.75 1.99v.465c-.21.111-.477.167-.801.167-.44 0-.783-.13-1.032-.372a1.357 1.357 0 0 1-.382-.985c0-.428.115-.781.344-1.023.23-.242.535-.372.898-.372s.63.112.84.316c.21.224.306.521.306.93 0 .112-.02.223-.038.353H52.74c.038.242.134.41.306.54.172.13.382.185.63.185.325 0 .573-.055.764-.204zm-.343-.93v-.093c0-.204-.057-.372-.172-.483a.61.61 0 0 0-.458-.186.643.643 0 0 0-.478.186c-.133.13-.21.316-.248.558h1.356v.018zm1.662-1.153v.484c.134-.335.382-.502.726-.502.057 0 .114 0 .172.018v.521a.601.601 0 0 0-.249-.056.522.522 0 0 0-.458.242.982.982 0 0 0-.172.576v1.432h-.535v-2.715h.516zm2.005 2.696l-.993-2.714h.573l.382 1.134c.096.26.153.483.23.688.057.186.095.316.114.372l.019.093c.038-.167.153-.558.363-1.153l.382-1.134h.554l-1.012 2.714h-.612zm2.168-3.29c-.086-.056-.143-.15-.143-.224 0-.093.057-.167.143-.241a.697.697 0 0 1 .343-.093c.142 0 .257.037.371.093a.3.3 0 0 1 .143.241c0 .093-.057.168-.143.224a.727.727 0 0 1-.714 0zm-.029 3.29v-2.714h.8v2.714h-.8zm1.662-1.338c0 .279.096.502.248.67a.95.95 0 0 0 .688.26c.21 0 .42-.056.611-.168v.465c-.172.111-.4.167-.687.167-.44 0-.783-.13-1.05-.409-.268-.26-.383-.595-.383-1.004 0-.39.134-.725.401-1.004.268-.279.611-.409 1.07-.409.248 0 .458.056.668.149v.483a1.113 1.113 0 0 0-.61-.167.95.95 0 0 0-.688.26.967.967 0 0 0-.268.707zm4.221.725v.465c-.21.111-.477.167-.802.167-.44 0-.783-.13-1.031-.372a1.357 1.357 0 0 1-.382-.985c0-.428.114-.781.343-1.023.23-.242.535-.372.898-.372s.63.112.84.316c.21.224.306.521.306.93 0 .112-.019.223-.038.353h-1.834c.039.242.134.41.306.54.172.13.382.185.63.185.325 0 .573-.055.764-.204zm-.344-.93v-.093c0-.204-.057-.372-.171-.483a.61.61 0 0 0-.459-.186.643.643 0 0 0-.477.186c-.134.13-.21.316-.249.558h1.356v.018zm2.713-1.06v.484c-.172-.112-.401-.149-.688-.149a.495.495 0 0 0-.306.093.263.263 0 0 0-.114.223v.075c0 .018.019.037.038.074.02.019.02.037.038.056l.058.056c.038.018.057.037.076.037.019 0 .038.018.076.037.039.018.058.037.077.037.019 0 .057.019.095.037a.328.328 0 0 0 .096.037c.21.093.382.205.515.317a.62.62 0 0 1 .191.464.726.726 0 0 1-.267.577c-.172.13-.42.204-.707.204-.324 0-.61-.056-.821-.167v-.502c.248.149.516.223.802.223a.557.557 0 0 0 .325-.093.263.263 0 0 0 .115-.223.295.295 0 0 0-.096-.205.583.583 0 0 0-.191-.13c-.057-.037-.172-.074-.325-.148-.439-.168-.65-.428-.65-.763 0-.241.096-.427.268-.558.191-.13.42-.204.688-.204.286-.019.535.018.707.111zm3.59 0v.484c-.172-.112-.4-.149-.687-.149a.495.495 0 0 0-.306.093.263.263 0 0 0-.114.223v.075c0 .018.019.037.038.074.019.019.019.037.038.056.02.018.038.037.057.056.038.018.058.037.077.037.019.018.038.018.076.037.038.018.057.037.076.037.02 0 .058.019.096.037a.328.328 0 0 0 .095.037c.21.093.382.205.516.317a.62.62 0 0 1 .191.464.726.726 0 0 1-.267.577c-.172.13-.42.204-.707.204-.325 0-.611-.056-.821-.167v-.502c.248.149.515.223.802.223a.557.557 0 0 0 .325-.093.263.263 0 0 0 .114-.223.295.295 0 0 0-.095-.205.583.583 0 0 0-.191-.13c-.058-.037-.172-.074-.325-.148-.44-.168-.65-.428-.65-.763 0-.241.096-.427.268-.558.191-.13.42-.204.688-.204.286-.019.534.018.706.111zm1.834 2.66c-.401 0-.726-.13-.974-.391-.23-.26-.344-.595-.344-.986 0-.409.115-.743.363-1.004.248-.26.554-.409.955-.409.42 0 .745.13.974.39.23.261.344.596.344 1.005 0 .409-.115.744-.363 1.004-.21.26-.535.39-.955.39zm0-2.343c-.23 0-.42.093-.554.278-.134.186-.19.41-.19.688 0 .26.075.484.21.67a.653.653 0 0 0 .553.279c.248 0 .44-.093.573-.26.134-.187.191-.41.191-.67 0-.279-.057-.52-.19-.688-.135-.223-.326-.297-.593-.297zm2.311.948c0 .279.096.502.248.67a.95.95 0 0 0 .688.26c.21 0 .42-.056.611-.168v.465c-.172.111-.401.167-.687.167-.44 0-.784-.13-1.05-.409-.268-.26-.383-.595-.383-1.004 0-.39.134-.725.401-1.004.268-.279.611-.409 1.07-.409.248 0 .458.056.668.149v.483a1.113 1.113 0 0 0-.611-.167.95.95 0 0 0-.688.26.967.967 0 0 0-.267.707zm2.244-1.952c-.086-.056-.143-.15-.143-.224 0-.093.057-.167.143-.241a.697.697 0 0 1 .343-.093c.143 0 .257.037.371.093a.3.3 0 0 1 .143.241c0 .093-.057.168-.143.224a.727.727 0 0 1-.714 0zm-.029 3.29v-2.714h.8v2.714h-.8zm1.319-2.063v-.502c.21-.13.496-.186.859-.186.726 0 1.089.334 1.089 1.022v1.71h-.535v-.315c-.134.223-.401.334-.745.334-.267 0-.477-.074-.63-.223a.746.746 0 0 1-.23-.557c0-.26.096-.465.306-.614.21-.149.478-.223.84-.223h.459v-.149c0-.186-.038-.316-.134-.427-.095-.093-.248-.15-.458-.15-.306.057-.573.13-.821.28zm1.394.855h-.42c-.21 0-.363.037-.459.111a.385.385 0 0 0-.153.298c0 .13.039.223.115.297.076.075.191.112.344.112a.64.64 0 0 0 .42-.149.512.512 0 0 0 .153-.372v-.297zm2.98-1.488h.534v2.715h-.535v-.465c-.152.335-.439.502-.86.502-.267 0-.496-.074-.648-.241a.918.918 0 0 1-.249-.651v-1.84h.535v1.71c0 .186.038.334.134.427a.54.54 0 0 0 .382.149.64.64 0 0 0 .496-.204c.134-.15.191-.335.191-.595v-1.507h.02zm2.52 1.34l.917 1.375h-.61l-.612-.985-.65.985h-.592l.955-1.376-.878-1.339h.611l.573.949.592-.949h.611z"/></g><path d="M41.82 82.981C19.007 82.981.29 64.721.004 42.015c-.134-11.078 4.08-21.547 11.877-29.49C19.676 4.584 30.116.138 41.304.005c11.168-.152 21.723 4.047 29.73 11.78 8.007 7.734 12.49 18.09 12.624 29.186v.304c.019 1.444.038 2.185-.153 3.8a2.248 2.248 0 0 1-2.472 1.976c-1.226-.133-2.126-1.235-1.992-2.45.153-1.35.134-1.863.115-3.25v-.304c-.134-9.9-4.138-19.134-11.264-26.05-7.145-6.898-16.55-10.64-26.53-10.508-9.981.133-19.291 4.104-26.264 11.173C8.144 22.748 4.371 32.097 4.505 41.977c.268 20.255 16.953 36.558 37.316 36.558h.479c7.72-.095 15.114-2.508 21.34-6.974a2.27 2.27 0 0 1 3.141.494 2.227 2.227 0 0 1-.498 3.117C59.291 80.188 51.016 82.886 42.357 83c-.172-.019-.364-.019-.536-.019z" fill="url(#b)"/></g></svg>