<svg width="154" height="51" xmlns="http://www.w3.org/2000/svg" xmlns:xlink="http://www.w3.org/1999/xlink"><defs><path id="a" d="M0 0h92.572v6.428H0z"/></defs><g fill="none" fill-rule="evenodd"><g transform="translate(61.123 22.851)"><mask id="b" fill="#fff"><use xlink:href="#a"/></mask><path d="M0 6.32h4.123V4.914H1.511V3.846h2.324V2.52H1.51V1.496h2.578V.089H0V6.32zm7.043 0h1.501V3.053l2.054 3.267h1.357V.09h-1.501v3.132L8.477.09H7.043v6.23zm9.019 0h1.528V1.531h1.468V.09h-4.464v1.442h1.468V6.32zm5.643 0h1.519V4.39h.543l1.01 1.93h1.722l-1.222-2.26c.628-.33 1.06-.909 1.06-1.835v-.044c0-.631-.186-1.113-.517-1.46-.38-.408-.984-.631-1.782-.631h-2.333v6.23zm1.519-3.205V1.487h.747c.509 0 .83.267.83.8v.019c0 .5-.305.81-.822.81h-.755zM29.23 6.32h4.124V4.914H30.74V3.846h2.325V2.52H30.74V1.496h2.58V.089h-4.09V6.32zm7.043 0h1.519V4.513h.585c1.298-.017 2.334-.73 2.334-2.225v-.036c0-1.397-.917-2.163-2.317-2.163h-2.121V6.32zm1.519-3.115V1.46h.525c.552 0 .866.294.866.864v.026c0 .525-.322.855-.857.855h-.534zm5.7 3.115h1.52V4.39h.543l1.01 1.93h1.723l-1.222-2.26c.627-.33 1.06-.909 1.06-1.835v-.044c0-.631-.187-1.113-.517-1.46-.381-.409-.984-.632-1.782-.632h-2.334V6.32zm1.52-3.205V1.487h.747c.51 0 .832.267.832.8v.019c0 .5-.306.81-.824.81h-.755zM51.02 6.32h4.124V4.914H52.53V3.846h2.326V2.52H52.53V1.496h2.58V.089h-4.09V6.32zm7.043 0h1.503V3.053l2.053 3.267h1.358V.09h-1.502v3.132L59.498.09h-1.435v6.23zm7.993 0h4.124V4.914h-2.613V3.846h2.325V2.52h-2.325V1.496h2.579V.089h-4.09V6.32zm9.386.108c1.45 0 2.426-.793 2.426-2.6V.089h-1.545V3.9c0 .738-.34 1.077-.875 1.077-.525 0-.873-.357-.873-1.104V.089H73.04v3.766c0 1.771.95 2.573 2.402 2.573zm5.456-.108h1.518V4.39h.542l1.01 1.93h1.723l-1.222-2.26c.628-.33 1.06-.909 1.06-1.835v-.044c0-.631-.186-1.113-.517-1.46C84.63.313 84.028.09 83.229.09h-2.331v6.23zm1.518-3.205V1.487h.746c.509 0 .833.267.833.8v.019c0 .5-.306.81-.825.81h-.754zm7.993 3.294c1.273 0 2.164-.747 2.164-1.957v-.019c0-1.059-.704-1.54-1.834-1.922-.755-.294-.942-.436-.942-.713V1.79c0-.23.195-.409.544-.409.483 0 .976.24 1.383.57l.772-1.192C91.877.232 91.172 0 90.376 0c-1.3 0-2.122.793-2.122 1.923v.026c0 1.132.788 1.558 1.909 1.959.695.258.873.409.873.66v.007c0 .268-.212.455-.619.455-.576 0-1.128-.285-1.613-.704l-.814 1.167c.696.631 1.536.916 2.419.916z" fill="#FFF" fill-rule="nonzero" mask="url(#b)"/></g><path d="M99.443 18.489h1.926c1.926 0 3.02-1.246 3.02-3.08v-.107c0-1.833-1.086-3.044-2.996-3.044h-1.95v6.23zm1.968-4.798c.848 0 1.418.526 1.418 1.648v.08c0 1.112-.57 1.638-1.418 1.638h-.44v-3.366h.44zm5.898 4.798h4.123v-1.407h-2.613v-1.068h2.325v-1.326h-2.325v-1.024h2.58v-1.406h-4.09v6.23zm9.027.09c1.273 0 2.164-.748 2.164-1.959v-.018c0-1.059-.704-1.54-1.832-1.922-.756-.294-.943-.436-.943-.713v-.009c0-.23.196-.41.545-.41.482 0 .974.241 1.382.57l.771-1.193c-.619-.524-1.323-.756-2.12-.756-1.299 0-2.122.793-2.122 1.923v.026c0 1.132.789 1.559 1.909 1.959.696.257.875.409.875.66v.008c0 .267-.213.454-.62.454-.578 0-1.129-.285-1.613-.704l-.815 1.167c.696.632 1.536.917 2.419.917zM62.66 11.956h1.28l1.23-.918-1.797-.4-.712 1.318zm-1.52 6.532h4.395v-1.636h-2.58v-.748h2.351v-1.496h-2.35v-.712h2.537v-1.638h-4.352v6.231zm9.606.125c1.155 0 1.859-.57 2.292-1.238l-1.24-1.148c-.195.32-.467.605-.941.605-.552 0-1.002-.462-1.002-1.45v-.036c0-.918.415-1.433.992-1.433.459 0 .73.276.918.587l1.238-1.192c-.475-.711-1.18-1.174-2.189-1.174-1.553 0-2.825 1.237-2.825 3.178v.15c0 1.977 1.272 3.152 2.757 3.152zm7.306.008c1.629 0 2.825-1.307 2.825-3.177v-.16c0-1.87-1.18-3.16-2.817-3.16-1.63 0-2.817 1.308-2.817 3.177v.16c0 1.87 1.18 3.16 2.809 3.16zm.008-1.717c-.594 0-.968-.542-.968-1.468v-.135c0-.925.374-1.46.96-1.46.594 0 .967.544.967 1.47v.133c0 .926-.365 1.46-.96 1.46zm5.473 1.584h4.099v-1.69h-2.267v-4.54h-1.832v6.23zm6.678 0h4.395v-1.636h-2.58v-.748h2.35v-1.496h-2.35v-.712h2.537v-1.638h-4.352v6.231z" fill="#FFF" fill-rule="nonzero"/><path fill="#FFF" fill-rule="nonzero" d="M0 .5V51h50.67V1.859L35.295 9.775v7.738h-11.64v3.976H34.42v8.361H23.655v4.172h11.64v9.196H15.373V8.283h18.839L49.322.5z"/><path d="M62.654 35.147V38.4h.45c.862 0 1.441-.507 1.441-1.583v-.077c0-1.084-.579-1.592-1.442-1.592h-.449zm-1.553-1.385h1.985c1.942 0 3.047 1.17 3.047 2.942v.103c0 1.773-1.113 2.977-3.073 2.977h-1.959v-6.022zm7.84 3.64v-3.641h1.562v3.656c0 .723.355 1.067.89 1.067.543 0 .889-.327.889-1.041v-3.681h1.57v3.613c0 1.747-.992 2.512-2.468 2.512s-2.443-.774-2.443-2.487m13.087 1.015l-.725-.68.837-.825.536.516c.034-.172.06-.37.06-.585v-.103c0-1.05-.5-1.686-1.226-1.686-.716 0-1.208.636-1.208 1.677v.103c0 1.067.5 1.695 1.234 1.695.182 0 .345-.035.492-.112zm1.57 1.531l-.525-.525c-.44.302-.976.474-1.563.474-1.623 0-2.796-1.256-2.796-3.054v-.13c0-1.795 1.182-3.061 2.805-3.061 1.631 0 2.796 1.248 2.796 3.054v.13c0 .661-.172 1.255-.457 1.737l.578.55-.837.826zm3.543-2.546v-3.638h1.563v3.656c0 .723.353 1.067.888 1.067.544 0 .89-.327.89-1.041v-3.682h1.57v3.613c0 1.747-.992 2.512-2.468 2.512-1.477 0-2.443-.774-2.443-2.486" fill="#FFF" fill-rule="nonzero"/><path d="M97.373 32.127l1.432.439-1.156.843h-1.122l.846-1.282zm-2.34 1.635h4.16v1.359H96.57v.989h2.365v1.282H96.57v1.032h2.658v1.36h-4.194v-6.022zm9.482 3.552h-.907v1.18h.915c.483 0 .768-.216.768-.586v-.009c0-.353-.267-.585-.776-.585zm.587-1.703c0-.361-.26-.56-.726-.56h-.768v1.128h.743c.474 0 .75-.19.75-.56v-.008zm-3.004-1.85h2.503c.725 0 1.286.173 1.64.534.25.24.397.568.397.998v.034c0 .689-.397 1.102-.898 1.325.648.24 1.105.636 1.105 1.428v.034c0 1.033-.812 1.67-2.236 1.67h-2.511v-6.022zm7.53 0h4.16v1.36h-2.624v.989h2.365v1.282h-2.365v1.032h2.659v1.36h-4.195zm6.832 3.072v-.104c0-1.858 1.216-3.07 2.804-3.07.95 0 1.597.37 2.089.946l-1.001 1.058c-.26-.31-.587-.568-1.062-.568-.708 0-1.234.628-1.234 1.652v.034c0 1.075.535 1.669 1.234 1.669.519 0 .829-.275 1.105-.594l.984.998c-.492.603-1.165 1.032-2.175 1.032-1.545 0-2.745-1.178-2.745-3.053" fill="#FFF" fill-rule="nonzero"/></g></svg>