<svg width="142" height="42" xmlns="http://www.w3.org/2000/svg"><g fill="#FFF"><path d="M.604 25.133h4.42V14.37c0-1.192.325-2.148.978-2.867.652-.72 1.506-1.08 2.563-1.08 1.08 0 1.94.354 2.581 1.063.641.708.962 1.67.962 2.884v10.762h4.419V14.37c0-1.192.326-2.148.978-2.867.652-.72 1.507-1.08 2.564-1.08 1.08 0 1.94.354 2.58 1.063.642.708.962 1.67.962 2.884v10.762h4.42V13.325c0-1.372-.298-2.58-.894-3.626a6.46 6.46 0 0 0-2.413-2.446c-1.012-.585-2.17-.877-3.474-.877-1.215 0-2.311.247-3.29.742-.978.495-1.782 1.237-2.411 2.227-.54-.9-1.31-1.62-2.311-2.16s-2.12-.81-3.357-.81c-1.147 0-2.17.226-3.07.676a4.593 4.593 0 0 0-2.057 2.024V6.78H.604v18.352zm38.143.404c2.384 0 4.296-.787 5.735-2.361v1.957h4.183V12.92c0-1.281-.326-2.417-.978-3.407-.652-.99-1.546-1.76-2.682-2.31-1.136-.552-2.457-.827-3.964-.827-1.844 0-3.486.438-4.925 1.316-1.44.877-2.43 2.035-2.969 3.474l3.61 1.754a4.437 4.437 0 0 1 1.585-2.007c.72-.506 1.563-.759 2.53-.759 1.012 0 1.828.264 2.446.793.619.529.928 1.186.928 1.973v.608l-5.465.877c-2.16.36-3.756 1.046-4.79 2.058-1.035 1.012-1.552 2.282-1.552 3.812 0 1.619.573 2.9 1.72 3.845 1.147.945 2.676 1.417 4.588 1.417zm-1.72-5.431c0-1.282.865-2.092 2.597-2.429l4.622-.776v.742c0 1.26-.433 2.328-1.299 3.205-.866.877-1.996 1.316-3.39 1.316-.743 0-1.35-.186-1.822-.557-.472-.37-.709-.871-.709-1.501zm24.109 5.431c1.394 0 2.609-.236 3.643-.708 1.035-.472 1.844-1.13 2.429-1.974.585-.843.877-1.816.877-2.918 0-1.282-.405-2.384-1.214-3.306-.81-.922-1.98-1.596-3.509-2.024l-2.935-.877c-.63-.18-1.147-.416-1.552-.708-.404-.293-.607-.698-.607-1.215 0-.54.214-.978.641-1.315.428-.338 1.012-.506 1.754-.506.923 0 1.76.247 2.514.742a3.857 3.857 0 0 1 1.568 1.99l3.374-1.585c-.562-1.485-1.507-2.649-2.834-3.492-1.327-.843-2.856-1.265-4.588-1.265-1.327 0-2.502.236-3.525.708-1.023.473-1.822 1.13-2.395 1.974-.574.843-.86 1.827-.86 2.952 0 1.26.399 2.35 1.197 3.272.798.922 1.974 1.608 3.525 2.058l3.003.843c.584.158 1.085.388 1.501.692.416.303.624.714.624 1.231 0 .607-.242 1.085-.725 1.434-.484.348-1.12.523-1.906.523a4.756 4.756 0 0 1-2.8-.877c-.832-.585-1.496-1.395-1.99-2.43l-3.307 1.586c.54 1.574 1.535 2.834 2.986 3.778 1.45.945 3.154 1.417 5.11 1.417zM77.182 42h3.914l4.318-12.38L89.664 42h3.947l6.309-18.352h-4.656l-3.846 11.538-4.048-11.538h-3.913L79.375 35.22 75.53 23.65h-4.655zm27.314-16.867h4.453V20.41h-4.453zm17.632.404c2.384 0 4.296-.787 5.735-2.361v1.957h4.184V12.92c0-1.281-.327-2.417-.979-3.407-.652-.99-1.546-1.76-2.682-2.31-1.135-.552-2.457-.827-3.964-.827-1.844 0-3.485.438-4.925 1.316-1.44.877-2.429 2.035-2.969 3.474l3.61 1.754a4.437 4.437 0 0 1 1.586-2.007c.72-.506 1.563-.759 2.53-.759 1.012 0 1.827.264 2.446.793.618.529.927 1.186.927 1.973v.608l-5.465.877c-2.159.36-3.756 1.046-4.79 2.058-1.035 1.012-1.552 2.282-1.552 3.812 0 1.619.574 2.9 1.72 3.845 1.148.945 2.677 1.417 4.588 1.417zm-1.72-5.431c0-1.282.866-2.092 2.598-2.429l4.621-.776v.742c0 1.26-.433 2.328-1.299 3.205-.865.877-1.995 1.316-3.39 1.316-.742 0-1.35-.186-1.822-.557-.472-.37-.708-.871-.708-1.501zm17.126-15.383h4.42V0h-4.42v4.723zm0 20.41h4.42V6.78h-4.42v18.352z"/></g></svg>