<svg height="30" width="211" xmlns="http://www.w3.org/2000/svg"><g fill="#fff" fill-rule="evenodd"><path d="M51.533.08c2.24 0 4.32.347 6.24 1.04s3.587 1.68 5 2.96c1.402 1.269 2.502 2.807 3.3 4.613V1.14h11.3c1.1 0 2.3.1 3.6.3 1.3.1 2.4.5 3.5 1 1.1.6 2 1.3 2.7 2.3.6.9.9 2.1 1 3.5v-7.1h9.4v9.8c.1-.7.3-1.3.6-1.9.8-1.9 1.8-3.4 3.2-4.7s3-2.3 4.8-3c1.9-.7 3.8-1 5.9-1 2.2 0 4.3.4 6.2 1.1 2 .7 3.6 1.7 4.8 2.9l-5.4 6.6c-.5-.6-1.2-1.2-2-1.6s-1.8-.6-2.9-.6c-.7 0-1.5.2-2.2.5s-1.4.7-1.9 1.3c-.5.5-1 1.2-1.3 2-.3.7-.5 1.6-.5 2.6 0 2 .5 3.6 1.5 4.8s2.6 1.8 4.8 1.8c.4 0 .8 0 1.2-.1s.8-.2 1-.3v-2.2h-4.5v-7.3h12.7v15.2c-.7.4-1.5.8-2.3 1.1s-1.7.6-2.7.8c-1 .3-2 .5-3 .6s-2.1.2-3.1.2c-2.2 0-4.2-.3-6.1-1-1.9-.6-3.5-1.6-4.9-2.9-1.3-1.2-2.4-2.8-3.2-4.6-.2-.6-.4-1.3-.6-1.9v9.8h-9.4v-4c-.6.9-1.3 1.6-2.2 2.2-1 .7-2.1 1.1-3.4 1.4s-2.6.4-4 .4h-12.6v-8.013l-.17.379a13.896 13.896 0 0 1-3.13 4.354c-1.413 1.32-3.08 2.34-5 3.06s-4 1.08-6.24 1.08-4.32-.36-6.24-1.08-3.58-1.74-4.98-3.06a13.904 13.904 0 0 1-2.847-3.816l.001 7.156H16.64L8.8 15.68h-.16l.4 13.52H0V.88h9.48l7.826 13.909.001-13.91h19.48v7.92H26.36v2.44h9.787l-.002.25c.2-.966.49-1.882.869-2.75.8-1.826 1.9-3.38 3.3-4.66s3.06-2.266 4.98-2.96c1.92-.692 4-1.04 6.24-1.04zm25.82 17.86h-2.58v3.8h2.8c.7 0 1.3-.2 1.8-.5.4-.3.6-.8.6-1.4 0-.4-.1-.7-.3-.9-.2-.3-.4-.5-.7-.6l-.9-.3c-.3-.1-.6-.1-.9-.1zm-41.208.349l.002.35H26.36v2.64l10.742.003a14.379 14.379 0 0 1-.956-2.993zm15.389-9.49c-.8 0-1.547.148-2.24.44-.694.294-1.287.7-1.78 1.22-.494.52-.88 1.16-1.16 1.92s-.42 1.594-.42 2.5c0 .934.14 1.788.42 2.56.28.774.666 1.44 1.16 2 .493.56 1.086.994 1.78 1.3.693.308 1.44.46 2.24.46s1.54-.152 2.22-.46a5.336 5.336 0 0 0 1.78-1.3c.506-.56.9-1.226 1.18-2 .28-.772.42-1.626.42-2.56 0-.906-.14-1.74-.42-2.5s-.674-1.4-1.18-1.92a5.5 5.5 0 0 0-4-1.66zm36.738.04l-.024.296c-.12 1.261-.425 2.27-1.075 3.105-.8 1-1.8 1.7-3 2.2v.1c.6.2 1.3.4 1.9.8.6.3 1.2.8 1.7 1.3.05.05.094.1.134.15l.232.3.134.15v-8.4zM77.073 8.44h-2.3v3.5h2.6c.6 0 1.2-.2 1.6-.5s.6-.8.6-1.4c0-.5-.3-.9-.7-1.2-.5-.3-1.1-.4-1.8-.4zm124.2-7.4l.4 14.2h-.2l-7.9-14.2h-9.3v20.1h-11.4v-2.6h9.7v-7.3h-9.7v-2.4h9.7v-7.8h-18.4v7.2c0-1.5-.4-2.7-1-3.6-.7-1-1.6-1.7-2.7-2.3-1.1-.5-2.2-.9-3.5-1-1.3-.2-2.5-.3-3.6-.3h-11.4v28h12.6c1.4 0 2.7-.1 4-.4s2.4-.7 3.4-1.4c.9-.6 1.6-1.3 2.2-2.2v4h28.9l-.4-13.4h.2l7.7 13.4h9.5v-28zm-50.6 7.3h2.4c.7 0 1.3.1 1.8.4.4.3.7.7.7 1.2 0 .6-.2 1.1-.6 1.4s-1 .5-1.6.5h-2.5v-3.5zm4.6 12.8c-.5.3-1.1.5-1.8.5h-2.8v-3.8h2.4c.3 0 .6 0 .9.1l.9.3c.3.1.5.3.7.6.2.2.3.5.3.9.1.6-.1 1.1-.6 1.4zm8.5-4.6c-.5-.5-1.1-1-1.7-1.3-.6-.4-1.3-.6-1.9-.8v-.1c1.2-.5 2.2-1.2 3-2.2.7-.9 1.1-2.1 1.1-3.5v8.5c-.2-.2-.3-.4-.5-.6z"/><path d="M135.473 18.64c-.3-.3-.7-.6-1.2-.8s-1-.3-1.4-.3c-.5 0-1 .1-1.5.3s-.9.5-1.2.8c-.4.3-.6.7-.8 1.2s-.3 1-.3 1.5.1 1 .3 1.5c.2.4.5.8.8 1.2.4.3.8.6 1.2.8.5.2 1 .3 1.5.3s1-.1 1.4-.3c.5-.2.9-.5 1.2-.8s.6-.7.8-1.2.3-1 .3-1.5-.1-1-.3-1.5-.4-.9-.8-1.2zm0-12.6c-.3-.3-.7-.6-1.2-.8s-1-.3-1.4-.3c-.5 0-1 .1-1.5.3s-.9.5-1.2.8c-.4.3-.6.7-.8 1.2s-.3 1-.3 1.5.1 1 .3 1.5c.2.4.5.8.8 1.2.4.3.8.6 1.2.8.5.2 1 .3 1.5.3s1-.1 1.4-.3c.5-.2.9-.5 1.2-.8s.6-.7.8-1.2.3-1 .3-1.5-.1-1-.3-1.4c-.2-.6-.4-1-.8-1.3z" fill-rule="nonzero"/></g></svg>