<svg width="136" height="44" xmlns="http://www.w3.org/2000/svg"><g fill="#FFF"><path d="M25.233 2.405h-8.994C7.271 2.405 0 9.675 0 18.645v9.116C0 36.729 7.27 44 16.24 44h8.993c8.968 0 16.239-7.27 16.239-16.24v-9.102a16.24 16.24 0 0 0-16.24-16.253zM18.21 28.542h5.034a4.525 4.525 0 1 1 0 3.028h-5.016a4.53 4.53 0 1 1-5.785-5.784v-5.14a4.53 4.53 0 1 1 5.789-5.772h5a4.53 4.53 0 1 1 .025 3.029h-5.034a4.569 4.569 0 0 1-2.752 2.739v5.144a4.56 4.56 0 0 1 2.757 2.756h-.018zm61.174-17.411h7.439v26.26h-7.439zm22.327-.373c-3.072 0-6.144.904-7.461 2.194-1.229 1.22-1.993 2.559-2.023 5.469l-.062 18.925h7.62V20.141a3.243 3.243 0 0 1 1.031-2.458 4.424 4.424 0 0 1 2.348-.943c.22-.023.441-.035.663-.035 1.733 0 3.423.877 4.28 1.26v-5.566a13.83 13.83 0 0 0-6.295-1.641h-.1z"/><ellipse cx="83.102" cy="3.968" rx="3.862" ry="3.968"/><path d="M60.577 11.802a12.834 12.834 0 0 0-4.534 2.739 11.85 11.85 0 0 0-2.817 4.226 14.962 14.962 0 0 0-.979 5.504 14.93 14.93 0 0 0 .979 5.5 11.85 11.85 0 0 0 2.817 4.226 12.807 12.807 0 0 0 4.534 2.74c1.84.67 3.788.997 5.746.96 4.569 0 7.413-1.755 7.781-1.98v-5.77c-.215.17-2.194 1.755-6.144 1.755-2.489 0-4.74-.676-6.009-2.006-1.268-1.33-1.9-3.16-1.9-5.442 0-2.283.671-4.113 1.913-5.43 1.242-1.316 3.512-2.005 6.009-2.005 2.128-.009 4.23.469 6.145 1.395v-5.666a16.174 16.174 0 0 0-7.418-1.755 17.995 17.995 0 0 0-6.123 1.01zm67.297 25.601h7.352l-.075-14.922c0-3.832-.926-6.909-3.51-8.915-2.24-1.755-5.066-2.79-8.678-2.79-3.454 0-6.355.262-9.95 1.755l.026 5.68c2.902-1.498 6.088-1.822 8.313-1.822 6.825.123 6.522 5.122 6.522 5.122h-5.508c-3.998 0-6.983.71-8.87 2.12a6.71 6.71 0 0 0-2.094 2.492 7.76 7.76 0 0 0-.693 3.354 7.962 7.962 0 0 0 1.115 4.204 7.808 7.808 0 0 0 3.322 2.928c1.65.76 3.451 1.132 5.267 1.088a8.594 8.594 0 0 0 6.763-3.072l.698-.79v3.568zm-.026-7.9a4.797 4.797 0 0 1-1.655 1.914 5.521 5.521 0 0 1-3.107.877 4.389 4.389 0 0 1-2.844-.877 2.95 2.95 0 0 1-1.097-2.384c0-1.479.79-3.243 4.538-3.243h4.191v3.599l-.026.114z"/></g></svg>