<svg width="126" height="52" xmlns="http://www.w3.org/2000/svg"><g fill="#FFF"><path d="M54.905 7.109h1.25v6.241c0 1.612-1.154 3.24-3.737 3.24-2.343 0-3.74-1.187-3.74-3.181v-6.3h1.41v6.125c0 1.606.777 2.35 2.445 2.35 1.637 0 2.372-1.18 2.372-2.35V7.109zm5.262 0h-1.212v9.305h1.21V9.3l5.57 7.115h1.276V7.109h-1.214v7.202zm11.236 0v9.305h-1.398V7.11zm1.974 0H74.8l2.3 6.98 2.53-6.98h1.195l-3.549 9.305h-.716zm14.882 0v.98h-4.135v3.035h3.307v.977h-3.307v3.329h4.135v.985h-5.544V7.109zm6.174 4.935l.156-.045c.714-.211 1.751-1.31 1.751-2.553 0-1.127-1.037-2.337-3.311-2.337h-2.548v9.305h1.41V7.982h1.011c1.506 0 2.041.866 2.041 1.61 0 .782-.638 1.883-2.056 1.883h-.352l3.126 4.94h1.666l-2.894-4.37zm8.612 2.18c0-.875-.829-1.373-1.786-1.952l-.322-.195c-1.065-.647-2.198-1.45-2.198-2.773 0-1.356 1.2-2.383 2.792-2.383 1.365 0 2.123.319 2.473.471-.03.067-.35.839-.384.924a4.358 4.358 0 0 0-1.845-.416c-1.009 0-1.638.44-1.638 1.146 0 .86.709 1.299 1.61 1.851l.41.25c-.002 0 .057.038.057.038.928.587 2.328 1.474 2.328 2.753 0 1.586-1.695 2.654-3.282 2.654-1.525 0-2.396-.425-2.758-.607.032-.075.36-.81.395-.89l.01.004a5.457 5.457 0 0 0 2.381.517c.966-.002 1.757-.627 1.757-1.393zm5.256-7.115v9.305h-1.396V7.11zm9.337 0v.98h-3.042v8.326h-1.41V8.09h-3.059v-.981z"/><path d="M120.874 8.09v3.034h3.308v.977h-3.308v3.329h4.135v.985h-5.547V7.109h5.547v.98h-4.135zm2.75-4.078l.548.82-2.392 1.306-.327-.507z"/><g><path d="M90.047 20.105v.094c1.992.769.894 3.288.032 5.467l-4.363 11.033-6.374-16.593h-4.258v.093c1.245.95 1.9 2.828 2.504 4.392l6.075 15.723h3.068l8.103-20.209h-4.788zm34.961 17.192c-1.176.539-2.471.794-3.911.794h-4.366V20.106h-4.72v.093c1.48.505 1.446 2.816 1.446 4.238l-.003 15.772c-1.571-.782-2.387-2.604-3.123-4.349l-6.674-15.754h-5.071v.093c1.521.452.943 1.75.48 2.855l-5.36 12.806c-.732 1.745-1.49 3.555-3.115 4.36v.094h4.012l2.059-5.343h9.845l2.124 5.343h16.377v-3.017zm-27.476-4.588l4.004-9.991 4.07 9.99h-8.075zm-20.664 3.152l-6.676-15.756h-5.069v.094c1.521.451.943 1.75.482 2.854l-.001.001v.001l-5.36 12.807c-.267.634-.537 1.277-.85 1.877a8.66 8.66 0 0 1-2.473.354h-4.366V20.108h-4.719v.094c1.48.503 1.446 2.813 1.446 4.237l-.002 15.876h11.86l2.06-5.343h9.846l2.123 5.343h4.848v-.094c-1.68-.848-2.41-2.61-3.149-4.36zm-12.8-3.152l4.006-9.991 4.07 9.99h-8.075z"/></g><path d="M40.664.5v40.246c0 3.464-2.667 6.176-6.073 6.176h-9.565c-1.278 0-2.94.863-3.773 3.285l-.461 1.34c-.114.277-.277.453-.458.453-.185 0-.345-.177-.459-.454l-.46-1.339c-.834-2.422-2.498-3.285-3.777-3.285H6.073C2.668 46.922 0 44.21 0 40.746V.5h40.664zm-.972.971H1.039v38.426c0 3.307 2.536 5.896 5.773 5.896h9.092c1.215 0 2.798.824 3.59 3.137l.437 1.278c.109.265.26.434.436.434.172 0 .327-.169.435-.434l.439-1.278c.791-2.313 2.371-3.137 3.587-3.137h9.091c3.238 0 5.773-2.589 5.773-5.896V1.47z"/><path d="M16.725 1.471v18.634H.971V1.471h15.754zM5.238 11.97s-.054.003-.058.005l-.01.003c-.141.022-.441.158-.552.211l-.04.345h.154c.041 0 .082.02.11.053a.14.14 0 0 1 .038.115l-.136 1.114a.159.159 0 0 1-.11.128.152.152 0 0 1-.16-.053l-.984-.899c-.068-.068-.134-.098-.209-.074-.104.036-.105.104-.12.197-.025.176-.118.867-.217 1.61l-.066.498c-.098.743-.19 1.435-.21 1.612.598-.367.701-1.487.885-2.313.04-.208.226-.19.206.04l-.088.935c.133-.048.552-.205.698-.261a.206.206 0 0 1 .069-.016.147.147 0 0 1 .147.176c-.095.413-.434 1.692-.582 2.279.106.038.339.057.455.048a.39.39 0 0 0 .082-.015l.015-.013.235-1.135c.042-.209.215-.193.194.038l-.119 1.17c.032.06.206.348.372.348s.34-.288.371-.347l-.12-1.171c-.019-.23.153-.247.196-.038l.234 1.135.017.013a.45.45 0 0 0 .081.015c.117.01.35-.01.455-.048-.147-.587-.486-1.866-.58-2.279a.147.147 0 0 1 .147-.176c.011 0 .038.003.07.016.145.055.564.213.696.261l-.088-.934c-.02-.232.167-.249.207-.04.183.825.287 1.945.885 2.312-.021-.177-.112-.87-.21-1.612l-.066-.498c-.099-.743-.192-1.434-.217-1.61-.015-.093-.016-.161-.12-.197-.075-.024-.142.006-.21.074l-.983.899a.153.153 0 0 1-.161.053.157.157 0 0 1-.107-.128l-.172-1.58a.265.265 0 0 0-.102-.196.356.356 0 0 0-.222-.07zm7.218 0s-.053.003-.058.005l-.01.003c-.14.022-.44.158-.551.211l-.04.345h.153c.042 0 .083.02.11.053.03.03.044.073.038.115l-.135 1.114a.159.159 0 0 1-.11.128.153.153 0 0 1-.16-.053l-.984-.899c-.069-.068-.135-.098-.21-.074-.104.036-.105.104-.12.197a344.6 344.6 0 0 0-.217 1.61l-.066.498a364.89 364.89 0 0 0-.21 1.612c.598-.367.702-1.487.886-2.313.04-.208.226-.19.206.04l-.088.935c.132-.048.551-.205.697-.261a.206.206 0 0 1 .07-.016.147.147 0 0 1 .147.176c-.096.413-.435 1.692-.582 2.279.106.038.34.057.455.048a.391.391 0 0 0 .082-.015l.016-.013.235-1.135c.042-.209.215-.193.194.038l-.119 1.17c.031.06.205.348.371.348s.34-.288.372-.347l-.12-1.171c-.02-.23.152-.247.195-.038l.234 1.135.017.013c.023.006.05.011.081.015.116.01.35-.01.455-.048-.147-.587-.486-1.866-.582-2.279a.147.147 0 0 1 .148-.176c.011 0 .038.003.07.016.145.055.564.213.696.261l-.087-.934c-.02-.232.166-.249.206-.04.184.825.287 1.945.885 2.312-.021-.177-.112-.87-.21-1.612l-.066-.498a344.62 344.62 0 0 0-.216-1.61c-.016-.093-.017-.161-.121-.197-.075-.024-.141.006-.21.074l-.983.899a.153.153 0 0 1-.16.053.156.156 0 0 1-.108-.128l-.171-1.58a.265.265 0 0 0-.103-.196.354.354 0 0 0-.222-.07zm0-8.509s-.052.003-.057.005l-.01.003c-.14.022-.44.158-.552.212l-.04.344h.153c.042 0 .084.02.111.053a.14.14 0 0 1 .038.116l-.136 1.113a.157.157 0 0 1-.11.128.152.152 0 0 1-.16-.053l-.984-.9c-.068-.067-.135-.097-.21-.072-.103.035-.105.103-.12.197-.025.176-.117.867-.216 1.61l-.066.498c-.098.742-.189 1.434-.21 1.612.598-.368.701-1.488.885-2.314.04-.208.226-.19.207.041l-.089.934.088-.032.256-.096.354-.133a.2.2 0 0 1 .069-.016.147.147 0 0 1 .147.176c-.095.413-.434 1.692-.581 2.279.105.039.339.057.454.047a.368.368 0 0 0 .082-.014l.016-.013.235-1.135c.042-.209.215-.193.194.038l-.119 1.17c.031.06.205.348.371.348s.34-.287.372-.348l-.12-1.17c-.02-.231.152-.247.195-.038l.234 1.135.017.013c.023.006.05.012.081.014.116.01.35-.008.455-.047-.147-.588-.486-1.866-.581-2.279a.147.147 0 0 1 .147-.176.2.2 0 0 1 .07.016l.353.133.256.096.088.032-.088-.934c-.02-.232.166-.249.206-.04.184.825.287 1.945.885 2.313-.02-.178-.111-.87-.21-1.612l-.066-.498a339.88 339.88 0 0 0-.216-1.61c-.015-.094-.017-.162-.12-.197-.075-.025-.142.005-.21.073l-.983.9a.152.152 0 0 1-.161.052.154.154 0 0 1-.107-.128l-.172-1.579a.264.264 0 0 0-.103-.196.357.357 0 0 0-.221-.07zm-7.22 0s-.052.002-.057.005l-.01.003c-.141.022-.441.158-.552.211l-.04.344h.154c.041 0 .082.021.11.054a.14.14 0 0 1 .038.116l-.136 1.113a.157.157 0 0 1-.11.128.152.152 0 0 1-.16-.053l-.983-.9c-.068-.067-.135-.098-.21-.072-.104.035-.105.103-.12.197a498.65 498.65 0 0 0-.493 3.72c.598-.368.701-1.488.885-2.314.04-.208.226-.19.207.041l-.089.934c.133-.047.552-.206.698-.261a.2.2 0 0 1 .07-.016.147.147 0 0 1 .146.176c-.095.413-.434 1.692-.581 2.279.105.039.338.057.454.047A.368.368 0 0 0 4.54 9.2l.016-.013.235-1.135c.042-.209.215-.193.194.038l-.119 1.17c.032.06.206.348.372.348s.34-.287.371-.348l-.12-1.17c-.019-.231.153-.247.196-.038l.234 1.135.017.013a.42.42 0 0 0 .081.014 1.4 1.4 0 0 0 .455-.047c-.147-.588-.486-1.866-.581-2.28a.148.148 0 0 1 .147-.175.2.2 0 0 1 .07.015l.353.134.256.096.088.032-.088-.934c-.02-.232.166-.25.206-.04.184.825.287 1.945.885 2.312a253.14 253.14 0 0 0-.21-1.612l-.066-.498c-.099-.742-.191-1.433-.217-1.61-.015-.093-.016-.161-.12-.196-.075-.026-.142.005-.21.072l-.983.9a.152.152 0 0 1-.16.053.155.155 0 0 1-.108-.128l-.172-1.58a.264.264 0 0 0-.102-.195.358.358 0 0 0-.222-.071zm11.49 23.855v18.79a3.99 3.99 0 0 0-1.088-.156H6.073c-2.764 0-5.102-2.175-5.102-5.204v-13.43h15.754zm-11.49 10.5s-.052.002-.057.004l-.01.003c-.141.022-.441.158-.552.211l-.04.345h.154c.041 0 .082.02.11.053a.14.14 0 0 1 .038.116l-.136 1.112a.157.157 0 0 1-.11.129.15.15 0 0 1-.16-.053l-.983-.899c-.068-.068-.135-.098-.21-.074-.104.036-.105.104-.12.197a503.84 503.84 0 0 0-.493 3.72c.598-.367.701-1.487.885-2.313.04-.208.226-.191.207.04l-.089.935c.133-.048.552-.206.698-.262a.22.22 0 0 1 .07-.015.147.147 0 0 1 .146.176c-.095.413-.434 1.692-.581 2.279.105.038.338.056.454.047a.366.366 0 0 0 .082-.015l.016-.012.235-1.136c.042-.208.215-.193.194.039l-.119 1.17c.032.06.206.348.372.348s.34-.288.371-.348l-.12-1.17c-.019-.232.153-.247.196-.039l.234 1.136.017.012c.022.007.05.012.081.015.117.01.35-.009.455-.047-.147-.587-.486-1.866-.581-2.279a.148.148 0 0 1 .147-.176.22.22 0 0 1 .07.016c.145.054.564.213.697.261l-.088-.934c-.02-.232.166-.249.206-.04.184.825.287 1.946.885 2.313-.021-.178-.112-.87-.21-1.613l-.066-.497c-.099-.743-.191-1.434-.217-1.61-.015-.094-.016-.162-.12-.198-.075-.024-.142.006-.21.074l-.983.899a.152.152 0 0 1-.16.053.155.155 0 0 1-.108-.129l-.172-1.578a.264.264 0 0 0-.102-.196.356.356 0 0 0-.222-.07zm7.22-.001s-.052.002-.057.005l-.01.002c-.14.023-.44.159-.552.212l-.04.344h.153c.042 0 .084.02.111.054a.14.14 0 0 1 .038.115l-.136 1.113a.157.157 0 0 1-.11.128.151.151 0 0 1-.16-.053s-.98-.896-.984-.898c-.068-.068-.135-.099-.21-.074-.103.035-.105.104-.12.197a498.75 498.75 0 0 0-.492 3.72c.598-.367.701-1.487.885-2.313.04-.208.226-.191.207.04l-.089.935c.022-.008.052-.02.088-.032l.256-.096.354-.134a.22.22 0 0 1 .069-.015.148.148 0 0 1 .147.176c-.095.413-.434 1.692-.581 2.279.105.038.339.056.454.047a.367.367 0 0 0 .082-.015l.016-.012.235-1.136c.042-.208.215-.193.194.039l-.119 1.17c.031.06.205.348.371.348s.34-.288.372-.348l-.12-1.17c-.02-.232.152-.247.195-.039l.234 1.136.017.012c.023.007.05.012.081.015.116.01.35-.009.455-.047-.147-.587-.486-1.866-.581-2.28a.148.148 0 0 1 .147-.175.22.22 0 0 1 .07.015l.353.134.256.096.088.032-.088-.934c-.02-.232.166-.25.206-.04.184.825.287 1.945.885 2.312a498.75 498.75 0 0 0-.492-3.72c-.015-.093-.017-.162-.12-.197-.075-.025-.142.006-.21.074-.004.002-.983.898-.983.898a.151.151 0 0 1-.161.053.154.154 0 0 1-.107-.128l-.172-1.578a.264.264 0 0 0-.103-.196.354.354 0 0 0-.221-.071zm0-8.509s-.052.002-.057.005l-.01.003c-.14.022-.44.158-.552.211l-.04.345h.153c.042 0 .084.02.111.053a.14.14 0 0 1 .038.116l-.136 1.113a.159.159 0 0 1-.11.128.153.153 0 0 1-.16-.053l-.984-.9c-.068-.067-.135-.098-.21-.073-.103.036-.105.104-.12.196-.025.177-.117.869-.216 1.611l-.066.498c-.098.743-.189 1.435-.21 1.613.598-.368.701-1.488.885-2.313.04-.21.226-.192.207.04l-.089.934c.133-.047.552-.207.698-.262a.206.206 0 0 1 .069-.015.147.147 0 0 1 .147.176c-.095.413-.434 1.691-.581 2.278.105.04.339.057.454.048a.346.346 0 0 0 .082-.015l.016-.012.235-1.135c.042-.21.215-.193.194.038l-.119 1.17c.031.06.205.348.371.348s.34-.288.372-.348l-.12-1.17c-.02-.231.152-.247.195-.038l.234 1.135.017.012c.023.007.05.012.081.015.116.01.35-.009.455-.048-.147-.587-.486-1.865-.581-2.278a.147.147 0 0 1 .147-.176c.012 0 .038.003.07.015.146.055.565.215.697.262l-.088-.934c-.02-.232.166-.25.206-.04.184.825.287 1.945.885 2.313-.02-.178-.111-.87-.21-1.613l-.066-.498c-.098-.742-.191-1.434-.216-1.61-.015-.093-.017-.16-.12-.197-.075-.025-.142.006-.21.074-.004.002-.983.899-.983.899a.153.153 0 0 1-.161.053.156.156 0 0 1-.107-.128l-.172-1.58a.266.266 0 0 0-.103-.196.36.36 0 0 0-.221-.07zm-7.22 0s-.052.002-.057.005l-.01.003c-.141.021-.441.157-.552.21l-.04.345h.154c.041 0 .082.02.11.054a.14.14 0 0 1 .038.116l-.136 1.112a.159.159 0 0 1-.11.129.152.152 0 0 1-.16-.054l-.983-.899c-.068-.068-.135-.098-.21-.073-.104.036-.105.104-.12.196a511.59 511.59 0 0 0-.493 3.722c.598-.368.701-1.488.885-2.313.04-.21.226-.192.207.04l-.089.934a16.6 16.6 0 0 0 .208-.077l.274-.103.216-.082a.206.206 0 0 1 .07-.015.147.147 0 0 1 .146.176c-.095.413-.434 1.691-.581 2.278.105.04.338.057.454.048a.345.345 0 0 0 .082-.015l.016-.012.235-1.135c.042-.21.215-.193.194.038l-.119 1.17c.032.06.206.348.372.348s.34-.288.371-.348l-.12-1.17c-.019-.231.153-.247.196-.038l.234 1.135.017.012c.022.007.05.012.081.015a1.4 1.4 0 0 0 .455-.048c-.147-.587-.486-1.865-.581-2.278a.147.147 0 0 1 .147-.176.22.22 0 0 1 .07.015l.353.133.256.096.088.032-.088-.934c-.02-.231.166-.249.206-.04.184.826.287 1.946.885 2.313-.021-.177-.112-.87-.21-1.612l-.066-.498c-.099-.743-.191-1.434-.217-1.61-.015-.093-.016-.161-.12-.197-.075-.025-.142.005-.21.073l-.983.9a.153.153 0 0 1-.16.053.157.157 0 0 1-.108-.129l-.172-1.579a.266.266 0 0 0-.102-.196.36.36 0 0 0-.222-.07zM39.693 1.47v18.634H23.936V1.471h15.756zm-11.491 10.5s-.053.003-.058.005l-.01.003c-.14.022-.44.158-.551.211l-.04.345h.153c.042 0 .083.02.11.053a.14.14 0 0 1 .038.115l-.135 1.114a.159.159 0 0 1-.11.128.153.153 0 0 1-.161-.053l-.983-.899c-.069-.068-.135-.098-.21-.074-.104.036-.105.104-.12.197-.025.176-.118.867-.217 1.61l-.066.498a253.14 253.14 0 0 0-.21 1.612c.598-.367.702-1.487.885-2.313.04-.208.227-.19.207.04l-.088.935c.132-.048.552-.205.698-.261a.206.206 0 0 1 .07-.016.147.147 0 0 1 .146.176c-.095.413-.434 1.692-.581 2.279.105.038.338.057.454.048a.39.39 0 0 0 .082-.015l.016-.013.234-1.135c.043-.209.216-.193.195.038l-.12 1.17c.033.06.206.348.372.348.167 0 .34-.288.372-.347l-.12-1.171c-.02-.23.153-.247.196-.038l.234 1.135.016.013a.45.45 0 0 0 .082.015c.116.01.35-.01.454-.048-.147-.587-.486-1.866-.582-2.279a.148.148 0 0 1 .148-.176c.01 0 .037.003.069.016l.354.133.256.096.087.032-.088-.934c-.02-.232.167-.249.207-.04.183.825.287 1.945.884 2.312-.02-.177-.111-.87-.21-1.612l-.065-.498a344.6 344.6 0 0 0-.217-1.61c-.015-.093-.017-.161-.121-.197-.074-.024-.14.006-.209.074l-.983.899a.153.153 0 0 1-.161.053.157.157 0 0 1-.107-.128l-.171-1.58a.266.266 0 0 0-.103-.196.354.354 0 0 0-.222-.07zm7.22 0s-.054.003-.059.005l-.01.003c-.141.022-.44.158-.551.211l-.04.345h.153a.15.15 0 0 1 .11.053c.031.03.044.073.039.115l-.136 1.114a.16.16 0 0 1-.11.128.152.152 0 0 1-.16-.053l-.984-.899c-.068-.068-.135-.098-.21-.074-.103.036-.105.104-.12.197-.025.176-.118.867-.216 1.61l-.066.498c-.099.743-.19 1.435-.21 1.612.598-.367.701-1.487.885-2.313.04-.208.226-.19.206.04l-.088.935c.132-.048.552-.205.698-.261a.204.204 0 0 1 .069-.016.147.147 0 0 1 .147.176c-.096.413-.434 1.692-.581 2.279.105.038.338.057.454.048a.386.386 0 0 0 .082-.015l.016-.013.234-1.135c.043-.209.215-.193.195.038l-.12 1.17c.032.06.206.348.372.348s.34-.288.371-.347l-.12-1.171c-.02-.23.153-.247.196-.038l.234 1.135.016.013a.63.63 0 0 0 .083.015c.116.01.349-.01.454-.048-.147-.587-.486-1.866-.581-2.279a.147.147 0 0 1 .147-.176c.011 0 .038.003.07.016.145.055.564.213.696.261l-.088-.934c-.02-.232.167-.249.207-.04.183.825.287 1.945.885 2.312-.021-.177-.112-.87-.21-1.612l-.066-.498c-.099-.743-.192-1.434-.217-1.61-.015-.093-.016-.161-.12-.197-.075-.024-.141.006-.21.074l-.983.899a.153.153 0 0 1-.16.053.156.156 0 0 1-.108-.128l-.171-1.58a.267.267 0 0 0-.103-.196.354.354 0 0 0-.222-.07zm0-8.509s-.054.003-.059.005l-.01.003c-.141.022-.44.158-.551.212l-.04.344h.153c.041 0 .083.02.11.053.031.03.044.073.039.116l-.136 1.113a.159.159 0 0 1-.11.128.152.152 0 0 1-.16-.053l-.984-.9c-.068-.067-.135-.097-.21-.072-.103.035-.105.103-.12.197-.025.176-.118.867-.216 1.61l-.066.498a212.57 212.57 0 0 0-.21 1.612c.598-.368.701-1.488.885-2.314.04-.208.226-.19.206.041l-.088.934.088-.032.256-.096.354-.133a.198.198 0 0 1 .069-.016.147.147 0 0 1 .147.176c-.096.413-.434 1.692-.581 2.279.105.039.338.057.454.047a.364.364 0 0 0 .082-.014l.016-.013.234-1.135c.043-.209.215-.193.195.038l-.12 1.17c.032.06.206.348.372.348s.34-.287.371-.348l-.12-1.17c-.02-.231.153-.247.196-.038l.234 1.135.016.013a.42.42 0 0 0 .083.014c.116.01.349-.008.454-.047-.147-.588-.486-1.866-.581-2.279a.148.148 0 0 1 .147-.176.2.2 0 0 1 .07.016c.145.054.564.214.696.261l-.088-.934c-.02-.232.167-.249.207-.04.183.825.287 1.945.885 2.313-.021-.178-.112-.87-.21-1.612l-.066-.498c-.099-.743-.192-1.434-.217-1.61-.015-.094-.016-.162-.12-.197-.075-.025-.141.005-.21.073l-.983.9a.152.152 0 0 1-.16.052.154.154 0 0 1-.108-.128l-.171-1.579a.266.266 0 0 0-.103-.196.357.357 0 0 0-.222-.07zm-7.22 0s-.052.002-.057.005l-.01.003c-.14.022-.44.158-.551.211l-.04.344h.153c.041 0 .083.02.11.054a.14.14 0 0 1 .037.116l-.135 1.113a.157.157 0 0 1-.11.128.152.152 0 0 1-.161-.053l-.983-.9c-.069-.067-.135-.097-.21-.072-.104.035-.105.103-.12.197-.025.176-.118.867-.217 1.61l-.066.498c-.098.742-.189 1.434-.21 1.612.598-.368.702-1.488.885-2.314.04-.208.227-.19.207.041l-.088.934c.132-.047.552-.206.698-.261a.2.2 0 0 1 .07-.016.147.147 0 0 1 .146.176c-.095.413-.434 1.692-.581 2.279.105.039.338.057.454.047a.368.368 0 0 0 .082-.014l.016-.013.234-1.135c.043-.209.216-.193.195.038l-.12 1.17c.033.06.206.348.372.348.167 0 .34-.287.372-.348l-.12-1.17c-.02-.231.153-.247.196-.038l.234 1.135.016.013a.42.42 0 0 0 .082.014c.116.01.35-.008.454-.047-.147-.588-.486-1.866-.581-2.28a.148.148 0 0 1 .147-.175.2.2 0 0 1 .07.015l.353.134.256.096.088.032-.088-.934c-.02-.232.167-.25.206-.04.184.825.287 1.945.885 2.312-.02-.177-.111-.869-.21-1.612l-.066-.498c-.098-.742-.191-1.433-.216-1.61-.015-.093-.017-.161-.121-.196-.074-.026-.141.005-.209.072l-.983.9a.152.152 0 0 1-.161.053.155.155 0 0 1-.108-.128l-.17-1.58a.265.265 0 0 0-.103-.195.356.356 0 0 0-.222-.071zm11.49 23.855v13.43c0 3.03-2.337 5.204-5.1 5.204h-9.566c-.345 0-.714.05-1.09.156v-18.79h15.756zm-11.49 10.499s-.053.002-.058.005l-.01.002c-.14.023-.44.159-.551.212l-.04.344h.153c.042 0 .083.02.11.054a.14.14 0 0 1 .038.115l-.135 1.113a.157.157 0 0 1-.11.128.151.151 0 0 1-.161-.053l-.983-.898c-.069-.068-.135-.099-.21-.074-.104.035-.105.104-.12.197a455.37 455.37 0 0 0-.492 3.72c.597-.367.7-1.487.884-2.313.04-.208.227-.191.207.04l-.088.935c.132-.048.552-.206.698-.262a.22.22 0 0 1 .07-.015.147.147 0 0 1 .146.176c-.095.413-.434 1.692-.581 2.279.105.038.338.056.454.047a.366.366 0 0 0 .082-.015l.016-.012.234-1.136c.043-.208.216-.193.195.039l-.12 1.17c.033.06.206.348.372.348.167 0 .34-.288.372-.348l-.12-1.17c-.02-.232.153-.247.196-.039l.234 1.136.016.012c.023.007.05.012.082.015.116.01.35-.009.454-.047-.147-.587-.486-1.866-.582-2.28a.148.148 0 0 1 .148-.175.22.22 0 0 1 .069.015l.354.134.256.096.087.032-.088-.934c-.02-.232.167-.25.207-.04.183.825.287 1.945.884 2.312a455.37 455.37 0 0 0-.492-3.72c-.015-.093-.017-.162-.121-.197-.074-.025-.14.006-.209.074-.004.002-.983.898-.983.898a.151.151 0 0 1-.161.053.155.155 0 0 1-.107-.128l-.171-1.578a.265.265 0 0 0-.103-.196.354.354 0 0 0-.222-.071zm7.22 0s-.054.002-.059.005l-.01.002c-.141.023-.44.159-.551.212l-.04.344h.153c.041 0 .083.02.11.054a.14.14 0 0 1 .039.115l-.136 1.113a.159.159 0 0 1-.11.128.15.15 0 0 1-.16-.053s-.98-.896-.984-.898c-.068-.068-.135-.099-.21-.074-.103.035-.105.104-.12.197a498.75 498.75 0 0 0-.492 3.72c.598-.367.701-1.487.885-2.313.04-.208.226-.191.206.04l-.088.935c.022-.008.052-.02.088-.032l.256-.096.354-.134a.218.218 0 0 1 .069-.015.148.148 0 0 1 .147.176c-.096.413-.434 1.692-.581 2.279.105.038.338.056.454.047a.363.363 0 0 0 .082-.015l.016-.012.234-1.136c.043-.208.215-.193.195.039l-.12 1.17c.032.06.206.348.372.348s.34-.288.371-.348l-.12-1.17c-.02-.232.153-.247.196-.039l.234 1.136.016.012c.023.007.05.012.083.015.116.01.349-.009.454-.047-.147-.587-.486-1.866-.581-2.28a.148.148 0 0 1 .147-.175.22.22 0 0 1 .07.015c.145.055.564.214.696.262l-.088-.934c-.02-.232.167-.25.207-.04.183.825.287 1.945.885 2.312a503.84 503.84 0 0 0-.493-3.72c-.015-.093-.016-.162-.12-.197-.075-.025-.141.006-.21.074l-.983.898a.152.152 0 0 1-.16.053.154.154 0 0 1-.108-.128l-.171-1.578a.266.266 0 0 0-.103-.196.354.354 0 0 0-.222-.071zm0-8.509s-.054.002-.059.005l-.01.003c-.141.022-.44.158-.551.211l-.04.345h.153c.041 0 .083.02.11.053.031.03.044.073.039.116l-.136 1.113a.16.16 0 0 1-.11.128.152.152 0 0 1-.16-.053l-.984-.9c-.068-.067-.135-.098-.21-.073-.103.036-.105.104-.12.196-.025.177-.118.869-.216 1.611l-.066.498a213.17 213.17 0 0 0-.21 1.613c.598-.368.701-1.488.885-2.313.04-.21.226-.192.206.04l-.088.934c.132-.047.552-.207.698-.262a.204.204 0 0 1 .069-.015.147.147 0 0 1 .147.176c-.096.413-.434 1.691-.581 2.278.105.04.338.057.454.048a.342.342 0 0 0 .082-.015l.016-.012.234-1.135c.043-.21.215-.193.195.038l-.12 1.17c.032.06.206.348.372.348s.34-.288.371-.348l-.12-1.17c-.02-.231.153-.247.196-.038l.234 1.135.016.012c.023.007.05.012.083.015.116.01.349-.009.454-.048-.147-.587-.486-1.865-.581-2.278a.147.147 0 0 1 .147-.176.22.22 0 0 1 .07.015l.216.082.273.103.207.077-.088-.934c-.02-.232.167-.25.207-.04.183.825.287 1.945.885 2.313-.021-.178-.112-.87-.21-1.613l-.066-.498a353.34 353.34 0 0 0-.217-1.61c-.015-.093-.016-.16-.12-.197-.075-.025-.141.006-.21.074l-.983.899a.153.153 0 0 1-.16.053.156.156 0 0 1-.108-.128l-.171-1.58a.267.267 0 0 0-.103-.196.36.36 0 0 0-.222-.07zm-7.22 0s-.053.002-.058.005l-.01.003c-.14.022-.44.158-.551.211l-.04.345h.153c.042 0 .083.02.11.053a.14.14 0 0 1 .038.116l-.135 1.113a.159.159 0 0 1-.11.128.153.153 0 0 1-.161-.053l-.983-.9c-.069-.067-.135-.098-.21-.073-.104.036-.105.104-.12.196-.025.177-.118.869-.217 1.611l-.066.498c-.098.743-.189 1.435-.21 1.613.598-.368.702-1.488.885-2.313.04-.21.227-.192.207.04l-.088.934c.132-.047.552-.207.698-.262a.206.206 0 0 1 .07-.015.147.147 0 0 1 .146.176c-.095.413-.434 1.691-.581 2.278.105.04.338.057.454.048a.345.345 0 0 0 .082-.015l.016-.012.234-1.135c.043-.21.216-.193.195.038l-.12 1.17c.033.06.206.348.372.348.167 0 .34-.288.372-.348l-.12-1.17c-.02-.231.153-.247.196-.038l.234 1.135.016.012c.023.007.05.012.082.015.116.01.35-.009.454-.048-.147-.587-.486-1.865-.582-2.278a.148.148 0 0 1 .148-.176c.01 0 .037.003.069.015.146.055.565.215.697.262l-.088-.934c-.02-.232.167-.25.207-.04.183.825.287 1.945.884 2.313-.02-.178-.111-.87-.21-1.613l-.065-.498c-.1-.742-.192-1.434-.217-1.61-.015-.093-.017-.16-.121-.197-.074-.025-.14.006-.209.074-.004.002-.983.899-.983.899a.153.153 0 0 1-.161.053.157.157 0 0 1-.107-.128l-.171-1.58a.267.267 0 0 0-.103-.196.359.359 0 0 0-.222-.07zm-7.87 4.773a.57.57 0 0 1 .413.172c0 .002.022.024.056.058l.258.257.082.081h.435c.234 0 .422.191.422.426v.493l.012.015.075.09.553.665.164.198.183.22a.873.873 0 0 1 .213.57.878.878 0 0 1-.857.873.875.875 0 0 1-1.274.686.867.867 0 0 1-1.47 0 .875.875 0 0 1-1.274-.685.878.878 0 0 1-.857-.875c0-.217.081-.416.213-.57.17-.202.692-.831.9-1.082l.075-.09.012-.015v-.493c0-.235.188-.426.422-.426h.436c.048-.047.394-.39.396-.396a.568.568 0 0 1 .412-.172zm0 .3a.282.282 0 0 0-.198.082l-.486.486h-.56c-.072 0-.119.057-.119.124v.602l-1.114 1.335c-.063.087-.074.192-.074.316 0 .292.214.534.495.58l.096.007.7-1.364a.118.118 0 0 1 .213.1l-.649 1.508a.587.587 0 0 0 .877.464l.28-1.526a.117.117 0 1 1 .233.03l-.17 1.586a.58.58 0 0 0 .476.292.58.58 0 0 0 .475-.292l-.168-1.585a.117.117 0 1 1 .233-.03l.28 1.525a.588.588 0 0 0 .877-.464l-.65-1.508a.118.118 0 0 1 .213-.1l.7 1.365a.59.59 0 0 0 .591-.588c0-.124-.01-.229-.074-.315l-1.114-1.335v-.603c0-.067-.047-.124-.119-.124h-.56l-.485-.486a.284.284 0 0 0-.199-.081zm0-13.222c.158 0 .304.06.413.172l.056.058.258.257.082.081h.435c.234 0 .422.192.422.426v.493l.64.77.164.197.183.22a.877.877 0 0 1 .213.57.878.878 0 0 1-.857.874.875.875 0 0 1-1.274.685.867.867 0 0 1-1.47 0 .875.875 0 0 1-1.274-.685.878.878 0 0 1-.857-.874c0-.217.081-.416.213-.57.043-.05.107-.128.183-.22l.164-.197.553-.665.075-.09.012-.015v-.493c0-.234.188-.426.422-.426h.436c.048-.047.394-.39.396-.396a.57.57 0 0 1 .412-.172zm-11.484 0a.57.57 0 0 1 .428.189l.299.298.082.081h.435c.234 0 .422.192.422.426v.493c.013.014.776.933.987 1.187a.877.877 0 0 1 .214.57.878.878 0 0 1-.858.874.875.875 0 0 1-1.274.685.87.87 0 0 1-1.47 0 .876.876 0 0 1-1.274-.685.878.878 0 0 1-.857-.874c0-.217.082-.416.214-.57l.9-1.082.075-.09.012-.015v-.493c0-.234.188-.426.421-.426h.435c.05-.047.395-.39.397-.396a.567.567 0 0 1 .412-.172zm22.966 0c.158 0 .303.06.412.172l.181.183.134.132c.039.04.07.07.082.081h.435c.234 0 .422.192.422.426v.493l.64.77.164.197.183.22a.877.877 0 0 1 .213.57.877.877 0 0 1-.857.874.875.875 0 0 1-1.274.685.87.87 0 0 1-1.47 0 .876.876 0 0 1-1.274-.685.878.878 0 0 1-.857-.874.87.87 0 0 1 .214-.57l.182-.22.164-.197.553-.665.075-.09.013-.015v-.493c0-.234.187-.426.421-.426h.435c.013-.011.043-.042.083-.08l.133-.133a5.9 5.9 0 0 0 .18-.183.569.569 0 0 1 .413-.172zm0 .3a.283.283 0 0 0-.199.081l-.485.487h-.56c-.071 0-.119.057-.119.123v.603l-1.114 1.335c-.063.086-.074.191-.074.315 0 .292.214.534.495.58l.095.008.701-1.365a.117.117 0 0 1 .212.1l-.649 1.509a.587.587 0 0 0 .877.463l.28-1.525a.117.117 0 0 1 .132-.094.117.117 0 0 1 .1.124l-.168 1.585c.096.17.272.28.476.293a.583.583 0 0 0 .475-.292l-.168-1.585a.118.118 0 0 1 .233-.03l.28 1.525a.588.588 0 0 0 .877-.463l-.65-1.509a.117.117 0 0 1 .212-.1l.702 1.364c.326 0 .59-.263.59-.587 0-.124-.011-.229-.074-.315l-1.114-1.336v-.603c0-.067-.047-.123-.119-.123h-.56l-.485-.487a.281.281 0 0 0-.199-.081zm-11.482 0a.28.28 0 0 0-.198.082l-.485.486h-.56c-.072 0-.12.057-.12.124v.603l-1.113 1.335c-.063.086-.075.19-.075.315 0 .292.214.534.495.58l.096.007.701-1.364a.118.118 0 0 1 .212.1l-.648 1.508a.587.587 0 0 0 .876.464l.28-1.525a.116.116 0 0 1 .133-.095.12.12 0 0 1 .1.125l-.169 1.585c.096.168.271.28.475.292a.582.582 0 0 0 .475-.292l-.168-1.585a.117.117 0 1 1 .233-.03l.28 1.525a.588.588 0 0 0 .877-.463l-.65-1.509a.117.117 0 1 1 .212-.1l.702 1.364c.326 0 .59-.263.59-.587 0-.124-.01-.229-.074-.315l-1.114-1.335v-.603c0-.067-.047-.124-.119-.124h-.56l-.485-.486a.282.282 0 0 0-.199-.081zm-11.483 0a.284.284 0 0 0-.2.082l-.484.486h-.56c-.072 0-.119.057-.119.124v.603l-1.115 1.335c-.063.086-.074.19-.074.315a.59.59 0 0 0 .495.58l.096.007.701-1.364a.117.117 0 0 1 .212.1l-.649 1.508a.588.588 0 0 0 .877.464l.28-1.525a.117.117 0 0 1 .132-.095.116.116 0 0 1 .1.125l-.167 1.585a.58.58 0 0 0 .474.292.583.583 0 0 0 .476-.292l-.168-1.585a.117.117 0 0 1 .232-.03l.28 1.525a.589.589 0 0 0 .877-.463l-.65-1.509a.117.117 0 0 1 .212-.1l.702 1.364c.326 0 .59-.263.59-.587 0-.124-.01-.229-.073-.315l-1.115-1.335v-.603c0-.067-.047-.124-.118-.124h-.56l-.486-.486a.282.282 0 0 0-.198-.081zM20.332 8.235a.57.57 0 0 1 .413.173l.056.058.194.194.146.144h.435c.234 0 .422.191.422.425v.494l.987 1.187a.873.873 0 0 1-.644 1.443.875.875 0 0 1-1.274.686.87.87 0 0 1-1.47 0 .875.875 0 0 1-1.274-.686.877.877 0 0 1-.857-.873c0-.218.081-.416.213-.57l.183-.22.164-.197.64-.77v-.494c0-.234.188-.425.422-.425h.436c.048-.047.394-.39.396-.396a.57.57 0 0 1 .412-.173zm0 .301a.282.282 0 0 0-.198.082l-.485.486h-.56c-.072 0-.12.058-.12.124v.602l-1.113 1.335c-.063.086-.075.192-.075.315 0 .293.214.535.495.58l.096.008.701-1.364a.118.118 0 0 1 .152-.055c.06.025.086.095.06.154l-.648 1.509a.587.587 0 0 0 .876.463l.28-1.524a.118.118 0 1 1 .233.03l-.169 1.585c.096.168.271.28.475.292a.581.581 0 0 0 .475-.292l-.168-1.586a.117.117 0 1 1 .233-.03l.28 1.525a.588.588 0 0 0 .877-.463l-.65-1.509a.118.118 0 0 1 .061-.154.118.118 0 0 1 .152.055l.7 1.364a.589.589 0 0 0 .591-.588c0-.123-.01-.229-.074-.315L21.695 9.83v-.602c0-.067-.047-.124-.119-.124h-.56l-.485-.486a.284.284 0 0 0-.199-.082z"/></g></svg>