<?xml version="1.0" encoding="UTF-8"?>
<svg width="173px" height="71px" viewBox="0 0 173 71" version="1.1" xmlns="http://www.w3.org/2000/svg" xmlns:xlink="http://www.w3.org/1999/xlink">
    <title>logo-ul</title>
    <g id="Page-1" stroke="none" stroke-width="1" fill="none" fill-rule="evenodd">
        <g id="thumbnail" transform="translate(-40.000000, -264.000000)">
            <g id="logo-ul" transform="translate(40.000000, 264.000000)">
                <g id="Group" transform="translate(67.108900, 4.841444)" fill="#FFFFFF" fill-rule="nonzero">
                    <path d="M8.58427538,4.26915875 L10.3087901,4.26915875 L10.3087901,12.8742246 C10.3087901,15.0966163 8.71777208,17.3408928 5.1560364,17.3408928 C1.925854,17.3408928 0,15.704464 0,12.9546509 L0,4.26915875 L1.944456,4.26915875 L1.944456,12.713372 C1.944456,14.927557 3.01571229,15.9539496 5.31470051,15.9539496 C7.57210779,15.9539496 8.58427538,14.327369 8.58427538,12.713372 L8.58427538,4.26915875 L8.58427538,4.26915875 Z" id="Path"></path>
                    <polygon id="Path" points="15.8396021 4.26915875 14.1687049 4.26915875 14.1687049 17.0979726 15.8363194 17.0979726 15.8363194 7.2897951 23.5162093 17.0990668 25.2740982 17.0990668 25.2740982 4.26915875 23.6010126 4.26915875 23.6010126 14.1982492"></polygon>
                    <polygon id="Path" points="31.3301431 4.26915875 31.3301431 17.0979726 29.4021006 17.0979726 29.4021006 4.26915875"></polygon>
                    <polygon id="Path" points="34.0504119 4.26915875 36.0134699 4.26915875 39.1829222 13.8929576 42.6729855 4.26915875 44.3192624 4.26915875 39.4263896 17.0979726 38.4393894 17.0979726"></polygon>
                    <polygon id="Path" points="54.5678696 4.26915875 54.5678696 5.62163349 48.866904 5.62163349 48.866904 9.80489478 53.4265822 9.80489478 53.4265822 11.1518983 48.866904 11.1518983 48.866904 15.7411209 54.5678696 15.7411209 54.5678696 17.0990668 46.9251836 17.0990668 46.9251836 4.26915875"></polygon>
                    <path d="M63.0793783,11.0731134 L63.2943955,11.0118362 C64.2786601,10.7202225 65.7093727,9.20580099 65.7093727,7.4916815 C65.7093727,5.93841459 64.2797543,4.26915875 61.1436762,4.26915875 L57.6317282,4.26915875 L57.6317282,17.0979726 L59.5761842,17.0979726 L59.5761842,5.47172327 L60.9691456,5.47172327 C63.045457,5.47172327 63.7829715,6.66608102 63.7829715,7.69028519 C63.7829715,8.76974825 62.9026593,10.2874525 60.9478081,10.2874525 C60.9478081,10.2874525 60.6178961,10.2874525 60.463609,10.2874525 L64.7732544,17.0985197 L67.0689599,17.0985197 L63.0793783,11.0731134 Z" id="Path"></path>
                    <path d="M74.9523776,14.0778833 C74.9523776,12.8725832 73.8099961,12.1859506 72.4903484,11.3882532 L72.0460889,11.1190713 C70.5787194,10.2267225 69.0156044,9.11880929 69.0156044,7.29636051 C69.0156044,5.4263125 70.6706352,4.01091923 72.8656711,4.01091923 C74.7472085,4.01091923 75.7927503,4.44970756 76.2742138,4.66034784 C76.23318,4.7522636 75.7922032,5.81640736 75.7451511,5.93349053 C75.321682,5.73926378 74.4233149,5.36065839 73.2010542,5.36065839 C71.8108283,5.36065839 70.9436469,5.96577047 70.9436469,6.94073406 C70.9436469,8.12633793 71.9207989,8.73035578 73.1638502,9.49249062 L73.7279284,9.83772183 C73.7251928,9.83772183 73.8072605,9.88915089 73.8072605,9.88915089 C75.0864215,10.6983378 77.0166524,11.9205986 77.0166524,13.6845058 C77.0166524,15.8713349 74.6799131,17.3430813 72.4914426,17.3430813 C70.3894167,17.3430813 69.1879465,16.7576654 68.6889752,16.5059913 C68.7338388,16.4031332 69.1852109,15.3904185 69.2339043,15.2782594 C69.237187,15.280995 69.2470352,15.2848248 69.2470352,15.2848248 C69.8094721,15.5359518 70.8615792,15.9982662 72.5308351,15.9982662 C73.8625194,15.9949835 74.9523776,15.1332732 74.9523776,14.0778833 Z" id="Path"></path>
                    <polygon id="Path" points="82.1984033 4.26915875 82.1984033 17.0979726 80.2747378 17.0979726 80.2747378 4.26915875"></polygon>
                    <polygon id="Path" points="95.0709866 4.26915875 95.0709866 5.62163349 90.8767829 5.62163349 90.8767829 17.0990668 88.9323269 17.0990668 88.9323269 5.62163349 84.7162386 5.62163349 84.7162386 4.26915875"></polygon>
                    <g transform="translate(97.586086, 0.000000)" id="Path">
                        <path d="M1.94719159,5.62163349 L1.94719159,9.80489478 L6.50686979,9.80489478 L6.50686979,11.1518983 L1.94719159,11.1518983 L1.94719159,15.7411209 C1.94719159,15.7411209 7.50864215,15.7411209 7.6470629,15.7411209 L7.6470629,17.0990668 L0,17.0990668 L0,4.26915875 L7.6470629,4.26915875 L7.6470629,5.62163349 L1.94719159,5.62163349 Z"></path>
                        <polygon points="5.73816954 0 6.49319185 1.12979787 3.19626111 2.93145618 2.74543619 2.23223987"></polygon>
                    </g>
                </g>
                <g id="Group" transform="translate(65.949010, 27.028157)" fill="#FFFFFF" fill-rule="nonzero">
                    <path d="M58.1941651,0.00109423523 L58.1941651,0.130213992 C60.9396013,1.18943369 59.426274,4.6619892 58.2379345,7.66675914 L52.2223763,22.8771759 L43.4356674,0.00109423523 L37.5650954,0.00109423523 L37.5650954,0.130213992 C39.2814034,1.44001356 40.1841475,4.02787988 41.0174076,6.18516464 L49.392684,27.8608703 L53.6224503,27.8608703 L64.7929507,0 L58.1941651,0.00109423523 L58.1941651,0.00109423523 Z" id="Path"></path>
                    <path d="M106.393039,23.7022293 C104.771382,24.4446679 102.98559,24.7964645 101.0001,24.7964645 L94.9818064,24.7964645 L94.9818064,0.00109423523 L88.4749366,0.00109423523 L88.4749366,0.130213992 C90.5151382,0.826147598 90.4680861,4.01146635 90.4680861,5.972883 L90.4642563,27.7158841 C88.2971234,26.6375153 87.1727967,24.1256983 86.1584406,21.7211164 L76.9575637,0.00109423523 L69.9659477,0.00109423523 L69.9659477,0.130213992 C72.0630495,0.752833838 71.2658992,2.54300267 70.62796,4.06508388 L63.2380424,21.7211164 C62.2291575,24.1262455 61.1852571,26.6211018 58.9431691,27.7322977 L58.9431691,27.8608703 L64.4750753,27.8608703 L67.3135215,20.4944787 L80.8858682,20.4944787 L83.8140417,27.8608703 L106.393039,27.8608703 L106.393039,23.7022293 Z M68.5128033,17.3759083 L74.0343143,3.60222238 L79.6444583,17.3759083 L68.5128033,17.3759083 Z" id="Shape"></path>
                    <path d="M40.0249362,21.7216635 L30.8202295,0.00164135284 L23.8329904,0.00164135284 L23.8329904,0.13076111 C25.9295451,0.753380956 25.1323948,2.54354979 24.4966441,4.065631 L24.4955499,4.06727235 L24.4944556,4.065631 L17.1056322,21.7216635 C16.7379692,22.5965046 16.3659292,23.482288 15.9331592,24.310077 C14.8662798,24.6257638 13.7331993,24.7970117 12.5246164,24.7970117 L6.50577556,24.7970117 L6.50577556,0.0038298233 L0,0.0038298233 L0,0.133496698 C2.04020159,0.828883187 1.99369659,4.01365482 1.99369659,5.97507147 L1.99041388,27.8619645 L18.3426652,27.8619645 L21.1805642,20.495573 L34.753458,20.495573 L34.7556465,20.495573 L37.6821786,27.8619645 L44.3657674,27.8619645 L44.3657674,27.7333919 C42.0509128,26.5636544 41.0447635,24.1355465 40.0249362,21.7216635 Z M22.3792989,17.3759083 L27.9008099,3.60222238 L33.5120481,17.3759083 L22.3792989,17.3759083 Z" id="Shape"></path>
                </g>
                <path d="M56.0609535,0 L56.0609535,55.4848387 C56.0609535,60.2606283 52.3848703,63.999083 47.6889598,63.999083 L34.502331,63.999083 C32.7395181,63.999083 30.4481895,65.1885167 29.2997896,68.5281226 L28.664039,70.3746446 C28.5075633,70.7570798 28.2821509,71 28.0326652,71 C27.7788027,71 27.5577671,70.7559855 27.4007444,70.3746446 L26.7655408,68.5281226 C25.617141,65.1890638 23.3219826,63.999083 21.5591696,63.999083 L8.37254086,63.999083 C3.67827172,63.999083 0,60.2606283 0,55.4848387 L0,0 L56.0609535,0 Z M54.7205154,1.33934392 L1.43270159,1.33934392 L1.43270159,54.3139801 C1.43270159,58.8737072 4.92902205,62.4430295 9.39108207,62.4430295 L21.9254143,62.4430295 C23.6010271,62.4430295 25.782652,63.5791741 26.8742445,66.7671698 L27.4780268,68.5301528 C27.6272822,68.8942415 27.8373838,69.1272164 28.0786887,69.1272164 C28.3158331,69.1272164 28.5300952,68.8952862 28.6788306,68.5301528 L29.2831329,66.7671698 C30.3747254,63.5786518 32.55271,62.4430295 34.2283227,62.4430295 L46.7626549,62.4430295 C51.2262751,62.4430295 54.7205154,58.8737072 54.7205154,54.3139801 L54.7205154,1.33934392 Z" id="Combined-Shape" fill="#FFFFFF" fill-rule="nonzero"></path>
                <path d="M23.0582719,1.33934392 L23.0582719,27.0287044 L1.3387968,27.0287044 L1.3387968,1.33934392 L23.0582719,1.33934392 Z M7.22085828,15.8127933 C7.22085828,15.8127933 7.14754452,15.8166231 7.14097911,15.8199058 C7.14097911,15.8199058 7.1283954,15.8237357 7.12675405,15.8237357 C6.9325273,15.8543742 6.51890638,16.0420356 6.36680768,16.1153493 L6.31100169,16.5902474 L6.52328332,16.5902474 C6.58018355,16.5902474 6.63708379,16.6186976 6.67538202,16.6635612 C6.71696296,16.7051421 6.73447072,16.764778 6.72790531,16.8227724 L6.54024397,18.3574373 C6.52984873,18.4400521 6.46747733,18.5100831 6.38923951,18.5347034 C6.30771898,18.5587766 6.21963305,18.5270438 6.16765687,18.4613897 L6.15248518,18.4475147 C6.00406016,18.3117765 4.81651573,17.2257587 4.81189942,17.2221683 C4.71834231,17.1280641 4.62642655,17.0864831 4.52356844,17.1204044 C4.37967651,17.169645 4.37803515,17.2637492 4.35724468,17.3912276 C4.28064822,17.9323269 3.74228449,21.9760732 3.67827172,22.5204553 C4.50277797,22.0143715 4.64502855,20.4698584 4.89834401,19.3318538 C4.95360289,19.0446171 5.21020105,19.0681431 5.18284517,19.3876598 L5.06138506,20.6755747 C5.24412234,20.6099206 5.82187854,20.3921677 6.02321782,20.3150242 C6.06644011,20.2980635 6.10309699,20.2942337 6.11841629,20.2942337 C6.29021122,20.300252 6.34218739,20.4501622 6.32139692,20.5366068 C6.18954158,21.1061562 5.72285025,22.8689692 5.5193225,23.6781561 C5.66485578,23.7312265 5.98601382,23.756394 6.14577217,23.7438103 C6.18954158,23.7394333 6.22783981,23.733415 6.25902551,23.7230198 L6.2803631,23.7060591 L6.60316249,22.1407556 C6.6622512,21.8535189 6.90024736,21.8754036 6.87179724,22.1932789 L6.70766196,23.8072759 C6.75143137,23.8893435 6.99106888,24.2865509 7.21976405,24.2865509 C7.44900633,24.2865509 7.68809672,23.8893435 7.73186613,23.8072759 L7.56718373,22.1932789 C7.53982785,21.8754036 7.7772769,21.8535189 7.8363656,22.1407556 L8.15916499,23.7060591 L8.18159681,23.7230198 C8.21278252,23.7323208 8.25108075,23.7394333 8.29430304,23.7438103 C8.4546085,23.7574882 8.77631366,23.7312265 8.92129983,23.6781561 C8.71831919,22.8689692 8.25162787,21.1061562 8.12086676,20.5366068 C8.10007629,20.4501622 8.15259958,20.3013462 8.32439451,20.2942337 C8.3397138,20.2942337 8.37637068,20.2980635 8.41959298,20.3150242 C8.62093226,20.3910735 9.19868846,20.6099206 9.38087862,20.6755747 L9.25941851,19.3876598 C9.23206263,19.0681431 9.48920791,19.0446171 9.54391967,19.3318538 C9.79723513,20.4698584 9.94003283,22.0143715 10.763992,22.5204553 C10.6994321,21.9760732 10.1621626,17.9323269 10.085019,17.3912276 C10.0642285,17.2637492 10.0625872,17.169645 9.91869524,17.1204044 C9.81583713,17.0870302 9.72392137,17.1280641 9.63036426,17.2221683 C9.62434596,17.2259981 8.27460681,18.4613897 8.27460681,18.4613897 L8.22943541,18.5039281 C8.17875864,18.5394223 8.11361745,18.5527583 8.05247706,18.5347034 C7.97423924,18.5100831 7.91569765,18.4400521 7.9047553,18.3574373 L7.66840049,16.1810035 C7.65855237,16.0628261 7.60985891,15.9758344 7.52669703,15.9101802 C7.44681786,15.8467146 7.33848857,15.8127933 7.22085828,15.8127933 Z M17.1729277,15.8127933 C17.1729277,15.8127933 17.0996139,15.8166231 17.0930485,15.8199058 L17.0793706,15.8237357 C16.8851438,15.8543742 16.47207,16.0420356 16.3188771,16.1153493 L16.2630711,16.5902474 L16.4748056,16.5902474 C16.532253,16.5902474 16.5897003,16.6186976 16.6274514,16.6635612 C16.6690324,16.7051421 16.6865401,16.764778 16.6794276,16.8227724 L16.4923134,18.3574373 C16.4819181,18.4400521 16.4195467,18.5100831 16.3413089,18.5347034 C16.2592413,18.5587766 16.1711553,18.5270438 16.1191792,18.4613897 L16.1040075,18.4475147 C15.9555825,18.3117765 14.768038,17.2257587 14.7634217,17.2221683 C14.6693175,17.1280641 14.5774017,17.0864831 14.4750907,17.1204044 C14.3311988,17.169645 14.3295575,17.2637492 14.308767,17.3912276 C14.2321705,17.9323269 13.6943539,21.9760732 13.6303411,22.5204553 C14.4543003,22.0143715 14.597098,20.4698584 14.8504134,19.3318538 C14.9051252,19.0446171 15.1622705,19.0681431 15.1349146,19.3876598 L15.0134545,20.6755747 C15.1956446,20.6099206 15.7734008,20.3921677 15.9747401,20.3150242 C16.0179624,20.2980635 16.0546193,20.2942337 16.0699386,20.2942337 C16.2417335,20.300252 16.2942568,20.4501622 16.2734663,20.5366068 C16.141611,21.1061562 15.6743725,22.8689692 15.4713919,23.6781561 C15.6169252,23.7312265 15.9386304,23.756394 16.0983887,23.7438103 C16.141611,23.7394333 16.1799092,23.733415 16.2110949,23.7230198 L16.2340739,23.7060591 L16.5568733,22.1407556 C16.6154148,21.8535189 16.853411,21.8754036 16.825508,22.1932789 L16.6608256,23.8072759 C16.7040479,23.8893435 16.9436854,24.2865509 17.1729277,24.2865509 C17.4016229,24.2865509 17.6418075,23.8893435 17.6850298,23.8072759 L17.5203474,22.1932789 C17.4924444,21.8754036 17.7298934,21.8535189 17.7889821,22.1407556 L18.1117815,23.7060591 L18.1342133,23.7230198 C18.1659462,23.7323208 18.2036973,23.7394333 18.2469196,23.7438103 C18.4066779,23.7574882 18.7283831,23.7312265 18.8739164,23.6781561 C18.6703886,22.8689692 18.2036973,21.1061562 18.0718419,20.5366068 C18.0510515,20.4501622 18.1030276,20.3013462 18.2748226,20.2942337 C18.290689,20.2942337 18.3273459,20.2980635 18.3705682,20.3150242 C18.5719074,20.3910735 19.1496636,20.6099206 19.3318538,20.6755747 L19.2109408,19.3876598 C19.1835849,19.0681431 19.4401831,19.0446171 19.495442,19.3318538 C19.7487574,20.4698584 19.891008,22.0143715 20.7149671,22.5204553 C20.6509544,21.9760732 20.1131378,17.9323269 20.0365413,17.3912276 C20.0157508,17.2637492 20.0135624,17.169645 19.8702175,17.1204044 C19.7673594,17.0870302 19.6754437,17.1280641 19.5818866,17.2221683 C19.5764154,17.2259981 18.2261291,18.4613897 18.2261291,18.4613897 L18.1809663,18.5039281 C18.1303151,18.5394223 18.0652765,18.5527583 18.0045465,18.5347034 C17.9257615,18.5100831 17.8672199,18.4400521 17.8568247,18.3574373 L17.6204699,16.1810035 C17.6100747,16.0628261 17.5619283,15.9758344 17.4782193,15.9101802 C17.3983402,15.8467146 17.290558,15.8127933 17.1729277,15.8127933 Z M17.1734748,4.08259164 C17.1734748,4.08259164 17.1001611,4.08587435 17.0935956,4.08915705 C17.0935956,4.08915705 17.0810119,4.09353399 17.0799177,4.09353399 C16.8856909,4.12362546 16.4726171,4.31128681 16.3194242,4.38514768 L16.2636182,4.85949866 L16.4753527,4.85949866 C16.5328001,4.85949866 16.5902474,4.88794877 16.6279986,4.93335953 C16.6695795,4.97439335 16.6870873,5.03402917 16.6799747,5.09311788 L16.4928605,6.62723567 C16.4824653,6.71039755 16.4200939,6.77988148 16.341856,6.80395466 C16.2597884,6.82857495 16.1717025,6.79629501 16.1197263,6.7306409 C16.1197263,6.7306409 14.7688929,5.49470221 14.7639688,5.49087238 C14.6698646,5.39731527 14.5779488,5.35573433 14.4756379,5.39074986 C14.3317459,5.43889621 14.3301046,5.53300044 14.3093141,5.66157308 C14.2327176,6.20212528 13.694901,10.2458716 13.6308883,10.7902536 C14.4548474,10.2836227 14.5976451,8.73965678 14.8509605,7.60110502 C14.9056723,7.31386828 15.1628176,7.33739433 15.1354617,7.65691102 L15.0140016,8.94482589 C15.1961918,8.87917177 15.773948,8.66032473 15.9752872,8.58427538 C16.0185095,8.56676761 16.0551664,8.56293779 16.0704857,8.56293779 C16.2422806,8.5695032 16.2948039,8.71941343 16.2740135,8.80531089 C16.1421581,9.37486033 15.6749197,11.1376733 15.471939,11.9468602 C15.6174723,12.0004778 15.9391775,12.0256452 16.0989358,12.0125144 C16.1421581,12.0086845 16.1804563,12.0026662 16.211642,11.992271 L16.2340739,11.9753104 L16.5568733,10.4100069 C16.6154148,10.122223 16.853411,10.1435606 16.825508,10.461983 L16.6608256,12.07598 C16.7040479,12.1591419 16.9436854,12.555255 17.1729277,12.555255 C17.4016229,12.555255 17.6418075,12.1591419 17.6850298,12.07598 L17.5203474,10.461983 C17.4924444,10.1435606 17.7298934,10.122223 17.7889821,10.4100069 L18.1117815,11.9753104 L18.1342133,11.992271 C18.1659462,12.001572 18.2036973,12.0086845 18.2469196,12.0125144 C18.4066779,12.0267394 18.7283831,12.0004778 18.8739164,11.9468602 C18.6703886,11.1371262 18.2036973,9.37486033 18.0723891,8.80531089 C18.0515986,8.71941343 18.1035748,8.57059744 18.2753697,8.56293779 C18.2912361,8.56293779 18.327893,8.56676761 18.3711153,8.58427538 C18.5724546,8.65977761 19.1502108,8.87917177 19.3324009,8.94482589 L19.2114879,7.65691102 C19.184132,7.33739433 19.4407302,7.31386828 19.4959891,7.60110502 C19.7493045,8.73965678 19.8915551,10.2836227 20.7155143,10.7902536 C20.6515015,10.2458716 20.1136849,6.20212528 20.0370884,5.66157308 C20.0162979,5.53300044 20.0141095,5.43889621 19.8707647,5.39074986 C19.7679065,5.35573433 19.6759908,5.39731527 19.5824337,5.49087238 C19.5769625,5.49470221 18.2266762,6.7306409 18.2266762,6.7306409 C18.1747,6.79629501 18.086067,6.82857495 18.0050936,6.80395466 C17.9263087,6.77988148 17.8677671,6.71039755 17.8573718,6.62723567 L17.621017,4.45025468 C17.6106218,4.33262439 17.5624754,4.24508557 17.4787664,4.17997858 C17.3988873,4.11706005 17.2911051,4.08259164 17.1734748,4.08259164 Z M7.21976405,4.08204452 C7.21976405,4.08204452 7.14645029,4.08532723 7.13988487,4.08860994 C7.13988487,4.08860994 7.12730117,4.09298688 7.12565982,4.09298688 C6.93143306,4.12307835 6.51781215,4.31073969 6.36571345,4.38460057 L6.30990745,4.85895154 L6.52218909,4.85895154 C6.57908932,4.85895154 6.63598955,4.88740165 6.67428778,4.93281242 C6.71586872,4.97384624 6.73337649,5.03348206 6.72681107,5.09257076 L6.53914973,6.62668855 C6.5287545,6.70985043 6.46638309,6.77933437 6.38814527,6.80340754 C6.30662475,6.82802783 6.21853881,6.79574789 6.16656264,6.73009378 C6.16656264,6.73009378 4.81572925,5.49415509 4.81080519,5.49032527 C4.71724808,5.39676815 4.62533232,5.35518721 4.5224742,5.39020274 C4.37858227,5.43834909 4.37694092,5.53245332 4.35615045,5.66157308 C4.27955398,6.20212528 3.74119025,10.2458716 3.67717749,10.7902536 C4.50168374,10.2836227 4.64393432,8.73965678 4.89724977,7.60110502 C4.95250865,7.31386828 5.20910681,7.33739433 5.18175093,7.65691102 L5.06029082,8.94482589 C5.2430281,8.87917177 5.8207843,8.66032473 6.02212359,8.58427538 C6.06534588,8.56676761 6.10200276,8.56293779 6.11732205,8.56293779 C6.28911698,8.5695032 6.34109316,8.71941343 6.32030269,8.80531089 C6.18844734,9.37486033 5.72175602,11.1376733 5.51822826,11.9468602 C5.66376155,12.0004778 5.98491959,12.0256452 6.14467793,12.0125144 C6.18844734,12.0086845 6.22674557,12.0026662 6.25793128,11.992271 L6.2803631,11.9753104 L6.60316249,10.4100069 C6.6622512,10.122223 6.90024736,10.1435606 6.87179724,10.461983 L6.70766196,12.07598 C6.75143137,12.1591419 6.99106888,12.555255 7.21976405,12.555255 C7.44900633,12.555255 7.68809672,12.1591419 7.73186613,12.07598 L7.56718373,10.461983 C7.53982785,10.1435606 7.7772769,10.122223 7.8363656,10.4100069 L8.15916499,11.9753104 L8.18159681,11.992271 C8.21278252,12.001572 8.25108075,12.0086845 8.29430304,12.0125144 C8.4546085,12.0267394 8.77631366,12.0004778 8.92129983,11.9468602 C8.71831919,11.1371262 8.25162787,9.37486033 8.11977252,8.80476378 C8.09898205,8.71886631 8.15150534,8.57005032 8.32330028,8.56239067 C8.33861957,8.56239067 8.37527645,8.5662205 8.41849874,8.58372826 C8.61983802,8.65923049 9.19759422,8.87862465 9.37978439,8.94427877 L9.25832428,7.6563639 C9.2309684,7.33684722 9.48811368,7.31332116 9.54282544,7.60055791 C9.79614089,8.73910966 9.93893859,10.2830756 10.7628977,10.7897065 C10.6983378,10.2453245 10.1610683,6.20157816 10.0839248,5.66102596 C10.0631343,5.53245332 10.0614929,5.43834909 9.917601,5.39020274 C9.81474289,5.35518721 9.72282713,5.39676815 9.62927002,5.49032527 C9.62325173,5.49415509 8.27351257,6.73009378 8.27351257,6.73009378 C8.2215364,6.79574789 8.13290335,6.82802783 8.05138282,6.80340754 C7.973145,6.77933437 7.91460342,6.70985043 7.90366106,6.62668855 L7.66730625,4.44970756 C7.65745814,4.33207727 7.60876467,4.24453846 7.52560279,4.17943146 C7.44572362,4.11651293 7.33739433,4.08204452 7.21976405,4.08204452 Z" id="Combined-Shape" fill="#FFFFFF" fill-rule="nonzero"></path>
                <path d="M23.0582719,36.9698315 L23.0582719,62.8731149 C22.54234,62.7264874 22.0351619,62.659192 21.5591696,62.659192 L8.37254086,62.659192 C4.56186667,62.659192 1.3387968,59.6609874 1.3387968,55.4848387 L1.3387968,36.9698315 L23.0582719,36.9698315 Z M7.21976405,51.4443751 C7.21976405,51.4443751 7.14645029,51.4476578 7.13988487,51.4509405 C7.13988487,51.4509405 7.12730117,51.4547703 7.12565982,51.4547703 C6.93143306,51.4854089 6.51781215,51.6730703 6.36571345,51.746384 L6.30990745,52.2212821 L6.52218909,52.2212821 C6.57908932,52.2212821 6.63598955,52.2491851 6.67428778,52.2945959 C6.71586872,52.3361768 6.73337649,52.3958126 6.72681107,52.4543542 L6.53914973,53.9879249 C6.5287545,54.0716339 6.46638309,54.1411178 6.38814527,54.165191 C6.30662475,54.1898113 6.21853881,54.1580785 6.16656264,54.0918772 C6.16656264,54.0918772 4.81572925,52.8564857 4.81080519,52.8532029 C4.71724808,52.7590987 4.62533232,52.7175178 4.5224742,52.7514391 C4.37858227,52.8001325 4.37694092,52.8936897 4.35615045,53.0222623 C4.27955398,53.5633616 3.74119025,57.6065608 3.67717749,58.1514899 C4.50168374,57.6454061 4.64393432,56.100346 4.89724977,54.9623414 C4.95250865,54.6751046 5.20910681,54.6986307 5.18175093,55.0186945 L5.06029082,56.3060622 C5.2430281,56.2404081 5.8207843,56.0221082 6.02212359,55.9455117 C6.06534588,55.9290982 6.10200276,55.9241741 6.11732205,55.9241741 C6.28911698,55.9312867 6.34109316,56.0806498 6.32030269,56.1670943 C6.18844734,56.7366438 5.72175602,58.4994567 5.51822826,59.3086437 C5.66376155,59.3617141 5.98491959,59.3868815 6.14467793,59.3742978 C6.18844734,59.370468 6.22674557,59.3639026 6.25793128,59.3535073 L6.2803631,59.3365467 L6.60316249,57.7712432 C6.6622512,57.4834593 6.90024736,57.5047969 6.87179724,57.8237665 L6.70766196,59.4377634 C6.75143137,59.5203782 6.99106888,59.9170385 7.21976405,59.9170385 C7.44900633,59.9170385 7.68809672,59.5203782 7.73186613,59.4377634 L7.56718373,57.8237665 C7.53982785,57.5047969 7.7772769,57.4834593 7.8363656,57.7712432 L8.15916499,59.3365467 L8.18159681,59.3535073 C8.21278252,59.3628083 8.25108075,59.370468 8.29430304,59.3742978 C8.4546085,59.3879757 8.77631366,59.3617141 8.92129983,59.3086437 C8.71831919,58.4994567 8.25162787,56.7366438 8.11977252,56.1676415 C8.09898205,56.0811969 8.15150534,55.932928 8.32330028,55.9247212 C8.33861957,55.9247212 8.37527645,55.9296453 8.41849874,55.9460588 C8.61983802,56.0215611 9.19759422,56.2409552 9.37978439,56.3066093 L9.25832428,55.0192416 C9.2309684,54.6991778 9.48811368,54.6756517 9.54282544,54.9628885 C9.79614089,56.1008931 9.93893859,57.6459533 10.7628977,58.152037 C10.6983378,57.6071079 10.1610683,53.5639087 10.0839248,53.0228094 C10.0631343,52.8942368 10.0614929,52.8001325 9.917601,52.7514391 C9.81474289,52.7175178 9.72282713,52.7590987 9.62927002,52.8532029 C9.62325173,52.8564857 8.27351257,54.0918772 8.27351257,54.0918772 C8.2215364,54.1580785 8.13290335,54.1898113 8.05138282,54.165191 C7.973145,54.1411178 7.91460342,54.0716339 7.90366106,53.9879249 L7.66730625,51.8120381 C7.65745814,51.6944078 7.60876467,51.606869 7.52560279,51.541762 C7.44572362,51.4782964 7.33739433,51.4443751 7.21976405,51.4443751 Z M17.1734748,51.443828 C17.1734748,51.443828 17.1001611,51.4471107 17.0935956,51.4503934 C17.0935956,51.4503934 17.0810119,51.4542232 17.0799177,51.4542232 C16.8856909,51.4848618 16.4726171,51.6725231 16.3194242,51.7458369 L16.2636182,52.220735 L16.4753527,52.220735 C16.5328001,52.220735 16.5902474,52.248638 16.6279986,52.2940487 C16.6695795,52.3356297 16.6870873,52.3952655 16.6799747,52.4538071 L16.4928605,53.9873778 C16.4824653,54.0710868 16.4200939,54.1405707 16.341856,54.1646439 C16.2597884,54.1892642 16.1717025,54.1575313 16.1197263,54.0913301 C16.1197263,54.0913301 14.7688929,52.8559385 14.7639688,52.8526558 C14.6698646,52.7585516 14.5779488,52.7169707 14.4756379,52.750892 C14.3317459,52.7995854 14.3301046,52.8936897 14.3093141,53.0222623 C14.2327176,53.5633616 13.694901,57.6065608 13.6308883,58.1514899 C14.4548474,57.6454061 14.5976451,56.100346 14.8509605,54.9623414 C14.9056723,54.6751046 15.1628176,54.6986307 15.1354617,55.0186945 L15.0140016,56.3060622 C15.1961918,56.2404081 15.773948,56.0221082 15.9752872,55.9455117 C16.0185095,55.9290982 16.0551664,55.9241741 16.0704857,55.9241741 C16.2422806,55.9312867 16.2948039,56.0806498 16.2740135,56.1670943 C16.1421581,56.7366438 15.6749197,58.4994567 15.471939,59.3086437 C15.6174723,59.3617141 15.9391775,59.3868815 16.0989358,59.3742978 C16.1421581,59.370468 16.1804563,59.3639026 16.211642,59.3535073 L16.2340739,59.3365467 L16.5568733,57.7712432 C16.6154148,57.4834593 16.853411,57.5047969 16.825508,57.8237665 L16.6608256,59.4377634 C16.7040479,59.5203782 16.9436854,59.9170385 17.1729277,59.9170385 C17.4016229,59.9170385 17.6418075,59.5203782 17.6850298,59.4377634 L17.5203474,57.8237665 C17.4924444,57.5047969 17.7298934,57.4834593 17.7889821,57.7712432 L18.1117815,59.3365467 L18.1342133,59.3535073 C18.1659462,59.3628083 18.2036973,59.370468 18.2469196,59.3742978 C18.4066779,59.3879757 18.7283831,59.3617141 18.8739164,59.3086437 C18.6703886,58.4994567 18.2036973,56.7366438 18.0723891,56.1670943 C18.0515986,56.0806498 18.1035748,55.9323809 18.2753697,55.9241741 C18.2912361,55.9241741 18.327893,55.9290982 18.3711153,55.9455117 C18.5724546,56.0210139 19.1502108,56.2404081 19.3324009,56.3060622 L19.2114879,55.0186945 C19.184132,54.6986307 19.4407302,54.6751046 19.4959891,54.9623414 C19.7493045,56.100346 19.8915551,57.6454061 20.7155143,58.1514899 C20.6515015,57.6065608 20.1136849,53.5633616 20.0370884,53.0222623 C20.0162979,52.8936897 20.0141095,52.7995854 19.8707647,52.750892 C19.7679065,52.7169707 19.6759908,52.7585516 19.5824337,52.8526558 C19.58004,52.854092 19.3202404,53.0913615 19.0287231,53.3578353 L18.7763475,53.5885742 C18.4851295,53.8548684 18.2266762,54.0913301 18.2266762,54.0913301 C18.1747,54.1575313 18.086067,54.1892642 18.0050936,54.1646439 C17.9263087,54.1405707 17.8677671,54.0710868 17.8573718,53.9873778 L17.621017,51.811491 C17.6106218,51.6938607 17.5624754,51.6063219 17.4787664,51.5412149 C17.3988873,51.4777493 17.2911051,51.443828 17.1734748,51.443828 Z M17.1734748,39.7130792 C17.1734748,39.7130792 17.1001611,39.7163619 17.0935956,39.7201917 C17.0935956,39.7201917 17.0810119,39.7240215 17.0799177,39.7240215 C16.8856909,39.754113 16.4726171,39.9417744 16.3194242,40.0150881 L16.2636182,40.4905333 L16.4753527,40.4905333 C16.5328001,40.4905333 16.5902474,40.5184363 16.6279986,40.5638471 C16.6695795,40.6048809 16.6870873,40.6645167 16.6799747,40.7236054 L16.4928605,42.2577232 C16.4824653,42.3408851 16.4200939,42.410369 16.341856,42.4349893 C16.2597884,42.4590625 16.1717025,42.4267826 16.1197263,42.3611284 C16.1197263,42.3611284 14.7688929,41.1251898 14.7639688,41.1219071 C14.6698646,41.0278028 14.5779488,40.9862219 14.4756379,41.0206903 C14.3317459,41.0699309 14.3301046,41.163488 14.3093141,41.2909664 C14.2327176,41.8326128 13.694901,45.8769062 13.6308883,46.4212883 C14.4548474,45.9146574 14.5976451,44.3706914 14.8509605,43.2321397 C14.9056723,42.9443558 15.1628176,42.968429 15.1354617,43.2873986 L15.0140016,44.5753134 C15.1961918,44.5102064 15.773948,44.2908123 15.9752872,44.2147629 C16.0185095,44.1978023 16.0551664,44.1939725 16.0704857,44.1939725 C16.2422806,44.1999908 16.2948039,44.349901 16.2740135,44.4363456 C16.1421581,45.0053479 15.6749197,46.7681608 15.471939,47.5773478 C15.6174723,47.6309653 15.9391775,47.6561327 16.0989358,47.6430019 C16.1421581,47.638625 16.1804563,47.6337009 16.211642,47.6222114 L16.2340739,47.6052508 L16.5568733,46.0404944 C16.6154148,45.7527105 16.853411,45.7745952 16.825508,46.0930177 L16.6608256,47.7064675 C16.7040479,47.7896294 16.9436854,48.1857426 17.1729277,48.1857426 C17.4016229,48.1857426 17.6418075,47.7896294 17.6850298,47.7064675 L17.5203474,46.0930177 C17.4924444,45.7745952 17.7298934,45.7527105 17.7889821,46.0404944 L18.1117815,47.6052508 L18.1342133,47.6222114 C18.1659462,47.6326067 18.2036973,47.638625 18.2469196,47.6430019 C18.4066779,47.657227 18.7283831,47.6309653 18.8739164,47.5773478 C18.6703886,46.7676137 18.2036973,45.0053479 18.0723891,44.4363456 C18.0515986,44.349901 18.1035748,44.201085 18.2753697,44.1939725 C18.2912361,44.1939725 18.327893,44.1978023 18.3711153,44.2147629 C18.5724546,44.2902652 19.1502108,44.5102064 19.3324009,44.5753134 L19.2114879,43.2873986 C19.184132,42.968429 19.4407302,42.9443558 19.4959891,43.2321397 C19.7493045,44.3706914 19.8915551,45.9146574 20.7155143,46.4212883 C20.6515015,45.8769062 20.1136849,41.8326128 20.0370884,41.2909664 C20.0162979,41.163488 20.0141095,41.0699309 19.8707647,41.0206903 C19.7679065,40.9862219 19.6759908,41.0278028 19.5824337,41.1219071 C19.5769625,41.1251898 18.2266762,42.3611284 18.2266762,42.3611284 C18.1747,42.4267826 18.086067,42.4590625 18.0050936,42.4349893 C17.9263087,42.410369 17.8677671,42.340338 17.8573718,42.2577232 L17.621017,40.0807422 C17.6106218,39.9631119 17.5624754,39.8755731 17.4787664,39.809919 C17.3988873,39.7475476 17.2911051,39.7130792 17.1734748,39.7130792 Z M7.21976405,39.7125321 C7.21976405,39.7125321 7.14645029,39.7158148 7.13988487,39.7196446 C7.13988487,39.7196446 7.12730117,39.7234744 7.12565982,39.7234744 C6.93143306,39.7535659 6.51781215,39.9412272 6.36571345,40.014541 L6.30990745,40.4899862 L6.52218909,40.4899862 C6.57908932,40.4899862 6.63598955,40.5178892 6.67428778,40.5633 C6.71586872,40.6043338 6.73337649,40.6639696 6.72681107,40.7230583 L6.53914973,42.2571761 C6.5287545,42.340338 6.46638309,42.4098219 6.38814527,42.4344422 C6.30662475,42.4585154 6.21853881,42.4262354 6.16656264,42.3605813 C6.16656264,42.3605813 4.81572925,41.1246426 4.81080519,41.1213599 C4.71724808,41.0272557 4.62533232,40.9856748 4.5224742,41.0201432 C4.37858227,41.0693838 4.37694092,41.1629409 4.35615045,41.2909664 C4.27955398,41.8326128 3.74119025,45.8769062 3.67717749,46.4212883 C4.50168374,45.9146574 4.64393432,44.3706914 4.89724977,43.2321397 C4.95250865,42.9443558 5.20910681,42.968429 5.18175093,43.2873986 L5.06029082,44.5753134 C5.2430281,44.5102064 5.8207843,44.2908123 6.02212359,44.2147629 C6.06534588,44.1978023 6.10200276,44.1939725 6.11732205,44.1939725 C6.28911698,44.1999908 6.34109316,44.349901 6.32030269,44.4363456 C6.18844734,45.0053479 5.72175602,46.7681608 5.51822826,47.5773478 C5.66376155,47.6309653 5.98491959,47.6561327 6.14467793,47.6430019 C6.18844734,47.638625 6.22674557,47.6337009 6.25793128,47.6222114 L6.2803631,47.6052508 L6.60316249,46.0404944 C6.6622512,45.7527105 6.90024736,45.7745952 6.87179724,46.0930177 L6.70766196,47.7064675 C6.75143137,47.7896294 6.99106888,48.1857426 7.21976405,48.1857426 C7.44900633,48.1857426 7.68809672,47.7896294 7.73186613,47.7064675 L7.56718373,46.0930177 C7.53982785,45.7745952 7.7772769,45.7527105 7.8363656,46.0404944 L8.15916499,47.6052508 L8.18159681,47.6222114 C8.21278252,47.6326067 8.25108075,47.638625 8.29430304,47.6430019 C8.4546085,47.657227 8.77631366,47.6309653 8.92129983,47.5773478 C8.71831919,46.7676137 8.25162787,45.0053479 8.11977252,44.4357984 C8.09898205,44.3493539 8.15150534,44.2005379 8.32330028,44.1934253 C8.33861957,44.1934253 8.37527645,44.1972552 8.41849874,44.2142158 C8.61983802,44.289718 9.19759422,44.5096593 9.37978439,44.5747663 L9.25832428,43.2868515 C9.2309684,42.9678819 9.48811368,42.9438087 9.54282544,43.2315926 C9.79614089,44.3701443 9.93893859,45.9141102 10.7628977,46.4207412 C10.6983378,45.8763591 10.1610683,41.8320657 10.0839248,41.2904193 C10.0631343,41.1629409 10.0614929,41.0693838 9.917601,41.0201432 C9.81474289,40.9856748 9.72282713,41.0272557 9.62927002,41.1213599 C9.62325173,41.1246426 8.27351257,42.3605813 8.27351257,42.3605813 C8.2215364,42.4262354 8.13290335,42.4585154 8.05138282,42.4344422 C7.973145,42.4098219 7.91460342,42.3397909 7.90366106,42.2571761 L7.66730625,40.0801951 C7.65745814,39.9625648 7.60876467,39.875026 7.52560279,39.8093719 C7.44572362,39.7470005 7.33739433,39.7125321 7.21976405,39.7125321 Z" id="Combined-Shape" fill="#FFFFFF" fill-rule="nonzero"></path>
                <path d="M54.7205154,1.33934392 L54.7205154,27.0287044 L32.9993989,27.0287044 L32.9993989,1.33934392 L54.7205154,1.33934392 Z M38.8803662,15.8127933 C38.8803662,15.8127933 38.8075995,15.8166231 38.8010341,15.8199058 C38.8010341,15.8199058 38.7884504,15.8237357 38.7868091,15.8237357 C38.5931294,15.8543742 38.1795085,16.0420356 38.0268627,16.1153493 L37.9710567,16.5902474 L38.1827912,16.5902474 C38.2402386,16.5902474 38.2971388,16.6186976 38.335437,16.6635612 C38.377018,16.7051421 38.3939786,16.764778 38.3874132,16.8227724 L38.200299,18.3574373 C38.1899038,18.4400521 38.1275323,18.5100831 38.0492945,18.5347034 C37.9672269,18.5587766 37.8791409,18.5270438 37.8271648,18.4613897 L37.8119931,18.4475147 C37.6635681,18.3117765 36.4760236,17.2257587 36.4714073,17.2221683 C36.3773031,17.1280641 36.2859345,17.0864831 36.1830763,17.1204044 C36.0397315,17.169645 36.0375431,17.2637492 36.0167526,17.3912276 C35.9401561,17.9323269 35.4017924,21.9760732 35.3383267,22.5204553 C36.1622859,22.0143715 36.3045365,20.4698584 36.5578519,19.3318538 C36.6131108,19.0446171 36.8697089,19.0681431 36.8429002,19.3876598 L36.7214401,20.6755747 C36.9036302,20.6099206 37.4819336,20.3921677 37.6832728,20.3150242 C37.7264951,20.2980635 37.763152,20.2942337 37.7790184,20.2942337 C37.9502662,20.300252 38.0022424,20.4501622 37.9814519,20.5366068 C37.8501437,21.1061562 37.3829053,22.8689692 37.1799246,23.6781561 C37.3249108,23.7312265 37.646616,23.756394 37.8063743,23.7438103 C37.8501437,23.7394333 37.8884419,23.733415 37.9196277,23.7230198 L37.9420595,23.7060591 L38.2648589,22.1407556 C38.3239476,21.8535189 38.5613966,21.8754036 38.5334936,22.1932789 L38.3688112,23.8072759 C38.4125806,23.8893435 38.6522181,24.2865509 38.8809133,24.2865509 C39.1101556,24.2865509 39.349246,23.8893435 39.3930154,23.8072759 L39.228333,22.1932789 C39.2009771,21.8754036 39.4389733,21.8535189 39.4975149,22.1407556 L39.8203142,23.7060591 L39.8427461,23.7230198 C39.8739318,23.7323208 39.91223,23.7394333 39.9554523,23.7438103 C40.1152106,23.7574882 40.4374629,23.7312265 40.581902,23.6781561 C40.3794684,22.8689692 39.91223,21.1061562 39.7792804,20.5366068 C39.7590371,20.4501622 39.8115604,20.3013462 39.9828082,20.2942337 C39.9981275,20.2942337 40.0347844,20.2980635 40.0780066,20.3150242 C40.2793459,20.3910735 40.8571021,20.6099206 41.0392923,20.6755747 L40.9178322,19.3876598 C40.8910234,19.0681431 41.1481687,19.0446171 41.2028805,19.3318538 C41.4556488,20.4698584 41.5984465,22.0143715 42.4224056,22.5204553 C42.3583929,21.9760732 41.8205762,17.9323269 41.7439798,17.3912276 C41.7231893,17.2637492 41.7210008,17.169645 41.5771089,17.1204044 C41.4747979,17.0870302 41.3828822,17.1280641 41.289325,17.2221683 C41.2833067,17.2259981 39.9335676,18.4613897 39.9335676,18.4613897 L39.8884731,18.5039281 C39.8379246,18.5394223 39.7729886,18.5527583 39.7114378,18.5347034 C39.6332,18.5100831 39.5746584,18.4400521 39.5637161,18.3574373 L39.3279084,16.1810035 C39.3180603,16.0628261 39.2688197,15.9758344 39.1862049,15.9101802 C39.1068729,15.8467146 38.9985436,15.8127933 38.8803662,15.8127933 Z M48.8329827,15.8127933 C48.8329827,15.8127933 48.759669,15.8166231 48.7531035,15.8199058 C48.7531035,15.8199058 48.7405198,15.8237357 48.7388785,15.8237357 C48.5446517,15.8543742 48.1315779,16.0420356 47.9789321,16.1153493 L47.9231261,16.5902474 L48.1354078,16.5902474 C48.192308,16.5902474 48.2497553,16.6186976 48.2880536,16.6635612 C48.3296345,16.7051421 48.3471423,16.764778 48.3400297,16.8227724 L48.1529155,18.3574373 C48.1419732,18.4400521 48.0796018,18.5100831 48.0013639,18.5347034 C47.9198434,18.5587766 47.8317575,18.5270438 47.7797813,18.4613897 L47.7646156,18.4475147 C47.6162487,18.3117765 46.4291531,17.2257587 46.4240239,17.2221683 C46.3304667,17.1280641 46.238551,17.0864831 46.1356929,17.1204044 C45.9923481,17.169645 45.9901596,17.2637492 45.9693691,17.3912276 C45.8927727,17.9323269 45.354956,21.9760732 45.2909433,22.5204553 C46.1154495,22.0143715 46.2577001,20.4698584 46.5110156,19.3318538 C46.5662744,19.0446171 46.8228726,19.0681431 46.7955167,19.3876598 L46.6740566,20.6755747 C46.8562468,20.6099206 47.4345501,20.3921677 47.6358894,20.3150242 C47.6791117,20.2980635 47.7152214,20.2942337 47.7310878,20.2942337 C47.9028828,20.300252 47.9554061,20.4501622 47.9346156,20.5366068 C47.8022131,21.1061562 47.3355218,22.8689692 47.1325412,23.6781561 C47.2775273,23.7312265 47.5992325,23.756394 47.7589908,23.7438103 C47.8022131,23.7394333 47.8410585,23.733415 47.8716971,23.7230198 L47.8941289,23.7060591 L48.2169283,22.1407556 C48.2754699,21.8535189 48.513466,21.8754036 48.485563,22.1932789 L48.3208806,23.8072759 C48.36465,23.8893435 48.6037404,24.2865509 48.8329827,24.2865509 C49.0616779,24.2865509 49.3013154,23.8893435 49.3445377,23.8072759 L49.1798553,22.1932789 C49.1524994,21.8754036 49.3899484,21.8535189 49.4490372,22.1407556 L49.7718365,23.7060591 L49.7942684,23.7230198 C49.8260012,23.7323208 49.8637523,23.7394333 49.9075217,23.7438103 C50.0678272,23.7574882 50.3889852,23.7312265 50.5345185,23.6781561 C50.3309907,22.8689692 49.8642994,21.1061562 49.7324441,20.5366068 C49.7122007,20.4501622 49.7641769,20.3013462 49.9359718,20.2942337 C49.9512911,20.2942337 49.987948,20.2980635 50.0311703,20.3150242 C50.2325096,20.3910735 50.8102658,20.6099206 50.9924559,20.6755747 L50.8709958,19.3876598 C50.84364,19.0681431 51.1007852,19.0446171 51.155497,19.3318538 C51.4088124,20.4698584 51.5516101,22.0143715 52.3755693,22.5204553 C52.3115565,21.9760732 51.7731928,17.9323269 51.6965963,17.3912276 C51.6758058,17.2637492 51.6741645,17.169645 51.5302726,17.1204044 C51.4274144,17.0870302 51.3360458,17.1280641 51.2419416,17.2221683 C51.2370175,17.2259981 49.8867312,18.4613897 49.8867312,18.4613897 L49.8415598,18.5039281 C49.7908831,18.5394223 49.7257419,18.5527583 49.6646015,18.5347034 C49.5858166,18.5100831 49.527275,18.4400521 49.5168797,18.3574373 L49.2805249,16.1810035 C49.2701297,16.0628261 49.2214362,15.9758344 49.1382743,15.9101802 C49.0583952,15.8467146 48.950613,15.8127933 48.8329827,15.8127933 Z M48.8329827,4.08259164 C48.8329827,4.08259164 48.759669,4.08587435 48.7531035,4.08915705 C48.7531035,4.08915705 48.7405198,4.09353399 48.7388785,4.09353399 C48.5446517,4.12362546 48.1315779,4.31128681 47.9789321,4.38514768 L47.9231261,4.85949866 L48.1354078,4.85949866 C48.192308,4.85949866 48.2497553,4.88794877 48.2880536,4.93335953 C48.3296345,4.97439335 48.3471423,5.03402917 48.3400297,5.09311788 L48.1529155,6.62723567 C48.1419732,6.71039755 48.0796018,6.77988148 48.0013639,6.80395466 C47.9198434,6.82857495 47.8317575,6.79629501 47.7797813,6.7306409 C47.7797813,6.7306409 46.429495,5.49470221 46.4240239,5.49087238 C46.3304667,5.39731527 46.238551,5.35573433 46.1356929,5.39074986 C45.9923481,5.43889621 45.9901596,5.53300044 45.9693691,5.66157308 C45.8927727,6.20212528 45.354956,10.2458716 45.2909433,10.7902536 C46.1154495,10.2836227 46.2577001,8.73965678 46.5110156,7.60110502 C46.5662744,7.31386828 46.8228726,7.33739433 46.7955167,7.65691102 L46.6740566,8.94482589 C46.8562468,8.87917177 47.4345501,8.66032473 47.6358894,8.58427538 C47.6791117,8.56676761 47.7152214,8.56293779 47.7310878,8.56293779 C47.9028828,8.5695032 47.9554061,8.71941343 47.9346156,8.80531089 C47.8022131,9.37486033 47.3355218,11.1376733 47.1325412,11.9468602 C47.2775273,12.0004778 47.5992325,12.0256452 47.7589908,12.0125144 C47.8022131,12.0086845 47.8410585,12.0026662 47.8716971,11.992271 L47.8941289,11.9753104 L48.2169283,10.4100069 C48.2754699,10.122223 48.513466,10.1435606 48.485563,10.461983 L48.3208806,12.07598 C48.36465,12.1591419 48.6037404,12.555255 48.8329827,12.555255 C49.0616779,12.555255 49.3013154,12.1591419 49.3445377,12.07598 L49.1798553,10.461983 C49.1524994,10.1435606 49.3899484,10.122223 49.4490372,10.4100069 L49.7718365,11.9753104 L49.7942684,11.992271 C49.8260012,12.001572 49.8637523,12.0086845 49.9075217,12.0125144 C50.0678272,12.0267394 50.3889852,12.0004778 50.5345185,11.9468602 C50.3309907,11.1371262 49.8642994,9.37486033 49.7324441,8.80531089 C49.7122007,8.71941343 49.7641769,8.57059744 49.9359718,8.56293779 C49.9512911,8.56293779 49.987948,8.56676761 50.0311703,8.58427538 C50.2325096,8.65977761 50.8102658,8.87917177 50.9924559,8.94482589 L50.8709958,7.65691102 C50.84364,7.33739433 51.1007852,7.31386828 51.155497,7.60110502 C51.4088124,8.73965678 51.5516101,10.2836227 52.3755693,10.7902536 C52.3115565,10.2458716 51.7731928,6.20212528 51.6965963,5.66157308 C51.6758058,5.53300044 51.6741645,5.43889621 51.5302726,5.39074986 C51.4274144,5.35573433 51.3360458,5.39731527 51.2419416,5.49087238 C51.2370175,5.49470221 49.8867312,6.7306409 49.8867312,6.7306409 C49.8347551,6.79629501 49.746122,6.82857495 49.6646015,6.80395466 C49.5858166,6.77988148 49.527275,6.71039755 49.5168797,6.62723567 L49.2805249,4.45025468 C49.2701297,4.33262439 49.2214362,4.24508557 49.1382743,4.17997858 C49.0583952,4.11706005 48.950613,4.08259164 48.8329827,4.08259164 Z M38.8814604,4.08204452 C38.8814604,4.08204452 38.8086938,4.08532723 38.8021284,4.08860994 C38.8021284,4.08860994 38.7895447,4.09298688 38.7879033,4.09298688 C38.5942237,4.12307835 38.1806028,4.31073969 38.0279569,4.38460057 L37.9721509,4.85895154 L38.1838855,4.85895154 C38.2413328,4.85895154 38.298233,4.88685454 38.335437,4.93335953 C38.377018,4.97439335 38.3939786,5.03402917 38.3874132,5.09311788 L38.200299,6.62723567 C38.1899038,6.71039755 38.1275323,6.77988148 38.0492945,6.80395466 C37.9672269,6.82857495 37.8791409,6.79629501 37.8271648,6.7306409 C37.8271648,6.7306409 36.4763314,5.49470221 36.4714073,5.49087238 C36.3773031,5.39731527 36.2859345,5.35573433 36.1830763,5.39074986 C36.0397315,5.43889621 36.0375431,5.53300044 36.0167526,5.66157308 C35.9401561,6.20212528 35.4017924,10.2458716 35.3383267,10.7902536 C36.1622859,10.2836227 36.3045365,8.73965678 36.5578519,7.60110502 C36.6131108,7.31386828 36.8697089,7.33739433 36.8429002,7.65691102 L36.7214401,8.94482589 C36.9036302,8.87917177 37.4819336,8.66032473 37.6832728,8.58427538 C37.7264951,8.56676761 37.763152,8.56293779 37.7790184,8.56293779 C37.9502662,8.5695032 38.0022424,8.71941343 37.9814519,8.80531089 C37.8501437,9.37486033 37.3829053,11.1376733 37.1799246,11.9468602 C37.3249108,12.0004778 37.646616,12.0256452 37.8063743,12.0125144 C37.8501437,12.0086845 37.8884419,12.0026662 37.9196277,11.992271 L37.9420595,11.9753104 L38.2648589,10.4100069 C38.3239476,10.122223 38.5613966,10.1435606 38.5334936,10.461983 L38.3688112,12.07598 C38.4125806,12.1591419 38.6522181,12.555255 38.8809133,12.555255 C39.1101556,12.555255 39.349246,12.1591419 39.3930154,12.07598 L39.228333,10.461983 C39.2009771,10.1435606 39.4389733,10.122223 39.4975149,10.4100069 L39.8203142,11.9753104 L39.8427461,11.992271 C39.8739318,12.001572 39.91223,12.0086845 39.9554523,12.0125144 C40.1152106,12.0267394 40.4374629,12.0004778 40.581902,11.9468602 C40.3794684,11.1371262 39.91223,9.37486033 39.7803747,8.80476378 C39.7601313,8.71886631 39.8126546,8.57005032 39.9839024,8.56239067 C39.9992217,8.56239067 40.0358786,8.5662205 40.0791009,8.58372826 C40.2804402,8.65923049 40.8581964,8.87862465 41.0403865,8.94427877 L40.9189264,7.6563639 C40.8921177,7.33684722 41.1492629,7.31332116 41.2039747,7.60055791 C41.456743,8.73910966 41.5995407,10.2830756 42.4234999,10.7897065 C42.3594871,10.2453245 41.8216705,6.20157816 41.745074,5.66102596 C41.7242835,5.53245332 41.7220951,5.43834909 41.5782031,5.39020274 C41.4758921,5.35518721 41.3839764,5.39676815 41.2904193,5.49032527 C41.284401,5.49415509 39.9346618,6.73009378 39.9346618,6.73009378 C39.8826857,6.79574789 39.7945997,6.82802783 39.7125321,6.80340754 C39.6342943,6.77933437 39.5757527,6.70985043 39.5648103,6.62668855 L39.3290026,4.44970756 C39.3191545,4.33207727 39.2699139,4.24453846 39.1872992,4.17943146 C39.1079671,4.11651293 38.9996378,4.08204452 38.8814604,4.08204452 Z" id="Combined-Shape" fill="#FFFFFF" fill-rule="nonzero"></path>
                <path d="M54.7205154,36.9698315 L54.7205154,55.4848387 C54.7205154,59.6609874 51.499634,62.659192 47.6889598,62.659192 L34.502331,62.659192 C34.0257916,62.659192 33.5180664,62.7270345 32.9993989,62.8736621 L32.9993989,36.9698315 L54.7205154,36.9698315 Z M38.8803662,51.443828 C38.8803662,51.443828 38.8075995,51.4471107 38.8010341,51.4503934 C38.8010341,51.4503934 38.7884504,51.4542232 38.7868091,51.4542232 C38.5931294,51.4848618 38.1795085,51.6725231 38.0268627,51.7458369 L37.9710567,52.220735 L38.1827912,52.220735 C38.2402386,52.220735 38.2971388,52.248638 38.335437,52.2940487 C38.377018,52.3356297 38.3939786,52.3952655 38.3874132,52.4538071 L38.200299,53.9873778 C38.1899038,54.0710868 38.1275323,54.1405707 38.0492945,54.1646439 C37.9672269,54.1892642 37.8791409,54.1575313 37.8271648,54.0913301 C37.8271648,54.0913301 37.5686068,53.8548684 37.2773168,53.5885742 L37.0248907,53.3578353 C36.7333313,53.0913615 36.4735616,52.854092 36.4714073,52.8526558 C36.3773031,52.7585516 36.2859345,52.7169707 36.1830763,52.750892 C36.0397315,52.7995854 36.0375431,52.8936897 36.0167526,53.0222623 C35.9401561,53.5633616 35.4017924,57.6065608 35.3383267,58.1514899 C36.1622859,57.6454061 36.3045365,56.100346 36.5578519,54.9623414 C36.6131108,54.6751046 36.8697089,54.6986307 36.8429002,55.0186945 L36.7214401,56.3060622 C36.9036302,56.2404081 37.4819336,56.0221082 37.6832728,55.9455117 C37.7264951,55.9290982 37.763152,55.9241741 37.7790184,55.9241741 C37.9502662,55.9312867 38.0022424,56.0806498 37.9814519,56.1670943 C37.8501437,56.7366438 37.3829053,58.4994567 37.1799246,59.3086437 C37.3249108,59.3617141 37.646616,59.3868815 37.8063743,59.3742978 C37.8501437,59.370468 37.8884419,59.3639026 37.9196277,59.3535073 L37.9420595,59.3365467 L38.2648589,57.7712432 C38.3239476,57.4834593 38.5613966,57.5047969 38.5334936,57.8237665 L38.3688112,59.4377634 C38.4125806,59.5203782 38.6522181,59.9170385 38.8809133,59.9170385 C39.1101556,59.9170385 39.349246,59.5203782 39.3930154,59.4377634 L39.228333,57.8237665 C39.2009771,57.5047969 39.4389733,57.4834593 39.4975149,57.7712432 L39.8203142,59.3365467 L39.8427461,59.3535073 C39.8739318,59.3628083 39.91223,59.370468 39.9554523,59.3742978 C40.1152106,59.3879757 40.4374629,59.3617141 40.581902,59.3086437 C40.3794684,58.4994567 39.91223,56.7366438 39.7792804,56.1670943 C39.7590371,56.0806498 39.8115604,55.9323809 39.9828082,55.9241741 C39.9981275,55.9241741 40.0347844,55.9290982 40.0780066,55.9455117 C40.2793459,56.0210139 40.8571021,56.2404081 41.0392923,56.3060622 L40.9178322,55.0186945 C40.8910234,54.6986307 41.1481687,54.6751046 41.2028805,54.9623414 C41.4556488,56.100346 41.5984465,57.6454061 42.4224056,58.1514899 C42.3583929,57.6065608 41.8205762,53.5633616 41.7439798,53.0222623 C41.7231893,52.8936897 41.7210008,52.7995854 41.5771089,52.750892 C41.4747979,52.7169707 41.3828822,52.7585516 41.289325,52.8526558 C41.286692,52.854092 41.0268625,53.0913615 40.7353873,53.3578353 L40.4830621,53.5885742 C40.1919161,53.8548684 39.9335676,54.0913301 39.9335676,54.0913301 C39.8815914,54.1575313 39.7935055,54.1892642 39.7114378,54.1646439 C39.6332,54.1405707 39.5746584,54.0710868 39.5637161,53.9873778 L39.3279084,51.811491 C39.3180603,51.6938607 39.2688197,51.6063219 39.1862049,51.5412149 C39.1068729,51.4777493 38.9985436,51.443828 38.8803662,51.443828 Z M48.8329827,51.443828 C48.8329827,51.443828 48.759669,51.4471107 48.7531035,51.4503934 C48.7531035,51.4503934 48.7405198,51.4542232 48.7388785,51.4542232 C48.5446517,51.4848618 48.1315779,51.6725231 47.9789321,51.7458369 L47.9231261,52.220735 L48.1354078,52.220735 C48.192308,52.220735 48.2497553,52.248638 48.2880536,52.2940487 C48.3296345,52.3356297 48.3471423,52.3952655 48.3400297,52.4538071 L48.1529155,53.9873778 C48.1419732,54.0710868 48.0796018,54.1405707 48.0013639,54.1646439 C47.9198434,54.1892642 47.8317575,54.1575313 47.7797813,54.0913301 C47.7797813,54.0913301 47.5213281,53.8548684 47.23011,53.5885742 L46.9777344,53.3578353 C46.6862172,53.0913615 46.4264175,52.854092 46.4240239,52.8526558 C46.3304667,52.7585516 46.238551,52.7169707 46.1356929,52.750892 C45.9923481,52.7995854 45.9901596,52.8936897 45.9693691,53.0222623 C45.8927727,53.5633616 45.354956,57.6065608 45.2909433,58.1514899 C46.1154495,57.6454061 46.2577001,56.100346 46.5110156,54.9623414 C46.5662744,54.6751046 46.8228726,54.6986307 46.7955167,55.0186945 L46.6740566,56.3060622 C46.8562468,56.2404081 47.4345501,56.0221082 47.6358894,55.9455117 C47.6791117,55.9290982 47.7152214,55.9241741 47.7310878,55.9241741 C47.9028828,55.9312867 47.9554061,56.0806498 47.9346156,56.1670943 C47.8022131,56.7366438 47.3355218,58.4994567 47.1325412,59.3086437 C47.2775273,59.3617141 47.5992325,59.3868815 47.7589908,59.3742978 C47.8022131,59.370468 47.8410585,59.3639026 47.8716971,59.3535073 L47.8941289,59.3365467 L48.2169283,57.7712432 C48.2754699,57.4834593 48.513466,57.5047969 48.485563,57.8237665 L48.3208806,59.4377634 C48.36465,59.5203782 48.6037404,59.9170385 48.8329827,59.9170385 C49.0616779,59.9170385 49.3013154,59.5203782 49.3445377,59.4377634 L49.1798553,57.8237665 C49.1524994,57.5047969 49.3899484,57.4834593 49.4490372,57.7712432 L49.7718365,59.3365467 L49.7942684,59.3535073 C49.8260012,59.3628083 49.8637523,59.370468 49.9075217,59.3742978 C50.0678272,59.3879757 50.3889852,59.3617141 50.5345185,59.3086437 C50.3309907,58.4994567 49.8642994,56.7366438 49.7324441,56.1670943 C49.7122007,56.0806498 49.7641769,55.9323809 49.9359718,55.9241741 C49.9512911,55.9241741 49.987948,55.9290982 50.0311703,55.9455117 C50.2325096,56.0210139 50.8102658,56.2404081 50.9924559,56.3060622 L50.8709958,55.0186945 C50.84364,54.6986307 51.1007852,54.6751046 51.155497,54.9623414 C51.4088124,56.100346 51.5516101,57.6454061 52.3755693,58.1514899 C52.3115565,57.6065608 51.7731928,53.5633616 51.6965963,53.0222623 C51.6758058,52.8936897 51.6741645,52.7995854 51.5302726,52.750892 C51.4274144,52.7169707 51.3360458,52.7585516 51.2419416,52.8526558 C51.2370175,52.8559385 49.8867312,54.0913301 49.8867312,54.0913301 C49.8347551,54.1575313 49.746122,54.1892642 49.6646015,54.1646439 C49.5858166,54.1405707 49.527275,54.0710868 49.5168797,53.9873778 L49.2805249,51.811491 C49.2701297,51.6938607 49.2214362,51.6063219 49.1382743,51.5412149 C49.0583952,51.4777493 48.950613,51.443828 48.8329827,51.443828 Z M48.8329827,39.7130792 C48.8329827,39.7130792 48.759669,39.7163619 48.7531035,39.7201917 C48.7531035,39.7201917 48.7405198,39.7240215 48.7388785,39.7240215 C48.5446517,39.754113 48.1315779,39.9417744 47.9789321,40.0150881 L47.9231261,40.4905333 L48.1354078,40.4905333 C48.192308,40.4905333 48.2497553,40.5184363 48.2880536,40.5638471 C48.3296345,40.6048809 48.3471423,40.6645167 48.3400297,40.7236054 L48.1529155,42.2577232 C48.1419732,42.3408851 48.0796018,42.410369 48.0013639,42.4349893 C47.9198434,42.4590625 47.8317575,42.4267826 47.7797813,42.3611284 C47.7797813,42.3611284 46.429495,41.1251898 46.4240239,41.1219071 C46.3304667,41.0278028 46.238551,40.9862219 46.1356929,41.0206903 C45.9923481,41.0699309 45.9901596,41.163488 45.9693691,41.2909664 C45.8927727,41.8326128 45.354956,45.8769062 45.2909433,46.4212883 C46.1154495,45.9146574 46.2577001,44.3706914 46.5110156,43.2321397 C46.5662744,42.9443558 46.8228726,42.968429 46.7955167,43.2873986 L46.6740566,44.5753134 C46.8562468,44.5102064 47.4345501,44.2908123 47.6358894,44.2147629 C47.6791117,44.1978023 47.7152214,44.1939725 47.7310878,44.1939725 C47.9028828,44.1999908 47.9554061,44.349901 47.9346156,44.4363456 C47.8022131,45.0053479 47.3355218,46.7681608 47.1325412,47.5773478 C47.2775273,47.6309653 47.5992325,47.6561327 47.7589908,47.6430019 C47.8022131,47.638625 47.8410585,47.6337009 47.8716971,47.6222114 L47.8941289,47.6052508 L48.2169283,46.0404944 C48.2754699,45.7527105 48.513466,45.7745952 48.485563,46.0930177 L48.3208806,47.7064675 C48.36465,47.7896294 48.6037404,48.1857426 48.8329827,48.1857426 C49.0616779,48.1857426 49.3013154,47.7896294 49.3445377,47.7064675 L49.1798553,46.0930177 C49.1524994,45.7745952 49.3899484,45.7527105 49.4490372,46.0404944 L49.7718365,47.6052508 L49.7942684,47.6222114 C49.8260012,47.6326067 49.8637523,47.638625 49.9075217,47.6430019 C50.0678272,47.657227 50.3889852,47.6309653 50.5345185,47.5773478 C50.3309907,46.7676137 49.8642994,45.0053479 49.7324441,44.4363456 C49.7122007,44.349901 49.7641769,44.201085 49.9359718,44.1939725 C49.9512911,44.1939725 49.987948,44.1978023 50.0311703,44.2147629 C50.2325096,44.2902652 50.8102658,44.5102064 50.9924559,44.5753134 L50.8709958,43.2873986 C50.84364,42.968429 51.1007852,42.9443558 51.155497,43.2321397 C51.4088124,44.3706914 51.5516101,45.9146574 52.3755693,46.4212883 C52.3115565,45.8769062 51.7731928,41.8326128 51.6965963,41.2909664 C51.6758058,41.163488 51.6741645,41.0699309 51.5302726,41.0206903 C51.4274144,40.9862219 51.3360458,41.0278028 51.2419416,41.1219071 C51.2370175,41.1251898 49.8867312,42.3611284 49.8867312,42.3611284 C49.8347551,42.4267826 49.746122,42.4590625 49.6646015,42.4349893 C49.5858166,42.410369 49.527275,42.340338 49.5168797,42.2577232 L49.2805249,40.0807422 C49.2701297,39.9631119 49.2214362,39.8755731 49.1382743,39.809919 C49.0583952,39.7475476 48.950613,39.7130792 48.8329827,39.7130792 Z M38.8803662,39.7130792 C38.8803662,39.7130792 38.8075995,39.7163619 38.8010341,39.7201917 C38.8010341,39.7201917 38.7884504,39.7240215 38.7868091,39.7240215 C38.5931294,39.754113 38.1795085,39.9417744 38.0268627,40.0150881 L37.9710567,40.4905333 L38.1827912,40.4905333 C38.2402386,40.4905333 38.2971388,40.5184363 38.335437,40.5638471 C38.377018,40.6048809 38.3939786,40.6645167 38.3874132,40.7236054 L38.200299,42.2577232 C38.1899038,42.3408851 38.1275323,42.410369 38.0492945,42.4349893 C37.9672269,42.4590625 37.8791409,42.4267826 37.8271648,42.3611284 C37.8271648,42.3611284 36.4763314,41.1251898 36.4714073,41.1219071 C36.3773031,41.0278028 36.2859345,40.9862219 36.1830763,41.0206903 C36.0397315,41.0699309 36.0375431,41.163488 36.0167526,41.2909664 C35.9401561,41.8326128 35.4017924,45.8769062 35.3383267,46.4212883 C36.1622859,45.9146574 36.3045365,44.3706914 36.5578519,43.2321397 C36.6131108,42.9443558 36.8697089,42.968429 36.8429002,43.2873986 L36.7214401,44.5753134 C36.9036302,44.5102064 37.4819336,44.2908123 37.6832728,44.2147629 C37.7264951,44.1978023 37.763152,44.1939725 37.7790184,44.1939725 C37.9502662,44.1999908 38.0022424,44.349901 37.9814519,44.4363456 C37.8501437,45.0053479 37.3829053,46.7681608 37.1799246,47.5773478 C37.3249108,47.6309653 37.646616,47.6561327 37.8063743,47.6430019 C37.8501437,47.638625 37.8884419,47.6337009 37.9196277,47.6222114 L37.9420595,47.6052508 L38.2648589,46.0404944 C38.3239476,45.7527105 38.5613966,45.7745952 38.5334936,46.0930177 L38.3688112,47.7064675 C38.4125806,47.7896294 38.6522181,48.1857426 38.8809133,48.1857426 C39.1101556,48.1857426 39.349246,47.7896294 39.3930154,47.7064675 L39.228333,46.0930177 C39.2009771,45.7745952 39.4389733,45.7527105 39.4975149,46.0404944 L39.8203142,47.6052508 L39.8427461,47.6222114 C39.8739318,47.6326067 39.91223,47.638625 39.9554523,47.6430019 C40.1152106,47.657227 40.4374629,47.6309653 40.581902,47.5773478 C40.3794684,46.7676137 39.91223,45.0053479 39.7792804,44.4363456 C39.7590371,44.349901 39.8115604,44.201085 39.9828082,44.1939725 C39.9981275,44.1939725 40.0347844,44.1978023 40.0780066,44.2147629 C40.2793459,44.2902652 40.8571021,44.5102064 41.0392923,44.5753134 L40.9178322,43.2873986 C40.8910234,42.968429 41.1481687,42.9443558 41.2028805,43.2321397 C41.4556488,44.3706914 41.5984465,45.9146574 42.4224056,46.4212883 C42.3583929,45.8769062 41.8205762,41.8326128 41.7439798,41.2909664 C41.7231893,41.163488 41.7210008,41.0699309 41.5771089,41.0206903 C41.4747979,40.9862219 41.3828822,41.0278028 41.289325,41.1219071 C41.2833067,41.1251898 39.9335676,42.3611284 39.9335676,42.3611284 C39.8815914,42.4267826 39.7935055,42.4590625 39.7114378,42.4349893 C39.6332,42.410369 39.5746584,42.340338 39.5637161,42.2577232 L39.3279084,40.0807422 C39.3180603,39.9631119 39.2688197,39.8755731 39.1862049,39.809919 C39.1068729,39.7475476 38.9985436,39.7130792 38.8803662,39.7130792 Z" id="Combined-Shape" fill="#FFFFFF" fill-rule="nonzero"></path>
                <path d="M28.0310239,46.2927156 C28.2482296,46.2927156 28.4490217,46.3769717 28.5994791,46.5307118 C28.6002086,46.5326571 28.6242817,46.5574868 28.6620261,46.5956484 L28.9751665,46.9081824 C29.0557752,46.9881021 29.1236178,47.0550328 29.1460496,47.0767352 L29.7456905,47.0767352 C30.0684899,47.0767352 30.3272765,47.3404459 30.3272765,47.6632453 L30.3272765,48.3433125 C30.34369,48.3641029 31.3968914,49.6301331 31.687958,49.9802884 C31.8701482,50.19257 31.9823073,50.4666759 31.9823073,50.7659492 C31.9823073,51.420849 31.4521503,51.9575714 30.8005332,51.9712494 C30.7370676,52.5780028 30.2255126,53.0523538 29.6017986,53.0523538 C29.4010064,53.0523538 29.2122508,53.0025661 29.0437386,52.9161215 C28.8292685,53.2515046 28.4583227,53.4758228 28.0304768,53.4758228 C27.6026308,53.4758228 27.2311379,53.2515046 27.0183092,52.9161215 C26.8487027,53.0025661 26.6599471,53.0523538 26.4597021,53.0523538 C25.835988,53.0523538 25.324433,52.5769086 25.2615145,51.9712494 C24.6093503,51.9575714 24.0791933,51.420849 24.0791933,50.7659492 C24.0791933,50.4666759 24.1913525,50.19257 24.3735426,49.9802884 C24.6646092,49.6312273 25.7172635,48.3641029 25.7342241,48.3433125 L25.7342241,47.6632453 C25.7342241,47.3404459 25.9935579,47.0767352 26.3158102,47.0767352 L26.9165453,47.0767352 C26.9462112,47.0477987 27.0567155,46.9384563 27.17063,46.8251271 L27.334381,46.6616958 C27.4078569,46.5880376 27.4614744,46.5336298 27.4625687,46.5307118 C27.613026,46.3758775 27.8143653,46.2927156 28.0310239,46.2927156 Z M28.0310239,46.7079779 C27.9287129,46.7079779 27.826949,46.7495588 27.7574651,46.820137 L27.0877931,47.489809 L26.315263,47.489809 C26.2167819,47.489809 26.1516749,47.569141 26.1516749,47.6605097 L26.1516749,48.4915813 L24.6159157,50.332085 C24.528924,50.4508095 24.5136047,50.5957957 24.5136047,50.7664964 C24.5136047,51.1796123 24.8240827,51.5204698 25.2255738,51.5704649 L25.3277157,51.5767776 L26.2944726,49.6957872 C26.3327708,49.6191907 26.4246866,49.5858166 26.5040186,49.620285 C26.5855391,49.6553005 26.6227431,49.750499 26.5871805,49.8331137 L25.6926432,51.9127078 C25.7276587,52.3307056 26.0734371,52.657882 26.4980003,52.657882 C26.6457221,52.657882 26.7825015,52.6184895 26.901226,52.5517411 L27.2869439,50.4491682 C27.3022632,50.3654592 27.3826895,50.3058233 27.4696812,50.3195013 C27.5533902,50.3315379 27.613026,50.406493 27.6075548,50.490202 L27.375577,52.676484 C27.5074323,52.9090089 27.7498054,53.062749 28.0304768,53.0791625 C28.3111481,53.0632961 28.5540683,52.9084618 28.6853765,52.6770311 L28.4539458,50.4907491 C28.4479275,50.4070401 28.5075633,50.332085 28.5923666,50.3200484 C28.6788111,50.3074647 28.7592374,50.3660063 28.7745567,50.4497153 L29.1608218,52.5522883 C29.2789992,52.6190366 29.4163257,52.6584291 29.5635003,52.6584291 C29.9880636,52.6584291 30.334389,52.3301585 30.3694046,51.9132549 L29.4743201,49.8336608 C29.4387575,49.7521403 29.4759615,49.6569418 29.5580291,49.6208321 C29.6373612,49.5863637 29.7281827,49.6197378 29.7670281,49.6963343 L30.7337849,51.5773247 C31.1835156,51.5773247 31.5478959,51.2145857 31.5478959,50.7670435 C31.5478959,50.5963428 31.5331237,50.4513566 31.4455849,50.3326321 L29.9098258,48.4921284 L29.9098258,47.6610568 C29.9098258,47.569141 29.8447188,47.4903561 29.7456905,47.4903561 L28.9737075,47.4903561 L28.3051298,46.820137 C28.2350988,46.7495588 28.1333349,46.7079779 28.0310239,46.7079779 Z M28.0310239,28.478019 C28.2482296,28.478019 28.4490217,28.5622751 28.5994791,28.715468 C28.6002086,28.7174133 28.6242817,28.742297 28.6620261,28.7805367 L28.9751665,29.0935871 C29.0557752,29.1735878 29.1236178,29.2405186 29.1460496,29.2620385 L29.7456905,29.2620385 C30.0684899,29.2620385 30.3272765,29.5257492 30.3272765,29.8490957 L30.3272765,30.5286158 C30.34369,30.548312 31.3968914,31.8154364 31.687958,32.1644975 C31.8701482,32.3778733 31.9823073,32.6519793 31.9823073,32.9512526 C31.9823073,33.6056053 31.4521503,34.1428748 30.8005332,34.1560056 C30.7370676,34.7633061 30.2255126,35.2376571 29.6017986,35.2376571 C29.4010064,35.2376571 29.2122508,35.1878694 29.0437386,35.1008777 C28.8292685,35.4362608 28.4583227,35.660579 28.0304768,35.660579 C27.6026308,35.660579 27.2311379,35.4362608 27.0183092,35.1008777 C26.8487027,35.1878694 26.6599471,35.2376571 26.4597021,35.2376571 C25.835988,35.2376571 25.324433,34.7622119 25.2615145,34.1560056 C24.6093503,34.1428748 24.0791933,33.6056053 24.0791933,32.9512526 C24.0791933,32.6519793 24.1913525,32.3778733 24.3735426,32.1644975 C24.6646092,31.8165307 25.7172635,30.548312 25.7342241,30.5286158 L25.7342241,29.8490957 C25.7342241,29.5257492 25.9935579,29.2620385 26.3158102,29.2620385 L26.9165453,29.2620385 C26.9462112,29.2333452 27.0567155,29.1239217 27.17063,29.0104275 L27.334381,28.8467155 C27.4078569,28.7729154 27.4614744,28.718386 27.4625687,28.715468 C27.613026,28.5611808 27.8143653,28.478019 28.0310239,28.478019 Z M12.1985343,28.478019 C12.41574,28.478019 12.6165322,28.5622751 12.7664424,28.715468 C12.7669288,28.7164407 12.7732375,28.7231479 12.7841603,28.734392 L13.2180989,29.1680334 C13.2636845,29.2131627 13.2987271,29.2476919 13.31356,29.2620385 L13.9137481,29.2620385 C14.2360003,29.2620385 14.4953341,29.5257492 14.4953341,29.8490957 L14.4953341,30.5286158 C14.5122947,30.548312 15.564949,31.8154364 15.8560156,32.1644975 C16.0382058,32.3778733 16.1503649,32.6519793 16.1503649,32.9512526 C16.1503649,33.6056053 15.6202079,34.1428748 14.9685908,34.1560056 C14.9051252,34.7633061 14.3935702,35.2376571 13.7704032,35.2376571 C13.5696111,35.2376571 13.3803084,35.1878694 13.2117962,35.1008777 C12.9973261,35.4362608 12.6263803,35.660579 12.1985343,35.660579 C11.7712355,35.660579 11.3997426,35.4362608 11.1858196,35.1008777 C11.0167603,35.1878694 10.8280047,35.2376571 10.6277597,35.2376571 C10.0040456,35.2376571 9.49249062,34.7622119 9.42902497,34.1560056 C8.7774079,34.1428748 8.24725093,33.6056053 8.24725093,32.9512526 C8.24725093,32.6519793 8.35995716,32.3778733 8.54214732,32.1644975 C8.83266677,31.8165307 9.88586818,30.548312 9.90228171,30.5286158 L9.90228171,29.8490957 C9.90228171,29.5257492 10.1616155,29.2620385 10.4838677,29.2620385 L11.0835086,29.2620385 C11.1134177,29.2333452 11.2241652,29.1239217 11.3382748,29.0104275 L11.5022765,28.8467155 C11.5758537,28.7729154 11.629532,28.718386 11.6306263,28.715468 C11.7805365,28.5611808 11.9813286,28.478019 12.1985343,28.478019 Z M43.8602307,28.478019 C44.0774364,28.478019 44.2782286,28.5622751 44.4286859,28.715468 C44.4294154,28.7174133 44.4534886,28.742297 44.4912329,28.7805367 L44.7207184,29.0104275 C44.834708,29.1239217 44.9453473,29.2333452 44.9752564,29.2620385 L45.5754444,29.2620385 C45.8976967,29.2620385 46.1564833,29.5257492 46.1564833,29.8490957 L46.1564833,30.5286158 C46.1651729,30.5390432 46.4646033,30.8990958 46.7876037,31.287454 L47.0034972,31.5470267 C47.2170188,31.8037406 47.4146286,32.0412994 47.5171649,32.1644975 C47.699355,32.3778733 47.810967,32.6519793 47.810967,32.9512526 C47.810967,33.6056053 47.2813572,34.1428748 46.6297401,34.1560056 C46.5668216,34.7633061 46.0547195,35.2376571 45.4315525,35.2376571 C45.2302132,35.2376571 45.0420048,35.1878694 44.8729454,35.1008777 C44.6584753,35.4362608 44.2875296,35.660579 43.8596836,35.660579 C43.4312905,35.660579 43.0603448,35.4362608 42.8469689,35.1008777 C42.6779095,35.1878694 42.4897011,35.2376571 42.2889089,35.2376571 C41.665742,35.2376571 41.154187,34.7622119 41.0907213,34.1560056 C40.4391043,34.1428748 39.9089473,33.6056053 39.9089473,32.9512526 C39.9089473,32.6519793 40.0211064,32.3778733 40.2032966,32.1644975 C40.493816,31.8165307 41.5470174,30.548312 41.5639781,30.5286158 L41.5639781,29.8490957 C41.5639781,29.5257492 41.8227647,29.2620385 42.145017,29.2620385 L42.745205,29.2620385 C42.7751141,29.2333452 42.8858615,29.1239217 42.9999232,29.0104275 L43.2294491,28.7805367 C43.267162,28.742297 43.2911676,28.7174133 43.2917755,28.715468 C43.4422329,28.5611808 43.643025,28.478019 43.8602307,28.478019 Z M43.8602307,28.892187 C43.7584668,28.892187 43.6561558,28.9332208 43.5861248,29.0043461 L42.9175471,29.6745652 L42.145017,29.6745652 C42.0465358,29.6745652 41.9814288,29.7533501 41.9814288,29.8452659 L41.9814288,30.6763375 L40.4451226,32.5162941 C40.3581309,32.6355657 40.3428116,32.7800048 40.3428116,32.9512526 C40.3428116,33.3638634 40.6537557,33.7046821 41.0548883,33.7546743 L41.1569226,33.7609867 L42.1231323,31.8799963 C42.1614305,31.8033998 42.2533463,31.7705728 42.3321312,31.8044941 C42.4136517,31.8400567 42.4508557,31.9352552 42.4152931,32.0178699 L41.5207558,34.097464 C41.5552242,34.5154619 41.9015497,34.8426382 42.32666,34.8426382 C42.4738347,34.8426382 42.6106141,34.8026986 42.7293386,34.7359503 L43.1150565,32.6344715 C43.1309229,32.5491211 43.2113492,32.4900324 43.2977938,32.5037104 C43.3820499,32.515747 43.4416857,32.5912492 43.4356674,32.6749582 L43.2042367,34.8606931 C43.336092,35.0937652 43.5784651,35.2475052 43.8596836,35.2644659 C44.1409021,35.2475052 44.3832752,35.0937652 44.5151305,34.8617873 L44.2836997,32.6760524 C44.2776815,32.5923434 44.3373173,32.5168412 44.4221205,32.5048046 C44.508018,32.492768 44.5884443,32.5502154 44.6043107,32.6355657 L44.9905757,34.7370445 C45.1087531,34.8037928 45.2460796,34.8437324 45.3932543,34.8437324 C45.8178175,34.8437324 46.1635959,34.5154619 46.1991585,34.0985582 L45.3040741,32.0189642 C45.2679643,31.9374437 45.3057155,31.8422452 45.387236,31.8055883 C45.466568,31.771667 45.5579367,31.8044941 45.5962349,31.8810905 L46.5629917,33.7620809 C47.0127224,33.7620809 47.3771027,33.3993419 47.3771027,32.9523468 C47.3771027,32.7816461 47.3617834,32.63666 47.2753389,32.5173883 L45.7390326,30.6763375 L45.7390326,29.8452659 C45.7390326,29.752803 45.6739256,29.6745652 45.5754444,29.6745652 L44.8029144,29.6745652 L44.1337895,29.0043461 C44.0643056,28.9332208 43.9619946,28.892187 43.8602307,28.892187 Z M28.0310239,28.8932812 C27.9287129,28.8932812 27.826949,28.9343151 27.7574651,29.0054404 L27.0883402,29.6756594 L26.3158102,29.6756594 C26.217329,29.6756594 26.152222,29.7544444 26.152222,29.8463601 L26.152222,30.6774318 L24.6164628,32.5173883 C24.5294711,32.63666 24.5141519,32.781099 24.5141519,32.9523468 C24.5141519,33.3649577 24.8246298,33.7057763 25.226121,33.7557685 L25.3282629,33.7620809 L26.2950197,31.8810905 C26.3333179,31.8044941 26.4252337,31.771667 26.5045657,31.8055883 C26.5860863,31.841151 26.6232903,31.9363494 26.5877276,32.0189642 L25.6931903,34.0985582 C25.7282058,34.5165561 26.0739842,34.8437324 26.4985474,34.8437324 C26.6462692,34.8437324 26.7830486,34.8037928 26.9017731,34.7370445 L27.287491,32.6355657 C27.3028103,32.5502154 27.3832366,32.4911267 27.4702283,32.5048046 C27.5539373,32.5168412 27.6135731,32.5923434 27.608102,32.6760524 L27.3761241,34.8617873 C27.5074323,35.0937652 27.7498054,35.2475052 28.0304768,35.2644659 C28.3111481,35.2475052 28.5540683,35.0937652 28.6853765,34.8617873 L28.4539458,32.6760524 C28.4479275,32.5923434 28.5075633,32.5168412 28.5923666,32.5048046 C28.6788111,32.492768 28.7592374,32.5502154 28.7745567,32.6355657 L29.1608218,34.7370445 C29.2789992,34.8037928 29.4163257,34.8437324 29.5635003,34.8437324 C29.9880636,34.8437324 30.334389,34.5154619 30.3694046,34.0985582 L29.4743201,32.0189642 C29.4387575,31.9374437 29.4759615,31.8422452 29.5580291,31.8055883 C29.6373612,31.771667 29.7281827,31.8044941 29.7670281,31.8810905 L30.7337849,33.7620809 C31.1835156,33.7620809 31.5478959,33.3993419 31.5478959,32.9523468 C31.5478959,32.7816461 31.5331237,32.63666 31.4455849,32.5173883 L29.9098258,30.6774318 L29.9098258,29.8463601 C29.9098258,29.7538972 29.8447188,29.6756594 29.7456905,29.6756594 L28.9737075,29.6756594 L28.3051298,29.0054404 C28.2350988,28.9343151 28.1333349,28.8932812 28.0310239,28.8932812 Z M12.1990815,28.8932812 C12.0973176,28.8932812 11.9955537,28.9343151 11.9249755,29.0054404 L11.2569449,29.6756594 L10.4844149,29.6756594 C10.3859337,29.6756594 10.3208267,29.7544444 10.3208267,29.8463601 L10.3208267,30.6774318 L8.78397331,32.5173883 C8.69698161,32.63666 8.68166231,32.781099 8.68166231,32.9523468 C8.68166231,33.3649577 8.99260641,33.7057763 9.39416932,33.7557685 L9.49632044,33.7620809 L10.4630773,31.8810905 C10.5013755,31.8044941 10.5927441,31.771667 10.6720762,31.8055883 C10.7535967,31.841151 10.7913478,31.9363494 10.7552381,32.0189642 L9.86070077,34.0985582 C9.8957163,34.5165561 10.2420418,34.8437324 10.666605,34.8437324 C10.8132325,34.8437324 10.9505591,34.8037928 11.0687365,34.7370445 L11.4550015,32.6355657 C11.4708679,32.5502154 11.5507471,32.4911267 11.6371917,32.5048046 C11.7219949,32.5168412 11.7816307,32.5923434 11.7750653,32.6760524 L11.5441817,34.8617873 C11.6754899,35.0937652 11.9184101,35.2475052 12.1985343,35.2644659 C12.4797528,35.2475052 12.7221259,35.0937652 12.8539812,34.8617873 L12.6225505,32.6760524 C12.6159851,32.5923434 12.676168,32.5168412 12.7604241,32.5048046 C12.8468687,32.492768 12.927295,32.5502154 12.9426143,32.6355657 L13.3294265,34.7370445 C13.4476039,34.8037928 13.5843833,34.8437324 13.732105,34.8437324 C14.1561212,34.8437324 14.5024466,34.5154619 14.5380093,34.0985582 L13.6429248,32.0189642 C13.6068151,31.9374437 13.6440191,31.8422452 13.7260867,31.8055883 C13.8054188,31.771667 13.8967874,31.8044941 13.9350857,31.8810905 L14.9018425,33.7620809 C15.3515732,33.7620809 15.7159535,33.3993419 15.7159535,32.9523468 C15.7159535,32.7816461 15.7006342,32.63666 15.6141896,32.5173883 L14.0778833,30.6774318 L14.0778833,29.8463601 C14.0778833,29.7538972 14.0127764,29.6756594 13.9142952,29.6756594 L13.1417651,29.6756594 L12.4731874,29.0054404 C12.4031563,28.9343151 12.3013925,28.8932812 12.1990815,28.8932812 Z M28.0310239,10.6627752 C28.2482296,10.6627752 28.4490217,10.7470313 28.5994791,10.9002242 C28.6002086,10.9022911 28.6242817,10.9272154 28.6620261,10.9654506 L28.9751665,11.2782217 C29.0020361,11.3048684 29.0274872,11.3300696 29.0503108,11.352632 L29.1460496,11.4467947 L29.7456905,11.4467947 C30.0684899,11.4467947 30.3272765,11.7105054 30.3272765,12.0333048 L30.3272765,12.713372 C30.3292075,12.7157536 30.3454885,12.7353779 30.3731903,12.768725 L30.4876286,12.9064149 C30.7971199,13.2786884 31.4653777,14.082035 31.687958,14.3498008 C31.8701482,14.5620824 31.9823073,14.8361884 31.9823073,15.1354617 C31.9823073,15.7909086 31.4521503,16.327631 30.8005332,16.3402147 C30.7370676,16.9480624 30.2255126,17.4224133 29.6017986,17.4224133 C29.4010064,17.4224133 29.2122508,17.3720785 29.0437386,17.2856339 C28.8292685,17.621017 28.4583227,17.8447881 28.0304768,17.8447881 C27.6026308,17.8447881 27.2311379,17.621017 27.0183092,17.2856339 C26.8487027,17.3720785 26.6599471,17.4224133 26.4597021,17.4224133 C25.835988,17.4224133 25.324433,16.9469681 25.2615145,16.3402147 C24.6093503,16.327631 24.0791933,15.7909086 24.0791933,15.1354617 C24.0791933,14.8361884 24.1913525,14.5620824 24.3735426,14.3498008 C24.6646092,14.0007398 25.7172635,12.7336154 25.7342241,12.713372 L25.7342241,12.0333048 C25.7342241,11.7105054 25.9935579,11.4467947 26.3158102,11.4467947 L26.9165453,11.4467947 L27.0119944,11.352632 C27.0575681,11.3075071 27.1136728,11.2518272 27.17063,11.1951386 L27.334381,11.0315933 C27.4078569,10.957854 27.4614744,10.9033246 27.4625687,10.9002242 C27.613026,10.7459371 27.8143653,10.6627752 28.0310239,10.6627752 Z M28.0310239,11.0780375 C27.9287129,11.0780375 27.826949,11.1196184 27.7574651,11.1901966 L27.0883402,11.8604157 L26.3158102,11.8604157 C26.217329,11.8604157 26.152222,11.9397477 26.152222,12.0311164 L26.152222,12.8616409 L24.6164628,14.7021445 C24.5294711,14.8208691 24.5141519,14.9658552 24.5141519,15.1365559 C24.5141519,15.5501768 24.8246298,15.890607 25.226121,15.9405334 L25.3282629,15.9468371 L26.2950197,14.0658468 C26.3333179,13.9892503 26.4252337,13.9558761 26.5045657,13.9897974 C26.5860863,14.0253601 26.6232903,14.1216528 26.5877276,14.2031733 L25.6931903,16.2827673 C25.7282058,16.7013123 26.0739842,17.0279415 26.4985474,17.0279415 C26.6462692,17.0279415 26.7830486,16.9880019 26.9017731,16.9212536 L27.287491,14.8197748 C27.3028103,14.7349716 27.3832366,14.67643 27.4702283,14.6895608 C27.5539373,14.7015974 27.6135731,14.7770997 27.608102,14.8602615 L27.3761241,17.0465435 C27.5074323,17.2779743 27.7498054,17.4322614 28.0304768,17.4492221 C28.3111481,17.4328086 28.5540683,17.2785214 28.6853765,17.0465435 L28.4539458,14.8602615 C28.4479275,14.7770997 28.5075633,14.7015974 28.5923666,14.6895608 C28.6788111,14.6775243 28.7592374,14.7349716 28.7745567,14.8197748 L29.1608218,16.9212536 C29.2789992,16.9880019 29.4163257,17.0279415 29.5635003,17.0279415 C29.9880636,17.0279415 30.334389,16.7002181 30.3694046,16.2827673 L29.4743201,14.2031733 C29.4387575,14.122747 29.4759615,14.0270014 29.5580291,13.9897974 C29.6373612,13.9558761 29.7281827,13.9892503 29.7670281,14.0658468 L30.7337849,15.9468371 C31.1835156,15.9468371 31.5478959,15.5846453 31.5478959,15.1365559 C31.5478959,14.9658552 31.5331237,14.8208691 31.4455849,14.7021445 L29.9098258,12.8616409 L29.9098258,12.0311164 C29.9098258,11.9386535 29.8447188,11.8604157 29.7456905,11.8604157 L28.9737075,11.8604157 L28.3051298,11.1901966 C28.2350988,11.1196184 28.1333349,11.0780375 28.0310239,11.0780375 Z" id="Combined-Shape" fill="#FFFFFF" fill-rule="nonzero"></path>
                <g id="Group" transform="translate(3.677177, 4.082045)"></g>
            </g>
        </g>
    </g>
</svg>