<?xml version="1.0" encoding="UTF-8"?>
<svg width="126px" height="52px" viewBox="0 0 126 52" version="1.1" xmlns="http://www.w3.org/2000/svg" xmlns:xlink="http://www.w3.org/1999/xlink">
    <title>logo-ul</title>
    <g id="Page-1" stroke="none" stroke-width="1" fill="none" fill-rule="evenodd">
        <g id="thumbnail" transform="translate(-40.000000, -283.000000)">
            <g id="logo-ul" transform="translate(40.000000, 283.500000)">
                <g id="Group" transform="translate(48.677582, 3.511751)" fill="#FFFFFF" fill-rule="nonzero">
                    <path d="M6.22662228,3.09664332 L7.47750268,3.09664332 L7.47750268,9.33834601 C7.47750268,10.9503626 6.32345439,12.5782532 3.7399419,12.5782532 C1.39692227,12.5782532 0,11.3912662 0,9.39668339 L0,3.09664332 L1.41041527,3.09664332 L1.41041527,9.22167125 C1.41041527,10.827735 2.18745328,11.5722311 3.85502924,11.5722311 C5.49244438,11.5722311 6.22662228,10.3923874 6.22662228,9.22167125 L6.22662228,3.09664332 L6.22662228,3.09664332 Z" id="Path"></path>
                    <polygon id="Path" points="11.4892888 3.09664332 10.2773 3.09664332 10.2773 12.4020505 11.4869077 12.4020505 11.4869077 5.28766828 17.0575321 12.4028442 18.3326205 12.4028442 18.3326205 3.09664332 17.1190443 3.09664332 17.1190443 10.2987301"></polygon>
                    <polygon id="Path" points="22.7253855 3.09664332 22.7253855 12.4020505 21.3268758 12.4020505 21.3268758 3.09664332"></polygon>
                    <polygon id="Path" points="24.6985382 3.09664332 26.1224465 3.09664332 28.4214154 10.0772861 30.9529402 3.09664332 32.1470706 3.09664332 28.598015 12.4020505 27.8820923 12.4020505"></polygon>
                    <polygon id="Path" points="39.5809195 3.09664332 39.5809195 4.07766373 35.4457121 4.07766373 35.4457121 7.11200114 38.7530843 7.11200114 38.7530843 8.08905302 35.4457121 8.08905302 35.4457121 11.4178553 39.5809195 11.4178553 39.5809195 12.4028442 34.0372811 12.4028442 34.0372811 3.09664332"></polygon>
                    <path d="M45.7547603,8.0319062 L45.9107235,7.98745868 C46.6246619,7.77593607 47.6624323,6.6774472 47.6624323,5.434107 C47.6624323,4.30744157 46.6254556,3.09664332 44.3506947,3.09664332 L41.8032958,3.09664332 L41.8032958,12.4020505 L43.2137111,12.4020505 L43.2137111,3.96892603 L44.2240986,3.96892603 C45.7301554,3.96892603 46.2651132,4.83525595 46.2651132,5.57816461 C46.2651132,6.36115542 45.6265768,7.46202541 44.2086213,7.46202541 C44.2086213,7.46202541 43.969319,7.46202541 43.8574065,7.46202541 L46.9834169,12.4024474 L48.6486118,12.4024474 L45.7547603,8.0319062 Z" id="Path"></path>
                    <path d="M54.3668655,10.2114224 C54.3668655,9.33715545 53.5382366,8.83910504 52.5810273,8.26049348 L52.2587828,8.06524185 C51.1944233,7.41797474 50.0606145,6.61434758 50.0606145,5.29243051 C50.0606145,3.93598724 51.2610945,2.90932874 52.8532684,2.90932874 C54.2180456,2.90932874 54.9764316,3.22760478 55.3256621,3.38039315 C55.2958982,3.44706444 54.9760347,4.21894337 54.9419054,4.30386989 C54.6347412,4.16298711 53.9831087,3.88836489 53.0965393,3.88836489 C52.088136,3.88836489 51.4591241,4.32728422 51.4591241,5.03447612 C51.4591241,5.89445639 52.1679035,6.33258201 53.0695533,6.88539812 L53.4787086,7.13581232 C53.4767244,7.13581232 53.5362523,7.17311649 53.5362523,7.17311649 C54.4640944,7.76006196 55.8641915,8.64663137 55.8641915,9.92608518 C55.8641915,11.5123063 54.1692327,12.5798406 52.5818211,12.5798406 C51.0571121,12.5798406 50.1856231,12.155208 49.8236933,11.9726557 C49.8562352,11.8980473 50.1836389,11.1634726 50.2189588,11.0821177 C50.2213399,11.084102 50.2284833,11.08688 50.2284833,11.08688 C50.6364481,11.2690355 51.3995962,11.6043762 52.6103945,11.6043762 C53.5763345,11.6019951 54.3668655,10.9769517 54.3668655,10.2114224 Z" id="Path"></path>
                    <polygon id="Path" points="59.6227855 3.09664332 59.6227855 12.4020505 58.2274507 12.4020505 58.2274507 3.09664332"></polygon>
                    <polygon id="Path" points="68.959941 3.09664332 68.959941 4.07766373 65.9176665 4.07766373 65.9176665 12.4028442 64.5072512 12.4028442 64.5072512 4.07766373 61.4491027 4.07766373 61.4491027 3.09664332"></polygon>
                    <g transform="translate(70.784274, 0.000000)" id="Path">
                        <path d="M1.41239953,4.07766373 L1.41239953,7.11200114 L4.71977175,7.11200114 L4.71977175,8.08905302 L1.41239953,8.08905302 L1.41239953,11.4178553 C1.41239953,11.4178553 5.44640944,11.4178553 5.54681323,11.4178553 L5.54681323,12.4028442 L0,12.4028442 L0,3.09664332 L5.54681323,3.09664332 L5.54681323,4.07766373 L1.41239953,4.07766373 Z"></path>
                        <polygon points="4.1621934 0 4.70985043 0.819501275 2.31841475 2.12633793 1.99140794 1.6191599"></polygon>
                    </g>
                </g>
                <g id="Group" transform="translate(47.836254, 19.604931)" fill="#FFFFFF" fill-rule="nonzero">
                    <path d="M42.2112606,0.000793705836 L42.2112606,0.0944509944 C44.2026685,0.862758243 43.1049734,3.38158371 42.2430088,5.56109994 L37.879611,16.5940079 L31.5061531,0.000793705836 L27.2479213,0.000793705836 L27.2479213,0.0944509944 C28.4928489,1.04451688 29.1476563,2.92163118 29.7520632,4.48642224 L35.8270877,20.2089411 L38.8951576,20.2089411 L46.9977036,0 L42.2112606,0.000793705836 L42.2112606,0.000793705836 Z" id="Path"></path>
                    <path d="M77.1724153,17.1924621 C75.9961432,17.7309915 74.7008153,17.9861679 73.260636,17.9861679 L68.8952539,17.9861679 L68.8952539,0.000793705836 L64.1754822,0.000793705836 L64.1754822,0.0944509944 C65.6553467,0.599247906 65.6212174,2.90972559 65.6212174,4.3324433 L65.6184394,20.1037751 C64.046505,19.321578 63.2309723,17.4996263 62.4952069,15.7554577 L55.8213314,0.000793705836 L50.749948,0.000793705836 L50.749948,0.0944509944 C52.2710852,0.546069615 51.6928705,1.84457236 51.23014,2.94861718 L45.8698477,15.7554577 C45.1380509,17.5000231 44.3808555,19.3096724 42.7545522,20.1156807 L42.7545522,20.2089411 L46.7671321,20.2089411 L48.826005,14.8657134 L58.6707354,14.8657134 L60.7946922,20.2089411 L77.1724153,20.2089411 L77.1724153,17.1924621 Z M49.6959066,12.6036518 L53.7009463,2.61287961 L57.7702761,12.6036518 L49.6959066,12.6036518 Z" id="Shape"></path>
                    <path d="M29.0321721,15.7558545 L22.3555186,0.00119055875 L17.28731,0.00119055875 L17.28731,0.0948478474 C18.8080503,0.546466468 18.2298356,1.84496922 17.7686925,2.94901403 L17.7678988,2.95020459 L17.7671051,2.94901403 L12.4076065,15.7558545 C12.1409213,16.3904224 11.8710613,17.0329272 11.5571507,17.6333657 C10.7832875,17.8623498 9.96140509,17.9865648 9.084757,17.9865648 L4.71897805,17.9865648 L4.71897805,0.00277797042 L0,0.00277797042 L0,0.096832112 C1.47986453,0.601232171 1.44613203,2.91131301 1.44613203,4.33403072 L1.44375092,20.2097348 L13.3048909,20.2097348 L15.363367,14.8665072 L25.2084942,14.8665072 L25.2100816,14.8665072 L27.3328479,20.2097348 L32.1808031,20.2097348 L32.1808031,20.1164744 C30.5017184,19.2680029 29.7719059,17.5067696 29.0321721,15.7558545 Z M16.2328718,12.6036518 L20.2379114,2.61287961 L24.3080349,12.6036518 L16.2328718,12.6036518 Z" id="Shape"></path>
                </g>
                <path d="M40.6639311,0 L40.6639311,40.246045 C40.6639311,43.7101741 37.9974763,46.4218701 34.5912877,46.4218701 L25.0263387,46.4218701 C23.7476786,46.4218701 22.0856586,47.2846283 21.2526643,49.7070185 L20.7915212,51.0463971 C20.6780213,51.3237973 20.5145179,51.5 20.333553,51.5 C20.1494132,51.5 19.9890846,51.3230036 19.8751878,51.0463971 L19.4144416,49.7070185 C18.5814473,47.2850252 16.9166493,46.4218701 15.6379892,46.4218701 L6.0730402,46.4218701 C2.66804217,46.4218701 0,43.7101741 0,40.246045 L0,0 L40.6639311,0 Z M39.6916414,0.971495943 L1.03921313,0.971495943 L1.03921313,39.3967602 C1.03921313,42.7041679 3.57527656,45.2931834 6.81184122,45.2931834 L15.9036456,45.2931834 C17.1190548,45.2931834 18.7015011,46.1172883 19.49329,48.4297077 L19.9312448,49.7084911 C20.0395075,49.9725836 20.1919052,50.1415725 20.3669362,50.1415725 C20.5389494,50.1415725 20.6943649,49.9733414 20.8022503,49.7084911 L21.2405823,48.4297077 C22.0323712,46.1169094 23.6121769,45.2931834 24.8275862,45.2931834 L33.9193906,45.2931834 C37.1570869,45.2931834 39.6916414,42.7041679 39.6916414,39.3967602 L39.6916414,0.971495943 Z" id="Combined-Shape" fill="#FFFFFF" fill-rule="nonzero"></path>
                <path d="M16.7253662,0.971495943 L16.7253662,19.6053278 L0.97109909,19.6053278 L0.97109909,0.971495943 L16.7253662,0.971495943 Z M5.23766481,11.469843 C5.23766481,11.469843 5.18448652,11.472621 5.17972428,11.4750021 C5.17972428,11.4750021 5.17059667,11.4777801 5.16940611,11.4777801 C5.02852332,11.5000039 4.72850252,11.6361244 4.6181774,11.6893027 L4.57769841,12.033771 L4.73167734,12.033771 C4.77295004,12.033771 4.81422275,12.0544074 4.84200245,12.0869493 C4.87216327,12.1171101 4.88486257,12.1603671 4.88010033,12.2024335 L4.74397978,13.315606 C4.73643957,13.3755307 4.69119834,13.4263279 4.63444837,13.4441863 C4.57531729,13.4616478 4.51142397,13.4386304 4.47372294,13.391008 C4.47372294,13.391008 3.49389309,12.4949141 3.49032141,12.4921361 C3.42245956,12.4238774 3.35578827,12.3937166 3.28117992,12.4183215 C3.17680761,12.4540383 3.17561705,12.522297 3.16053664,12.6147637 C3.1355349,12.7913831 3.04270704,13.4824846 2.94392831,14.2252513 L2.87787324,14.7230042 C2.77950525,15.4658781 2.68893647,16.1575689 2.66804217,16.3352598 C3.26609951,15.9681709 3.36928127,14.8478551 3.55302417,14.022401 C3.59310632,13.8140532 3.77923034,13.8311179 3.75938769,14.06288 L3.67128634,14.9970718 C3.80383522,14.9494494 4.2229119,14.791502 4.36895377,14.7355457 C4.40030515,14.7232433 4.4268943,14.7204653 4.43800618,14.7204653 C4.562618,14.7248307 4.60031902,14.8335684 4.58523861,14.8962711 C4.48959706,15.309395 4.15108152,16.5880551 4.00345224,17.1750006 C4.10901511,17.2134953 4.34196777,17.2317505 4.45784883,17.2226229 C4.48959706,17.2194481 4.51737676,17.2150827 4.53999738,17.2075425 L4.55547464,17.1952401 L4.78961787,16.0598439 C4.83247798,15.8514961 5.005109,15.8673702 4.98447265,16.0979418 L4.86541677,17.2686579 C4.89716501,17.3281858 5.07098658,17.616301 5.2368711,17.616301 C5.40315248,17.616301 5.5765772,17.3281858 5.60832543,17.2686579 L5.48887271,16.0979418 C5.46903006,15.8673702 5.64126423,15.8514961 5.68412434,16.0598439 L5.91826756,17.1952401 L5.93453853,17.2075425 C5.95715915,17.214289 5.98493885,17.2194481 6.01629023,17.2226229 C6.13256814,17.2325443 6.36591765,17.2134953 6.47108368,17.1750006 C6.32385125,16.5880551 5.98533571,15.309395 5.89048786,14.8962711 C5.87540745,14.8335684 5.91350533,14.7256244 6.03811714,14.7204653 C6.04922903,14.7204653 6.07581817,14.7232433 6.10716955,14.7355457 C6.25321143,14.7907082 6.67228811,14.9494494 6.80444013,14.9970718 L6.71633878,14.06288 C6.69649614,13.8311179 6.88301701,13.8140532 6.9227023,14.022401 C7.1064452,14.8478551 7.21002381,15.9681709 7.80768431,16.3352598 C7.78661142,16.1575689 7.69610514,15.4658781 7.59782377,14.7230042 L7.53182763,14.2252513 C7.43313551,13.4824846 7.34037015,12.7913831 7.31518983,12.6147637 C7.30010942,12.522297 7.29891886,12.4540383 7.19454655,12.4183215 C7.1199382,12.3941135 7.05326691,12.4238774 6.98540506,12.4921361 C6.98103968,12.4949141 6.00200353,13.391008 6.00200353,13.391008 C5.9643025,13.4386304 5.90001233,13.4616478 5.84088124,13.4441863 C5.78413128,13.4263279 5.74166802,13.3755307 5.73373096,13.315606 L5.5622905,11.736925 C5.55514714,11.6512048 5.51982723,11.5881052 5.45950559,11.5404829 C5.40156506,11.4944479 5.32298819,11.469843 5.23766481,11.469843 Z M12.4564194,11.469843 C12.4564194,11.469843 12.4032411,11.472621 12.3984789,11.4750021 C12.3984789,11.4750021 12.3893512,11.4777801 12.3885575,11.4777801 C12.2476748,11.5000039 11.9480508,11.6361244 11.836932,11.6893027 L11.796453,12.033771 L11.9500351,12.033771 C11.9917046,12.033771 12.0333742,12.0544074 12.060757,12.0869493 C12.0909178,12.1171101 12.1036171,12.1603671 12.0984581,12.2024335 L11.9627344,13.315606 C11.9551941,13.3755307 11.9099529,13.4263279 11.8532029,13.4441863 C11.793675,13.4616478 11.7297817,13.4386304 11.6920807,13.391008 C11.6920807,13.391008 10.7122508,12.4949141 10.7086791,12.4921361 C10.6404204,12.4238774 10.5737491,12.3937166 10.4995376,12.4183215 C10.3951653,12.4540383 10.3939748,12.522297 10.3788944,12.6147637 C10.3538926,12.7913831 10.2611451,13.4824846 10.1624548,14.2252513 L10.096459,14.7230042 C9.99817947,15.4658781 9.90769105,16.1575689 9.88679674,16.3352598 C10.4844572,15.9681709 10.5880358,14.8478551 10.7717787,14.022401 C10.811464,13.8140532 10.9979849,13.8311179 10.9781423,14.06288 L10.8900409,14.9970718 C11.0221929,14.9494494 11.4412696,14.791502 11.5873115,14.7355457 C11.6186629,14.7232433 11.645252,14.7204653 11.6563639,14.7204653 C11.7809757,14.7248307 11.8190736,14.8335684 11.8039932,14.8962711 C11.7083516,15.309395 11.3694392,16.5880551 11.2222068,17.1750006 C11.3277697,17.2134953 11.5611192,17.2317505 11.6770003,17.2226229 C11.7083516,17.2194481 11.7361313,17.2150827 11.758752,17.2075425 L11.7754198,17.1952401 L12.009563,16.0598439 C12.0520263,15.8514961 12.2246573,15.8673702 12.2044178,16.0979418 L12.0849651,17.2686579 C12.1163164,17.3281858 12.290138,17.616301 12.4564194,17.616301 C12.6223039,17.616301 12.7965223,17.3281858 12.8278737,17.2686579 L12.708421,16.0979418 C12.6881815,15.8673702 12.8604157,15.8514961 12.9032758,16.0598439 L13.137419,17.1952401 L13.15369,17.2075425 C13.1767074,17.214289 13.2040903,17.2194481 13.2354417,17.2226229 C13.3513227,17.2325443 13.5846722,17.2134953 13.6902351,17.1750006 C13.5426058,16.5880551 13.2040903,15.309395 13.1084487,14.8962711 C13.0933683,14.8335684 13.1310693,14.7256244 13.2556812,14.7204653 C13.2671899,14.7204653 13.293779,14.7232433 13.3251304,14.7355457 C13.4711723,14.7907082 13.890249,14.9494494 14.022401,14.9970718 L13.9346965,14.06288 C13.9148539,13.8311179 14.1009779,13.8140532 14.14106,14.022401 C14.3248029,14.8478551 14.4279847,15.9681709 15.0256452,16.3352598 C15.0047509,16.1575689 14.9142625,15.4658781 14.8159829,14.7230042 L14.7499871,14.2252513 C14.6512968,13.4824846 14.5585493,12.7913831 14.5335476,12.6147637 C14.5184671,12.522297 14.5168797,12.4540383 14.4129043,12.4183215 C14.3382959,12.3941135 14.2716246,12.4238774 14.2037628,12.4921361 C14.1997943,12.4949141 13.2203613,13.391008 13.2203613,13.391008 C13.1826602,13.4386304 13.1183701,13.4616478 13.0596358,13.4441863 C13.002489,13.4263279 12.9600257,13.3755307 12.9524855,13.315606 L12.7810451,11.736925 C12.7735049,11.6512048 12.7385818,11.5881052 12.6778633,11.5404829 C12.6199228,11.4944479 12.5417428,11.469843 12.4564194,11.469843 Z M12.4568162,2.96131647 C12.4568162,2.96131647 12.4036379,2.96369759 12.3988757,2.96607871 C12.3988757,2.96607871 12.3897481,2.96925353 12.3889544,2.96925353 C12.2480716,2.99108044 11.9484477,3.12720099 11.8373288,3.18077614 L11.7968498,3.52484762 L11.9504319,3.52484762 C11.9921015,3.52484762 12.033771,3.54548397 12.0611539,3.57842276 C12.0913147,3.60818673 12.104014,3.6514437 12.0988549,3.69430381 L11.9631312,4.80707939 C11.955591,4.86740104 11.9103498,4.91780136 11.8535998,4.93526289 C11.7940719,4.95312127 11.7301785,4.92970695 11.6924775,4.8820846 C11.6924775,4.8820846 10.7126477,3.98559385 10.709076,3.98281588 C10.6408173,3.91495403 10.574146,3.88479321 10.4999345,3.9101918 C10.3955622,3.94511486 10.3943716,4.01337356 10.3792912,4.10663399 C10.3542895,4.2830748 10.261542,4.97407808 10.1628516,5.71679074 L10.0968559,6.21451385 C9.99857632,6.95735153 9.9080879,7.64904235 9.88719359,7.82673325 C10.4848541,7.45924744 10.5884327,6.33932851 10.7721756,5.51347759 C10.8118609,5.30512981 10.9983818,5.32219448 10.9785391,5.55395659 L10.8904378,6.48814835 C10.9124631,6.4802113 10.9424586,6.4691876 10.9778318,6.45607125 L11.2338644,6.36021289 C11.3734078,6.30767949 11.5146874,6.25420356 11.5877083,6.22662228 C11.6190597,6.21392299 11.6456489,6.21114502 11.6567608,6.21114502 C11.7813726,6.21590725 11.8194705,6.32464495 11.80439,6.38695086 C11.7087485,6.80007475 11.3698361,8.07873485 11.2226037,8.66568031 C11.3281665,8.7045719 11.5615161,8.72282713 11.6773971,8.71330266 C11.7087485,8.71052469 11.7365282,8.70615931 11.7591488,8.69861911 L11.7754198,8.68631667 L12.009563,7.55092047 C12.0520263,7.34217583 12.2246573,7.3576531 12.2044178,7.58862149 L12.0849651,8.7593376 C12.1163164,8.81965925 12.290138,9.10698076 12.4564194,9.10698076 C12.6223039,9.10698076 12.7965223,8.81965925 12.8278737,8.7593376 L12.708421,7.58862149 C12.6881815,7.3576531 12.8604157,7.34217583 12.9032758,7.55092047 L13.137419,8.68631667 L13.15369,8.69861911 C13.1767074,8.70536561 13.2040903,8.71052469 13.2354417,8.71330266 C13.3513227,8.72362084 13.5846722,8.7045719 13.6902351,8.66568031 C13.5426058,8.078338 13.2040903,6.80007475 13.1088456,6.38695086 C13.0937652,6.32464495 13.1314662,6.21670096 13.256078,6.21114502 C13.2675867,6.21114502 13.2941759,6.21392299 13.3255273,6.22662228 C13.3985482,6.25400513 13.5398279,6.30748106 13.6793713,6.36006407 L13.9354039,6.45604369 L14.0227979,6.48814835 L13.9350934,5.55395659 C13.9152507,5.32219448 14.1013747,5.30512981 14.1414569,5.51347759 C14.3251998,6.33932851 14.4283815,7.45924744 15.026042,7.82673325 C15.0051477,7.64904235 14.9146593,6.95735153 14.8163797,6.21451385 L14.750384,5.71679074 C14.6516936,4.97407808 14.5589461,4.2830748 14.5339444,4.10663399 C14.518864,4.01337356 14.5172766,3.94511486 14.4133011,3.9101918 C14.3386928,3.88479321 14.2720215,3.91495403 14.2041596,3.98281588 C14.2001911,3.98559385 13.2207581,4.8820846 13.2207581,4.8820846 C13.1830571,4.92970695 13.1187669,4.95312127 13.0600327,4.93526289 C13.0028859,4.91780136 12.9604226,4.86740104 12.9528824,4.80707939 L12.7814419,3.22800163 C12.7739017,3.14267826 12.7389787,3.07918179 12.6782602,3.03195629 C12.6203196,2.98631821 12.5421396,2.96131647 12.4568162,2.96131647 Z M5.2368711,2.96091962 C5.2368711,2.96091962 5.18369281,2.96330074 5.17893058,2.96568185 C5.17893058,2.96568185 5.16980296,2.96885668 5.1686124,2.96885668 C5.02772962,2.99068359 4.72770881,3.12680414 4.6173837,3.18037928 L4.5769047,3.52445076 L4.73088363,3.52445076 C4.77215634,3.52445076 4.81342904,3.54508711 4.84120874,3.57802591 C4.87136957,3.60778988 4.88406886,3.65104684 4.87930662,3.69390696 L4.74318607,4.80668254 C4.73564587,4.86700418 4.69040464,4.9174045 4.63365467,4.93486603 C4.57452358,4.95272441 4.51063026,4.92931009 4.47292924,4.88168774 C4.47292924,4.88168774 3.49309938,3.985197 3.48952771,3.98241903 C3.42166586,3.91455718 3.35499457,3.88439636 3.28038622,3.90979495 C3.1760139,3.944718 3.17482334,4.01297671 3.15974293,4.10663399 C3.10418352,4.49872468 2.71368025,7.43186459 2.66724846,7.82673325 C3.26530581,7.45924744 3.36848757,6.33932851 3.55223047,5.51347759 C3.59231261,5.30512981 3.77843663,5.32219448 3.75859398,5.55395659 L3.67049264,6.48814835 C3.80304151,6.440526 4.22211819,6.28178484 4.36816007,6.22662228 C4.39951145,6.21392299 4.42610059,6.21114502 4.43721247,6.21114502 C4.56182429,6.21590725 4.59952532,6.32464495 4.58444491,6.38695086 C4.48880335,6.80007475 4.15028781,8.07873485 4.00265853,8.66568031 C4.10822141,8.7045719 4.34117407,8.72282713 4.45705512,8.71330266 C4.48880335,8.71052469 4.51658306,8.70615931 4.53920367,8.69861911 L4.55547464,8.68631667 L4.78961787,7.55092047 C4.83247798,7.34217583 5.005109,7.3576531 4.98447265,7.58862149 L4.86541677,8.7593376 C4.89716501,8.81965925 5.07098658,9.10698076 5.2368711,9.10698076 C5.40315248,9.10698076 5.5765772,8.81965925 5.60832543,8.7593376 L5.48887271,7.58862149 C5.46903006,7.3576531 5.64126423,7.34217583 5.68412434,7.55092047 L5.91826756,8.68631667 L5.93453853,8.69861911 C5.95715915,8.70536561 5.98493885,8.71052469 6.01629023,8.71330266 C6.13256814,8.72362084 6.36591765,8.7045719 6.47108368,8.66568031 C6.32385125,8.078338 5.98533571,6.80007475 5.88969415,6.38655401 C5.87461374,6.3242481 5.91271162,6.2163041 6.03732344,6.21074816 C6.04843532,6.21074816 6.07502447,6.21352613 6.10637585,6.22622543 C6.17939678,6.25360828 6.32067642,6.30708421 6.46021983,6.35966722 L6.71625243,6.45564683 L6.80364642,6.4877515 L6.71554508,5.55355973 C6.69570243,5.32179763 6.8822233,5.30473295 6.92190859,5.51308073 C7.10565149,6.33893166 7.20923011,7.45885059 7.8068906,7.82633639 C7.78581771,7.6486455 7.69531143,6.95695467 7.59703006,6.214117 L7.53103392,5.71639389 C7.43234181,4.97368123 7.33957645,4.28267795 7.31439613,4.10623714 C7.29931572,4.01297671 7.29812516,3.944718 7.19375284,3.90979495 C7.11914449,3.88439636 7.0524732,3.91455718 6.98461135,3.98241903 C6.98024597,3.985197 6.00120982,4.88168774 6.00120982,4.88168774 C5.9635088,4.92931009 5.89921862,4.95272441 5.84008754,4.93486603 C5.78333757,4.9174045 5.74087431,4.86700418 5.73293725,4.80668254 L5.56149679,3.22760478 C5.55435344,3.1422814 5.51903353,3.07878494 5.45871188,3.03155944 C5.40077136,2.98592135 5.32219448,2.96091962 5.2368711,2.96091962 Z" id="Combined-Shape" fill="#FFFFFF" fill-rule="nonzero"></path>
                <path d="M16.7253662,26.8161454 L16.7253662,45.6051468 C16.3511339,45.4987902 15.9832513,45.4499773 15.6379892,45.4499773 L6.0730402,45.4499773 C3.30895963,45.4499773 0.97109909,43.2752233 0.97109909,40.246045 L0.97109909,26.8161454 L16.7253662,26.8161454 Z M5.2368711,37.3152862 C5.2368711,37.3152862 5.18369281,37.3176673 5.17893058,37.3200484 C5.17893058,37.3200484 5.16980296,37.3228264 5.1686124,37.3228264 C5.02772962,37.3450501 4.72770881,37.4811707 4.6173837,37.534349 L4.5769047,37.8788173 L4.73088363,37.8788173 C4.77215634,37.8788173 4.81342904,37.8990568 4.84120874,37.9319956 C4.87136957,37.9621564 4.88406886,38.0054134 4.87930662,38.0478766 L4.74318607,39.1602554 C4.73564587,39.2209739 4.69040464,39.2713742 4.63365467,39.2888357 C4.57452358,39.3066941 4.51063026,39.2836766 4.47292924,39.2356574 C4.47292924,39.2356574 3.49309938,38.3395635 3.48952771,38.3371824 C3.42166586,38.2689237 3.35499457,38.2387629 3.28038622,38.2633678 C3.1760139,38.2986877 3.17482334,38.3665495 3.15974293,38.45981 C3.10418352,38.8522975 2.71368025,41.7850406 2.66724846,42.1803061 C3.26530581,41.8132171 3.36848757,40.6925045 3.55223047,39.8670504 C3.59231261,39.6587026 3.77843663,39.6757673 3.75859398,39.9079263 L3.67049264,40.8417212 C3.80304151,40.7940988 4.22211819,40.6357545 4.36816007,40.5801951 C4.39951145,40.5682895 4.42610059,40.5647178 4.43721247,40.5647178 C4.56182429,40.5698769 4.59952532,40.6782178 4.58444491,40.7409205 C4.48880335,41.1540444 4.15028781,42.4327045 4.00265853,43.01965 C4.10822141,43.0581447 4.34117407,43.0764 4.45705512,43.0672723 C4.48880335,43.0644944 4.51658306,43.0597321 4.53920367,43.0521919 L4.55547464,43.0398895 L4.78961787,41.9044933 C4.83247798,41.6957487 5.005109,41.7112259 4.98447265,41.9425912 L4.86541677,43.1133073 C4.89716501,43.1732321 5.07098658,43.4609504 5.2368711,43.4609504 C5.40315248,43.4609504 5.5765772,43.1732321 5.60832543,43.1133073 L5.48887271,41.9425912 C5.46903006,41.7112259 5.64126423,41.6957487 5.68412434,41.9044933 L5.91826756,43.0398895 L5.93453853,43.0521919 C5.95715915,43.0589384 5.98493885,43.0644944 6.01629023,43.0672723 C6.13256814,43.0771937 6.36591765,43.0581447 6.47108368,43.01965 C6.32385125,42.4327045 5.98533571,41.1540444 5.88969415,40.7413174 C5.87461374,40.6786146 5.91271162,40.5710675 6.03732344,40.5651147 C6.04843532,40.5651147 6.07502447,40.5686864 6.10637585,40.580592 C6.25241772,40.6353577 6.6714944,40.7944957 6.80364642,40.842118 L6.71554508,39.9083231 C6.69570243,39.6761642 6.8822233,39.6590995 6.92190859,39.8674473 C7.10565149,40.6929013 7.20923011,41.813614 7.8068906,42.1807029 C7.78581771,42.0028335 7.69531143,41.3111248 7.59703006,40.5682853 L7.53103392,40.0705618 C7.43234181,39.3278474 7.33957645,38.6368262 7.31439613,38.4602068 C7.29931572,38.3669464 7.29812516,38.2986877 7.19375284,38.2633678 C7.11914449,38.2387629 7.0524732,38.2689237 6.98461135,38.3371824 C6.98024597,38.3395635 6.00120982,39.2356574 6.00120982,39.2356574 C5.9635088,39.2836766 5.89921862,39.3066941 5.84008754,39.2888357 C5.78333757,39.2713742 5.74087431,39.2209739 5.73293725,39.1602554 L5.56149679,37.5819713 C5.55435344,37.4966479 5.51903353,37.4331515 5.45871188,37.385926 C5.40077136,37.339891 5.32219448,37.3152862 5.2368711,37.3152862 Z M12.4568162,37.3148893 C12.4568162,37.3148893 12.4036379,37.3172704 12.3988757,37.3196515 C12.3988757,37.3196515 12.3897481,37.3224295 12.3889544,37.3224295 C12.2480716,37.3446533 11.9484477,37.4807738 11.8373288,37.5339521 L11.7968498,37.8784204 L11.9504319,37.8784204 C11.9921015,37.8784204 12.033771,37.8986599 12.0611539,37.9315987 C12.0913147,37.9617596 12.104014,38.0050165 12.0988549,38.0474798 L11.9631312,39.1598585 C11.955591,39.220577 11.9103498,39.2709773 11.8535998,39.2884389 C11.7940719,39.3062972 11.7301785,39.2832798 11.6924775,39.2352606 C11.6924775,39.2352606 10.7126477,38.3391667 10.709076,38.3367856 C10.6408173,38.2685269 10.574146,38.238366 10.4999345,38.2629709 C10.3955622,38.2982908 10.3943716,38.3665495 10.3792912,38.45981 C10.3237318,38.8522975 9.93362539,41.7850406 9.88719359,42.1803061 C10.4848541,41.8132171 10.5884327,40.6925045 10.7721756,39.8670504 C10.8118609,39.6587026 10.9983818,39.6757673 10.9785391,39.9079263 L10.8904378,40.8417212 C10.9124631,40.8337841 10.9424586,40.8227715 10.9778318,40.8096716 L11.2338644,40.7139345 C11.3734078,40.6614507 11.5146874,40.6079748 11.5877083,40.5801951 C11.6190597,40.5682895 11.6456489,40.5647178 11.6567608,40.5647178 C11.7813726,40.5698769 11.8194705,40.6782178 11.80439,40.7409205 C11.7087485,41.1540444 11.3698361,42.4327045 11.2226037,43.01965 C11.3281665,43.0581447 11.5615161,43.0764 11.6773971,43.0672723 C11.7087485,43.0644944 11.7365282,43.0597321 11.7591488,43.0521919 L11.7754198,43.0398895 L12.009563,41.9044933 C12.0520263,41.6957487 12.2246573,41.7112259 12.2044178,41.9425912 L12.0849651,43.1133073 C12.1163164,43.1732321 12.290138,43.4609504 12.4564194,43.4609504 C12.6223039,43.4609504 12.7965223,43.1732321 12.8278737,43.1133073 L12.708421,41.9425912 C12.6881815,41.7112259 12.8604157,41.6957487 12.9032758,41.9044933 L13.137419,43.0398895 L13.15369,43.0521919 C13.1767074,43.0589384 13.2040903,43.0644944 13.2354417,43.0672723 C13.3513227,43.0771937 13.5846722,43.0581447 13.6902351,43.01965 C13.5426058,42.4327045 13.2040903,41.1540444 13.1088456,40.7409205 C13.0937652,40.6782178 13.1314662,40.5706706 13.256078,40.5647178 C13.2675867,40.5647178 13.2941759,40.5682895 13.3255273,40.5801951 C13.3985482,40.607578 13.5398279,40.6610539 13.6793713,40.7136369 L13.9354039,40.8096165 L14.0227979,40.8417212 L13.9350934,39.9079263 C13.9152507,39.6757673 14.1013747,39.6587026 14.1414569,39.8670504 C14.3251998,40.6925045 14.4283815,41.8132171 15.026042,42.1803061 C14.9796102,41.7850406 14.5895038,38.8522975 14.5339444,38.45981 C14.518864,38.3665495 14.5172766,38.2982908 14.4133011,38.2629709 C14.3386928,38.238366 14.2720215,38.2685269 14.2041596,38.3367856 C14.2001911,38.3391667 13.2207581,39.2352606 13.2207581,39.2352606 C13.1830571,39.2832798 13.1187669,39.3062972 13.0600327,39.2884389 C13.0028859,39.2709773 12.9604226,39.220577 12.9528824,39.1598585 L12.7814419,37.5815745 C12.7739017,37.4962511 12.7389787,37.4327546 12.6782602,37.3855291 C12.6203196,37.3394942 12.5421396,37.3148893 12.4568162,37.3148893 Z M12.4568162,28.8059659 C12.4568162,28.8059659 12.4036379,28.808347 12.3988757,28.811125 C12.3988757,28.811125 12.3897481,28.813903 12.3889544,28.813903 C12.2480716,28.8357299 11.9484477,28.9718504 11.8373288,29.0250287 L11.7968498,29.3698939 L11.9504319,29.3698939 C11.9921015,29.3698939 12.033771,29.3901334 12.0611539,29.4230722 C12.0913147,29.4528361 12.104014,29.4960931 12.0988549,29.5389532 L11.9631312,30.6517288 C11.955591,30.7120505 11.9103498,30.7624508 11.8535998,30.7803092 C11.7940719,30.7977707 11.7301785,30.7743564 11.6924775,30.726734 C11.6924775,30.726734 10.7126477,29.8302433 10.709076,29.8278622 C10.6408173,29.7596035 10.574146,29.7294426 10.4999345,29.7544444 C10.3955622,29.7901611 10.3943716,29.858023 10.3792912,29.9504897 C10.3542895,30.1272877 10.261542,30.8185678 10.1628516,31.5614769 L10.0968559,32.059319 C9.99857632,32.8023174 9.9080879,33.4940886 9.88719359,33.6717795 C10.4848541,33.3042937 10.5884327,32.1843748 10.7721756,31.3585239 C10.8118609,31.1497792 10.9983818,31.1672408 10.9785391,31.398606 L10.8904378,32.3327978 C11.0225898,32.2855723 11.4416665,32.1264343 11.5877083,32.0712717 C11.6190597,32.0589693 11.6456489,32.0561913 11.6567608,32.0561913 C11.7813726,32.0605567 11.8194705,32.1692944 11.80439,32.2319971 C11.7087485,32.6447242 11.3698361,33.9233843 11.2226037,34.5103297 C11.3281665,34.5492213 11.5615161,34.5674766 11.6773971,34.5579521 C11.7087485,34.5547773 11.7365282,34.5512056 11.7591488,34.5428717 L11.7754198,34.5305692 L12.009563,33.3955699 C12.0520263,33.1868253 12.2246573,33.2026994 12.2044178,33.4336678 L12.0849651,34.603987 C12.1163164,34.6643087 12.290138,34.9516302 12.4564194,34.9516302 C12.6223039,34.9516302 12.7965223,34.6643087 12.8278737,34.603987 L12.708421,33.4336678 C12.6881815,33.2026994 12.8604157,33.1868253 12.9032758,33.3955699 L13.137419,34.5305692 L13.15369,34.5428717 C13.1767074,34.5504119 13.2040903,34.5547773 13.2354417,34.5579521 C13.3513227,34.5682703 13.5846722,34.5492213 13.6902351,34.5103297 C13.5426058,33.9229874 13.2040903,32.6447242 13.1088456,32.2319971 C13.0937652,32.1692944 13.1314662,32.0613504 13.256078,32.0561913 C13.2675867,32.0561913 13.2941759,32.0589693 13.3255273,32.0712717 C13.4715691,32.1260374 13.8906458,32.2855723 14.0227979,32.3327978 L13.9350934,31.398606 C13.9152507,31.1672408 14.1013747,31.1497792 14.1414569,31.3585239 C14.3251998,32.1843748 14.4283815,33.3042937 15.026042,33.6717795 C15.0051477,33.4940886 14.9146593,32.8023174 14.8163797,32.059319 L14.750384,31.5614769 C14.6516936,30.8185678 14.5589461,30.1272877 14.5339444,29.9504897 C14.518864,29.858023 14.5172766,29.7901611 14.4133011,29.7544444 C14.3386928,29.7294426 14.2720215,29.7596035 14.2041596,29.8278622 C14.2001911,29.8302433 13.2207581,30.726734 13.2207581,30.726734 C13.1830571,30.7743564 13.1187669,30.7977707 13.0600327,30.7803092 C13.0028859,30.7624508 12.9604226,30.7116536 12.9528824,30.6517288 L12.7814419,29.0726511 C12.7739017,28.9873277 12.7389787,28.9238312 12.6782602,28.8762089 C12.6203196,28.8309676 12.5421396,28.8059659 12.4568162,28.8059659 Z M5.2368711,28.805569 C5.2368711,28.805569 5.18369281,28.8079502 5.17893058,28.8107281 C5.17893058,28.8107281 5.16980296,28.8135061 5.1686124,28.8135061 C5.02772962,28.835333 4.72770881,28.9714536 4.6173837,29.0246319 L4.5769047,29.369497 L4.73088363,29.369497 C4.77215634,29.369497 4.81342904,29.3897365 4.84120874,29.4226753 C4.87136957,29.4524393 4.88406886,29.4956963 4.87930662,29.5385564 L4.74318607,30.651332 C4.73564587,30.7116536 4.69040464,30.7620539 4.63365467,30.7799123 C4.57452358,30.7973738 4.51063026,30.7739595 4.47292924,30.7263372 C4.47292924,30.7263372 3.49309938,29.8298464 3.48952771,29.8274653 C3.42166586,29.7592066 3.35499457,29.7290458 3.28038622,29.7540475 C3.1760139,29.7897643 3.17482334,29.8576261 3.15974293,29.9504897 C3.10418352,30.3433741 2.71368025,33.2769109 2.66724846,33.6717795 C3.26530581,33.3042937 3.36848757,32.1843748 3.55223047,31.3585239 C3.59231261,31.1497792 3.77843663,31.1672408 3.75859398,31.398606 L3.67049264,32.3327978 C3.7146756,32.3170559 3.79069498,32.2888794 3.87782624,32.256264 L4.15183113,32.1530969 C4.24046162,32.1195996 4.31947944,32.0896592 4.36816007,32.0712717 C4.39951145,32.0589693 4.42610059,32.0561913 4.43721247,32.0561913 C4.56182429,32.0605567 4.59952532,32.1692944 4.58444491,32.2319971 C4.48880335,32.6447242 4.15028781,33.9233843 4.00265853,34.5103297 C4.10822141,34.5492213 4.34117407,34.5674766 4.45705512,34.5579521 C4.48880335,34.5547773 4.51658306,34.5512056 4.53920367,34.5428717 L4.55547464,34.5305692 L4.78961787,33.3955699 C4.83247798,33.1868253 5.005109,33.2026994 4.98447265,33.4336678 L4.86541677,34.603987 C4.89716501,34.6643087 5.07098658,34.9516302 5.2368711,34.9516302 C5.40315248,34.9516302 5.5765772,34.6643087 5.60832543,34.603987 L5.48887271,33.4336678 C5.46903006,33.2026994 5.64126423,33.1868253 5.68412434,33.3955699 L5.91826756,34.5305692 L5.93453853,34.5428717 C5.95715915,34.5504119 5.98493885,34.5547773 6.01629023,34.5579521 C6.13256814,34.5682703 6.36591765,34.5492213 6.47108368,34.5103297 C6.32385125,33.9229874 5.98533571,32.6447242 5.88969415,32.2316003 C5.87461374,32.1688975 5.91271162,32.0609535 6.03732344,32.0557944 C6.04843532,32.0557944 6.07502447,32.0585724 6.10637585,32.0708748 C6.17939678,32.0982577 6.32067642,32.1518328 6.46021983,32.2044655 L6.71625243,32.3004341 L6.80364642,32.3324009 L6.71554508,31.3982092 C6.69570243,31.1668439 6.8822233,31.1493824 6.92190859,31.358127 C7.10565149,32.1839779 7.20923011,33.3038969 7.8068906,33.6713827 C7.78581771,33.4936918 7.69531143,32.8019206 7.59703006,32.0589222 L7.53103392,31.56108 C7.43234181,30.8181709 7.33957645,30.1268908 7.31439613,29.9500929 C7.29931572,29.8576261 7.29812516,29.7897643 7.19375284,29.7540475 C7.11914449,29.7290458 7.0524732,29.7592066 6.98461135,29.8274653 C6.98024597,29.8298464 6.00120982,30.7263372 6.00120982,30.7263372 C5.9635088,30.7739595 5.89921862,30.7973738 5.84008754,30.7799123 C5.78333757,30.7620539 5.74087431,30.7112568 5.73293725,30.651332 L5.56149679,29.0722542 C5.55435344,28.9869308 5.51903353,28.9234344 5.45871188,28.875812 C5.40077136,28.8305708 5.32219448,28.805569 5.2368711,28.805569 Z" id="Combined-Shape" fill="#FFFFFF" fill-rule="nonzero"></path>
                <path d="M39.6916414,0.971495943 L39.6916414,19.6053278 L23.9361837,19.6053278 L23.9361837,0.971495943 L39.6916414,0.971495943 Z M28.2019558,11.469843 C28.2019558,11.469843 28.1491743,11.472621 28.1444121,11.4750021 C28.1444121,11.4750021 28.1352845,11.4777801 28.1340939,11.4777801 C27.993608,11.5000039 27.6935872,11.6361244 27.5828652,11.6893027 L27.5423862,12.033771 L27.6959683,12.033771 C27.7376378,12.033771 27.7789105,12.0544074 27.8066902,12.0869493 C27.8368511,12.1171101 27.8491535,12.1603671 27.8443913,12.2024335 L27.7086676,13.315606 C27.7011274,13.3755307 27.6558861,13.4263279 27.5991362,13.4441863 C27.5396082,13.4616478 27.4757149,13.4386304 27.4380139,13.391008 C27.4380139,13.391008 26.458184,12.4949141 26.4546124,12.4921361 C26.3863537,12.4238774 26.3200792,12.3937166 26.2454709,12.4183215 C26.1414954,12.4540383 26.139908,12.522297 26.1248276,12.6147637 C26.0998258,12.7913831 26.006998,13.4824846 25.9082554,14.2252513 L25.8422302,14.7230042 C25.7439162,15.4658781 25.6534457,16.1575689 25.63273,16.3352598 C26.2303905,15.9681709 26.3335722,14.8478551 26.5173151,14.022401 C26.5573973,13.8140532 26.7435213,13.8311179 26.7240755,14.06288 L26.6359741,14.9970718 C26.7681262,14.9494494 27.1875997,14.791502 27.3336416,14.7355457 C27.3649929,14.7232433 27.3915821,14.7204653 27.4030908,14.7204653 C27.5273058,14.7248307 27.5650068,14.8335684 27.5499264,14.8962711 C27.4546817,15.309395 27.1157693,16.5880551 26.9685369,17.1750006 C27.0737029,17.2134953 27.3070524,17.2317505 27.4229335,17.2226229 C27.4546817,17.2194481 27.4824614,17.2150827 27.505082,17.2075425 L27.521353,17.1952401 L27.7554962,16.0598439 C27.7983563,15.8514961 27.9705905,15.8673702 27.950351,16.0979418 L27.8308983,17.2686579 C27.8626465,17.3281858 28.0364681,17.616301 28.2023526,17.616301 C28.368634,17.616301 28.5420587,17.3281858 28.5738069,17.2686579 L28.4543542,16.0979418 C28.4345116,15.8673702 28.6071426,15.8514961 28.6496058,16.0598439 L28.8837491,17.1952401 L28.90002,17.2075425 C28.9226407,17.214289 28.9504204,17.2194481 28.9817717,17.2226229 C29.0976528,17.2325443 29.3313992,17.2134953 29.4361683,17.1750006 C29.2893327,16.5880551 28.9504204,15.309395 28.8539851,14.8962711 C28.8393015,14.8335684 28.8773994,14.7256244 29.0016144,14.7204653 C29.0127263,14.7204653 29.0393154,14.7232433 29.0706668,14.7355457 C29.1436877,14.763127 29.2849674,14.8166029 29.4245108,14.8691363 L29.6805434,14.9649947 L29.7679374,14.9970718 L29.679836,14.06288 C29.6603902,13.8311179 29.8469111,13.8140532 29.8865964,14.022401 C30.0699424,14.8478551 30.173521,15.9681709 30.7711815,16.3352598 C30.7502872,16.1575689 30.6597988,15.4658781 30.5615192,14.7230042 L30.4955235,14.2252513 C30.3968332,13.4824846 30.3040857,12.7913831 30.2790839,12.6147637 C30.2640035,12.522297 30.2624161,12.4540383 30.1580438,12.4183215 C30.0838323,12.3941135 30.017161,12.4238774 29.9492992,12.4921361 C29.9449338,12.4949141 28.9658976,13.391008 28.9658976,13.391008 C28.9281966,13.4386304 28.8643033,13.4616478 28.8047753,13.4441863 C28.7480254,13.4263279 28.7055621,13.3755307 28.697625,13.315606 L28.5265814,11.736925 C28.5194381,11.6512048 28.4837213,11.5881052 28.4237965,11.5404829 C28.3662529,11.4944479 28.287676,11.469843 28.2019558,11.469843 Z M35.4211072,11.469843 C35.4211072,11.469843 35.3679289,11.472621 35.3631667,11.4750021 C35.3631667,11.4750021 35.354039,11.4777801 35.3528485,11.4777801 C35.2119657,11.5000039 34.9123417,11.6361244 34.8016198,11.6893027 L34.7611408,12.033771 L34.9151197,12.033771 C34.9563924,12.033771 34.998062,12.0544074 35.0258417,12.0869493 C35.0560025,12.1171101 35.0687018,12.1603671 35.0635427,12.2024335 L34.927819,13.315606 C34.9198819,13.3755307 34.8746407,13.4263279 34.8178907,13.4441863 C34.7587597,13.4616478 34.6948663,13.4386304 34.6571653,13.391008 C34.6571653,13.391008 33.6777323,12.4949141 33.6737638,12.4921361 C33.6059019,12.4238774 33.5392306,12.3937166 33.4646223,12.4183215 C33.3606468,12.4540383 33.3590594,12.522297 33.343979,12.6147637 C33.3189773,12.7913831 33.2262298,13.4824846 33.1275394,14.2252513 L33.0615437,14.7230042 C32.9632641,15.4658781 32.8727757,16.1575689 32.8518814,16.3352598 C33.4499387,15.9681709 33.5531205,14.8478551 33.7368634,14.022401 C33.7769455,13.8140532 33.9630696,13.8311179 33.9432269,14.06288 L33.8551256,14.9970718 C33.9872776,14.9494494 34.4067511,14.791502 34.552793,14.7355457 C34.5841444,14.7232433 34.6103367,14.7204653 34.6218454,14.7204653 C34.7464572,14.7248307 34.7845551,14.8335684 34.7694747,14.8962711 C34.6734363,15.309395 34.3349207,16.5880551 34.1876883,17.1750006 C34.2928543,17.2134953 34.5262039,17.2317505 34.6420849,17.2226229 C34.6734363,17.2194481 34.7016128,17.2150827 34.7238366,17.2075425 L34.7401076,17.1952401 L34.9742508,16.0598439 C35.0167141,15.8514961 35.1893451,15.8673702 35.1691056,16.0979418 L35.0496529,17.2686579 C35.0814011,17.3281858 35.2548258,17.616301 35.4211072,17.616301 C35.5869917,17.616301 35.7608133,17.3281858 35.7921647,17.2686579 L35.6727119,16.0979418 C35.6528693,15.8673702 35.8251035,15.8514961 35.8679636,16.0598439 L36.1021068,17.1952401 L36.1183778,17.2075425 C36.1413952,17.214289 36.1687781,17.2194481 36.2005263,17.2226229 C36.3168042,17.2325443 36.5497569,17.2134953 36.6553198,17.1750006 C36.5076905,16.5880551 36.1691749,15.309395 36.0735334,14.8962711 C36.0588498,14.8335684 36.0965508,14.7256244 36.2211627,14.7204653 C36.2322745,14.7204653 36.2588637,14.7232433 36.2902151,14.7355457 C36.4362569,14.7907082 36.8553336,14.9494494 36.9874856,14.9970718 L36.8993843,14.06288 C36.8795417,13.8311179 37.0660625,13.8140532 37.1057478,14.022401 C37.2894907,14.8478551 37.3930693,15.9681709 37.9907298,16.3352598 C37.9698355,16.1575689 37.8792667,15.4658781 37.7808988,14.7230042 L37.7148437,14.2252513 C37.616065,13.4824846 37.5232371,12.7913831 37.4982354,12.6147637 C37.4831549,12.522297 37.4819644,12.4540383 37.3775921,12.4183215 C37.3029837,12.3941135 37.2367093,12.4238774 37.1684506,12.4921361 C37.1648789,12.4949141 36.1854459,13.391008 36.1854459,13.391008 C36.1477449,13.4386304 36.0834547,13.4616478 36.0243236,13.4441863 C35.9671768,13.4263279 35.9247135,13.3755307 35.9171733,13.315606 L35.7457329,11.736925 C35.7381927,11.6512048 35.7028728,11.5881052 35.6425511,11.5404829 C35.5846106,11.4944479 35.5064306,11.469843 35.4211072,11.469843 Z M35.4211072,2.96131647 C35.4211072,2.96131647 35.3679289,2.96369759 35.3631667,2.96607871 C35.3631667,2.96607871 35.354039,2.96925353 35.3528485,2.96925353 C35.2119657,2.99108044 34.9123417,3.12720099 34.8016198,3.18077614 L34.7611408,3.52484762 L34.9151197,3.52484762 C34.9563924,3.52484762 34.998062,3.54548397 35.0258417,3.57842276 C35.0560025,3.60818673 35.0687018,3.6514437 35.0635427,3.69430381 L34.927819,4.80707939 C34.9198819,4.86740104 34.8746407,4.91780136 34.8178907,4.93526289 C34.7587597,4.95312127 34.6948663,4.92970695 34.6571653,4.8820846 C34.6571653,4.8820846 33.6777323,3.98559385 33.6737638,3.98281588 C33.6059019,3.91495403 33.5392306,3.88479321 33.4646223,3.9101918 C33.3606468,3.94511486 33.3590594,4.01337356 33.343979,4.10663399 C33.3189773,4.2830748 33.2262298,4.97407808 33.1275394,5.71679074 L33.0615437,6.21451385 C32.9632641,6.95735153 32.8727757,7.64904235 32.8518814,7.82673325 C33.4499387,7.45924744 33.5531205,6.33932851 33.7368634,5.51347759 C33.7769455,5.30512981 33.9630696,5.32219448 33.9432269,5.55395659 L33.8551256,6.48814835 C33.8771509,6.4802113 33.9071574,6.4691876 33.942549,6.45607125 L34.1987506,6.36021289 C34.3383932,6.30767949 34.4797721,6.25420356 34.552793,6.22662228 C34.5841444,6.21392299 34.6103367,6.21114502 34.6218454,6.21114502 C34.7464572,6.21590725 34.7845551,6.32464495 34.7694747,6.38695086 C34.6734363,6.80007475 34.3349207,8.07873485 34.1876883,8.66568031 C34.2928543,8.7045719 34.5262039,8.72282713 34.6420849,8.71330266 C34.6734363,8.71052469 34.7016128,8.70615931 34.7238366,8.69861911 L34.7401076,8.68631667 L34.9742508,7.55092047 C35.0167141,7.34217583 35.1893451,7.3576531 35.1691056,7.58862149 L35.0496529,8.7593376 C35.0814011,8.81965925 35.2548258,9.10698076 35.4211072,9.10698076 C35.5869917,9.10698076 35.7608133,8.81965925 35.7921647,8.7593376 L35.6727119,7.58862149 C35.6528693,7.3576531 35.8251035,7.34217583 35.8679636,7.55092047 L36.1021068,8.68631667 L36.1183778,8.69861911 C36.1413952,8.70536561 36.1687781,8.71052469 36.2005263,8.71330266 C36.3168042,8.72362084 36.5497569,8.7045719 36.6553198,8.66568031 C36.5076905,8.078338 36.1691749,6.80007475 36.0735334,6.38695086 C36.0588498,6.32464495 36.0965508,6.21670096 36.2211627,6.21114502 C36.2322745,6.21114502 36.2588637,6.21392299 36.2902151,6.22662228 C36.4362569,6.28138798 36.8553336,6.440526 36.9874856,6.48814835 L36.8993843,5.55395659 C36.8795417,5.32219448 37.0660625,5.30512981 37.1057478,5.51347759 C37.2894907,6.33932851 37.3930693,7.45924744 37.9907298,7.82673325 C37.9698355,7.64904235 37.8792667,6.95735153 37.7808988,6.21451385 L37.7148437,5.71679074 C37.616065,4.97407808 37.5232371,4.2830748 37.4982354,4.10663399 C37.4831549,4.01337356 37.4819644,3.94511486 37.3775921,3.9101918 C37.3029837,3.88479321 37.2367093,3.91495403 37.1684506,3.98281588 C37.1648789,3.98559385 36.1854459,4.8820846 36.1854459,4.8820846 C36.1477449,4.92970695 36.0834547,4.95312127 36.0243236,4.93526289 C35.9671768,4.91780136 35.9247135,4.86740104 35.9171733,4.80707939 L35.7457329,3.22800163 C35.7381927,3.14267826 35.7028728,3.07918179 35.6425511,3.03195629 C35.5846106,2.98631821 35.5064306,2.96131647 35.4211072,2.96131647 Z M28.2027495,2.96091962 C28.2027495,2.96091962 28.149968,2.96330074 28.1452058,2.96568185 C28.1452058,2.96568185 28.1360782,2.96885668 28.1348876,2.96885668 C27.9944017,2.99068359 27.6943809,3.12680414 27.5836589,3.18037928 L27.5431799,3.52445076 L27.696762,3.52445076 C27.7384315,3.52445076 27.7797042,3.54469026 27.8066902,3.57842276 C27.8368511,3.60818673 27.8491535,3.6514437 27.8443913,3.69430381 L27.7086676,4.80707939 C27.7011274,4.86740104 27.6558861,4.91780136 27.5991362,4.93526289 C27.5396082,4.95312127 27.4757149,4.92970695 27.4380139,4.8820846 C27.4380139,4.8820846 26.458184,3.98559385 26.4546124,3.98281588 C26.3863537,3.91495403 26.3200792,3.88479321 26.2454709,3.9101918 C26.1414954,3.94511486 26.139908,4.01337356 26.1248276,4.10663399 C26.0998258,4.2830748 26.006998,4.97407808 25.9082554,5.71679074 L25.8422302,6.21451385 C25.7439162,6.95735153 25.6534457,7.64904235 25.63273,7.82673325 C26.2303905,7.45924744 26.3335722,6.33932851 26.5173151,5.51347759 C26.5573973,5.30512981 26.7435213,5.32219448 26.7240755,5.55395659 L26.6359741,6.48814835 C26.7681262,6.440526 27.1875997,6.28178484 27.3336416,6.22662228 C27.3649929,6.21392299 27.3915821,6.21114502 27.4030908,6.21114502 C27.5273058,6.21590725 27.5650068,6.32464495 27.5499264,6.38695086 C27.4546817,6.80007475 27.1157693,8.07873485 26.9685369,8.66568031 C27.0737029,8.7045719 27.3070524,8.72282713 27.4229335,8.71330266 C27.4546817,8.71052469 27.4824614,8.70615931 27.505082,8.69861911 L27.521353,8.68631667 L27.7554962,7.55092047 C27.7983563,7.34217583 27.9705905,7.3576531 27.950351,7.58862149 L27.8308983,8.7593376 C27.8626465,8.81965925 28.0364681,9.10698076 28.2023526,9.10698076 C28.368634,9.10698076 28.5420587,8.81965925 28.5738069,8.7593376 L28.4543542,7.58862149 C28.4345116,7.3576531 28.6071426,7.34217583 28.6496058,7.55092047 L28.8837491,8.68631667 L28.90002,8.69861911 C28.9226407,8.70536561 28.9504204,8.71052469 28.9817717,8.71330266 C29.0976528,8.72362084 29.3313992,8.7045719 29.4361683,8.66568031 C29.2893327,8.078338 28.9504204,6.80007475 28.8547788,6.38655401 C28.8400952,6.3242481 28.8781931,6.2163041 29.0024081,6.21074816 C29.01352,6.21074816 29.0401091,6.21352613 29.0714605,6.22622543 C29.1444814,6.25360828 29.2857611,6.30708421 29.4253045,6.35966722 L29.6813371,6.45564683 L29.7687311,6.4877515 L29.6806297,5.55355973 C29.6611839,5.32179763 29.8477048,5.30473295 29.8873901,5.51308073 C30.0707361,6.33893166 30.1743148,7.45885059 30.7719752,7.82633639 C30.7510809,7.6486455 30.6605925,6.95695467 30.5623129,6.214117 L30.4963172,5.71639389 C30.3976269,4.97368123 30.3048794,4.28267795 30.2798776,4.10623714 C30.2647972,4.01297671 30.2632098,3.944718 30.1588375,3.90979495 C30.084626,3.88439636 30.0179547,3.91455718 29.9500929,3.98241903 C29.9457275,3.985197 28.9666913,4.88168774 28.9666913,4.88168774 C28.9289903,4.92931009 28.865097,4.95272441 28.805569,4.93486603 C28.7488191,4.9174045 28.7063558,4.86700418 28.6984188,4.80668254 L28.5273751,3.22760478 C28.5202318,3.1422814 28.484515,3.07878494 28.4245902,3.03155944 C28.3670466,2.98592135 28.2884697,2.96091962 28.2027495,2.96091962 Z" id="Combined-Shape" fill="#FFFFFF" fill-rule="nonzero"></path>
                <path d="M39.6916414,26.8161454 L39.6916414,40.246045 C39.6916414,43.2752233 37.3553683,45.4499773 34.5912877,45.4499773 L25.0263387,45.4499773 C24.6806798,45.4499773 24.3124003,45.499187 23.9361837,45.6055436 L23.9361837,26.8161454 L39.6916414,26.8161454 Z M28.2019558,37.3148893 C28.2019558,37.3148893 28.1491743,37.3172704 28.1444121,37.3196515 C28.1444121,37.3196515 28.1352845,37.3224295 28.1340939,37.3224295 C27.993608,37.3446533 27.6935872,37.4807738 27.5828652,37.5339521 L27.5423862,37.8784204 L27.6959683,37.8784204 C27.7376378,37.8784204 27.7789105,37.8986599 27.8066902,37.9315987 C27.8368511,37.9617596 27.8491535,38.0050165 27.8443913,38.0474798 L27.7086676,39.1598585 C27.7011274,39.220577 27.6558861,39.2709773 27.5991362,39.2884389 C27.5396082,39.3062972 27.4757149,39.2832798 27.4380139,39.2352606 C27.4380139,39.2352606 26.458184,38.3391667 26.4546124,38.3367856 C26.3863537,38.2685269 26.3200792,38.238366 26.2454709,38.2629709 C26.1414954,38.2982908 26.139908,38.3665495 26.1248276,38.45981 C26.0692682,38.8522975 25.6787649,41.7850406 25.63273,42.1803061 C26.2303905,41.8132171 26.3335722,40.6925045 26.5173151,39.8670504 C26.5573973,39.6587026 26.7435213,39.6757673 26.7240755,39.9079263 L26.6359741,40.8417212 C26.7681262,40.7940988 27.1875997,40.6357545 27.3336416,40.5801951 C27.3649929,40.5682895 27.3915821,40.5647178 27.4030908,40.5647178 C27.5273058,40.5698769 27.5650068,40.6782178 27.5499264,40.7409205 C27.4546817,41.1540444 27.1157693,42.4327045 26.9685369,43.01965 C27.0737029,43.0581447 27.3070524,43.0764 27.4229335,43.0672723 C27.4546817,43.0644944 27.4824614,43.0597321 27.505082,43.0521919 L27.521353,43.0398895 L27.7554962,41.9044933 C27.7983563,41.6957487 27.9705905,41.7112259 27.950351,41.9425912 L27.8308983,43.1133073 C27.8626465,43.1732321 28.0364681,43.4609504 28.2023526,43.4609504 C28.368634,43.4609504 28.5420587,43.1732321 28.5738069,43.1133073 L28.4543542,41.9425912 C28.4345116,41.7112259 28.6071426,41.6957487 28.6496058,41.9044933 L28.8837491,43.0398895 L28.90002,43.0521919 C28.9226407,43.0589384 28.9504204,43.0644944 28.9817717,43.0672723 C29.0976528,43.0771937 29.3313992,43.0581447 29.4361683,43.01965 C29.2893327,42.4327045 28.9504204,41.1540444 28.8539851,40.7409205 C28.8393015,40.6782178 28.8773994,40.5706706 29.0016144,40.5647178 C29.0127263,40.5647178 29.0393154,40.5682895 29.0706668,40.5801951 C29.1436877,40.607578 29.2849674,40.6610539 29.4245108,40.7136369 L29.6805434,40.8096165 L29.7679374,40.8417212 L29.679836,39.9079263 C29.6603902,39.6757673 29.8469111,39.6587026 29.8865964,39.8670504 C30.0699424,40.6925045 30.173521,41.8132171 30.7711815,42.1803061 C30.7247498,41.7850406 30.3346433,38.8522975 30.2790839,38.45981 C30.2640035,38.3665495 30.2624161,38.2982908 30.1580438,38.2629709 C30.0838323,38.238366 30.017161,38.2685269 29.9492992,38.3367856 C29.9449338,38.3391667 28.9658976,39.2352606 28.9658976,39.2352606 C28.9281966,39.2832798 28.8643033,39.3062972 28.8047753,39.2884389 C28.7480254,39.2709773 28.7055621,39.220577 28.697625,39.1598585 L28.5265814,37.5815745 C28.5194381,37.4962511 28.4837213,37.4327546 28.4237965,37.3855291 C28.3662529,37.3394942 28.287676,37.3148893 28.2019558,37.3148893 Z M35.4211072,37.3148893 C35.4211072,37.3148893 35.3679289,37.3172704 35.3631667,37.3196515 C35.3631667,37.3196515 35.354039,37.3224295 35.3528485,37.3224295 C35.2119657,37.3446533 34.9123417,37.4807738 34.8016198,37.5339521 L34.7611408,37.8784204 L34.9151197,37.8784204 C34.9563924,37.8784204 34.998062,37.8986599 35.0258417,37.9315987 C35.0560025,37.9617596 35.0687018,38.0050165 35.0635427,38.0474798 L34.927819,39.1598585 C34.9198819,39.220577 34.8746407,39.2709773 34.8178907,39.2884389 C34.7587597,39.3062972 34.6948663,39.2832798 34.6571653,39.2352606 C34.6571653,39.2352606 33.6777323,38.3391667 33.6737638,38.3367856 C33.6059019,38.2685269 33.5392306,38.238366 33.4646223,38.2629709 C33.3606468,38.2982908 33.3590594,38.3665495 33.343979,38.45981 C33.2884196,38.8522975 32.8983132,41.7850406 32.8518814,42.1803061 C33.4499387,41.8132171 33.5531205,40.6925045 33.7368634,39.8670504 C33.7769455,39.6587026 33.9630696,39.6757673 33.9432269,39.9079263 L33.8551256,40.8417212 C33.8771509,40.8337841 33.9071574,40.8227715 33.942549,40.8096716 L34.1987506,40.7139345 C34.3383932,40.6614507 34.4797721,40.6079748 34.552793,40.5801951 C34.5841444,40.5682895 34.6103367,40.5647178 34.6218454,40.5647178 C34.7464572,40.5698769 34.7845551,40.6782178 34.7694747,40.7409205 C34.6734363,41.1540444 34.3349207,42.4327045 34.1876883,43.01965 C34.2928543,43.0581447 34.5262039,43.0764 34.6420849,43.0672723 C34.6734363,43.0644944 34.7016128,43.0597321 34.7238366,43.0521919 L34.7401076,43.0398895 L34.9742508,41.9044933 C35.0167141,41.6957487 35.1893451,41.7112259 35.1691056,41.9425912 L35.0496529,43.1133073 C35.0814011,43.1732321 35.2548258,43.4609504 35.4211072,43.4609504 C35.5869917,43.4609504 35.7608133,43.1732321 35.7921647,43.1133073 L35.6727119,41.9425912 C35.6528693,41.7112259 35.8251035,41.6957487 35.8679636,41.9044933 L36.1021068,43.0398895 L36.1183778,43.0521919 C36.1413952,43.0589384 36.1687781,43.0644944 36.2005263,43.0672723 C36.3168042,43.0771937 36.5497569,43.0581447 36.6553198,43.01965 C36.5076905,42.4327045 36.1691749,41.1540444 36.0735334,40.7409205 C36.0588498,40.6782178 36.0965508,40.5706706 36.2211627,40.5647178 C36.2322745,40.5647178 36.2588637,40.5682895 36.2902151,40.5801951 C36.4362569,40.6349608 36.8553336,40.7940988 36.9874856,40.8417212 L36.8993843,39.9079263 C36.8795417,39.6757673 37.0660625,39.6587026 37.1057478,39.8670504 C37.2894907,40.6925045 37.3930693,41.8132171 37.9907298,42.1803061 C37.944298,41.7850406 37.5537948,38.8522975 37.4982354,38.45981 C37.4831549,38.3665495 37.4819644,38.2982908 37.3775921,38.2629709 C37.3029837,38.238366 37.2367093,38.2685269 37.1684506,38.3367856 C37.1648789,38.3391667 36.1854459,39.2352606 36.1854459,39.2352606 C36.1477449,39.2832798 36.0834547,39.3062972 36.0243236,39.2884389 C35.9671768,39.2709773 35.9247135,39.220577 35.9171733,39.1598585 L35.7457329,37.5815745 C35.7381927,37.4962511 35.7028728,37.4327546 35.6425511,37.3855291 C35.5846106,37.3394942 35.5064306,37.3148893 35.4211072,37.3148893 Z M35.4211072,28.8059659 C35.4211072,28.8059659 35.3679289,28.808347 35.3631667,28.811125 C35.3631667,28.811125 35.354039,28.813903 35.3528485,28.813903 C35.2119657,28.8357299 34.9123417,28.9718504 34.8016198,29.0250287 L34.7611408,29.3698939 L34.9151197,29.3698939 C34.9563924,29.3698939 34.998062,29.3901334 35.0258417,29.4230722 C35.0560025,29.4528361 35.0687018,29.4960931 35.0635427,29.5389532 L34.927819,30.6517288 C34.9198819,30.7120505 34.8746407,30.7624508 34.8178907,30.7803092 C34.7587597,30.7977707 34.6948663,30.7743564 34.6571653,30.726734 C34.6571653,30.726734 33.6777323,29.8302433 33.6737638,29.8278622 C33.6059019,29.7596035 33.5392306,29.7294426 33.4646223,29.7544444 C33.3606468,29.7901611 33.3590594,29.858023 33.343979,29.9504897 C33.3189773,30.1272877 33.2262298,30.8185678 33.1275394,31.5614769 L33.0615437,32.059319 C32.9632641,32.8023174 32.8727757,33.4940886 32.8518814,33.6717795 C33.4499387,33.3042937 33.5531205,32.1843748 33.7368634,31.3585239 C33.7769455,31.1497792 33.9630696,31.1672408 33.9432269,31.398606 L33.8551256,32.3327978 C33.9872776,32.2855723 34.4067511,32.1264343 34.552793,32.0712717 C34.5841444,32.0589693 34.6103367,32.0561913 34.6218454,32.0561913 C34.7464572,32.0605567 34.7845551,32.1692944 34.7694747,32.2319971 C34.6734363,32.6447242 34.3349207,33.9233843 34.1876883,34.5103297 C34.2928543,34.5492213 34.5262039,34.5674766 34.6420849,34.5579521 C34.6734363,34.5547773 34.7016128,34.5512056 34.7238366,34.5428717 L34.7401076,34.5305692 L34.9742508,33.3955699 C35.0167141,33.1868253 35.1893451,33.2026994 35.1691056,33.4336678 L35.0496529,34.603987 C35.0814011,34.6643087 35.2548258,34.9516302 35.4211072,34.9516302 C35.5869917,34.9516302 35.7608133,34.6643087 35.7921647,34.603987 L35.6727119,33.4336678 C35.6528693,33.2026994 35.8251035,33.1868253 35.8679636,33.3955699 L36.1021068,34.5305692 L36.1183778,34.5428717 C36.1413952,34.5504119 36.1687781,34.5547773 36.2005263,34.5579521 C36.3168042,34.5682703 36.5497569,34.5492213 36.6553198,34.5103297 C36.5076905,33.9229874 36.1691749,32.6447242 36.0735334,32.2319971 C36.0588498,32.1692944 36.0965508,32.0613504 36.2211627,32.0561913 C36.2322745,32.0561913 36.2588637,32.0589693 36.2902151,32.0712717 C36.3388957,32.0895269 36.4179135,32.1194232 36.5065293,32.1529205 L36.7804313,32.2561758 C36.8675038,32.2888353 36.943435,32.3170559 36.9874856,32.3327978 L36.8993843,31.398606 C36.8795417,31.1672408 37.0660625,31.1497792 37.1057478,31.3585239 C37.2894907,32.1843748 37.3930693,33.3042937 37.9907298,33.6717795 C37.9698355,33.4940886 37.8792667,32.8023174 37.7808988,32.059319 L37.7148437,31.5614769 C37.616065,30.8185678 37.5232371,30.1272877 37.4982354,29.9504897 C37.4831549,29.858023 37.4819644,29.7901611 37.3775921,29.7544444 C37.3029837,29.7294426 37.2367093,29.7596035 37.1684506,29.8278622 C37.1648789,29.8302433 36.1854459,30.726734 36.1854459,30.726734 C36.1477449,30.7743564 36.0834547,30.7977707 36.0243236,30.7803092 C35.9671768,30.7624508 35.9247135,30.7116536 35.9171733,30.6517288 L35.7457329,29.0726511 C35.7381927,28.9873277 35.7028728,28.9238312 35.6425511,28.8762089 C35.5846106,28.8309676 35.5064306,28.8059659 35.4211072,28.8059659 Z M28.2019558,28.8059659 C28.2019558,28.8059659 28.1491743,28.808347 28.1444121,28.811125 C28.1444121,28.811125 28.1352845,28.813903 28.1340939,28.813903 C27.993608,28.8357299 27.6935872,28.9718504 27.5828652,29.0250287 L27.5423862,29.3698939 L27.6959683,29.3698939 C27.7376378,29.3698939 27.7789105,29.3901334 27.8066902,29.4230722 C27.8368511,29.4528361 27.8491535,29.4960931 27.8443913,29.5389532 L27.7086676,30.6517288 C27.7011274,30.7120505 27.6558861,30.7624508 27.5991362,30.7803092 C27.5396082,30.7977707 27.4757149,30.7743564 27.4380139,30.726734 C27.4380139,30.726734 26.458184,29.8302433 26.4546124,29.8278622 C26.3863537,29.7596035 26.3200792,29.7294426 26.2454709,29.7544444 C26.1414954,29.7901611 26.139908,29.858023 26.1248276,29.9504897 C26.0998258,30.1272877 26.006998,30.8185678 25.9082554,31.5614769 L25.8422302,32.059319 C25.7439162,32.8023174 25.6534457,33.4940886 25.63273,33.6717795 C26.2303905,33.3042937 26.3335722,32.1843748 26.5173151,31.3585239 C26.5573973,31.1497792 26.7435213,31.1672408 26.7240755,31.398606 L26.6359741,32.3327978 C26.7681262,32.2855723 27.1875997,32.1264343 27.3336416,32.0712717 C27.3649929,32.0589693 27.3915821,32.0561913 27.4030908,32.0561913 C27.5273058,32.0605567 27.5650068,32.1692944 27.5499264,32.2319971 C27.4546817,32.6447242 27.1157693,33.9233843 26.9685369,34.5103297 C27.0737029,34.5492213 27.3070524,34.5674766 27.4229335,34.5579521 C27.4546817,34.5547773 27.4824614,34.5512056 27.505082,34.5428717 L27.521353,34.5305692 L27.7554962,33.3955699 C27.7983563,33.1868253 27.9705905,33.2026994 27.950351,33.4336678 L27.8308983,34.603987 C27.8626465,34.6643087 28.0364681,34.9516302 28.2023526,34.9516302 C28.368634,34.9516302 28.5420587,34.6643087 28.5738069,34.603987 L28.4543542,33.4336678 C28.4345116,33.2026994 28.6071426,33.1868253 28.6496058,33.3955699 L28.8837491,34.5305692 L28.90002,34.5428717 C28.9226407,34.5504119 28.9504204,34.5547773 28.9817717,34.5579521 C29.0976528,34.5682703 29.3313992,34.5492213 29.4361683,34.5103297 C29.2893327,33.9229874 28.9504204,32.6447242 28.8539851,32.2319971 C28.8393015,32.1692944 28.8773994,32.0613504 29.0016144,32.0561913 C29.0127263,32.0561913 29.0393154,32.0589693 29.0706668,32.0712717 C29.2167087,32.1260374 29.6357853,32.2855723 29.7679374,32.3327978 L29.679836,31.398606 C29.6603902,31.1672408 29.8469111,31.1497792 29.8865964,31.3585239 C30.0699424,32.1843748 30.173521,33.3042937 30.7711815,33.6717795 C30.7502872,33.4940886 30.6597988,32.8023174 30.5615192,32.059319 L30.4955235,31.5614769 C30.3968332,30.8185678 30.3040857,30.1272877 30.2790839,29.9504897 C30.2640035,29.858023 30.2624161,29.7901611 30.1580438,29.7544444 C30.0838323,29.7294426 30.017161,29.7596035 29.9492992,29.8278622 C29.9449338,29.8302433 28.9658976,30.726734 28.9658976,30.726734 C28.9281966,30.7743564 28.8643033,30.7977707 28.8047753,30.7803092 C28.7480254,30.7624508 28.7055621,30.7116536 28.697625,30.6517288 L28.5265814,29.0726511 C28.5194381,28.9873277 28.4837213,28.9238312 28.4237965,28.8762089 C28.3662529,28.8309676 28.287676,28.8059659 28.2019558,28.8059659 Z" id="Combined-Shape" fill="#FFFFFF" fill-rule="nonzero"></path>
                <path d="M20.3323624,33.5785191 C20.489913,33.5785191 20.635558,33.6396344 20.7446926,33.7511501 C20.7452879,33.7527375 20.7673132,33.7753333 20.8007791,33.809072 L21.0589443,34.0662947 C21.0982141,34.1051429 21.1289454,34.1354029 21.1411486,34.1472093 L21.5760994,34.1472093 C21.8102427,34.1472093 21.9979541,34.3384924 21.9979541,34.5726356 L21.9979541,35.0659238 C21.9987478,35.0669292 22.0028839,35.0719489 22.0099757,35.0805186 L22.084903,35.17082 C22.2064818,35.3172005 22.4350038,35.5920097 22.6378574,35.8359361 L22.8023527,36.033737 C22.8783643,36.1251401 22.9427021,36.2025106 22.9849273,36.2533077 C23.1170793,36.4072867 23.1984342,36.60611 23.1984342,36.8231885 C23.1984342,37.2982215 22.8138837,37.6875342 22.3412319,37.6974555 C22.2951969,38.1375654 21.9241394,38.4816369 21.4717271,38.4816369 C21.3260821,38.4816369 21.1891678,38.4455233 21.0669371,38.3828205 C20.9113708,38.6260913 20.6423045,38.788801 20.3319655,38.788801 C20.0216266,38.788801 19.7521634,38.6260913 19.5977876,38.3828205 C19.4747632,38.4455233 19.337849,38.4816369 19.1926008,38.4816369 C18.7401885,38.4816369 18.369131,38.1367717 18.3234929,37.6974555 C17.8504442,37.6875342 17.4658938,37.2982215 17.4658938,36.8231885 C17.4658938,36.60611 17.5472486,36.4072867 17.6794006,36.2533077 C17.8483012,36.050754 18.3707502,35.422012 18.5792726,35.1708962 L18.6542831,35.0805285 L18.6663738,35.0659238 L18.6663738,34.5726356 C18.6663738,34.3384924 18.8544821,34.1472093 19.0882285,34.1472093 L19.523973,34.1472093 C19.5723891,34.0999838 19.9176511,33.7574997 19.9200322,33.7511501 C20.0291668,33.6388407 20.1752086,33.5785191 20.3323624,33.5785191 Z M20.3323624,33.8797304 C20.2581509,33.8797304 20.1843363,33.9098913 20.1339359,33.9610853 L19.648188,34.4468333 L19.0878316,34.4468333 C19.0163981,34.4468333 18.9691726,34.5043769 18.9691726,34.5706514 L18.9691726,35.173471 L17.8552065,36.5084842 C17.7921069,36.5946013 17.780995,36.6997673 17.780995,36.8235854 C17.780995,37.1157485 17.9950813,37.3580867 18.2757079,37.4036328 L18.3715121,37.4113246 L19.0727512,36.0469442 C19.1005309,35.9913848 19.1672022,35.9671768 19.2247459,35.9921785 C19.283877,36.0175771 19.310863,36.0866295 19.2850675,36.1465543 L18.636213,37.6549923 C18.6616116,37.9581879 18.9124227,38.1955059 19.2203805,38.1955059 C19.3275308,38.1955059 19.426744,38.1669325 19.5128611,38.1185165 L19.7926424,36.5934107 C19.8037543,36.5326922 19.8620917,36.4894352 19.9251913,36.4993566 C19.9859098,36.5080873 20.0291668,36.5624562 20.0251982,36.6231747 L19.8569326,38.2089989 C19.9525741,38.3776614 20.12838,38.4891771 20.3319655,38.5010827 C20.5355511,38.4895739 20.7117538,38.3772646 20.8069985,38.2093958 L20.6391297,36.6235715 C20.6347643,36.562853 20.6780213,36.5084842 20.7395335,36.4997534 C20.8022362,36.4906258 20.8605736,36.5330891 20.8716855,36.5938076 L21.1518637,38.1189133 C21.2375839,38.1673294 21.337194,38.1959028 21.4439474,38.1959028 C21.7519053,38.1959028 22.0031132,37.957791 22.0285118,37.6553891 L21.3792604,36.1469512 C21.3534649,36.0878201 21.3804509,36.0187677 21.4399789,35.9925754 C21.4975226,35.9675736 21.5634001,35.9917817 21.5915767,36.0473411 L22.2928158,37.4117214 C22.6190289,37.4117214 22.8833329,37.1486079 22.8833329,36.8239822 C22.8833329,36.7001641 22.8726179,36.5949981 22.8091215,36.508881 L21.6951553,35.1738678 L21.6951553,34.5710482 C21.6951553,34.5043769 21.6479298,34.4472301 21.5760994,34.4472301 L21.01614,34.4472301 L20.5311857,33.9610853 C20.4803885,33.9098913 20.4065739,33.8797304 20.3323624,33.8797304 Z M20.3323624,20.6565912 C20.489913,20.6565912 20.635558,20.7177066 20.7446926,20.8288254 C20.7452879,20.8304128 20.7673132,20.8530582 20.8007791,20.8868651 L21.0589443,21.1444723 C21.0982141,21.1833391 21.1289454,21.2135743 21.1411486,21.2252815 L21.5760994,21.2252815 C21.8102427,21.2252815 21.9979541,21.4165646 21.9979541,21.6511046 L21.9979541,22.143996 C22.0058911,22.1535204 22.3480666,22.5651892 22.6378574,22.9135967 L22.8023527,23.1113265 C22.8783643,23.2026726 22.9427021,23.2799478 22.9849273,23.3305862 C23.1170793,23.4853588 23.1984342,23.6841821 23.1984342,23.9012607 C23.1984342,24.3758968 22.8138837,24.7656063 22.3412319,24.7751308 C22.2951969,25.2156375 21.9241394,25.559709 21.4717271,25.559709 C21.3260821,25.559709 21.1891678,25.5235954 21.0669371,25.4604958 C20.9113708,25.7037666 20.6423045,25.8664763 20.3319655,25.8664763 C20.0216266,25.8664763 19.7521634,25.7037666 19.5977876,25.4604958 C19.4747632,25.5235954 19.337849,25.559709 19.1926008,25.559709 C18.7401885,25.559709 18.369131,25.2148438 18.3234929,24.7751308 C17.8504442,24.7656063 17.4658938,24.3758968 17.4658938,23.9012607 C17.4658938,23.6841821 17.5472486,23.4853588 17.6794006,23.3305862 C17.7216258,23.2801065 17.7859477,23.2029265 17.8619371,23.1116313 L18.0263824,22.9139494 C18.2291742,22.6700642 18.4576345,22.3950081 18.5792726,22.2486572 L18.6542831,22.1584621 L18.6663738,22.143996 L18.6663738,21.6511046 C18.6663738,21.4165646 18.8544821,21.2252815 19.0882285,21.2252815 L19.523973,21.2252815 C19.5723891,21.1784528 19.9176511,20.835175 19.9200322,20.8288254 C20.0291668,20.7169129 20.1752086,20.6565912 20.3323624,20.6565912 Z M8.84823266,20.6565912 C9.00578326,20.6565912 9.15142829,20.7177066 9.26016598,20.8288254 C9.26056284,20.8296191 9.2663048,20.8356773 9.27614397,20.845763 L9.57503157,21.1444723 C9.614258,21.1833391 9.64491489,21.2135743 9.6570189,21.2252815 L10.0923666,21.2252815 C10.3261129,21.2252815 10.5142212,21.4165646 10.5142212,21.6511046 L10.5142212,22.143996 C10.5265236,22.1582827 11.2900687,23.077394 11.5011944,23.3305862 C11.6333464,23.4853588 11.7147013,23.6841821 11.7147013,23.9012607 C11.7147013,24.3758968 11.3301508,24.7656063 10.857499,24.7751308 C10.811464,25.2156375 10.4404066,25.559709 9.98839109,25.559709 C9.84274607,25.559709 9.70543496,25.5235954 9.58320426,25.4604958 C9.42763792,25.7037666 9.15857164,25.8664763 8.84823266,25.8664763 C8.53829053,25.8664763 8.2688274,25.7037666 8.11365791,25.4604958 C7.99103035,25.5235954 7.8541161,25.559709 7.70886793,25.559709 C7.2564556,25.559709 6.88539812,25.2148438 6.83936319,24.7751308 C6.36671136,24.7656063 5.98216088,24.3758968 5.98216088,23.9012607 C5.98216088,23.6841821 6.06391258,23.4853588 6.19606461,23.3305862 C6.36464773,23.1286674 6.88728714,22.4995444 7.09569525,22.2486572 L7.17061943,22.1584621 L7.18264096,22.143996 L7.18264096,21.6511046 C7.18264096,21.4165646 7.37074924,21.2252815 7.60449561,21.2252815 L8.03944641,21.2252815 C8.08825932,21.1784528 8.43391821,20.835175 8.43629933,20.8288254 C8.54503703,20.7169129 8.69068205,20.6565912 8.84823266,20.6565912 Z M31.814111,20.6565912 C31.9716616,20.6565912 32.1173066,20.7177066 32.2264412,20.8288254 C32.2276318,20.8320002 32.3145425,20.9194071 32.4072573,21.0118738 L32.5406929,21.1444723 C32.5799627,21.1833391 32.610694,21.2135743 32.6228973,21.2252815 L33.0582449,21.2252815 C33.2919913,21.2252815 33.4797027,21.4165646 33.4797027,21.6511046 L33.4797027,22.143996 C33.4876398,22.1535204 33.8299915,22.5651892 34.1197824,22.9135967 L34.2842537,23.1113265 C34.36024,23.2026726 34.4245301,23.2799478 34.4666759,23.3305862 C34.5988279,23.4853588 34.6797859,23.6841821 34.6797859,23.9012607 C34.6797859,24.3758968 34.2956323,24.7656063 33.8229805,24.7751308 C33.7773424,25.2156375 33.4058881,25.559709 32.9538726,25.559709 C32.8078307,25.559709 32.6713133,25.5235954 32.5486858,25.4604958 C32.3931194,25.7037666 32.1240531,25.8664763 31.8137142,25.8664763 C31.5029783,25.8664763 31.233912,25.7037666 31.0791394,25.4604958 C30.9565119,25.5235954 30.8199945,25.559709 30.6743494,25.559709 C30.222334,25.559709 29.8512765,25.2148438 29.8052415,24.7751308 C29.3325897,24.7656063 28.9480392,24.3758968 28.9480392,23.9012607 C28.9480392,23.6841821 29.0293941,23.4853588 29.1615461,23.3305862 C29.2036919,23.2801065 29.2679662,23.2029265 29.3439302,23.1116313 L29.5083515,22.9139494 C29.7111433,22.6700642 29.93969,22.3950081 30.0613799,22.2486572 L30.1364236,22.1584621 L30.1485193,22.143996 L30.1485193,21.6511046 C30.1485193,21.4165646 30.3362307,21.2252815 30.5699771,21.2252815 L31.0053248,21.2252815 C31.017528,21.2135743 31.0482841,21.1833391 31.0875849,21.1444723 L31.2211135,21.0118738 C31.3138779,20.9194071 31.4007887,20.8320002 31.4017808,20.8288254 C31.5109154,20.7169129 31.6565604,20.6565912 31.814111,20.6565912 Z M31.814111,20.9570089 C31.7402964,20.9570089 31.6660849,20.9867729 31.6152877,21.0383637 L31.1303334,21.5245086 L30.5699771,21.5245086 C30.4985436,21.5245086 30.4513181,21.5816554 30.4513181,21.6483267 L30.4513181,22.2511462 L29.3369551,23.5857626 C29.2738555,23.6722765 29.2627436,23.7770457 29.2627436,23.9012607 C29.2627436,24.1930666 29.4771513,24.4353692 29.7575529,24.4809116 L29.8532607,24.488603 L30.554103,23.1242227 C30.5818827,23.0686633 30.648554,23.0448521 30.7057008,23.069457 C30.7648319,23.0952524 30.7918179,23.1643048 30.7660225,23.2242296 L30.1171679,24.7326675 C30.1421697,25.0358632 30.3933776,25.2731812 30.7017323,25.2731812 C30.8084857,25.2731812 30.9076989,25.244211 30.993816,25.1957949 L31.2735973,23.6714828 C31.2851061,23.6095738 31.3434435,23.5667137 31.4061462,23.576635 C31.4672616,23.5853658 31.5105185,23.6401315 31.5061531,23.70085 L31.3382844,25.2862774 C31.4339259,25.4553367 31.6097318,25.5668524 31.8137142,25.5791548 C32.0176966,25.5668524 32.1935024,25.4553367 32.289144,25.2870711 L32.1212752,23.7016437 C32.1169098,23.6409252 32.1601668,23.5861595 32.221679,23.5774287 C32.2839849,23.5686979 32.3423222,23.6103675 32.353831,23.6722765 L32.6340091,25.1965886 C32.7197294,25.2450047 32.8193395,25.2739749 32.9260929,25.2739749 C33.2340508,25.2739749 33.4848618,25.0358632 33.5106572,24.7334613 L32.8614059,23.2250233 C32.8352136,23.1658922 32.8625964,23.0968398 32.9217275,23.0702507 C32.9792712,23.0456458 33.0455456,23.069457 33.0733253,23.1250164 L33.7745644,24.4893967 C34.1007775,24.4893967 34.3650816,24.2262832 34.3650816,23.9020544 C34.3650816,23.7782363 34.3539697,23.6730703 34.2912669,23.5865563 L33.1769039,22.2511462 L33.1769039,21.6483267 C33.1769039,21.5812585 33.1296784,21.5245086 33.0582449,21.5245086 L32.4978886,21.5245086 L32.0125375,21.0383637 C31.9621371,20.9867729 31.8879257,20.9570089 31.814111,20.9570089 Z M20.3323624,20.9578026 C20.2581509,20.9578026 20.1843363,20.9875666 20.1339359,21.0391574 L19.6485848,21.5253023 L19.0882285,21.5253023 C19.016795,21.5253023 18.9695695,21.5824491 18.9695695,21.6491204 L18.9695695,22.25194 L17.8556033,23.5865563 C17.7925037,23.6730703 17.7813918,23.7778394 17.7813918,23.9020544 C17.7813918,24.1938603 17.9954781,24.4361629 18.2761047,24.4817053 L18.371909,24.4893967 L19.0731481,23.1250164 C19.1009278,23.069457 19.1675991,23.0456458 19.2251428,23.0702507 C19.2842738,23.0960461 19.3112598,23.1650985 19.2854644,23.2250233 L18.6366099,24.7334613 C18.6620085,25.0366569 18.9128195,25.2739749 19.2207774,25.2739749 C19.3279277,25.2739749 19.4271409,25.2450047 19.513258,25.1965886 L19.7930393,23.6722765 C19.8041512,23.6103675 19.8624885,23.5675074 19.9255882,23.5774287 C19.9863066,23.5861595 20.0295636,23.6409252 20.0255951,23.7016437 L19.8573294,25.2870711 C19.9525741,25.4553367 20.12838,25.5668524 20.3319655,25.5791548 C20.5355511,25.5668524 20.7117538,25.4553367 20.8069985,25.2870711 L20.6391297,23.7016437 C20.6347643,23.6409252 20.6780213,23.5861595 20.7395335,23.5774287 C20.8022362,23.5686979 20.8605736,23.6103675 20.8716855,23.6722765 L21.1518637,25.1965886 C21.2375839,25.2450047 21.337194,25.2739749 21.4439474,25.2739749 C21.7519053,25.2739749 22.0031132,25.0358632 22.0285118,24.7334613 L21.3792604,23.2250233 C21.3534649,23.1658922 21.3804509,23.0968398 21.4399789,23.0702507 C21.4975226,23.0456458 21.5634001,23.069457 21.5915767,23.1250164 L22.2928158,24.4893967 C22.6190289,24.4893967 22.8833329,24.2262832 22.8833329,23.9020544 C22.8833329,23.7782363 22.8726179,23.6730703 22.8091215,23.5865563 L21.6951553,22.25194 L21.6951553,21.6491204 C21.6951553,21.5820522 21.6479298,21.5253023 21.5760994,21.5253023 L21.01614,21.5253023 L20.5311857,21.0391574 C20.4803885,20.9875666 20.4065739,20.9578026 20.3323624,20.9578026 Z M8.84862951,20.9578026 C8.77481487,20.9578026 8.70100022,20.9875666 8.6498062,21.0391574 L8.16524878,21.5253023 L7.60489246,21.5253023 C7.53345894,21.5253023 7.48623344,21.5824491 7.48623344,21.6491204 L7.48623344,22.25194 L6.3714736,23.5865563 C6.30837398,23.6730703 6.2972621,23.7778394 6.2972621,23.9020544 C6.2972621,24.1938603 6.51166983,24.4361629 6.79236072,24.4817053 L6.88817609,24.4893967 L7.5894152,23.1250164 C7.6171949,23.069457 7.68346934,23.0456458 7.74101302,23.0702507 C7.8001441,23.0960461 7.82752695,23.1650985 7.80133466,23.2250233 L7.15248014,24.7334613 C7.17787872,25.0366569 7.42908662,25.2739749 7.73704449,25.2739749 C7.84340107,25.2739749 7.94301115,25.2450047 8.02873138,25.1965886 L8.30890954,23.6722765 C8.32041828,23.6103675 8.3783588,23.5675074 8.44106156,23.5774287 C8.50257376,23.5861595 8.54583073,23.6409252 8.5410685,23.7016437 L8.37359657,25.2870711 C8.46884127,25.4553367 8.64504396,25.5668524 8.84823266,25.5791548 C9.05221506,25.5668524 9.2280209,25.4553367 9.32366245,25.2870711 L9.15579367,23.7016437 C9.15103143,23.6409252 9.19468525,23.5861595 9.2558006,23.5774287 C9.31850336,23.5686979 9.37684074,23.6103675 9.38795262,23.6722765 L9.66852764,25.1965886 C9.75424787,25.2450047 9.8534611,25.2739749 9.96061138,25.2739749 C10.2681724,25.2739749 10.5193803,25.0358632 10.5451757,24.7334613 L9.89592436,23.2250233 C9.86973207,23.1658922 9.89671806,23.0968398 9.956246,23.0702507 C10.0137897,23.0456458 10.0800641,23.069457 10.1078438,23.1250164 L10.8090829,24.4893967 C11.135296,24.4893967 11.3996001,24.2262832 11.3996001,23.9020544 C11.3996001,23.7782363 11.3884882,23.6730703 11.3257854,23.5865563 L10.2114224,22.25194 L10.2114224,21.6491204 C10.2114224,21.5820522 10.1641969,21.5253023 10.0927634,21.5253023 L9.53240709,21.5253023 L9.04745282,21.0391574 C8.99665565,20.9875666 8.922841,20.9578026 8.84862951,20.9578026 Z M20.3323624,7.73426652 C20.489913,7.73426652 20.635558,7.79538186 20.7446926,7.90650068 C20.7452879,7.90818731 20.7673132,7.93085753 20.8007791,7.96465204 L20.9948843,8.15854104 C21.0628508,8.22601689 21.1228438,8.28524719 21.1411486,8.30295675 L21.5760994,8.30295675 C21.8102427,8.30295675 21.9979541,8.49423985 21.9979541,8.72838307 L21.9979541,9.22167125 C22.0098597,9.23635481 22.7738015,10.1546725 22.9849273,10.4086583 C23.1170793,10.5626373 23.1984342,10.7614606 23.1984342,10.9785391 C23.1984342,11.4539689 22.8138837,11.8432816 22.3412319,11.8524092 C22.2951969,12.2933128 21.9241394,12.6373843 21.4717271,12.6373843 C21.3260821,12.6373843 21.1891678,12.6008738 21.0669371,12.5381711 C20.9113708,12.7814419 20.6423045,12.9437548 20.3319655,12.9437548 C20.0216266,12.9437548 19.7521634,12.7814419 19.5977876,12.5381711 C19.4747632,12.6008738 19.337849,12.6373843 19.1926008,12.6373843 C18.7401885,12.6373843 18.369131,12.2925191 18.3234929,11.8524092 C17.8504442,11.8432816 17.4658938,11.4539689 17.4658938,10.9785391 C17.4658938,10.7614606 17.5472486,10.5626373 17.6794006,10.4086583 C17.7216258,10.3580199 17.7859477,10.2807447 17.8619371,10.1893955 L18.0263824,9.9916541 C18.316085,9.64321724 18.6581722,9.23146029 18.6663738,9.22167125 L18.6663738,8.72838307 C18.6663738,8.49423985 18.8544821,8.30295675 19.0882285,8.30295675 L19.523973,8.30295675 C19.5723891,8.25573125 19.9176511,7.91324718 19.9200322,7.90650068 C20.0291668,7.79458816 20.1752086,7.73426652 20.3323624,7.73426652 Z M20.3323624,8.03547788 C20.2581509,8.03547788 20.1843363,8.0656387 20.1339359,8.11683273 L19.6485848,8.60297755 L19.0882285,8.60297755 C19.016795,8.60297755 18.9695695,8.66052123 18.9695695,8.72679566 L18.9695695,9.32921839 L17.8556033,10.6642316 C17.7925037,10.7503487 17.7813918,10.8555147 17.7813918,10.9793328 C17.7813918,11.2718531 17.9954781,11.5139056 18.2761047,11.5593909 L18.371909,11.567072 L19.0731481,10.2026917 C19.1009278,10.1471323 19.1675991,10.1229242 19.2251428,10.1475291 C19.2842738,10.1733245 19.3112598,10.2431707 19.2854644,10.3023017 L18.6366099,11.8107397 C18.6620085,12.1143322 18.9128195,12.3512534 19.2207774,12.3512534 C19.3279277,12.3512534 19.4271409,12.3222831 19.513258,12.273867 L19.7930393,10.749555 C19.8041512,10.6880428 19.8624885,10.6455795 19.9255882,10.655104 C19.9863066,10.6638348 20.0295636,10.7186005 20.0255951,10.7789221 L19.8573294,12.3647464 C19.9525741,12.5326151 20.12838,12.6445277 20.3319655,12.6568301 C20.5355511,12.6449245 20.7117538,12.533012 20.8069985,12.3647464 L20.6391297,10.7789221 C20.6347643,10.7186005 20.6780213,10.6638348 20.7395335,10.655104 C20.8022362,10.6463732 20.8605736,10.6880428 20.8716855,10.749555 L21.1518637,12.273867 C21.2375839,12.3222831 21.337194,12.3512534 21.4439474,12.3512534 C21.7519053,12.3512534 22.0031132,12.1135385 22.0285118,11.8107397 L21.3792604,10.3023017 C21.3534649,10.2439644 21.3804509,10.1745151 21.4399789,10.1475291 C21.4975226,10.1229242 21.5634001,10.1471323 21.5915767,10.2026917 L22.2928158,11.567072 C22.6190289,11.567072 22.8833329,11.3043554 22.8833329,10.9793328 C22.8833329,10.8555147 22.8726179,10.7503487 22.8091215,10.6642316 L21.6951553,9.32921839 L21.6951553,8.72679566 C21.6951553,8.65972752 21.6479298,8.60297755 21.5760994,8.60297755 L21.01614,8.60297755 L20.5311857,8.11683273 C20.4803885,8.0656387 20.4065739,8.03547788 20.3323624,8.03547788 Z" id="Combined-Shape" fill="#FFFFFF" fill-rule="nonzero"></path>
                <g id="Group" transform="translate(2.667248, 2.960920)"></g>
            </g>
        </g>
    </g>
</svg>