<?xml version="1.0" encoding="UTF-8"?>
<svg width="169px" height="70px" viewBox="0 0 169 70" version="1.1" xmlns="http://www.w3.org/2000/svg" xmlns:xlink="http://www.w3.org/1999/xlink">
    <title>Group Copy</title>
    <g id="Page-1" stroke="none" stroke-width="1" fill="none" fill-rule="evenodd">
        <g id="thumbnail" transform="translate(0.000000, -305.000000)" fill="#FFFFFF" fill-rule="nonzero">
            <g id="Group-Copy" transform="translate(0.000000, 305.000000)">
                <path d="M52.7638191,9.1528283 C54.4834915,9.1528283 55.2602305,8.27471876 56.433503,6.94553002 C57.7817167,5.41875034 59.4605696,3.51758795 62.7168088,3.51758795 C65.9724652,3.51758795 67.6507349,5.41875034 68.9983654,6.94553002 C70.1728043,8.27471876 70.9483769,9.1528283 72.6668829,9.1528283 C74.3871385,9.1528283 75.161545,8.27471876 76.3354006,6.94553002 C77.6836144,5.41875034 79.3618841,3.51758795 82.6181233,3.51758795 C85.8731965,3.51758795 87.5514662,5.41875034 88.8996799,6.94553002 C90.0735356,8.27471876 90.8485253,9.1528283 92.5681977,9.1528283 C94.2878697,9.1528283 95.0628594,8.27471876 96.2367151,6.94553002 C97.5855121,5.41875034 99.2637817,3.51758795 102.519438,3.51758795 C105.775094,3.51758795 107.498848,5.41875034 108.847645,6.94553002 C110.021501,8.27471876 110.6682,9.1528283 112.562814,9.1528283 L112.562814,12.6633166 C109.449443,12.6633166 107.582237,10.7628041 106.234023,9.23537452 C105.060168,7.90553577 104.261852,7.0280762 102.54218,7.0280762 C100.823091,7.0280762 100.035273,7.90553577 98.862,9.23537452 C97.5137863,10.7628041 95.8296852,12.6633166 92.5740288,12.6633166 C89.3177895,12.6633166 87.6366041,10.7628041 86.2883904,9.23537452 C85.1151179,7.90553577 84.3383789,7.0280762 82.6192897,7.0280762 C80.8996173,7.0280762 80.1240448,7.90553577 78.9501891,9.23537452 C77.6013922,10.7628041 75.9231225,12.6633166 72.6680493,12.6633166 C69.4118097,12.6633166 67.7335403,10.7628041 66.3859098,9.23537452 C65.2120542,7.90553577 64.4364812,7.0280762 62.7173921,7.0280762 C60.9977196,7.0280762 60.2227299,7.90553577 59.0488743,9.23537452 C57.7006605,10.7628041 56.0229741,12.6633166 52.767318,12.6633166" id="Fill-6"></path>
                <path d="M12.5630767,23.7568174 C10.8438629,23.7568174 9.4170867,24.3521771 8.28446176,25.5428967 C7.15126564,26.7336162 6.58523878,28.2895516 6.58523878,30.2101231 C6.58523878,32.1718538 7.15126564,33.7573543 8.28446176,34.9683636 C9.4170867,36.179373 10.8438629,36.7851674 12.5630767,36.7851674 C14.229172,36.7851674 15.6319591,36.1689381 16.7720092,34.9376391 C17.9114882,33.7074994 18.4809421,32.1376511 18.4809421,30.2298332 C18.4809421,28.3365079 17.921198,26.7840508 16.8017099,25.5730415 C15.6822218,24.3626119 14.2691537,23.7568174 12.5630767,23.7568174 L12.5630767,23.7568174 Z M6.82512906,19.2113296 L6.82512906,21.6461018 C7.81153515,20.6455263 8.87790467,19.8942252 10.0242376,19.3945172 C11.1705706,18.8936498 12.3962958,18.6432161 13.7031268,18.6432161 C16.5418288,18.6432161 18.9544398,19.7319071 20.9403889,21.9104485 C22.9263379,24.0884102 23.919598,26.8826011 23.919598,30.2912821 C23.919598,33.5782246 22.892639,36.3277779 20.8404346,38.5399426 C18.787659,40.7515271 16.355057,41.8576095 13.5431999,41.8576095 C12.2900587,41.8576095 11.1237349,41.6309438 10.0442285,41.1781919 C8.96415096,40.7248607 7.89149858,39.9834147 6.82512906,38.9561728 L6.82512906,49.9497487 L1.40703518,49.9497487 L1.40703518,19.2113296 L6.82512906,19.2113296 Z" id="Fill-8"></path>
                <path d="M68.5346875,21.2409431 L65.0692978,24.6713226 C63.661703,23.2909384 62.3835624,22.6004564 61.2348758,22.6004564 C60.6063493,22.6004564 60.1143063,22.7332191 59.7587464,22.9970052 C59.4031865,23.2602116 59.2256995,23.58835 59.2256995,23.9808406 C59.2256995,24.278832 59.3381667,24.5530537 59.5642723,24.8023461 C59.7892062,25.0539575 60.3462694,25.3948504 61.2348758,25.8279235 L63.2856415,26.8424856 C65.4453596,27.8970505 66.9285182,28.9730661 67.7351176,30.0687932 C68.5417167,31.1651001 68.9447236,32.4498256 68.9447236,33.9247091 C68.9447236,35.8871621 68.2172027,37.5237958 66.7609892,38.8357696 C65.3053614,40.1477434 63.3535904,40.8040201 60.906847,40.8040201 C57.6535045,40.8040201 55.0562195,39.5465429 53.1155779,37.0298491 L56.55988,33.315392 C57.2159376,34.0737048 57.985048,34.6859206 58.8672109,35.1526191 C59.7482024,35.6193178 60.5307855,35.852377 61.2143742,35.852377 C61.9524387,35.852377 62.5475766,35.6772926 62.9986162,35.3253846 C63.4496557,34.9734764 63.6751757,34.5676516 63.6751757,34.10791 C63.6751757,33.2550981 62.861547,32.4225774 61.2348758,31.6109277 L59.3487103,30.6775305 C55.7398082,28.8785669 53.9356497,26.626239 53.9356497,23.9199669 C53.9356497,22.17492 54.6151379,20.6832238 55.9758718,19.4448783 C57.3360196,18.2071125 59.0751577,17.5879397 61.1938723,17.5879397 C62.6424706,17.5879397 64.0067189,17.9027438 65.2848598,18.5317724 C66.5630003,19.1608009 67.6454955,20.064051 68.5346875,21.2409431" id="Fill-10"></path>
                <path d="M87.1779036,21.2409431 L83.7119282,24.6713226 C82.304919,23.2909384 81.0267785,22.6004564 79.8780919,22.6004564 C79.2489797,22.6004564 78.7575224,22.7332191 78.4019625,22.9970052 C78.0464026,23.2602116 77.8689156,23.58835 77.8689156,23.9808406 C77.8689156,24.278832 77.9813828,24.5530537 78.2074884,24.8023461 C78.4324223,25.0539575 78.9894855,25.3948504 79.8780919,25.8279235 L81.9288576,26.8424856 C84.0885757,27.8970505 85.5717343,28.9730661 86.3783337,30.0687932 C87.1849328,31.1651001 87.5879397,32.4498256 87.5879397,33.9247091 C87.5879397,35.8871621 86.8604188,37.5237958 85.4042053,38.8357696 C83.9485774,40.1477434 81.9968065,40.8040201 79.5500631,40.8040201 C76.2967205,40.8040201 73.6994356,39.5465429 71.758794,37.0298491 L75.2030961,33.315392 C75.8591537,34.0737048 76.6282641,34.6859206 77.510427,35.1526191 C78.3914185,35.6193178 79.1740016,35.852377 79.8575903,35.852377 C80.5956548,35.852377 81.190207,35.6772926 81.6418323,35.3253846 C82.0928718,34.9734764 82.3183918,34.5676516 82.3183918,34.10791 C82.3183918,33.2550981 81.5047631,32.4225774 79.8780919,31.6109277 L77.9919264,30.6775305 C74.3830243,28.8785669 72.5788658,26.626239 72.5788658,23.9199669 C72.5788658,22.17492 73.258354,20.6832238 74.6190879,19.4448783 C75.9786497,18.2071125 77.7183738,17.5879397 79.8370884,17.5879397 C81.2856867,17.5879397 82.649935,17.9027438 83.9274898,18.5317724 C85.2056307,19.1608009 86.2887115,20.064051 87.1779036,21.2409431" id="Fill-12"></path>
                <path d="M162.570145,26.436081 C162.203691,25.205852 161.481238,24.2040443 160.401623,23.4323974 C159.322008,22.6619099 158.06991,22.2757965 156.644167,22.2757965 C155.096467,22.2757965 153.739254,22.7088696 152.571945,23.574436 C151.839038,24.1165021 151.160141,25.0701905 150.535253,26.436081 L162.570145,26.436081 Z M168.120377,30.7992779 L150.291338,30.7992779 C150.549191,32.3686606 151.2368,33.6174417 152.355325,34.5433021 C153.472689,35.4703219 154.899593,35.9335422 156.634295,35.9335422 C158.708155,35.9335422 160.489316,35.2100144 161.980683,33.7623791 L166.656305,35.9544131 C165.490739,37.6049607 164.094615,38.8259137 162.468514,39.6172721 C160.842412,40.4086309 158.910836,40.8040201 156.674947,40.8040201 C153.205544,40.8040201 150.379612,39.7117714 148.197733,37.5272744 C146.015853,35.3421973 144.924623,32.6057783 144.924623,29.318597 C144.924623,25.9490912 146.012369,23.1523782 148.187279,20.9267187 C150.36277,18.7010593 153.089975,17.5879397 156.370053,17.5879397 C159.852814,17.5879397 162.685134,18.7010593 164.867594,20.9267187 C167.048893,23.1523782 168.140704,26.0911299 168.140704,29.7441333 L168.120377,30.7992779 Z" id="Fill-14"></path>
                <path d="M132.320519,35.0916555 C131.165498,36.3100803 129.718672,36.9184126 127.979456,36.9184126 C126.23966,36.9184126 124.802715,36.3165333 123.66804,35.1116009 C122.533946,33.9066686 121.966608,32.3327479 121.966608,30.3886654 C121.966608,28.4997259 122.54034,26.9498569 123.688966,25.7384718 C124.83643,24.5259134 126.273956,23.9211008 127.99922,23.9211008 C129.765756,23.9211008 131.216652,24.5200472 132.351327,25.7173532 C133.485421,26.9158325 134.052758,28.4721545 134.052758,30.3886654 C134.052758,32.3057631 133.475539,33.8732309 132.320519,35.0916555 L132.320519,35.0916555 Z M134.096355,18.6432161 L134.096355,20.4212831 C133.994048,20.358514 133.903948,20.2845989 133.798735,20.2247629 C131.96012,19.1705939 129.997109,18.6432161 127.908539,18.6432161 C125.018373,18.6432161 122.461866,19.6563212 120.236694,21.6825315 C117.699951,24.0096815 116.432161,26.9181791 116.432161,30.409784 C116.432161,33.6673248 117.554048,36.4362051 119.799565,38.7158381 C122.044501,40.9948848 124.753887,42.1347015 127.928303,42.1347015 C130.085465,42.1347015 132.058939,41.617883 133.849889,40.5842458 C133.902205,40.5537413 133.947545,40.5156106 133.999861,40.4845193 C133.907436,41.2342288 133.763277,41.8343483 133.554594,42.2490938 C133.180825,42.9876574 132.540246,43.5907103 131.631692,44.0559056 C130.722557,44.5216874 129.522196,44.7545784 128.030028,44.7545784 C126.863382,44.7545784 125.853103,44.5932559 124.998028,44.2717842 C124.143534,43.9497258 123.444825,43.4739714 122.902483,42.8445205 L116.778027,42.8445205 C117.26631,44.3638849 118.018497,45.6538779 119.036333,46.7156731 C120.053588,47.7762952 121.301614,48.5805611 122.780412,49.127884 C124.258629,49.6752073 126.083293,49.9497487 128.253824,49.9497487 C132.323425,49.9497487 135.368795,48.7448166 137.389935,46.3355386 C138.896054,44.5551252 139.648241,41.776859 139.648241,37.9983934 L139.648241,30.0079444 L139.648241,25.7390584 L139.648241,18.6432161 L134.096355,18.6432161 Z" id="Fill-16"></path>
                <path d="M106.642127,33.8435441 C105.487106,35.0476844 104.04028,35.6494646 102.301065,35.6494646 C100.561268,35.6494646 99.1243228,35.0540617 97.9896477,33.8632556 C96.8555538,32.6730293 96.2882165,31.1169808 96.2882165,29.1962698 C96.2882165,27.3288957 96.8619481,25.7971967 98.0105742,24.6000134 C99.1580378,23.4022504 100.595564,22.8039486 102.320828,22.8039486 C104.087364,22.8039486 105.53826,23.3958731 106.672935,24.5797222 C107.807029,25.7635713 108.374367,27.3016475 108.374367,29.1962698 C108.374367,31.0903123 107.797147,32.6394038 106.642127,33.8435441 L106.642127,33.8435441 Z M108.415638,18.1560945 L108.415638,19.3440018 C108.313912,19.2825484 108.224394,19.2100796 108.120343,19.1509452 C106.281728,18.1091348 104.318717,17.5879397 102.230147,17.5879397 C99.3399808,17.5879397 96.7834742,18.5891676 94.5583019,20.5916234 C92.0221403,22.8914908 90.7537688,25.76647 90.7537688,29.216561 C90.7537688,32.4364913 91.8756557,35.1723306 94.121173,37.4252383 C96.3661089,39.6781461 99.0754948,40.8040201 102.249911,40.8040201 C104.407073,40.8040201 106.380547,40.2932604 108.171497,39.2723213 C108.256946,39.2230423 108.331351,39.161589 108.415638,39.110571 L108.415638,40.2358653 L113.969849,40.2358653 L113.969849,18.1560945 L108.415638,18.1560945 Z" id="Fill-18"></path>
                <path d="M42.2702675,33.837863 C41.1152471,35.0415825 39.6684203,35.6425729 37.9292052,35.6425729 C36.1894087,35.6425729 34.7524636,35.0485371 33.6177885,33.8575676 C32.4836947,32.6677573 31.9163571,31.1122526 31.9163571,29.1922128 C31.9163571,27.3260709 32.4900888,25.7943277 33.6387149,24.5975628 C34.7861783,23.4002183 36.2237048,22.8021257 37.9489688,22.8021257 C39.7155046,22.8021257 41.1664006,23.3938433 42.3010756,24.5772787 C43.4351695,25.760714 44.0025072,27.2982527 44.0025072,29.1922128 C44.0025072,31.0855935 43.4252876,32.6341435 42.2702675,33.837863 L42.2702675,33.837863 Z M44.0437787,18.7319658 L44.0437787,19.3433881 C43.9420529,19.2819561 43.8525345,19.2095127 43.7484839,19.1503989 C41.9098685,18.1089526 39.9468574,17.5879397 37.8582878,17.5879397 C34.9681216,17.5879397 32.4116149,18.5893972 30.1864426,20.5905736 C27.650281,22.8902168 26.3819095,25.7636117 26.3819095,29.212497 C26.3819095,32.431302 27.5037963,35.1661851 29.7493137,37.4188852 C31.9942498,39.6698463 34.7036354,40.7959064 37.8780518,40.7959064 C40.0352133,40.7959064 42.0086877,40.2853254 43.7996374,39.2641633 C43.885087,39.2154813 43.9594917,39.1540494 44.0437787,39.1036286 L44.0437787,40.8040201 L49.5979899,40.8040201 L49.5979899,18.7319658 L44.0437787,18.7319658 Z" id="Fill-20"></path>
                <path d="M0,0.317733717 L3.22579183,0.317733717 L3.22579183,1.73574674 C3.77764891,1.15360917 4.39088845,0.719111115 5.06492577,0.431691217 C5.7383785,0.144271317 6.47379825,0 7.27060041,0 C8.07441769,0 8.79931472,0.189180676 9.44587612,0.567542029 C10.0924375,0.94590338 10.6127265,1.4982885 11.0067431,2.22413602 C11.5194324,1.4982885 12.1478714,0.94590338 12.8926446,0.567542029 C13.6380025,0.189180676 14.4517578,0 15.3344954,0 C16.248801,0 17.0532029,0.204337585 17.7471164,0.61357412 C18.4404454,1.02112655 18.9391044,1.55498656 19.2430934,2.21234731 C19.5464979,2.87139216 19.6984925,3.94191901 19.6984925,5.42392788 L19.6984925,12.6633166 L16.4487323,12.6633166 L16.4487323,6.40014507 C16.4487323,5.00065716 16.267508,4.05363103 15.9050595,3.55738263 C15.542611,3.06225693 14.9989382,2.81413273 14.2740411,2.81413273 C13.7227686,2.81413273 13.2287864,2.96570181 12.7915098,3.26827862 C12.3542332,3.57085541 12.0291987,3.98907383 11.8164064,4.52181111 C11.603614,5.05510977 11.4978024,5.91231714 11.4978024,7.09174918 L11.4978024,12.6633166 L8.24745762,12.6633166 L8.24745762,6.68419677 C8.24745762,5.57886514 8.163276,4.78003992 7.99315905,4.28379152 C7.82304209,3.78866583 7.56874353,3.41984771 7.22909421,3.1767758 C6.89002944,2.93594936 6.4796442,2.81413273 5.9973538,2.81413273 C5.46069617,2.81413273 4.97314444,2.96738591 4.53469867,3.27445366 C4.09625286,3.58039867 3.7682954,4.00984441 3.55199551,4.56222953 C3.33452638,5.11405329 3.22579183,5.98473348 3.22579183,7.17146332 L3.22579183,12.6633166 L0,12.6633166 L0,0.317733717 Z" id="Fill-22"></path>
                <path d="M27.4152239,3.90031938 C26.4741501,3.90031938 25.690105,4.22726659 25.0636376,4.88061335 C24.4377193,5.53341242 24.124211,6.36857904 24.124211,7.38720849 C24.124211,8.43541107 24.4338759,9.28426896 25.0526566,9.93323449 C25.6714373,10.5827477 26.4549334,10.9069566 27.4042429,10.9069566 C28.3530033,10.9069566 29.1419898,10.5794618 29.7717516,9.92228146 C30.4020623,9.2651012 30.7172177,8.4206245 30.7172177,7.38720849 C30.7172177,6.35379247 30.4075528,5.51424466 29.7887722,4.86911266 C29.1694424,4.2228854 28.3788087,3.90031938 27.4152239,3.90031938 M27.3652602,1.05527638 C28.5045414,1.05527638 29.5757403,1.33950686 30.5783078,1.90742016 C31.5803262,2.47533346 32.3632732,3.24752031 32.9255016,4.22124244 C33.48773,5.19551222 33.7688442,6.24700068 33.7688442,7.37625549 C33.7688442,8.51262976 33.4860828,9.57561888 32.9200111,10.5635799 C32.3539393,11.5537315 31.5825224,12.3259184 30.6063094,12.8834263 C29.6295473,13.4409343 28.5523089,13.718593 27.3762413,13.718593 C25.6445338,13.718593 24.167037,13.1052247 22.9426529,11.8757499 C21.7182688,10.6473704 21.1055276,9.15502349 21.1055276,7.39870914 C21.1055276,5.51643527 21.7978812,3.94851262 23.1814902,2.69384591 C24.3943442,1.60128367 25.7894833,1.05527638 27.3652602,1.05527638" id="Fill-24"></path>
                <path d="M36.9346734,0.163137259 L39.9227514,0.163137259 L39.9205606,1.58305668 C40.5976028,0.990760428 41.2105558,0.57865411 41.7605156,0.347306151 C42.3099276,0.115958191 42.8719383,0 43.4470952,0 C44.6264412,0 45.6272146,0.427453723 46.4499633,1.28236117 C47.1412474,2.00823671 47.4874372,3.08255525 47.4874372,4.50474835 L47.4874372,12.6633166 L44.5349638,12.6633166 L44.5349638,7.25705014 C44.5349638,5.783699 44.4708751,4.80544387 44.3437928,4.32171632 C44.2167104,3.83798875 43.9948639,3.46965098 43.6782539,3.21670296 C43.3621912,2.96318652 42.971632,2.83699673 42.5060286,2.83699673 C41.9018399,2.83699673 41.3841984,3.04674463 40.9514612,3.46624044 C40.518724,3.88516783 40.2190945,4.46495877 40.0509295,5.20561332 C39.9638344,5.59100378 39.9205606,6.42601643 39.9205606,7.71008286 L39.9205606,12.6633166 L36.9352211,12.6633166 L36.9346734,0.163137259 Z" id="Fill-26"></path>
                <path d="M9.38853898,60.6106024 C8.70634853,61.3217257 7.85118428,61.6775723 6.82304619,61.6775723 C5.79547901,61.6775723 4.94659432,61.3262807 4.27582129,60.6225587 C3.60561913,59.9188367 3.27051804,58.9993294 3.27051804,57.8646062 C3.27051804,56.7611976 3.60904435,55.8553547 4.28838045,55.1482168 C4.96657478,54.4405094 5.81603034,54.0869401 6.83503448,54.0869401 C7.87915691,54.0869401 8.7360338,54.4370931 9.40680683,55.1362602 C10.077009,55.8359967 10.4121101,56.7452555 10.4121101,57.8646062 C10.4121101,58.9839568 10.0713003,59.8989092 9.38853898,60.6106024 M13.7174512,57.8344306 L13.718593,51.3409442 L10.4360866,51.3409442 L10.4360866,52.0423889 C10.3761452,52.0065193 10.3236251,51.9632484 10.2619711,51.9285179 C9.17560422,51.3130459 8.015595,51.0050251 6.78137262,51.0050251 C5.07389847,51.0050251 3.56280382,51.5971537 2.24808868,52.7797028 C0.749553183,54.1393209 0,55.8377048 0,57.8765628 C0,59.7787755 0.663351715,61.3957418 1.99005514,62.7274619 C3.3161877,64.058043 4.91747991,64.7236181 6.79336091,64.7236181 C8.06811512,64.7236181 9.233833,64.4212909 10.2922272,63.8183447 C10.3424638,63.7893077 10.38585,63.7540076 10.4349449,63.723832 L10.4349449,64.3865604 L13.7163095,64.3865604 L13.7174512,57.8702997 C13.7174512,57.864037 13.718593,57.8583435 13.718593,57.8520804 C13.718593,57.8463868 13.7174512,57.8406933 13.7174512,57.8344306" id="Fill-28"></path>
                <path d="M16.8844221,51.7085427 L20.2357673,51.7085427 L20.2357673,57.6535822 C20.2357673,58.8115528 20.3205312,59.6160431 20.4912122,60.0654371 C20.6618932,60.5159086 20.9357902,60.8650781 21.3134796,61.1145616 C21.6900158,61.3645844 22.1547757,61.4890567 22.7071825,61.4890567 C23.2584361,61.4890567 23.7272324,61.3667396 24.1124179,61.1204891 C24.4981801,60.875316 24.7841862,60.5137534 24.9710127,60.0374174 C25.1088261,59.6817819 25.1780212,58.9209375 25.1780212,57.755962 L25.1780212,51.7085427 L28.4924623,51.7085427 L28.4924623,56.9390781 C28.4924623,59.0955224 28.3108254,60.5703317 27.9463983,61.3645844 C27.5012437,62.3334217 26.8450444,63.0759451 25.9789534,63.5948498 C25.1128625,64.1126764 24.0120852,64.3718593 22.6766214,64.3718593 C21.2275625,64.3718593 20.0558603,64.0684916 19.160938,63.4633722 C18.2660159,62.8582532 17.6374945,62.0155049 17.2730674,60.933511 C17.0135861,60.1845212 16.8844221,58.8228685 16.8844221,56.8485527 L16.8844221,51.7085427 Z" id="Fill-30"></path>
                <polygon id="Fill-32" points="144.924623 12.6633166 168.140704 12.6633166 168.140704 9.84924624 144.924623 9.84924624"></polygon>
                <path d="M118.361612,8.79396986 C118.893582,8.79396986 119.349836,8.98329766 119.731027,9.36259502 C120.110912,9.74189241 120.301508,10.2001299 120.301508,10.7398745 C120.301508,11.2719177 120.11287,11.7250209 119.735596,12.1004675 C119.358974,12.476556 118.908595,12.6633166 118.383805,12.6633166 C117.844002,12.6633166 117.383832,12.4727052 117.003294,12.0901989 C116.622756,11.7070508 116.432161,11.2423954 116.432161,10.6955911 C116.432161,10.1718912 116.620798,9.72263875 116.998072,9.35168462 C117.374694,8.9800887 117.82899,8.79396986 118.361612,8.79396986" id="Fill-34"></path>
                <path d="M129.265808,8.79396986 C129.797867,8.79396986 130.254851,8.98329766 130.635453,9.36259502 C131.016055,9.74189241 131.20603,10.2001299 131.20603,10.7398745 C131.20603,11.2719177 131.018014,11.7250209 130.640676,12.1004675 C130.263991,12.476556 129.812882,12.6633166 129.288004,12.6633166 C128.748763,12.6633166 128.287862,12.4727052 127.90726,12.0901989 C127.526658,11.7070508 127.336683,11.2423954 127.336683,10.6955911 C127.336683,10.1718912 127.5247,9.72263875 127.902038,9.35168462 C128.278723,8.9800887 128.733748,8.79396986 129.265808,8.79396986" id="Fill-35"></path>
                <path d="M137.708346,8.79396986 C138.240316,8.79396986 138.69657,8.98329766 139.077761,9.36259502 C139.457646,9.74189241 139.648241,10.2001299 139.648241,10.7398745 C139.648241,11.2719177 139.459604,11.7250209 139.08233,12.1004675 C138.705708,12.476556 138.255328,12.6633166 137.730539,12.6633166 C137.190736,12.6633166 136.730566,12.4727052 136.350028,12.0901989 C135.96949,11.7070508 135.778894,11.2423954 135.778894,10.6955911 C135.778894,10.1718912 135.967532,9.72263875 136.344806,9.35168462 C136.721428,8.9800887 137.175723,8.79396986 137.708346,8.79396986" id="Fill-36"></path>
                <path d="M43.3715694,53.1638058 L41.2930813,55.1899048 C40.448367,54.374454 39.6819317,53.9661591 38.9926072,53.9661591 C38.6146473,53.9661591 38.3202238,54.0447431 38.1070006,54.2002029 C37.8937775,54.3562319 37.7868738,54.550414 37.7868738,54.7827489 C37.7868738,54.9581393 37.854638,55.1204321 37.9901661,55.2679196 C38.1251102,55.4159763 38.4592572,55.6181307 38.9926072,55.8738132 L40.222292,56.4734427 C41.518572,57.0964199 42.4082678,57.7313554 42.8919632,58.3799574 C43.3762429,59.0274209 43.6180904,59.7870658 43.6180904,60.6577532 C43.6180904,61.8171509 43.181129,62.785214 42.30779,63.5602339 C41.434451,64.3352539 40.2637682,64.7236181 38.7957409,64.7236181 C36.8440184,64.7236181 35.2854442,63.9793485 34.120603,62.4925172 L36.1879918,60.2984309 C36.5811403,60.7460176 37.0432216,61.1076175 37.5718981,61.3838003 C38.1005747,61.6588443 38.5696658,61.7972203 38.9797554,61.7972203 C39.4231428,61.7972203 39.7800728,61.6935805 40.050545,61.4851624 C40.3210169,61.2778829 40.4565454,61.0375753 40.4565454,60.7659482 C40.4565454,60.2625557 39.9687607,59.7705518 38.9926072,59.2910757 L37.8604796,58.7392797 C35.6955337,57.6761187 34.613061,56.3453167 34.613061,54.7457347 C34.613061,53.7150322 35.0208139,52.8340949 35.8374881,52.1023532 C36.6529937,51.3711807 37.6969111,51.0050251 38.9680721,51.0050251 C39.8367376,51.0050251 40.6551642,51.191235 41.4221834,51.5625157 C42.1886187,51.9343655 42.8388033,52.4673698 43.3715694,53.1638058" id="Fill-37"></path>
                <path d="M56.1557778,56.2331352 C55.9390092,55.5059491 55.5123177,54.9142916 54.8739916,54.4581631 C54.236236,54.0031733 53.4963708,53.775394 52.6538259,53.775394 C51.7394053,53.775394 50.9373619,54.0310766 50.2476958,54.5424417 C49.8141587,54.8630414 49.4131372,55.4256567 49.0446304,56.2331352 L56.1557778,56.2331352 Z M59.435257,58.8116 L48.9003084,58.8116 C49.0520462,59.7392322 49.4587726,60.4766685 50.1193461,61.0239088 C50.7799195,61.5711491 51.6230347,61.8450542 52.6481214,61.8450542 C53.8734338,61.8450542 54.9264723,61.4173978 55.8078074,60.5626552 L58.5704647,61.8575817 C57.8813692,62.8330479 57.0570784,63.5539702 56.0958814,64.0226265 C55.1346843,64.4895747 53.993227,64.7236181 52.67208,64.7236181 C50.6219067,64.7236181 48.9522188,64.0778632 47.6630169,62.7869225 C46.3732444,61.4954123 45.7286432,59.8781776 45.7286432,57.9363569 C45.7286432,55.9455636 46.3715331,54.2930229 47.6567419,52.9775959 C48.9419506,51.6633079 50.5540239,51.0050251 52.4918198,51.0050251 C54.5499795,51.0050251 56.2236605,51.6633079 57.5128625,52.9775959 C58.802635,54.2930229 59.4472362,56.0298422 59.4472362,58.1880533 L59.435257,58.8116 Z" id="Fill-38"></path>
                <path d="M73.8693467,53.978687 L71.2951607,55.4780462 C70.8110889,54.942764 70.3329337,54.5703446 69.8601569,54.3624956 C69.3879182,54.154647 68.8339249,54.0510072 68.1992532,54.0510072 C67.0428595,54.0510072 66.1064498,54.4165933 65.3927129,55.1466268 C64.6779003,55.8772299 64.3207628,56.8128344 64.3207628,57.9534404 C64.3207628,59.0632964 64.6649915,59.969859 65.3529114,60.6719892 C66.0408309,61.3746893 66.9444318,61.7254699 68.0631753,61.7254699 C69.4465448,61.7254699 70.5238733,61.2260632 71.2951607,60.2266802 L73.7332688,61.9942495 C72.4117529,63.8136388 70.5464633,64.7236181 68.1379374,64.7236181 C65.9703719,64.7236181 64.2739694,64.0442656 63.0465785,62.6849912 C61.8197254,61.3257168 61.2060301,59.7346766 61.2060301,57.9118706 C61.2060301,56.6488328 61.5045411,55.485449 62.1010252,54.4222879 C62.6975089,53.3596964 63.5301125,52.5243146 64.5982973,51.9167129 C65.66702,51.3091108 66.8616017,51.0050251 68.1831173,51.0050251 C69.4062055,51.0050251 70.5050482,51.2629853 71.4791081,51.7789061 C72.4531679,52.2948268 73.2497349,53.028277 73.8693467,53.978687" id="Fill-39"></path>
                <path d="M85.0680027,60.778753 C84.3814254,61.4916801 83.5214818,61.8484289 82.4881716,61.8484289 C81.4554356,61.8484289 80.6012327,61.4962466 79.9272846,60.7907399 C79.2533369,60.085804 78.9157888,59.1645354 78.9157888,58.0263635 C78.9157888,56.9201563 79.2573554,56.012587 79.9393401,55.3036555 C80.6213248,54.594724 81.4755277,54.2396875 82.5008008,54.2396875 C83.5501849,54.2396875 84.4118504,54.5901574 85.0857985,55.2916686 C85.7597462,55.9926088 86.0972943,56.9047447 86.0972943,58.0263635 C86.0972943,59.1479823 85.7534314,60.0658258 85.0680027,60.778753 M108.276721,62.7594234 L108.276721,64.5271858 C108.276721,65.7635349 107.265226,66.7698521 106.021809,66.7698521 C104.777819,66.7698521 103.7801,65.7635349 103.7801,64.5271858 L103.782396,55.9229715 C103.782396,54.4160639 103.400072,53.2790339 102.635997,52.5090268 C101.726684,51.6037408 100.619894,51.1510975 99.3162008,51.1510975 C98.6801407,51.1510975 98.0584328,51.2743901 97.4510758,51.5192624 C96.8431452,51.764135 96.165179,52.2007957 95.4171773,52.828103 L95.3655116,52.8355234 L95.3655116,52.2573047 C95.3655116,49.2394939 92.8959007,46.7839196 89.8614134,46.7839196 C87.1059197,46.7839196 84.8240266,48.809683 84.4250541,51.4410632 C83.7872721,51.2538414 83.129398,51.1510975 82.4462652,51.1510975 C80.7292482,51.1510975 79.2102824,51.7441572 77.8887935,52.9302759 C76.381309,54.2922009 75.6281407,55.9948921 75.6281407,58.0383504 C75.6281407,59.9459584 76.2951999,61.565884 77.6287439,62.9004104 C78.9622878,64.2349368 80.5725295,64.9022001 82.4583203,64.9022001 C83.739625,64.9022001 84.9124321,64.5991064 85.9761672,63.9940602 C87.0399027,63.3895845 87.8797542,62.5499401 88.49687,61.4762685 C89.1134117,60.402026 89.4211085,59.247872 89.4211085,58.0138057 C89.4211085,56.788302 89.1151339,55.6467051 88.5026103,54.5884451 C88.2488755,54.1495011 87.9429009,53.7579334 87.6059269,53.3949057 L87.6059269,52.2573047 C87.6059269,51.0203847 88.6174227,50.0152089 89.8614134,50.0152089 C91.1048297,50.0152089 92.1163255,51.0203847 92.1163255,52.2573047 L92.1163255,53.3224145 L92.1168996,53.3224145 L92.1168996,64.565429 L95.4171773,64.565429 L95.4171773,59.3186508 C95.4171773,57.9584385 95.4653985,57.0731303 95.5618405,56.6650095 C95.7466884,55.8813032 96.0784958,55.2665537 96.5572627,54.8219018 C97.0348815,54.3772498 97.6083686,54.15578 98.2754278,54.15578 C98.7897864,54.15578 99.2220547,54.2893467 99.5716579,54.5581928 C99.9218352,54.8264679 100.166385,55.2163233 100.30703,55.7283293 C100.448249,56.2414771 100.518859,57.2769052 100.518859,58.8386094 L100.517137,64.5271858 C100.517137,67.5449962 102.986174,70 106.021809,70 C108.933447,70 111.318098,67.7390679 111.507538,64.8902135 L111.507538,64.5300396" id="Fill-40"></path>
                <path d="M145.628141,52.0264321 L148.305747,52.0264321 L148.305747,53.580858 C148.595952,52.9682472 148.981262,52.5032664 149.46222,52.1853771 C149.942635,51.8674874 150.469243,51.7085427 151.041502,51.7085427 C151.445833,51.7085427 151.869185,51.8146856 152.311558,52.0264321 L151.339316,54.6923937 C150.972483,54.5102808 150.670865,54.419763 150.435006,54.419763 C149.954047,54.419763 149.547543,54.7144841 149.216035,55.3050045 C148.884527,55.8955245 148.718229,57.0523191 148.718229,58.7770041 L148.729642,59.3783003 L148.728555,64.3718593 L145.628141,64.3707819 L145.628141,52.0264321 Z" id="Fill-41"></path>
                <path d="M162.738692,56.2331352 C162.522494,55.5059491 162.095232,54.9142916 161.456906,54.4581631 C160.819151,54.0031733 160.079856,53.775394 159.23674,53.775394 C158.32289,53.775394 157.520847,54.0310766 156.83061,54.5424417 C156.397644,54.8630414 155.996052,55.4256567 155.627545,56.2331352 L162.738692,56.2331352 Z M166.018742,58.8116 L155.483223,58.8116 C155.635531,59.7392322 156.041687,60.4766685 156.702261,61.0239088 C157.363404,61.5711491 158.205949,61.8450542 159.231607,61.8450542 C160.456348,61.8450542 161.509387,61.4173978 162.390722,60.5626552 L165.153379,61.8575817 C164.464284,62.8330479 163.639993,63.5539702 162.678796,64.0226265 C161.717599,64.4895747 160.576142,64.7236181 159.255565,64.7236181 C157.204821,64.7236181 155.535133,64.0778632 154.245931,62.7869225 C152.956159,61.4954123 152.311558,59.8781776 152.311558,57.9363569 C152.311558,55.9455636 152.954448,54.2930229 154.240227,52.9775959 C155.524865,51.6633079 157.136938,51.0050251 159.074734,51.0050251 C161.132894,51.0050251 162.806575,51.6633079 164.096348,52.9775959 C165.38555,54.2930229 166.030151,56.0298422 166.030151,58.1880533 L166.018742,58.8116 Z" id="Fill-42"></path>
                <path d="M130.745323,60.6106024 C130.063132,61.3217257 129.207968,61.6775723 128.180401,61.6775723 C127.152263,61.6775723 126.303378,61.3262807 125.632605,60.6225587 C124.962403,59.9188367 124.627302,58.9993294 124.627302,57.8646062 C124.627302,56.7611976 124.966399,55.8553547 125.644593,55.1482168 C126.323359,54.4405094 127.172814,54.0869401 128.192389,54.0869401 C129.235941,54.0869401 130.092818,54.4370931 130.763591,55.1362602 C131.434364,55.8359967 131.768894,56.7452555 131.768894,57.8646062 C131.768894,58.9839568 131.428084,59.8989092 130.745323,60.6106024 L130.745323,60.6106024 Z M131.793441,51.3409442 L131.793441,52.0423889 C131.7335,52.0065193 131.680409,51.9632484 131.618755,51.9285179 C130.532388,51.3130459 129.372379,51.0050251 128.138157,51.0050251 C126.430683,51.0050251 124.919588,51.5971537 123.605444,52.7797028 C122.106337,54.1393209 121.356784,55.8377048 121.356784,57.8765628 C121.356784,59.7787755 122.020136,61.3957418 123.346839,62.7274619 C124.673543,64.058043 126.274264,64.7236181 128.150145,64.7236181 C129.424899,64.7236181 130.590617,64.4212909 131.649011,63.8183447 C131.699819,63.7893077 131.743776,63.7534381 131.793441,63.7232625 L131.793441,64.387699 L135.075377,64.387699 L135.075377,51.3409442 L131.793441,51.3409442 Z" id="Fill-43"></path>
                <polygon id="Fill-44" points="141.757427 64.3718593 137.889447 64.3718593 137.890814 51.7085427 141.758794 51.7085427"></polygon>
                <path d="M139.818899,47.1356784 C140.350869,47.1356784 140.807122,47.3256478 141.188313,47.7043035 C141.568199,48.0836008 141.758794,48.5418384 141.758794,49.0809411 C141.758794,49.6129844 141.570157,50.0667293 141.192882,50.4421759 C140.816261,50.8176228 140.365881,51.0050251 139.841092,51.0050251 C139.301289,51.0050251 138.841119,50.8137721 138.46058,50.4319073 C138.080042,50.0487593 137.889447,49.5834623 137.889447,49.0379414 C137.889447,48.5129579 138.078085,48.0643473 138.455359,47.693393 C138.83198,47.3211555 139.286276,47.1356784 139.818899,47.1356784" id="Fill-45"></path>
                <path d="M112.775433,54.786091 C111.747305,54.786091 110.893328,55.142983 110.213503,55.854501 C109.533098,56.5660189 109.193475,57.4786424 109.193475,58.5918052 C109.193475,59.7134659 109.539463,60.6357197 110.231438,61.3597006 C110.923414,62.083115 111.775077,62.4451054 112.787583,62.4451054 C113.831333,62.4451054 114.698038,62.0893464 115.385964,61.3778284 C116.073889,60.6651774 116.417563,59.7332931 116.417563,58.5793424 C116.417563,57.4508844 116.073889,56.5365609 115.385964,55.8363731 C114.698038,55.1367516 113.827282,54.786091 112.775433,54.786091 L112.775433,54.786091 Z M116.271762,48.1909548 L119.59799,48.1909548 L119.59799,65.0929036 L116.271762,65.0929036 L116.271762,63.7208523 C115.622601,64.3253026 114.971125,64.7603709 114.318493,65.0271902 C113.665281,65.2940094 112.957684,65.4271357 112.195122,65.4271357 C110.483119,65.4271357 109.002545,64.7773658 107.753401,63.476693 C106.503679,62.1765865 105.879397,60.5598095 105.879397,58.626928 C105.879397,56.6238013 106.483429,54.9820983 107.692651,53.7012528 C108.901295,52.4215406 110.369718,51.7808344 112.097922,51.7808344 C112.892884,51.7808344 113.638667,51.9281232 114.337007,52.2227005 C115.03419,52.5167117 115.679301,52.9574447 116.271762,53.5465999 L116.271762,48.1909548 Z" id="Fill-46"></path>
            </g>
        </g>
    </g>
</svg>