<svg height="70" width="169" xmlns="http://www.w3.org/2000/svg"><g fill="#fff"><path d="m52.764 9.153c1.72 0 2.496-.878 3.67-2.207 1.348-1.527 3.027-3.428 6.283-3.428 3.255 0 4.934 1.9 6.281 3.428 1.175 1.329 1.95 2.207 3.669 2.207 1.72 0 2.495-.878 3.668-2.207 1.349-1.527 3.027-3.428 6.283-3.428 3.255 0 4.933 1.9 6.282 3.428 1.174 1.329 1.949 2.207 3.668 2.207 1.72 0 2.495-.878 3.669-2.207 1.349-1.527 3.027-3.428 6.282-3.428 3.256 0 4.98 1.9 6.329 3.428 1.174 1.329 1.82 2.207 3.715 2.207v3.51c-3.114 0-4.98-1.9-6.329-3.428-1.174-1.33-1.972-2.207-3.692-2.207-1.719 0-2.507.878-3.68 2.207-1.348 1.528-3.032 3.428-6.288 3.428s-4.937-1.9-6.286-3.428c-1.173-1.33-1.95-2.207-3.669-2.207-1.72 0-2.495.878-3.669 2.207-1.349 1.528-3.027 3.428-6.282 3.428-3.256 0-4.934-1.9-6.282-3.428-1.174-1.33-1.95-2.207-3.669-2.207-1.72 0-2.494.878-3.668 2.207-1.348 1.528-3.026 3.428-6.282 3.428m-40.204 11.094c-1.72 0-3.146.595-4.279 1.786-1.133 1.19-1.699 2.747-1.699 4.667 0 1.962.566 3.547 1.7 4.758 1.132 1.211 2.559 1.817 4.278 1.817 1.666 0 3.069-.616 4.209-1.847 1.14-1.23 1.709-2.8 1.709-4.708 0-1.893-.56-3.446-1.68-4.657-1.119-1.21-2.532-1.816-4.238-1.816zm-5.738-4.547v2.435c.987-1 2.053-1.752 3.2-2.251a9.085 9.085 0 0 1 3.678-.752c2.839 0 5.251 1.089 7.237 3.267s2.98 4.973 2.98 8.381c0 3.287-1.027 6.037-3.08 8.249-2.052 2.212-4.485 3.318-7.297 3.318-1.253 0-2.42-.227-3.499-.68-1.08-.453-2.153-1.195-3.219-2.222v10.995h-5.418v-30.74zm61.71 2.03-3.466 3.43c-1.407-1.38-2.685-2.07-3.834-2.07-.629 0-1.12.132-1.476.396-.356.263-.533.591-.533.984 0 .298.112.572.338.821.225.252.782.593 1.67 1.026l2.052 1.014c2.16 1.055 3.643 2.131 4.45 3.227.806 1.096 1.209 2.38 1.209 3.856 0 1.962-.728 3.599-2.184 4.91-1.456 1.313-3.407 1.969-5.854 1.969-3.253 0-5.85-1.257-7.791-3.774l3.444-3.715a7.928 7.928 0 0 0 2.307 1.838c.881.466 1.664.7 2.347.7.738 0 1.334-.176 1.785-.528.45-.352.676-.757.676-1.217 0-.853-.813-1.685-2.44-2.497l-1.886-.933c-3.61-1.8-5.413-4.052-5.413-6.758 0-1.745.68-3.237 2.04-4.475s3.1-1.857 5.218-1.857c1.448 0 2.813.315 4.09.944a9.033 9.033 0 0 1 3.25 2.709m18.644 0-3.466 3.43c-1.407-1.38-2.685-2.07-3.834-2.07-.629 0-1.12.132-1.476.396-.356.263-.533.591-.533.984 0 .298.112.572.338.821.225.252.782.593 1.671 1.026l2.05 1.014c2.16 1.055 3.644 2.131 4.45 3.227.807 1.096 1.21 2.38 1.21 3.856 0 1.962-.728 3.599-2.184 4.91-1.455 1.313-3.407 1.969-5.854 1.969-3.253 0-5.85-1.257-7.791-3.774l3.444-3.715a7.928 7.928 0 0 0 2.307 1.838c.881.466 1.664.7 2.348.7.738 0 1.332-.176 1.784-.528.45-.352.676-.757.676-1.217 0-.853-.813-1.685-2.44-2.497l-1.886-.933c-3.609-1.8-5.413-4.052-5.413-6.758 0-1.745.68-3.237 2.04-4.475s3.1-1.857 5.218-1.857a9.14 9.14 0 0 1 4.09.944 9.034 9.034 0 0 1 3.25 2.709m75.393 5.195c-.366-1.23-1.089-2.232-2.168-3.004-1.08-.77-2.332-1.156-3.758-1.156-1.548 0-2.905.433-4.072 1.298-.733.543-1.412 1.496-2.037 2.862zm5.55 4.363h-17.829c.258 1.57.946 2.818 2.064 3.744 1.118.927 2.545 1.39 4.28 1.39 2.073 0 3.854-.723 5.346-2.17l4.675 2.191c-1.165 1.651-2.561 2.872-4.187 3.663-1.627.792-3.558 1.187-5.794 1.187-3.47 0-6.295-1.092-8.477-3.277s-3.273-4.921-3.273-8.208c0-3.37 1.087-6.167 3.262-8.392 2.176-2.226 4.903-3.34 8.183-3.34 3.483 0 6.315 1.114 8.498 3.34 2.18 2.225 3.273 5.164 3.273 8.817l-.02 1.055zm-35.8 4.293c-1.155 1.218-2.601 1.826-4.34 1.826-1.74 0-3.177-.601-4.312-1.806-1.134-1.205-1.701-2.78-1.701-4.723 0-1.89.573-3.44 1.722-4.65 1.147-1.213 2.585-1.818 4.31-1.818 1.767 0 3.218.599 4.352 1.796 1.134 1.199 1.702 2.755 1.702 4.672s-.577 3.484-1.732 4.703zm1.776-16.449v1.778c-.102-.062-.192-.136-.297-.196-1.839-1.054-3.802-1.582-5.89-1.582-2.89 0-5.447 1.013-7.672 3.04-2.537 2.327-3.805 5.235-3.805 8.727 0 3.257 1.122 6.026 3.368 8.306 2.245 2.279 4.954 3.419 8.128 3.419 2.157 0 4.13-.517 5.922-1.55.052-.031.098-.07.15-.1-.093.75-.237 1.35-.445 1.764-.374.739-1.015 1.342-1.923 1.807-.91.466-2.11.699-3.602.699-1.167 0-2.177-.162-3.032-.483-.854-.322-1.553-.798-2.096-1.427h-6.124c.488 1.519 1.24 2.809 2.258 3.87s2.266 1.866 3.744 2.413c1.479.547 3.303.822 5.474.822 4.07 0 7.115-1.205 9.136-3.614 1.506-1.78 2.258-4.56 2.258-8.338v-19.354h-5.552zm-27.454 15.2c-1.155 1.205-2.602 1.806-4.34 1.806-1.74 0-3.178-.595-4.312-1.786-1.134-1.19-1.702-2.746-1.702-4.667 0-1.867.574-3.399 1.723-4.596 1.147-1.198 2.585-1.796 4.31-1.796 1.766 0 3.217.592 4.352 1.776 1.134 1.184 1.701 2.722 1.701 4.616s-.577 3.443-1.732 4.648zm1.774-15.687v1.188c-.102-.061-.192-.134-.296-.193a11.758 11.758 0 0 0 -5.89-1.563c-2.89 0-5.447 1.001-7.672 3.004-2.536 2.3-3.804 5.174-3.804 8.625 0 3.22 1.122 5.955 3.367 8.208s4.954 3.379 8.129 3.379c2.157 0 4.13-.51 5.921-1.532.086-.049.16-.11.245-.161v1.125h5.554v-22.08zm-66.146 15.683c-1.155 1.204-2.602 1.805-4.34 1.805-1.74 0-3.178-.594-4.312-1.785-1.134-1.19-1.702-2.746-1.702-4.666 0-1.866.574-3.398 1.723-4.594 1.147-1.198 2.585-1.796 4.31-1.796 1.767 0 3.217.592 4.352 1.775 1.134 1.184 1.702 2.721 1.702 4.615s-.578 3.442-1.733 4.646zm1.774-15.106v.611c-.102-.061-.191-.133-.296-.193a11.762 11.762 0 0 0 -5.89-1.562c-2.89 0-5.446 1.001-7.672 3.003-2.536 2.3-3.804 5.173-3.804 8.621 0 3.22 1.122 5.954 3.367 8.207 2.245 2.25 4.955 3.377 8.13 3.377 2.156 0 4.13-.51 5.92-1.532.086-.049.16-.11.245-.16v1.7h5.554v-22.072zm-44.044-18.414h3.226v1.418a5.502 5.502 0 0 1 1.839-1.304 5.562 5.562 0 0 1 2.205-.432c.803 0 1.528.19 2.175.568.646.378 1.167.93 1.56 1.656a5.147 5.147 0 0 1 1.889-1.656 5.316 5.316 0 0 1 2.44-.568c.915 0 1.72.204 2.413.614.693.407 1.192.941 1.496 1.598.303.66.455 1.73.455 3.212v7.24h-3.25v-6.264c0-1.4-.18-2.346-.543-2.843-.362-.495-.906-.743-1.631-.743-.551 0-1.045.152-1.482.454-.438.303-.763.721-.976 1.254-.212.533-.318 1.39-.318 2.57v5.571h-3.25v-5.979c0-1.105-.085-1.904-.255-2.4-.17-.495-.424-.864-.764-1.107-.339-.241-.75-.363-1.232-.363-.536 0-1.024.153-1.462.46-.439.306-.767.736-.983 1.288-.217.552-.326 1.423-.326 2.61v5.491h-3.226zm27.415 3.582c-.94 0-1.725.327-2.351.98s-.94 1.489-.94 2.507c0 1.048.31 1.897.929 2.546.618.65 1.402.974 2.351.974s1.738-.328 2.368-.985.945-1.501.945-2.535c0-1.033-.31-1.873-.928-2.518-.62-.646-1.41-.969-2.374-.969m-.05-2.845c1.14 0 2.21.285 3.213.852a6.17 6.17 0 0 1 2.348 2.314c.562.975.843 2.026.843 3.155 0 1.137-.283 2.2-.849 3.188a6.116 6.116 0 0 1 -2.314 2.32c-.976.557-2.054.835-3.23.835-1.731 0-3.209-.614-4.433-1.843-1.225-1.229-1.837-2.721-1.837-4.477 0-1.883.692-3.45 2.075-4.705 1.213-1.093 2.608-1.639 4.184-1.639m9.57-.892h2.988l-.002 1.42c.677-.592 1.289-1.003 1.839-1.236a4.307 4.307 0 0 1 1.687-.347c1.18 0 2.18.427 3.003 1.282.691.726 1.037 1.8 1.037 3.223v8.158h-2.952v-5.406c0-1.473-.064-2.452-.191-2.935-.127-.484-.35-.852-.666-1.105-.316-.254-.706-.38-1.172-.38-.604 0-1.122.21-1.555.63-.432.418-.732.998-.9 1.739-.087.385-.13 1.22-.13 2.504v4.953h-2.986v-12.5zm-27.546 60.448c-.683.71-1.538 1.067-2.566 1.067s-1.876-.352-2.547-1.055c-.67-.704-1.005-1.624-1.005-2.758 0-1.104.338-2.01 1.017-2.717s1.528-1.061 2.547-1.061c1.044 0 1.901.35 2.572 1.05.67.699 1.005 1.608 1.005 2.728 0 1.119-.34 2.034-1.023 2.746m4.328-2.777.002-6.493h-3.283v.701c-.06-.035-.112-.079-.174-.113a6.95 6.95 0 0 0 -3.48-.924c-1.708 0-3.22.592-4.534 1.775-1.498 1.36-2.248 3.058-2.248 5.097 0 1.902.663 3.519 1.99 4.85 1.326 1.331 2.927 1.997 4.803 1.997 1.275 0 2.44-.303 3.5-.906.05-.029.093-.064.142-.094v.663h3.281l.001-6.517.002-.018zm3.167-6.125h3.352v5.945c0 1.158.085 1.962.255 2.411.17.45.445.8.822 1.05s.842.374 1.394.374c.551 0 1.02-.122 1.405-.369.386-.245.672-.606.859-1.083.138-.355.207-1.116.207-2.281v-6.047h3.314v5.23c0 2.157-.181 3.631-.546 4.426-.445.968-1.101 1.71-1.967 2.23-.866.518-1.967.777-3.302.777-1.45 0-2.621-.304-3.516-.909s-1.524-1.447-1.888-2.53c-.26-.748-.389-2.11-.389-4.084z"/><path d="m144.924623 12.6633166h23.216081v-2.81407036h-23.216081z"/><path d="m118.362 8.794c.532 0 .988.19 1.369.569.38.379.57.837.57 1.377 0 .532-.188.985-.565 1.36a1.844 1.844 0 0 1 -1.352.563c-.54 0-1-.19-1.38-.573a1.905 1.905 0 0 1 -.572-1.394c0-.524.189-.973.566-1.344a1.87 1.87 0 0 1 1.364-.558m10.904 0c.532 0 .989.19 1.37.569.38.379.57.837.57 1.377 0 .532-.188.985-.565 1.36a1.846 1.846 0 0 1 -1.353.563c-.54 0-1-.19-1.38-.573a1.905 1.905 0 0 1 -.571-1.394c0-.524.188-.973.565-1.344a1.872 1.872 0 0 1 1.364-.558m8.442 0c.532 0 .989.19 1.37.569.38.379.57.837.57 1.377 0 .532-.188.985-.566 1.36a1.844 1.844 0 0 1 -1.351.563c-.54 0-1-.19-1.381-.573a1.905 1.905 0 0 1 -.571-1.394c0-.524.189-.973.566-1.344a1.87 1.87 0 0 1 1.363-.558m-94.336 44.37-2.079 2.026c-.845-.816-1.611-1.224-2.3-1.224-.378 0-.673.079-.886.234-.213.156-.32.35-.32.583 0 .175.068.337.203.485s.47.35 1.003.606l1.23.6c1.296.622 2.185 1.257 2.669 1.906.484.647.726 1.407.726 2.278 0 1.16-.437 2.127-1.31 2.902-.874.775-2.044 1.164-3.512 1.164-1.952 0-3.51-.745-4.675-2.231l2.067-2.195c.393.448.855.81 1.384 1.086.529.275.998.413 1.408.413.443 0 .8-.103 1.07-.312.271-.207.407-.447.407-.72 0-.502-.488-.994-1.464-1.474l-1.133-.552c-2.164-1.063-3.247-2.394-3.247-3.993 0-1.031.408-1.912 1.224-2.644.816-.73 1.86-1.097 3.131-1.097.869 0 1.687.186 2.454.558a5.39 5.39 0 0 1 1.95 1.6m12.784 3.07a3.286 3.286 0 0 0 -1.282-1.775c-.638-.455-1.378-.683-2.22-.683-.915 0-1.717.256-2.406.767-.434.321-.835.884-1.203 1.691h7.11zm3.28 2.579h-10.536c.152.927.559 1.665 1.22 2.212.66.547 1.503.821 2.528.821 1.225 0 2.278-.428 3.16-1.282l2.762 1.295c-.689.975-1.513 1.696-2.474 2.165-.961.467-2.103.7-3.424.7-2.05 0-3.72-.645-5.009-1.936-1.29-1.292-1.934-2.909-1.934-4.85 0-1.991.643-3.644 1.928-4.96 1.285-1.314 2.897-1.972 4.835-1.972 2.058 0 3.732.658 5.02 1.973 1.29 1.315 1.935 3.052 1.935 5.21l-.012.624zm14.433-4.833-2.574 1.499c-.484-.535-.962-.908-1.435-1.116-.472-.207-1.026-.311-1.66-.311-1.157 0-2.094.366-2.807 1.096-.715.73-1.072 1.666-1.072 2.806 0 1.11.344 2.017 1.032 2.719.688.703 1.591 1.053 2.71 1.053 1.384 0 2.46-.499 3.232-1.498l2.438 1.767c-1.321 1.82-3.187 2.73-5.595 2.73-2.168 0-3.864-.68-5.091-2.039-1.227-1.36-1.841-2.95-1.841-4.773 0-1.263.299-2.427.895-3.49a6.489 6.489 0 0 1 2.497-2.505c1.069-.608 2.264-.912 3.585-.912 1.223 0 2.322.258 3.296.774a6.389 6.389 0 0 1 2.39 2.2m11.199 6.8c-.687.713-1.547 1.07-2.58 1.07s-1.887-.353-2.56-1.058c-.675-.705-1.012-1.626-1.012-2.765 0-1.106.341-2.013 1.023-2.722.682-.71 1.537-1.064 2.562-1.064 1.05 0 1.91.35 2.585 1.052.674.7 1.011 1.613 1.011 2.734 0 1.122-.344 2.04-1.029 2.753m23.209 1.98v1.768a2.251 2.251 0 0 1 -2.255 2.243 2.24 2.24 0 0 1 -2.242-2.243l.002-8.604c0-1.507-.382-2.644-1.146-3.414-.91-.905-2.016-1.358-3.32-1.358-.636 0-1.258.123-1.865.368-.608.245-1.286.682-2.034 1.31l-.051.007v-.579c0-3.018-2.47-5.473-5.505-5.473a5.499 5.499 0 0 0 -5.436 4.657 6.986 6.986 0 0 0 -1.979-.29c-1.717 0-3.236.593-4.557 1.78-1.508 1.361-2.26 3.064-2.26 5.107 0 1.908.666 3.528 2 4.862 1.333 1.335 2.944 2.002 4.83 2.002 1.28 0 2.453-.303 3.517-.908a6.655 6.655 0 0 0 2.52-2.518 6.84 6.84 0 0 0 .925-3.462 6.645 6.645 0 0 0 -1.815-4.619v-1.138a2.25 2.25 0 0 1 2.255-2.242 2.25 2.25 0 0 1 2.255 2.242v12.308h3.301v-5.245c0-1.36.048-2.246.145-2.654.185-.784.516-1.398.995-1.843a2.434 2.434 0 0 1 1.718-.666c.515 0 .947.133 1.297.402.35.268.594.658.735 1.17.141.513.212 1.549.212 3.11l-.002 5.69c0 3.017 2.47 5.472 5.505 5.472 2.911 0 5.296-2.26 5.486-5.11v-.36m34.12-12.504h2.678v1.555c.29-.613.675-1.078 1.156-1.396a2.804 2.804 0 0 1 1.58-.476c.404 0 .827.106 1.27.317l-.973 2.666c-.367-.182-.668-.272-.904-.272-.481 0-.887.294-1.219.885-.331.59-.498 1.747-.498 3.472l.012.601-.001 4.994-3.1-.001v-12.346zm17.11 4.207a3.283 3.283 0 0 0 -1.281-1.775c-.638-.455-1.377-.683-2.22-.683-.914 0-1.716.256-2.406.767-.433.321-.835.884-1.203 1.691zm3.28 2.579h-10.535c.153.927.559 1.665 1.22 2.212.66.547 1.503.821 2.529.821 1.224 0 2.277-.428 3.159-1.282l2.762 1.295c-.689.975-1.513 1.696-2.474 2.165-.961.467-2.103.7-3.423.7-2.051 0-3.72-.645-5.01-1.936-1.29-1.292-1.934-2.909-1.934-4.85 0-1.991.642-3.644 1.928-4.96 1.285-1.314 2.897-1.972 4.835-1.972 2.058 0 3.732.658 5.021 1.973 1.29 1.315 1.934 3.052 1.934 5.21l-.011.624zm-35.273 1.799c-.682.71-1.537 1.067-2.565 1.067s-1.877-.352-2.547-1.055c-.67-.704-1.006-1.624-1.006-2.758 0-1.104.34-2.01 1.018-2.717s1.528-1.061 2.547-1.061c1.044 0 1.9.35 2.572 1.05.67.699 1.005 1.608 1.005 2.728 0 1.119-.34 2.034-1.024 2.746zm1.048-9.27v.701c-.06-.035-.113-.079-.174-.113a6.95 6.95 0 0 0 -3.48-.924c-1.708 0-3.22.592-4.534 1.775-1.499 1.36-2.248 3.058-2.248 5.097 0 1.902.663 3.519 1.99 4.85s2.927 1.997 4.803 1.997c1.275 0 2.44-.303 3.499-.906.05-.029.095-.065.144-.095v.665h3.282v-13.049h-3.282z"/><path d="m141.757427 64.3718593h-3.86798l.001367-12.6633166h3.86798z"/><path d="m139.819 47.136c.532 0 .988.19 1.37.568.38.38.57.838.57 1.377 0 .532-.189.986-.566 1.361a1.847 1.847 0 0 1 -1.352.563c-.54 0-1-.191-1.38-.573a1.906 1.906 0 0 1 -.572-1.394c0-.525.19-.974.566-1.345.377-.372.831-.557 1.364-.557m-27.044 7.65c-1.028 0-1.882.357-2.561 1.069-.68.711-1.02 1.624-1.02 2.737 0 1.121.345 2.044 1.037 2.768.692.723 1.544 1.085 2.557 1.085 1.043 0 1.91-.356 2.598-1.067.688-.713 1.032-1.645 1.032-2.799 0-1.128-.344-2.042-1.032-2.743-.688-.7-1.559-1.05-2.61-1.05zm3.497-6.595h3.326v16.902h-3.326v-1.373c-.65.604-1.3 1.04-1.954 1.306a5.56 5.56 0 0 1 -2.123.4c-1.712 0-3.192-.65-4.442-1.95s-1.874-2.917-1.874-4.85c0-2.003.604-3.645 1.814-4.926 1.208-1.28 2.677-1.92 4.405-1.92a5.7 5.7 0 0 1 2.239.442 6.105 6.105 0 0 1 1.935 1.324v-5.356z"/></g></svg>