<svg width="90" height="90" xmlns="http://www.w3.org/2000/svg"><path d="M45 0a45 45 0 0 1 45 45c0 24.853-20.147 45-45 45S0 69.853 0 45 20.147 0 45 0zm-7.893 66.339a3.231 3.231 0 0 0-3.222 3.447 3.231 3.231 0 1 0 6.444 0 3.276 3.276 0 0 0-3.222-3.447zm-9.468.054a.9.9 0 0 0-.9.72l-.9 5.238a.9.9 0 0 0 0 .162.702.702 0 1 0 1.404 0l.549-3.816 1.125 3.924a.792.792 0 0 0 1.503 0l1.124-3.924.559 3.816c0 .355.264.65.607.696l.095.006a.702.702 0 0 0 .702-.702 1.008 1.008 0 0 0 0-.162l-.9-5.229a.9.9 0 0 0-.9-.72.999.999 0 0 0-.9.675L29.7 70.785l-1.161-3.717a.999.999 0 0 0-.9-.675zm25.443.063a.666.666 0 0 0-.72.729h.018v5.265a.702.702 0 1 0 1.404 0v-2.007l2.079 2.52a.729.729 0 0 0 .54.243.72.72 0 0 0 .702-.72.612.612 0 0 0-.189-.414l-1.593-1.701a1.8 1.8 0 0 0 1.737-1.8c0-1.467-.891-2.115-2.331-2.115zm11.718-.117a1.1 1.1 0 0 0-1.008.774l-1.881 5.112a.675.675 0 0 0 .63.963.648.648 0 0 0 .675-.495l.279-.9h2.565l.279.9c.081.305.369.51.684.486a.621.621 0 0 0 .648-.621 1.107 1.107 0 0 0-.072-.351l-1.8-5.094a1.062 1.062 0 0 0-.999-.774zm-23.058.063a.675.675 0 0 0-.702.729h.018v5.319a.702.702 0 1 0 1.404 0v-3.465l2.97 3.915a.9.9 0 0 0 .576.279.675.675 0 0 0 .702-.729v-5.319a.702.702 0 1 0-1.404 0v3.546l-2.97-3.96a.9.9 0 0 0-.594-.315zm9.558.045h-3.465a.63.63 0 0 0-.639.648.603.603 0 0 0 .639.648h1.026v4.707a.702.702 0 1 0 1.404 0v-4.707H51.3a.603.603 0 0 0 .639-.648.63.63 0 0 0-.639-.648zm17.622-.018a.702.702 0 0 0-.702.702v5.238a.693.693 0 0 0 .729.765h2.34a.657.657 0 0 0 .675-.621.639.639 0 0 0-.675-.675h-1.665v-4.707a.702.702 0 0 0-.702-.702zm-8.75-1.017a.513.513 0 0 0-.349.189l-.9.846H58.5a.711.711 0 0 0-.729.81v5.157a.684.684 0 0 0 .72.702h2.421a.639.639 0 0 0 .666-.648.63.63 0 0 0-.684-.639h-1.737v-1.422h1.539a.648.648 0 0 0 .684-.648.639.639 0 0 0-.684-.648h-1.539v-1.368h1.647a.63.63 0 0 0 .666-.648.621.621 0 0 0-.666-.648h-.576l.243-.225a.45.45 0 0 0 .081-.693.513.513 0 0 0-.38-.117zm-23.101 2.214c1.215 0 1.8 1.026 1.8 2.16 0 1.143-.567 2.151-1.8 2.151s-1.8-1.017-1.8-2.151.585-2.16 1.8-2.16zm27.729.198l.9 2.7h-1.8l.9-2.7zm-10.071-.081a.783.783 0 0 1 .9.828.801.801 0 0 1-.9.837h-.963v-1.665zM41.022 57.6a3.456 3.456 0 0 0 0 6.894c.693 0 2.106-.207 2.106-1.107a.657.657 0 0 0-.621-.639c-.48.183-.978.316-1.485.396a1.8 1.8 0 0 1-1.8-2.07c0-1.134.639-2.124 1.8-2.124.487.065.966.177 1.431.333a.594.594 0 0 0 .585-.63c0-.828-1.332-1.053-2.016-1.053zm19.224 0a3.456 3.456 0 0 0 .009 6.894c.693 0 2.106-.207 2.106-1.107a.657.657 0 0 0-.621-.639 7.425 7.425 0 0 1-1.494.396 1.8 1.8 0 0 1-1.8-2.07c0-1.134.639-2.124 1.8-2.124.487.065.966.177 1.431.333a.594.594 0 0 0 .585-.63c0-.828-1.332-1.053-2.016-1.053zm-25.146 0a2.169 2.169 0 0 0-2.358 2.088c0 2.169 3.132 1.503 3.132 2.61a.828.828 0 0 1-.954.81c-.612 0-1.134-.36-1.575-.36a.621.621 0 0 0-.63.666c0 .882 1.557 1.053 2.277 1.053a2.223 2.223 0 0 0 2.403-2.178c0-2.412-3.132-1.8-3.132-2.763a.675.675 0 0 1 .765-.612c.558 0 .855.279 1.242.279a.648.648 0 0 0 .63-.693c0-.738-1.323-.9-1.8-.9zm34.533 0a2.169 2.169 0 0 0-2.331 2.097c0 2.169 3.132 1.503 3.132 2.61a.828.828 0 0 1-.954.81c-.612 0-1.134-.369-1.575-.369a.621.621 0 0 0-.63.666c0 .882 1.557 1.053 2.277 1.053a2.223 2.223 0 0 0 2.403-2.178c0-2.412-3.132-1.8-3.132-2.763a.675.675 0 0 1 .765-.612c.567 0 .864.279 1.251.279a.648.648 0 0 0 .63-.693c0-.738-1.314-.9-1.836-.9zm-18.333 0a.675.675 0 0 0-.666.747h-.036v5.328a.702.702 0 1 0 1.404 0v-3.492l2.97 3.915a.9.9 0 0 0 .594.306.675.675 0 0 0 .702-.729v-5.328a.702.702 0 1 0-1.404 0v3.519l-2.97-3.96a.9.9 0 0 0-.594-.306zm-6.822.045a.702.702 0 0 0-.702.702v5.328a.702.702 0 1 0 1.404 0v-5.328a.702.702 0 0 0-.702-.702zm21.582.036h-2.331A.711.711 0 0 0 63 58.5l.009 5.112a.684.684 0 0 0 .72.702h2.421a.63.63 0 0 0 .666-.648.621.621 0 0 0-.666-.648h-1.737v-1.422h1.539a.648.648 0 0 0 .684-.648.63.63 0 0 0-.684-.648h-1.539v-1.323h1.647a.639.639 0 0 0 .666-.648.621.621 0 0 0-.666-.648zm-16.83 0h-2.322a.711.711 0 0 0-.729.819v5.112a.684.684 0 0 0 .72.702h2.421a.639.639 0 0 0 .666-.648.621.621 0 0 0-.666-.648h-1.737v-1.422h1.539a.648.648 0 0 0 .684-.648.63.63 0 0 0-.684-.648h-1.539v-1.323h1.647a.639.639 0 0 0 .666-.648.621.621 0 0 0-.666-.648zm20.394-8.892a2.169 2.169 0 0 0-2.322 2.124c0 2.178 3.132 1.512 3.132 2.619a.828.828 0 0 1-.954.81c-.612 0-1.134-.369-1.575-.369a.63.63 0 0 0-.63.666c0 .882 1.557 1.053 2.277 1.053a2.223 2.223 0 0 0 2.403-2.178c0-2.412-3.132-1.8-3.132-2.763a.675.675 0 0 1 .765-.612c.567 0 .864.279 1.251.279a.648.648 0 0 0 .63-.693c0-.747-1.314-.936-1.845-.936zm-10.647.108H57.42a.693.693 0 0 0-.72.72V54.9a.684.684 0 0 0 .756.666h1.62a3.033 3.033 0 0 0 3.204-3.24c0-2.079-1.206-3.429-3.303-3.429zm7.083 0h-2.331a.711.711 0 0 0-.729.819V54.9a.684.684 0 0 0 .729.666h2.421a.639.639 0 0 0 .666-.648.621.621 0 0 0-.666-.648h-1.737v-1.422h1.503a.648.648 0 0 0 .494-1.103.639.639 0 0 0-.458-.184h-1.539v-1.368h1.647a.639.639 0 0 0 .666-.648.621.621 0 0 0-.666-.648zm-7.065 1.287c1.296 0 1.854.873 1.854 2.07a1.8 1.8 0 0 1-1.8 2.016h-.927v-4.086zM44.262 39.951a3.456 3.456 0 0 0 0 6.903c.693 0 2.106-.207 2.106-1.107a.657.657 0 0 0-.621-.639c-.48.183-.978.316-1.485.396a1.8 1.8 0 0 1-1.8-2.07c0-1.143.639-2.124 1.8-2.124.486.062.965.17 1.431.324a.594.594 0 0 0 .585-.63c0-.828-1.332-1.053-2.016-1.053zm19.215.117a.666.666 0 0 0-.72.729h.018v5.301a.702.702 0 1 0 1.404 0v-2.034l2.079 2.52a.729.729 0 0 0 .54.243.72.72 0 0 0 .702-.72.603.603 0 0 0-.189-.414l-1.593-1.71a1.8 1.8 0 0 0 1.737-1.8c0-1.467-.891-2.115-2.331-2.115zm-11.34-.054a.675.675 0 0 0-.702.729l-.009 5.319a.702.702 0 1 0 1.404 0V42.57l2.97 3.915a.9.9 0 0 0 .603.306.675.675 0 0 0 .702-.729v-5.319a.702.702 0 1 0-1.404 0v3.537l-2.97-3.96a.9.9 0 0 0-.594-.306zm9.549.054h-3.447a.63.63 0 0 0-.639.648.603.603 0 0 0 .63.684h1.026v4.671a.702.702 0 1 0 1.404 0v-4.707h1.026a.603.603 0 0 0 .639-.648.63.63 0 0 0-.639-.648zm9.513-.009h-2.322a.711.711 0 0 0-.729.819v5.166a.684.684 0 0 0 .72.702h2.421a.639.639 0 0 0 .666-.648.621.621 0 0 0-.666-.648h-1.737v-1.431H71.1a.648.648 0 0 0 .684-.648.639.639 0 0 0-.684-.648h-1.548v-1.368h1.647a.63.63 0 0 0 .666-.648.621.621 0 0 0-.666-.648zm-21.177.009H47.7a.711.711 0 0 0-.729.81l.009 5.166a.684.684 0 0 0 .72.702h2.412a.63.63 0 0 0 .666-.648.621.621 0 0 0-.666-.648h-1.737v-1.422h1.539a.648.648 0 0 0 .684-.648.63.63 0 0 0-.684-.648h-1.539v-1.368h1.647a.639.639 0 0 0 .666-.648.621.621 0 0 0-.666-.648zm-13.814-24.35a3.24 3.24 0 0 0-6.184 1.904l-7.299 3.726a3.87 3.87 0 1 0 0 4.815l6.975 3.6a4.851 4.851 0 0 0-.216 1.458 4.68 4.68 0 0 0 .216 1.422l-7.812 3.987A5.571 5.571 0 0 0 11.7 39.753a5.571 5.571 0 1 0 10.8-1.836l7.866-4.032a4.653 4.653 0 1 0 0-5.4L23.4 24.93a3.816 3.816 0 0 0 0-2.277l7.272-3.753a3.24 3.24 0 0 0 5.536-3.182zm28.916 25.637a.783.783 0 0 1 .9.828.801.801 0 0 1-.9.837h-.963v-1.665z" fill="#FFF"/></svg>