<svg height="65.942" width="97.691" xmlns="http://www.w3.org/2000/svg"><g fill="#fff" fill-rule="evenodd"><path d="m61.007 79.679c0 1.089.386 1.647 1.513 1.647h1.238v2.429h-1.733a3.583 3.583 0 0 1 -3.823-3.908v-15.969h2.806zm4.1-12.871v-3.012h2.97v3.013zm.083 16.947v-14.154h2.8v14.154zm-19.416 0v-14.154h2.806v14.154zm-.084-16.946v-3.013h2.97v3.013zm8.415 12.871v-15.803h-2.8v15.97a3.582 3.582 0 0 0 3.823 3.908h1.728v-2.429h-1.24c-1.128 0-1.513-.559-1.513-1.647m-16.337-10.059a5.27 5.27 0 0 0 -4.373 2.066 4.439 4.439 0 0 0 -3.965-2.066 5.01 5.01 0 0 0 -3.711 1.591v-1.424h-2.751v14.155h2.806v-8.627c0-2.178 1.32-3.155 2.888-3.155s2.806.949 2.806 3.155v8.627h2.8v-8.766a2.782 2.782 0 0 1 2.888-3.015c1.568 0 2.806.949 2.806 3.155v8.627h2.8v-9.047a5.3 5.3 0 0 0 -1.485-3.992 5 5 0 0 0 -3.509-1.284m65.979 14.135v-14.154h2.806v14.154zm-.079-16.946v-3.013h2.97v3.013zm15.589 3.909a4.793 4.793 0 0 0 -3.438-1.284 4.948 4.948 0 0 0 -3.712 1.591v-1.424h-2.75v14.154h2.8v-8.625c0-2.178 1.32-3.154 2.888-3.154s2.8.949 2.8 3.154v8.626h2.806v-9.045a5.242 5.242 0 0 0 -1.4-3.992m-32.17 8.96v-15.802h-2.806v15.97a3.582 3.582 0 0 0 3.823 3.908h1.733v-2.429h-1.237c-1.128 0-1.514-.559-1.514-1.647m-6.435-8.99c1.4 1.423 1.568 3.825 1.568 5.974s-.165 4.58-1.568 6a4.714 4.714 0 0 1 -3.383 1.256 4.309 4.309 0 0 1 -3.658-1.619v7.175h-2.8v-19.879h2.75v1.513a4.262 4.262 0 0 1 3.685-1.676 4.784 4.784 0 0 1 3.407 1.257zm-4.126 10.693c2.532 0 2.888-2.206 2.888-4.718s-.358-4.69-2.888-4.69-2.915 2.178-2.915 4.69.386 4.718 2.915 4.718zm19.249-11.948c-3.576 0-5.913 2.651-5.913 7.23 0 5.388 2.778 7.259 6.271 7.259a6.5 6.5 0 0 0 5.225-2.206l-1.788-1.7a4.134 4.134 0 0 1 -3.382 1.452 3.345 3.345 0 0 1 -3.513-3.318 12.45 12.45 0 0 1 -.088-1.646 12.256 12.256 0 0 1 .093-1.647 4.557 4.557 0 0 1 .322-1.264 3.03 3.03 0 0 1 5.527 0 4.517 4.517 0 0 1 .386 1.926h-4.81v1.982h7.588v-1.256c0-4.021-2.173-6.812-5.913-6.812" transform="translate(-22.966 -23.536)"/><g transform="translate(.337)"><path d="m28.232.265c2.144-.059 2.27.424.311 1.156s-5.645 1.815-8.22 2.566c-2.568.771-2.746.225-.359-1.222a20.012 20.012 0 0 1 8.268-2.5"/><path d="m22.741 8.402c3.152-.694 4.677-.017 3.439 1.131-1.234 1.166-5.13 2.706-8.556 4.038-3.408 1.332-4.849 1.474-3.37-.341a17.68 17.68 0 0 1 8.487-4.829"/><path d="m30.782 3.024c2.63-.056 3.587.622 2.225 1.4s-4.951 1.63-8.044 2.192-4.139.221-2.323-1.1a16.808 16.808 0 0 1 8.142-2.5"/><path d="m39.157.149c2.029.308 2.483.825 1.085 1.214a32.492 32.492 0 0 1 -7.072.582c-2.536-.018-3.091-.569-1.18-1.25a17.509 17.509 0 0 1 7.167-.546"/><path d="m33.292 12.591c3.8-.014 6.48 1.155 6.067 2.254-.4 1.121-4.326 1.838-8.706 2.095-4.363.254-7-.144-6.044-1.517s4.869-2.843 8.682-2.832"/><path d="m37.911 7.482c3.117.257 5.024 1.3 4.4 2.176s-4.045 1.324-7.745 1.275-5.752-.673-4.559-1.785 4.782-1.941 7.9-1.667"/><path d="m43.079 3.966c2.459.428 3.728 1.276 2.977 1.883s-3.7.768-6.715.466-4.478-1.023-3.168-1.778 4.451-1.009 6.906-.571"/><path d="m48.921 1.742c1.861.487 2.595 1.086 1.751 1.413s-3.336.233-5.7-.217-3.259-1.118-1.911-1.491a13.845 13.845 0 0 1 5.861.295"/><path d="m51.513 14.443c3.733.691 6.936 2.126 7.418 3.126s-2.62 1.263-7.186.654-8.067-1.871-7.726-2.963 3.764-1.514 7.494-.817"/><path d="m52.45 9.878c2.91.694 5.18 1.961 5.3 2.827s-2.507.973-6.094.274-6.157-1.9-5.6-2.768 3.491-1.032 6.395-.333"/><path d="m54.41 6.577c2.239.641 3.793 1.644 3.658 2.293s-2.35.627-5.148-.064-4.622-1.731-3.924-2.336 3.18-.536 5.414.108"/><path d="m57.795 4.327c1.683.556 2.658 1.256 2.329 1.659s-2.2.266-4.344-.367-3.346-1.452-2.549-1.781 2.887-.068 4.564.489"/><path d="m67.565 18.054a37.61 37.61 0 0 1 8.395 2.775c1.326.762-.589 1.006-4.832.466s-8.492-1.9-9.05-2.89c-.578-.989 2.025-1.114 5.487-.351"/><path d="m65.906 13.531a17.93 17.93 0 0 1 6.132 2.964c.838.848-.895.961-4.223.176s-6.391-2.207-6.572-3.073 2-.867 4.663-.067"/><path d="m64.705 9.851c2.033.71 3.867 1.824 4.32 2.565s-1.057.756-3.621-.038-4.734-2.033-4.651-2.688 1.925-.547 3.952.161"/><path d="m64.862 6.858c1.52.574 2.721 1.385 2.865 1.914s-1.157.468-3.1-.223-3.419-1.654-3.132-2.064 1.856-.2 3.37.373"/><path d="m82.303 21.333c2.544.523 8.345 2.418 5.549 2.459s-7.214-.748-8.356-1.721c-1.158-.96.288-1.261 2.807-.739"/><path d="m76.416 17.136a42.67 42.67 0 0 1 6.25 2.473c1.288.672.46.828-2.261.3s-5.945-1.734-6.787-2.572.532-.889 2.8-.2"/><path d="m72.78 12.947a19.228 19.228 0 0 1 4.6 2.577c.9.757.092.865-2.078.166s-4.506-1.961-4.967-2.7.716-.718 2.446-.04"/><path d="m71.305 9.803a10.715 10.715 0 0 1 3.4 2.139c.577.649-.214.7-1.993.02s-3.523-1.754-3.7-2.293.919-.432 2.3.135"/><path d="m81.153 17.035a39 39 0 0 1 4.316 1.946c1.078.569.829.714-.792.322a14.853 14.853 0 0 1 -4.644-1.984c-.831-.669-.238-.775 1.125-.284"/><path d="m77.553 13.506a19.406 19.406 0 0 1 3.572 2.231c.881.713.563.857-.931.259a12.81 12.81 0 0 1 -3.88-2.351c-.565-.655.071-.675 1.239-.138"/><path d="m2.951 25.973c1.935-2.033 3.724-2.429 3.579-1.241-.09.884-3.382 5.546-3.825 6.156-1.679 2.307-2.552 3.224-2.694 1.765s.97-4.651 2.941-6.68"/><path d="m87.329 20.324a21.257 21.257 0 0 1 4.061 1.431c1.049.509.784.71-.819.432a14.027 14.027 0 0 1 -4.391-1.487c-.728-.515-.123-.66 1.15-.377"/><path d="m92.835 23.313a20.429 20.429 0 0 1 3.694 1.164c.956.418.721.587-.734.368a13.476 13.476 0 0 1 -3.994-1.208c-.667-.425-.122-.551 1.034-.324"/><path d="m17.454 6.209c2.536-.892 3.7-.586 2.643.56s-4.252 3.063-7.067 4.563c-2.8 1.509-3.947 1.526-2.635-.253a17.305 17.305 0 0 1 7.059-4.871"/><path d="m8.433 14.978c2.617-1.817 4.3-1.766 3.629-.246s-3.613 4.41-6.219 6.917c-2.59 2.5-3.858 3.171-3.24.948a16.792 16.792 0 0 1 5.83-7.619"/><path d="m15.218 17.23c3.436-1.555 6.367-1.622 6.474-.5.123 1.141-3.112 3.361-6.962 5.362s-6.4 2.718-6.132 1.13 3.162-4.457 6.619-6"/></g></g></svg>