<?xml version="1.0" encoding="UTF-8"?>
<svg width="147px" height="38px" viewBox="0 0 147 38" version="1.1" xmlns="http://www.w3.org/2000/svg" xmlns:xlink="http://www.w3.org/1999/xlink">
    <title>Group</title>
    <g id="Page-1" stroke="none" stroke-width="1" fill="none" fill-rule="evenodd">
        <g id="thumbnail-copy-6" transform="translate(-40.000000, -297.000000)" fill="#FFFFFF" fill-rule="nonzero">
            <g id="Group" transform="translate(40.604058, 297.000000)">
                <path d="M55.4508352,13.7643607 C52.9331947,11.4662501 49.6267197,10.2268367 46.2188017,10.3037852 C39.7563783,10.2554981 34.1550748,14.0471851 33.2548653,21.8455516 L28.7630154,21.8455516 L28.7630154,0.00138773837 L23.4537339,0.00138773837 L23.4537339,21.8455516 L12.6569684,21.8455516 C8.13522651,21.8455516 5.3127306,23.8172748 5.3127306,26.6547168 L5.3127306,0.00138773837 L0,0.00138773837 L0,37.5641521 L5.3127306,37.5641521 C5.3127306,28.4344413 6.2117904,26.2971623 11.9004706,26.2971623 L23.4537339,26.2971623 L23.4537339,37.5641521 L28.7664645,37.5641521 L28.7664645,26.2971623 L33.2502665,26.2971623 C34.1263325,34.1300196 39.7391329,37.9412513 46.217652,37.8929642 C46.5602605,37.8929642 46.9005696,37.8791679 47.2385793,37.8515753 C52.2075517,37.5400085 56.7223955,35.0198818 58.749304,30.104945 L54.1355866,28.2838315 L54.1355866,28.2907297 L54.0355633,28.248191 C52.7636345,31.4344459 49.6475847,33.4965377 46.217652,33.4218088 C45.9877135,33.4218088 45.7577749,33.4218088 45.5393333,33.4057131 C42.0787578,33.1504813 39.1665859,30.928125 38.51471,26.2948629 L59.2333246,26.2948629 C59.3424061,25.5834518 59.3962194,24.8646601 59.3943321,24.1449373 C59.3943321,19.4645378 57.8651902,16.0281059 55.4508352,13.7609116 M54.0861498,21.7788694 L38.5319554,21.7788694 C39.3539858,16.9386626 42.6145147,14.8082818 46.3498667,14.8623173 C47.9273574,14.8497211 49.4755481,15.2885281 50.8118246,16.1269795 C52.6448437,17.4689889 53.8306312,19.5185702 54.0804013,21.7765701" id="Shape"></path>
                <polygon id="Path" points="62.2995554 0.000238045535 67.612286 0.000238045535 67.612286 37.5641521 62.2995554 37.5641521"></polygon>
                <path d="M76.3775442,0.558988764 C75.3596644,-0.186329588 73.9762375,-0.186329588 72.9583577,0.558988764 C72.4966881,0.925256032 72.1695693,1.43433212 72.0282562,2.00645205 C71.9495607,2.32991032 71.9143762,2.66242291 71.9236342,2.99518788 C71.9149954,3.31737218 71.9505842,3.63921914 72.0294059,3.95173233 C72.1704139,4.52369594 72.4971153,5.03275175 72.9583577,5.39919561 C73.9762375,6.14451396 75.3596644,6.14451396 76.3775442,5.39919561 C76.8387866,5.03275175 77.165488,4.52369594 77.306496,3.95173233 C77.3847786,3.62389431 77.4203307,3.28730819 77.4122678,2.95034986 C77.4218755,2.63229641 77.3862626,2.31449036 77.306496,2.00645205 C77.165488,1.43448843 76.8387866,0.925432621 76.3775442,0.558988764" id="Path"></path>
                <polygon id="Path" points="72.0121605 10.7326207 77.3248911 10.7326207 77.3248911 37.5641521 72.0121605 37.5641521"></polygon>
                <path d="M98.6827349,20.7671398 C98.6827349,33.1090924 92.8330978,33.5390775 91.0625708,33.5390775 C87.6824739,33.5390775 86.8236533,29.783031 86.8236533,25.8648778 L86.8236533,10.7326207 L81.4568872,10.7326207 L81.4568872,25.8660275 C81.4568872,30.9108797 81.5649583,37.9941372 89.0770513,37.9941372 C93.3151573,38.1394208 97.1762767,35.5727353 98.6827349,31.6087432 L98.6827349,37.5653018 L104.049501,37.5653018 L104.049501,10.7326207 L98.6827349,10.7326207 L98.6827349,20.7671398 Z" id="Path"></path>
                <path d="M138.122948,10.3049349 C134.151909,10.3049349 130.985655,12.34449 129.270313,17.0133926 C128.68052,13.471189 126.962879,10.3049349 121.972063,10.3049349 C118.216016,10.3049349 115.209569,12.1294975 113.386157,16.3155291 L113.386157,10.7326207 L108.073426,10.7326207 L108.073426,37.5641521 L113.386157,37.5641521 L113.386157,27.529633 C113.386157,15.2405663 117.30316,14.7576953 119.986543,14.7576953 C123.36664,14.7576953 124.172575,18.5137418 124.172575,22.431895 L124.172575,37.5641521 L129.538191,37.5641521 L129.538191,27.529633 C129.538191,15.2405663 133.455195,14.7576953 136.138578,14.7576953 C139.519824,14.7576953 140.324609,18.5137418 140.324609,22.431895 L140.324609,37.5641521 L145.691376,37.5641521 L145.691376,22.431895 C145.691376,17.3870428 145.63734,10.3037852 138.125247,10.3037852" id="Path"></path>
                <polygon id="Path" points="52.6306387 0.0128846667 47.6731632 0.0128846667 44.548298 7.66409049 48.4813972 7.66409049"></polygon>
            </g>
        </g>
    </g>
</svg>