<svg width="147" height="38" xmlns="http://www.w3.org/2000/svg"><g fill="#FFF"><path d="M56.054 13.764a13.25 13.25 0 0 0-9.231-3.46c-6.463-.049-12.064 3.743-12.964 11.542h-4.492V0h-5.31v21.845H13.262c-4.522 0-7.344 1.971-7.344 4.809V0H.604v37.563h5.313c0-9.13.899-11.267 6.587-11.267h11.554v11.267h5.312V26.297h4.484c.876 7.833 6.49 11.644 12.968 11.596.342 0 .683-.014 1.02-.041 4.97-.312 9.484-2.832 11.511-7.747l-4.613-1.821v.007l-.1-.043a8.225 8.225 0 0 1-7.818 5.174c-.23 0-.46 0-.679-.016-3.46-.256-6.372-2.478-7.024-7.111h20.718c.11-.712.163-1.43.161-2.15 0-4.68-1.529-8.117-3.943-10.384m-1.365 8.018H39.136c.822-4.84 4.083-6.97 7.818-6.917a8.27 8.27 0 0 1 4.462 1.265 8.106 8.106 0 0 1 3.268 5.65M62.904 0h5.312v37.564h-5.312zM76.982.56a2.894 2.894 0 0 0-3.42 0 2.663 2.663 0 0 0-.93 1.447 3.742 3.742 0 0 0-.104.99c-.009.321.027.643.105.956a2.66 2.66 0 0 0 .93 1.447 2.894 2.894 0 0 0 3.419 0c.46-.366.787-.875.928-1.447.079-.328.114-.665.106-1.002a3.36 3.36 0 0 0-.106-.944A2.663 2.663 0 0 0 76.982.56m-4.366 10.173h5.313v26.831h-5.313zm26.671 10.034c0 12.342-5.85 12.772-7.62 12.772-3.38 0-4.24-3.756-4.24-7.674V10.733h-5.366v15.133c0 5.045.108 12.128 7.62 12.128a9.913 9.913 0 0 0 9.606-6.385v5.956h5.367V10.733h-5.367v10.034zm39.44-10.462c-3.971 0-7.137 2.04-8.853 6.708-.59-3.542-2.307-6.708-7.298-6.708-3.756 0-6.762 1.824-8.586 6.01v-5.582h-5.313v26.831h5.313V27.53c0-12.29 3.917-12.772 6.6-12.772 3.38 0 4.187 3.756 4.187 7.674v15.132h5.365V27.53c0-12.29 3.917-12.772 6.6-12.772 3.382 0 4.187 3.756 4.187 7.674v15.132h5.366V22.432c0-5.045-.054-12.128-7.566-12.128"/><path d="M53.235.013h-4.958l-3.125 7.651h3.933z"/></g></svg>