<?xml version="1.0" encoding="UTF-8"?>
<svg width="142px" height="42px" viewBox="0 0 142 42" version="1.1" xmlns="http://www.w3.org/2000/svg" xmlns:xlink="http://www.w3.org/1999/xlink">
    <title>masw.ai</title>
    <g id="Page-1" stroke="none" stroke-width="1" fill="none" fill-rule="evenodd">
        <g id="thumbnail-copy-5" transform="translate(-40.000000, -293.000000)" fill="#FFFFFF" fill-rule="nonzero">
            <g id="masw.ai" transform="translate(40.604058, 293.000000)">
                <path d="M0,25.1325301 L4.41927711,25.1325301 L4.41927711,14.3710843 C4.41927711,13.1791165 4.74538153,12.2232932 5.39759036,11.5036145 C6.0497992,10.7839357 6.90441767,10.4240964 7.96144578,10.4240964 C9.04096386,10.4240964 9.90120482,10.7783133 10.5421687,11.486747 C11.1831325,12.1951807 11.5036145,13.1566265 11.5036145,14.3710843 L11.5036145,25.1325301 L15.9228916,25.1325301 L15.9228916,14.3710843 C15.9228916,13.1791165 16.248996,12.2232932 16.9012048,11.5036145 C17.5534137,10.7839357 18.4080321,10.4240964 19.4650602,10.4240964 C20.5445783,10.4240964 21.4048193,10.7783133 22.0457831,11.486747 C22.686747,12.1951807 23.0072289,13.1566265 23.0072289,14.3710843 L23.0072289,25.1325301 L27.426506,25.1325301 L27.426506,13.3253012 C27.426506,11.9534137 27.1285141,10.7445783 26.5325301,9.69879518 C25.9365462,8.65301205 25.1325301,7.837751 24.1204819,7.25301205 C23.1084337,6.66827309 21.9502008,6.37590361 20.6457831,6.37590361 C19.4313253,6.37590361 18.3349398,6.62329317 17.3566265,7.11807229 C16.3783133,7.61285141 15.5742972,8.35502008 14.9445783,9.34457831 C14.4048193,8.44497992 13.6345382,7.7253012 12.6337349,7.18554217 C11.6329317,6.64578313 10.5140562,6.37590361 9.27710843,6.37590361 C8.13012048,6.37590361 7.10682731,6.60080321 6.20722892,7.05060241 C5.30763052,7.50040161 4.62168675,8.1751004 4.14939759,9.0746988 L4.14939759,6.78072289 L0,6.78072289 L0,25.1325301 Z" id="Path"></path>
                <path d="M38.1429719,25.5373494 C40.5269076,25.5373494 42.4385542,24.7502008 43.8779116,23.1759036 L43.8779116,25.1325301 L48.0610442,25.1325301 L48.0610442,12.9204819 C48.0610442,11.6385542 47.7349398,10.5028112 47.0827309,9.51325301 C46.4305221,8.52369478 45.5365462,7.75341365 44.4008032,7.20240964 C43.2650602,6.65140562 41.9437751,6.37590361 40.4369478,6.37590361 C38.5927711,6.37590361 36.951004,6.81445783 35.5116466,7.69156627 C34.0722892,8.5686747 33.0827309,9.72690763 32.5429719,11.1662651 L36.1526104,12.9204819 C36.4899598,12.0883534 37.0184739,11.4192771 37.7381526,10.913253 C38.4578313,10.4072289 39.3012048,10.1542169 40.2682731,10.1542169 C41.2803213,10.1542169 42.0955823,10.4184739 42.7140562,10.946988 C43.3325301,11.475502 43.6417671,12.1333333 43.6417671,12.9204819 L43.6417671,13.5277108 L38.1767068,14.4048193 C36.0176707,14.7646586 34.4208835,15.4506024 33.3863454,16.4626506 C32.3518072,17.4746988 31.8345382,18.7453815 31.8345382,20.2746988 C31.8345382,21.8939759 32.4080321,23.1759036 33.5550201,24.1204819 C34.702008,25.0650602 36.2313253,25.5373494 38.1429719,25.5373494 Z M36.42249,20.1060241 C36.42249,18.8240964 37.2883534,18.0144578 39.0200803,17.6771084 L43.6417671,16.9012048 L43.6417671,17.6433735 C43.6417671,18.9028112 43.2088353,19.9710843 42.3429719,20.8481928 C41.4771084,21.7253012 40.346988,22.1638554 38.9526104,22.1638554 C38.2104418,22.1638554 37.6032129,21.9783133 37.1309237,21.6072289 C36.6586345,21.2361446 36.42249,20.735743 36.42249,20.1060241 Z" id="Shape"></path>
                <path d="M60.5317269,25.5373494 C61.9261044,25.5373494 63.1405622,25.3012048 64.1751004,24.8289157 C65.2096386,24.3566265 66.0192771,23.6987952 66.6040161,22.8554217 C67.188755,22.0120482 67.4811245,21.0393574 67.4811245,19.9373494 C67.4811245,18.6554217 67.0763052,17.5534137 66.2666667,16.6313253 C65.4570281,15.7092369 64.2875502,15.0345382 62.7582329,14.6072289 L59.8232932,13.7301205 C59.1935743,13.5502008 58.6763052,13.3140562 58.2714859,13.0216867 C57.8666667,12.7293173 57.664257,12.324498 57.664257,11.8072289 C57.664257,11.2674699 57.8779116,10.8289157 58.3052209,10.4915663 C58.7325301,10.1542169 59.3172691,9.98554217 60.0594378,9.98554217 C60.9815261,9.98554217 61.8192771,10.2329317 62.5726908,10.7277108 C63.3261044,11.22249 63.848996,11.8859438 64.1413655,12.7180723 L67.5148594,11.1325301 C66.9526104,9.64819277 66.0080321,8.48433735 64.6811245,7.64096386 C63.3542169,6.79759036 61.8248996,6.37590361 60.0931727,6.37590361 C58.7662651,6.37590361 57.5911647,6.61204819 56.5678715,7.08433735 C55.5445783,7.55662651 54.7461847,8.21445783 54.1726908,9.05783133 C53.5991968,9.90120482 53.3124498,10.8851406 53.3124498,12.0096386 C53.3124498,13.2690763 53.7116466,14.3598394 54.5100402,15.2819277 C55.3084337,16.2040161 56.4835341,16.8899598 58.0353414,17.339759 L61.037751,18.1831325 C61.62249,18.3405622 62.1228916,18.5710843 62.5389558,18.8746988 C62.9550201,19.1783133 63.1630522,19.588755 63.1630522,20.1060241 C63.1630522,20.713253 62.9212851,21.1911647 62.437751,21.539759 C61.9542169,21.8883534 61.3188755,22.0626506 60.5317269,22.0626506 C59.4971888,22.0626506 58.5638554,21.7702811 57.7317269,21.1855422 C56.8995984,20.6008032 56.2361446,19.7911647 55.7413655,18.7566265 L52.4353414,20.3421687 C52.9751004,21.9164659 53.9702811,23.1759036 55.4208835,24.1204819 C56.8714859,25.0650602 58.5751004,25.5373494 60.5317269,25.5373494 Z" id="Path"></path>
                <polygon id="Path" points="76.5783133 42 80.4915663 42 84.8096386 29.6192771 89.060241 42 93.0072289 42 99.3156627 23.6481928 94.660241 23.6481928 90.8144578 35.1855422 86.7662651 23.6481928 82.853012 23.6481928 78.7710843 35.2192771 74.9253012 23.6481928 70.2698795 23.6481928"></polygon>
                <polygon id="Path" points="103.892369 25.1325301 108.345382 25.1325301 108.345382 20.4096386 103.892369 20.4096386"></polygon>
                <path d="M121.524498,25.5373494 C123.908434,25.5373494 125.82008,24.7502008 127.259438,23.1759036 L127.259438,25.1325301 L131.44257,25.1325301 L131.44257,12.9204819 C131.44257,11.6385542 131.116466,10.5028112 130.464257,9.51325301 C129.812048,8.52369478 128.918072,7.75341365 127.782329,7.20240964 C126.646586,6.65140562 125.325301,6.37590361 123.818474,6.37590361 C121.974297,6.37590361 120.33253,6.81445783 118.893173,7.69156627 C117.453815,8.5686747 116.464257,9.72690763 115.924498,11.1662651 L119.534137,12.9204819 C119.871486,12.0883534 120.4,11.4192771 121.119679,10.913253 C121.839357,10.4072289 122.682731,10.1542169 123.649799,10.1542169 C124.661847,10.1542169 125.477108,10.4184739 126.095582,10.946988 C126.714056,11.475502 127.023293,12.1333333 127.023293,12.9204819 L127.023293,13.5277108 L121.558233,14.4048193 C119.399197,14.7646586 117.80241,15.4506024 116.767871,16.4626506 C115.733333,17.4746988 115.216064,18.7453815 115.216064,20.2746988 C115.216064,21.8939759 115.789558,23.1759036 116.936546,24.1204819 C118.083534,25.0650602 119.612851,25.5373494 121.524498,25.5373494 Z M119.804016,20.1060241 C119.804016,18.8240964 120.66988,18.0144578 122.401606,17.6771084 L127.023293,16.9012048 L127.023293,17.6433735 C127.023293,18.9028112 126.590361,19.9710843 125.724498,20.8481928 C124.858635,21.7253012 123.728514,22.1638554 122.334137,22.1638554 C121.591968,22.1638554 120.984739,21.9783133 120.51245,21.6072289 C120.040161,21.2361446 119.804016,20.735743 119.804016,20.1060241 Z" id="Shape"></path>
                <path d="M136.93012,4.72289157 L141.349398,4.72289157 L141.349398,0 L136.93012,0 L136.93012,4.72289157 Z M136.93012,25.1325301 L141.349398,25.1325301 L141.349398,6.78072289 L136.93012,6.78072289 L136.93012,25.1325301 Z" id="Shape"></path>
            </g>
        </g>
    </g>
</svg>