<?xml version="1.0" encoding="UTF-8"?>
<svg width="198px" height="65px" viewBox="0 0 198 65" version="1.1" xmlns="http://www.w3.org/2000/svg" xmlns:xlink="http://www.w3.org/1999/xlink">
    <title>logo-eeq-tagline</title>
    <defs>
        <polygon id="path-1" points="0 0 119.152637 0 119.152637 8.27357511 0 8.27357511"></polygon>
    </defs>
    <g id="Page-1" stroke="none" stroke-width="1" fill="none" fill-rule="evenodd">
        <g id="Artboard" transform="translate(-40.000000, -270.000000)">
            <g id="logo-eeq-tagline" transform="translate(40.000000, 270.000000)">
                <g id="Group-8" transform="translate(78.673451, 13.048391)">
                    <g id="Fill-1-Clipped" transform="translate(0.000000, 15.719221)">
                        <mask id="mask-2" fill="white">
                            <use xlink:href="#path-1"></use>
                        </mask>
                        <g id="path-1"></g>
                        <path d="M0,8.13463537 L5.30746396,8.13463537 L5.30746396,6.32461239 L1.94452646,6.32461239 L1.94452646,4.9504414 L4.93603217,4.9504414 L4.93603217,3.24271994 L1.94452646,3.24271994 L1.94452646,1.92517166 L5.26354143,1.92517166 L5.26354143,0.115148676 L0,0.115148676 L0,8.13463537 Z M9.06522672,8.13463537 L10.9978177,8.13463537 L10.9978177,3.92980544 L13.6412852,8.13463537 L15.3872055,8.13463537 L15.3872055,0.115148676 L13.4555693,0.115148676 L13.4555693,4.14773142 L10.9114049,0.115148676 L9.06522672,0.115148676 L9.06522672,8.13463537 Z M20.673663,8.13463537 L22.6401507,8.13463537 L22.6401507,1.97085047 L24.529774,1.97085047 L24.529774,0.115148676 L18.7840397,0.115148676 L18.7840397,1.97085047 L20.673663,1.97085047 L20.673663,8.13463537 Z M27.936634,8.13463537 L29.8921412,8.13463537 L29.8921412,5.64942243 L30.5906047,5.64942243 L31.890616,8.13463537 L34.1072711,8.13463537 L32.5351311,5.22546593 C33.3424463,4.80103362 33.8995938,4.05637381 33.8995938,2.86396644 L33.8995938,2.80734375 C33.8995938,1.99464152 33.6599298,1.37512262 33.2340721,0.928802542 C32.7428083,0.401592903 31.9670028,0.115148676 30.9405528,0.115148676 L27.936634,0.115148676 L27.936634,8.13463537 Z M29.8921412,4.00974334 L29.8921412,1.91422778 L30.8531852,1.91422778 C31.508681,1.91422778 31.9230803,2.25824634 31.9230803,2.9443802 L31.9230803,2.96817125 C31.9230803,3.61052957 31.52921,4.00974334 30.8641656,4.00974334 L29.8921412,4.00974334 Z M37.6244149,8.13463537 L42.9318788,8.13463537 L42.9318788,6.32461239 L39.5679864,6.32461239 L39.5679864,4.9504414 L42.5599695,4.9504414 L42.5599695,3.24271994 L39.5679864,3.24271994 L39.5679864,1.92517166 L42.8874787,1.92517166 L42.8874787,0.115148676 L37.6244149,0.115148676 L37.6244149,8.13463537 Z M46.6886867,8.13463537 L48.6441938,8.13463537 L48.6441938,5.80929827 L49.3975605,5.80929827 C51.068526,5.78645885 52.4010017,4.86955184 52.4010017,2.9443802 L52.4010017,2.89870137 C52.4010017,1.10009809 51.2217776,0.115148676 49.4190444,0.115148676 L46.6886867,0.115148676 L46.6886867,8.13463537 Z M48.6441938,4.12489203 L48.6441938,1.87949285 L49.320696,1.87949285 C50.0310952,1.87949285 50.4349913,2.25824634 50.4349913,2.99101064 L50.4349913,3.02526976 C50.4349913,3.70045972 50.0201144,4.12489203 49.3316768,4.12489203 L48.6441938,4.12489203 Z M55.9821196,8.13463537 L57.9376268,8.13463537 L57.9376268,5.64942243 L58.6365675,5.64942243 L59.9365788,8.13463537 L62.1537113,8.13463537 L60.5810943,5.22546593 C61.3888866,4.80103362 61.9460343,4.05637381 61.9460343,2.86396644 L61.9460343,2.80734375 C61.9460343,1.99464152 61.7054154,1.37512262 61.2795577,0.928802542 C60.7892486,0.401592903 60.0134433,0.115148676 58.9860381,0.115148676 L55.9821196,0.115148676 L55.9821196,8.13463537 Z M57.9376268,4.00974334 L57.9376268,1.91422778 L58.899148,1.91422778 C59.5546439,1.91422778 59.9695208,2.25824634 59.9695208,2.9443802 L59.9695208,2.96817125 C59.9695208,3.61052957 59.5766052,4.00974334 58.9091739,4.00974334 L57.9376268,4.00974334 Z M65.6699002,8.13463537 L70.9773644,8.13463537 L70.9773644,6.32461239 L67.613472,6.32461239 L67.613472,4.9504414 L70.6073649,4.9504414 L70.6073649,3.24271994 L67.613472,3.24271994 L67.613472,1.92517166 L70.9343966,1.92517166 L70.9343966,0.115148676 L65.6699002,0.115148676 L65.6699002,8.13463537 Z M74.7341722,8.13463537 L76.6686728,8.13463537 L76.6686728,3.92980544 L79.311663,8.13463537 L81.0590156,8.13463537 L81.0590156,0.115148676 L79.1264246,0.115148676 L79.1264246,4.14773142 L76.5813052,0.115148676 L74.7341722,0.115148676 L74.7341722,8.13463537 Z M85.0220684,8.13463537 L90.330487,8.13463537 L90.330487,6.32461239 L86.9675495,6.32461239 L86.9675495,4.9504414 L89.9595328,4.9504414 L89.9595328,3.24271994 L86.9675495,3.24271994 L86.9675495,1.92517166 L90.2865645,1.92517166 L90.2865645,0.115148676 L85.0220684,0.115148676 L85.0220684,8.13463537 Z M97.103149,8.27357511 C98.9689014,8.27357511 100.226422,7.25341494 100.226422,4.92665036 L100.226422,0.115148676 L98.2379735,0.115148676 L98.2379735,5.018008 C98.2379735,5.96869831 97.8001805,6.40502613 97.1117426,6.40502613 C96.4357177,6.40502613 95.9878991,5.94585889 95.9878991,4.98327307 L95.9878991,0.115148676 L94.0113856,0.115148676 L94.0113856,4.96138531 C94.0113856,7.24151941 95.2340548,8.27357511 97.103149,8.27357511 L97.103149,8.27357511 Z M104.125501,8.13463537 L106.079576,8.13463537 L106.079576,5.64942243 L106.77804,5.64942243 L108.078051,8.13463537 L110.295183,8.13463537 L108.722566,5.22546593 C109.530359,4.80103362 110.087029,4.05637381 110.087029,2.86396644 L110.087029,2.80734375 C110.087029,1.99464152 109.847364,1.37512262 109.42103,0.928802542 C108.930243,0.401592903 108.154438,0.115148676 107.127033,0.115148676 L104.125501,0.115148676 L104.125501,8.13463537 Z M106.079576,4.00974334 L106.079576,1.91422778 L107.04062,1.91422778 C107.695161,1.91422778 108.111947,2.25824634 108.111947,2.9443802 L108.111947,2.96817125 C108.111947,3.61052957 107.718077,4.00974334 107.050646,4.00974334 L106.079576,4.00974334 Z M116.367472,8.24978406 C118.00645,8.24978406 119.152733,7.28719821 119.152733,5.72983617 L119.152733,5.70604512 C119.152733,4.34281804 118.246592,3.72329911 116.793329,3.23177606 C115.821305,2.85397419 115.580686,2.67078313 115.580686,2.31486904 L115.580686,2.30297352 C115.580686,2.00558541 115.831331,1.7762397 116.280104,1.7762397 C116.902659,1.7762397 117.536193,2.08552333 118.060399,2.509004 L119.054862,0.975432996 C118.257573,0.29833975 117.35,0 116.324504,0 C114.652584,0 113.594624,1.02016017 113.594624,2.47522071 L113.594624,2.509004 C113.594624,3.96549199 114.609139,4.51458941 116.051421,5.02990351 C116.945626,5.36202655 117.175265,5.55616151 117.175265,5.87876812 L117.175265,5.88828455 C117.175265,6.23325475 116.902659,6.47449601 116.378453,6.47449601 C115.636544,6.47449601 114.926145,6.10763801 114.302636,5.56805705 L113.254225,7.07022386 C114.15034,7.88292607 115.231693,8.24978406 116.367472,8.24978406 L116.367472,8.24978406 Z" id="Fill-1" fill="#FFFFFF" fill-rule="nonzero" mask="url(#mask-2)"></path>
                    </g>
                    <path d="M49.3220805,10.1053907 L51.8017935,10.1053907 C54.2805516,10.1053907 55.6889368,8.50139818 55.6889368,6.14132616 L55.6889368,6.00333808 C55.6889368,3.64421768 54.2910547,2.08495234 51.833303,2.08495234 L49.3220805,2.08495234 L49.3220805,10.1053907 Z M51.8562192,3.92971026 C52.9475985,3.92971026 53.6804362,4.6068035 53.6804362,6.05092017 L53.6804362,6.15322167 C53.6804362,7.58449117 52.9475985,8.26158442 51.8562192,8.26158442 L51.2885682,8.26158442 L51.2885682,3.92971026 L51.8562192,3.92971026 Z M59.4466996,10.1053907 L64.7541635,10.1053907 L64.7541635,8.29441606 L61.3902711,8.29441606 L61.3902711,6.91929344 L64.3832091,6.91929344 L64.3832091,5.21347526 L61.3902711,5.21347526 L61.3902711,3.89497533 L64.7111957,3.89497533 L64.7111957,2.08495234 L59.4466996,2.08495234 L59.4466996,10.1053907 Z M71.0661165,10.2205394 C72.70414,10.2205394 73.8513773,9.25795353 73.8513773,7.69963983 L73.8513773,7.67680044 C73.8513773,6.31357333 72.9452366,5.69405443 71.4929288,5.20253135 C70.5199495,4.82377788 70.2793302,4.64153843 70.2793302,4.28467271 L70.2793302,4.27372883 C70.2793302,3.97634072 70.5318849,3.74604337 70.9806585,3.74604337 C71.6013028,3.74604337 72.2348374,4.05627865 72.7599982,4.4797593 L73.7525515,2.94428502 C72.956217,2.26909506 72.0500763,1.97075531 71.0231487,1.97075531 C69.3521832,1.97075531 68.2927909,2.99091548 68.2927909,4.44597601 L68.2927909,4.4797593 C68.2927909,5.93577148 69.3077832,6.4853447 70.7495877,7.00065883 C71.6452253,7.33183024 71.8758187,7.52691683 71.8758187,7.84904762 L71.8758187,7.8599915 C71.8758187,8.20401007 71.6013028,8.4452513 71.077097,8.4452513 C70.3342335,8.4452513 69.6247893,8.07839333 69.0012805,7.53881234 L67.9528689,9.04097918 C68.8489838,9.85463304 69.9303373,10.2205394 71.0661165,10.2205394 L71.0661165,10.2205394 Z" id="Fill-4" fill="#FFFFFF" fill-rule="nonzero"></path>
                    <path d="M1.97827997,1.69630177 L3.6263294,1.69630177 L5.20992731,0.515314116 L2.89492391,-1.62092562e-14 L1.97827997,1.69630177 Z M0.0227728731,10.1054858 L5.67922991,10.1054858 L5.67922991,7.99807475 L2.35878269,7.99807475 L2.35878269,7.03548893 L5.38466257,7.03548893 L5.38466257,5.11031727 L2.35878269,5.11031727 L2.35878269,4.19341025 L5.6252816,4.19341025 L5.6252816,2.08552333 L0.0227728731,2.08552333 L0.0227728731,10.1054858 Z M12.3860081,10.2663133 C13.8722126,10.2663133 14.7783534,9.53259741 15.335501,8.67278888 L13.7399677,7.19488894 C13.4893228,7.60742574 13.1388975,7.97428371 12.5282789,7.97428371 C11.8183573,7.97428371 11.2392484,7.37855585 11.2392484,6.10668638 L11.2392484,6.06100758 C11.2392484,4.88001992 11.7734799,4.2172013 12.5163435,4.2172013 C13.106433,4.2172013 13.4554261,4.57168793 13.697,4.97232919 L15.2906237,3.43685491 C14.6800051,2.52089952 13.7729095,1.92517166 12.4738532,1.92517166 C10.4744236,1.92517166 8.83735478,3.51726864 8.83735478,6.0162804 L8.83735478,6.20946371 C8.83735478,8.75320265 10.4744236,10.2663133 12.3860081,10.2663133 L12.3860081,10.2663133 Z M21.7897248,10.2767814 C23.8865478,10.2767814 25.4262232,8.59380261 25.4262232,6.18662432 L25.4262232,5.98059382 C25.4262232,3.57484298 23.9080316,1.91422778 21.7997506,1.91422778 C19.7029275,1.91422778 18.1742328,3.59720657 18.1742328,6.00343323 L18.1742328,6.20946371 C18.1742328,8.61664203 19.6929017,10.2767814 21.7897248,10.2767814 L21.7897248,10.2767814 Z M21.7997506,8.06611715 C21.0358806,8.06611715 20.5541651,7.3685636 20.5541651,6.17710789 L20.5541651,6.00343323 C20.5541651,4.81292915 21.0358806,4.12394037 21.7897248,4.12394037 C22.5545496,4.12394037 23.0348328,4.82387303 23.0348328,6.0162804 L23.0348328,6.18662432 C23.0348328,7.37855585 22.5645753,8.06611715 21.7997506,8.06611715 L21.7997506,8.06611715 Z M28.8445413,10.1054858 L34.1204955,10.1054858 L34.1204955,7.92955653 L31.2029897,7.92955653 L31.2029897,2.08552333 L28.8445413,2.08552333 L28.8445413,10.1054858 Z M37.4395105,10.1054858 L43.0969223,10.1054858 L43.0969223,7.99807475 L39.7759977,7.99807475 L39.7759977,7.03548893 L42.8018777,7.03548893 L42.8018777,5.11031727 L39.7759977,5.11031727 L39.7759977,4.19341025 L43.0415417,4.19341025 L43.0415417,2.08552333 L37.4395105,2.08552333 L37.4395105,10.1054858 Z" id="Fill-6" fill="#FFFFFF" fill-rule="nonzero"></path>
                </g>
                <polygon id="Fill-9" fill="#FFFFFF" fill-rule="nonzero" points="2.0301221e-14 0 2.0301221e-14 65 65.2182621 65 65.2182621 1.7491179 45.4297336 11.9378724 45.4297336 21.897757 30.4473791 21.897757 30.4473791 27.0152116 44.3011157 27.0152116 44.3011157 37.7778061 30.4473791 37.7778061 30.4473791 43.14697 45.4297336 43.14697 45.4297336 54.9834927 19.7875738 54.9834927 19.7875738 10.017459 44.034716 10.017459 63.4847548 0"></polygon>
                <g id="Group-18" transform="translate(78.645091, 42.667580)" fill="#FFFFFF" fill-rule="nonzero">
                    <path d="M1.99942961,1.9269322 L1.99942961,6.11225349 L2.57710627,6.11225349 C3.68805964,6.11225349 4.43283287,5.45942712 4.43283287,4.07478808 L4.43283287,3.9753415 C4.43283287,2.5802344 3.68805964,1.9269322 2.57710627,1.9269322 L1.99942961,1.9269322 Z M0,0.14450683 L2.55514501,0.14450683 C5.05490946,0.14450683 6.47713984,1.65000439 6.47713984,3.93109015 L6.47713984,4.0638442 C6.47713984,6.34492995 5.04392881,7.89515469 2.5217257,7.89515469 L0,7.89515469 L0,0.14450683 Z" id="Fill-10"></path>
                    <path d="M10.091295,4.82810784 L10.091295,0.144601994 L12.1021827,0.144601994 L12.1021827,4.8499956 C12.1021827,5.78022561 12.5581176,6.22321494 13.2465554,6.22321494 C13.9464512,6.22321494 14.3909281,5.8025892 14.3909281,4.88330307 L14.3909281,0.144601994 L16.4127964,0.144601994 L16.4127964,4.79480037 C16.4127964,7.04257865 15.1357013,8.02752806 13.2355748,8.02752806 C11.3354482,8.02752806 10.091295,7.03163477 10.091295,4.82810784" id="Fill-12"></path>
                    <path d="M26.9357734,6.13475983 L26.0028972,5.25972505 L27.0799539,4.196741 L27.7693465,4.86098707 C27.8132691,4.63973032 27.8466884,4.3851661 27.8466884,4.1082383 L27.8466884,3.97548425 C27.8466884,2.62462849 27.2026505,1.80526478 26.2688195,1.80526478 C25.3474013,1.80526478 24.7138667,2.62462849 24.7138667,3.96406454 L24.7138667,4.09729442 C24.7138667,5.47003792 25.358382,6.27845776 26.3027162,6.27845776 C26.536174,6.27845776 26.7467156,6.23420641 26.9357734,6.13475983 L26.9357734,6.13475983 Z M28.9576419,8.1056103 L28.2801845,7.42994452 C27.7134885,7.81773861 27.0245733,8.03899536 26.2688195,8.03899536 C24.18059,8.03899536 22.6695597,6.42263152 22.6695597,4.1082383 L22.6695597,3.94217678 C22.6695597,1.62825937 24.1915706,0 26.2802775,0 C28.3804424,0 29.8800148,1.60589579 29.8800148,3.9312329 L29.8800148,4.09729442 C29.8800148,4.94948977 29.6575376,5.71413409 29.2908799,6.33412882 L30.0351757,7.04262625 L28.9576419,8.1056103 Z" id="Fill-14"></path>
                    <path d="M33.5166085,4.82810784 L33.5166085,0.144601994 L35.5279736,0.144601994 L35.5279736,4.8499956 C35.5279736,5.78022561 35.9834311,6.22321494 36.671869,6.22321494 C37.3717647,6.22321494 37.8162418,5.8025892 37.8162418,4.88330307 L37.8162418,0.144601994 L39.83811,0.144601994 L39.83811,4.79480037 C39.83811,7.04257865 38.5610149,8.02752806 36.6608882,8.02752806 C34.7607619,8.02752806 33.5166085,7.03163477 33.5166085,4.82810784" id="Fill-16"></path>
                </g>
                <path d="M125.331104,40.708007 L127.175373,41.2728064 L125.686781,42.3581541 L124.242112,42.3581541 L125.331104,40.708007 Z M122.320502,42.8120872 L127.67523,42.8120872 L127.67523,44.5612053 L124.297493,44.5612053 L124.297493,45.8345022 L127.341992,45.8345022 L127.341992,47.4846492 L124.297493,47.4846492 L124.297493,48.8131416 L127.71963,48.8131416 L127.71963,50.5627353 L122.320502,50.5627353 L122.320502,42.8120872 Z" id="Fill-19" fill="#FFFFFF" fill-rule="nonzero"></path>
                <path d="M134.523658,47.384727 L133.357324,47.384727 L133.357324,48.9021201 L134.534639,48.9021201 C135.156716,48.9021201 135.523373,48.6251921 135.523373,48.1488953 L135.523373,48.1374756 C135.523373,47.6835425 135.179154,47.384727 134.523658,47.384727 L134.523658,47.384727 Z M135.279412,45.1926195 C135.279412,44.7272667 134.946174,44.4727024 134.345581,44.4727024 L133.357324,44.4727024 L133.357324,45.9230047 L134.312639,45.9230047 C134.923735,45.9230047 135.279412,45.6793845 135.279412,45.2030876 L135.279412,45.1926195 Z M131.413276,42.8120872 L134.634897,42.8120872 C135.56825,42.8120872 136.290585,43.0333441 136.746043,43.4986969 C137.067823,43.8084564 137.256881,44.229558 137.256881,44.7824619 L137.256881,44.8271892 C137.256881,45.7131678 136.746043,46.2446598 136.101527,46.5325315 C136.934623,46.842291 137.523758,47.3514193 137.523758,48.3701522 L137.523758,48.4144036 C137.523758,49.7433715 136.478688,50.5627353 134.645878,50.5627353 L131.413276,50.5627353 L131.413276,42.8120872 Z" id="Fill-20" fill="#FFFFFF" fill-rule="nonzero"></path>
                <polygon id="Fill-22" fill="#FFFFFF" fill-rule="nonzero" points="141.105353 42.8120872 146.460081 42.8120872 146.460081 44.5612053 143.082344 44.5612053 143.082344 45.8345022 146.126843 45.8345022 146.126843 47.4846492 143.082344 47.4846492 143.082344 48.8131416 146.504481 48.8131416 146.504481 50.5627353 141.105353 50.5627353"></polygon>
                <path d="M149.897926,46.7647796 L149.897926,46.63155 C149.897926,44.2400736 151.464337,42.678905 153.508644,42.678905 C154.730835,42.678905 155.563931,43.1552019 156.196988,43.8970067 L154.908435,45.2588065 C154.57472,44.8600685 154.152681,44.5279453 153.542063,44.5279453 C152.63067,44.5279453 151.953213,45.336365 151.953213,46.6539133 L151.953213,46.6986407 C151.953213,48.0823279 152.642129,48.8460205 153.542063,48.8460205 C154.209017,48.8460205 154.608616,48.4920099 154.963816,48.0823279 L156.230408,49.3670447 C155.59735,50.142157 154.730835,50.6950608 153.430824,50.6950608 C151.442375,50.6950608 149.897926,49.1786196 149.897926,46.7647796" id="Fill-23" fill="#FFFFFF" fill-rule="nonzero"></path>
            </g>
        </g>
    </g>
</svg>