<?xml version="1.0" encoding="UTF-8"?>
<svg width="109px" height="83px" viewBox="0 0 109 83" version="1.1" xmlns="http://www.w3.org/2000/svg" xmlns:xlink="http://www.w3.org/1999/xlink">
    <title>logo 2</title>
    <defs>
        <linearGradient x1="38.7132551%" y1="52.2428463%" x2="63.3782534%" y2="47.8021566%" id="linearGradient-1">
            <stop stop-color="#005A88" offset="0%"></stop>
            <stop stop-color="#009CB4" offset="100%"></stop>
        </linearGradient>
        <linearGradient x1="38.7132551%" y1="52.2428463%" x2="63.3782534%" y2="47.8021566%" id="linearGradient-2">
            <stop stop-color="#FFFFFF" offset="0%"></stop>
            <stop stop-color="#FFFFFF" offset="100%"></stop>
        </linearGradient>
        <linearGradient x1="0.00506073901%" y1="50.0024019%" x2="99.9980305%" y2="50.0024019%" id="linearGradient-3">
            <stop stop-color="#009CB4" offset="0%"></stop>
            <stop stop-color="#005A88" offset="100%"></stop>
        </linearGradient>
        <linearGradient x1="0.00506073901%" y1="50.0024019%" x2="99.9980305%" y2="50.0024019%" id="linearGradient-4">
            <stop stop-color="#FFFFFF" offset="0%"></stop>
            <stop stop-color="#FFFFFF" offset="100%"></stop>
        </linearGradient>
    </defs>
    <g id="Page-1" stroke="none" stroke-width="1" fill="none" fill-rule="evenodd">
        <g id="thumbnail-copy-2" transform="translate(-40.000000, -252.000000)" fill-rule="nonzero">
            <g id="logo" transform="translate(40.000000, 252.000000)">
                <path d="M19.6178499,36.8145161 C21.1520288,36.8145161 22.3026629,37.2761402 23.3382336,38.1993882 C23.4724743,38.310178 23.4724743,38.4948276 23.3574109,38.6240823 L22.1492451,39.8243048 C22.0341816,39.9350946 21.8807638,39.9350946 21.7657003,39.8243048 C21.1903833,39.3257508 20.4424711,39.0672414 19.6945589,39.0672414 C17.9494305,39.0672414 16.6645557,40.4705784 16.6645557,42.1324249 C16.6645557,43.7758065 17.9686077,45.1422136 19.6945589,45.1422136 C20.4232939,45.1422136 21.2095605,44.8837041 21.7657003,44.4220801 C21.8807638,44.3297553 22.0725361,44.3297553 22.1684223,44.440545 L23.3765881,45.6776974 C23.4916515,45.7884872 23.4724743,45.9731368 23.3574109,46.0839266 C22.3026629,47.0625695 20.9794337,47.5241935 19.6178499,47.5241935 C16.530315,47.5241935 14.0564516,45.1606785 14.0564516,42.1878198 C14.0564516,39.2149611 16.5494922,36.8145161 19.6178499,36.8145161 Z M25.2176028,37.2576752 C25.2176028,37.1099555 25.3326661,36.9807008 25.5052613,36.9807008 L29.225645,36.9807008 C31.1241914,36.9807008 32.6775474,38.4578977 32.6775474,40.2674639 C32.6775474,42.11396 31.1241914,43.6096218 29.2448222,43.6096218 L27.6339345,43.6096218 L27.6339345,47.0810345 C27.6339345,47.2287542 27.4996938,47.3580089 27.3462759,47.3580089 L25.5244385,47.3580089 C25.3518434,47.3580089 25.23678,47.2287542 25.23678,47.0810345 L25.23678,37.2576752 L25.2176028,37.2576752 Z M29.0914043,41.4307564 C29.7626076,41.4307564 30.2995702,40.9322024 30.2995702,40.2674639 C30.2995702,39.6396552 29.7434303,39.1780312 29.0914043,39.1780312 L27.6339345,39.1780312 L27.6339345,41.4492213 L29.0914043,41.4492213 L29.0914043,41.4307564 Z M34.2309035,37.0914905 C34.2309035,36.9437708 34.3651442,36.8329811 34.518562,36.8329811 L34.9021068,36.8329811 L41.0579994,42.538654 L41.0771766,42.538654 L41.0771766,37.2761402 C41.0771766,37.1284205 41.19224,36.9991658 41.3648352,36.9991658 L43.2058497,36.9991658 C43.3592677,36.9991658 43.4935083,37.1284205 43.4935083,37.2761402 L43.4935083,47.2656841 C43.4935083,47.4134038 43.3592677,47.5241935 43.2058497,47.5241935 L42.9565457,47.5241935 C42.9181912,47.5241935 42.7839506,47.4872636 42.7647733,47.4503337 L36.6855897,41.5415462 L36.6664124,41.5415462 L36.6664124,47.0810345 C36.6664124,47.2287542 36.551349,47.3580089 36.3787539,47.3580089 L34.5377392,47.3580089 C34.3843214,47.3580089 34.2500807,47.2287542 34.2500807,47.0810345 L34.2309035,37.0914905 Z M45.5454725,45.9546718 L46.2742075,44.7175195 C46.3892709,44.5328699 46.6961066,44.5513348 46.7919929,44.6251946 C46.8495246,44.6621246 47.9618042,45.4376529 48.9781977,45.4376529 C49.5918692,45.4376529 50.0329457,45.0683537 50.0329457,44.5513348 C50.0329457,43.9235262 49.495983,43.4619021 48.4412351,43.0556729 C47.1180058,42.557119 45.4495863,41.5600111 45.4495863,39.7689099 C45.4495863,38.291713 46.6385749,36.8145161 49.0165522,36.8145161 C50.62744,36.8145161 51.854783,37.6085095 52.3150367,37.9224138 C52.5068091,38.0332036 52.4684546,38.291713 52.4109229,38.4025028 L51.6246562,39.5473304 C51.5095928,39.713515 51.2411115,39.8427697 51.1068709,39.73198 C50.9726302,39.6581202 49.8411733,38.8456619 48.9014887,38.8456619 C48.3453489,38.8456619 47.9234497,39.1964961 47.9234497,39.6027252 C47.9234497,40.156674 48.3837034,40.5629032 49.6110465,41.0429922 C50.8192123,41.5046163 52.7177586,42.4093993 52.7177586,44.4220801 C52.7177586,45.9546718 51.3369977,47.4872636 49.0740839,47.4872636 C47.0796514,47.4872636 45.9673717,46.6932703 45.6030042,46.3424361 C45.4687635,46.2131813 45.4304091,46.1577864 45.5454725,45.9546718 Z M53.9834562,45.9546718 L54.7121911,44.7175195 C54.8272546,44.5328699 55.1340903,44.5513348 55.2299765,44.6251946 C55.2875082,44.6621246 56.3997879,45.4376529 57.4161813,45.4376529 C58.0298529,45.4376529 58.4709293,45.0683537 58.4709293,44.5513348 C58.4709293,43.9235262 57.9339667,43.4619021 56.8792188,43.0556729 C55.5559895,42.557119 53.88757,41.5600111 53.88757,39.7689099 C53.88757,38.291713 55.0765586,36.8145161 57.4545358,36.8145161 C59.0654236,36.8145161 60.2927667,37.6085095 60.7530204,37.9224138 C60.9447927,38.0332036 60.9064382,38.291713 60.8489065,38.4025028 L60.0626399,39.5473304 C59.9475765,39.713515 59.6790951,39.8427697 59.5448545,39.73198 C59.4106138,39.6581202 58.279157,38.8456619 57.3394724,38.8456619 C56.7833326,38.8456619 56.3614334,39.1964961 56.3614334,39.6027252 C56.3614334,40.156674 56.8216871,40.5629032 58.0490302,41.0429922 C59.257196,41.5046163 61.1557423,42.4093993 61.1557423,44.4220801 C61.1557423,45.9546718 59.7749814,47.4872636 57.5120676,47.4872636 C55.5176351,47.4872636 54.4053554,46.6932703 54.0409879,46.3424361 C53.9067472,46.2131813 53.8683928,46.1577864 53.9834562,45.9546718 Z M62.4406171,45.9546718 L63.169352,44.7175195 C63.2844155,44.5328699 63.5912512,44.5513348 63.6871374,44.6251946 C63.7446692,44.6621246 64.8569488,45.4376529 65.8733423,45.4376529 C66.4870138,45.4376529 66.9280902,45.0683537 66.9280902,44.5513348 C66.9280902,43.9235262 66.3911276,43.4619021 65.3363797,43.0556729 C64.0131504,42.557119 62.3447309,41.5600111 62.3447309,39.7689099 C62.3447309,38.291713 63.5337195,36.8145161 65.9116967,36.8145161 C67.5225844,36.8145161 68.7499275,37.6085095 69.2101812,37.9224138 C69.4019534,38.0332036 69.3635993,38.291713 69.3060676,38.4025028 L68.5198006,39.5473304 C68.4047372,39.713515 68.1362563,39.8427697 68.0020151,39.73198 C67.8677747,39.6581202 66.7363179,38.8456619 65.7966333,38.8456619 C65.2404935,38.8456619 64.8185943,39.1964961 64.8185943,39.6027252 C64.8185943,40.156674 65.278848,40.5629032 66.5061911,41.0429922 C67.7143572,41.5046163 69.6129032,42.4093993 69.6129032,44.4220801 C69.6129032,45.9546718 68.232142,47.4872636 65.9692285,47.4872636 C63.974796,47.4872636 62.8625163,46.6932703 62.4981488,46.3424361 C62.3639081,46.2131813 62.3063765,46.1577864 62.4406171,45.9546718 Z" id="Shape" fill="url(#linearGradient-2)"></path>
                <g id="Group" transform="translate(34.175296, 50.870968)" fill="#FFFFFF">
                    <path d="M2.82677668,0.409050179 L2.82677668,0.94825269 C2.67397794,0.85528674 2.52117921,0.799507165 2.38748031,0.762320789 C2.25378141,0.725134406 2.10098267,0.706541222 1.8908844,0.706541222 C1.5279874,0.706541222 1.22238992,0.836693548 0.974091963,1.07840502 C0.72579401,1.32011649 0.611194958,1.63620071 0.611194958,2.0452509 C0.611194958,2.45430108 0.72579401,2.7889785 0.974091963,3.03068997 C1.22238992,3.27240143 1.54708724,3.40255376 1.94818393,3.40255376 C2.31108094,3.40255376 2.59757857,3.30958781 2.84587652,3.1422491 L2.84587652,3.7000448 C2.61667842,3.84879032 2.31108094,3.92316308 1.90998425,3.92316308 C1.35608881,3.92316308 0.897692592,3.75582437 0.553895431,3.42114695 C0.210098267,3.08646953 0.0190998425,2.64023297 0.0190998425,2.08243728 C0.0190998425,1.54323477 0.190998424,1.09699821 0.553895431,0.762320789 C0.897692592,0.427643369 1.35608881,0.241711469 1.8908844,0.241711469 C2.27288125,0.20452509 2.59757857,0.27889785 2.82677668,0.409050179 Z" id="Path"></path>
                    <path d="M4.58396219,3.90456989 C4.1828655,3.90456989 3.85816817,3.77441756 3.60987022,3.5141129 C3.38067211,3.25380824 3.26607306,2.91913082 3.26607306,2.52867384 C3.26607306,2.11962366 3.38067211,1.78494624 3.62897006,1.52464158 C3.87726802,1.26433692 4.1828655,1.1155914 4.58396219,1.1155914 C5.00415872,1.1155914 5.32885604,1.24574373 5.55805415,1.50604839 C5.78725226,1.76635305 5.90185131,2.10103047 5.90185131,2.51008065 C5.90185131,2.91913082 5.78725226,3.25380824 5.53895431,3.5141129 C5.32885604,3.77441756 5.00415872,3.90456989 4.58396219,3.90456989 Z M4.58396219,1.56182795 C4.35476408,1.56182795 4.16376565,1.65479391 4.03006675,1.84072581 C3.89636786,2.02665771 3.83906833,2.24977598 3.83906833,2.52867384 C3.83906833,2.7889785 3.9154677,3.01209677 4.0491666,3.19802868 C4.1828655,3.38396058 4.37386392,3.47692652 4.60306203,3.47692652 C4.85135998,3.47692652 5.0423584,3.38396058 5.1760573,3.21662187 C5.3097562,3.03068997 5.36705573,2.80757168 5.36705573,2.54726703 C5.36705573,2.26836918 5.3097562,2.02665771 5.1760573,1.859319 C5.0423584,1.65479391 4.85135998,1.56182795 4.58396219,1.56182795 Z" id="Shape"></path>
                    <path d="M7.02874201,1.15277778 L7.02874201,1.58042115 C7.18154079,1.26433692 7.44893854,1.1155914 7.81183556,1.1155914 C8.2320321,1.1155914 8.49942992,1.28293011 8.61402895,1.63620071 C8.69042831,1.468862 8.80502735,1.33870968 8.95782613,1.24574373 C9.11062485,1.15277778 9.26342357,1.1155914 9.45442203,1.1155914 C9.74091962,1.1155914 9.95101792,1.18996416 10.1038166,1.35730287 C10.2566154,1.52464158 10.3330148,1.74775986 10.3330148,2.02665771 L10.3330148,3.84879032 L9.79821921,3.84879032 L9.79821921,2.13821684 C9.79821921,1.74775986 9.64542042,1.56182795 9.32072308,1.56182795 C9.16792437,1.56182795 9.01512565,1.63620071 8.88142671,1.76635305 C8.74772783,1.89650537 8.69042831,2.10103047 8.69042831,2.37992832 L8.69042831,3.84879032 L8.15563274,3.84879032 L8.15563274,2.13821684 C8.15563274,1.74775986 7.98373412,1.56182795 7.65903684,1.56182795 C7.50623806,1.56182795 7.35343935,1.63620071 7.23884031,1.76635305 C7.10514137,1.89650537 7.04784185,2.10103047 7.04784185,2.37992832 L7.04784185,3.84879032 L6.51304627,3.84879032 L6.51304627,1.13418458 L7.02874201,1.13418458 L7.02874201,1.15277778 Z" id="Path"></path>
                    <path d="M11.1061667,0.557795699 C11.0204525,0.502016129 10.9633095,0.409050179 10.9633095,0.334677419 C10.9633095,0.241711469 11.0204525,0.16733871 11.1061667,0.0929659499 C11.191881,0.03718638 11.3347381,4.5193016e-14 11.4490238,4.5193016e-14 C11.591881,4.5193016e-14 11.7061667,0.03718638 11.8204524,0.0929659499 C11.9061666,0.14874552 11.9633095,0.241711469 11.9633095,0.334677419 C11.9633095,0.427643369 11.9061666,0.502016129 11.8204524,0.557795699 C11.7347381,0.613575269 11.591881,0.650761649 11.4490238,0.650761649 C11.3347381,0.650761649 11.2204524,0.613575269 11.1061667,0.557795699 Z M11.0775953,3.84879032 L11.0775953,1.13418458 L11.8775952,1.13418458 L11.8775952,3.84879032 L11.0775953,3.84879032 Z" id="Shape"></path>
                    <path d="M13.0260926,1.56182795 L13.0260926,3.04928316 C13.0260926,3.30958781 13.1597914,3.43974014 13.4080894,3.43974014 C13.5608881,3.43974014 13.6754872,3.40255376 13.7900863,3.328181 L13.7900863,3.79301075 C13.6754872,3.84879032 13.5226884,3.88597671 13.3507899,3.88597671 C12.7777946,3.88597671 12.491297,3.60707885 12.491297,3.03068997 L12.491297,1.54323477 L12.0520006,1.54323477 L12.0520006,1.13418458 L12.491297,1.13418458 L12.491297,0.464829749 L13.0260926,0.464829749 L13.0260926,1.13418458 L13.7518866,1.13418458 L13.7518866,1.54323477 L13.0260926,1.54323477 L13.0260926,1.56182795 Z" id="Path"></path>
                    <path d="M16.4258645,3.23521505 L16.4258645,3.7000448 C16.2157662,3.81160394 15.9483685,3.86738351 15.6236711,3.86738351 C15.1843748,3.86738351 14.8405776,3.73723118 14.5922796,3.49551971 C14.3439817,3.23521505 14.2102828,2.91913082 14.2102828,2.51008065 C14.2102828,2.08243728 14.3248818,1.72916666 14.5540799,1.4874552 C14.7832781,1.24574373 15.0888756,1.1155914 15.4517725,1.1155914 C15.8146695,1.1155914 16.0820673,1.22715054 16.2921656,1.43167563 C16.5022639,1.65479391 16.5977631,1.95228495 16.5977631,2.36133513 C16.5977631,2.47289426 16.5786632,2.5844534 16.5595634,2.71460574 L14.7259785,2.71460574 C14.7641782,2.95631721 14.8596774,3.12365592 15.031576,3.25380824 C15.2034746,3.38396058 15.4135728,3.43974014 15.6618708,3.43974014 C15.9865681,3.43974014 16.2348661,3.38396058 16.4258645,3.23521505 Z M16.0820673,2.30555555 L16.0820673,2.21258961 C16.0820673,2.00806452 16.0247678,1.84072581 15.9101687,1.72916666 C15.7955697,1.61760753 15.6618708,1.54323477 15.4517725,1.54323477 C15.2607741,1.54323477 15.1079754,1.59901434 14.9742765,1.72916666 C14.8405776,1.859319 14.7641782,2.0452509 14.7259785,2.28696237 L16.0820673,2.28696237 L16.0820673,2.30555555 Z M16.4258645,0.01859319 L15.7764698,0.873879931 L15.3180736,0.873879931 L15.8337694,0.01859319 L16.4258645,0.01859319 Z" id="Shape"></path>
                    <path d="M19.0616428,1.15277778 L19.0616428,1.56182795 C19.2526412,1.26433692 19.5391388,1.1155914 19.9211357,1.1155914 C20.2840326,1.1155914 20.5705303,1.24574373 20.7806286,1.50604839 C20.9907268,1.76635305 21.1053259,2.10103047 21.1053259,2.49148745 C21.1053259,2.90053763 20.9907268,3.23521505 20.7806286,3.49551971 C20.5705303,3.75582437 20.2649328,3.88597671 19.9211357,3.88597671 C19.5582387,3.88597671 19.271741,3.73723118 19.0807426,3.43974014 L19.0807426,4.89000896 L18.545947,4.89000896 L18.545947,1.15277778 L19.0616428,1.15277778 L19.0616428,1.15277778 Z M19.8065366,3.43974014 C20.0166349,3.43974014 20.2076333,3.36536739 20.3413322,3.19802868 C20.4750311,3.03068997 20.5514305,2.80757168 20.5514305,2.51008065 C20.5514305,2.23118279 20.4750311,2.00806452 20.3413322,1.84072581 C20.2076333,1.6733871 20.0357347,1.59901434 19.8256364,1.59901434 C19.6155382,1.59901434 19.4436396,1.6733871 19.2908409,1.82213262 C19.1380421,1.97087813 19.0616428,2.21258961 19.0616428,2.52867384 C19.0616428,2.84475806 19.1380421,3.06787634 19.2908409,3.23521505 C19.4436396,3.36536739 19.6155382,3.43974014 19.8065366,3.43974014 Z" id="Shape"></path>
                    <path d="M21.7356207,1.80353942 L21.7356207,1.30152329 C21.9457189,1.17137097 22.2322166,1.1155914 22.5951136,1.1155914 C23.3209076,1.1155914 23.6838046,1.45026882 23.6838046,2.13821684 L23.6838046,3.84879032 L23.149009,3.84879032 L23.149009,3.53270609 C23.0153102,3.75582437 22.7479123,3.86738351 22.4041152,3.86738351 C22.1367174,3.86738351 21.9266191,3.79301075 21.7738204,3.64426523 C21.6210217,3.49551971 21.5446222,3.30958781 21.5446222,3.08646953 C21.5446222,2.82616487 21.6401215,2.62163979 21.8502197,2.47289426 C22.060318,2.32414874 22.3277158,2.24977598 22.6906128,2.24977598 L23.149009,2.24977598 L23.149009,2.10103047 C23.149009,1.91509857 23.1108094,1.78494624 23.0153102,1.6733871 C22.919811,1.58042115 22.7670122,1.52464158 22.5569139,1.52464158 C22.2513164,1.56182795 21.9839186,1.63620071 21.7356207,1.80353942 Z M23.1299092,2.65882616 L22.7097127,2.65882616 C22.4996144,2.65882616 22.3468156,2.69601255 22.2513164,2.77038531 C22.1558172,2.84475806 22.0985177,2.95631721 22.0985177,3.06787634 C22.0985177,3.19802868 22.1367174,3.29099463 22.2131168,3.36536739 C22.2895161,3.43974014 22.4041152,3.47692652 22.5569139,3.47692652 C22.7288125,3.47692652 22.8625114,3.42114695 22.9771105,3.328181 C23.0726097,3.23521505 23.1299092,3.10506272 23.1299092,2.95631721 L23.1299092,2.65882616 Z" id="Shape"></path>
                    <path d="M25.0780931,1.56182795 L25.0780931,3.04928316 C25.0780931,3.30958781 25.211792,3.43974014 25.46009,3.43974014 C25.6128887,3.43974014 25.7274878,3.40255376 25.8420868,3.328181 L25.8420868,3.79301075 C25.7274878,3.84879032 25.5746891,3.88597671 25.4027904,3.88597671 C24.8297952,3.88597671 24.5432975,3.60707885 24.5432975,3.03068997 L24.5432975,1.54323477 L24.1040011,1.54323477 L24.1040011,1.13418458 L24.5432975,1.13418458 L24.5432975,0.464829749 L25.0780931,0.464829749 L25.0780931,1.13418458 L25.8038871,1.13418458 L25.8038871,1.54323477 L25.0780931,1.54323477 L25.0780931,1.56182795 Z" id="Path"></path>
                    <path d="M26.9498777,1.15277778 L26.9498777,1.63620071 C27.0835766,1.30152329 27.3318746,1.13418458 27.6756717,1.13418458 C27.7329713,1.13418458 27.7902708,1.13418458 27.8475703,1.15277778 L27.8475703,1.6733871 C27.7711709,1.63620071 27.6756717,1.61760753 27.5992723,1.61760753 C27.4082739,1.61760753 27.2554751,1.69198029 27.1408761,1.859319 C27.0262771,2.02665771 26.9689775,2.21258961 26.9689775,2.43570789 L26.9689775,3.86738351 L26.434182,3.86738351 L26.434182,1.15277778 L26.9498777,1.15277778 L26.9498777,1.15277778 Z" id="Path"></path>
                    <path d="M29.3946575,3.90456989 C28.9935608,3.90456989 28.6688635,3.77441756 28.4205655,3.5141129 C28.1913675,3.25380824 28.0767684,2.91913082 28.0767684,2.52867384 C28.0767684,2.11962366 28.1913675,1.78494624 28.4396654,1.52464158 C28.6879634,1.26433692 28.9935608,1.1155914 29.3946575,1.1155914 C29.814854,1.1155914 30.1395514,1.24574373 30.3687495,1.50604839 C30.5979476,1.76635305 30.7125466,2.10103047 30.7125466,2.51008065 C30.7125466,2.91913082 30.5979476,3.25380824 30.3496497,3.5141129 C30.1395514,3.77441756 29.814854,3.90456989 29.3946575,3.90456989 Z M29.3946575,1.56182795 C29.1654594,1.56182795 28.974461,1.65479391 28.8407621,1.84072581 C28.7070632,2.02665771 28.6497637,2.24977598 28.6497637,2.52867384 C28.6497637,2.7889785 28.726163,3.01209677 28.8598619,3.19802868 C28.9935608,3.38396058 29.1845593,3.47692652 29.4137573,3.47692652 C29.6620553,3.47692652 29.8530537,3.38396058 29.9867527,3.21662187 C30.1204515,3.03068997 30.177751,2.80757168 30.177751,2.54726703 C30.177751,2.26836918 30.1204515,2.02665771 29.9867527,1.859319 C29.8530537,1.65479391 29.6620553,1.56182795 29.3946575,1.56182795 Z" id="Shape"></path>
                    <path d="M31.8394374,1.15277778 L31.8394374,1.61760753 C32.0113359,1.28293011 32.2978336,1.1155914 32.6989303,1.1155914 C32.9663281,1.1155914 33.1955262,1.18996416 33.3483249,1.35730287 C33.5011237,1.52464158 33.5966229,1.74775986 33.5966229,2.02665771 L33.5966229,3.84879032 L33.0618273,3.84879032 L33.0618273,2.13821684 C33.0618273,1.95228495 33.0045278,1.80353942 32.9090285,1.71057348 C32.8135293,1.61760753 32.6798304,1.56182795 32.5270317,1.56182795 C32.3360332,1.56182795 32.1832345,1.63620071 32.0304357,1.78494624 C31.8967369,1.93369176 31.8203375,2.13821684 31.8203375,2.3985215 L31.8203375,3.86738351 L31.2855419,3.86738351 L31.2855419,1.15277778 L31.8394374,1.15277778 Z" id="Path"></path>
                    <path d="M34.3606166,1.80353942 L34.3606166,1.30152329 C34.5707148,1.17137097 34.8572125,1.1155914 35.2201095,1.1155914 C35.9459035,1.1155914 36.3088005,1.45026882 36.3088005,2.13821684 L36.3088005,3.84879032 L35.7740049,3.84879032 L35.7740049,3.53270609 C35.640306,3.75582437 35.3729082,3.86738351 35.029111,3.86738351 C34.7617133,3.86738351 34.551615,3.79301075 34.3988163,3.64426523 C34.2460175,3.49551971 34.1696181,3.30958781 34.1696181,3.08646953 C34.1696181,2.82616487 34.2651173,2.62163979 34.4752156,2.47289426 C34.6853138,2.32414874 34.9527117,2.24977598 35.3156087,2.24977598 L35.7740049,2.24977598 L35.7740049,2.10103047 C35.7740049,1.91509857 35.7358052,1.78494624 35.640306,1.6733871 C35.5448068,1.58042115 35.392008,1.52464158 35.1819098,1.52464158 C34.8763123,1.56182795 34.6089145,1.63620071 34.3606166,1.80353942 Z M35.7549051,2.65882616 L35.3347085,2.65882616 C35.1246102,2.65882616 34.9718115,2.69601255 34.8763123,2.77038531 C34.7808131,2.84475806 34.7235136,2.95631721 34.7235136,3.06787634 C34.7235136,3.19802868 34.7617133,3.29099463 34.8381126,3.36536739 C34.914512,3.43974014 35.029111,3.47692652 35.1819098,3.47692652 C35.3538084,3.47692652 35.4875072,3.42114695 35.6021063,3.328181 C35.6976055,3.23521505 35.7549051,3.10506272 35.7549051,2.95631721 L35.7549051,2.65882616 Z" id="Shape"></path>
                    <polygon id="Path" points="37.0154947 3.84879032 37.0154947 0.0743727598 37.5502902 0.0743727598 37.5502902 3.84879032"></polygon>
                    <path d="M41.5230575,0.0929659499 L42.057853,0.0929659499 L42.057853,3.86738351 L41.5230575,3.86738351 L41.5230575,3.45833334 C41.3320591,3.75582437 41.0455614,3.90456989 40.6826644,3.90456989 C40.3197674,3.90456989 40.0332698,3.77441756 39.8231715,3.49551971 C39.6130732,3.23521505 39.4984741,2.90053763 39.4984741,2.52867384 C39.4984741,2.10103047 39.6130732,1.76635305 39.8422713,1.50604839 C40.0714695,1.24574373 40.357967,1.1155914 40.7017642,1.1155914 C41.0646612,1.1155914 41.3511589,1.26433692 41.5421573,1.56182795 L41.5421573,0.0929659499 L41.5230575,0.0929659499 Z M40.7590637,3.43974014 C40.969162,3.43974014 41.1410606,3.36536739 41.2938594,3.19802868 C41.4466581,3.04928316 41.5039576,2.80757168 41.5039576,2.49148745 C41.5039576,2.17540323 41.4275583,1.95228495 41.2747595,1.80353942 C41.1219608,1.65479391 40.9500622,1.58042115 40.7590637,1.58042115 C40.5489655,1.58042115 40.357967,1.65479391 40.2242682,1.82213262 C40.0905693,1.98947132 40.0141699,2.23118279 40.0141699,2.52867384 C40.0141699,2.80757168 40.0905693,3.01209677 40.2242682,3.17943548 C40.3770669,3.34677419 40.5489655,3.43974014 40.7590637,3.43974014 Z" id="Shape"></path>
                    <path d="M44.8655299,3.23521505 L44.8655299,3.7000448 C44.6554316,3.81160394 44.3880339,3.86738351 44.0633365,3.86738351 C43.6240401,3.86738351 43.280243,3.73723118 43.0319451,3.49551971 C42.7836471,3.23521505 42.6499482,2.91913082 42.6499482,2.51008065 C42.6499482,2.08243728 42.7645472,1.72916666 42.9937453,1.4874552 C43.2229434,1.24574373 43.5285409,1.1155914 43.891438,1.1155914 C44.2543349,1.1155914 44.5217327,1.22715054 44.731831,1.43167563 C44.9419293,1.65479391 45.0374285,1.95228495 45.0374285,2.36133513 C45.0374285,2.47289426 45.0183286,2.5844534 44.9992288,2.71460574 L43.1656439,2.71460574 C43.2038436,2.95631721 43.2993428,3.12365592 43.4712414,3.25380824 C43.64314,3.38396058 43.8532382,3.43974014 44.1015362,3.43974014 C44.4262335,3.43974014 44.6554316,3.38396058 44.8655299,3.23521505 Z M44.5217327,2.30555555 L44.5217327,2.21258961 C44.5217327,2.00806452 44.4644332,1.84072581 44.3498342,1.72916666 C44.2352351,1.61760753 44.1015362,1.54323477 43.891438,1.54323477 C43.7004395,1.54323477 43.5476408,1.59901434 43.4139418,1.72916666 C43.280243,1.859319 43.2038436,2.0452509 43.1656439,2.28696237 L44.5217327,2.28696237 L44.5217327,2.30555555 Z" id="Shape"></path>
                    <path d="M47.5013082,1.15277778 L47.5013082,1.61760753 C47.6732067,1.28293011 47.9597044,1.1155914 48.3608011,1.1155914 C48.6281988,1.1155914 48.857397,1.18996416 49.0101957,1.35730287 C49.1629945,1.52464158 49.2584937,1.74775986 49.2584937,2.02665771 L49.2584937,3.84879032 L48.7236981,3.84879032 L48.7236981,2.13821684 C48.7236981,1.95228495 48.6663985,1.80353942 48.5708993,1.71057348 C48.4754001,1.61760753 48.3417012,1.56182795 48.1889025,1.56182795 C47.9979041,1.56182795 47.8451053,1.63620071 47.6923066,1.78494624 C47.5586077,1.93369176 47.4822083,2.13821684 47.4822083,2.3985215 L47.4822083,3.86738351 L46.9474128,3.86738351 L46.9474128,1.15277778 L47.5013082,1.15277778 Z" id="Path"></path>
                    <path d="M52.0279708,3.23521505 L52.0279708,3.7000448 C51.8178726,3.81160394 51.5504747,3.86738351 51.2257774,3.86738351 C50.786481,3.86738351 50.4426839,3.73723118 50.1943859,3.49551971 C49.946088,3.23521505 49.8123891,2.91913082 49.8123891,2.51008065 C49.8123891,2.08243728 49.9269881,1.72916666 50.1561863,1.4874552 C50.3853843,1.24574373 50.6909818,1.1155914 51.0538789,1.1155914 C51.4167759,1.1155914 51.6841736,1.22715054 51.8942719,1.43167563 C52.1043702,1.65479391 52.1998694,1.95228495 52.1998694,2.36133513 C52.1998694,2.47289426 52.1807695,2.5844534 52.1616697,2.71460574 L50.3280848,2.71460574 C50.3662845,2.95631721 50.4617838,3.12365592 50.6336823,3.25380824 C50.8055809,3.38396058 51.0156792,3.43974014 51.2639771,3.43974014 C51.5886744,3.43974014 51.8369724,3.38396058 52.0279708,3.23521505 Z M51.6841736,2.30555555 L51.6841736,2.21258961 C51.6841736,2.00806452 51.6268741,1.84072581 51.5122751,1.72916666 C51.397676,1.61760753 51.2639771,1.54323477 51.0538789,1.54323477 C50.8628804,1.54323477 50.7100817,1.59901434 50.5763828,1.72916666 C50.4426839,1.859319 50.3662845,2.0452509 50.3280848,2.28696237 L51.6841736,2.28696237 L51.6841736,2.30555555 Z M52.0279708,0.01859319 L51.3785762,0.873879931 L50.92018,0.873879931 L51.4358757,0.01859319 L52.0279708,0.01859319 Z" id="Shape"></path>
                    <path d="M54.6064495,1.15277778 L55.1412451,1.15277778 L55.1412451,3.62567205 C55.1412451,4.03472222 55.0266461,4.35080645 54.7783481,4.57392473 C54.5300502,4.77844982 54.2244527,4.89000896 53.8424558,4.89000896 C53.4795588,4.89000896 53.1739614,4.83422939 52.9447632,4.72267025 L52.9447632,4.20206093 C53.1739614,4.35080645 53.460459,4.42517921 53.7851563,4.42517921 C54.3390517,4.42517921 54.6064495,4.16487455 54.6064495,3.64426523 L54.6064495,3.34677419 C54.434551,3.64426523 54.1671532,3.79301075 53.8042561,3.79301075 C53.4986586,3.79301075 53.2121611,3.68145161 53.0020628,3.45833334 C52.7728647,3.23521505 52.6582656,2.91913082 52.6582656,2.49148745 C52.6582656,2.10103047 52.7537648,1.76635305 52.9638631,1.50604839 C53.1739614,1.24574373 53.4413591,1.1155914 53.7851563,1.1155914 C54.1480533,1.1155914 54.4154511,1.26433692 54.5873497,1.58042115 L54.5873497,1.15277778 L54.6064495,1.15277778 Z M53.8997553,3.328181 C54.0907538,3.328181 54.2626524,3.25380824 54.3963513,3.10506272 C54.5300502,2.95631721 54.6064495,2.75179211 54.6064495,2.49148745 C54.6064495,2.17540323 54.54915,1.93369176 54.4154511,1.78494624 C54.2817522,1.63620071 54.1289535,1.56182795 53.9379551,1.56182795 C53.7278568,1.56182795 53.5559582,1.63620071 53.4222593,1.80353942 C53.2885604,1.97087813 53.2312609,2.19399642 53.2312609,2.45430108 C53.2312609,2.73319892 53.2885604,2.95631721 53.4222593,3.08646953 C53.5559582,3.25380824 53.7087569,3.328181 53.8997553,3.328181 Z" id="Shape"></path>
                    <path d="M57.0130297,3.90456989 C56.611933,3.90456989 56.2872357,3.77441756 56.0389377,3.5141129 C55.8097396,3.25380824 55.6951406,2.91913082 55.6951406,2.52867384 C55.6951406,2.11962366 55.8097396,1.78494624 56.0580375,1.52464158 C56.3063355,1.26433692 56.611933,1.1155914 57.0130297,1.1155914 C57.4332262,1.1155914 57.7579235,1.24574373 57.9871217,1.50604839 C58.2163197,1.76635305 58.3309188,2.10103047 58.3309188,2.51008065 C58.3309188,2.91913082 58.2163197,3.25380824 57.9680218,3.5141129 C57.7388237,3.77441756 57.4141263,3.90456989 57.0130297,3.90456989 Z M56.9939298,1.56182795 C56.7647317,1.56182795 56.5737333,1.65479391 56.4400344,1.84072581 C56.3063355,2.02665771 56.249036,2.24977598 56.249036,2.52867384 C56.249036,2.7889785 56.3254354,3.01209677 56.4591342,3.19802868 C56.5928332,3.38396058 56.7838316,3.47692652 57.0130297,3.47692652 C57.2613276,3.47692652 57.4523261,3.38396058 57.586025,3.21662187 C57.7197238,3.03068997 57.7770234,2.80757168 57.7770234,2.54726703 C57.7770234,2.26836918 57.7197238,2.02665771 57.586025,1.859319 C57.4523261,1.65479391 57.2613276,1.56182795 56.9939298,1.56182795 Z" id="Shape"></path>
                    <path d="M59.3050108,2.51008065 C59.3050108,2.7889785 59.40051,3.01209677 59.5533087,3.17943548 C59.7252073,3.34677419 59.9544054,3.43974014 60.2409031,3.43974014 C60.4510013,3.43974014 60.6610996,3.38396058 60.852098,3.27240143 L60.852098,3.73723118 C60.6801994,3.84879032 60.4510013,3.90456989 60.1645037,3.90456989 C59.7252073,3.90456989 59.3814102,3.77441756 59.1140123,3.49551971 C58.8466146,3.23521505 58.7320155,2.90053763 58.7320155,2.49148745 C58.7320155,2.10103047 58.8657144,1.76635305 59.1331122,1.4874552 C59.40051,1.20855735 59.7443072,1.07840502 60.2027034,1.07840502 C60.4510013,1.07840502 60.6610996,1.13418458 60.8711978,1.22715054 L60.8711978,1.71057348 C60.6992993,1.59901434 60.489201,1.54323477 60.2600029,1.54323477 C59.9735052,1.54323477 59.7443072,1.63620071 59.5724085,1.80353942 C59.40051,2.00806452 59.3050108,2.24977598 59.3050108,2.51008065 Z" id="Path"></path>
                    <path d="M61.5679505,0.557795699 C61.4822361,0.502016129 61.4250933,0.409050179 61.4250933,0.334677419 C61.4250933,0.241711469 61.4822361,0.16733871 61.5679505,0.0929659499 C61.6536647,0.03718638 61.7965218,4.5193016e-14 61.9108076,4.5193016e-14 C62.0536647,4.5193016e-14 62.1679504,0.03718638 62.2822362,0.0929659499 C62.3679505,0.14874552 62.4250933,0.241711469 62.4250933,0.334677419 C62.4250933,0.427643369 62.3679505,0.502016129 62.2822362,0.557795699 C62.1965219,0.613575269 62.0536647,0.650761649 61.9108076,0.650761649 C61.7679504,0.650761649 61.6536647,0.613575269 61.5679505,0.557795699 Z M61.5108076,3.84879032 L61.5108076,1.13418458 L62.3108076,1.13418458 L62.3108076,3.84879032 L61.5108076,3.84879032 Z" id="Shape"></path>
                    <path d="M62.8384816,1.80353942 L62.8384816,1.30152329 C63.0485799,1.17137097 63.3350775,1.1155914 63.6979746,1.1155914 C64.4237685,1.1155914 64.7866655,1.45026882 64.7866655,2.13821684 L64.7866655,3.84879032 L64.25187,3.84879032 L64.25187,3.53270609 C64.1181711,3.75582437 63.8507733,3.86738351 63.5069761,3.86738351 C63.2395783,3.86738351 63.02948,3.79301075 62.8766813,3.64426523 C62.7238826,3.49551971 62.6474832,3.30958781 62.6474832,3.08646953 C62.6474832,2.82616487 62.7429824,2.62163979 62.9530807,2.47289426 C63.163179,2.32414874 63.4305767,2.24977598 63.7934738,2.24977598 L64.25187,2.24977598 L64.25187,2.10103047 C64.25187,1.91509857 64.2136703,1.78494624 64.1181711,1.6733871 C64.0226719,1.58042115 63.8698731,1.52464158 63.6597749,1.52464158 C63.3541774,1.56182795 63.0867796,1.63620071 62.8384816,1.80353942 Z M64.2327701,2.65882616 L63.8125736,2.65882616 C63.6024754,2.65882616 63.4496766,2.69601255 63.3541774,2.77038531 C63.2586782,2.84475806 63.2013787,2.95631721 63.2013787,3.06787634 C63.2013787,3.19802868 63.2395783,3.29099463 63.3159777,3.36536739 C63.3923771,3.43974014 63.5069761,3.47692652 63.6597749,3.47692652 C63.8316734,3.47692652 63.9653723,3.42114695 64.0799714,3.328181 C64.1754706,3.23521505 64.2327701,3.10506272 64.2327701,2.95631721 L64.2327701,2.65882616 Z" id="Shape"></path>
                    <path d="M66.1809541,1.56182795 L66.1809541,3.04928316 C66.1809541,3.30958781 66.314653,3.43974014 66.5629509,3.43974014 C66.7157497,3.43974014 66.8303487,3.40255376 66.9449476,3.328181 L66.9449476,3.79301075 C66.8303487,3.84879032 66.67755,3.88597671 66.5056514,3.88597671 C65.9326561,3.88597671 65.6461585,3.60707885 65.6461585,3.03068997 L65.6461585,1.54323477 L65.2068621,1.54323477 L65.2068621,1.13418458 L65.6461585,1.13418458 L65.6461585,0.464829749 L66.1809541,0.464829749 L66.1809541,1.13418458 L66.9067482,1.13418458 L66.9067482,1.54323477 L66.1809541,1.54323477 L66.1809541,1.56182795 Z" id="Path"></path>
                    <path d="M67.6035004,0.557795699 C67.5177861,0.502016129 67.4606433,0.409050179 67.4606433,0.334677419 C67.4606433,0.241711469 67.5177861,0.16733871 67.6035004,0.0929659499 C67.6892146,0.03718638 67.8320724,4.5193016e-14 67.9463581,4.5193016e-14 C68.0606437,4.5193016e-14 68.2035007,0.03718638 68.3177863,0.0929659499 C68.4035005,0.14874552 68.4606433,0.241711469 68.4606433,0.334677419 C68.4606433,0.427643369 68.4035005,0.502016129 68.3177863,0.557795699 C68.2320721,0.613575269 68.0892151,0.650761649 67.9463581,0.650761649 C67.803501,0.650761649 67.6892146,0.613575269 67.6035004,0.557795699 Z M67.574929,3.84879032 L67.574929,1.13418458 L68.3749291,1.13418458 L68.3749291,3.84879032 L67.574929,3.84879032 Z" id="Shape"></path>
                    <path d="M69.9818226,3.90456989 C69.5807257,3.90456989 69.2560284,3.77441756 69.0077305,3.5141129 C68.7785327,3.25380824 68.6639338,2.91913082 68.6639338,2.52867384 C68.6639338,2.11962366 68.7785327,1.78494624 69.0268306,1.52464158 C69.2751284,1.26433692 69.5807257,1.1155914 69.9818226,1.1155914 C70.4020194,1.1155914 70.7267168,1.24574373 70.9559146,1.50604839 C71.185113,1.76635305 71.299712,2.10103047 71.299712,2.51008065 C71.299712,2.91913082 71.185113,3.25380824 70.9368145,3.5141129 C70.7267168,3.77441756 70.4020194,3.90456989 69.9818226,3.90456989 Z M69.9818226,1.56182795 C69.7526248,1.56182795 69.5616264,1.65479391 69.4279274,1.84072581 C69.2942285,2.02665771 69.236929,2.24977598 69.236929,2.52867384 C69.236929,2.7889785 69.3133285,3.01209677 69.4470268,3.19802868 C69.5807257,3.38396058 69.7717241,3.47692652 70.0009226,3.47692652 C70.2492204,3.47692652 70.4402188,3.38396058 70.5739178,3.21662187 C70.7076167,3.03068997 70.7649162,2.80757168 70.7649162,2.54726703 C70.7649162,2.26836918 70.7076167,2.02665771 70.5739178,1.859319 C70.4402188,1.65479391 70.2492204,1.56182795 69.9818226,1.56182795 Z" id="Shape"></path>
                    <path d="M72.4266023,1.15277778 L72.4266023,1.61760753 C72.5985013,1.28293011 72.8849986,1.1155914 73.2860954,1.1155914 C73.5534933,1.1155914 73.7826911,1.18996416 73.9354901,1.35730287 C74.0882891,1.52464158 74.1837879,1.74775986 74.1837879,2.02665771 L74.1837879,3.84879032 L73.6489921,3.84879032 L73.6489921,2.13821684 C73.6489921,1.95228495 73.5916927,1.80353942 73.4961938,1.71057348 C73.4006943,1.61760753 73.2669954,1.56182795 73.114197,1.56182795 C72.9231986,1.56182795 72.7703997,1.63620071 72.6176007,1.78494624 C72.4839017,1.93369176 72.4075029,2.13821684 72.4075029,2.3985215 L72.4075029,3.86738351 L71.8727071,3.86738351 L71.8727071,1.15277778 L72.4266023,1.15277778 Z" id="Path"></path>
                    <path d="M2.0245833,6.48902329 L2.55937888,6.48902329 L2.55937888,10.2634408 L2.0245833,10.2634408 L2.0245833,9.85439067 C1.83358488,10.1518817 1.54708724,10.3006272 1.18419023,10.3006272 C0.821293227,10.3006272 0.534795588,10.1704749 0.324697322,9.89157708 C0.114599055,9.63127241 0,9.29659499 0,8.92473116 C0,8.49708778 0.114599055,8.16241036 0.343797164,7.90210576 C0.572995273,7.6418011 0.859492913,7.51164873 1.20329007,7.51164873 C1.56618708,7.51164873 1.85268472,7.66039424 2.04368314,7.95788531 L2.04368314,6.48902329 L2.0245833,6.48902329 Z M1.2605896,9.83579746 C1.47068787,9.83579746 1.64258645,9.76142471 1.79538519,9.594086 C1.94818393,9.44534049 2.00548346,9.20362903 2.00548346,8.88754482 C2.00548346,8.5714606 1.92908409,8.34834228 1.77628535,8.19959677 C1.62348661,8.05085127 1.45158802,7.97647852 1.2605896,7.97647852 C1.05049133,7.97647852 0.859492913,8.05085127 0.72579401,8.21818998 C0.592095116,8.38552869 0.515695746,8.62724015 0.515695746,8.92473116 C0.515695746,9.20362903 0.592095116,9.40815415 0.72579401,9.57549286 C0.878592752,9.76142471 1.05049133,9.83579746 1.2605896,9.83579746 Z" id="Shape"></path>
                    <path d="M5.02325856,7.54883514 L5.55805415,7.54883514 L5.55805415,10.2634408 L5.02325856,10.2634408 L5.02325856,9.79861112 C4.87045982,10.1332885 4.58396219,10.3006272 4.16376565,10.3006272 C3.89636786,10.3006272 3.66716975,10.2262545 3.51437101,10.0589158 C3.36157227,9.89157708 3.26607306,9.68705196 3.26607306,9.40815415 L3.26607306,7.56742835 L3.80086865,7.56742835 L3.80086865,9.27800178 C3.80086865,9.4639337 3.83906833,9.6126792 3.93456754,9.70564516 C4.03006675,9.79861112 4.16376565,9.85439067 4.31656439,9.85439067 C4.52666266,9.85439067 4.69856124,9.78001791 4.8131603,9.64986561 C4.94685919,9.50112004 5.00415872,9.31518819 5.00415872,9.05488353 L5.00415872,7.54883514 L5.02325856,7.54883514 Z" id="Path"></path>
                    <path d="M9.18702421,7.6418011 L9.18702421,8.12522402 C9.01512565,8.01366486 8.78592751,7.97647852 8.49942992,7.97647852 C8.36573097,7.97647852 8.27023178,8.01366486 8.19383242,8.06944447 C8.11743306,8.12522402 8.07923338,8.19959677 8.07923338,8.29256273 C8.07923338,8.31115594 8.07923338,8.34834228 8.07923338,8.36693548 C8.07923338,8.38552869 8.09833322,8.40412189 8.11743306,8.44130824 C8.1365329,8.45990144 8.1365329,8.47849465 8.15563274,8.49708778 C8.17473258,8.51568099 8.19383242,8.53427419 8.21293226,8.5528674 C8.25113194,8.5714606 8.27023178,8.59005374 8.28933162,8.59005374 C8.30843146,8.60864695 8.32753129,8.60864695 8.36573097,8.62724015 C8.40393065,8.64583336 8.42303049,8.66442649 8.44213033,8.66442649 C8.46123017,8.66442649 8.49942992,8.6830197 8.5376296,8.7016129 C8.57582928,8.72020611 8.61402895,8.73879931 8.63312879,8.73879931 C8.84322703,8.8317652 9.01512565,8.94332437 9.14882453,9.05488353 C9.26342357,9.16644262 9.33982292,9.31518819 9.33982292,9.51971325 C9.33982292,9.76142471 9.24432373,9.94735662 9.07242517,10.0961021 C8.90052655,10.2262545 8.65222863,10.3006272 8.36573097,10.3006272 C8.04103364,10.3006272 7.75453604,10.2448477 7.54443774,10.1332885 L7.54443774,9.63127241 C7.79273572,9.78001791 8.06013354,9.85439067 8.34663113,9.85439067 C8.48033001,9.85439067 8.59492912,9.81720432 8.67132847,9.76142471 C8.74772783,9.70564516 8.78592751,9.63127241 8.78592751,9.53830645 C8.78592751,9.4639337 8.74772783,9.38956095 8.69042831,9.33378133 C8.63312879,9.27800178 8.55672944,9.22222224 8.49942992,9.20362903 C8.44213033,9.16644262 8.32753129,9.12925628 8.17473258,9.05488353 C7.7354362,8.88754482 7.5253379,8.62724015 7.5253379,8.29256273 C7.5253379,8.05085127 7.62083717,7.86491935 7.79273572,7.73476705 C7.98373412,7.60461469 8.21293226,7.53024194 8.48033001,7.53024194 C8.78592751,7.53024194 9.01512565,7.56742835 9.18702421,7.6418011 Z" id="Path"></path>
                    <path d="M11.9374015,9.64986561 L11.9374015,10.1146953 C11.7273033,10.2262545 11.4599054,10.282034 11.1352082,10.282034 C10.6959118,10.282034 10.3521146,10.1518817 10.1038166,9.91017028 C9.85551872,9.64986561 9.72181978,9.33378133 9.72181978,8.92473116 C9.72181978,8.49708778 9.83641888,8.14381723 10.065617,7.90210576 C10.2948151,7.66039424 10.6004125,7.53024194 10.9633095,7.53024194 C11.3262066,7.53024194 11.5936044,7.6418011 11.8037026,7.84632615 C12.0138009,8.06944447 12.1093001,8.36693548 12.1093001,8.77598566 C12.1093001,8.88754482 12.0902003,8.99910391 12.0711004,9.12925628 L10.2375156,9.12925628 C10.2757153,9.37096774 10.3712145,9.53830645 10.543113,9.66845875 C10.7150116,9.79861112 10.9251099,9.85439067 11.1734079,9.85439067 C11.4981051,9.85439067 11.7464031,9.78001791 11.9374015,9.64986561 Z M11.5936044,8.72020611 L11.5936044,8.62724015 C11.5936044,8.42271503 11.5363048,8.25537632 11.4217058,8.14381723 C11.3071067,8.03225806 11.1734079,7.95788531 10.9633095,7.95788531 C10.7723112,7.95788531 10.6195124,8.01366486 10.4858135,8.14381723 C10.3521146,8.27396953 10.2757153,8.45990144 10.2375156,8.7016129 L11.5936044,8.7016129 L11.5936044,8.72020611 Z" id="Shape"></path>
                    <path d="M13.1215917,8.92473116 C13.1215917,9.20362903 13.2170909,9.42674729 13.3698897,9.594086 C13.5417883,9.76142471 13.7709864,9.85439067 14.057484,9.85439067 C14.2675823,9.85439067 14.4776806,9.79861112 14.668679,9.68705196 L14.668679,10.1518817 C14.4967804,10.2634408 14.2675823,10.3192205 13.9810847,10.3192205 C13.5417883,10.3192205 13.1979911,10.1890681 12.9305934,9.91017028 C12.6631955,9.64986561 12.5485965,9.31518819 12.5485965,8.90613802 C12.5485965,8.51568099 12.6822954,8.18100357 12.9496932,7.90210576 C13.2170909,7.62320789 13.5608881,7.49305553 14.0192843,7.49305553 C14.2675823,7.49305553 14.4776806,7.54883514 14.6877789,7.6418011 L14.6877789,8.12522402 C14.5158802,8.01366486 14.305782,7.95788531 14.0765839,7.95788531 C13.7900863,7.95788531 13.5608881,8.05085127 13.3889896,8.21818998 C13.2170909,8.42271503 13.1215917,8.64583336 13.1215917,8.92473116 Z" id="Path"></path>
                    <path d="M15.9674683,7.95788531 L15.9674683,9.44534049 C15.9674683,9.70564516 16.1011672,9.83579746 16.3494651,9.83579746 C16.5022639,9.83579746 16.6168629,9.79861112 16.731462,9.72423837 L16.731462,10.1890681 C16.6168629,10.2448477 16.4640642,10.282034 16.2921656,10.282034 C15.7191703,10.282034 15.4326727,10.0031362 15.4326727,9.42674729 L15.4326727,7.93929211 L14.9933763,7.93929211 L14.9933763,7.53024194 L15.4326727,7.53024194 L15.4326727,6.8608871 L15.9674683,6.8608871 L15.9674683,7.53024194 L16.6932623,7.53024194 L16.6932623,7.93929211 L15.9674683,7.93929211 L15.9674683,7.95788531 Z" id="Path"></path>
                    <path d="M19.3672402,9.64986561 L19.3672402,10.1146953 C19.157142,10.2262545 18.8897442,10.282034 18.5650469,10.282034 C18.1257505,10.282034 17.7819533,10.1518817 17.5336553,9.91017028 C17.2853574,9.64986561 17.1516585,9.33378133 17.1516585,8.92473116 C17.1516585,8.49708778 17.2662576,8.14381723 17.4954557,7.90210576 C17.7246538,7.66039424 18.0302512,7.53024194 18.3931483,7.53024194 C18.7560453,7.53024194 19.0234431,7.6418011 19.2335413,7.84632615 C19.4436396,8.06944447 19.5391388,8.36693548 19.5391388,8.77598566 C19.5391388,8.88754482 19.520039,8.99910391 19.5009392,9.12925628 L17.6673543,9.12925628 C17.705554,9.37096774 17.8010532,9.53830645 17.9729517,9.66845875 C18.1448503,9.79861112 18.3549486,9.85439067 18.6032466,9.85439067 C18.9279438,9.85439067 19.1762418,9.78001791 19.3672402,9.64986561 Z M19.0234431,8.72020611 L19.0234431,8.62724015 C19.0234431,8.42271503 18.9661435,8.25537632 18.8515445,8.14381723 C18.7369454,8.03225806 18.6032466,7.95788531 18.3931483,7.95788531 C18.2021499,7.95788531 18.0493511,8.01366486 17.9156522,8.14381723 C17.7819533,8.27396953 17.705554,8.45990144 17.6673543,8.7016129 L19.0234431,8.7016129 L19.0234431,8.72020611 Z" id="Shape"></path>
                    <path d="M21.8693196,7.54883514 L22.4041152,7.54883514 L22.4041152,10.2634408 L21.8693196,10.2634408 L21.8693196,9.79861112 C21.7165209,10.1332885 21.4300232,10.3006272 21.0098267,10.3006272 C20.7424289,10.3006272 20.5132308,10.2262545 20.3604321,10.0589158 C20.2076333,9.89157708 20.1121341,9.68705196 20.1121341,9.40815415 L20.1121341,7.56742835 L20.6469297,7.56742835 L20.6469297,9.27800178 C20.6469297,9.4639337 20.6851293,9.6126792 20.7806286,9.70564516 C20.8761278,9.79861112 21.0098267,9.85439067 21.1626255,9.85439067 C21.3727237,9.85439067 21.5446222,9.78001791 21.6592214,9.64986561 C21.7929202,9.50112004 21.8502197,9.31518819 21.8502197,9.05488353 L21.8502197,7.54883514 L21.8693196,7.54883514 Z" id="Path"></path>
                    <path d="M23.6838046,7.54883514 L23.6838046,8.03225806 C23.8175036,7.69758065 24.0658015,7.53024194 24.4095986,7.53024194 C24.4668982,7.53024194 24.5241977,7.53024194 24.5814972,7.54883514 L24.5814972,8.06944447 C24.5050978,8.03225806 24.4095986,8.01366486 24.3331993,8.01366486 C24.1422008,8.01366486 23.9894021,8.08803761 23.8748031,8.25537632 C23.760204,8.42271503 23.7029044,8.60864695 23.7029044,8.8317652 L23.7029044,10.2634408 L23.1681089,10.2634408 L23.1681089,7.54883514 L23.6838046,7.54883514 L23.6838046,7.54883514 Z" id="Path"></path>
                    <path d="M28.1722676,6.48902329 L28.7070632,6.48902329 L28.7070632,10.2634408 L28.1722676,10.2634408 L28.1722676,9.85439067 C27.9812692,10.1518817 27.6947715,10.3006272 27.3318746,10.3006272 C26.9689775,10.3006272 26.6824799,10.1704749 26.4723816,9.89157708 C26.2622833,9.63127241 26.1476843,9.29659499 26.1476843,8.92473116 C26.1476843,8.49708778 26.2622833,8.16241036 26.4914815,7.90210576 C26.7206796,7.6418011 27.0071772,7.51164873 27.3509744,7.51164873 C27.7138713,7.51164873 28.000369,7.66039424 28.1913675,7.95788531 L28.1913675,6.48902329 L28.1722676,6.48902329 Z M27.4273738,9.83579746 C27.637472,9.83579746 27.8093706,9.76142471 27.9621693,9.594086 C28.114968,9.44534049 28.1722676,9.20362903 28.1722676,8.88754482 C28.1722676,8.5714606 28.0958682,8.34834228 27.9430695,8.19959677 C27.7902708,8.05085127 27.6183722,7.97647852 27.4273738,7.97647852 C27.2172755,7.97647852 27.0262771,8.05085127 26.8925782,8.21818998 C26.7588792,8.38552869 26.6824799,8.62724015 26.6824799,8.92473116 C26.6824799,9.20362903 26.7588792,9.40815415 26.8925782,9.57549286 C27.0453769,9.76142471 27.2172755,9.83579746 27.4273738,9.83579746 Z" id="Shape"></path>
                    <path d="M31.51474,9.64986561 L31.51474,10.1146953 C31.3046418,10.2262545 31.037244,10.282034 30.7125466,10.282034 C30.2732502,10.282034 29.9294531,10.1518817 29.6811552,9.91017028 C29.4328572,9.64986561 29.2991583,9.33378133 29.2991583,8.92473116 C29.2991583,8.49708778 29.4137573,8.14381723 29.6429555,7.90210576 C29.8721535,7.66039424 30.177751,7.53024194 30.5406481,7.53024194 C30.9035451,7.53024194 31.1709428,7.6418011 31.3810411,7.84632615 C31.5911394,8.06944447 31.6866386,8.36693548 31.6866386,8.77598566 C31.6866386,8.88754482 31.6675388,8.99910391 31.648439,9.12925628 L29.814854,9.12925628 C29.8530537,9.37096774 29.948553,9.53830645 30.1204515,9.66845875 C30.2923501,9.79861112 30.5024484,9.85439067 30.7507463,9.85439067 C31.0754436,9.85439067 31.3237416,9.78001791 31.51474,9.64986561 Z M31.1709428,8.72020611 L31.1709428,8.62724015 C31.1709428,8.42271503 31.1136433,8.25537632 30.9990443,8.14381723 C30.8844452,8.03225806 30.7507463,7.95788531 30.5406481,7.95788531 C30.3496497,7.95788531 30.1968509,8.01366486 30.063152,8.14381723 C29.9294531,8.27396953 29.8530537,8.45990144 29.814854,8.7016129 L31.1709428,8.7016129 L31.1709428,8.72020611 Z" id="Shape"></path>
                    <polygon id="Path" points="33.6348225 10.2634408 33.6348225 6.48902329 34.1696181 6.48902329 34.1696181 10.2634408"></polygon>
                    <path d="M34.9909113,8.19959677 L34.9909113,7.69758065 C35.2010096,7.56742835 35.4875072,7.51164873 35.8504043,7.51164873 C36.5761983,7.51164873 36.9390953,7.84632615 36.9390953,8.53427419 L36.9390953,10.2448477 L36.4042997,10.2448477 L36.4042997,9.92876342 C36.2706008,10.1518817 36.003203,10.2634408 35.6594059,10.2634408 C35.392008,10.2634408 35.1819098,10.1890681 35.029111,10.0403226 C34.8763123,9.89157708 34.7999129,9.70564516 34.7999129,9.4825269 C34.7999129,9.22222224 34.8954121,9.01769712 35.1055104,8.86895161 C35.3156087,8.72020611 35.5830065,8.64583336 35.9459035,8.64583336 L36.4042997,8.64583336 L36.4042997,8.49708778 C36.4042997,8.31115594 36.3661,8.18100357 36.2706008,8.06944447 C36.1751016,7.97647852 36.0223029,7.9206989 35.8122046,7.9206989 C35.5066071,7.95788531 35.2392093,8.03225806 34.9909113,8.19959677 Z M36.4042997,9.05488353 L35.9841031,9.05488353 C35.7740049,9.05488353 35.6212062,9.09206987 35.5257069,9.16644262 C35.4302077,9.24081544 35.3729082,9.35237454 35.3729082,9.4639337 C35.3729082,9.594086 35.4111079,9.68705196 35.4875072,9.76142471 C35.5639066,9.83579746 35.6785057,9.87298387 35.8313044,9.87298387 C36.003203,9.87298387 36.1369019,9.81720432 36.251501,9.72423837 C36.3470001,9.63127241 36.4042997,9.50112004 36.4042997,9.35237454 L36.4042997,9.05488353 Z" id="Shape"></path>
                    <path d="M40.5489655,7.6418011 L40.5489655,8.12522402 C40.3770669,8.01366486 40.1478688,7.97647852 39.8613712,7.97647852 C39.7276723,7.97647852 39.6321731,8.01366486 39.5557737,8.06944447 C39.4793743,8.12522402 39.4411746,8.19959677 39.4411746,8.29256273 C39.4411746,8.31115594 39.4411746,8.34834228 39.4411746,8.36693548 C39.4411746,8.38552869 39.4602745,8.40412189 39.4793743,8.44130824 C39.4984741,8.45990144 39.4984741,8.47849465 39.517574,8.49708778 C39.5366739,8.51568099 39.5557737,8.53427419 39.5748736,8.5528674 C39.6130732,8.5714606 39.6321731,8.59005374 39.6512729,8.59005374 C39.6703728,8.60864695 39.6894726,8.60864695 39.7276723,8.62724015 C39.765872,8.64583336 39.7849718,8.66442649 39.8040716,8.66442649 C39.8231715,8.66442649 39.8613712,8.6830197 39.8995708,8.7016129 C39.9377705,8.72020611 39.9759703,8.73879931 39.9950701,8.73879931 C40.2051683,8.8317652 40.3770669,8.94332437 40.5107658,9.05488353 C40.6253649,9.16644262 40.7017642,9.31518819 40.7017642,9.51971325 C40.7017642,9.76142471 40.606265,9.94735662 40.4343665,10.0961021 C40.2624679,10.2262545 40.0141699,10.3006272 39.7276723,10.3006272 C39.4029749,10.3006272 39.1164773,10.2448477 38.906379,10.1332885 L38.906379,9.63127241 C39.154677,9.78001791 39.4220748,9.85439067 39.7085724,9.85439067 C39.8422713,9.85439067 39.9568704,9.81720432 40.0332698,9.76142471 C40.1096691,9.70564516 40.1478688,9.63127241 40.1478688,9.53830645 C40.1478688,9.4639337 40.1096691,9.38956095 40.0523696,9.33378133 C39.9950701,9.27800178 39.9186707,9.22222224 39.8613712,9.20362903 C39.8040716,9.16644262 39.6894726,9.12925628 39.5366739,9.05488353 C39.0973775,8.88754482 38.8872792,8.62724015 38.8872792,8.29256273 C38.8872792,8.05085127 38.9827784,7.86491935 39.154677,7.73476705 C39.3456754,7.60461469 39.5748736,7.53024194 39.8422713,7.53024194 C40.1478688,7.53024194 40.3770669,7.56742835 40.5489655,7.6418011 Z" id="Path"></path>
                    <path d="M41.2938594,8.19959677 L41.2938594,7.69758065 C41.5039576,7.56742835 41.7904553,7.51164873 42.1533523,7.51164873 C42.8791463,7.51164873 43.2420433,7.84632615 43.2420433,8.53427419 L43.2420433,10.2448477 L42.7072477,10.2448477 L42.7072477,9.92876342 C42.5735488,10.1518817 42.306151,10.2634408 41.9623538,10.2634408 C41.694956,10.2634408 41.4848578,10.1890681 41.3320591,10.0403226 C41.1792603,9.89157708 41.1028609,9.70564516 41.1028609,9.4825269 C41.1028609,9.22222224 41.1983601,9.01769712 41.4084584,8.86895161 C41.6185567,8.72020611 41.8859545,8.64583336 42.2488515,8.64583336 L42.7072477,8.64583336 L42.7072477,8.49708778 C42.7072477,8.31115594 42.669048,8.18100357 42.5735488,8.06944447 C42.4780496,7.97647852 42.3252509,7.9206989 42.1151526,7.9206989 C41.8095551,7.95788531 41.5421573,8.03225806 41.2938594,8.19959677 Z M42.6881479,9.05488353 L42.2679513,9.05488353 C42.057853,9.05488353 41.9050543,9.09206987 41.8095551,9.16644262 C41.7140559,9.24081544 41.6567563,9.35237454 41.6567563,9.4639337 C41.6567563,9.594086 41.694956,9.68705196 41.7713554,9.76142471 C41.8477548,9.83579746 41.9623538,9.87298387 42.1151526,9.87298387 C42.2870512,9.87298387 42.4207501,9.81720432 42.5353491,9.72423837 C42.6308484,9.63127241 42.6881479,9.50112004 42.6881479,9.35237454 L42.6881479,9.05488353 Z" id="Shape"></path>
                    <path d="M44.4835331,7.54883514 L44.4835331,8.01366486 C44.6554316,7.67898744 44.9419293,7.51164873 45.343026,7.51164873 C45.6104237,7.51164873 45.8396219,7.58602148 45.9924206,7.75336019 C46.1452194,7.9206989 46.2407186,8.14381723 46.2407186,8.42271503 L46.2407186,10.2448477 L45.705923,10.2448477 L45.705923,8.5528674 C45.705923,8.36693548 45.6486235,8.21818998 45.5531242,8.12522402 C45.457625,8.03225806 45.3239261,7.97647852 45.1711273,7.97647852 C44.9801289,7.97647852 44.8273302,8.05085127 44.6745314,8.19959677 C44.5408326,8.34834228 44.4644332,8.5528674 44.4644332,8.81317207 L44.4644332,10.282034 L43.9296376,10.282034 L43.9296376,7.56742835 L44.4835331,7.56742835 L44.4835331,7.54883514 Z" id="Path"></path>
                    <path d="M47.635007,7.95788531 L47.635007,9.44534049 C47.635007,9.70564516 47.7687059,9.83579746 48.0170039,9.83579746 C48.1698026,9.83579746 48.2844017,9.79861112 48.3990008,9.72423837 L48.3990008,10.1890681 C48.2844017,10.2448477 48.1316029,10.282034 47.9597044,10.282034 C47.3867091,10.282034 47.1002115,10.0031362 47.1002115,9.42674729 L47.1002115,7.93929211 L46.6609151,7.93929211 L46.6609151,7.53024194 L47.1002115,7.53024194 L47.1002115,6.8608871 L47.635007,6.8608871 L47.635007,7.53024194 L48.3608011,7.53024194 L48.3608011,7.93929211 L47.635007,7.93929211 L47.635007,7.95788531 Z" id="Path"></path>
                    <path d="M51.034779,9.64986561 L51.034779,10.1146953 C50.8246807,10.2262545 50.557283,10.282034 50.2325856,10.282034 C49.7932892,10.282034 49.4494921,10.1518817 49.2011942,9.91017028 C48.9528962,9.64986561 48.8191973,9.33378133 48.8191973,8.92473116 C48.8191973,8.49708778 48.9337963,8.14381723 49.1629945,7.90210576 C49.3921925,7.66039424 49.69779,7.53024194 50.0606871,7.53024194 C50.423584,7.53024194 50.6909818,7.6418011 50.9010801,7.84632615 C51.1111784,8.06944447 51.2066776,8.36693548 51.2066776,8.77598566 C51.2066776,8.88754482 51.1875777,8.99910391 51.1684779,9.12925628 L49.334893,9.12925628 C49.3730927,9.37096774 49.4685919,9.53830645 49.6404905,9.66845875 C49.8123891,9.79861112 50.0224874,9.85439067 50.2707853,9.85439067 C50.5763828,9.85439067 50.8246807,9.78001791 51.034779,9.64986561 Z M50.6909818,8.72020611 L50.6909818,8.62724015 C50.6909818,8.42271503 50.6336823,8.25537632 50.5190833,8.14381723 C50.4044842,8.03225806 50.2707853,7.95788531 50.0606871,7.95788531 C49.8696886,7.95788531 49.7168899,8.01366486 49.583191,8.14381723 C49.4494921,8.27396953 49.3730927,8.45990144 49.334893,8.7016129 L50.6909818,8.7016129 L50.6909818,8.72020611 Z M51.034779,6.41465054 L50.3853843,7.26993727 L49.9269881,7.26993727 L50.4426839,6.41465054 L51.034779,6.41465054 Z" id="Shape"></path>
                    <path d="M2.21558173,16.0459229 L2.21558173,16.5107527 C2.00548346,16.6223118 1.73808566,16.6780914 1.41338834,16.6780914 C0.974091963,16.6780914 0.630294801,16.5479391 0.381996849,16.3062276 C0.133698897,16.0459229 0,15.7298387 0,15.3207885 C0,14.8931452 0.114599055,14.5398745 0.343797164,14.2981631 C0.572995273,14.0564516 0.878592752,13.9262993 1.24148976,13.9262993 C1.60438677,13.9262993 1.87178456,14.0378584 2.08188283,14.2423835 C2.29198109,14.4655018 2.38748031,14.7629929 2.38748031,15.172043 C2.38748031,15.2836021 2.36838046,15.3951613 2.34928062,15.5253136 L0.534795588,15.5253136 C0.572995273,15.7670251 0.668494484,15.9343638 0.840393067,16.0645161 C1.01229165,16.1946684 1.22238992,16.250448 1.47068787,16.250448 C1.7571855,16.250448 2.00548346,16.1946684 2.21558173,16.0459229 Z M1.87178456,15.1162634 L1.87178456,15.0232975 C1.87178456,14.8187724 1.81448503,14.6514337 1.69988598,14.5398745 C1.58528692,14.4283154 1.45158802,14.3539426 1.24148976,14.3539426 C1.05049133,14.3539426 0.897692592,14.4097222 0.763993695,14.5398745 C0.630294801,14.6700269 0.553895431,14.8559588 0.515695746,15.0976703 L1.87178456,15.0976703 L1.87178456,15.1162634 Z" id="Shape"></path>
                    <path d="M3.68626959,14.3725358 L3.68626959,15.859991 C3.68626959,16.1202957 3.81996849,16.250448 4.06826644,16.250448 C4.22106518,16.250448 4.33566423,16.2132616 4.45026329,16.1388889 L4.45026329,16.6037187 C4.33566423,16.6594982 4.1828655,16.6966846 4.01096692,16.6966846 C3.43797164,16.6966846 3.151474,16.4177868 3.151474,15.8413979 L3.151474,14.3539426 L2.71217763,14.3539426 L2.71217763,13.9448925 L3.151474,13.9448925 L3.151474,13.2755376 L3.68626959,13.2755376 L3.68626959,13.9448925 L4.41206361,13.9448925 L4.41206361,14.3539426 L3.68626959,14.3539426 L3.68626959,14.3725358 Z" id="Path"></path>
                    <path d="M8.21293226,12.8850806 L8.74772783,12.8850806 L8.74772783,16.6594982 L8.21293226,16.6594982 L8.21293226,16.250448 C8.0219338,16.5479391 7.7354362,16.6966846 7.37253919,16.6966846 C7.00964217,16.6966846 6.72314451,16.5665323 6.51304627,16.2876344 C6.30294801,16.0273297 6.18834895,15.6926523 6.18834895,15.3207885 C6.18834895,14.8931452 6.30294801,14.5584677 6.53214611,14.2981631 C6.76134425,14.0378584 7.04784185,13.9077061 7.39163902,13.9077061 C7.75453604,13.9077061 8.04103364,14.0564516 8.2320321,14.3539426 L8.2320321,12.8850806 L8.21293226,12.8850806 Z M7.44893854,16.250448 C7.65903684,16.250448 7.8309354,16.1760753 7.98373412,16.0087366 C8.1365329,15.859991 8.19383242,15.6182795 8.19383242,15.3021953 C8.19383242,14.9861111 8.11743306,14.7629929 7.96463428,14.6142473 C7.81183556,14.4655018 7.63993701,14.391129 7.44893854,14.391129 C7.23884031,14.391129 7.04784185,14.4655018 6.91414297,14.6328405 C6.78044409,14.8001792 6.70404467,15.0418907 6.70404467,15.3393817 C6.70404467,15.6182795 6.78044409,15.8228047 6.91414297,15.9901434 C7.06694169,16.1574821 7.23884031,16.250448 7.44893854,16.250448 Z" id="Shape"></path>
                    <path d="M11.5554047,16.0459229 L11.5554047,16.5107527 C11.3453064,16.6223118 11.0779086,16.6780914 10.7532113,16.6780914 C10.3139149,16.6780914 9.97011776,16.5479391 9.72181978,16.3062276 C9.47352187,16.0459229 9.33982292,15.7298387 9.33982292,15.3207885 C9.33982292,14.8931452 9.45442203,14.5398745 9.6836201,14.2981631 C9.91281824,14.0564516 10.2184157,13.9262993 10.5813127,13.9262993 C10.9442097,13.9262993 11.2116075,14.0378584 11.4217058,14.2423835 C11.6318041,14.4655018 11.7273033,14.7629929 11.7273033,15.172043 C11.7273033,15.2836021 11.7082034,15.3951613 11.6891036,15.5253136 L9.85551872,15.5253136 C9.8937184,15.7670251 9.9892176,15.9343638 10.1611162,16.0645161 C10.3330148,16.1946684 10.543113,16.250448 10.791411,16.250448 C11.1161083,16.250448 11.3644062,16.1946684 11.5554047,16.0459229 Z M11.2116075,15.1162634 L11.2116075,15.0232975 C11.2116075,14.8187724 11.154308,14.6514337 11.0397089,14.5398745 C10.9251099,14.4283154 10.791411,14.3539426 10.5813127,14.3539426 C10.3903143,14.3539426 10.2375156,14.4097222 10.1038166,14.5398745 C9.97011776,14.6700269 9.8937184,14.8559588 9.85551872,15.0976703 L11.2116075,15.0976703 L11.2116075,15.1162634 Z" id="Shape"></path>
                    <path d="M13.9237851,14.0564516 L13.9237851,14.5398745 C13.7518866,14.4283154 13.5226884,14.391129 13.2361908,14.391129 C13.1024919,14.391129 13.0069927,14.4283154 12.9305934,14.484095 C12.8541939,14.5398745 12.8159943,14.6142473 12.8159943,14.7072132 C12.8159943,14.7258065 12.8159943,14.7629929 12.8159943,14.781586 C12.8159943,14.8001792 12.8350941,14.8187724 12.8541939,14.8559588 C12.8732938,14.874552 12.8732938,14.8931452 12.8923937,14.9117384 C12.9114935,14.9303316 12.9305934,14.9489247 12.9496932,14.9675179 C12.9878929,14.9861111 13.0069927,15.0047043 13.0260926,15.0047043 C13.0451924,15.0232975 13.0642922,15.0232975 13.1024919,15.0418907 C13.1406916,15.0604839 13.1597914,15.0790771 13.1788913,15.0790771 C13.1979911,15.0790771 13.2361908,15.0976703 13.2743905,15.1162634 C13.3125902,15.1348566 13.3507899,15.1534498 13.3698897,15.1534498 C13.579988,15.2464158 13.7518866,15.3579749 13.8855855,15.469534 C14.0001845,15.5810932 14.0765839,15.7298387 14.0765839,15.9343638 C14.0765839,16.1760753 13.9810847,16.3620071 13.8091861,16.5107527 C13.6372875,16.640905 13.3889896,16.7152778 13.1024919,16.7152778 C12.7777946,16.7152778 12.491297,16.6594982 12.2811987,16.5479391 L12.2811987,16.0459229 C12.5294967,16.1946684 12.7968944,16.2690412 13.0833921,16.2690412 C13.2170909,16.2690412 13.3316901,16.2318548 13.4080894,16.1760753 C13.4844888,16.1202957 13.5226884,16.0459229 13.5226884,15.952957 C13.5226884,15.8785842 13.4844888,15.8042115 13.4271892,15.7484319 C13.3698897,15.6926523 13.2934904,15.6368728 13.2361908,15.6182795 C13.1788913,15.5810932 13.0642922,15.5439068 12.9114935,15.469534 C12.4721971,15.3021953 12.2620988,15.0418907 12.2620988,14.7072132 C12.2620988,14.4655018 12.357598,14.2795699 12.5294967,14.1494176 C12.7204951,14.0192652 12.9496932,13.9448925 13.2170909,13.9448925 C13.5226884,13.9262993 13.7518866,13.9634857 13.9237851,14.0564516 Z" id="Path"></path>
                    <path d="M17.5145555,14.0564516 L17.5145555,14.5398745 C17.342657,14.4283154 17.1134588,14.391129 16.8269612,14.391129 C16.6932623,14.391129 16.5977631,14.4283154 16.5213637,14.484095 C16.4449644,14.5398745 16.4067647,14.6142473 16.4067647,14.7072132 C16.4067647,14.7258065 16.4067647,14.7629929 16.4067647,14.781586 C16.4067647,14.8001792 16.4258645,14.8187724 16.4449644,14.8559588 C16.4640642,14.874552 16.4640642,14.8931452 16.483164,14.9117384 C16.5022639,14.9303316 16.5213637,14.9489247 16.5404636,14.9675179 C16.5786632,14.9861111 16.5977631,15.0047043 16.6168629,15.0047043 C16.6359628,15.0047043 16.6550626,15.0232975 16.6932623,15.0418907 C16.731462,15.0604839 16.7505618,15.0790771 16.7696616,15.0790771 C16.7887615,15.0790771 16.8269612,15.0976703 16.8651609,15.1162634 C16.9033606,15.1348566 16.9415603,15.1534498 16.9606601,15.1534498 C17.1707583,15.2464158 17.342657,15.3579749 17.4763558,15.469534 C17.5909549,15.5810932 17.6673543,15.7298387 17.6673543,15.9343638 C17.6673543,16.1760753 17.571855,16.3620071 17.3999565,16.5107527 C17.2280579,16.640905 16.9797599,16.7152778 16.6932623,16.7152778 C16.368565,16.7152778 16.0820673,16.6594982 15.871969,16.5479391 L15.871969,16.0459229 C16.120267,16.1946684 16.3876648,16.2690412 16.6741624,16.2690412 C16.8078614,16.2690412 16.9224604,16.2318548 16.9988598,16.1760753 C17.0752591,16.1202957 17.1134588,16.0459229 17.1134588,15.952957 C17.1134588,15.8785842 17.0752591,15.8042115 17.0179596,15.7484319 C16.9606601,15.6926523 16.8842607,15.6368728 16.8269612,15.6182795 C16.7696616,15.5810932 16.6550626,15.5439068 16.5022639,15.469534 C16.0629675,15.3021953 15.8528692,15.0418907 15.8528692,14.7072132 C15.8528692,14.4655018 15.9483685,14.2795699 16.120267,14.1494176 C16.3112654,14.0192652 16.5404636,13.9448925 16.8078614,13.9448925 C17.1134588,13.9262993 17.342657,13.9634857 17.5145555,14.0564516 Z" id="Path"></path>
                    <path d="M20.2649328,16.0459229 L20.2649328,16.5107527 C20.0548346,16.6223118 19.7874367,16.6780914 19.4627395,16.6780914 C19.0234431,16.6780914 18.6796459,16.5479391 18.4313479,16.3062276 C18.18305,16.0459229 18.0493511,15.7298387 18.0493511,15.3207885 C18.0493511,14.8931452 18.1639502,14.5398745 18.3931483,14.2981631 C18.6223464,14.0564516 18.9279438,13.9262993 19.2908409,13.9262993 C19.6537379,13.9262993 19.9211357,14.0378584 20.1312339,14.2423835 C20.3413322,14.4655018 20.4368314,14.7629929 20.4368314,15.172043 C20.4368314,15.2836021 20.4177316,15.3951613 20.3986317,15.5253136 L18.5650469,15.5253136 C18.6032466,15.7670251 18.6987458,15.9343638 18.8706443,16.0645161 C19.0425429,16.1946684 19.2526412,16.250448 19.5009392,16.250448 C19.8256364,16.250448 20.0739344,16.1946684 20.2649328,16.0459229 Z M19.9211357,15.1162634 L19.9211357,15.0232975 C19.9211357,14.8187724 19.8638362,14.6514337 19.7492371,14.5398745 C19.634638,14.4283154 19.5009392,14.3539426 19.2908409,14.3539426 C19.0998425,14.3539426 18.9470437,14.4097222 18.8133448,14.5398745 C18.6796459,14.6700269 18.6032466,14.8559588 18.5650469,15.0976703 L19.9211357,15.0976703 L19.9211357,15.1162634 Z" id="Shape"></path>
                    <path d="M21.5828219,13.9634857 L21.5828219,14.4469086 C21.7165209,14.1122312 21.9648188,13.9448925 22.308616,13.9448925 C22.3659155,13.9448925 22.423215,13.9448925 22.4805146,13.9634857 L22.4805146,14.484095 C22.4041152,14.4469086 22.308616,14.4283154 22.2322166,14.4283154 C22.0412182,14.4283154 21.8884194,14.5026882 21.7738204,14.6700269 C21.6592214,14.8373656 21.6019218,15.0232975 21.6019218,15.2464158 L21.6019218,16.6780914 L21.0671262,16.6780914 L21.0671262,13.9634857 L21.5828219,13.9634857 Z" id="Path"></path>
                    <path d="M23.5883054,16.6594982 L22.5951136,13.9448925 L23.1681089,13.9448925 L23.5501057,15.0790771 C23.6456049,15.3393817 23.7029044,15.5625 23.7793038,15.7670251 C23.8366034,15.952957 23.8748031,16.0831093 23.8939029,16.1388889 L23.9130027,16.2318548 C23.9512024,16.0645161 24.0658015,15.6740592 24.2758998,15.0790771 L24.6578966,13.9448925 L25.211792,13.9448925 L24.1995003,16.6594982 L23.5883054,16.6594982 Z" id="Path"></path>
                    <path d="M25.7557459,13.3685036 C25.6700316,13.312724 25.6128887,13.2197581 25.6128887,13.1453853 C25.6128887,13.0524194 25.6700316,12.9780466 25.7557459,12.9036739 C25.8414601,12.8478942 25.9843173,12.8107079 26.098603,12.8107079 C26.2414601,12.8107079 26.3557459,12.8478942 26.4700316,12.9036739 C26.5557459,12.9594534 26.6128887,13.0524194 26.6128887,13.1453853 C26.6128887,13.2383513 26.5557459,13.312724 26.4700316,13.3685036 C26.3843173,13.4242832 26.2414601,13.4614695 26.098603,13.4614695 C25.9843173,13.4614695 25.8700316,13.4242832 25.7557459,13.3685036 Z M25.7271745,16.6594982 L25.7271745,13.9448925 L26.5271745,13.9448925 L26.5271745,16.6594982 L25.7271745,16.6594982 Z" id="Shape"></path>
                    <path d="M27.3891741,15.3207885 C27.3891741,15.5996864 27.4846733,15.8228047 27.637472,15.9901434 C27.8093706,16.1574821 28.0385687,16.250448 28.3250663,16.250448 C28.5351646,16.250448 28.7452629,16.1946684 28.9362613,16.0831093 L28.9362613,16.5479391 C28.7643627,16.6594982 28.5351646,16.7152778 28.248667,16.7152778 C27.8093706,16.7152778 27.4655734,16.5851255 27.1981756,16.3062276 C26.9307779,16.0459229 26.8161788,15.7112455 26.8161788,15.3021953 C26.8161788,14.9117384 26.9498777,14.5770609 27.2172755,14.2981631 C27.4846733,14.0192652 27.8284705,13.8891129 28.2868667,13.8891129 C28.5351646,13.8891129 28.7452629,13.9448925 28.9553611,14.0378584 L28.9553611,14.5212813 C28.7834626,14.4097222 28.5733643,14.3539426 28.3441662,14.3539426 C28.0576685,14.3539426 27.8284705,14.4469086 27.6565718,14.6142473 C27.4655734,14.8187724 27.3891741,15.0418907 27.3891741,15.3207885 Z" id="Path"></path>
                    <path d="M31.6102392,16.0459229 L31.6102392,16.5107527 C31.400141,16.6223118 31.1327432,16.6780914 30.8080459,16.6780914 C30.3687495,16.6780914 30.0249523,16.5479391 29.7766544,16.3062276 C29.5283564,16.0459229 29.3946575,15.7298387 29.3946575,15.3207885 C29.3946575,14.8931452 29.5092566,14.5398745 29.7384547,14.2981631 C29.9676528,14.0564516 30.2732502,13.9262993 30.6361473,13.9262993 C30.9990443,13.9262993 31.2664421,14.0378584 31.4765403,14.2423835 C31.6866386,14.4655018 31.7821378,14.7629929 31.7821378,15.172043 C31.7821378,15.2836021 31.763038,15.3951613 31.7439382,15.5253136 L29.9103533,15.5253136 C29.948553,15.7670251 30.0440522,15.9343638 30.2159507,16.0645161 C30.3878493,16.1946684 30.5979476,16.250448 30.8462456,16.250448 C31.1709428,16.250448 31.4192408,16.1946684 31.6102392,16.0459229 Z M31.2664421,15.1162634 L31.2664421,15.0232975 C31.2664421,14.8187724 31.2091425,14.6514337 31.0945435,14.5398745 C30.9799444,14.4283154 30.8462456,14.3539426 30.6361473,14.3539426 C30.4451489,14.3539426 30.2923501,14.4097222 30.1586512,14.5398745 C30.0249523,14.6700269 29.948553,14.8559588 29.9103533,15.0976703 L31.2664421,15.0976703 L31.2664421,15.1162634 Z" id="Shape"></path>
                    <path d="M33.9786197,14.0564516 L33.9786197,14.5398745 C33.8067211,14.4283154 33.577523,14.391129 33.2910254,14.391129 C33.1573265,14.391129 33.0618273,14.4283154 32.9854279,14.484095 C32.9090285,14.5398745 32.8708288,14.6142473 32.8708288,14.7072132 C32.8708288,14.7258065 32.8708288,14.7629929 32.8708288,14.781586 C32.8708288,14.8001792 32.8899287,14.8187724 32.9090285,14.8559588 C32.9281283,14.874552 32.9281283,14.8931452 32.9472282,14.9117384 C32.9663281,14.9303316 32.9854279,14.9489247 33.0045278,14.9675179 C33.0427274,14.9861111 33.0618273,15.0047043 33.0809271,15.0047043 C33.100027,15.0047043 33.1191268,15.0232975 33.1573265,15.0418907 C33.1955262,15.0604839 33.214626,15.0790771 33.2337258,15.0790771 C33.2528257,15.0790771 33.2910254,15.0976703 33.329225,15.1162634 C33.3674247,15.1348566 33.4056245,15.1534498 33.4247243,15.1534498 C33.6348225,15.2464158 33.8067211,15.3579749 33.94042,15.469534 C34.0550191,15.5810932 34.1314184,15.7298387 34.1314184,15.9343638 C34.1314184,16.1760753 34.0359192,16.3620071 33.8640207,16.5107527 C33.6921221,16.640905 33.4438241,16.7152778 33.1573265,16.7152778 C32.8326291,16.7152778 32.5461315,16.6594982 32.3360332,16.5479391 L32.3360332,16.0459229 C32.5843312,16.1946684 32.851729,16.2690412 33.1382266,16.2690412 C33.2719255,16.2690412 33.3865246,16.2318548 33.462924,16.1760753 C33.5393233,16.1202957 33.577523,16.0459229 33.577523,15.952957 C33.577523,15.8785842 33.5393233,15.8042115 33.4820238,15.7484319 C33.4247243,15.6926523 33.3483249,15.6368728 33.2910254,15.6182795 C33.2337258,15.5810932 33.1191268,15.5439068 32.9663281,15.469534 C32.5270317,15.3021953 32.3169334,15.0418907 32.3169334,14.7072132 C32.3169334,14.4655018 32.4124326,14.2795699 32.5843312,14.1494176 C32.7753296,14.0192652 33.0045278,13.9448925 33.2719255,13.9448925 C33.5584232,13.9262993 33.8067211,13.9634857 33.9786197,14.0564516 Z" id="Path"></path>
                    <path d="M37.5693901,14.0564516 L37.5693901,14.5398745 C37.3974915,14.4283154 37.1682934,14.391129 36.8817957,14.391129 C36.7480968,14.391129 36.6525976,14.4283154 36.5761983,14.484095 C36.4997989,14.5398745 36.4615993,14.6142473 36.4615993,14.7072132 C36.4615993,14.7258065 36.4615993,14.7629929 36.4615993,14.781586 C36.4615993,14.8001792 36.4806991,14.8187724 36.4997989,14.8559588 C36.5188988,14.874552 36.5188988,14.8931452 36.5379986,14.9117384 C36.5570985,14.9303316 36.5761983,14.9489247 36.5952981,14.9675179 C36.6334978,14.9861111 36.6525976,15.0047043 36.6716975,15.0047043 C36.6907973,15.0232975 36.7098972,15.0232975 36.7480968,15.0418907 C36.7862965,15.0604839 36.8053964,15.0790771 36.8244962,15.0790771 C36.843596,15.0790771 36.8817957,15.0976703 36.9199955,15.1162634 C36.9581951,15.1348566 36.9963948,15.1534498 37.0154947,15.1534498 C37.2255929,15.2464158 37.3974915,15.3579749 37.5311904,15.469534 C37.6457894,15.5810932 37.7221888,15.7298387 37.7221888,15.9343638 C37.7221888,16.1760753 37.6266896,16.3620071 37.454791,16.5107527 C37.2828924,16.640905 37.0345945,16.7152778 36.7480968,16.7152778 C36.4233995,16.7152778 36.1369019,16.6594982 35.9268036,16.5479391 L35.9268036,16.0459229 C36.1751016,16.1946684 36.4424993,16.2690412 36.728997,16.2690412 C36.8626959,16.2690412 36.977295,16.2318548 37.0536943,16.1760753 C37.1300937,16.1202957 37.1682934,16.0459229 37.1682934,15.952957 C37.1682934,15.8785842 37.1300937,15.8042115 37.0727942,15.7484319 C37.0154947,15.6926523 36.9390953,15.6368728 36.8817957,15.6182795 C36.8244962,15.5810932 36.7098972,15.5439068 36.5570985,15.469534 C36.1178021,15.3021953 35.9077038,15.0418907 35.9077038,14.7072132 C35.9077038,14.4655018 36.003203,14.2795699 36.1751016,14.1494176 C36.3661,14.0192652 36.5952981,13.9448925 36.8626959,13.9448925 C37.1491935,13.9262993 37.3974915,13.9634857 37.5693901,14.0564516 Z" id="Path"></path>
                    <path d="M39.4029749,16.7152778 C39.0018782,16.7152778 38.677181,16.5851255 38.428883,16.3248208 C38.1996848,16.0645161 38.0850858,15.7298387 38.0850858,15.3393817 C38.0850858,14.9303316 38.1996848,14.5956542 38.4479828,14.3353495 C38.6962808,14.0750448 39.0018782,13.9262993 39.4029749,13.9262993 C39.8231715,13.9262993 40.1478688,14.0564516 40.3770669,14.3167563 C40.606265,14.5770609 40.7208641,14.9117384 40.7208641,15.3207885 C40.7208641,15.7298387 40.606265,16.0645161 40.357967,16.3248208 C40.1478688,16.5851255 39.8231715,16.7152778 39.4029749,16.7152778 Z M39.4029749,14.3725358 C39.1737769,14.3725358 38.9827784,14.4655018 38.8490795,14.6514337 C38.7153807,14.8373656 38.6580811,15.0604839 38.6580811,15.3393817 C38.6580811,15.5996864 38.7344805,15.8228047 38.8681794,16.0087366 C39.0018782,16.1946684 39.1928767,16.2876344 39.4220748,16.2876344 C39.6703728,16.2876344 39.8613712,16.1946684 39.9950701,16.0273297 C40.128769,15.8413979 40.1860685,15.6182795 40.1860685,15.3579749 C40.1860685,15.0790771 40.128769,14.8373656 39.9950701,14.6700269 C39.8613712,14.4469086 39.6703728,14.3725358 39.4029749,14.3725358 Z" id="Shape"></path>
                    <path d="M41.7140559,15.3207885 C41.7140559,15.5996864 41.8095551,15.8228047 41.9623538,15.9901434 C42.1342524,16.1574821 42.3634505,16.250448 42.6499482,16.250448 C42.8600464,16.250448 43.0701447,16.1946684 43.2611431,16.0831093 L43.2611431,16.5479391 C43.0892446,16.6594982 42.8600464,16.7152778 42.5735488,16.7152778 C42.1342524,16.7152778 41.7904553,16.5851255 41.5230575,16.3062276 C41.2556596,16.0459229 41.1410606,15.7112455 41.1410606,15.3021953 C41.1410606,14.9117384 41.2747595,14.5770609 41.5421573,14.2981631 C41.8095551,14.0192652 42.1533523,13.8891129 42.6117485,13.8891129 C42.8600464,13.8891129 43.0701447,13.9448925 43.280243,14.0378584 L43.280243,14.5212813 C43.1083444,14.4097222 42.8982461,14.3539426 42.669048,14.3539426 C42.3825504,14.3539426 42.1533523,14.4469086 41.9814537,14.6142473 C41.7904553,14.8187724 41.7140559,15.0418907 41.7140559,15.3207885 Z" id="Path"></path>
                    <path d="M43.9578957,13.3685036 C43.8721814,13.312724 43.8150385,13.2197581 43.8150385,13.1453853 C43.8150385,13.0524194 43.8721814,12.9780466 43.9578957,12.9036739 C44.04361,12.8478942 44.1864671,12.8107079 44.3007528,12.8107079 C44.44361,12.8107079 44.5578957,12.8478942 44.6721814,12.9036739 C44.7578956,12.9594534 44.8150385,13.0524194 44.8150385,13.1453853 C44.8150385,13.2383513 44.7578956,13.312724 44.6721814,13.3685036 C44.5864671,13.4242832 44.44361,13.4614695 44.3007528,13.4614695 C44.1864671,13.4614695 44.0721814,13.4242832 43.9578957,13.3685036 Z M43.9293243,16.6594982 L43.9293243,13.9448925 L44.7293242,13.9448925 L44.7293242,16.6594982 L43.9293243,16.6594982 Z" id="Shape"></path>
                    <path d="M45.2475268,14.5956542 L45.2475268,14.093638 C45.457625,13.9634857 45.7441227,13.9077061 46.1070197,13.9077061 C46.8328136,13.9077061 47.1957107,14.2423835 47.1957107,14.9303316 L47.1957107,16.640905 L46.6609151,16.640905 L46.6609151,16.3248208 C46.5272162,16.5479391 46.2598184,16.6594982 45.9160212,16.6594982 C45.6486235,16.6594982 45.4385252,16.5851255 45.2857264,16.43638 C45.1329277,16.2876344 45.0565283,16.1017025 45.0565283,15.8785842 C45.0565283,15.6182795 45.1520275,15.4137545 45.3621258,15.265009 C45.572224,15.1162634 45.8396219,15.0418907 46.2025189,15.0418907 L46.6609151,15.0418907 L46.6609151,14.8931452 C46.6609151,14.7072132 46.6227154,14.5770609 46.5272162,14.4655018 C46.431717,14.3725358 46.2789182,14.3167563 46.0688199,14.3167563 C45.7632225,14.3725358 45.4958247,14.4469086 45.2475268,14.5956542 Z M46.6418153,15.4509408 L46.2216187,15.4509408 C46.0115204,15.4509408 45.8587217,15.4881272 45.7632225,15.5625 C45.6677233,15.6368728 45.6104237,15.7484319 45.6104237,15.859991 C45.6104237,15.9901434 45.6486235,16.0831093 45.7250228,16.1574821 C45.8014222,16.2318548 45.9160212,16.2690412 46.0688199,16.2690412 C46.2407186,16.2690412 46.3744174,16.2132616 46.4890165,16.1202957 C46.5845157,16.0273297 46.6418153,15.8971774 46.6418153,15.7484319 L46.6418153,15.4509408 Z" id="Shape"></path>
                    <path d="M49.6213907,13.9634857 L50.1561863,13.9634857 L50.1561863,16.6780914 L49.6213907,16.6780914 L49.6213907,16.2132616 C49.4685919,16.5479391 49.1820943,16.7152778 48.7618978,16.7152778 C48.4945,16.7152778 48.2653019,16.640905 48.1125031,16.4735663 C47.9597044,16.3062276 47.8642052,16.1017025 47.8642052,15.8228047 L47.8642052,13.9820789 L48.3990008,13.9820789 L48.3990008,15.6926523 C48.3990008,15.8785842 48.4372004,16.0273297 48.5326996,16.1202957 C48.6281988,16.2132616 48.7618978,16.2690412 48.9146965,16.2690412 C49.1247947,16.2690412 49.2966933,16.1946684 49.4112924,16.0645161 C49.5449913,15.9157706 49.6022908,15.7298387 49.6022908,15.469534 L49.6022908,13.9634857 L49.6213907,13.9634857 Z" id="Path"></path>
                    <polygon id="Path" points="52.1425698 15.3021953 53.0593623 16.6780914 52.4481673 16.6780914 51.8369724 15.6926523 51.1875777 16.6780914 50.5954826 16.6780914 51.5504747 15.3021953 50.671882 13.9634857 51.2830769 13.9634857 51.8560722 14.9117384 52.4481673 13.9634857 53.0593623 13.9634857"></polygon>
                </g>
                <path d="M41.8208757,82.980999 C19.0059577,82.980999 0.290445614,64.7211162 0.00310407765,42.0150183 C-0.130988639,30.9374827 4.08335389,20.4679765 11.8798876,12.5255925 C19.6764212,4.5832085 30.1164971,0.136993521 41.3036609,0.00398709036 C52.4716686,-0.14802026 63.026681,4.05118278 71.0339315,11.7845567 C79.0411825,19.5179306 83.5237106,29.8734313 83.6578031,40.9699678 L83.6578031,41.2739825 C83.6769594,42.7180523 83.6961156,43.4590882 83.5045543,45.0741663 C83.3704618,46.2902251 82.2594077,47.1832682 81.0334174,47.0502618 C79.8074264,46.9172554 78.9070899,45.8152021 79.0411825,44.5991433 C79.1944313,43.2500781 79.175275,42.7370533 79.1561194,41.3499862 L79.1561194,41.0459715 C79.0220262,31.1464928 75.0184014,21.9120464 67.8923313,14.9957119 C60.7471048,8.09837847 51.3414585,4.35519747 41.3611292,4.4882039 C31.3807998,4.62121034 22.070934,8.59240237 15.0981128,15.6607441 C8.14444763,22.7480868 4.37069543,32.0965388 4.50478815,41.9770165 C4.77297358,62.2319958 21.4579388,78.5347841 41.8208757,78.5347841 C41.9741244,78.5347841 42.1465294,78.5347841 42.2997782,78.5347841 C50.0196875,78.4397792 57.413943,76.0266626 63.6396763,71.5614467 C64.6549497,70.8394123 66.0533451,71.0674233 66.781277,72.0554707 C67.5092087,73.0625198 67.2793355,74.4495863 66.2832184,75.1716214 C59.291241,80.1878643 51.0158048,82.8859948 42.3572465,83 C42.1848416,82.980999 41.9932806,82.980999 41.8208757,82.980999 Z" id="Path" fill="url(#linearGradient-4)"></path>
            </g>
        </g>
    </g>
</svg>