<svg width="119" height="65" xmlns="http://www.w3.org/2000/svg"><g fill="none"><path d="M40.074 10.693a1.24 1.24 0 0 1 1.507 1.3v16.166a2.39 2.39 0 0 1-1.89 2.282L3.417 36.865a1.233 1.233 0 0 1-1.502-1.288V19.404a2.406 2.406 0 0 1 1.89-2.283z" stroke="#FFF" stroke-width="2"/><path d="M18.943 25.244l-8.906-1.57-6.393-1.126a3.664 3.664 0 0 1-2.728-3.454V40.97a3.652 3.652 0 0 0 2.883 3.486l16.23 2.855-1.098-.194c5.873 1.039 10.616-3.026 10.616-9.05 0-6.023-4.759-11.769-10.608-12.808m5.627-3.192l8.903 1.566 6.392 1.13a3.672 3.672 0 0 1 2.716 3.454V6.345a3.64 3.64 0 0 0-2.886-3.486L23.463 0l1.102.194C18.701-.845 13.959 3.224 13.959 9.26c0 6.036 4.758 11.778 10.607 12.813m37.28 40.416c.202.595-.095.964-.718.964h-4.275a.908.908 0 0 1-.963-.73l-.687-2.423h-7.059l-.686 2.423a.908.908 0 0 1-.964.73h-4.278c-.623 0-.92-.373-.718-.964l6.606-20.248a.944.944 0 0 1 .984-.717h5.187a.944.944 0 0 1 .983.717l6.599 20.248h-.012zm-8.022-7.035l-2.15-7.57-2.149 7.57h4.299zm8.7 1.876a.793.793 0 0 1 .856-.888h3.914c.516 0 .75.265.904.793.282.924 1.146 1.356 2.657 1.356 1.642 0 2.3-.65 2.3-1.487 0-1.122-1.55-1.586-3.446-2.197-3.041-.991-6.943-2.526-6.943-7.138 0-4.457 3.513-6.741 7.578-6.741 3.882 0 7.38 1.943 7.784 6.444a.793.793 0 0 1-.857.888h-3.93c-.499 0-.721-.266-.9-.765-.257-.801-.94-1.198-2.101-1.198-1.333 0-1.983.623-1.983 1.416 0 1.23 1.519 1.72 3.466 2.38 3.03.994 6.924 2.474 6.924 7.034 0 4.457-3.51 6.741-7.931 6.741-4.287-.047-7.888-2.006-8.292-6.638zm31.359.86a.793.793 0 0 1 .856.857v3.569a.793.793 0 0 1-.856.857H82.145a.793.793 0 0 1-.856-.857V42.391a.793.793 0 0 1 .856-.857h11.563a.793.793 0 0 1 .857.857v3.569a.793.793 0 0 1-.857.833h-6.824v3.093h6.055a.793.793 0 0 1 .857.856v3.28a.793.793 0 0 1-.857.856h-6.055v3.316h6.995l.004-.004zm24.078 3.173a.738.738 0 0 1-.107 1.19l-2.692 2.228a.793.793 0 0 1-1.19-.107l-1.586-1.812a11.754 11.754 0 0 1-4.89 1.05 11.345 11.345 0 1 1 9.006-4.238l1.46 1.689zm-10.469-2.915c.328.001.656-.023.98-.071l-1.471-1.69a.738.738 0 0 1 .107-1.189l2.708-2.229a.793.793 0 0 1 1.19.107l1.72 1.983a6.29 6.29 0 0 0 .66-2.863c0-3.505-2.559-5.948-5.91-5.948-3.35 0-5.908 2.455-5.908 5.948 0 3.494 2.558 5.948 5.909 5.948l.015.004z" fill="#FFF"/></g></svg>