<svg id="Calque_2" data-name="Calque 2" xmlns="http://www.w3.org/2000/svg" width="134.272" height="43.314" viewBox="0 0 134.272 43.314">
  <path id="Tracé_42" data-name="Tracé 42" d="M134.656,29.617l-.273.136h-.728c-.182,0-.227.091-.546,0s-.409-.045-.455-.136a2.093,2.093,0,0,1,.046-.682,9.374,9.374,0,0,1,.318-1.228c.137-.409.091-.91.182-1.228s.227-.864.273-.955a.182.182,0,0,1,.273-.045c.136.091.091.455.182.773l.318,1.046c0,.182.137.318.137.5s.136.637.136.819.182.864.046,1m3.185,2.229c-.091-.227-.318-1.41-.5-1.956a15.241,15.241,0,0,1-.455-1.592q-.182-.591-.364-1.274l-.364-1.365-.182-.637a6.778,6.778,0,0,1-.182-.91l-.136-.591a7.463,7.463,0,0,1-.227-.864s-.046-.136-.318-1.183a2.912,2.912,0,0,0-.227-.91c-.091-.182-.546-.182-.682-.227h-1.046a1.137,1.137,0,0,0-.819.273,1.957,1.957,0,0,0-.273.819l-.273.819c-.046.227-.273,1.683-.273,1.774l-.364,1.092c-.137.364,0,.409-.137.728s-.273,1.228-.364,1.5-.364,1.183-.409,1.365a11.9,11.9,0,0,0-.273,1.228,2.32,2.32,0,0,1-.137.546,2.775,2.775,0,0,0-.227.728,5.915,5.915,0,0,1-.227.91,10.648,10.648,0,0,0-.364,1.5c0,.273-.091.591-.091.864a.319.319,0,0,0,.137.227,2.411,2.411,0,0,0,.728.227,2.912,2.912,0,0,0,.955.045,1.365,1.365,0,0,0,.5-.182,1.775,1.775,0,0,0,.318-.728c.046-.182.091-.318.137-.546s0-.364.046-.5.091-.864.318-1.046.5-.091.819-.091h.637a7.917,7.917,0,0,1,1.592.046c.273.091.273.364.409.773a2.684,2.684,0,0,1,.091.728,4.414,4.414,0,0,0,.046.773,1.231,1.231,0,0,0,.5.864,2.548,2.548,0,0,0,1.137.091,3.048,3.048,0,0,0,.819-.136.5.5,0,0,0,.318-.546,8.189,8.189,0,0,0-.273-1.137,9.383,9.383,0,0,0-.455-1.456m-10.374,1.365c0-.409.046-.455.046-.773s.046-.682.046-1v-2c0-.182-.046-.91-.046-1.592V21.427a1.5,1.5,0,0,0-.046-.273,1.229,1.229,0,0,0-.091-.364.637.637,0,0,0-.364-.409l-.5-.091h-.5l-.637.136a.682.682,0,0,0-.409.5,4.14,4.14,0,0,0,0,.819,4.642,4.642,0,0,1,.046.682V25.2a2.047,2.047,0,0,1-.227,1.183c-.182.227-.91.227-1.046.227h-.182l-1.092-.091c-.273-.045-.637-.045-.682-.455s-.091-.955-.046-.773.046-.682.046-.91v-.773a6.414,6.414,0,0,1,.045-.955,7.556,7.556,0,0,0,0-1.046c0-.227-.045-.637-.045-.773a.591.591,0,0,0-.409-.546,3.139,3.139,0,0,0-1.183-.045.819.819,0,0,0-.682.409,1.729,1.729,0,0,0-.045,1v.819a3.882,3.882,0,0,1,0,.728,8,8,0,0,0,0,1.046V26.3c0,.364-.046,1.638-.046,1.956-.046,1.137,0,2.912,0,3.185v.637a3.416,3.416,0,0,0,0,.5c0,.136.046.773.046.864s.046.273.046.5a4.369,4.369,0,0,0,0,.546c.046.273.046.318.227.455a1.41,1.41,0,0,0,.773.136h.819a.455.455,0,0,0,.364-.182,1.183,1.183,0,0,0,.182-.637V33.12c0-.182.046-1.183.046-1.5V30.163c0-.136-.091-1.274.136-1.5s.455-.182.91-.227h.728a4.458,4.458,0,0,1,.91.045.682.682,0,0,1,.455.409,1.228,1.228,0,0,1,.046.546v4.641a3.413,3.413,0,0,0,.046.5.455.455,0,0,0,.364.455,4,4,0,0,0,1.456-.045.682.682,0,0,0,.5-.227.773.773,0,0,0,.136-.455,1.728,1.728,0,0,0-.045-.455,2.457,2.457,0,0,1-.046-.637M116.229,21.427a3,3,0,0,0-.637-.5l-.409-.227a3.23,3.23,0,0,0-1.274-.455,5.05,5.05,0,0,0-1.456,0,5.323,5.323,0,0,0-1.365.409,3.776,3.776,0,0,0-1.092.728,1.865,1.865,0,0,0-.591.91,3.549,3.549,0,0,0-.091,1.228,2.593,2.593,0,0,1-.091.864,3.231,3.231,0,0,0-.045,1,2.548,2.548,0,0,1,.045.728c-.046.273.045,1.911.045,2.411a7.37,7.37,0,0,0,.091,1.638v2.366a1.729,1.729,0,0,0,.5,1.228,4.186,4.186,0,0,0,1.365.955,4.5,4.5,0,0,0,2.093.455,4.55,4.55,0,0,0,1.228-.136,3.594,3.594,0,0,0,1.046-.5l.637-.546a2,2,0,0,0,.5-.637,1.593,1.593,0,0,0,.318-.637,4.05,4.05,0,0,0,.136-.682v-.819a.273.273,0,0,0-.136-.227l-.318-.091s-1.82-.364-1.865.318a1.82,1.82,0,0,1-.136.637l-.227.546a.864.864,0,0,1-.409.5,1.865,1.865,0,0,1-.819.136c-.682,0-1.274-.182-1.365-.637a10.967,10.967,0,0,1-.136-1.5,7.44,7.44,0,0,1-.091-1V24.066a3.185,3.185,0,0,1,.046-.637,1.137,1.137,0,0,1,.273-.591,1.456,1.456,0,0,1,.591-.409,1.911,1.911,0,0,1,.864-.046,2.184,2.184,0,0,1,.773.273.864.864,0,0,1,.409.409,1.593,1.593,0,0,1,.136.5c0,.182.045.318.045.546s.227.455.728.455h.728a1.274,1.274,0,0,0,.682-.273.637.637,0,0,0,.182-.546V23.2a2.229,2.229,0,0,0-.227-.955,2.866,2.866,0,0,0-.637-.819m31.53,1.729V20.926a.364.364,0,0,0-.136-.227l-.137-.136a.955.955,0,0,0-.409-.227,2.184,2.184,0,0,0-1.365,0,.819.819,0,0,0-.546.773v1.683l.182,4.55a29.3,29.3,0,0,1-.182,3v.364q0,.409-.046.864a1.274,1.274,0,0,1-.227.864,2.32,2.32,0,0,1-.5.318,1.775,1.775,0,0,1-.637.182,1.82,1.82,0,0,1-.728-.136c-.227-.091-.318-.045-.546-.227a2.639,2.639,0,0,1-.364-.682,1.046,1.046,0,0,1-.137-.546v-1.5c0-.364.046-.546.046-.864a9.7,9.7,0,0,0-.046-1c-.046-.591-.046-1-.046-1.365s.046-.682.046-1.046v-.728a9.234,9.234,0,0,0,0-1c0-.136.046-.409.046-.637a4.1,4.1,0,0,0,0-.773,4.05,4.05,0,0,1-.045-.5v-1a.546.546,0,0,0-.136-.409,2.138,2.138,0,0,0-.955-.273,2.229,2.229,0,0,0-.91.182.682.682,0,0,0-.318.682,4.413,4.413,0,0,1-.091.819,9.828,9.828,0,0,0-.045,1.82,2.729,2.729,0,0,1,.045.773,6.325,6.325,0,0,0,.091,1V26.3c0,.136-.091.591-.091.864v.91a6.642,6.642,0,0,1,.046,1.183c0,.091.046.5.046,1.092s-.046,1.046-.046,1.365a3.276,3.276,0,0,0,.091,1.046,2.684,2.684,0,0,0,.5.773,5.551,5.551,0,0,0,1.274.91l.546.273a3.685,3.685,0,0,0,1.456.273,3.5,3.5,0,0,0,1.365-.182l.773-.273.682-.409.591-.546a3.594,3.594,0,0,0,.864-2.457c0-.546.046-1.092.046-1.592V26.3a12.155,12.155,0,0,0,0-1.228c-.046-.682,0-1.865,0-1.865m33.4,2.548a.728.728,0,0,1-.409.546l-.682.364a1.865,1.865,0,0,1-.864.182,2.229,2.229,0,0,1-.864-.091c-.227-.091-.455-.045-.546-.182a2.138,2.138,0,0,1-.136-.819,4.323,4.323,0,0,1,.091-.773,9.234,9.234,0,0,0-.091-1.274,7.44,7.44,0,0,1,.045-.91c.046-.182,0-.409.182-.5H179.2l.773.091a1.729,1.729,0,0,1,.637.318,1.047,1.047,0,0,1,.364.591,3.683,3.683,0,0,1,.136.591,4.414,4.414,0,0,1,.136.591,8.007,8.007,0,0,1,0,1.319m2.457,7.735-.364-.773-.318-.864c-.091-.273-.136-.455-.318-1.046s-.227-.546-.364-1a14.16,14.16,0,0,1-.682-1.5,5.869,5.869,0,0,0,1-.91,5.187,5.187,0,0,0,.591-1,10.414,10.414,0,0,0,.364-1,5.05,5.05,0,0,0,.227-1.82c-.046-.273-.182-.546-.227-.773a1.638,1.638,0,0,0-.228-.637,1.684,1.684,0,0,0-.546-.773l-.864-.546a4.823,4.823,0,0,0-1.456-.546,9.009,9.009,0,0,0-1.592-.136H176.56l-.682.091a1.547,1.547,0,0,0-.455.227.5.5,0,0,0-.182.318,2.591,2.591,0,0,0-.046.364,2.867,2.867,0,0,0,.045.455,5.551,5.551,0,0,1-.045,1.183v9.919l.091,1.41a.864.864,0,0,0,.136.637.464.464,0,0,0,.364.227,2.821,2.821,0,0,0,1.365,0,.728.728,0,0,0,.546-.364,1.092,1.092,0,0,0,.091-.682,3.231,3.231,0,0,1-.136-.864,7.959,7.959,0,0,0,0-1.41,3.5,3.5,0,0,1-.046-.955,6.46,6.46,0,0,1,.046-.91l.091-.546a1.957,1.957,0,0,1,.136-.546c.046-.091.364,0,.591,0h.955c.136.045.136.682.273.91a1.274,1.274,0,0,1,.182.455,3.641,3.641,0,0,0,.227.773,3.367,3.367,0,0,1,.227.546,2,2,0,0,0,.227.546,1.733,1.733,0,0,1,.136.455l.136.273.136.364.182.364.273.591a4.914,4.914,0,0,0,.637.955,4,4,0,0,0,1.274.046,1.137,1.137,0,0,0,.637-.227c.182-.136.136-.364.046-.591l-.318-.682M168.415,22.291a1.319,1.319,0,0,1,1-.182h1.729a4.459,4.459,0,0,0,1.865-.227c.227-.136.273-.5.273-.864a.728.728,0,0,0-.273-.637,2.138,2.138,0,0,0-1.137-.182h-5.05a1.41,1.41,0,0,0-.591.136.5.5,0,0,0-.318.5,3.047,3.047,0,0,1-.046.364c0,.136-.182,2.548-.182,2.548a6.508,6.508,0,0,0,.091,1.046,2.821,2.821,0,0,1-.091,1.183v.637a6.825,6.825,0,0,0,.046.682,9.578,9.578,0,0,0,.091,1.137c.045.182-.137,2-.137,2v3.685q0,1.046,1.365,1.046h2.593l2.775-.136a1.638,1.638,0,0,0,.728-.182.728.728,0,0,0,.182-.5,2.548,2.548,0,0,0-.046-.364c0-.136.091-.637-.182-.819a5.6,5.6,0,0,0-1.774-.182h-.91a4.868,4.868,0,0,1-1.137.045c-.409,0-.864-.091-.955-.318a2.229,2.229,0,0,1-.136-.682,4.507,4.507,0,0,1-.046-.5V30.436a6.329,6.329,0,0,1,.046-.637,4.322,4.322,0,0,1,.091-.955c.091-.227.273-.182.591-.182h2.821a.956.956,0,0,0,.455-.091.683.683,0,0,0,.364-.273,1.683,1.683,0,0,0,.091-.728,1.046,1.046,0,0,0-.091-.546.682.682,0,0,0-.455-.364,9.646,9.646,0,0,0-1.729,0H169.6a2.411,2.411,0,0,1-1.092-.136c-.273-.182-.273-.591-.273-.864V23.065c0-.182,0-.637.182-.773m20.383,0a1.319,1.319,0,0,1,1-.182h1.729a4.459,4.459,0,0,0,1.865-.227c.227-.136.273-.5.273-.864a.728.728,0,0,0-.273-.637,2.138,2.138,0,0,0-1.137-.182h-5.05a1.41,1.41,0,0,0-.591.136.5.5,0,0,0-.318.5,3.047,3.047,0,0,1-.046.364c0,.136-.182,2.548-.182,2.548a6.508,6.508,0,0,0,.091,1.046,2.821,2.821,0,0,1-.091,1.183v.637a6.83,6.83,0,0,0,.046.682,9.575,9.575,0,0,0,.091,1.137c.046.182-.136,2-.136,2v3.685q0,1.046,1.365,1.046h2.593l2.775-.136a1.638,1.638,0,0,0,.728-.182.728.728,0,0,0,.182-.5,2.548,2.548,0,0,0-.046-.364c0-.136.091-.637-.182-.819a5.6,5.6,0,0,0-1.774-.182h-.91a4.868,4.868,0,0,1-1.137.045c-.409,0-.864-.091-.955-.318a2.229,2.229,0,0,1-.137-.682,4.5,4.5,0,0,1-.045-.5V30.436a6.32,6.32,0,0,1,.046-.637,4.323,4.323,0,0,1,.091-.955c.091-.227.273-.182.591-.182h2.821a.955.955,0,0,0,.455-.091.683.683,0,0,0,.364-.273,1.683,1.683,0,0,0,.091-.728,1.047,1.047,0,0,0-.091-.546.682.682,0,0,0-.455-.364,9.645,9.645,0,0,0-1.729,0h-.728a2.411,2.411,0,0,1-1.092-.136c-.273-.182-.273-.591-.273-.864V23.065c0-.182,0-.637.182-.773M163.32,25.067a5.476,5.476,0,0,1,0-.864,2.549,2.549,0,0,0-.045-.318,3.231,3.231,0,0,1-.046-.773,5.415,5.415,0,0,0,.091-.728,1.548,1.548,0,0,0-.046-.455,2.32,2.32,0,0,1,.046-.682.592.592,0,0,0-.136-.409l-.318-.273a.955.955,0,0,0-.455-.182,1.729,1.729,0,0,0-.682,0l-.682.091c-.227.091-.318.591-.273.91a3.345,3.345,0,0,1,0,.682v.91a8.054,8.054,0,0,0,0,1.092c.046.455,0,1.41,0,1.865v6.961c0,.318-.091.591-.091.864a3.231,3.231,0,0,0,.137.864,1.82,1.82,0,0,0,.409.409,1.729,1.729,0,0,0,.728.045h.728a.819.819,0,0,0,.455-.273.955.955,0,0,0,.227-.409,9.236,9.236,0,0,0,0-1.319V31.209a11.376,11.376,0,0,0-.046-1.319c0-.182-.091-.955-.091-1.183a5.231,5.231,0,0,1,0-.773,5.913,5.913,0,0,0,.046-.637,4.184,4.184,0,0,0,0-.591,1.638,1.638,0,0,1-.046-.5,2.62,2.62,0,0,1,.091-.455,6.054,6.054,0,0,0,0-.682M155.767,28.8c0,.091-.045.546-.045.682a11.652,11.652,0,0,1,0,1.365c-.046.318.045.91,0,1.183a1.638,1.638,0,0,1-.318.773l-.546.273a5,5,0,0,1-1.137.182s-.682.045-.819-.137a2.142,2.142,0,0,1-.182-.728c-.046-.182,0-1.183-.046-1.365a5.78,5.78,0,0,0-.091-1.137v-.455a2.5,2.5,0,0,0,0-.955c-.046-.409,0-.591-.046-.864a2.457,2.457,0,0,1,.046-.546,2.048,2.048,0,0,0,.046-.682v-.637c0-.091-.046-.819-.046-.91v-.773c0-.273-.091-1.41.091-1.547a1.592,1.592,0,0,1,.819-.182c1.137-.182,1.865.091,2.138.955a.773.773,0,0,1,.136.455,2.773,2.773,0,0,1,.046.318v3.685a2.73,2.73,0,0,1,0,1.092m2.548-4.231a9.146,9.146,0,0,0-.091-1.274,6.733,6.733,0,0,0-.91-1.774l-.455-.409a5.278,5.278,0,0,0-1.274-.637l-1.456-.182-1.41-.091-1.592.091a2.411,2.411,0,0,0-.682.227,1.137,1.137,0,0,0-.273.728,3.728,3.728,0,0,1-.046.546V23.2c-.046.182-.046,1.41-.046,1.774v.637a4.643,4.643,0,0,1,0,.819,3.913,3.913,0,0,0,0,.955,3.185,3.185,0,0,1-.046.773,2.048,2.048,0,0,0,0,.591,5.414,5.414,0,0,1,.046.728v.728a9.35,9.35,0,0,0,0,1.137c.046.5,0,1.865,0,1.865v.455a4.64,4.64,0,0,0,.227,1.183c.136.273,1.046.318,1.137.318h2.684l.955-.182a3.685,3.685,0,0,0,.955-.273l.955-.546a3.231,3.231,0,0,0,.682-1.137,9.012,9.012,0,0,0,.318-1.183,7.372,7.372,0,0,0,.182-1.5,12.441,12.441,0,0,1,.137-1.683c.046-.682,0-2,0-2ZM168.87,19.2c.046.091.227.091.318.182a1.547,1.547,0,0,0,.455,0h.5c.137,0,.364.045.409,0a1.125,1.125,0,0,0-.318-.682c-.182-.136-.137-.318-.227-.455a.728.728,0,0,1-.136-.273l-.137-.227-.182-.273-.182-.227-.091-.227c-.045-.045-.091-.5-.364-.546a2.457,2.457,0,0,0-.728,0h-1.046c-.046,0-.364,0-.364.182s.273.318.364.409a4.1,4.1,0,0,0,.364.455l.273.227.364.409.182.227.273.273.227.318Z" transform="translate(-59.492 -8.96)" fill="#fff"/>
  <g id="Groupe_15" data-name="Groupe 15" transform="translate(37.445 28.247)">
    <path id="Tracé_43" data-name="Tracé 43" d="M99.18,66.914a5.506,5.506,0,0,1-.091,1.319c-.137.5-.546.728-1.274.91l-.546.136h-.5a.728.728,0,0,1-.637-.182A2.093,2.093,0,0,1,96,68.052a4.1,4.1,0,0,0,0-1.092c-.046-.728,0-1.729,0-2a1,1,0,0,1,.182-.591.826.826,0,0,1,.5-.091,7.28,7.28,0,0,1,1.274-.046,1.365,1.365,0,0,1,.5.182l.273.227a1.092,1.092,0,0,1,.273.5l.136.728a5.05,5.05,0,0,1,.046,1.046m1.683-3.321a2.275,2.275,0,0,0-.682-.728l-.591-.318a5.05,5.05,0,0,0-1.046-.227L97.5,62.228l-1.046-.091-1.046.091-1.046.091a2.093,2.093,0,0,0-.773.182.676.676,0,0,0-.091.409,9.281,9.281,0,0,1,.046,1c-.046.273.046,1.41,0,1.683a5.1,5.1,0,0,0,.046.955,5.141,5.141,0,0,1-.046,1.092,8.37,8.37,0,0,0-.091,1.183c0,.455.045.864.045,1.092s0,1.319-.045,1.547a3.914,3.914,0,0,0-.045.728c0,.227-.046.819,0,1.5v2c0,.182.045.318.045.5a.864.864,0,0,0,.819.864H95.54c.364,0,.455-.591.455-.773a4.962,4.962,0,0,0,.045-.5,4.641,4.641,0,0,0-.091-.819,4.914,4.914,0,0,1,0-1,5.232,5.232,0,0,0,0-.864,6.006,6.006,0,0,1,0-1.5c.227-.318.637-.136.864-.136a4.96,4.96,0,0,0,.955,0l.773-.318a1.865,1.865,0,0,0,.864-.227l.728-.455a2.775,2.775,0,0,0,.546-.5,3.64,3.64,0,0,0,.637-.773,2.138,2.138,0,0,0,.182-.864v-2.73a6.824,6.824,0,0,0-.045-.819,4.732,4.732,0,0,0-.591-1.228m8.281,3.367a5.506,5.506,0,0,1-.091,1.319c-.137.5-.546.728-1.274.91l-.546.136h-.5a.728.728,0,0,1-.637-.182,2.093,2.093,0,0,1-.136-1.046,4.1,4.1,0,0,0,0-1.092c-.046-.728,0-1.729,0-2a1,1,0,0,1,.182-.591.826.826,0,0,1,.5-.091,7.28,7.28,0,0,1,1.274-.046,1.365,1.365,0,0,1,.5.182l.273.227a1.092,1.092,0,0,1,.273.5l.136.728a5.051,5.051,0,0,1,.046,1.046m1.683-3.321a2.275,2.275,0,0,0-.682-.728l-.591-.318a5.05,5.05,0,0,0-1.046-.227l-1.046-.091-1.046-.091-1.046.091-1.046.091a2.093,2.093,0,0,0-.773.182.676.676,0,0,0-.091.409,9.281,9.281,0,0,1,.046,1c-.046.273.046,1.41,0,1.683a5.1,5.1,0,0,0,.046.955,5.141,5.141,0,0,1-.046,1.092,8.371,8.371,0,0,0-.091,1.183c0,.455.046.864.046,1.092s0,1.319-.046,1.547a3.913,3.913,0,0,0-.046.728c0,.227-.045.819,0,1.5v2c0,.182.046.318.046.5a.864.864,0,0,0,.819.864H105.5c.364,0,.455-.591.455-.773a4.964,4.964,0,0,0,.046-.5,4.642,4.642,0,0,0-.091-.819,4.914,4.914,0,0,1,0-1,5.187,5.187,0,0,0,0-.864,6.006,6.006,0,0,1,0-1.5c.227-.318.637-.136.864-.136a4.96,4.96,0,0,0,.955,0l.819-.091a1.865,1.865,0,0,0,.864-.227l.728-.455a2.775,2.775,0,0,0,.546-.5,3.64,3.64,0,0,0,.637-.773,2.138,2.138,0,0,0,.182-.864v-2.73a6.822,6.822,0,0,0-.045-.819,4.732,4.732,0,0,0-.591-1.228M178.8,72.055a9.783,9.783,0,0,0-.364-.91,4,4,0,0,0-.546-.864l-.591-.409a4.834,4.834,0,0,1-.5-.409,5.687,5.687,0,0,1-.864-.591,3.184,3.184,0,0,0-.637-.5,1.775,1.775,0,0,1-.364-.364l-.318-.364-.364-.409-.364-.409-.318-.5a2.911,2.911,0,0,1-.091-.819,1.547,1.547,0,0,1,.227-.773,1.5,1.5,0,0,1,.819-.682,1.729,1.729,0,0,1,.591-.136h.546l.637.318a.774.774,0,0,1,.364.364l.136.364a1.729,1.729,0,0,0,.091.455c.046.182,0,.182.046.318l.091.136.227.091h.682a2.229,2.229,0,0,0,.773-.045l.318-.227a.5.5,0,0,0,.091-.318V65a2.687,2.687,0,0,0-.045-.364,2.913,2.913,0,0,0-.182-.455,2.548,2.548,0,0,0-.364-.819,4.049,4.049,0,0,0-.819-.773,1.774,1.774,0,0,0-.773-.318l-.819-.091h-1.274a6.279,6.279,0,0,0-1.365.136,3.685,3.685,0,0,0-1.228.5,4.55,4.55,0,0,0-.637.546,2.866,2.866,0,0,0-.5,1.228,10.47,10.47,0,0,0-.182,1.274c0,.182.091.591.091.728a4.707,4.707,0,0,0,.136.546,1.047,1.047,0,0,0,.182.546l.591.728c.182.227,1.046.91,1.092,1.046l.591.591c.136.136.682.409.773.546l.364.273.409.273.364.318a3.094,3.094,0,0,1,.773,1.092,6.777,6.777,0,0,1,.318.955c0,.228.091.591,0,.728a3,3,0,0,1-.364.455l-.318.227c-.455.273-.682.182-.682.182a1.228,1.228,0,0,1-.819-.046c-.227-.136-.637-.227-.728-.364a5.641,5.641,0,0,1-.364-.819,1.775,1.775,0,0,1-.136-.682v-.227l-.182-.227a1.138,1.138,0,0,0-.546-.137,8.418,8.418,0,0,0-1.092.182c-.364.045-.637.273-.591.546s.091.546.091.591a1.048,1.048,0,0,0,.046.273,2.776,2.776,0,0,0,.273.91,2.366,2.366,0,0,1,.364.546,5.823,5.823,0,0,0,1.456,1.183l.91.182a6.324,6.324,0,0,0,1.592.046,3.322,3.322,0,0,1,.728-.045l.864-.227a3.185,3.185,0,0,0,.819-.273,4.6,4.6,0,0,0,.864-.91,2.093,2.093,0,0,0,.319-1.183,6.871,6.871,0,0,0-.046-1.137,8.781,8.781,0,0,0-.227-1.228m-50.094,2.912h-2.275a1.956,1.956,0,0,1-1.046-.227,1.729,1.729,0,0,1-.409-1.092v-.773c0-.182-.046-.546-.091-.955a11.5,11.5,0,0,1-.046-1.274,3.549,3.549,0,0,0,.045-.682c0-.182-.045-.455-.045-.637s-.046-1,0-1.5.046-1.638.091-2a10.643,10.643,0,0,0,0-1.911,3.367,3.367,0,0,1-.091-.773.819.819,0,0,0-.227-.682,2.229,2.229,0,0,0-.91-.318,1.638,1.638,0,0,0-.773.227.682.682,0,0,0-.41.591q0,.388-.045.773a10.1,10.1,0,0,0,.045,1.046,4.484,4.484,0,0,1-.091.773,4.678,4.678,0,0,0-.046.819,6.458,6.458,0,0,0,.046.773c.045.182,0,.273.045.5a3.276,3.276,0,0,1,0,.682,3.383,3.383,0,0,1-.137.773,3.857,3.857,0,0,0,0,.728,10.284,10.284,0,0,1,.046,1.092,6.733,6.733,0,0,0,.091.91c0,.136-.046.273-.046.455a4.141,4.141,0,0,0,.046.682V73.6c0,.273.046.637.046.955V76.2c0,.227-.046.409.046.5a.819.819,0,0,0,.5.182l.409.091.5.091h1.228a8.142,8.142,0,0,1,1.274.091h2.047a4.049,4.049,0,0,0,.864-.136.773.773,0,0,0,.5-.591,1.592,1.592,0,0,0,0-.773c-.136-.455-.318-.637-1.092-.637m30.529.182c0-.409.046-.455.046-.773s.046-.682.046-1v-2c0-.182-.046-.91-.046-1.592V63.365a1.5,1.5,0,0,0-.046-.273,1.228,1.228,0,0,0-.091-.364.637.637,0,0,0-.364-.409l-.5-.091h-.5l-.637.136a.683.683,0,0,0-.41.5,4.141,4.141,0,0,0,0,.819,4.639,4.639,0,0,1,.046.682v2.775a2.047,2.047,0,0,1-.227,1.183c-.182.227-.91.227-1.046.227h-.182l-1.092-.091c-.273-.046-.637-.046-.682-.455s-.091-.955-.046-.773.046-.682.046-.91v-.773a6.416,6.416,0,0,1,.046-.955,7.556,7.556,0,0,0,0-1.046c0-.227-.046-.637-.046-.773a.591.591,0,0,0-.409-.546,3.139,3.139,0,0,0-1.183-.046.819.819,0,0,0-.682.409,1.729,1.729,0,0,0-.046,1v.819a3.882,3.882,0,0,1,0,.728,8,8,0,0,0,0,1.046v2.047c0,.364-.046,1.638-.046,1.956-.046,1.137,0,2.912,0,3.185v.637a3.459,3.459,0,0,0,0,.5c0,.136.046.773.046.864s.046.273.046.5a4.369,4.369,0,0,0,0,.546c.046.273.046.318.227.455a1.41,1.41,0,0,0,.773.137h.819a.455.455,0,0,0,.364-.182,1.183,1.183,0,0,0,.182-.637V75.058c0-.182.046-1.183.046-1.5V72.1c0-.136-.091-1.274.136-1.5s.455-.182.91-.227h.728a4.459,4.459,0,0,1,.91.045.682.682,0,0,1,.455.409,1.228,1.228,0,0,1,.046.546v4.641a3.413,3.413,0,0,0,.046.5.455.455,0,0,0,.364.455,4,4,0,0,0,1.456-.046.683.683,0,0,0,.5-.227.773.773,0,0,0,.136-.455,1.728,1.728,0,0,0-.045-.455,2.457,2.457,0,0,1-.046-.637M148.455,63.32a3,3,0,0,0-.637-.5l-.409-.227a3.23,3.23,0,0,0-1.274-.455,5.051,5.051,0,0,0-1.456,0,5.323,5.323,0,0,0-1.365.409,3.776,3.776,0,0,0-1.092.728,1.865,1.865,0,0,0-.591.91,3.549,3.549,0,0,0-.091,1.228,2.593,2.593,0,0,1-.091.864,3.231,3.231,0,0,0-.046,1,2.547,2.547,0,0,1,.045.728c-.045.273.046,1.911.046,2.411a7.37,7.37,0,0,0,.091,1.638v2.366a1.729,1.729,0,0,0,.5,1.228,4.186,4.186,0,0,0,1.365.955,4.5,4.5,0,0,0,2.093.455,4.55,4.55,0,0,0,1.228-.136,3.64,3.64,0,0,0,1.046-.5l.637-.546a2,2,0,0,0,.5-.637,1.592,1.592,0,0,0,.318-.637,4,4,0,0,0,.136-.682V73.1a.273.273,0,0,0-.136-.227l-.318-.091s-1.82-.364-1.865.318a1.82,1.82,0,0,1-.137.637l-.227.546a.864.864,0,0,1-.409.5,1.865,1.865,0,0,1-.819.136c-.682,0-1.274-.182-1.365-.637a10.965,10.965,0,0,1-.137-1.5,7.442,7.442,0,0,1-.091-1V65.959a3.186,3.186,0,0,1,.046-.637,1.138,1.138,0,0,1,.273-.591,1.456,1.456,0,0,1,.591-.409,1.911,1.911,0,0,1,.864-.046,2.184,2.184,0,0,1,.773.273.864.864,0,0,1,.409.409,1.592,1.592,0,0,1,.136.5c0,.182.046.318.046.546s.227.455.728.455h.728a1.274,1.274,0,0,0,.682-.273.637.637,0,0,0,.182-.546v-.5a2.229,2.229,0,0,0-.227-.955,2.867,2.867,0,0,0-.637-.819m15.97.91a1.319,1.319,0,0,1,1-.182H167.2a4.459,4.459,0,0,0,1.865-.227c.228-.136.273-.5.273-.864a.728.728,0,0,0-.273-.637,2.138,2.138,0,0,0-1.137-.182h-5.05a1.41,1.41,0,0,0-.591.136.5.5,0,0,0-.318.5,3.054,3.054,0,0,1-.046.364c0,.136-.182,2.548-.182,2.548a6.5,6.5,0,0,0,.091,1.046,2.821,2.821,0,0,1-.091,1.183V68.6a6.825,6.825,0,0,0,.046.682,9.575,9.575,0,0,0,.091,1.137c.045.182-.136,2-.136,2V76.1q0,1.046,1.365,1.046H165.7l2.775-.137a1.638,1.638,0,0,0,.728-.182.728.728,0,0,0,.182-.5,2.548,2.548,0,0,0-.045-.364c0-.136.091-.637-.182-.819a5.6,5.6,0,0,0-1.774-.182h-.91a4.869,4.869,0,0,1-1.137.046c-.409,0-.864-.091-.955-.318a2.229,2.229,0,0,1-.136-.682,4.5,4.5,0,0,1-.046-.5V72.419a6.32,6.32,0,0,1,.046-.637,4.322,4.322,0,0,1,.091-.955c.091-.227.273-.182.591-.182h2.821a.955.955,0,0,0,.455-.091.682.682,0,0,0,.364-.273,1.683,1.683,0,0,0,.091-.728,1.047,1.047,0,0,0-.091-.546.682.682,0,0,0-.455-.364,9.645,9.645,0,0,0-1.729,0h-.728a2.412,2.412,0,0,1-1.092-.136c-.273-.182-.273-.591-.273-.864V65.049c0-.182,0-.637.182-.773M88.033,71.51l-.273.136h-.773c-.182,0-.227.091-.546,0s-.409-.046-.455-.136a2.093,2.093,0,0,1,.045-.682,9.328,9.328,0,0,1,.318-1.228c.137-.409.091-.91.182-1.228s.227-.864.273-.955a.182.182,0,0,1,.273-.045c.136.091.091.455.182.773l.318,1.046c0,.182.136.318.136.5s.136.637.136.819.182.864.045,1m3.64,3.685a9.383,9.383,0,0,0-.455-1.456c-.136-.318-.318-1.41-.5-1.956a15.287,15.287,0,0,1-.455-1.592q-.182-.591-.364-1.274L89.4,67.551l-.182-.637a6.778,6.778,0,0,1-.182-.91l-.046-.591a7.553,7.553,0,0,1-.227-.864s-.046-.137-.318-1.183a2.912,2.912,0,0,0-.228-.91c-.091-.182-.546-.182-.682-.227h-1a1.137,1.137,0,0,0-.819.273,1.911,1.911,0,0,0-.273.819l-.273.819c-.045.227-.273,1.683-.273,1.774l-.364,1.092c-.136.364,0,.409-.136.728s-.273,1.228-.364,1.5-.364,1.183-.409,1.365a11.894,11.894,0,0,0-.273,1.228,2.32,2.32,0,0,1-.136.546,2.775,2.775,0,0,0-.227.728,5.914,5.914,0,0,1-.227.91,10.647,10.647,0,0,0-.364,1.5c0,.273-.091.591-.091.864a.319.319,0,0,0,.136.227,2.411,2.411,0,0,0,.728.228,2.912,2.912,0,0,0,.955.045,1.365,1.365,0,0,0,.5-.182,1.775,1.775,0,0,0,.318-.728c.045-.182.091-.318.136-.546s0-.364.046-.5.091-.864.318-1.046.5-.091.819-.091H86.9a7.917,7.917,0,0,1,1.592.045c.273.091.273.364.409.773a2.684,2.684,0,0,1,.091.728,4.415,4.415,0,0,0,.045.773,1.231,1.231,0,0,0,.5.864,2.548,2.548,0,0,0,1.137.091,3.048,3.048,0,0,0,.819-.137.5.5,0,0,0,.318-.546,8.191,8.191,0,0,0-.273-1.137m25.343-3.731-.273.136h-.773c-.182,0-.227.091-.546,0s-.409-.046-.455-.136a2.094,2.094,0,0,1,.046-.682A9.329,9.329,0,0,1,115.2,69.6c.137-.409.091-.91.182-1.228s.227-.864.273-.955a.182.182,0,0,1,.273-.045c.136.091.091.455.182.773l.318,1.046c0,.182.137.318.137.5s.136.637.136.819.182.864.046,1m3.64,3.685a9.385,9.385,0,0,0-.455-1.456c-.136-.318-.318-1.41-.5-1.956a15.241,15.241,0,0,1-.455-1.592q-.182-.591-.364-1.274l-.364-1.365-.182-.637a6.78,6.78,0,0,1-.182-.91l-.137-.591a7.553,7.553,0,0,1-.227-.864s-.046-.137-.318-1.183a2.912,2.912,0,0,0-.227-.91c-.091-.182-.546-.182-.682-.227h-.91a1.137,1.137,0,0,0-.819.273,1.911,1.911,0,0,0-.273.819l-.273.819c-.046.227-.273,1.683-.273,1.774l-.364,1.092c-.136.364,0,.409-.136.728s-.273,1.228-.364,1.5-.364,1.183-.409,1.365a11.892,11.892,0,0,0-.273,1.228,2.321,2.321,0,0,1-.137.546,2.776,2.776,0,0,0-.227.728,5.914,5.914,0,0,1-.227.91,10.693,10.693,0,0,0-.364,1.5c0,.273-.091.591-.091.864a.318.318,0,0,0,.136.227,2.412,2.412,0,0,0,.728.227,2.912,2.912,0,0,0,.955.045,1.365,1.365,0,0,0,.5-.182,1.775,1.775,0,0,0,.318-.728c.046-.182.091-.318.136-.546s0-.364.046-.5.091-.864.318-1.046.5-.091.819-.091h.728a7.916,7.916,0,0,1,1.592.045c.273.091.273.364.409.773a2.684,2.684,0,0,1,.091.728,4.414,4.414,0,0,0,.046.773,1.231,1.231,0,0,0,.5.864,2.548,2.548,0,0,0,1.137.091,3.048,3.048,0,0,0,.819-.137.5.5,0,0,0,.318-.546,8.189,8.189,0,0,0-.273-1.137m16.015-3.731-.273.136h-.773c-.182,0-.227.091-.546,0s-.409-.046-.455-.136a2.093,2.093,0,0,1,.046-.682,9.323,9.323,0,0,1,.318-1.228c.136-.409.091-.91.182-1.228s.227-.864.273-.955a.182.182,0,0,1,.273-.045c.136.091.091.455.182.773l.318,1.046c0,.182.137.318.137.5s.136.637.136.819.182.864.046,1m3.64,3.685a9.387,9.387,0,0,0-.455-1.456c-.136-.318-.318-1.41-.5-1.956a15.288,15.288,0,0,1-.455-1.592q-.182-.591-.364-1.274l-.364-1.365-.182-.637a6.778,6.778,0,0,1-.182-.91l-.137-.591a7.553,7.553,0,0,1-.227-.864s-.046-.137-.318-1.183a2.912,2.912,0,0,0-.227-.91c-.091-.182-.546-.182-.682-.227h-.955a1.137,1.137,0,0,0-.819.273,1.911,1.911,0,0,0-.273.819l-.273.819c-.046.227-.273,1.683-.273,1.774l-.364,1.092c-.136.364,0,.409-.136.728s-.273,1.228-.364,1.5-.364,1.183-.409,1.365a11.892,11.892,0,0,0-.273,1.228,2.32,2.32,0,0,1-.137.546,2.776,2.776,0,0,0-.227.728,5.914,5.914,0,0,1-.227.91,10.646,10.646,0,0,0-.364,1.5c0,.273-.091.591-.091.864a.318.318,0,0,0,.137.227,2.411,2.411,0,0,0,.728.227,2.912,2.912,0,0,0,.955.045,1.365,1.365,0,0,0,.5-.182,1.775,1.775,0,0,0,.318-.728c.046-.182.091-.318.137-.546s0-.364.046-.5.091-.864.318-1.046.5-.091.819-.091h.728a7.916,7.916,0,0,1,1.592.046c.273.091.273.364.409.773a2.684,2.684,0,0,1,.091.728,4.414,4.414,0,0,0,.046.773,1.231,1.231,0,0,0,.5.864,2.548,2.548,0,0,0,1.137.091,3.048,3.048,0,0,0,.819-.137.5.5,0,0,0,.318-.546,8.189,8.189,0,0,0-.273-1.137" transform="translate(-82.3 -62.084)" fill="#fff"/>
  </g>
  <path id="Tracé_44" data-name="Tracé 44" d="M80.031,6.458c0-.364.046-1.092.046-1.456s.091-2.639.046-2.821V2.044l-.091-.091-.637-.227-.682-.091L75.936,1.18l-1.547-.091a19.109,19.109,0,0,0-2.047.045,15.924,15.924,0,0,0-1.865.364,29.347,29.347,0,0,0-3.185,1.137,25.686,25.686,0,0,0-2.639,1.638c-.409.318-.728.637-1.137.955l-.728.591L62.1,6.5l-1.5,1.41-.546.546-.455.5-.591.728v.091l-.819.773-.864.637a19.083,19.083,0,0,1-1.911,1.092l-1.046.364-1.137.273a23.706,23.706,0,0,1-2.593.364h-1.5l-1.228-.227a20.292,20.292,0,0,1-2.184-.728,20.447,20.447,0,0,1-1.911-1.092l-.864-.682-.819-.728L40.9,10.916,39.4,12.6l-1,.955c.318.318.637.682,1,1s2.047,1.5,2.5,1.82l1.41.819a16.2,16.2,0,0,0,1.592.591l1.683.546a15.56,15.56,0,0,0,1.865.364,37.172,37.172,0,0,0,4.095,0l1.82-.273a29.028,29.028,0,0,0,3.139-1.137l1.365-.728,1.319-.955,2.548-2.138,2-2,1.228-1.137,1.683-1.456A18.9,18.9,0,0,1,69.521,7.64l1.046-.455,1.183-.318,1.274-.182h2.229l1.5.136,1.956.546.591.273L79.849,8h.137a.456.456,0,0,0,0-.136c0-.273.046-1,.046-1.365" transform="translate(-20.929 -0.588)" fill="#fff"/>
  <path id="Tracé_45" data-name="Tracé 45" d="M40.721,4.368l-1.183-.91a27.083,27.083,0,0,0-2.73-1.638A30.71,30.71,0,0,0,33.578.591L31.667.227A16.879,16.879,0,0,0,29.619,0L27.572.136a30.574,30.574,0,0,0-3.5.864A29.71,29.71,0,0,0,21.2,2.411c-.455.273-3.139,2.366-3.5,2.684l-.273.318-1.547,1.5-.5.455-.5.5L14.2,8.6l-.773.773c-.273.227-2.411,1.729-2.73,1.865A10.419,10.419,0,0,1,9.6,11.6l-1.137.318-1.274.227-1.41.091L4.186,12.1,2.73,11.921l-1.274-.455-.591-.273-.546-.364-.091-.091H.045A.167.167,0,0,0,0,10.874V11.6c0,.364.045,1.046.045,1.41s.045,1.046.045,1.41v1.41c0,.364-.045.364-.045.728a.637.637,0,0,0,0,.091.409.409,0,0,0,0,.091H.182l1.228.409,1.365.273L5,17.562h.773a34.26,34.26,0,0,0,3.913-.455l1.683-.5a30.62,30.62,0,0,0,2.957-1.274c.455-.273.819-.637,1.228-.91l2-1.592,1-.955,1.5-1.683L21.293,9.1h.045l.864-.682.864-.637a18.146,18.146,0,0,1,1.82-1.228,7.78,7.78,0,0,1,1-.5,11.238,11.238,0,0,1,3.822-.546l1.365.091a9.282,9.282,0,0,1,2.411.5,19.246,19.246,0,0,1,1.956,1.046l1.774,1.274c.273.227.682.409.955.682l.5-.728.5-.5.546-.546,1.456-1.41.728-.591c-.364-.318-.819-.591-1.228-.91" fill="#fff"/>
</svg>
