<?xml version="1.0" encoding="UTF-8"?>
<svg width="85px" height="45px" viewBox="0 0 85 45" version="1.1" xmlns="http://www.w3.org/2000/svg" xmlns:xlink="http://www.w3.org/1999/xlink">
    <title>logo</title>
    <g id="Page-1" stroke="none" stroke-width="1" fill="none" fill-rule="evenodd">
        <g id="logo" transform="translate(0.400000, 0.278997)" fill="#FFFFFF" fill-rule="nonzero">
            <g id="Page-1">
                <g id="Group">
                    <path d="M50.7460755,14.7125639 C49.7399718,15.9586057 48.1858277,16.6020759 46.1245419,16.6020759 C44.0550763,16.6020759 42.4845728,15.950426 41.4811956,14.718017 C40.5841546,13.6192099 40.0933722,12.032347 40.0933722,9.90562355 C40.0933722,7.79798606 40.581428,6.18658404 41.4811956,5.08777692 C42.490026,3.84718823 44.0496232,3.20644462 46.1245419,3.20644462 C48.1831011,3.20644462 49.7536046,3.8580945 50.7488021,5.09323005 C51.6349369,6.19203718 52.1257192,7.80343919 52.1257192,9.90562355 C52.1257192,12.0023548 51.6349369,13.6137568 50.7460755,14.7125639 M46.1245419,0 C42.9126441,0 40.3660291,1.07699458 38.6973691,3.08920217 C37.3149989,4.74150271 36.5597394,7.01000775 36.5597394,9.91380325 C36.5597394,12.8148722 37.3177254,15.0779241 38.691916,16.7329512 C40.3578494,18.7451588 42.8990113,19.8276065 46.1245419,19.8276065 C49.3255333,19.8276065 51.8666952,18.7478854 53.5380817,16.7329512 C54.9149989,15.0806507 55.6757115,12.8148722 55.6757115,9.91380325 C55.6757115,7.01818745 54.9122723,4.75786212 53.5435349,3.10010844 C51.8776015,1.08790085 49.3364396,0 46.1245419,0" id="Fill-1"></path>
                    <polygon id="Fill-4" points="29.4553924 8.1598017 21.0330221 8.1598017 21.0330221 0.369995352 17.5566472 0.369995352 17.5566472 19.4532486 21.0330221 19.4532486 21.0330221 11.3580666 29.4553924 11.3580666 29.4553924 19.4532486 32.9181344 19.4532486 32.9181344 0.369995352 29.4553924 0.369995352"></polygon>
                    <path d="M8.78500387,8.59659799 L6.25474826,7.89859644 C4.55609605,7.47052517 3.69450039,6.66618745 3.69450039,5.51284895 C3.69450039,4.10866615 5.07959721,3.05348412 6.91185128,3.05348412 C8.8177227,3.05348412 10.0801239,4.06776762 10.142835,5.64099768 L13.6382959,5.64099768 C13.5755848,2.26550581 10.8980945,0.0024539117 6.96092951,0.0024539117 C3.10556158,0.0024539117 0.199039504,2.40456081 0.199039504,5.59464601 C0.199039504,8.1876127 1.91132455,9.97078854 5.28681642,10.903275 L7.81979861,11.5440186 C9.89744384,12.0675198 10.8626491,12.9918265 10.7644926,14.3687436 C10.6554299,15.8819892 9.2594268,16.8581007 7.20904725,16.8581007 C5.51584818,16.8581007 3.66178156,15.8874423 3.52,14.087907 L0,14.087907 C0.0763439194,17.4197738 3.09738187,19.8355136 7.20904725,19.8355136 C11.2116499,19.8355136 14.0445546,17.6733447 14.257227,14.4532672 C14.4426336,11.6176359 12.550395,9.59179551 8.78500387,8.59659799" id="Fill-6"></path>
                    <polygon id="Fill-8" points="74.0549648 15.1226398 71.7401081 9.92034702 76.0017347 0.369177382 72.7980167 0.369177382 70.1423389 6.32945624 67.4893877 0.369177382 64.2829431 0.369177382 68.5445697 9.92034702 66.229713 15.1226398 60.3594109 0.369177382 56.6049261 0.369177382 64.3020291 19.4524307 67.4921143 19.4524307 70.1423389 13.5712223 72.7925635 19.4524307 75.9853753 19.4524307 83.690658 0.369177382 79.9252669 0.369177382"></polygon>
                </g>
                <polygon id="Fill-17" points="58.580598 27.2084276 58.580598 24.9072037 44.3942618 24.9072037 44.3942618 28.0891092 53.7463919 28.0891092 44.3151913 41.7001394 44.3151913 43.9986367 58.7414655 43.9986367 58.7414655 40.8003718 49.1166785 40.8003718"></polygon>
                <polygon id="Fill-21" points="40.8472688 27.2084276 40.8472688 24.9072037 26.6609325 24.9072037 26.6609325 28.0891092 36.0130627 28.0891092 26.581862 41.7001394 26.581862 43.9986367 41.0081363 43.9986367 41.0081363 40.8003718 31.3833493 40.8003718"></polygon>
                <path d="M9.17217653,40.8093695 L4.22618118,40.8093695 L4.22618118,35.8715538 L9.42302084,35.8715538 C10.8762819,35.8715538 12.0432532,36.7849543 12.0432532,38.3581844 C12.0432532,40.0595631 10.9635321,40.8093695 9.17217653,40.8093695 L9.17217653,40.8093695 Z M4.22618118,28.0899272 L8.72774586,28.0899272 C10.363687,28.0899272 11.3098063,29.0414996 11.3098063,30.4456824 C11.3098063,31.9752874 10.4209449,32.7714454 9.07402007,32.7714454 L4.22618118,32.7714454 L4.22618118,28.0899272 Z M13.1447869,34.1047374 C14.1508907,33.2894934 14.8352594,32.0052796 14.8352594,30.2793617 C14.8352594,26.8438854 12.3895274,24.9162014 9.01403556,24.9162014 L0.763439118,24.9162014 L0.763439118,43.9994547 L9.46664594,43.9994547 C13.1611463,43.9994547 15.5768861,42.0581379 15.5768861,38.4781534 C15.5768861,36.4032347 14.5080712,34.8381844 13.1447869,34.1047374 L13.1447869,34.1047374 Z" id="Fill-23"></path>
                <polygon id="Fill-25" points="18.8842137 44 22.3605886 44 22.3605886 24.9167467 18.8842137 24.9167467"></polygon>
            </g>
            <polygon id="Combined-Shape" points="72.017764 26.6303052 72.017764 32.2652136 77.6526723 32.2652136 77.6526723 35.5370958 72.017764 35.5370958 72.017764 41.1720042 68.7458817 41.1720042 68.7458817 35.5370958 63.1109734 35.5370958 63.1109734 32.2652136 68.7458817 32.2652136 68.7458817 26.6303052"></polygon>
        </g>
    </g>
</svg>