<svg width="162" height="51" xmlns="http://www.w3.org/2000/svg"><g fill="#FFF"><path d="M123.375 10.356c-.15-.73-.655-.797-.89-.797-.553 0-.853.414-.853.797 0 .529.383.643 1.574 1.026 1.16.346 2.6.895 2.6 2.748 0 2.07-1.66 3.212-3.253 3.212-.92 0-2.062-.314-2.783-1.208-.572-.696-.656-1.425-.705-1.986h2.279c.103.412.303 1.175 1.224 1.175.722 0 1.008-.546 1.008-.928 0-.677-.504-.844-2.096-1.372-1.058-.35-2.08-1.13-2.08-2.634 0-1.79 1.626-2.849 3.119-2.849 1.392 0 2.953.993 3.036 2.816h-2.18zm-39.933 13.04h2.061v.795c.37-.35 1.141-1.11 2.549-1.11.806 0 2.03.348 2.8 1.275.856 1.01.856 2.548.856 3.261v4.969h-2.23v-4.537c0-.762 0-2.948-1.879-2.948-.402 0-1.122.2-1.526.812-.401.562-.401 1.522-.401 2.301v4.372h-2.23v-9.19zm11.505 1.953h-1.09v-1.953h1.09v-3.063h2.23v3.063h1.342v1.953h-1.342v7.237h-2.23zm6.123-1.953h2.046v.81h.033c.419-.596.84-1.124 1.995-1.124h.185v2.135c-2.029.084-2.029 1.656-2.029 2.202v5.167h-2.23v-9.19zm22.552 7.468a2.785 2.785 0 0 1-2.717-2.881c0-1.773 1.358-2.883 2.75-2.883 1.374 0 2.683 1.193 2.683 2.883 0 1.886-1.526 2.881-2.716 2.881m.284-7.782c-.436 0-1.91 0-3.016 1.389h-.036v-1.075h-2.045v12.253h2.229v-3.94c.588.545 1.293 1.174 2.868 1.174 2.633 0 4.662-2.219 4.662-4.934 0-2.27-1.61-4.867-4.662-4.867m7.23.314h2.044v.81h.034c.42-.596.84-1.124 1.995-1.124h.185v2.135c-2.029.084-2.029 1.656-2.029 2.202v5.167h-2.23v-9.19zm7.1 9.19h2.23v-9.19h-2.23v9.19zm0-10.233h2.23v-2.02h-2.23v2.02zm9.107 3.544c-.148-.729-.652-.797-.889-.797-.553 0-.853.414-.853.797 0 .529.384.643 1.575 1.026 1.156.346 2.6.895 2.6 2.748 0 2.07-1.66 3.212-3.252 3.212-.923 0-2.063-.314-2.784-1.21-.573-.694-.656-1.423-.706-1.987h2.28c.103.415.303 1.178 1.224 1.178.722 0 1.008-.548 1.008-.929 0-.678-.504-.843-2.096-1.371-1.058-.35-2.08-1.13-2.08-2.636 0-1.788 1.626-2.847 3.12-2.847 1.39 0 2.95.993 3.035 2.816h-2.182zm-43.91-11.83c-.586.91-1.317 1.257-2.049 1.257-1.676 0-2.8-1.309-2.8-2.883 0-1.886 1.342-2.881 2.7-2.881 1.344 0 1.87.837 2.142 1.307l1.716-1.474c-1.18-1.509-2.938-1.853-3.858-1.853-2.565 0-4.93 2.053-4.93 4.868 0 3.047 2.565 4.935 4.946 4.935 1.586 0 2.927-.663 3.834-1.811l-1.701-1.466zm-10.932-.005c-.586.916-1.318 1.262-2.053 1.262-1.676 0-2.8-1.309-2.8-2.883 0-1.886 1.342-2.881 2.701-2.881 1.348 0 1.874.843 2.146 1.313l1.714-1.476c-1.18-1.51-2.94-1.857-3.86-1.857-2.566 0-4.932 2.053-4.932 4.869 0 3.046 2.566 4.934 4.947 4.934 1.59 0 2.932-.665 3.838-1.817l-1.701-1.464zm19.412-6.522c-2.666 0-4.963 2.136-4.963 4.917 0 2.633 2.196 4.886 4.963 4.886a4.954 4.954 0 0 0 3.83-1.784l-1.647-1.419c-.47.696-1.226 1.183-2.183 1.183-1.408 0-2.733-1.127-2.733-2.866 0-1.92 1.577-2.898 2.733-2.898 1.153 0 2.237.862 2.578 2.104h-3.307l2.11 1.772h3.449c.062-.323.1-.657.1-1.011 0-2.814-2.297-4.884-4.93-4.884m-1.74-4.586l3.724 2.237-.891 1.523-3.788-2.071zm1.74 20.166c-2.666 0-4.963 2.135-4.963 4.918 0 2.632 2.197 4.885 4.963 4.885a4.951 4.951 0 0 0 3.83-1.784l-1.647-1.419c-.47.694-1.226 1.181-2.183 1.181-1.408 0-2.732-1.125-2.732-2.863 0-1.919 1.576-2.897 2.732-2.897 1.153 0 2.237.858 2.578 2.101h-3.308l2.111 1.775h3.449c.062-.323.1-.66.1-1.013 0-2.814-2.297-4.884-4.93-4.884m-35.356 0c-2.667 0-4.964 2.135-4.964 4.918 0 2.632 2.198 4.885 4.964 4.885a4.95 4.95 0 0 0 3.83-1.784l-1.648-1.419c-.468.694-1.226 1.181-2.182 1.181-1.409 0-2.733-1.125-2.733-2.863 0-1.919 1.576-2.897 2.733-2.897 1.154 0 2.236.858 2.578 2.101h-3.309l2.111 1.775h3.449c.062-.323.1-.66.1-1.013 0-2.814-2.297-4.884-4.93-4.884m80.114-.066c-2.667 0-4.964 2.138-4.964 4.92 0 2.632 2.196 4.885 4.964 4.885a4.947 4.947 0 0 0 3.829-1.784l-1.648-1.417c-.467.691-1.226 1.181-2.181 1.181-1.41 0-2.734-1.125-2.734-2.865 0-1.92 1.578-2.897 2.734-2.897 1.153 0 2.237.858 2.578 2.103h-3.31l2.111 1.77h3.45c.063-.32.101-.656.101-1.01 0-2.816-2.3-4.886-4.93-4.886M76.512 11.746l1.408-3.758h.034l1.407 3.758h-2.85zm2.33-6.953h-1.794l-5.165 12.251h2.532l1.326-3.162h4.443l1.325 3.162h2.532l-5.199-12.25zm10.893 46.043h-.839V49.77h-.024c-.255.516-.927 1.23-2.222 1.23-1.37 0-2.081-.653-2.385-1.028-.496-.601-.611-1.479-.611-2.206V43.98h.889v3.774c0 .865.19 1.429.494 1.806.483.538 1.13.65 1.613.65.496 0 1.029-.112 1.472-.552.406-.4.724-.852.724-2.055V43.98h.89v6.856zm7.343-9.098l-.406-.753-2.527 1.365.42.729zm.511 7.513c-.448.54-1.167.934-2.082.958v-.002a3.137 3.137 0 0 1-.554-.063l-.078-.02a2.301 2.301 0 0 1-.335-.11c-.087-.035-.175-.068-.258-.11l-.013-.007c-.614-.328-1.11-.88-1.334-1.529h-.01a2.907 2.907 0 0 1-.173-.977c0-.354.068-.665.17-.954h.006a3.06 3.06 0 0 1 .191-.44l.008-.01a2.488 2.488 0 0 1 .446-.58c.025-.026.047-.053.072-.076a2.891 2.891 0 0 1 1.862-.733v-.004c1.104.002 2.433.73 2.713 2.344h-3.295l.918.791h3.278c.038-.664-.064-1.43-.533-2.169a3.608 3.608 0 0 0-3.096-1.753c-.101 0-.196.024-.295.034-1.617.143-2.927 1.323-3.24 2.864a3.582 3.582 0 0 0 .002 1.428c.019.088.052.167.076.253.041.143.078.288.136.426.025.06.06.114.092.172.075.156.153.31.25.452.012.015.028.03.039.046.386.542.917.98 1.562 1.24.04.017.084.025.125.041.172.062.344.123.528.16.24.05.486.077.737.077 1.085 0 2.04-.486 2.698-1.22l-.613-.53zm17.935 0c-.45.54-1.167.934-2.083.958v-.002a3.115 3.115 0 0 1-.552-.063l-.078-.02a2.327 2.327 0 0 1-.337-.11c-.088-.035-.174-.068-.256-.11l-.014-.007c-.616-.328-1.11-.88-1.334-1.529h-.008a2.883 2.883 0 0 1-.177-.977c0-.354.07-.665.172-.954h.006c.052-.157.119-.302.192-.44l.007-.01a2.586 2.586 0 0 1 .446-.58c.025-.026.047-.053.071-.076a2.894 2.894 0 0 1 1.862-.733v-.004c1.105.002 2.433.73 2.712 2.344h-3.294l.919.791h3.278c.038-.664-.063-1.43-.534-2.169a3.606 3.606 0 0 0-3.097-1.753c-.102 0-.194.024-.293.034-1.617.143-2.927 1.323-3.24 2.864a3.509 3.509 0 0 0 .003 1.428c.017.088.05.167.075.253.04.143.077.288.136.426.025.06.061.114.092.172.076.156.154.31.251.452.012.015.027.03.038.046.386.542.917.98 1.562 1.24.04.017.083.025.124.041.172.062.344.123.529.16.239.05.484.077.736.077a3.615 3.615 0 0 0 2.698-1.22l-.612-.53zm-39.207.888c-2.227 0-4.102-1.792-4.102-3.91 0-2.307 1.941-4.011 4.102-4.011 2.263 0 4.112 1.805 4.112 3.972 0 2.208-1.902 3.949-4.112 3.949m3.515-.518c.945-.858 1.555-2.067 1.555-3.442 0-2.734-2.38-4.801-5.07-4.801-2.549 0-5.06 1.932-5.06 4.85 0 2.606 2.343 4.75 5.06 4.75 1.004 0 1.97-.291 2.784-.8a.832.832 0 0 1 .038.021c.495.423.927.8 2.096.8v-.84c-.433 0-.826-.024-1.397-.5l-.006-.038m24.8.59a2.772 2.772 0 0 1-2.78-2.797c0-1.504 1.181-2.82 2.78-2.82 1.523 0 2.843 1.092 2.843 2.834 0 1.529-1.143 2.783-2.844 2.783m0-6.404c-.748 0-1.915.26-2.704 1.378h-.025v-3.624h-.888v9.276h.888v-1.203h.025c.774 1.115 1.98 1.366 2.704 1.366 2.184 0 3.733-1.64 3.733-3.61 0-1.83-1.46-3.583-3.733-3.583m17.669 6.402c-1.666 0-2.868-1.277-2.868-2.82 0-1.79 1.507-2.797 2.868-2.797.649 0 1.375.23 1.933.772l.649-.552c-.763-.718-1.768-1.005-2.607-1.005-2.07 0-3.729 1.625-3.729 3.607 0 1.918 1.556 3.586 3.729 3.586 1.333 0 2.19-.549 2.75-1.162l-.619-.533c-.394.451-1.061.904-2.106.904"/><path d="M42.731 40.716v8.741l4.291-2.542-.033-20.641c-.58-10.305-9.253-18.512-19.833-18.512-10.954 0-19.866 8.796-19.866 19.613 0 8.805 7.337 15.97 16.354 15.97 5.622 0 10.78-2.77 13.8-7.401.17-.258.33-.521.484-.79l.09-.147a16.016 16.016 0 0 0 2.07-7.77h-4.29a11.891 11.891 0 0 1-1.462 5.586l-.09.154c-.127.227-.26.45-.406.67-2.229 3.42-6.041 5.463-10.196 5.463-6.653 0-12.063-5.266-12.063-11.735 0-8.48 6.986-15.378 15.575-15.378 8.589 0 15.575 6.899 15.575 15.378 0 10.462-8.618 18.973-19.216 18.973-10.595 0-19.215-8.51-19.215-18.973v-.076c0-12.442 10.25-22.564 22.853-22.564 12.6 0 22.851 10.122 22.851 22.564v19.594l4.29 2.545V27.3C54.294 12.521 42.118.5 27.153.5 12.186.5 0 12.545 0 27.323l.108 2.094c1.049 11.842 11.144 21.166 23.407 21.166a23.58 23.58 0 0 0 19.216-9.867m-3.566-18.17l-7.927 4.709h-8.332l10.198-6.05a8.452 8.452 0 0 0-5.784-2.276c-4.657 0-8.431 3.728-8.432 8.326h-.005c0 2.33 1.319 4.356 3.258 5.392l-4.05 2.402c-2.171-1.915-3.546-4.693-3.546-7.794 0-6.966 5.72-12.614 12.775-12.614a12.79 12.79 0 0 1 9.593 4.304 12.61 12.61 0 0 1 2.252 3.601"/><path d="M39.166 22.546l-7.928 4.708h-8.332l10.198-6.05a8.456 8.456 0 0 0-5.784-2.275c-4.657 0-8.43 3.727-8.432 8.325h-.005c0 2.33 1.318 4.357 3.258 5.392l-4.05 2.403c-2.17-1.915-3.545-4.693-3.545-7.795 0-6.966 5.72-12.613 12.774-12.613a12.79 12.79 0 0 1 9.592 4.304 12.591 12.591 0 0 1 2.254 3.601"/></g></svg>