<?xml version="1.0" encoding="UTF-8"?>
<svg width="162px" height="51px" viewBox="0 0 162 51" version="1.1" xmlns="http://www.w3.org/2000/svg" xmlns:xlink="http://www.w3.org/1999/xlink">
    <title>logo</title>
    <g id="Page-1" stroke="none" stroke-width="1" fill="none" fill-rule="evenodd">
        <g id="logo" transform="translate(0.000000, 0.500000)" fill="#FFFFFF" fill-rule="nonzero">
            <g id="Group-12" transform="translate(71.256590, 2.454071)">
                <path d="M52.1184747,7.40221313 C51.9683243,6.67188214 51.4634566,6.60521704 51.2276501,6.60521704 C50.6754194,6.60521704 50.3751189,7.01913762 50.3751189,7.40221313 C50.3751189,7.93055882 50.7580526,8.04498397 51.9491776,8.42805957 C53.1080557,8.77432005 54.5490954,9.32256577 54.5490954,11.1762533 C54.5490954,13.2458562 52.8883727,14.3881177 51.2961751,14.3881177 C50.3751189,14.3881177 49.2343799,14.0736972 48.5128522,13.180186 C47.941475,12.4836851 47.8568266,11.7553441 47.808456,11.1941633 L50.086911,11.1941633 C50.1896985,11.6060939 50.3902347,12.3692599 51.3112909,12.3692599 C52.0328184,12.3692599 52.3190109,11.8230042 52.3190109,11.4409237 C52.3190109,10.7643227 51.8151509,10.5971625 50.2229533,10.0688168 C49.1648471,9.71857628 48.143019,8.93949024 48.143019,7.43504818 C48.143019,5.64504073 49.7694793,4.58635927 51.2619125,4.58635927 C52.653574,4.58635927 54.2145323,5.57937065 54.298173,7.40221313 L52.1184747,7.40221313 Z" id="Fill-1"></path>
                <path d="M12.1846454,20.4422035 L14.2464406,20.4422035 L14.2464406,21.2372095 C14.6152662,20.8869691 15.3871797,20.1277831 16.7949646,20.1277831 C17.6011406,20.1277831 18.8245127,20.4750386 19.5954186,21.4023799 C20.450973,22.4123062 20.450973,23.9495832 20.450973,24.6629993 L20.450973,29.6320361 L18.2208884,29.6320361 L18.2208884,25.0948298 C18.2208884,24.3326589 18.2208884,22.1466408 16.3424983,22.1466408 C15.940418,22.1466408 15.2198982,22.3466361 14.8158024,22.9585619 C14.4147299,23.5207377 14.4147299,24.4809141 14.4147299,25.2600002 L14.4147299,29.6320361 L12.1846454,29.6320361 L12.1846454,20.4422035 Z" id="Fill-3"></path>
                <polygon id="Fill-5" points="23.6897852 22.3952917 22.599432 22.3952917 22.599432 20.442104 23.6897852 20.442104 23.6897852 17.3794899 25.9198697 17.3794899 25.9198697 20.442104 27.2621526 20.442104 27.2621526 22.3952917 25.9198697 22.3952917 25.9198697 29.6319365 23.6897852 29.6319365"></polygon>
                <path d="M29.8128937,20.4422035 L31.8585654,20.4422035 L31.8585654,21.2521346 L31.8918202,21.2521346 C32.3110318,20.6561287 32.7312511,20.1277831 33.8871058,20.1277831 L34.0715187,20.1277831 L34.0715187,22.2630559 C32.0429781,22.3466361 32.0429781,23.9187383 32.0429781,24.464994 L32.0429781,29.6320361 L29.8128937,29.6320361 L29.8128937,20.4422035 Z" id="Fill-7"></path>
                <path d="M52.3645598,27.9104848 C51.3074615,27.9104848 49.6477466,27.0647335 49.6477466,25.0289608 C49.6477466,23.2558684 51.0061533,22.1464418 52.3978146,22.1464418 C53.7723448,22.1464418 55.0813732,23.3394485 55.0813732,25.0289608 C55.0813732,26.9154833 53.5546772,27.9104848 52.3645598,27.9104848 M52.6487369,20.1275841 C52.2134018,20.1275841 50.7391074,20.1275841 49.6326308,21.516606 L49.5973606,21.516606 L49.5973606,20.4420045 L47.5516889,20.4420045 L47.5516889,32.6954462 L49.7807656,32.6954462 L49.7807656,28.7542458 C50.3692741,29.2995067 51.0736705,29.9293425 52.6487369,29.9293425 C55.2819094,29.9293425 57.3114576,27.7104895 57.3114576,24.9951307 C57.3114576,22.7255326 55.701121,20.1275841 52.6487369,20.1275841" id="Fill-9"></path>
                <path d="M59.8781204,20.4422035 L61.9227845,20.4422035 L61.9227845,21.2521346 L61.9570469,21.2521346 C62.3762585,20.6561287 62.7964778,20.1277831 63.9523327,20.1277831 L64.1367454,20.1277831 L64.1367454,22.2630559 C62.108205,22.3466361 62.108205,23.9187383 62.108205,24.464994 L62.108205,29.6320361 L59.8781204,29.6320361 L59.8781204,20.4422035 Z" id="Fill-11"></path>
                <path d="M66.9793221,29.6323345 L69.2094065,29.6323345 L69.2094065,20.4425019 L66.9793221,20.4425019 L66.9793221,29.6323345 Z M66.9793221,19.3987455 L69.2094065,19.3987455 L69.2094065,17.3798878 L66.9793221,17.3798878 L66.9793221,19.3987455 Z" id="Fill-13"></path>
                <path d="M76.0862898,22.9433384 C75.9381549,22.2140024 75.4342948,22.1463423 75.1974807,22.1463423 C74.6442424,22.1463423 74.3439418,22.5602629 74.3439418,22.9433384 C74.3439418,23.4716842 74.7278832,23.5861093 75.9190081,23.9691848 C77.0748631,24.3154453 78.5189256,24.863691 78.5189256,26.7173785 C78.5189256,28.7869815 76.8582033,29.929243 75.2670134,29.929243 C74.3439418,29.929243 73.2042105,29.6148226 72.4826829,28.7193213 C71.9102979,28.0248104 71.8266571,27.2964694 71.7772789,26.7323036 L74.0567415,26.7323036 C74.1595291,27.1472192 74.3600654,27.9103852 75.2811214,27.9103852 C76.0026489,27.9103852 76.2888415,27.3621394 76.2888415,26.981054 C76.2888415,26.303458 75.7849815,26.1382878 74.1927838,25.6099421 C73.1346776,25.2597015 72.1128495,24.4806155 72.1128495,22.9741835 C72.1128495,21.1861659 73.7393098,20.1274846 75.2327509,20.1274846 C76.6234046,20.1274846 78.1823477,21.1204959 78.2680035,22.9433384 L76.0862898,22.9433384 Z" id="Fill-15"></path>
                <path d="M32.175695,11.1120757 C31.5902096,12.023497 30.8586048,12.3697575 30.127,12.3697575 C28.4511615,12.3697575 27.326546,11.0613307 27.326546,9.4872385 C27.326546,7.60071591 28.6688291,6.60571455 30.0272358,6.60571455 C31.3705265,6.60571455 31.8965564,7.44251069 32.1686408,7.91314634 L33.8847881,6.43855431 C32.704748,4.93013225 30.9472842,4.58586178 30.0272358,4.58586178 C27.4615805,4.58586178 25.0964617,6.6385496 25.0964617,9.45440347 C25.0964617,12.5010976 27.6621169,14.3886152 30.0433592,14.3886152 C31.6285029,14.3886152 32.9697783,13.7259443 33.8767264,12.5777127 L32.175695,11.1120757 Z" id="Fill-16"></path>
                <path d="M21.2437463,11.1081952 C20.658261,12.0235964 19.9256484,12.3698569 19.1910205,12.3698569 C17.5151822,12.3698569 16.3915743,11.0614302 16.3915743,9.48733802 C16.3915743,7.60081541 17.7328496,6.60581405 19.092264,6.60581405 C20.4395857,6.60581405 20.9656156,7.44858019 21.2377,7.91921582 L22.9518318,6.44263382 C21.7717916,4.93222175 20.0123124,4.58596129 19.092264,4.58596129 C16.5256011,4.58596129 14.1604821,6.63864909 14.1604821,9.45450292 C14.1604821,12.5011972 16.7261373,14.3887147 19.1073797,14.3887147 C20.6965543,14.3887147 22.0388374,13.7240538 22.9447778,12.5718422 L21.2437463,11.1081952 Z" id="Fill-17"></path>
                <path d="M40.6556591,4.58625979 C37.9902396,4.58625979 35.6926379,6.7215327 35.6926379,9.50256152 C35.6926379,12.1363301 37.8894676,14.3890132 40.6556591,14.3890132 C42.1541387,14.3890132 43.5568852,13.7313173 44.4860031,12.6049757 L42.8393884,11.1861038 C42.3697909,11.8816098 41.6129932,12.3691605 40.6556591,12.3691605 C39.2478741,12.3691605 37.9227223,11.2418239 37.9227223,9.50256152 C37.9227223,7.58320389 39.4998042,6.60511754 40.6556591,6.60511754 C41.8094986,6.60511754 42.8927976,7.46678873 43.2344147,8.7085504 L39.9270775,8.7085504 L42.0372432,10.4806479 L45.4856614,10.4806479 C45.54814,10.1582674 45.5864333,9.82394694 45.5864333,9.4697265 C45.5864333,6.65586262 43.2888315,4.58625979 40.6556591,4.58625979" id="Fill-18"></path>
                <polygon id="Fill-19" points="38.9162336 0 42.639759 2.23676307 41.7489347 3.76011014 37.960915 1.68851731"></polygon>
                <path d="M40.6556591,20.1661901 C37.9902396,20.1661901 35.6926379,22.301463 35.6926379,25.0844818 C35.6926379,27.7162604 37.8904754,29.9689436 40.6556591,29.9689436 C42.1541387,29.9689436 43.5589007,29.3112476 44.4860031,28.1849062 L42.8393884,26.7660341 C42.3697909,27.4595501 41.6129932,27.9471008 40.6556591,27.9471008 C39.2478741,27.9471008 37.9237301,26.8217542 37.9237301,25.0844818 C37.9237301,23.1651243 39.4998042,22.1870379 40.6556591,22.1870379 C41.8094986,22.1870379 42.8927976,23.0447291 43.2344147,24.2884808 L39.9260698,24.2884808 L42.0372432,26.0625682 L45.4856614,26.0625682 C45.54814,25.7401877 45.5864333,25.4038774 45.5864333,25.0496567 C45.5864333,22.235793 43.2888315,20.1661901 40.6556591,20.1661901" id="Fill-20"></path>
                <path d="M5.29990205,20.1661901 C2.63347479,20.1661901 0.335873092,22.301463 0.335873092,25.0844818 C0.335873092,27.7162604 2.53371051,29.9689436 5.29990205,29.9689436 C6.79737404,29.9689436 8.20213578,29.3112476 9.12923825,28.1849062 L7.48161594,26.7660341 C7.01403384,27.4595501 6.25622837,27.9471008 5.29990205,27.9471008 C3.89110942,27.9471008 2.56696528,26.8217542 2.56696528,25.0844818 C2.56696528,23.1651243 4.14303943,22.1870379 5.29990205,22.1870379 C6.45374149,22.1870379 7.53603282,23.0447291 7.87764989,24.2884808 L4.569305,24.2884808 L6.6804785,26.0625682 L10.1288965,26.0625682 C10.1913752,25.7401877 10.2296685,25.4038774 10.2296685,25.0496567 C10.2296685,22.235793 7.93206682,20.1661901 5.29990205,20.1661901" id="Fill-21"></path>
                <path d="M85.4126379,20.100122 C82.7462107,20.100122 80.4486091,22.23838 80.4486091,25.0204038 C80.4486091,27.6521823 82.6454391,29.9048655 85.4126379,29.9048655 C86.9091021,29.9048655 88.3138637,29.2491595 89.2419744,28.1208281 L87.5943521,26.703946 C87.1267695,27.395472 86.3679565,27.8850128 85.4126379,27.8850128 C84.0038456,27.8850128 82.6786937,26.7596662 82.6786937,25.0204038 C82.6786937,23.0990561 84.256783,22.1229598 85.4126379,22.1229598 C86.5664774,22.1229598 87.6497763,22.980651 87.9913932,24.2263927 L84.6810335,24.2263927 L86.792207,25.9965001 L90.2426405,25.9965001 C90.3051191,25.6761098 90.3434121,25.3397993 90.3434121,24.9855788 C90.3434121,22.1697248 88.0437951,20.100122 85.4126379,20.100122" id="Fill-22"></path>
                <path d="M5.25455464,8.79173253 L6.66334727,5.03361239 L6.69660202,5.03361239 L8.10438689,8.79173253 L5.25455464,8.79173253 Z M7.58541111,1.83866303 L5.7906617,1.83866303 L0.626096465,14.0911098 L3.15849694,14.0911098 L4.48364881,10.9289955 L8.92668647,10.9289955 L10.2518383,14.0911098 L12.7842389,14.0911098 L7.58541111,1.83866303 Z" id="Fill-24"></path>
                <path d="M18.4784618,47.8824506 L17.6390309,47.8824506 L17.6390309,46.8158091 L17.6148457,46.8158091 C17.3598925,47.3322149 16.6877432,48.0456308 15.3928229,48.0456308 C14.0223237,48.0456308 13.311881,47.3929099 13.0075496,47.0177943 C12.5117513,46.4168135 12.3968712,45.5392223 12.3968712,44.8118764 L12.3968712,41.0258962 L13.2856803,41.0258962 L13.2856803,44.7999363 C13.2856803,45.6645926 13.4761394,46.2287582 13.7804709,46.6058638 C14.2631687,47.1441596 14.910125,47.2565947 15.3928229,47.2565947 C15.8886212,47.2565947 16.4217051,47.1441596 16.8651019,46.7043689 C17.2712131,46.3043785 17.5886449,45.8516528 17.5886449,44.6486962 L17.5886449,41.0258962 L18.4784618,41.0258962 L18.4784618,47.8824506 Z" id="Fill-26"></path>
                <polygon id="Fill-27" points="25.8208107 38.7836606 25.4146995 38.0314395 22.8883454 39.3955865 23.307557 40.1249225"></polygon>
                <path d="M26.331624,46.2967169 C25.8841963,46.8370026 25.1646843,47.2310232 24.2496744,47.2549032 L24.2496744,47.2529132 C24.0592154,47.2489331 23.8748025,47.2260482 23.6964362,47.1902281 C23.6702354,47.1832632 23.6450425,47.1772932 23.6178339,47.169333 C23.5009384,47.142468 23.391097,47.103663 23.2832709,47.0608779 C23.1955992,47.0250579 23.1079277,46.9922228 23.0252945,46.9494378 C23.0202559,46.9474478 23.0172328,46.9454578 23.0121941,46.9434677 C22.3984927,46.6151174 21.9016867,46.0638865 21.6779728,45.4141506 L21.6689033,45.4141506 C21.5600696,45.1096802 21.4945678,44.7793398 21.4945678,44.4370593 C21.4945678,44.0828388 21.5630927,43.7723985 21.6648724,43.482853 L21.6709188,43.482853 C21.7243279,43.3256428 21.7898299,43.1813677 21.8623857,43.0430625 C21.864401,43.0400774 21.8684319,43.0360974 21.8704474,43.0321174 C21.9379647,42.9097322 22.0145513,42.7982922 22.095169,42.6958069 C22.163694,42.6102369 22.2382653,42.5266567 22.3158597,42.4530267 C22.3410527,42.4271566 22.3632225,42.4002916 22.3884155,42.3774065 C22.9124299,41.9067709 23.5966719,41.6540406 24.2496744,41.6440906 L24.2496744,41.6401105 C25.3541355,41.6421006 26.6833183,42.3694465 26.9634645,43.9843336 L23.66822,43.9843336 L24.5862529,44.7753598 L27.8643661,44.7753598 C27.9016518,44.1106988 27.7998721,43.3445478 27.3312823,42.6062568 C26.8364918,41.7535406 25.7562159,40.8630145 24.2345586,40.8530645 C24.1337867,40.8530645 24.039061,40.8769444 23.9403043,40.8868944 C22.3229137,41.0301747 21.0128776,42.2102463 20.6994767,43.7505084 C20.6531216,43.9803538 20.6289363,44.2171641 20.6289363,44.4599444 C20.6289363,44.7047147 20.655137,44.9465001 20.7024998,45.1793304 C20.7206387,45.2668905 20.7538935,45.3464906 20.7780788,45.4320607 C20.8193954,45.5753409 20.8556732,45.7196161 20.9141211,45.8579213 C20.9393141,45.9176213 20.9745843,45.9723465 21.0058236,46.0300566 C21.0814025,46.1862717 21.1589972,46.3395018 21.256746,46.4817872 C21.2678309,46.4967122 21.2839544,46.5126322 21.2950393,46.5275572 C21.6809961,47.0698329 22.2120646,47.5076335 22.8570053,47.768324 C22.8973141,47.7852389 22.9406461,47.7931989 22.9819626,47.8091189 C23.1542828,47.870809 23.3255951,47.9315041 23.510008,47.9683191 C23.7498453,48.0180692 23.9957289,48.0459292 24.2466513,48.0459292 C25.3319657,48.0459292 26.2872843,47.5603686 26.9453256,46.8250626 L26.331624,46.2967169 Z" id="Fill-28"></path>
                <path d="M44.2673278,46.2967169 C43.8168769,46.8370026 43.1003879,47.2310232 42.1843704,47.2549032 L42.1843704,47.2529132 C41.9939113,47.2489331 41.8094986,47.2260482 41.6321397,47.1902281 C41.6049313,47.1832632 41.5797384,47.1772932 41.5535377,47.169333 C41.4356344,47.142468 41.325793,47.103663 41.2169593,47.0608779 C41.1292875,47.0250579 41.0426236,46.9922228 40.9609983,46.9494378 C40.9549519,46.9474478 40.9519288,46.9454578 40.9468901,46.9434677 C40.3311733,46.6151174 39.8363826,46.0638865 39.6126688,45.4141506 L39.6046071,45.4141506 C39.4947656,45.1096802 39.4282561,44.7793398 39.4282561,44.4370593 C39.4282561,44.0828388 39.4987965,43.7723985 39.5995684,43.482853 L39.6056148,43.482853 C39.6580163,43.3256428 39.7245258,43.1813677 39.7980893,43.0430625 C39.8001048,43.0400774 39.8041357,43.0360974 39.8051433,43.0321174 C39.8736683,42.9097322 39.9492473,42.7982922 40.029865,42.6958069 C40.0983899,42.6102369 40.1719534,42.5266567 40.2505557,42.4530267 C40.2757486,42.4271566 40.2979185,42.4002916 40.3221038,42.3774065 C40.8461182,41.9067709 41.5313678,41.6540406 42.1843704,41.6440906 L42.1843704,41.6401105 C43.2888315,41.6421006 44.6170066,42.3694465 44.896145,43.9843336 L41.6019083,43.9843336 L42.5209488,44.7753598 L45.7990621,44.7753598 C45.8373556,44.1106988 45.7355759,43.3445478 45.2649706,42.6062568 C44.7711878,41.7535406 43.6909119,40.8630145 42.168247,40.8530645 C42.0664672,40.8530645 41.9737569,40.8769444 41.8750003,40.8868944 C40.2576097,41.0301747 38.9475735,42.2102463 38.6351804,43.7505084 C38.5878176,43.9803538 38.5636323,44.2171641 38.5636323,44.4599444 C38.5636323,44.7047147 38.5888252,44.9465001 38.6382036,45.1793304 C38.6553347,45.2668905 38.6885895,45.3464906 38.7127748,45.4320607 C38.7530838,45.5753409 38.7903692,45.7196161 38.8488171,45.8579213 C38.87401,45.9176213 38.9102881,45.9723465 38.9405196,46.0300566 C39.0171063,46.1862717 39.0947007,46.3395018 39.1924495,46.4817872 C39.2035345,46.4967122 39.2186503,46.5126322 39.2297352,46.5275572 C39.615692,47.0698329 40.1467605,47.5076335 40.7917012,47.768324 C40.8320102,47.7852389 40.8753421,47.7931989 40.9156508,47.8091189 C41.0879709,47.870809 41.2602911,47.9315041 41.4447039,47.9683191 C41.6835336,48.0180692 41.9294173,48.0459292 42.1813473,48.0459292 C43.265654,48.0459292 44.2219803,47.5603686 44.8790137,46.8250626 L44.2673278,46.2967169 Z" id="Fill-29"></path>
                <path d="M5.05976236,47.1847555 C2.83270105,47.1847555 0.958341761,45.3927581 0.958341761,43.2744003 C0.958341761,40.9679872 2.89921057,39.2635497 5.05976236,39.2635497 C7.32310159,39.2635497 9.1722679,41.0694772 9.1722679,43.2355952 C9.1722679,45.4435033 7.26969241,47.1847555 5.05976236,47.1847555 M8.5746899,46.6673549 C9.51993126,45.8086688 10.1296019,44.599742 10.1296019,43.2246503 C10.1296019,40.4913815 7.75037489,38.4237687 5.05976236,38.4237687 C2.51123836,38.4237687 0,40.3560613 0,43.2744003 C0,45.8803089 2.34294911,48.0245368 5.05976236,48.0245368 C6.06445924,48.0245368 7.02985504,47.7330014 7.84409287,47.2235606 C7.86626268,47.2355007 7.88238617,47.2454506 7.88238617,47.2454506 C8.37717678,47.6683262 8.80948864,48.0454318 9.97844392,48.0454318 L9.97844392,47.2056506 C9.54512432,47.2056506 9.1521135,47.1807757 8.58073622,46.705165 C8.58073622,46.705165 8.57872073,46.6912349 8.5746899,46.6673549" id="Fill-30"></path>
                <path d="M33.3742771,47.2566942 C31.8757974,47.2566942 30.5949852,46.0656776 30.5949852,44.4597454 C30.5949852,42.9562983 31.7760331,41.6399115 33.3742771,41.6399115 C34.8979499,41.6399115 36.2180631,42.732423 36.2180631,44.4736753 C36.2180631,46.0029925 35.0753086,47.2566942 33.3742771,47.2566942 M33.3742771,40.8528655 C32.6255411,40.8528655 31.4586013,41.1135558 30.6695565,42.2309423 L30.6453712,42.2309423 L30.6453712,38.6071473 L29.7565621,38.6071473 L29.7565621,47.8825501 L30.6453712,47.8825501 L30.6453712,46.6795935 L30.6695565,46.6795935 C31.4444932,47.79499 32.6507342,48.0457302 33.3742771,48.0457302 C35.5580065,48.0457302 37.1068722,46.4059681 37.1068722,44.4368603 C37.1068722,42.6060579 35.6466858,40.8528655 33.3742771,40.8528655" id="Fill-31"></path>
                <path d="M51.0428342,47.2547041 C49.3770731,47.2547041 48.174863,45.9781175 48.174863,44.4348703 C48.174863,42.6448629 49.6824122,41.6379215 51.0428342,41.6379215 C51.6918059,41.6379215 52.4183721,41.8677669 52.9756413,42.4100426 L53.6246129,41.8578169 C52.8617689,41.1404208 51.857072,40.8528655 51.0176413,40.8528655 C48.948792,40.8528655 47.2890771,42.4777026 47.2890771,44.4597454 C47.2890771,46.3781079 48.8449968,48.0457302 51.0176413,48.0457302 C52.3508548,48.0457302 53.207417,47.4974846 53.768717,46.8835687 L53.1489691,46.3512429 C52.7549506,46.8019785 52.0878398,47.2547041 51.0428342,47.2547041" id="Fill-32"></path>
            </g>
            <path d="M42.7313608,40.215965 L42.7313608,48.957052 L47.0222328,46.4148236 L46.988978,25.7735204 C46.409539,15.4692862 37.7360927,7.26151994 27.1560398,7.26151994 C16.2021229,7.26151994 7.28984681,16.058327 7.28984681,26.8749868 C7.28984681,35.6797539 14.6270565,42.8447587 23.6441355,42.8447587 C29.2662056,42.8447587 34.4247245,40.0756698 37.4448615,35.4439385 C37.6141584,35.1862331 37.774386,34.9225578 37.9275594,34.6549024 L38.0172465,34.5066473 C39.3605373,32.1285939 40.0729953,29.4420904 40.0881112,26.7366816 L35.7972393,26.7366816 C35.7770849,28.6689743 35.2782633,30.6142019 34.3360451,32.3226192 L34.2463581,32.4768445 C34.1193853,32.7037048 33.9863663,32.9265851 33.8402468,33.1474754 C31.6111702,36.567295 27.7989651,38.6100329 23.6441355,38.6100329 C16.9911678,38.6100329 11.5807188,33.3444857 11.5807188,26.8749868 C11.5807188,18.3955852 18.5672418,11.4972408 27.1560398,11.4972408 C35.7448377,11.4972408 42.7313608,18.3955852 42.7313608,26.8749868 C42.7313608,37.3374261 34.113339,45.8476728 23.5151472,45.8476728 C12.9199787,45.8476728 4.29994143,37.3374261 4.29994143,26.8749868 L4.29994143,26.7993667 C4.29994143,14.3568747 14.5504698,4.2347258 27.1530166,4.2347258 C39.7535482,4.2347258 50.0040765,14.3568747 50.0040765,26.7993667 L50.0040765,46.3929336 L54.2939406,48.9381471 L54.2939406,26.7993667 C54.2939406,12.0206115 42.1176594,0 27.1530166,0 C12.1863586,0 0,12.0454865 0,26.8232467 L0.107826045,28.9167296 C1.15686262,40.7592358 11.252202,50.0833936 23.5151472,50.0833936 C31.4489272,50.0833936 38.4737436,46.1770183 42.7313608,40.215965 M39.1650397,22.0462453 L31.2383138,26.7545916 L22.9064843,26.7545916 L33.1036036,20.7049834 C31.5940388,19.2970564 29.5614675,18.4294152 27.3202982,18.4294152 C22.6626161,18.4294152 18.8887046,22.1566903 18.8876968,26.7545916 L18.8826583,26.7545916 C18.8826583,29.0848849 20.2017637,31.1107075 22.1406172,32.146504 L18.0905903,34.5494323 C15.9199613,32.6340547 14.5454312,29.8560109 14.5454312,26.7545916 C14.5454312,19.788587 20.2652502,14.1409594 27.3202982,14.1409594 C31.1486267,14.1409594 34.5738671,15.8105716 36.9127853,18.4453353 C37.8529881,19.5060067 38.6238939,20.7179183 39.1650397,22.0462453" id="Fill-23"></path>
            <path d="M39.1655435,22.0460461 L31.2378098,26.7543927 L22.9059805,26.7543927 L33.1041073,20.7047843 C31.593535,19.2968574 29.5609637,18.4292162 27.3197943,18.4292162 C22.6631199,18.4292162 18.8892084,22.1564913 18.8882006,26.7543927 L18.883162,26.7543927 C18.883162,29.0846859 20.2012599,31.1105086 22.141121,32.146305 L18.0900863,34.5492334 C15.9204652,32.6338558 14.545935,29.8558118 14.545935,26.7543927 C14.545935,19.7883881 20.2657539,14.1407604 27.3197943,14.1407604 C31.1481228,14.1407604 34.5733631,15.8103727 36.9122814,18.4451361 C37.853492,19.5058077 38.6243978,20.7177194 39.1655435,22.0460461" id="Fill-25"></path>
        </g>
    </g>
</svg>