<?xml version="1.0" encoding="UTF-8"?>
<svg width="208px" height="65px" viewBox="0 0 208 65" version="1.1" xmlns="http://www.w3.org/2000/svg" xmlns:xlink="http://www.w3.org/1999/xlink">
    <title>logo-menu-desktop</title>
    <g id="Page-1" stroke="none" stroke-width="1" fill="none" fill-rule="evenodd">
        <g id="Artboard-Copy-2" transform="translate(-40.000000, -270.000000)" fill="#FFFFFF" fill-rule="nonzero">
            <g id="logo-menu-desktop" transform="translate(40.000000, 270.000000)">
                <g id="Group-12" transform="translate(91.716402, 3.158705)">
                    <path d="M67.0831848,9.527601 C66.889922,8.58757102 66.2400923,8.50176445 65.9365789,8.50176445 C65.225787,8.50176445 64.8392615,9.03453351 64.8392615,9.527601 C64.8392615,10.2076499 65.3321465,10.3549298 66.8652777,10.8479974 C68.3569029,11.2936792 70.2117065,11.999342 70.2117065,14.3852764 C70.2117065,17.0491217 68.0741427,18.5193593 66.0247794,18.5193593 C64.8392615,18.5193593 63.3709836,18.1146597 62.4422846,16.9645958 C61.7068486,16.0681094 61.5978952,15.1306408 61.535636,14.4083289 L64.4683009,14.4083289 C64.6006016,14.9385366 64.8587175,15.9208295 66.0442354,15.9208295 C66.9729342,15.9208295 67.3413007,15.2177281 67.3413007,14.7259413 C67.3413007,13.8550688 66.6927681,13.639912 64.6434048,12.9598631 C63.281486,12.5090585 61.9662617,11.5062745 61.9662617,9.56986394 C61.9662617,7.26589397 64.0597254,5.90323467 65.9806791,5.90323467 C67.7719265,5.90323467 69.7810807,7.18136812 69.8887371,9.527601 L67.0831848,9.527601 Z" id="Fill-1"></path>
                    <path d="M15.6832068,26.3117469 L18.3370027,26.3117469 L18.3370027,27.335022 C18.8117286,26.8842175 19.8052807,25.9070474 21.617281,25.9070474 C22.6549333,25.9070474 24.2295707,26.3540099 25.2218258,27.5476175 C26.3230344,28.8475226 26.3230344,30.826196 26.3230344,31.7444543 L26.3230344,38.1402442 L23.4526285,38.1402442 L23.4526285,32.3002758 C23.4526285,31.3192637 23.4526285,28.5055771 21.0348987,28.5055771 C20.5173696,28.5055771 19.5899678,28.7629968 19.0698446,29.5506241 C18.5536126,30.2742167 18.5536126,31.5100873 18.5536126,32.5128713 L18.5536126,38.1402442 L15.6832068,38.1402442 L15.6832068,26.3117469 Z" id="Fill-3"></path>
                    <polygon id="Fill-5" points="30.4918025 28.8256228 29.0883777 28.8256228 29.0883777 26.3116188 30.4918025 26.3116188 30.4918025 22.3696403 33.3622083 22.3696403 33.3622083 26.3116188 35.0898992 26.3116188 35.0898992 28.8256228 33.3622083 28.8256228 33.3622083 38.1401161 30.4918025 38.1401161"></polygon>
                    <path d="M38.3730313,26.3117469 L41.006074,26.3117469 L41.006074,27.3542325 L41.0488772,27.3542325 C41.5884565,26.5870962 42.1293328,25.9070474 43.6170666,25.9070474 L43.8544297,25.9070474 L43.8544297,28.6554183 C41.2434369,28.7629968 41.2434369,30.7864947 41.2434369,31.489596 L41.2434369,38.1402442 L38.3730313,38.1402442 L38.3730313,26.3117469 Z" id="Fill-7"></path>
                    <path d="M67.3999281,35.9243861 C66.0393065,35.9243861 63.9030398,34.8357954 63.9030398,32.2154939 C63.9030398,29.9332958 65.651484,28.505321 67.4427312,28.505321 C69.2119285,28.505321 70.8968165,30.0408741 70.8968165,32.2154939 C70.8968165,34.6436911 68.9317623,35.9243861 67.3999281,35.9243861 M67.7657006,25.9067913 C67.2053683,25.9067913 65.3077616,25.9067913 63.8835838,27.6946412 L63.8381865,27.6946412 L63.8381865,26.3114908 L61.2051438,26.3114908 L61.2051438,42.0832473 L64.0742524,42.0832473 L64.0742524,37.0104152 C64.8317386,37.7122361 65.7383874,38.5229159 67.7657006,38.5229159 C71.1549324,38.5229159 73.7672222,35.6669664 73.7672222,32.1719502 C73.7672222,29.2506853 71.6945117,25.9067913 67.7657006,25.9067913" id="Fill-9"></path>
                    <path d="M77.0708476,26.3117469 L79.7025934,26.3117469 L79.7025934,27.3542325 L79.7466935,27.3542325 C80.2862728,26.5870962 80.8271491,25.9070474 82.3148832,25.9070474 L82.5522461,25.9070474 L82.5522461,28.6554183 C79.9412535,28.7629968 79.9412535,30.7864947 79.9412535,31.489596 L79.9412535,38.1402442 L77.0708476,38.1402442 L77.0708476,26.3117469 Z" id="Fill-11"></path>
                    <path d="M86.2110081,38.1406283 L89.0814138,38.1406283 L89.0814138,26.312131 L86.2110081,26.312131 L86.2110081,38.1406283 Z M86.2110081,24.9686822 L89.0814138,24.9686822 L89.0814138,22.3701525 L86.2110081,22.3701525 L86.2110081,24.9686822 Z" id="Fill-13"></path>
                    <path d="M97.9328476,29.5310294 C97.742179,28.5922801 97.0936462,28.5051929 96.7888359,28.5051929 C96.076747,28.5051929 95.6902215,29.037962 95.6902215,29.5310294 C95.6902215,30.2110785 96.1844035,30.3583583 97.7175346,30.8514258 C99.2052687,31.2971076 101.063963,32.0027704 101.063963,34.3887048 C101.063963,37.0525502 98.9263997,38.5227878 96.8783335,38.5227878 C95.6902215,38.5227878 94.2232406,38.1180883 93.2945418,36.9654628 C92.5578086,36.0715379 92.4501521,35.1340693 92.386596,34.4079153 L95.3205578,34.4079153 C95.4528586,34.9419651 95.7109747,35.9242579 96.8964923,35.9242579 C97.8251911,35.9242579 98.1935578,35.2185951 98.1935578,34.7280891 C98.1935578,33.8559358 97.5450251,33.6433405 95.4956617,32.9632916 C94.1337429,32.5124869 92.8185186,31.5097029 92.8185186,29.570731 C92.8185186,27.2693223 94.9119823,25.9066632 96.8342332,25.9066632 C98.6241835,25.9066632 100.630744,27.1847966 100.740994,29.5310294 L97.9328476,29.5310294 Z" id="Fill-15"></path>
                    <path d="M41.4142606,14.3026716 C40.6606656,15.4757881 39.718996,15.9214699 38.7773265,15.9214699 C36.6203067,15.9214699 35.1727818,14.2373562 35.1727818,12.211297 C35.1727818,9.78309963 36.9004729,8.50240481 38.6489171,8.50240481 C40.3779052,8.50240481 41.0549733,9.57946914 41.405181,10.1852378 L43.6140834,8.28724807 C42.0952199,6.34571474 39.8331378,5.90259433 38.6489171,5.90259433 C35.3465886,5.90259433 32.3023762,8.54466775 32.3023762,12.1690341 C32.3023762,16.0905216 35.6047047,18.5199997 38.66967,18.5199997 C40.709954,18.5199997 42.4363481,17.6670569 43.603707,16.1891351 L41.4142606,14.3026716 Z" id="Fill-16"></path>
                    <path d="M27.3434356,14.2976769 C26.5898407,15.4759161 25.646874,15.9215979 24.7013134,15.9215979 C22.5442938,15.9215979 21.0980658,14.2374843 21.0980658,12.2114251 C21.0980658,9.7832277 22.8244598,8.50253288 24.5742011,8.50253288 C26.3083775,8.50253288 26.9854457,9.58728138 27.3356533,10.19305 L29.5419616,8.29249892 C28.0230979,6.3484042 25.7584218,5.90272241 24.5742011,5.90272241 C21.2705755,5.90272241 18.226363,8.5447958 18.226363,12.1691621 C18.226363,16.0906497 21.5286915,18.5201277 24.5936569,18.5201277 C26.6391291,18.5201277 28.3668203,17.6646236 29.5328821,16.181579 L27.3434356,14.2976769 Z" id="Fill-17"></path>
                    <path d="M52.3290659,5.90310662 C48.8983279,5.90310662 45.9410188,8.65147768 45.9410188,12.2310197 C45.9410188,15.6210189 48.7686213,18.5205119 52.3290659,18.5205119 C54.257802,18.5205119 56.0633172,17.6739726 57.2592115,16.2242261 L55.1398065,14.3979553 C54.5353741,15.293161 53.561278,15.9207015 52.3290659,15.9207015 C50.5170654,15.9207015 48.8114245,14.4696742 48.8114245,12.2310197 C48.8114245,9.7605594 50.8413318,8.50163638 52.3290659,8.50163638 C53.8142058,8.50163638 55.208551,9.61071811 55.6482562,11.2090252 L51.3912875,11.2090252 L54.1073424,13.4899427 L58.5459004,13.4899427 C58.6263184,13.0749976 58.6756068,12.6446841 58.6756068,12.1887568 C58.6756068,8.56695183 55.7182976,5.90310662 52.3290659,5.90310662" id="Fill-18"></path>
                    <polygon id="Fill-19" points="50.0902013 0 54.8828578 2.87900195 53.7362522 4.8397457 48.8605833 2.1733391"></polygon>
                    <path d="M52.3290659,25.9564822 C48.8983279,25.9564822 45.9410188,28.7048532 45.9410188,32.2869566 C45.9410188,35.6743944 48.7699185,38.5738876 52.3290659,38.5738876 C54.257802,38.5738876 56.0659114,37.7273481 57.2592115,36.2776018 L55.1398065,34.4513308 C54.5353741,35.3439751 53.561278,35.9715157 52.3290659,35.9715157 C50.5170654,35.9715157 48.8127216,34.5230498 48.8127216,32.2869566 C48.8127216,29.8164964 50.8413318,28.5575734 52.3290659,28.5575734 C53.8142058,28.5575734 55.208551,29.6615323 55.6482562,31.2624009 L51.3899905,31.2624009 L54.1073424,33.5458797 L58.5459004,33.5458797 C58.6263184,33.1309344 58.6756068,32.6980598 58.6756068,32.2421322 C58.6756068,28.6203274 55.7182976,25.9564822 52.3290659,25.9564822" id="Fill-20"></path>
                    <path d="M6.82165606,25.9564822 C3.389621,25.9564822 0.432311898,28.7048532 0.432311898,32.2869566 C0.432311898,35.6743944 3.26121153,38.5738876 6.82165606,38.5738876 C8.74909524,38.5738876 10.5572044,37.7273481 11.7505046,36.2776018 L9.62980263,34.4513308 C9.02796429,35.3439751 8.05257112,35.9715157 6.82165606,35.9715157 C5.00835863,35.9715157 3.3040147,34.5230498 3.3040147,32.2869566 C3.3040147,29.8164964 5.33262497,28.5575734 6.82165606,28.5575734 C8.30679593,28.5575734 9.69984416,29.6615323 10.1395493,31.2624009 L5.88128363,31.2624009 L8.59863564,33.5458797 L13.0371934,33.5458797 C13.1176115,33.1309344 13.1669,32.6980598 13.1669,32.2421322 C13.1669,28.6203274 10.2095909,25.9564822 6.82165606,25.9564822" id="Fill-21"></path>
                    <path d="M109.937058,25.871444 C106.505023,25.871444 103.547714,28.6236572 103.547714,32.2044799 C103.547714,35.5919176 106.375317,38.4914108 109.937058,38.4914108 C111.8632,38.4914108 113.671309,37.6474328 114.865907,36.195125 L112.745205,34.3714154 C112.143366,35.2614984 111.166676,35.8916004 109.937058,35.8916004 C108.123761,35.8916004 106.41812,34.4431345 106.41812,32.2044799 C106.41812,29.7314582 108.449324,28.4750966 109.937058,28.4750966 C111.422198,28.4750966 112.816543,29.5790555 113.256248,31.1824855 L108.995389,31.1824855 L111.712741,33.4608415 L116.153893,33.4608415 C116.234311,33.0484579 116.283599,32.615583 116.283599,32.1596557 C116.283599,28.5352892 113.323696,25.871444 109.937058,25.871444" id="Fill-22"></path>
                    <path d="M6.76328811,11.3160913 L8.57658554,6.478907 L8.61938869,6.478907 L10.431389,11.3160913 L6.76328811,11.3160913 Z M9.76340038,2.36659596 L7.4533269,2.36659596 L0.805866732,18.1370719 L4.06539207,18.1370719 L5.77103308,14.0670238 L11.4897944,14.0670238 L13.1954354,18.1370719 L16.4549608,18.1370719 L9.76340038,2.36659596 Z" id="Fill-24"></path>
                    <path d="M23.7841586,61.6308766 L22.703703,61.6308766 L22.703703,60.2579718 L22.6725735,60.2579718 C22.344416,60.9226525 21.4792733,61.8409105 19.8125442,61.8409105 C18.0485353,61.8409105 17.1341042,61.0007747 16.7423905,60.5179527 C16.1042343,59.744413 15.9563688,58.6148402 15.9563688,57.6786524 L15.9563688,52.8056086 L17.1003805,52.8056086 L17.1003805,57.663284 C17.1003805,58.7762079 17.3455259,59.5023617 17.7372396,59.9877451 C18.3585339,60.6806011 19.1912499,60.8253195 19.8125442,60.8253195 C20.4507004,60.8253195 21.136848,60.6806011 21.7075568,60.1145339 C22.2302742,59.5996947 22.6388497,59.0169785 22.6388497,57.4686185 L22.6388497,52.8056086 L23.7841586,52.8056086 L23.7841586,61.6308766 Z" id="Fill-26"></path>
                    <polygon id="Fill-27" points="33.2347067 49.9195629 32.7119893 48.9513575 29.4602464 50.7071902 29.9998257 51.6459395"></polygon>
                    <path d="M33.8921891,59.5898333 C33.3162921,60.2852505 32.3901875,60.7924057 31.212452,60.8231424 L31.212452,60.820581 C30.9673067,60.8154581 30.7299436,60.7860023 30.5003632,60.7398972 C30.4666394,60.7309324 30.4342129,60.7232483 30.399192,60.7130025 C30.2487324,60.6784238 30.1073524,60.6284768 29.9685663,60.5734068 C29.8557215,60.5273019 29.742877,60.4850389 29.6365175,60.4299691 C29.6300322,60.4274077 29.6261411,60.4248463 29.6196556,60.4222848 C28.8297429,59.9996557 28.1902896,59.2901506 27.9023411,58.4538569 L27.8906675,58.4538569 C27.7505845,58.0619643 27.6662752,57.6367737 27.6662752,57.1962146 C27.6662752,56.7402872 27.7544756,56.3407106 27.8854792,55.9680283 L27.8932617,55.9680283 C27.9620061,55.7656785 28.0463155,55.5799779 28.1397042,55.4019613 C28.1422981,55.3981191 28.1474864,55.3929963 28.1500806,55.3878736 C28.2369841,55.2303481 28.3355609,55.0869104 28.4393263,54.9549987 C28.5275267,54.844859 28.6235096,54.7372806 28.7233836,54.6425093 C28.7558102,54.6092111 28.7843456,54.5746324 28.8167722,54.5451763 C29.4912462,53.9394077 30.3719537,53.6141113 31.212452,53.6013044 L31.212452,53.5961815 C32.6340356,53.598743 34.3448649,54.5349308 34.7054491,56.6134984 L30.4640453,56.6134984 L31.6456718,57.6316509 L35.8650255,57.6316509 C35.913017,56.7761466 35.7820134,55.7900117 35.178878,54.8397362 C34.542019,53.7421806 33.1515648,52.5959589 31.192996,52.583152 C31.0632896,52.583152 30.9413654,52.6138885 30.8142529,52.6266955 C28.732463,52.8111156 27.0462779,54.3300196 26.6428907,56.3125352 C26.5832257,56.6083758 26.5520961,56.9131812 26.5520961,57.2256706 C26.5520961,57.5407215 26.5858198,57.8519305 26.6467818,58.151613 C26.6701289,58.2643141 26.7129321,58.3667697 26.7440617,58.4769094 C26.7972414,58.6613295 26.8439357,58.8470302 26.9191656,59.0250468 C26.9515922,59.1018885 26.9969895,59.1723268 27.0371985,59.2466071 C27.1344783,59.4476761 27.2343526,59.644903 27.3601679,59.8280425 C27.3744356,59.847253 27.3951886,59.867744 27.4094563,59.8869544 C27.9062324,60.584933 28.5897859,61.1484388 29.4199076,61.483981 C29.4717902,61.5057527 29.5275641,61.5159982 29.5807438,61.5364893 C29.802542,61.6158924 30.023043,61.6940148 30.2604061,61.7414005 C30.5691076,61.8054352 30.8855915,61.8412946 31.2085609,61.8412946 C32.6055002,61.8412946 33.8351182,61.2163157 34.682102,60.2698822 L33.8921891,59.5898333 Z" id="Fill-28"></path>
                    <path d="M56.9777483,59.5898333 C56.39796,60.2852505 55.4757465,60.7924057 54.296714,60.8231424 L54.296714,60.820581 C54.0515687,60.8154581 53.8142058,60.7860023 53.5859221,60.7398972 C53.5509014,60.7309324 53.5184749,60.7232483 53.4847512,60.7130025 C53.3329944,60.6784238 53.1916144,60.6284768 53.0515314,60.5734068 C52.9386866,60.5273019 52.827139,60.4850389 52.7220767,60.4299691 C52.7142942,60.4274077 52.7104031,60.4248463 52.7039176,60.4222848 C51.9114108,59.9996557 51.2745516,59.2901506 50.9866031,58.4538569 L50.9762267,58.4538569 C50.8348465,58.0619643 50.7492402,57.6367737 50.7492402,57.1962146 C50.7492402,56.7402872 50.8400348,56.3407106 50.9697412,55.9680283 L50.9775237,55.9680283 C51.0449712,55.7656785 51.1305775,55.5799779 51.2252632,55.4019613 C51.2278573,55.3981191 51.2330456,55.3929963 51.2343426,55.3878736 C51.322543,55.2303481 51.4198229,55.0869104 51.5235883,54.9549987 C51.6117887,54.844859 51.7064744,54.7372806 51.8076456,54.6425093 C51.8400722,54.6092111 51.8686076,54.5746324 51.8997372,54.5451763 C52.5742112,53.9394077 53.4562157,53.6141113 54.296714,53.6013044 L54.296714,53.5961815 C55.7182976,53.598743 57.4278299,54.5349308 57.787117,56.6134984 L53.5470103,56.6134984 L54.7299338,57.6316509 L58.9492875,57.6316509 C58.9985762,56.7761466 58.8675726,55.7900117 58.261843,54.8397362 C57.626281,53.7421806 56.2358268,52.5959589 54.2759611,52.583152 C54.1449575,52.583152 54.0256274,52.6138885 53.8985149,52.6266955 C51.816725,52.8111156 50.1305399,54.3300196 49.7284497,56.3125352 C49.6674877,56.6083758 49.6363581,56.9131812 49.6363581,57.2256706 C49.6363581,57.5407215 49.6687846,57.8519305 49.732341,58.151613 C49.7543909,58.2643141 49.7971941,58.3667697 49.8283237,58.4769094 C49.8802065,58.6613295 49.9281977,58.8470302 50.0034276,59.0250468 C50.0358542,59.1018885 50.0825487,59.1723268 50.1214605,59.2466071 C50.2200375,59.4476761 50.3199115,59.644903 50.4457268,59.8280425 C50.4599946,59.847253 50.4794506,59.867744 50.4937183,59.8869544 C50.9904944,60.584933 51.6740479,61.1484388 52.5041696,61.483981 C52.5560524,61.5057527 52.6118261,61.5159982 52.6637086,61.5364893 C52.8855068,61.6158924 53.107305,61.6940148 53.3446681,61.7414005 C53.6520726,61.8054352 53.9685566,61.8412946 54.2928229,61.8412946 C55.6884652,61.8412946 56.9193802,61.2163157 57.7650668,60.2698822 L56.9777483,59.5898333 Z" id="Fill-29"></path>
                    <path d="M6.51256537,60.7328533 C3.64605083,60.7328533 1.23350919,58.426322 1.23350919,55.6997228 C1.23350919,52.7310723 3.73165715,50.5372419 6.51256537,50.5372419 C9.42577426,50.5372419 11.8058893,52.861703 11.8058893,55.6497757 C11.8058893,58.4916375 9.35702978,60.7328533 6.51256537,60.7328533 M11.0367295,60.0668921 C12.2533768,58.9616525 13.0381014,57.4056082 13.0381014,55.6356881 C13.0381014,52.1176194 9.97572999,49.4563356 6.51256537,49.4563356 C3.23228698,49.4563356 0,51.9434449 0,55.6997228 C0,59.0538626 3.01567706,61.8137598 6.51256537,61.8137598 C7.80573957,61.8137598 9.04832822,61.4385163 10.0963571,60.7828004 C10.1248925,60.7981688 10.1456455,60.8109757 10.1456455,60.8109757 C10.7825047,61.355271 11.3389457,61.8406544 12.8435416,61.8406544 L12.8435416,60.7597479 C12.2858035,60.7597479 11.779948,60.7277307 11.0445119,60.1155585 C11.0445119,60.1155585 11.0419177,60.0976287 11.0367295,60.0668921" id="Fill-30"></path>
                    <path d="M42.9569901,60.8254476 C41.0282538,60.8254476 39.3796837,59.2924559 39.3796837,57.2254145 C39.3796837,55.2902846 40.8998443,53.5959254 42.9569901,53.5959254 C44.918153,53.5959254 46.6173087,55.0021283 46.6173087,57.2433441 C46.6173087,59.2117721 45.1464365,60.8254476 42.9569901,60.8254476 M42.9569901,52.5828959 C41.9932704,52.5828959 40.4912688,52.9184378 39.4756666,54.3566581 L39.444537,54.3566581 L39.444537,49.6923675 L38.3005253,49.6923675 L38.3005253,61.6310047 L39.444537,61.6310047 L39.444537,60.0826447 L39.4756666,60.0826447 C40.4731098,61.5183036 42.0256972,61.8410385 42.9569901,61.8410385 C45.7677308,61.8410385 47.7613204,59.7304536 47.7613204,57.1959585 C47.7613204,54.8394801 45.8818725,52.5828959 42.9569901,52.5828959" id="Fill-31"></path>
                    <path d="M65.6986971,60.8228861 C63.5546481,60.8228861 62.007249,59.1797548 62.007249,57.193397 C62.007249,54.8894272 63.9476589,53.593364 65.6986971,53.593364 C66.5340072,53.593364 67.4691914,53.8892046 68.1864686,54.5871832 L69.0217786,53.8763976 C68.0399001,52.9530165 66.7467259,52.5828959 65.6662706,52.5828959 C63.0033952,52.5828959 60.8671286,54.6742704 60.8671286,57.2254145 C60.8671286,59.694594 62.8697975,61.8410385 65.6662706,61.8410385 C67.3822879,61.8410385 68.4847937,61.1353758 69.2072591,60.345187 L68.4095638,59.6600153 C67.9024112,60.24017 67.0437538,60.8228861 65.6986971,60.8228861" id="Fill-32"></path>
                </g>
                <path d="M55.0007611,51.763123 L55.0007611,63.014027 L60.5236656,59.7418518 L60.4808624,33.1738379 C59.7350498,19.9109623 48.5712081,9.34651076 34.9533184,9.34651076 C20.8542175,9.34651076 9.38297108,20.6691336 9.38297108,34.591567 C9.38297108,45.9244354 18.8269043,55.1467188 30.4330455,55.1467188 C37.6693733,55.1467188 44.309051,51.582545 48.1963561,45.6209107 C48.414263,45.2892107 48.6204965,44.9498266 48.8176504,44.6053197 L48.9330893,44.4144962 C50.6620774,41.3536355 51.5791026,37.8957597 51.5985586,34.4135504 L46.0756542,34.4135504 C46.0497129,36.9006597 45.4076654,39.4044181 44.1949093,41.603371 L44.0794706,41.8018788 C43.9160402,42.0938772 43.7448276,42.3807528 43.5567531,42.6650671 C40.6876445,47.0668151 35.780846,49.6960816 30.4330455,49.6960816 C21.8698198,49.6960816 14.9058756,42.9186447 14.9058756,34.591567 C14.9058756,23.6774858 23.8984299,14.7984286 34.9533184,14.7984286 C46.0082067,14.7984286 55.0007611,23.6774858 55.0007611,34.591567 C55.0007611,48.0580729 43.9082578,59.0118557 30.267021,59.0118557 C16.6296755,59.0118557 5.53457805,48.0580729 5.53457805,34.591567 L5.53457805,34.4942342 C5.53457805,18.4791455 18.7283273,5.45063713 34.9494271,5.45063713 C51.167933,5.45063713 64.3616822,18.4791455 64.3616822,34.4942342 L64.3616822,59.7136765 L69.8832895,62.9896939 L69.8832895,34.4942342 C69.8832895,15.4720741 54.2108484,0 34.9494271,0 C15.6854119,0 0,15.5040914 0,34.5249708 L0.138785998,37.2195527 C1.48903108,52.4623824 14.4830322,64.4637736 30.267021,64.4637736 C40.478817,64.4637736 49.5206598,59.4357657 55.0007611,51.763123 M50.4104468,28.3763551 L40.2077304,34.4366029 L29.4835935,34.4366029 L42.6085984,26.6499785 C40.6655943,24.8377952 38.0494134,23.7210293 35.16474,23.7210293 C29.1697037,23.7210293 24.3121939,28.5185121 24.3108967,34.4366029 L24.3044115,34.4366029 C24.3044115,37.4359902 26.00227,40.0434847 28.4978239,41.376688 L23.2849181,44.4695661 C20.4910392,42.0042286 18.721842,38.4285287 18.721842,34.4366029 C18.721842,25.4704584 26.0839852,18.2012347 35.16474,18.2012347 C40.0922915,18.2012347 44.5010168,20.3502406 47.5115055,23.7415206 C48.7216675,25.1067411 49.7139226,26.6666274 50.4104468,28.3763551" id="Fill-23"></path>
                <path d="M50.4110953,28.3760988 L40.2070817,34.4363468 L29.482945,34.4363468 L42.6092468,26.6497222 C40.6649458,24.8375391 38.0487649,23.7207732 35.1640915,23.7207732 C29.1703522,23.7207732 24.3128424,28.518256 24.3115452,34.4363468 L24.3050599,34.4363468 C24.3050599,37.4357341 26.0016215,40.0432286 28.4984724,41.3764319 L23.2842694,44.46931 C20.4916877,42.0039725 18.7224905,38.4282724 18.7224905,34.4363468 C18.7224905,25.4702023 26.0846336,18.2009786 35.1640915,18.2009786 C40.091643,18.2009786 44.5003681,20.3499845 47.510857,23.7412642 C48.7223162,25.106485 49.7145711,26.6663713 50.4110953,28.3760988" id="Fill-25"></path>
            </g>
        </g>
    </g>
</svg>