<?xml version="1.0" encoding="UTF-8"?>
<svg width="152px" height="88px" viewBox="0 0 152 88" version="1.1" xmlns="http://www.w3.org/2000/svg" xmlns:xlink="http://www.w3.org/1999/xlink">
    <title>logo-sn-fr.aaf7cd4</title>
    <g id="Page-1" stroke="none" stroke-width="1" fill="none" fill-rule="evenodd">
        <g id="neobigben-copy-3" transform="translate(-40.000000, -247.000000)" fill="#FFFFFF" fill-rule="nonzero">
            <g id="logo-sn-fr.aaf7cd4" transform="translate(40.000000, 247.000000)">
                <g id="a" transform="translate(97.000000, 0.000000)">
                    <polygon id="Path" points="32.1881566 53.3223835 27.5 88 22.8118434 53.3223835 22.8118434 34.6776165 27.5 0 32.1881566 34.6776165"></polygon>
                    <polygon id="Path" points="36.8267903 39.3140586 55 44 36.8267903 48.6859414 18.1732097 48.6859414 0 44 18.1732097 39.3140586"></polygon>
                    <polygon id="Path" points="24.2199412 53.9048262 8.05570562 63.436757 17.5904916 47.278509 30.7800588 34.0951738 46.9459451 24.5648929 37.4111591 40.721491"></polygon>
                    <polygon id="Path" points="37.4111591 47.278509 46.9459451 63.436757 30.7800588 53.9048262 17.5904916 40.721491 8.05570562 24.5648929 24.2199412 34.0951738"></polygon>
                </g>
                <g id="b" transform="translate(97.000000, 0.000000)">
                    <polygon id="Path" opacity="0.65" points="32.1881566 53.3223835 27.5 88 22.8118434 53.3223835 22.8118434 34.6776165 27.5 0 32.1881566 34.6776165"></polygon>
                    <polygon id="Path" opacity="0.45" style="mix-blend-mode: multiply;" points="36.8267903 39.3140586 55 44 36.8267903 48.6859414 18.1732097 48.6859414 0 44 18.1732097 39.3140586"></polygon>
                    <polygon id="Path" opacity="0.6" style="mix-blend-mode: multiply;" points="24.2199412 53.9048262 8.05570562 63.436757 17.5904916 47.278509 30.7800588 34.0951738 46.9459451 24.5648929 37.4111591 40.721491"></polygon>
                    <polygon id="Path" opacity="0.34" style="mix-blend-mode: multiply;" points="37.4111591 47.278509 46.9459451 63.436757 30.7800588 53.9048262 17.5904916 40.721491 8.05570562 24.5648929 24.2199412 34.0951738"></polygon>
                    <g id="Group" transform="translate(23.036347, 39.545056)">
                        <polygon id="Path" points="4.26226064 0 4.2639114 8.90988863 4.65018909 8.90988863 4.65183985 0"></polygon>
                        <polygon id="Path" points="3.49960982 1.63677954 5.03976829 7.37375783 5.41283991 7.27475907 3.87763371 1.5361308"></polygon>
                        <polygon id="Path" points="2.21862057 2.49146886 6.42145387 6.69066637 6.69382916 6.41841977 2.49429738 2.2159223"></polygon>
                        <polygon id="Path" points="1.53685695 3.87415157 7.27819797 5.41028237 7.37724353 5.03738703 1.63755327 3.4963063"></polygon>
                        <polygon id="Path" points="1.63755327 5.41028237 7.37724353 3.87250159 7.27819797 3.49960625 1.53685695 5.03408707"></polygon>
                        <polygon id="Path" points="2.49429738 6.69231635 6.69547992 2.48981888 6.42145387 2.21757228 2.21862057 6.41511981"></polygon>
                        <polygon id="Path" points="3.87598295 7.37210785 5.41283991 1.63512956 5.03976829 1.53448082 3.49960982 7.27145911"></polygon>
                        <polygon id="Path" points="6.51719791 0.499943751 2.06179843 8.21689729 2.39525182 8.40994488 6.85560358 0.694641317"></polygon>
                        <polygon id="Path" points="8.2191308 2.05917426 0.500180083 6.51411857 0.693318927 6.84906439 8.4139204 2.39577005"></polygon>
                        <polygon id="Path" points="2.06014767 0.694641317 6.51884867 8.40994488 6.85230206 8.21689729 2.39855333 0.499943751"></polygon>
                        <polygon id="Path" points="0.500180083 2.39577005 8.22078156 6.84906439 8.4139204 6.51576855 0.694969686 2.05752428"></polygon>
                        <polygon id="Path" points="0 4.64964188 8.91410049 4.64964188 8.91410049 4.26354671 0 4.26024675"></polygon>
                    </g>
                </g>
                <g id="Group" transform="translate(0.000000, 24.000000)">
                    <path d="M0.52388934,14.4533581 C1.45342341,15.0270087 2.81323649,15.5066994 4.24366789,15.5066994 C6.36550183,15.5066994 7.60542801,14.382476 7.60542801,12.7554842 C7.60542801,11.2471787 6.74651226,10.3867027 4.57705201,9.5493047 C1.95432074,8.61629824 0.333384126,7.25140538 0.333384126,4.97823239 C0.333384126,2.46603829 2.40759176,0.598376939 5.53122037,0.598376939 C7.17679128,0.598376939 8.36909116,0.980810685 9.08348571,1.38797075 L8.51197007,3.08749313 C7.98808073,2.80066782 6.91402546,2.32097722 5.46060206,2.32097722 C3.26650752,2.32097722 2.43222606,3.63641743 2.43222606,4.73756287 C2.43222606,6.24586838 3.40938643,6.98765797 5.62647298,7.8481339 C8.34445686,8.90147513 9.72726195,10.2169153 9.72726195,12.5856968 C9.72726195,15.074813 7.89118583,17.2276512 4.10078897,17.2276512 C2.55047068,17.2276512 0.858915752,16.7726869 0,16.1990363 L0.52388934,14.4517097 L0.52388934,14.4533581 Z" id="Path"></path>
                    <path d="M13.9003115,11.5818082 C13.9479378,14.4302802 15.7593797,15.6023078 17.8582216,15.6023078 C19.3609136,15.6023078 20.2658134,15.3385604 21.0524685,15.0039309 L21.4104869,16.5122364 C20.6714581,16.8468659 19.4085399,17.2309481 17.5724638,17.2309481 C14.0201984,17.2309481 11.8983645,14.8852445 11.8983645,11.3922397 C11.8983645,7.89923496 13.9495801,5.14637136 17.309698,5.14637136 C21.0771028,5.14637136 22.0772552,8.47288558 22.0772552,10.6026459 C22.0772552,11.0328839 22.0296289,11.3691618 22.0049946,11.5834566 L13.8986692,11.5834566 L13.9003115,11.5818082 Z M20.0506738,10.0735027 C20.0753081,8.73333615 19.5021502,6.65138002 17.1421847,6.65138002 C15.0203508,6.65138002 14.0908167,8.61300139 13.9233035,10.0735027 L20.0506738,10.0735027 Z" id="Shape"></path>
                    <path d="M24.7722471,8.5437677 C24.7722471,7.34701382 24.7476128,6.36620314 24.6769944,5.40847035 L26.5360626,5.40847035 L26.6559495,7.3222875 L26.7035758,7.3222875 C27.2750914,6.22114206 28.6102702,5.14472294 30.5186069,5.14472294 C32.1165515,5.14472294 34.5947616,6.10245573 34.5947616,10.0751511 L34.5947616,16.9902785 L32.4959197,16.9902785 L32.4959197,10.3141722 C32.4959197,8.44815926 31.8045171,6.89204954 29.8255621,6.89204954 C28.442757,6.89204954 27.370344,7.87286022 27.0123256,9.0465362 C26.917073,9.31028361 26.8694467,9.66799104 26.8694467,10.0273469 L26.8694467,16.991927 L24.7706048,16.991927 L24.7706048,8.5437677 L24.7722471,8.5437677 Z" id="Path"></path>
                    <path d="M40.5316267,2.08195613 L40.5316267,5.40847035 L43.5353684,5.40847035 L43.5353684,7.01238429 L40.5316267,7.01238429 L40.5316267,13.2582527 C40.5316267,14.6940276 40.9372714,15.5083478 42.104937,15.5083478 C42.6534607,15.5083478 43.0591054,15.4358172 43.3202289,15.3649351 L43.4154815,16.9441227 C43.0098368,17.1122617 42.3660605,17.2309481 41.5564134,17.2309481 C40.579253,17.2309481 39.7925979,16.9193964 39.2917005,16.3457458 C38.6955506,15.724291 38.4804111,14.6940276 38.4804111,13.3307832 L38.4804111,7.01403271 L36.6919613,7.01403271 L36.6919613,5.41011877 L38.4804111,5.41011877 L38.4804111,2.63417727 L40.5299844,2.08360455 L40.5316267,2.08195613 Z" id="Path"></path>
                    <path d="M48.3275599,2.15448666 C48.3521942,2.87154994 47.8266626,3.44684898 46.9923811,3.44684898 C46.2533523,3.44684898 45.729463,2.87319836 45.729463,2.15448666 C45.729463,1.43577497 46.2779866,0.839046452 47.0400074,0.839046452 C47.8020283,0.839046452 48.3275599,1.41269707 48.3275599,2.15448666 Z M45.9905865,16.991927 L45.9905865,5.41011877 L48.0894284,5.41011877 L48.0894284,16.991927 L45.9905865,16.991927 Z" id="Shape"></path>
                    <path d="M51.6646858,8.5437677 C51.6646858,7.34701382 51.6400515,6.36620314 51.5694332,5.40847035 L53.4285013,5.40847035 L53.5483882,7.3222875 L53.5960145,7.3222875 C54.1675301,6.22114206 55.5027089,5.14472294 57.4110456,5.14472294 C59.0089902,5.14472294 61.4872003,6.10245573 61.4872003,10.0751511 L61.4872003,16.9902785 L59.3883584,16.9902785 L59.3883584,10.3141722 C59.3883584,8.44815926 58.6969558,6.89204954 56.7180008,6.89204954 C55.3351957,6.89204954 54.2627827,7.87286022 53.9047643,9.0465362 C53.8095117,9.31028361 53.7618854,9.66799104 53.7618854,10.0273469 L53.7618854,16.991927 L51.6630435,16.991927 L51.6630435,8.5437677 L51.6646858,8.5437677 Z" id="Path"></path>
                    <path d="M65.9854226,11.5818082 C66.0330489,14.4302802 67.8444907,15.6023078 69.9433327,15.6023078 C71.4460247,15.6023078 72.3509244,15.3385604 73.1375796,15.0039309 L73.495598,16.5122364 C72.7565691,16.8468659 71.493651,17.2309481 69.6575748,17.2309481 C66.1053095,17.2309481 63.9834756,14.8852445 63.9834756,11.3922397 C63.9834756,7.89923496 66.0346912,5.14637136 69.394809,5.14637136 C73.1622139,5.14637136 74.1623662,8.47288558 74.1623662,10.6026459 C74.1623662,11.0328839 74.1147399,11.3691618 74.0901056,11.5834566 L65.9837803,11.5834566 L65.9854226,11.5818082 Z M72.1357849,10.0735027 C72.1604192,8.73333615 71.5872613,6.65138002 69.2272958,6.65138002 C67.1054619,6.65138002 66.1759278,8.61300139 66.0084146,10.0735027 L72.1357849,10.0735027 L72.1357849,10.0735027 Z" id="Shape"></path>
                    <polygon id="Path" points="76.873781 0 78.9726229 0 78.9726229 16.9902785 76.873781 16.9902785"></polygon>
                    <polygon id="Path" points="82.0436984 0 84.140898 0 84.140898 16.9902785 82.0436984 16.9902785"></polygon>
                    <path d="M88.7951375,11.5818082 C88.8427638,14.4302802 90.6542056,15.6023078 92.7530475,15.6023078 C94.2557395,15.6023078 95.1606393,15.3385604 95.9472945,15.0039309 L96.3053129,16.5122364 C95.566284,16.8468659 94.3033658,17.2309481 92.4672897,17.2309481 C88.9150244,17.2309481 86.7931904,14.8852445 86.7931904,11.3922397 C86.7931904,7.89923496 88.8427638,5.14637136 92.2045239,5.14637136 C95.9719288,5.14637136 96.9720811,8.47288558 96.9720811,10.6026459 C96.9720811,11.0328839 96.9244548,11.3691618 96.8998205,11.5834566 L88.7934952,11.5834566 L88.7951375,11.5818082 Z M94.9454998,10.0735027 C94.9701341,8.73333615 94.3969762,6.65138002 92.0370107,6.65138002 C89.9151768,6.65138002 88.9856427,8.61300139 88.8181295,10.0735027 L94.9454998,10.0735027 Z" id="Shape"></path>
                    <g transform="translate(51.677824, 21.744326)">
                        <path d="M0,16.9902785 L0,0.86212435 L2.26471285,0.86212435 L7.4149228,9.02180988 C8.60722267,10.9125491 9.53675674,12.6120715 10.3004199,14.2621413 L10.3480462,14.2374149 C10.157541,12.0845767 10.1099147,10.1213069 10.1099147,7.60911281 L10.1099147,0.860475929 L12.0642354,0.860475929 L12.0642354,16.9886301 L9.96539347,16.9886301 L4.86280983,8.80421827 C3.74277055,7.00908745 2.66871529,5.16615242 1.85906813,3.42047424 L1.78680753,3.44520056 C1.90669443,5.47935247 1.95432074,7.41789594 1.95432074,10.098229 L1.95432074,16.9902785 L0,16.9902785 L0,16.9902785 Z" id="Path"></path>
                        <path d="M25.7247731,11.103766 C25.7247731,15.388013 22.7686577,17.254026 19.9784132,17.254026 C16.8547846,17.254026 14.4471929,14.9561266 14.4471929,11.2949829 C14.4471929,7.41789594 16.9746715,5.14472294 20.1689185,5.14472294 C23.3631654,5.14472294 25.7247731,7.56130859 25.7247731,11.103766 L25.7247731,11.103766 Z M16.5690268,11.2241008 C16.5690268,13.7610212 18.0240925,15.6748383 20.0736659,15.6748383 C22.1232392,15.6748383 23.5783049,13.7840991 23.5783049,11.1762965 C23.5783049,9.21467518 22.6011445,6.72555898 20.1212922,6.72555898 C17.6414398,6.72555898 16.5690268,9.0234583 16.5690268,11.2241008 L16.5690268,11.2241008 Z" id="Shape"></path>
                        <path d="M28.0371123,9.02180988 C28.0371123,7.65856545 28.012478,6.48488947 27.9418597,5.40847035 L29.7779358,5.40847035 L29.8501964,7.68164335 L29.945449,7.68164335 C30.4693383,6.12553362 31.7338988,5.14472294 33.1396959,5.14472294 C33.3778274,5.14472294 33.5453406,5.16944926 33.7358459,5.21725348 L33.7358459,7.20360117 C33.5207064,7.15579695 33.3072091,7.13107063 33.019809,7.13107063 C31.5417513,7.13107063 30.4923304,8.25529397 30.2065725,9.83448159 C30.1589462,10.1213069 30.1113199,10.4559364 30.1113199,10.8152923 L30.1113199,16.9886301 L28.0371123,16.9886301 L28.0371123,9.02016146 L28.0371123,9.02180988 Z" id="Path"></path>
                        <path d="M45.2269233,0 L45.2269233,14.0000423 C45.2269233,15.0286572 45.2515576,16.2023332 45.3221759,16.991927 L43.4384735,16.991927 L43.3432209,14.9825014 L43.2955946,14.9825014 C42.6518184,16.2748637 41.2460213,17.2556744 39.3623188,17.2556744 C36.5720744,17.2556744 34.4272484,14.8868929 34.4272484,11.3691618 C34.4026141,7.51680122 36.7872139,5.14801978 39.6004504,5.14801978 C41.3642659,5.14801978 42.5565658,5.98541781 43.0804551,6.91842428 L43.1280814,6.91842428 L43.1280814,0.00329684264 L45.2252811,0.00329684264 L45.2269233,0 Z M43.1297237,10.1229553 C43.1297237,9.85920791 43.1050894,9.50150049 43.0344711,9.23775307 C42.724079,7.89758654 41.5794054,6.7964411 40.0060951,6.7964411 C37.8366348,6.7964411 36.5490824,8.71025825 36.5490824,11.271905 C36.5490824,13.6176085 37.6937559,15.556152 39.9584688,15.556152 C41.3659082,15.556152 42.6518184,14.6231455 43.0344711,13.0439579 C43.1067317,12.7571326 43.1297237,12.4703073 43.1297237,12.1340293 L43.1297237,10.1246037 L43.1297237,10.1229553 Z" id="Shape"></path>
                    </g>
                </g>
            </g>
        </g>
    </g>
</svg>