<svg width="152" height="88" xmlns="http://www.w3.org/2000/svg"><g fill="#FFF"><path d="M129.188 53.322L124.5 88l-4.688-34.678V34.678L124.5 0l4.688 34.678z"/><path d="M133.827 39.314L152 44l-18.173 4.686h-18.654L97 44l18.173-4.686z"/><path d="M121.22 53.905l-16.164 9.532 9.534-16.158 13.19-13.184 16.166-9.53-9.535 16.156z"/><path d="M134.411 47.279l9.535 16.158-16.166-9.532-13.19-13.184-9.534-16.156 16.164 9.53z"/><g><path opacity=".65" d="M129.188 53.322L124.5 88l-4.688-34.678V34.678L124.5 0l4.688 34.678z"/><path opacity=".45" style="mix-blend-mode:multiply" d="M133.827 39.314L152 44l-18.173 4.686h-18.654L97 44l18.173-4.686z"/><path opacity=".6" style="mix-blend-mode:multiply" d="M121.22 53.905l-16.164 9.532 9.534-16.158 13.19-13.184 16.166-9.53-9.535 16.156z"/><path opacity=".34" style="mix-blend-mode:multiply" d="M134.411 47.279l9.535 16.158-16.166-9.532-13.19-13.184-9.534-16.156 16.164 9.53z"/><path d="M124.298 39.545l.002 8.91h.386l.002-8.91z"/><path d="M123.536 41.182l1.54 5.737.373-.1-1.535-5.738z"/><path d="M122.255 42.036l4.202 4.2.273-.273-4.2-4.202z"/><path d="M121.573 43.42l5.741 1.535.1-.373-5.74-1.54z"/><path d="M121.674 44.955l5.74-1.537-.1-.373-5.741 1.534z"/><path d="M122.53 46.237l4.201-4.202-.274-.272-4.202 4.197z"/><path d="M123.912 46.917l1.537-5.737-.373-.1-1.54 5.736z"/><path d="M126.553 40.045l-4.455 7.717.333.193 4.46-7.715z"/><path d="M128.255 41.604l-7.719 4.455.193.335 7.72-4.453z"/><path d="M122.096 40.24l4.459 7.715.333-.193-4.453-7.717z"/><path d="M120.536 41.94l7.72 4.454.194-.333-7.719-4.458z"/><path d="M120.036 44.195h8.914v-.386l-8.914-.004z"/></g><g><path d="M.524 38.453a7.338 7.338 0 0 0 3.72 1.054c2.122 0 3.361-1.125 3.361-2.752 0-1.508-.858-2.368-3.028-3.206C1.954 32.616.333 31.251.333 28.98c0-2.513 2.075-4.38 5.198-4.38 1.646 0 2.838.382 3.552.789l-.571 1.7a6.383 6.383 0 0 0-3.051-.767c-2.194 0-3.029 1.315-3.029 2.417 0 1.508.977 2.25 3.194 3.11 2.718 1.053 4.101 2.369 4.101 4.738 0 2.489-1.836 4.642-5.626 4.642-1.55 0-3.242-.455-4.101-1.029l.524-1.747v.001zM13.9 35.582c.048 2.848 1.86 4.02 3.958 4.02 1.503 0 2.408-.263 3.194-.598l.358 1.508c-.739.335-2.001.719-3.838.719-3.552 0-5.674-2.346-5.674-5.839 0-3.493 2.052-6.246 5.412-6.246 3.767 0 4.767 3.327 4.767 5.457 0 .43-.047.766-.072.98h-8.106l.001-.001zm6.15-1.508c.025-1.34-.548-3.423-2.908-3.423-2.122 0-3.051 1.962-3.219 3.423h6.128zm4.722-1.53c0-1.197-.024-2.178-.095-3.136h1.86l.119 1.914h.048c.571-1.1 1.906-2.177 3.815-2.177 1.598 0 4.076.957 4.076 4.93v6.915h-2.1v-6.676c0-1.866-.69-3.422-2.67-3.422-1.382 0-2.455.98-2.813 2.155-.095.263-.143.621-.143.98v6.965h-2.098v-8.448h.001zm15.76-6.462v3.326h3.003v1.604h-3.003v6.246c0 1.436.405 2.25 1.573 2.25.548 0 .954-.072 1.215-.143l.095 1.58c-.405.167-1.049.286-1.859.286-.977 0-1.763-.312-2.264-.885-.596-.622-.812-1.652-.812-3.015v-6.317h-1.788V29.41h1.788v-2.776l2.05-.55.002-.002zm7.796.072c.024.718-.501 1.293-1.336 1.293-.739 0-1.263-.574-1.263-1.293 0-.718.549-1.315 1.311-1.315.762 0 1.288.574 1.288 1.315zM45.99 40.992V29.41h2.098v11.582H45.99zm5.674-8.448c0-1.197-.025-2.178-.096-3.136h1.86l.12 1.914h.047c.572-1.1 1.907-2.177 3.815-2.177 1.598 0 4.076.957 4.076 4.93v6.915h-2.099v-6.676c0-1.866-.691-3.422-2.67-3.422-1.383 0-2.455.98-2.813 2.155-.095.263-.143.621-.143.98v6.965h-2.099v-8.448h.002zm14.32 3.038c.048 2.848 1.86 4.02 3.958 4.02 1.503 0 2.408-.263 3.195-.598l.358 1.508c-.74.335-2.002.719-3.838.719-3.553 0-5.675-2.346-5.675-5.839 0-3.493 2.052-6.246 5.412-6.246 3.767 0 4.767 3.327 4.767 5.457 0 .43-.047.766-.072.98h-8.106l.001-.001zm6.15-1.508c.025-1.34-.548-3.423-2.908-3.423-2.122 0-3.051 1.962-3.219 3.423h6.128zM76.874 24h2.099v16.99h-2.1zm5.17 0h2.097v16.99h-2.097zm6.751 11.582c.048 2.848 1.86 4.02 3.958 4.02 1.503 0 2.408-.263 3.194-.598l.358 1.508c-.739.335-2.002.719-3.838.719-3.552 0-5.674-2.346-5.674-5.839 0-3.493 2.05-6.246 5.412-6.246 3.767 0 4.767 3.327 4.767 5.457 0 .43-.048.766-.072.98h-8.107l.002-.001zm6.15-1.508c.025-1.34-.548-3.423-2.908-3.423-2.122 0-3.051 1.962-3.219 3.423h6.127z"/><path d="M51.678 62.734V46.606h2.265l5.15 8.16c1.192 1.89 2.122 3.59 2.885 5.24l.048-.025c-.19-2.152-.238-4.116-.238-6.628v-6.749h1.954v16.13h-2.099l-5.102-8.186c-1.12-1.794-2.194-3.638-3.004-5.384l-.072.025c.12 2.034.167 3.973.167 6.653v6.892h-1.954zm25.725-5.886c0 4.284-2.956 6.15-5.747 6.15-3.123 0-5.53-2.298-5.53-5.959 0-3.877 2.527-6.15 5.72-6.15 3.195 0 5.557 2.416 5.557 5.959zm-9.156.12c0 2.537 1.455 4.45 3.505 4.45s3.504-1.89 3.504-4.498c0-1.961-.977-4.45-3.457-4.45s-3.552 2.297-3.552 4.498zm11.468-2.202a56.04 56.04 0 0 0-.095-3.614h1.836l.072 2.274h.095c.524-1.556 1.789-2.537 3.195-2.537.238 0 .405.024.596.072v1.987a3.143 3.143 0 0 0-.716-.073c-1.478 0-2.528 1.124-2.813 2.703a5.943 5.943 0 0 0-.096.981v6.174h-2.074v-7.969.002zm17.19-9.022v14c0 1.029.025 2.202.095 2.992h-1.884l-.095-2.01h-.047C94.33 62.019 92.924 63 91.04 63c-2.79 0-4.935-2.37-4.935-5.887-.024-3.852 2.36-6.221 5.173-6.221 1.764 0 2.957.837 3.48 1.77h.048v-6.915h2.097l.002-.003zm-2.097 10.123c0-.264-.025-.621-.096-.885-.31-1.34-1.455-2.442-3.028-2.442-2.17 0-3.457 1.914-3.457 4.476 0 2.346 1.145 4.284 3.41 4.284 1.407 0 2.693-.933 3.075-2.512a3.6 3.6 0 0 0 .096-.91v-2.011z"/></g></g></svg>