<svg xmlns="http://www.w3.org/2000/svg" width="418.416" height="42.993" viewBox="0 0 418.416 42.993">
  <g id="Symbols" transform="translate(-0.253 -0.507)">
    <g id="Footer" transform="translate(0.253 0.507)">
      <g id="Group">
        <g id="Groupe_16" data-name="Groupe 16" transform="translate(0 0)">
          <path id="Comités-patronaux-de" d="M7.917,22.834c-4.054,0-6.664-2.588-6.664-7.677S3.863,7.264,7.917,7.264A5.578,5.578,0,0,1,13.546,10.8l-2.825,1.466a2.668,2.668,0,0,0-2.8-2.092c-1.919,0-3.192,1.294-3.192,3.666v2.415c0,2.372,1.272,3.666,3.192,3.666a3.09,3.09,0,0,0,3-2.243l2.674,1.553A5.883,5.883,0,0,1,7.917,22.834Zm13.9,0c-3.99,0-6.62-2.674-6.62-7.785s2.631-7.785,6.62-7.785,6.62,2.674,6.62,7.785S25.809,22.834,21.82,22.834Zm0-2.911c1.962,0,3.148-1.359,3.148-3.752V13.928c0-2.394-1.186-3.752-3.148-3.752s-3.148,1.359-3.148,3.752v2.243C18.671,18.565,19.858,19.923,21.82,19.923Zm20.8,2.652V12.7h-.065l-1.1,2.2-2.933,5.327-2.868-5.3-1.143-2.372H34.45V22.576H31.367V7.523h3.472l3.688,7.052h.043l3.644-7.052h3.494V22.576Zm13.17,0h-7.16V19.966h1.941V10.133H48.634V7.523h7.16v2.609H53.852v9.834h1.941ZM68.984,10.435H64.909V22.576H61.631V10.435H57.555V7.523H68.984Zm10.8-7.612-2.89,3.8-1.9-.927,2.135-4.184Zm1.876,19.754H71.415V7.523H81.658v2.911H74.693V13.5h5.974v2.89H74.693v3.278h6.965Zm7.908.259A7.318,7.318,0,0,1,83.851,20.4l2.156-2.178a4.9,4.9,0,0,0,3.774,1.725c1.6,0,2.372-.712,2.372-1.811,0-.819-.345-1.423-1.747-1.617l-1.488-.194c-3.17-.41-4.615-1.962-4.615-4.486,0-2.7,2.113-4.572,5.65-4.572a6.7,6.7,0,0,1,5.219,2.113l-2.178,2.2a3.935,3.935,0,0,0-3.235-1.423c-1.466,0-2.178.561-2.178,1.466,0,1.035.539,1.423,1.79,1.617l1.488.237c3.084.5,4.572,1.876,4.572,4.464C95.432,20.829,93.318,22.834,89.566,22.834Zm17.325-.259h-3.278V7.523h7.116c2.8,0,4.572,1.962,4.572,4.809s-1.768,4.809-4.572,4.809h-3.839Zm0-12.206v3.925h3.45a1.4,1.4,0,0,0,1.574-1.488v-.949a1.4,1.4,0,0,0-1.574-1.488Zm22.162,12.206h-3.407L124.568,19h-5.025l-1.078,3.58h-3.321L120.1,7.5h4.054Zm-5.283-6.362L122.088,10.5h-.108l-1.661,5.715Zm16.512-5.779h-4.076V22.576h-3.278V10.435h-4.076V7.523h11.429Zm5.708,6.62v5.521h-3.278V7.523h7.138c2.782,0,4.55,1.941,4.55,4.809a4.294,4.294,0,0,1-2.739,4.335l2.954,5.909h-3.644l-2.631-5.521Zm0-2.76h3.45a1.4,1.4,0,0,0,1.574-1.488v-.949a1.4,1.4,0,0,0-1.574-1.488h-3.45Zm17.267,8.54c-3.99,0-6.62-2.674-6.62-7.785s2.631-7.785,6.62-7.785,6.62,2.674,6.62,7.785S167.247,22.834,163.257,22.834Zm0-2.911c1.962,0,3.148-1.359,3.148-3.752V13.928c0-2.394-1.186-3.752-3.148-3.752s-3.148,1.359-3.148,3.752v2.243C160.109,18.565,161.295,19.923,163.257,19.923Zm18.259,2.652L177.4,15.459l-1.445-3.019h-.065V22.576H172.8V7.523h3.58L180.5,14.64l1.445,3.019h.065V7.523H185.1V22.576Zm19.769,0h-3.407L196.8,19h-5.025l-1.078,3.58h-3.321L192.335,7.5h4.054ZM196,16.214,194.319,10.5h-.108l-1.661,5.715Zm6.959-8.691h3.192v9.23c0,2.113.776,3.17,2.717,3.17s2.717-1.057,2.717-3.17V7.523h3.192v8.885c0,4.442-1.6,6.426-5.909,6.426s-5.909-1.984-5.909-6.426Zm22.852,7.332,4.9,7.72h-3.8l-3.256-5.542h-.065l-3.17,5.542h-3.537l4.852-7.742-4.615-7.311h3.817l2.933,5.089h.065l2.976-5.089h3.537Zm12.365,7.72V7.523h5.672c3.99,0,6.62,2.523,6.62,7.526s-2.631,7.526-6.62,7.526Zm3.278-2.911h2.394c1.941,0,3.148-1.057,3.148-3.45V13.885c0-2.394-1.208-3.45-3.148-3.45h-2.394Zm22.184,2.911H253.4V7.523h10.243v2.911h-6.965V13.5h5.973v2.89h-5.973v3.278h6.965Zm17.023,0-4.119-7.116L275.1,12.44h-.065V22.576H271.95V7.523h3.58l4.119,7.116,1.445,3.019h.065V7.523h3.084V22.576ZM296.118,2.822l-2.89,3.8-1.9-.927,2.135-4.184Zm1.876,19.754H287.751V7.523h10.243v2.911h-6.965V13.5H297v2.89h-5.973v3.278h6.965Zm12.587,0V20.182h-.108c-.216,1.51-1.6,2.652-3.86,2.652-3.45,0-6.168-2.674-6.168-7.72,0-5.068,2.739-7.85,6.815-7.85a6.023,6.023,0,0,1,5.8,3.494l-2.674,1.531a3.112,3.112,0,0,0-3.127-2.113c-2.027,0-3.343,1.165-3.343,3.666v2.415c0,2.5,1.315,3.666,3.343,3.666,1.639,0,2.954-.776,2.954-2.243v-.755h-2.8V14.187h5.93v8.389Zm12.178.259c-3.99,0-6.62-2.674-6.62-7.785s2.631-7.785,6.62-7.785,6.62,2.674,6.62,7.785S326.749,22.834,322.759,22.834Zm0-2.911c1.962,0,3.148-1.359,3.148-3.752V13.928c0-2.394-1.186-3.752-3.148-3.752s-3.149,1.359-3.149,3.752v2.243C319.611,18.565,320.8,19.923,322.759,19.923Zm15.628,2.911c-4.054,0-6.664-2.588-6.664-7.677s2.609-7.893,6.664-7.893a5.578,5.578,0,0,1,5.628,3.537l-2.825,1.466a2.668,2.668,0,0,0-2.8-2.092c-1.919,0-3.192,1.294-3.192,3.666v2.415c0,2.372,1.272,3.666,3.192,3.666a3.09,3.09,0,0,0,3-2.243l2.674,1.553A5.883,5.883,0,0,1,338.387,22.834Zm14.722-.259h-7.16V19.966h1.941V10.133H345.95V7.523h7.16v2.609h-1.941v9.834h1.941Zm15.606,0h-3.407L364.23,19h-5.025l-1.078,3.58h-3.321L359.767,7.5h4.054Zm-5.283-6.362L361.751,10.5h-.108l-1.66,5.715Zm16.512-5.779h-4.076V22.576h-3.278V10.435h-4.076V7.523h11.429Zm8.921,12.141h-7.16V19.966h1.941V10.133h-1.941V7.523h7.16v2.609h-1.941v9.834h1.941Zm8.964.259c-3.99,0-6.62-2.674-6.62-7.785s2.631-7.785,6.62-7.785,6.62,2.674,6.62,7.785S401.82,22.834,397.831,22.834Zm0-2.911c1.962,0,3.148-1.359,3.148-3.752V13.928c0-2.394-1.186-3.752-3.148-3.752s-3.148,1.359-3.148,3.752v2.243C394.682,18.565,395.868,19.923,397.831,19.923Zm18.259,2.652-4.119-7.116-1.445-3.019h-.065V22.576h-3.084V7.523h3.58l4.119,7.116,1.445,3.019h.065V7.523h3.084V22.576Z" transform="translate(-1.253 -1.507)" fill="#fff" fill-rule="evenodd"/>
          <path id="des-secteurs-de-l_éd" data-name="des-secteurs-de-l’éd" d="M8.061,45.8V44.48H7.986a2.151,2.151,0,0,1-2.115,1.5c-2,0-3.03-1.455-3.03-4.125s1.035-4.11,3.03-4.11a2.133,2.133,0,0,1,2.115,1.5h.075V34.7h2.22V45.8ZM6.605,44.18c.84,0,1.455-.435,1.455-1.155V40.7c0-.72-.615-1.155-1.455-1.155A1.48,1.48,0,0,0,5.15,41.18v1.365A1.48,1.48,0,0,0,6.605,44.18Zm9.125,1.8c-2.415,0-3.78-1.605-3.78-4.125,0-2.49,1.32-4.11,3.69-4.11,2.61,0,3.66,1.89,3.66,4.02v.66H14.245v.12a1.547,1.547,0,0,0,1.74,1.7A2.5,2.5,0,0,0,17.92,43.3l1.11,1.38A4.269,4.269,0,0,1,15.73,45.98Zm-.045-6.6A1.44,1.44,0,0,0,14.245,41v.12h2.76v-.135C17.005,40.025,16.57,39.38,15.685,39.38Zm7.955,6.6a4.112,4.112,0,0,1-3.315-1.41l1.305-1.32a2.738,2.738,0,0,0,2.085,1.005c.87,0,1.17-.285,1.17-.75,0-.39-.24-.585-.8-.66l-.855-.105c-1.785-.225-2.655-1.005-2.655-2.43,0-1.515,1.185-2.565,3.06-2.565a3.959,3.959,0,0,1,3.21,1.23L25.575,40.28a2.633,2.633,0,0,0-1.815-.81c-.75,0-1.05.27-1.05.66,0,.42.18.645.825.735l.885.12c1.71.225,2.6,1.005,2.6,2.37C27.015,44.87,25.665,45.98,23.64,45.98Zm11.289,0a4.112,4.112,0,0,1-3.315-1.41l1.305-1.32A2.738,2.738,0,0,0,35,44.255c.87,0,1.17-.285,1.17-.75,0-.39-.24-.585-.8-.66l-.855-.105c-1.785-.225-2.655-1.005-2.655-2.43,0-1.515,1.185-2.565,3.06-2.565a3.959,3.959,0,0,1,3.21,1.23L36.864,40.28a2.633,2.633,0,0,0-1.815-.81c-.75,0-1.05.27-1.05.66,0,.42.18.645.825.735l.885.12c1.71.225,2.6,1.005,2.6,2.37C38.3,44.87,36.954,45.98,34.929,45.98Zm8.27,0c-2.415,0-3.78-1.605-3.78-4.125,0-2.49,1.32-4.11,3.69-4.11,2.61,0,3.66,1.89,3.66,4.02v.66H41.713v.12a1.547,1.547,0,0,0,1.74,1.7,2.5,2.5,0,0,0,1.935-.945l1.11,1.38A4.269,4.269,0,0,1,43.2,45.98Zm-.045-6.6A1.44,1.44,0,0,0,41.713,41v.12h2.76v-.135C44.473,40.025,44.038,39.38,43.153,39.38Zm8.465,6.6c-2.37,0-3.675-1.605-3.675-4.125s1.305-4.11,3.675-4.11a3.1,3.1,0,0,1,3.15,2.055l-1.8.78a1.3,1.3,0,0,0-1.35-1.08c-.9,0-1.365.645-1.365,1.635V42.6c0,.99.465,1.635,1.365,1.635a1.481,1.481,0,0,0,1.47-1.185l1.725.75A3.086,3.086,0,0,1,51.618,45.98Zm8.75-.18h-1.32a2.073,2.073,0,0,1-2.34-2.3V39.65H55.6V37.924h.555c.6,0,.78-.3.78-.84v-1.29h2v2.13h1.56V39.65h-1.56v4.426h1.44Zm4.984.18c-2.415,0-3.78-1.605-3.78-4.125,0-2.49,1.32-4.11,3.69-4.11,2.61,0,3.66,1.89,3.66,4.02v.66H63.867v.12a1.547,1.547,0,0,0,1.74,1.7,2.5,2.5,0,0,0,1.935-.945l1.11,1.38A4.269,4.269,0,0,1,65.352,45.98Zm-.045-6.6A1.44,1.44,0,0,0,63.867,41v.12h2.76v-.135C66.627,40.025,66.192,39.38,65.307,39.38ZM75.242,45.8V44.48h-.075a2.138,2.138,0,0,1-2.205,1.5c-1.605,0-2.46-1.125-2.46-3.105V37.924h2.22V42.68c0,.96.315,1.5,1.125,1.5a1.254,1.254,0,0,0,1.4-1.14V37.924h2.22V45.8Zm6.6,0h-2.22V37.924h2.22v1.71h.075a1.975,1.975,0,0,1,2.01-1.71h.39v2.07h-.555c-1.29,0-1.92.285-1.92,1.2Zm6.6.18a4.112,4.112,0,0,1-3.315-1.41l1.305-1.32a2.738,2.738,0,0,0,2.085,1.005c.87,0,1.17-.285,1.17-.75,0-.39-.24-.585-.8-.66l-.855-.105c-1.785-.225-2.655-1.005-2.655-2.43,0-1.515,1.185-2.565,3.06-2.565a3.959,3.959,0,0,1,3.21,1.23L90.386,40.28a2.633,2.633,0,0,0-1.815-.81c-.75,0-1.05.27-1.05.66,0,.42.18.645.825.735l.885.12c1.71.225,2.6,1.005,2.6,2.37C91.826,44.87,90.476,45.98,88.451,45.98ZM101.9,45.8V44.48h-.075a2.151,2.151,0,0,1-2.115,1.5c-2,0-3.03-1.455-3.03-4.125s1.035-4.11,3.03-4.11a2.133,2.133,0,0,1,2.115,1.5h.075V34.7h2.22V45.8Zm-1.455-1.62c.84,0,1.455-.435,1.455-1.155V40.7c0-.72-.615-1.155-1.455-1.155A1.48,1.48,0,0,0,98.99,41.18v1.365A1.48,1.48,0,0,0,100.445,44.18Zm9.125,1.8c-2.415,0-3.78-1.605-3.78-4.125,0-2.49,1.32-4.11,3.69-4.11,2.61,0,3.66,1.89,3.66,4.02v.66h-5.056v.12a1.547,1.547,0,0,0,1.74,1.7,2.5,2.5,0,0,0,1.935-.945l1.11,1.38A4.269,4.269,0,0,1,109.57,45.98Zm-.045-6.6a1.44,1.44,0,0,0-1.44,1.62v.12h2.76v-.135C110.845,40.025,110.41,39.38,109.525,39.38ZM121.654,45.8h-1.005a1.929,1.929,0,0,1-2.205-2.16V34.7h2.22v9.376h.99Zm2.224-11.251c.9,0,1.29.465,1.29,1.08v.315a4.193,4.193,0,0,1-1.635,3.105h-1.4a4.5,4.5,0,0,0,1.38-1.95,1.052,1.052,0,0,1-.93-1.1v-.375C122.587,35.014,122.977,34.549,123.878,34.549Zm7.67-.075-2.01,2.64-1.32-.645,1.485-2.91ZM129.312,45.98c-2.415,0-3.78-1.605-3.78-4.125,0-2.49,1.32-4.11,3.69-4.11,2.61,0,3.66,1.89,3.66,4.02v.66h-5.056v.12a1.547,1.547,0,0,0,1.74,1.7A2.5,2.5,0,0,0,131.5,43.3l1.11,1.38A4.269,4.269,0,0,1,129.312,45.98Zm-.045-6.6a1.44,1.44,0,0,0-1.44,1.62v.12h2.76v-.135C130.587,40.025,130.152,39.38,129.267,39.38ZM139.382,45.8V44.48h-.075a2.151,2.151,0,0,1-2.115,1.5c-2,0-3.03-1.455-3.03-4.125s1.035-4.11,3.03-4.11a2.133,2.133,0,0,1,2.115,1.5h.075V34.7h2.22V45.8Zm-1.455-1.62c.84,0,1.455-.435,1.455-1.155V40.7c0-.72-.615-1.155-1.455-1.155a1.48,1.48,0,0,0-1.455,1.635v1.365A1.48,1.48,0,0,0,137.927,44.18Zm10.49,1.62V44.48h-.075a2.138,2.138,0,0,1-2.205,1.5c-1.605,0-2.46-1.125-2.46-3.105V37.924h2.22V42.68c0,.96.315,1.5,1.125,1.5a1.254,1.254,0,0,0,1.4-1.14V37.924h2.22V45.8Zm7.565.18c-2.37,0-3.675-1.605-3.675-4.125s1.305-4.11,3.675-4.11a3.1,3.1,0,0,1,3.15,2.055l-1.8.78a1.3,1.3,0,0,0-1.35-1.08c-.9,0-1.365.645-1.365,1.635V42.6c0,.99.465,1.635,1.365,1.635a1.481,1.481,0,0,0,1.47-1.185l1.725.75A3.086,3.086,0,0,1,155.981,45.98Zm11.72-.18h-1.23a1.5,1.5,0,0,1-1.5-1.38h-.09a2.128,2.128,0,0,1-2.31,1.56,2.194,2.194,0,0,1-2.445-2.3c0-1.665,1.29-2.46,3.375-2.46h1.245v-.5c0-.765-.375-1.245-1.305-1.245a1.945,1.945,0,0,0-1.7.93l-1.32-1.17a3.434,3.434,0,0,1,3.18-1.5c2.22,0,3.36,1.02,3.36,2.88v3.45h.735ZM163.4,44.435c.735,0,1.35-.3,1.35-1.02v-.93h-1.08c-.855,0-1.305.315-1.305.885V43.6C162.361,44.165,162.736,44.435,163.4,44.435Zm9.875,1.365h-1.32a2.073,2.073,0,0,1-2.34-2.3V39.65H168.5V37.924h.555c.6,0,.78-.3.78-.84v-1.29h2v2.13h1.56V39.65h-1.56v4.426h1.44Zm2.869-8.716c-.9,0-1.29-.465-1.29-1.1v-.33c0-.63.39-1.1,1.29-1.1s1.29.465,1.29,1.1v.33C177.43,36.619,177.04,37.084,176.14,37.084ZM175.03,45.8V37.924h2.22V45.8Zm7.58.18c-2.31,0-3.69-1.59-3.69-4.125s1.38-4.11,3.69-4.11,3.69,1.575,3.69,4.11S184.92,45.98,182.609,45.98Zm0-1.755c.87,0,1.38-.57,1.38-1.56V41.06c0-.99-.51-1.56-1.38-1.56s-1.38.57-1.38,1.56v1.605C181.229,43.655,181.739,44.225,182.609,44.225Zm7.58,1.575h-2.22V37.924h2.22V39.26h.09a2.148,2.148,0,0,1,2.19-1.515c1.605,0,2.46,1.14,2.46,3.12V45.8h-2.22V41.045c0-1.005-.285-1.5-1.1-1.5-.72,0-1.425.375-1.425,1.155Zm13.734.18c-2.415,0-3.78-1.605-3.78-4.125,0-2.49,1.32-4.11,3.69-4.11,2.61,0,3.66,1.89,3.66,4.02v.66h-5.056v.12a1.547,1.547,0,0,0,1.74,1.7,2.5,2.5,0,0,0,1.935-.945l1.11,1.38A4.269,4.269,0,0,1,203.923,45.98Zm-.045-6.6a1.44,1.44,0,0,0-1.44,1.62v.12h2.76v-.135C205.2,40.025,204.763,39.38,203.878,39.38Zm9.365,6.421h-1.32a2.073,2.073,0,0,1-2.34-2.3V39.65h-1.11V37.924h.555c.6,0,.78-.3.78-.84v-1.29h2v2.13h1.56V39.65H211.8v4.426h1.44Zm10.224,0V44.48h-.075a2.151,2.151,0,0,1-2.115,1.5c-2,0-3.03-1.455-3.03-4.125s1.035-4.11,3.03-4.11a2.133,2.133,0,0,1,2.115,1.5h.075V34.7h2.22V45.8Zm-1.455-1.62c.84,0,1.455-.435,1.455-1.155V40.7c0-.72-.615-1.155-1.455-1.155a1.48,1.48,0,0,0-1.455,1.635v1.365A1.48,1.48,0,0,0,222.011,44.18Zm9.125,1.8c-2.415,0-3.78-1.605-3.78-4.125,0-2.49,1.32-4.11,3.69-4.11,2.61,0,3.66,1.89,3.66,4.02v.66h-5.056v.12a1.547,1.547,0,0,0,1.74,1.7,2.5,2.5,0,0,0,1.935-.945l1.11,1.38A4.269,4.269,0,0,1,231.136,45.98Zm-.045-6.6a1.44,1.44,0,0,0-1.44,1.62v.12h2.76v-.135C232.411,40.025,231.976,39.38,231.091,39.38ZM243.22,45.8h-1.005a1.929,1.929,0,0,1-2.205-2.16V34.7h2.22v9.376h.99Zm2.224-11.251c.9,0,1.29.465,1.29,1.08v.315A4.193,4.193,0,0,1,245.1,39.05h-1.4a4.5,4.5,0,0,0,1.38-1.95,1.052,1.052,0,0,1-.93-1.1v-.375C244.154,35.014,244.544,34.549,245.444,34.549Zm5.434,11.431c-2.415,0-3.78-1.605-3.78-4.125,0-2.49,1.32-4.11,3.69-4.11,2.61,0,3.66,1.89,3.66,4.02v.66h-5.056v.12a1.547,1.547,0,0,0,1.74,1.7,2.5,2.5,0,0,0,1.935-.945l1.11,1.38A4.269,4.269,0,0,1,250.878,45.98Zm-.045-6.6a1.44,1.44,0,0,0-1.44,1.62v.12h2.76v-.135C252.154,40.025,251.718,39.38,250.833,39.38Zm7.5,6.421h-2.22V37.924h2.22V39.26h.09a2.148,2.148,0,0,1,2.19-1.515c1.605,0,2.46,1.14,2.46,3.12V45.8h-2.22V41.045c0-1.005-.285-1.5-1.1-1.5-.72,0-1.425.375-1.425,1.155Zm9.485.18a4.112,4.112,0,0,1-3.315-1.41l1.305-1.32a2.738,2.738,0,0,0,2.085,1.005c.87,0,1.17-.285,1.17-.75,0-.39-.24-.585-.8-.66l-.855-.105c-1.785-.225-2.655-1.005-2.655-2.43,0-1.515,1.185-2.565,3.06-2.565a3.959,3.959,0,0,1,3.21,1.23l-1.275,1.305a2.633,2.633,0,0,0-1.815-.81c-.75,0-1.05.27-1.05.66,0,.42.18.645.825.735l.885.12c1.71.225,2.6,1.005,2.6,2.37C271.2,44.87,269.848,45.98,267.823,45.98Zm8.27,0c-2.415,0-3.78-1.605-3.78-4.125,0-2.49,1.32-4.11,3.69-4.11,2.61,0,3.66,1.89,3.66,4.02v.66h-5.056v.12a1.547,1.547,0,0,0,1.74,1.7,2.5,2.5,0,0,0,1.935-.945l1.11,1.38A4.269,4.269,0,0,1,276.092,45.98Zm-.045-6.6a1.44,1.44,0,0,0-1.44,1.62v.12h2.76v-.135C277.368,40.025,276.933,39.38,276.048,39.38Zm6.395-2.3c-.9,0-1.29-.465-1.29-1.1v-.33c0-.63.39-1.1,1.29-1.1s1.29.465,1.29,1.1v.33C283.732,36.619,283.342,37.084,282.442,37.084Zm-1.11,8.716V37.924h2.22V45.8Zm11.675.57c0,1.665-1.05,2.61-4.26,2.61-2.73,0-3.735-.69-3.735-1.83a1.468,1.468,0,0,1,1.47-1.5v-.165a1.331,1.331,0,0,1-1.14-1.38c0-.825.735-1.245,1.47-1.4v-.06a2.323,2.323,0,0,1-1.41-2.25c0-1.59,1.11-2.655,3.375-2.655a5.192,5.192,0,0,1,1.335.15v-.3a1.049,1.049,0,0,1,1.185-1.185h1.245v1.65H290.8v.09a2.332,2.332,0,0,1,1.35,2.25c0,1.575-1.1,2.61-3.375,2.61a5.562,5.562,0,0,1-1.4-.165.737.737,0,0,0-.345.63c0,.375.27.6.945.6h2.28C292.182,44.075,293.007,44.915,293.007,46.37Zm-2.085.3c0-.45-.33-.705-1.215-.705h-2.7a1.011,1.011,0,0,0-.285.705c0,.57.45.84,1.65.84h.9C290.472,47.511,290.922,47.241,290.922,46.67Zm-2.145-5.116c.87,0,1.305-.39,1.305-1.08v-.18c0-.69-.435-1.08-1.305-1.08s-1.305.39-1.305,1.08v.18C287.471,41.165,287.906,41.555,288.776,41.555Zm7.535,4.245h-2.22V37.924h2.22V39.26h.09a2.148,2.148,0,0,1,2.19-1.515c1.605,0,2.46,1.14,2.46,3.12V45.8h-2.22V41.045c0-1.005-.285-1.5-1.1-1.5-.72,0-1.425.375-1.425,1.155Zm10.1.18c-2.415,0-3.78-1.605-3.78-4.125,0-2.49,1.32-4.11,3.69-4.11,2.61,0,3.66,1.89,3.66,4.02v.66h-5.056v.12a1.547,1.547,0,0,0,1.74,1.7A2.5,2.5,0,0,0,308.6,43.3l1.11,1.38A4.269,4.269,0,0,1,306.411,45.98Zm-.045-6.6a1.44,1.44,0,0,0-1.44,1.62v.12h2.76v-.135C307.686,40.025,307.251,39.38,306.366,39.38Zm7.5,6.421h-2.22V37.924h2.22V39.26h.09a2.1,2.1,0,0,1,2.115-1.515,2.179,2.179,0,0,1,2.205,1.59h.045a2.447,2.447,0,0,1,2.4-1.59c1.515,0,2.355,1.14,2.355,3.12V45.8h-2.22V41.045c0-1.02-.345-1.5-1.08-1.5a1.183,1.183,0,0,0-1.305,1.155v5.1h-2.22V41.045c0-1.02-.36-1.5-1.08-1.5a1.19,1.19,0,0,0-1.305,1.155Zm14.57.18c-2.415,0-3.78-1.605-3.78-4.125,0-2.49,1.32-4.11,3.69-4.11,2.61,0,3.66,1.89,3.66,4.02v.66h-5.056v.12a1.547,1.547,0,0,0,1.74,1.7,2.5,2.5,0,0,0,1.935-.945l1.11,1.38A4.269,4.269,0,0,1,328.441,45.98Zm-.045-6.6a1.44,1.44,0,0,0-1.44,1.62v.12h2.76v-.135C329.716,40.025,329.281,39.38,328.4,39.38Zm7.5,6.421h-2.22V37.924h2.22V39.26h.09a2.148,2.148,0,0,1,2.19-1.515c1.605,0,2.46,1.14,2.46,3.12V45.8h-2.22V41.045c0-1.005-.285-1.5-1.1-1.5-.72,0-1.425.375-1.425,1.155Zm10.895,0h-1.32a2.073,2.073,0,0,1-2.34-2.3V39.65h-1.11V37.924h.555c.6,0,.78-.3.78-.84v-1.29h2v2.13h1.56V39.65h-1.56v4.426h1.44Zm8.063.18a4.112,4.112,0,0,1-3.315-1.41l1.305-1.32a2.738,2.738,0,0,0,2.085,1.005c.87,0,1.17-.285,1.17-.75,0-.39-.24-.585-.8-.66l-.855-.105c-1.785-.225-2.655-1.005-2.655-2.43,0-1.515,1.185-2.565,3.06-2.565a3.959,3.959,0,0,1,3.21,1.23l-1.275,1.305a2.633,2.633,0,0,0-1.815-.81c-.75,0-1.05.27-1.05.66,0,.42.18.645.825.735l.885.12c1.71.225,2.6,1.005,2.6,2.37C358.234,44.87,356.884,45.98,354.859,45.98Zm9.635-.18V44.48h-.075a2.138,2.138,0,0,1-2.205,1.5c-1.605,0-2.46-1.125-2.46-3.105V37.924h2.22V42.68c0,.96.315,1.5,1.125,1.5a1.254,1.254,0,0,0,1.4-1.14V37.924h2.22V45.8Zm4.384,3V37.924h2.22v1.32h.075a2.133,2.133,0,0,1,2.115-1.5c2,0,3.03,1.44,3.03,4.11s-1.035,4.125-3.03,4.125a2.151,2.151,0,0,1-2.115-1.5H371.1V48.8Zm3.675-4.621a1.48,1.48,0,0,0,1.455-1.635V41.18a1.48,1.48,0,0,0-1.455-1.635c-.84,0-1.455.435-1.455,1.155v2.325C371.1,43.745,371.714,44.18,372.554,44.18Zm11.06-9.706-2.01,2.64-1.32-.645,1.485-2.91ZM381.378,45.98c-2.415,0-3.78-1.605-3.78-4.125,0-2.49,1.32-4.11,3.69-4.11,2.61,0,3.66,1.89,3.66,4.02v.66h-5.056v.12a1.547,1.547,0,0,0,1.74,1.7,2.5,2.5,0,0,0,1.935-.945l1.11,1.38A4.269,4.269,0,0,1,381.378,45.98Zm-.045-6.6a1.44,1.44,0,0,0-1.44,1.62v.12h2.76v-.135C382.654,40.025,382.218,39.38,381.333,39.38Zm7.5,6.421h-2.22V37.924h2.22v1.71h.075a1.975,1.975,0,0,1,2.01-1.71h.39v2.07h-.555c-1.29,0-1.92.285-1.92,1.2Zm5.044-8.716c-.9,0-1.29-.465-1.29-1.1v-.33c0-.63.39-1.1,1.29-1.1s1.29.465,1.29,1.1v.33C395.172,36.619,394.782,37.084,393.882,37.084Zm-1.11,8.716V37.924h2.22V45.8Zm7.67.18c-2.415,0-3.78-1.605-3.78-4.125,0-2.49,1.32-4.11,3.69-4.11,2.61,0,3.66,1.89,3.66,4.02v.66h-5.056v.12a1.547,1.547,0,0,0,1.74,1.7,2.5,2.5,0,0,0,1.935-.945l1.11,1.38A4.269,4.269,0,0,1,400.442,45.98Zm-.045-6.6a1.44,1.44,0,0,0-1.44,1.62v.12h2.76v-.135C401.717,40.025,401.282,39.38,400.4,39.38Zm9.935,6.421V44.48h-.075a2.138,2.138,0,0,1-2.205,1.5c-1.605,0-2.46-1.125-2.46-3.105V37.924h2.22V42.68c0,.96.315,1.5,1.125,1.5a1.254,1.254,0,0,0,1.4-1.14V37.924h2.22V45.8Zm6.6,0h-2.22V37.924h2.22v1.71h.075a1.975,1.975,0,0,1,2.01-1.71h.39v2.07h-.555c-1.29,0-1.92.285-1.92,1.2Z" transform="translate(-1.475 -5.988)" fill="#fff" fill-rule="evenodd"/>
        </g>
      </g>
    </g>
  </g>
</svg>
