<svg height="47" width="157" xmlns="http://www.w3.org/2000/svg" xmlns:xlink="http://www.w3.org/1999/xlink"><mask id="a" fill="#fff"><path d="m0 0h101.250693v8.55672823h-101.250693z" fill="#fff" fill-rule="evenodd"/></mask><g fill="#fff" fill-rule="nonzero"><path d="m23.503 0c12.981 0 23.504 10.52 23.504 23.499-0 12.98-10.523 23.501-23.504 23.501-12.983 0-23.503-10.52-23.503-23.501 0-12.979 10.521-23.499 23.503-23.499zm9.69 23.499-9.69 9.69h9.69zm-19.38 9.69h9.69l-9.69-9.69 9.69-9.687h-9.69v19.376zm19.38-19.377h-9.69l9.69 9.687zm25.558 7.688c-.837-.266-1.561-.496-1.561-1.053 0-.205.062-.37.184-.489.138-.135.345-.205.601-.205h.032c.54.011.896.32.93.803.002.03.027.054.057.054h2.254c.015 0 .03-.007.04-.018a.05.05 0 0 0 .016-.043c-.085-1.578-1.303-2.52-3.26-2.52-1.927 0-3.173.977-3.173 2.487-.015 1.741 1.473 2.192 2.668 2.554.848.256 1.58.478 1.58 1.075 0 .442-.36.717-.94.717-.592 0-.947-.314-1.002-.888a.058.058 0 0 0 -.058-.052h-2.215a.058.058 0 0 0 -.042.018.06.06 0 0 0 -.016.042c.057 1.582 1.39 2.604 3.393 2.604 2.194 0 3.176-1.302 3.176-2.594 0-1.645-1.477-2.115-2.664-2.492zm70.891.171h-4.946a.057.057 0 0 0 -.058.058v1.328c0 .033.025.058.058.058h4.946a.057.057 0 0 0 .058-.058v-1.327a.057.057 0 0 0 -.058-.058zm-6.208-3.517h-2.026a.056.056 0 0 0 -.05.03l-1.744 3.407-1.785-3.407a.056.056 0 0 0 -.05-.03h-2.026c-.02 0-.038.01-.05.026a.06.06 0 0 0 -.001.058l2.85 5.602v2.537c0 .031.025.057.058.057h2.024a.057.057 0 0 0 .057-.057v-2.596l2.795-5.543a.062.062 0 0 0 -.002-.058.057.057 0 0 0 -.05-.026zm-12.964 5.089 1.001-2.687.98 2.687h-1.98zm2.096-5.089h-2.08a.058.058 0 0 0 -.054.035l-3.33 8.165a.058.058 0 0 0 .005.054.06.06 0 0 0 .048.026h2.08a.059.059 0 0 0 .055-.036l.529-1.407h3.272l.518 1.405c.008.024.03.038.055.038h2.157a.057.057 0 0 0 .053-.08l-3.254-8.164a.056.056 0 0 0 -.054-.036zm-8.797 0a.056.056 0 0 0 -.041.017.053.053 0 0 0 -.017.04l.01 4.737-3.426-4.77a.056.056 0 0 0 -.047-.024h-1.782a.056.056 0 0 0 -.056.057v8.166c0 .031.025.057.056.057h1.893a.057.057 0 0 0 .058-.057v-4.702l3.415 4.736a.058.058 0 0 0 .047.023h1.77a.057.057 0 0 0 .059-.057v-8.166a.057.057 0 0 0 -.058-.057zm-11.581 6.466v-1.423l3.638-.012a.057.057 0 0 0 .058-.056v-1.69a.057.057 0 0 0 -.058-.057h-3.638v-1.412h4.037a.057.057 0 0 0 .057-.057v-1.701a.056.056 0 0 0 -.057-.057h-6.12a.056.056 0 0 0 -.057.057v8.166c0 .031.024.057.056.057h6.231a.057.057 0 0 0 .058-.057v-1.701a.057.057 0 0 0 -.058-.057zm-6.2-6.465a.057.057 0 0 0 -.058.057v4.8c0 .503-.13.908-.389 1.2-.257.295-.597.442-1.013.442-.424 0-.779-.15-1.053-.447-.277-.299-.418-.7-.418-1.195v-4.8a.056.056 0 0 0 -.057-.057h-2.025a.057.057 0 0 0 -.058.057v4.8c0 .713.15 1.347.444 1.885.296.54.721.96 1.264 1.251.54.291 1.175.44 1.892.44.715 0 1.347-.149 1.882-.44a3.03 3.03 0 0 0 1.24-1.251c.287-.54.433-1.174.433-1.885v-4.8a.057.057 0 0 0 -.058-.057zm-20.553 5.089 1-2.687.98 2.687zm2.096-5.089h-2.08a.06.06 0 0 0 -.054.035l-3.33 8.165a.058.058 0 0 0 .005.054.06.06 0 0 0 .048.026h2.08a.058.058 0 0 0 .055-.036l.528-1.407h3.273l.518 1.405c.009.024.03.038.054.038h2.158a.057.057 0 0 0 .053-.08l-3.254-8.164a.058.058 0 0 0 -.054-.036z"/><path d="m32.847 3.47c-.838-.265-1.562-.494-1.562-1.052 0-.205.062-.37.185-.489.144-.14.359-.207.633-.205.54.012.896.319.929.803.003.03.028.054.058.054h2.252a.06.06 0 0 0 .043-.018.055.055 0 0 0 .014-.044c-.084-1.578-1.303-2.519-3.258-2.519-1.929 0-3.175.977-3.175 2.488-.015 1.741 1.474 2.191 2.668 2.553.849.256 1.58.478 1.58 1.075 0 .442-.36.717-.94.717-.591 0-.946-.315-1.002-.887a.056.056 0 0 0 -.057-.052h-2.215a.06.06 0 0 0 -.041.017.054.054 0 0 0 -.016.042c.057 1.582 1.389 2.604 3.394 2.604 2.192 0 3.173-1.303 3.173-2.594 0-1.645-1.475-2.115-2.662-2.492zm39.286-3.344a.057.057 0 0 0 -.058.058v5.463c0 .288-.067.51-.202.66-.132.151-.311.225-.548.225-.225 0-.48-.078-.758-.232a3.369 3.369 0 0 1 -.826-.67c-.012-.013-.03-.014-.048-.019a.059.059 0 0 0 -.044.028l-.928 1.455a.058.058 0 0 0 .003.068c.724.888 1.648 1.338 2.745 1.338.845 0 1.523-.249 2.016-.74.493-.489.742-1.185.742-2.067v-5.511a.057.057 0 0 0 -.057-.057h-2.037zm29.06 0h-1.883a.052.052 0 0 0 -.04.016.054.054 0 0 0 -.017.042l.01 4.735-3.423-4.771a.058.058 0 0 0 -.047-.023h-1.783a.057.057 0 0 0 -.057.058v8.165c0 .033.026.058.057.058h1.893a.057.057 0 0 0 .058-.058v-4.702l3.415 4.736c.011.015.03.024.047.024h1.77a.057.057 0 0 0 .059-.058v-8.165a.057.057 0 0 0 -.058-.058zm-13.824 5.09 1.001-2.688.98 2.688h-1.98zm2.096-5.09h-2.08a.057.057 0 0 0 -.053.035l-3.332 8.164a.062.062 0 0 0 .005.056.062.062 0 0 0 .049.025h2.08a.055.055 0 0 0 .053-.038l.53-1.407h3.272l.518 1.407c.008.023.03.038.054.038h2.158a.06.06 0 0 0 .048-.025.059.059 0 0 0 .006-.054l-3.254-8.167a.056.056 0 0 0 -.054-.035zm-10.927 6.464v-1.423l3.638-.011a.058.058 0 0 0 .058-.058v-1.688a.058.058 0 0 0 -.058-.058h-3.638v-1.412h4.038a.057.057 0 0 0 .056-.057v-1.7a.057.057 0 0 0 -.056-.058h-6.122a.057.057 0 0 0 -.057.058v8.165c0 .033.025.058.057.058h6.232a.057.057 0 0 0 .057-.058v-1.7a.057.057 0 0 0 -.057-.058zm-18.67-6.465a.058.058 0 0 0 -.058.058v1.757c0 .033.027.058.058.058h1.833v6.349c0 .033.025.058.056.058h2.027a.057.057 0 0 0 .057-.058v-6.348h1.81a.057.057 0 0 0 .057-.058v-1.758a.057.057 0 0 0 -.057-.058zm-3.63 0a.053.053 0 0 0 -.04.016.054.054 0 0 0 -.016.042l.01 4.735-3.427-4.77a.058.058 0 0 0 -.046-.023h-1.782a.057.057 0 0 0 -.058.058v8.165c0 .033.025.058.058.058h1.892a.057.057 0 0 0 .058-.058v-4.702l3.416 4.736c.01.015.027.024.046.024h1.771a.057.057 0 0 0 .057-.058v-8.165a.057.057 0 0 0 -.057-.058zm-9.698 0a.057.057 0 0 0 -.056.058v8.165c0 .033.024.058.056.058h2.026a.057.057 0 0 0 .058-.058v-8.165a.057.057 0 0 0 -.058-.058zm-6.856 5.09 1-2.688.98 2.688zm2.096-5.09h-2.08a.057.057 0 0 0 -.054.035l-3.331 8.165a.057.057 0 0 0 .006.056c.01.015.028.025.047.025h2.08a.057.057 0 0 0 .054-.038l.53-1.407h3.272l.518 1.407c.008.023.03.038.054.038h2.158c.02 0 .037-.01.048-.025a.057.057 0 0 0 .006-.054l-3.255-8.167c-.007-.021-.03-.035-.053-.035zm-31.76 5.09 1-2.688.98 2.688zm2.096-5.09h-2.08a.057.057 0 0 0 -.054.035l-3.332 8.165a.062.062 0 0 0 .006.056.06.06 0 0 0 .048.025h2.08a.058.058 0 0 0 .055-.038l.528-1.407h3.273l.518 1.407c.008.023.03.038.053.038h2.159a.06.06 0 0 0 .048-.025.059.059 0 0 0 .006-.054l-3.255-8.167a.056.056 0 0 0 -.053-.035zm-9.974 6.348v-6.29a.057.057 0 0 0 -.058-.058h-2.026a.057.057 0 0 0 -.058.058v8.165c0 .033.025.058.058.058h5.313a.057.057 0 0 0 .058-.058v-1.818a.057.057 0 0 0 -.058-.058h-3.231zm19.844-1.078c-.092-.023-.1.022-.14.083-.281.606-.842 1-1.64 1-.982 0-1.956-.68-1.956-2.167 0-1.275.75-2.214 1.92-2.214.811 0 1.37.369 1.715 1.085.02.058.032.08.101.058l1.748-.69c.049-.024.092-.073.036-.214-.53-1.216-1.712-2.274-3.646-2.274-2.294 0-4.099 1.796-4.099 4.236 0 2.285 1.664 4.204 4.16 4.204 1.826 0 3.139-1.168 3.668-2.464.022-.072.01-.12-.105-.156z" mask="url(#a)" transform="translate(55.416 30.482)"/><path d="m82.443 10.194c-.532-.17-.991-.315-.991-.659a.4.4 0 0 1 .112-.3c.085-.082.214-.126.372-.126h.021c.34.008.557.194.578.497a.058.058 0 0 0 .058.054h1.449a.057.057 0 0 0 .058-.06c-.055-1.013-.867-1.64-2.118-1.64-1.253 0-2.063.635-2.063 1.62-.01 1.135.956 1.427 1.731 1.662.538.163 1.002.303 1.002.673 0 .27-.223.44-.584.44-.369 0-.59-.197-.624-.552a.058.058 0 0 0 -.058-.052h-1.426a.058.058 0 0 0 -.042.018.056.056 0 0 0 -.016.042c.037 1.029.902 1.694 2.205 1.694 1.215 0 2.062-.694 2.062-1.688 0-1.075-.958-1.38-1.727-1.623zm13.85 2.024h-2.646v-.873l2.32-.008a.058.058 0 0 0 .056-.058v-1.085a.057.057 0 0 0 -.057-.058h-2.32v-.865h2.576a.057.057 0 0 0 .057-.057v-1.094a.057.057 0 0 0 -.057-.058h-3.934a.058.058 0 0 0 -.057.058v5.247c0 .033.026.058.057.058h4.004a.058.058 0 0 0 .059-.058v-1.093a.058.058 0 0 0 -.059-.057zm-6.84-4.155a.058.058 0 0 0 -.053.033l-1.385 2.958-1.392-2.958a.058.058 0 0 0 -.053-.033h-1.414a.057.057 0 0 0 -.057.058v5.247c0 .033.025.058.057.058h1.16a.057.057 0 0 0 .057-.058v-3.058l1.17 2.558c.01.02.03.034.053.034h.84a.056.056 0 0 0 .051-.034l1.165-2.558.005 3.058c0 .033.026.058.058.058h1.153a.057.057 0 0 0 .058-.058v-5.248a.057.057 0 0 0 -.058-.058h-1.416zm-12.098 0a.058.058 0 0 0 -.057.058v5.247c0 .033.026.058.057.058h1.302a.058.058 0 0 0 .058-.058v-5.248a.058.058 0 0 0 -.058-.058h-1.302zm-2.751 2.51c-.134.127-.327.192-.575.192h-.888v-1.494h.888c.248 0 .443.064.575.19.133.127.199.306.199.546 0 .25-.066.435-.2.565zm.686 1.102c.272-.163.485-.386.632-.664.155-.294.234-.646.234-1.048 0-.599-.19-1.071-.564-1.403-.371-.33-.9-.497-1.57-.497h-2.242a.057.057 0 0 0 -.057.058v5.247c0 .033.025.058.057.058h1.302a.057.057 0 0 0 .058-.058v-1.395h.874l.708 1.421a.06.06 0 0 0 .052.032h1.473c.02 0 .04-.012.05-.03a.061.061 0 0 0 0-.058l-1.008-1.663zm-6.173-3.612a.057.057 0 0 0 -.058.058v3.084c0 .317-.082.573-.246.758a.797.797 0 0 1 -.636.277.87.87 0 0 1 -.662-.281c-.173-.187-.262-.441-.262-.754v-3.085a.057.057 0 0 0 -.058-.058h-1.3a.057.057 0 0 0 -.059.058v3.084c0 .462.097.872.288 1.222s.468.623.821.812c.352.188.763.284 1.226.284.46 0 .87-.096 1.218-.284.348-.189.619-.463.806-.814.187-.35.28-.761.28-1.22v-3.084a.057.057 0 0 0 -.057-.058h-1.3zm-5.814 3.441c-.116.23-.269.407-.468.54a1.15 1.15 0 0 1 -.647.196c-.237 0-.45-.065-.65-.197a1.44 1.44 0 0 1 -.484-.54 1.624 1.624 0 0 1 -.182-.762c0-.273.06-.528.18-.756.117-.226.278-.406.48-.535a1.195 1.195 0 0 1 1.303-.001c.196.128.353.307.468.535.113.23.171.485.171.757 0 .278-.058.535-.171.763zm.275-3.164a2.782 2.782 0 0 0 -1.405-.359c-.515 0-.99.12-1.405.359a2.64 2.64 0 0 0 -.989.986 2.806 2.806 0 0 0 -.359 1.407c0 .52.121 1 .359 1.424.239.425.572.763.989 1.003.418.24.891.363 1.405.363.516 0 .988-.123 1.406-.368.418-.243.75-.58.987-1.001.24-.42.36-.899.36-1.42 0-.519-.12-.991-.36-1.408a2.632 2.632 0 0 0 -.988-.986zm-8.946-.277a.057.057 0 0 0 -.058.058v1.13c0 .032.026.057.058.057h1.421v4.06c0 .033.025.058.058.058h1.303a.057.057 0 0 0 .056-.058v-4.06h1.437a.058.058 0 0 0 .058-.057v-1.131a.058.058 0 0 0 -.058-.058h-4.275zm31.356 10.09a.057.057 0 0 0 -.058.058v4.8c0 .503-.13.908-.389 1.201-.257.293-.598.441-1.012.441-.425 0-.78-.15-1.054-.447v-.001c-.277-.297-.418-.7-.418-1.194v-4.8a.056.056 0 0 0 -.057-.057h-2.025a.057.057 0 0 0 -.058.057v4.8c0 .713.15 1.346.444 1.884.296.54.721.961 1.264 1.252.54.292 1.175.439 1.892.439.714 0 1.347-.147 1.881-.439.534-.29.952-.711 1.24-1.252.288-.538.434-1.173.434-1.884v-4.8a.057.057 0 0 0 -.058-.057h-2.026zm-8.611 17.723c-.093-.022-.101.023-.14.084-.282.605-.842 1-1.64 1-.982 0-1.956-.68-1.956-2.166 0-1.276.75-2.216 1.92-2.216.81 0 1.37.37 1.715 1.086.02.058.032.081.1.058l1.75-.69c.047-.025.091-.073.034-.214-.53-1.215-1.712-2.275-3.645-2.275-2.294 0-4.1 1.797-4.1 4.238 0 2.285 1.664 4.203 4.16 4.203 1.826 0 3.139-1.168 3.668-2.464.022-.072.011-.12-.105-.156zm-1.282-15.919c.62 0 1.18.153 1.66.562l.14.12c.023.02.06.019.081-.002l.219-.216.808-.794.001-.001.233-.23a.05.05 0 0 0 -.003-.074l-.266-.201c-.852-.64-1.964-1.022-2.987-1.022-2.53 0-4.566 1.882-4.566 4.233 0 2.352 2.035 4.209 4.566 4.209 1.844 0 3.154-.764 3.154-.764a.282.282 0 0 0 .101-.188l-.013-3.687c0-.03-.028-.055-.06-.055h-2.907c-.032 0-.059.024-.059.055v1.485c0 .033.028.059.063.059h.98v1.038c-.466.171-.93.204-1.372.181-.794-.04-1.533-.424-1.915-1.068-1.045-1.765.317-3.64 2.142-3.64m45.536 14.168a.057.057 0 0 0 -.058.057v1.329c0 .03.025.056.058.056h2.123a.057.057 0 0 0 .057-.056v-1.329a.057.057 0 0 0 -.057-.057zm-41.026 0a.057.057 0 0 0 -.058.057v1.329c0 .03.026.056.058.056h2.123a.057.057 0 0 0 .058-.056v-1.329a.057.057 0 0 0 -.058-.057z"/></g></svg>