<?xml version="1.0" encoding="UTF-8"?>
<svg width="129px" height="85px" viewBox="0 0 129 85" version="1.1" xmlns="http://www.w3.org/2000/svg" xmlns:xlink="http://www.w3.org/1999/xlink">
    <title>logo-csq</title>
    <g id="Page-1" stroke="none" stroke-width="1" fill="none" fill-rule="evenodd">
        <g id="thumbnail-copy-3" transform="translate(-40.000000, -250.000000)" fill="#FFFFFF" fill-rule="nonzero">
            <g id="logo-csq" transform="translate(40.000000, 250.000000)">
                <path d="M79.167365,14.2069135 C77.8031342,13.0315762 75.515424,11.7932743 73.2696902,11.7722862 C68.1275893,11.751298 65.0423288,15.5921325 63.2583346,19.8527304 C61.2224824,24.7009969 62.1039854,28.6467722 67.6868378,28.6887486 C70.6251812,28.7097367 74.1721813,27.3035296 77.2154655,26.0652277 L72.7239978,31.5851156 C70.0165243,32.1937724 67.4139916,32.4036541 64.8954116,32.3826659 C61.0545771,32.3616778 58.0742574,31.7530209 56.0803816,29.2974054 C54.1494702,26.9887071 53.9815649,23.6725767 55.4927129,20.1045884 C56.8569438,16.8724107 59.7323226,13.4723277 63.2793228,11.3105465 C67.0991691,9.04382449 71.359767,8.22528599 75.0326962,8.24627415 L80.552584,8.72900199 L79.167365,14.2069135 Z M77.8660987,25.9183106 C79.293294,27.5553876 81.9168149,28.6887486 84.6033002,28.7097367 C86.3033417,28.7097367 88.8219217,28.2060207 89.6404602,26.2331331 C91.4454426,21.951547 79.6081165,22.7490974 82.9032587,14.8785349 C83.7427854,12.8636708 85.6107322,10.9537477 87.8144897,9.79939849 C90.2701052,8.54010849 92.7047326,8.14133332 94.9924428,8.14133332 C97.0912594,8.16232149 99.2740288,8.51912032 100.932094,9.23271799 L100.260473,13.8501147 C99.0851353,12.884659 96.5035908,11.6883335 94.6146558,11.6673453 C93.1454841,11.6463572 91.0886437,12.2340258 90.3960342,13.892091 C89.6824366,15.5711444 91.5923597,16.2637539 92.7467089,16.8304344 C94.2368688,17.5860084 95.6430759,18.2576297 96.6505079,19.4959315 C97.8258453,20.9860914 98.1616559,22.5811921 97.1962003,24.8269259 C96.2517328,27.1146361 94.3627978,29.1504882 91.8022414,30.5147191 C88.9478507,32.0048789 86.4082826,32.3197014 83.7427854,32.2987133 C81.2661817,32.2777251 78.9574834,31.8369736 76.9845957,30.9764588 L77.8660987,25.9183106 L77.8660987,25.9183106 Z M110.439733,28.9616809 C105.255656,28.9406066 106.577911,22.4552631 108.131035,18.7193694 C109.537242,15.3402745 112.328669,11.7303098 116.631243,11.7512069 C119.380693,11.7722862 119.968361,13.4933158 120.052314,15.655097 C120.115278,17.5860084 119.569586,19.8737185 118.688083,21.9935234 C117.34484,25.1627366 114.595391,28.9825829 110.439733,28.9616809 Z M110.124911,32.2147606 C111.887917,34.3135773 114.49045,37.6087195 118.058438,37.6087195 C121.500497,37.6087195 123.200539,36.6642519 125.36232,35.3839738 C121.437533,35.1111276 119.52761,32.2777251 117.869545,29.8011214 C121.81532,27.4714349 124.858604,23.8194939 126.369752,20.2305174 C127.692007,17.0613042 127.754971,13.766162 126.306788,11.49944 C124.816628,9.19074166 122.067178,8.26726232 118.646107,8.24627415 C111.027402,8.18330965 103.387709,13.010588 100.40739,20.1465647 C97.6789281,26.6948727 100.281461,32.3406896 107.648307,32.3826659 L110.124911,32.2147606 Z" id="Shape"></path>
                <g id="Group" transform="translate(1.465483, 0.000000)">
                    <path d="M8.71377805,8.16232149 C9.30144672,7.28081848 2.24942269,17.1452569 1.51483685,18.3205942 C-0.0592756554,20.8601624 -3.58528767,38.1963881 11.4632279,44.6187672 C23.5314238,49.760868 35.2847972,44.2409801 40.9096259,35.2370566 C49.2209399,21.9095707 44.9393539,10.0932328 38.2231405,4.63630947 C28.4216666,-3.36018206 15.5139441,-0.169980717 10.2878906,7.80552265 C6.59397321,13.4303513 4.66306187,23.0219436 9.80516272,29.6332161 C17.4868318,39.4766663 31.0661757,36.5173348 34.5502113,27.5973639 C36.1872883,23.3787424 35.0539273,18.8662865 35.1798563,20.188541 C35.1798563,20.2934819 35.1798563,20.6502807 35.0749155,21.5317837 C35.011951,22.0145115 34.3613178,31.0184351 23.3635185,29.9690268 C15.9337074,29.2554291 10.7706184,18.7403575 16.0596364,11.6673453 C25.4623351,-0.904566554 49.7246559,11.9192033 37.5515192,32.5295831 C31.6958207,42.4359978 18.4103111,41.8903055 11.4632279,35.0061868 C4.24329853,27.8702101 3.44574819,15.9489314 8.71377805,8.16232149 Z" id="Path"></path>
                    <circle id="Oval" transform="translate(26.215215, 20.738958) rotate(-25.171000) translate(-26.215215, -20.738958) " cx="26.2152154" cy="20.7389583" r="8.0804442"></circle>
                </g>
                <path d="M6.7581897,64.2846794 L6.67423703,66.3625079 L6.61127253,66.4464606 C6.21249736,66.6353541 5.54087602,66.9291884 4.49146769,66.9291884 C1.49015984,66.9291884 0.0419763335,64.5785137 0.0419763335,61.9130166 C0.0419763335,59.4783892 1.15434917,56.686963 4.34455052,56.686963 C5.43593519,56.686963 6.19150919,57.0017855 6.6322607,57.2116672 L6.67423703,57.2746317 L6.5692962,59.2055431 L6.46435536,59.2265312 C6.14953286,58.953685 5.64581686,58.5549099 4.72233752,58.5549099 C2.70747351,58.5549099 2.35067468,60.6537266 2.35067468,61.8500521 C2.35067468,63.8229397 3.33711852,65.0192652 4.74332569,65.0192652 C5.77174586,65.0192652 6.40139086,64.4945611 6.67423703,64.2427031 L6.7581897,64.2846794 L6.7581897,64.2846794 Z M9.46566321,62.1648746 C9.50763954,61.7241231 9.59159221,61.1574426 10.0533319,60.8216319 C10.200249,60.7166911 10.3681544,60.6747147 10.5570479,60.6747147 C10.955823,60.6747147 11.2076811,60.9055846 11.3545982,61.1574426 C11.5225036,61.4722651 11.5434917,61.7870876 11.5434917,62.1228982 L9.46566321,62.1648746 L9.46566321,62.1648746 Z M13.2015569,64.6624664 C12.7398172,64.9353126 12.1731367,65.2711232 11.2706456,65.2711232 C10.5360597,65.2711232 10.0323437,64.9982771 9.71752121,64.5155492 C9.52862771,64.2217149 9.48665138,63.9488687 9.44467504,63.6760226 L13.4324267,63.5920699 L13.5163794,63.4871291 C13.4953912,62.7945196 13.4953912,62.1019101 13.3274859,61.4093006 C12.8867344,59.7722236 11.9422669,59.4364129 11.5225036,59.3314721 C11.2076811,59.2265312 10.9348349,59.2055431 10.6410005,59.2055431 C8.71008921,59.2055431 7.42981103,60.6327384 7.42981103,63.0463776 C7.42981103,63.6970107 7.53475187,64.3896202 7.72364537,64.8723481 C8.43724304,66.7612831 10.1162964,66.9082003 10.9977994,66.9082003 C12.0262196,66.9082003 12.4669711,66.6983186 13.1176042,66.4044842 L13.2015569,66.2995434 L13.2855096,64.7254309 L13.2015569,64.6624664 Z M20.6313679,66.7193068 C19.6449241,66.7193068 19.4350424,66.7402949 18.6165039,66.7612831 L18.5325513,66.6773304 C18.5325513,66.1946026 18.5535394,65.7118747 18.5535394,65.2501351 C18.5535394,64.7254309 18.5325513,62.8155077 18.5115631,62.3537681 C18.4695867,61.8500521 18.4066222,61.0315136 17.7350009,61.0315136 C17.3362257,61.0315136 17.0423914,61.2623834 16.7905334,61.4722651 C16.8115216,63.9698569 16.8115216,64.5155492 16.8954742,66.6563423 L16.8115216,66.7402949 C15.8250777,66.7402949 15.6361842,66.7402949 14.7546812,66.7822713 L14.6917167,66.6983186 C14.7127049,65.8168156 14.7127049,64.9143244 14.7127049,64.0328214 C14.7127049,61.7660994 14.6287522,60.8845964 14.5447996,59.6672827 L14.6077641,59.5623419 C15.5312434,59.4154247 15.7411251,59.3734484 16.6855926,59.1635667 L16.8115216,59.2685076 L16.7905334,60.0450697 C17.3572139,59.6672827 18.0078471,59.2265312 18.7634211,59.2265312 C19.2041726,59.2265312 19.9177703,59.3314721 20.2955573,60.0660579 C20.6103798,60.6327384 20.6103798,61.2833716 20.6313679,62.6056261 L20.6313679,63.6970107 C20.6523561,65.0612416 20.6523561,65.4600167 20.7153206,66.6773304 L20.6313679,66.7193068 L20.6313679,66.7193068 Z M25.6685279,65.1871706 L25.5425989,66.6143659 L25.4586463,66.7193068 C25.0178948,66.8032594 24.6401078,66.8872121 24.1573799,66.8872121 C22.2264686,66.8872121 22.2054804,65.5019931 22.2054804,64.2217149 C22.2054804,63.8649161 22.2264686,63.5081172 22.2264686,63.1723066 L22.2684449,60.9685491 L21.4918828,60.9895372 L21.4079301,60.9055846 L21.5128709,59.4154247 L21.5758354,59.3524602 L22.2474568,59.3734484 L22.2264686,57.6314305 L22.2684449,57.5264897 C23.1499479,57.2746317 23.3598296,57.2116672 24.1993563,56.9178329 L24.2833089,57.0017855 L24.2413326,59.3314721 L25.4796344,59.3314721 L25.5635871,59.4154247 L25.4376581,60.9055846 L25.3537054,60.9895372 L24.2413326,60.9265727 L24.2203444,62.8994604 C24.1993563,63.4661409 24.1993563,64.2217149 24.2413326,64.5785137 C24.2623208,64.7883954 24.3252853,65.2291469 24.9549303,65.2291469 C25.1648119,65.2291469 25.3117291,65.1661824 25.5216108,65.1032179 L25.6685279,65.1871706 L25.6685279,65.1871706 Z M29.950114,61.6191822 C29.7822086,61.5142414 29.6562796,61.4302887 29.446398,61.4302887 C28.6068713,61.4302887 28.6068713,62.3537681 28.6068713,62.9834131 C28.6068713,63.9488687 28.690824,65.5229812 28.7328003,66.6353541 L28.6698358,66.7402949 C27.683392,66.7193068 27.4944985,66.7402949 26.5710191,66.7822713 L26.5080546,66.6983186 C26.5290428,65.5439694 26.550031,64.4106084 26.550031,63.2562592 C26.550031,61.3253479 26.5080546,60.6957029 26.4450901,59.6462946 L26.5290428,59.5623419 C27.431534,59.4154247 27.6624038,59.3734484 28.5858831,59.1425786 L28.690824,59.2475194 L28.6488476,60.5277976 C29.0476228,59.4993774 29.6143033,59.1845549 30.1180193,59.1845549 C30.201972,59.1845549 30.2859246,59.2055431 30.3698773,59.2055431 L30.45383,59.3104839 L30.1180193,61.5772059 L29.950114,61.6191822 L29.950114,61.6191822 Z M34.5884988,64.7883954 C34.3366408,64.9563007 34.0008302,65.1451942 33.5810668,65.1451942 C33.1403153,65.1451942 32.7625283,64.8723481 32.7625283,64.3056676 C32.7625283,63.3821882 33.727984,63.2352711 34.5675107,63.1093421 L34.5675107,64.7883954 L34.5884988,64.7883954 Z M36.624351,62.5846379 C36.6453392,61.3253479 36.6453392,60.7796556 36.3095285,60.2129751 C36.0576705,59.7722236 35.5749427,59.2055431 33.979842,59.2055431 C32.9094455,59.2055431 32.2588123,59.4364129 31.5662028,59.6672827 L31.4822501,59.7722236 L31.4192856,61.2833716 L31.5242265,61.3463361 C31.964978,61.1574426 32.7625283,60.7796556 33.5810668,60.7796556 C34.0428065,60.7796556 34.2317,60.8636082 34.3786172,61.0525017 C34.5045462,61.1994189 34.5465225,61.4512769 34.5465225,61.6401704 C33.0563626,61.8710402 32.3637531,62.0179574 31.6291673,62.5216734 C30.9365578,63.0044012 30.705688,63.8019516 30.705688,64.4315966 C30.705688,65.9217564 31.6501555,66.8872121 32.8674691,66.8872121 C33.7909485,66.8872121 34.3156527,66.3834961 34.5884988,66.1526262 L34.5884988,66.6773304 L34.6724515,66.7822713 C35.5539545,66.7402949 35.8268007,66.7193068 36.624351,66.7402949 L36.6873155,66.6353541 C36.6033628,65.2711232 36.6033628,64.9143244 36.6033628,63.6130581 L36.624351,62.5846379 L36.624351,62.5846379 Z M40.150363,66.7193068 C39.2478718,66.6983186 38.9120612,66.7193068 38.0935227,66.7612831 L38.00957,66.6563423 C38.0515463,65.2711232 38.0935227,64.4525847 38.0935227,62.9414367 C38.0935227,62.1228982 38.0935227,61.3043597 38.0725345,60.4858212 C38.0515463,58.2400874 38.0305582,57.7783477 37.9046292,56.0783062 L37.9466055,55.9943535 L40.0664103,55.6165665 L40.150363,55.7215074 C40.1083867,57.2326554 40.0873985,57.8623004 40.0873985,59.1845549 C40.0873985,63.5920699 40.150363,65.0402534 40.2133275,66.6563423 L40.150363,66.7193068 L40.150363,66.7193068 Z M43.4035289,62.1648746 C43.4455052,61.7241231 43.5294579,61.1574426 43.9911975,60.8216319 C44.1381147,60.7166911 44.30602,60.6747147 44.4949135,60.6747147 C44.8936887,60.6747147 45.1455467,60.9055846 45.2924639,61.1574426 C45.4603692,61.4722651 45.4813574,61.7870876 45.4813574,62.1228982 L43.4035289,62.1648746 L43.4035289,62.1648746 Z M47.1394225,64.6624664 C46.6776829,64.9353126 46.1110024,65.2711232 45.2085112,65.2711232 C44.4739254,65.2711232 43.9702094,64.9982771 43.676375,64.5155492 C43.4874815,64.2217149 43.4455052,63.9488687 43.4035289,63.6760226 L47.3912805,63.5920699 L47.4752332,63.4871291 C47.454245,62.7945196 47.454245,62.1019101 47.2863397,61.4093006 C46.8455882,59.7722236 45.9011207,59.4364129 45.4813574,59.3314721 C45.1665349,59.2265312 44.8936887,59.2055431 44.5998544,59.2055431 C42.668943,59.2055431 41.3886649,60.6327384 41.3886649,63.0463776 C41.3886649,63.6970107 41.4936057,64.3896202 41.6824992,64.8723481 C42.3960969,66.7612831 44.0751502,66.9082003 44.9566532,66.9082003 C45.9850734,66.9082003 46.4258249,66.6983186 47.076458,66.4044842 L47.1604107,66.2995434 L47.2443634,64.7254309 L47.1394225,64.6624664 Z M56.1643343,60.9685491 C56.1853224,62.8155077 56.1643343,63.1723066 56.1223579,64.8723481 C55.8704999,65.0402534 55.6186419,65.2081587 55.2828312,65.2081587 C54.0865057,65.2081587 54.0865057,63.4871291 54.0865057,63.1932947 C54.0865057,62.1228982 54.3593519,60.9265727 55.7445709,60.9265727 C55.8704999,60.9265727 55.9754408,60.9475609 56.1643343,60.9685491 Z M58.2631509,66.6353541 C58.2211746,65.3760641 58.1791983,64.5365374 58.1791983,62.7315551 C58.1791983,59.0586259 58.2211746,57.5474779 58.2841391,55.7005192 L58.2001864,55.6165665 L56.1643343,55.9733654 L56.1013698,56.057318 C56.1853224,57.3585844 56.1853224,57.7153832 56.1853224,59.3104839 C55.2618431,59.2894957 54.1074939,59.2475194 53.1630264,60.0870461 C52.3025116,60.8426201 51.9457127,61.9969692 51.9457127,63.4241646 C51.9457127,64.5155492 52.1975707,65.5859457 52.9321566,66.2785552 C53.4778489,66.7822713 54.1494702,66.8872121 54.5482454,66.8872121 C55.4297484,66.8872121 55.8914881,66.4254724 56.1853224,66.1316381 L56.1643343,66.6773304 L56.2272988,66.7612831 C57.0878136,66.7193068 57.3186834,66.7193068 58.2421628,66.7193068 L58.2631509,66.6353541 L58.2631509,66.6353541 Z M61.4113759,62.1648746 C61.4533523,61.7241231 61.5373049,61.1574426 61.9990446,60.8216319 C62.1459618,60.7166911 62.3138671,60.6747147 62.5027606,60.6747147 C62.9015358,60.6747147 63.1533938,60.9055846 63.300311,61.1574426 C63.4682163,61.4722651 63.4892045,61.7870876 63.4892045,62.1228982 L61.4113759,62.1648746 L61.4113759,62.1648746 Z M65.1472696,64.6624664 C64.68553,64.9353126 64.1188495,65.2711232 63.2163583,65.2711232 C62.4817724,65.2711232 61.9780564,64.9982771 61.6632339,64.5155492 C61.4743404,64.2217149 61.4323641,63.9488687 61.3903878,63.6760226 L65.3781395,63.5920699 L65.4620921,63.4871291 C65.441104,62.7945196 65.441104,62.1019101 65.2731986,61.4093006 C64.8324471,59.7722236 63.8879796,59.4364129 63.4682163,59.3314721 C63.1533938,59.2265312 62.8805476,59.2055431 62.5867133,59.2055431 C60.6558019,59.2055431 59.3545356,60.6327384 59.3545356,63.0463776 C59.3545356,63.6970107 59.4594764,64.3896202 59.6483699,64.8723481 C60.3619676,66.7612831 62.0410209,66.9082003 62.922524,66.9082003 C63.9509441,66.9082003 64.3916956,66.6983186 65.0423288,66.4044842 L65.1262815,66.2995434 L65.2102341,64.7254309 L65.1472696,64.6624664 Z M69.7856545,62.1648746 C70.4572758,62.4587089 71.4227315,62.8574841 71.4227315,64.3896202 C71.4227315,64.4945611 71.4227315,64.5785137 71.4017433,64.7044427 C71.1708735,66.6983186 69.3239148,66.8872121 68.4004355,66.8872121 C67.4979443,66.8872121 66.9732401,66.6563423 66.3855715,66.4044842 L66.322607,66.2785552 C66.3645833,65.5859457 66.3855715,65.4390286 66.4065596,64.7044427 L66.5115005,64.6414782 C66.700394,64.8093836 66.8053348,64.9143244 67.0152165,65.0402534 C67.4769561,65.3130996 67.9806721,65.4390286 68.3164828,65.4390286 C69.0090923,65.4390286 69.2819385,65.0612416 69.2819385,64.7044427 C69.2819385,64.2007267 68.7362461,63.9908451 68.4004355,63.8649161 L67.9386958,63.6760226 C67.3510271,63.4241646 66.3435951,62.9834131 66.3435951,61.4932532 C66.3435951,60.9265727 66.5115005,60.5277976 66.6794058,60.2759396 C67.330039,59.2265312 68.5263645,59.1845549 69.1350213,59.1845549 C69.9325716,59.1845549 70.4362877,59.3524602 71.0239563,59.5413537 L71.0869208,59.6253064 L70.9609918,61.1364544 L70.856051,61.1784307 C70.5412285,60.9475609 70.0585006,60.5907621 69.3239148,60.5907621 C68.5683408,60.5907621 68.4634,61.0525017 68.4634,61.2204071 C68.4634,61.6191822 68.7992106,61.7660994 69.218974,61.9340047 L69.7856545,62.1648746 L69.7856545,62.1648746 Z M79.3142822,62.1648746 C79.9859035,62.4587089 80.9513592,62.8574841 80.9513592,64.3896202 C80.9513592,64.4945611 80.9513592,64.5785137 80.930371,64.7044427 C80.6995012,66.6983186 78.8525425,66.8872121 77.9290632,66.8872121 C77.026572,66.8872121 76.5018678,66.6563423 75.9141992,66.4044842 L75.8512347,66.2785552 C75.893211,65.5859457 75.9141992,65.4390286 75.9351873,64.7044427 L76.0401282,64.6414782 C76.2290217,64.8093836 76.3339625,64.9143244 76.5438442,65.0402534 C77.0055838,65.3130996 77.5092998,65.4390286 77.8451105,65.4390286 C78.53772,65.4390286 78.8105662,65.0612416 78.8105662,64.7044427 C78.8105662,64.2007267 78.2648739,63.9908451 77.9290632,63.8649161 L77.4673235,63.6760226 C76.8796548,63.4241646 75.8722228,62.9834131 75.8722228,61.4932532 C75.8722228,60.9265727 76.0401282,60.5277976 76.2080335,60.2759396 C76.8586667,59.2265312 78.0549922,59.1845549 78.663649,59.1845549 C79.4611994,59.1845549 79.9649154,59.3524602 80.552584,59.5413537 L80.6155485,59.6253064 L80.4896195,61.1364544 L80.3846787,61.1784307 C80.0698562,60.9475609 79.5871284,60.5907621 78.8315544,60.5907621 C78.0759804,60.5907621 77.9710395,61.0525017 77.9710395,61.2204071 C77.9710395,61.6191822 78.3068502,61.7660994 78.7266135,61.9340047 L79.3142822,62.1648746 L79.3142822,62.1648746 Z M87.6046081,59.4154247 C87.4367027,59.9611171 87.2478092,60.5068094 87.0589157,61.0525017 C85.4218387,65.9007682 85.1070162,67.0761056 84.4144067,70.0774134 L84.330454,70.1613661 C84.0156315,70.1613661 83.700809,70.1403779 83.3859865,70.1403779 C83.071164,70.1403779 82.7143652,70.1613661 82.4205309,70.1613661 L82.3575664,70.0564253 C82.9242469,68.6712063 83.0081995,68.4193483 83.5119155,66.9711648 C82.7563415,64.3056676 81.6019924,60.8006437 81.1612409,59.4783892 L81.2242054,59.3734484 C82.2316374,59.3524602 82.441519,59.3314721 83.4069747,59.2475194 L83.5119155,59.3314721 L84.0156315,61.4512769 L84.3724304,62.9204486 L84.6033002,63.9068924 L84.8761464,62.8574841 L85.1909689,61.6611586 C85.4848032,60.5697739 85.5267796,60.3598922 85.7366612,59.4154247 L85.8416021,59.3104839 L87.5626317,59.2685076 L87.6046081,59.4154247 L87.6046081,59.4154247 Z M94.1529161,66.7193068 C93.1664723,66.7193068 92.9565906,66.7402949 92.1380521,66.7612831 L92.0540994,66.6773304 C92.0540994,66.1946026 92.0750876,65.7118747 92.0750876,65.2501351 C92.0750876,64.7254309 92.0540994,62.8155077 92.0331112,62.3537681 C91.9911349,61.8500521 91.9281704,61.0315136 91.2565491,61.0315136 C90.8577739,61.0315136 90.5639396,61.2623834 90.3120816,61.4722651 C90.3330697,63.9698569 90.3330697,64.5155492 90.4170224,66.6563423 L90.3330697,66.7402949 C89.3466259,66.7402949 89.1577324,66.7402949 88.2762294,66.7822713 L88.1922767,66.6983186 C88.2132649,65.8168156 88.2132649,64.9143244 88.2132649,64.0328214 C88.2132649,61.7660994 88.1293122,60.8845964 88.0453596,59.6672827 L88.1293122,59.5623419 C89.0527916,59.4154247 89.2626732,59.3734484 90.2071407,59.1635667 L90.3330697,59.2685076 L90.3120816,60.0450697 C90.8787621,59.6672827 91.5293952,59.2265312 92.2849692,59.2265312 C92.7257208,59.2265312 93.4393184,59.3314721 93.8171054,60.0660579 C94.1319279,60.6327384 94.1319279,61.2833716 94.1529161,62.6056261 L94.1529161,63.6970107 C94.1739043,65.0612416 94.1739043,65.4600167 94.2368688,66.6773304 L94.1529161,66.7193068 L94.1529161,66.7193068 Z M99.6098394,60.9685491 C99.6308276,62.8155077 99.6098394,63.1723066 99.5678631,64.8723481 C99.3160051,65.0402534 99.0641471,65.2081587 98.7283364,65.2081587 C97.5320109,65.2081587 97.5320109,63.4871291 97.5320109,63.1932947 C97.5320109,62.1228982 97.8048571,60.9265727 99.1900761,60.9265727 C99.3160051,60.9265727 99.4419341,60.9475609 99.6098394,60.9685491 Z M101.708656,66.6353541 C101.66668,65.3760641 101.624703,64.5365374 101.624703,62.7315551 C101.624703,59.0586259 101.66668,57.5474779 101.729644,55.7005192 L101.645692,55.6165665 L99.6098394,55.9733654 L99.5468749,56.057318 C99.6308276,57.3585844 99.6308276,57.7153832 99.6308276,59.3104839 C98.7073483,59.2894957 97.5529991,59.2475194 96.6085316,60.0870461 C95.7480168,60.8426201 95.3912179,61.9969692 95.3912179,63.4241646 C95.3912179,64.5155492 95.6430759,65.5859457 96.3776618,66.2785552 C96.9233541,66.7822713 97.5949754,66.8872121 97.9937506,66.8872121 C98.8752536,66.8872121 99.3369933,66.4254724 99.6308276,66.1316381 L99.6098394,66.6773304 L99.6728039,66.7612831 C100.533319,66.7193068 100.764189,66.7193068 101.687668,66.7193068 L101.708656,66.6353541 L101.708656,66.6353541 Z M105.255656,66.7193068 C104.248224,66.6983186 104.017354,66.7193068 103.114863,66.7612831 L103.030911,66.6563423 C103.072887,65.5229812 103.114863,64.6624664 103.114863,63.1513184 C103.114863,61.1784307 103.072887,60.6957029 102.988934,59.6253064 L103.072887,59.5413537 L105.192692,59.1215904 L105.276644,59.2265312 C105.255656,60.4018686 105.234668,61.5981941 105.234668,62.7945196 C105.234668,64.7254309 105.276644,65.5439694 105.339609,66.6143659 L105.255656,66.7193068 Z M105.087751,57.9042767 C104.206248,58.0302057 103.975378,58.0511939 103.135851,58.2190992 L103.051899,58.1351465 C103.072887,57.8623004 103.072887,57.5894542 103.072887,57.3375962 C103.072887,57.0017855 103.051899,56.7079512 103.030911,56.2042352 L103.093875,56.0992944 L105.108739,55.8264482 L105.192692,55.9104009 L105.150715,57.7993359 L105.087751,57.9042767 L105.087751,57.9042767 Z M111.636059,64.7883954 L111.594083,66.4674487 L111.51013,66.5514014 C110.985426,66.7193068 110.565662,66.8662239 109.915029,66.8662239 C107.144591,66.8662239 106.389017,64.7044427 106.389017,63.0883539 C106.389017,61.6611586 106.955698,59.1845549 109.852065,59.1845549 C110.565662,59.1845549 111.027402,59.3524602 111.573095,59.5413537 L111.636059,59.6253064 C111.531118,60.3598922 111.531118,60.5487857 111.468154,61.3043597 L111.342225,61.3463361 C110.964438,61.0734899 110.670603,60.8426201 110.124911,60.8426201 C108.928585,60.8426201 108.52981,62.0179574 108.52981,63.0253894 C108.52981,63.8649161 108.802656,65.1661824 110.208864,65.1661824 C110.838509,65.1661824 111.153331,64.9353126 111.489142,64.7254309 L111.636059,64.7883954 L111.636059,64.7883954 Z M116.08555,64.7883954 C115.833692,64.9563007 115.497882,65.1451942 115.078118,65.1451942 C114.637367,65.1451942 114.25958,64.8723481 114.25958,64.3056676 C114.25958,63.3821882 115.225036,63.2352711 116.064562,63.1093421 L116.064562,64.7883954 L116.08555,64.7883954 Z M118.121403,62.5846379 C118.142391,61.3253479 118.142391,60.7796556 117.80658,60.2129751 C117.554722,59.7722236 117.071994,59.2055431 115.476894,59.2055431 C114.406497,59.2055431 113.755864,59.4364129 113.063254,59.6672827 L112.979302,59.7722236 L112.916337,61.2833716 L113.021278,61.3463361 C113.46203,61.1574426 114.25958,60.7796556 115.078118,60.7796556 C115.539858,60.7796556 115.728752,60.8636082 115.875669,61.0525017 C116.001598,61.1994189 116.043574,61.4512769 116.043574,61.6401704 C114.553414,61.8710402 113.881793,62.0179574 113.126219,62.5216734 C112.433609,63.0044012 112.20274,63.8019516 112.20274,64.4315966 C112.20274,65.9217564 113.147207,66.8872121 114.364521,66.8872121 C115.288,66.8872121 115.812704,66.3834961 116.08555,66.1526262 L116.08555,66.6773304 L116.169503,66.7822713 C117.051006,66.7402949 117.323852,66.7193068 118.121403,66.7402949 L118.184367,66.6353541 C118.100414,65.2711232 118.100414,64.9143244 118.100414,63.6130581 L118.121403,62.5846379 L118.121403,62.5846379 Z M123.116586,65.1871706 L122.990657,66.6143659 L122.906705,66.7193068 C122.465953,66.8032594 122.088166,66.8872121 121.605438,66.8872121 C119.674527,66.8872121 119.653539,65.5019931 119.653539,64.2217149 C119.653539,63.8649161 119.674527,63.5081172 119.674527,63.1723066 L119.716503,60.9685491 L118.939941,60.9895372 L118.855988,60.9055846 L118.960929,59.4154247 L119.044882,59.3524602 L119.716503,59.3734484 L119.695515,57.6314305 L119.737491,57.5264897 C120.618994,57.2746317 120.828876,57.2116672 121.668403,56.9178329 L121.752355,57.0017855 L121.710379,59.3314721 L122.948681,59.3314721 L123.032634,59.4154247 L122.906705,60.9055846 L122.822752,60.9895372 L121.710379,60.9265727 L121.689391,62.8994604 C121.668403,63.4661409 121.668403,64.2217149 121.710379,64.5785137 C121.731367,64.7883954 121.794332,65.2291469 122.423977,65.2291469 C122.633858,65.2291469 122.780776,65.1661824 122.990657,65.1032179 L123.116586,65.1871706 L123.116586,65.1871706 Z M127.125326,62.1648746 C127.796947,62.4587089 128.762403,62.8574841 128.762403,64.3896202 C128.762403,64.4945611 128.762403,64.5785137 128.741415,64.7044427 C128.510545,66.6983186 126.663586,66.8872121 125.740107,66.8872121 C124.837616,66.8872121 124.312912,66.6563423 123.725243,66.4044842 L123.662279,66.2785552 C123.704255,65.5859457 123.725243,65.4390286 123.746231,64.7044427 L123.851172,64.6414782 C124.040066,64.8093836 124.145006,64.9143244 124.354888,65.0402534 C124.816628,65.3130996 125.320344,65.4390286 125.656154,65.4390286 C126.348764,65.4390286 126.62161,65.0612416 126.62161,64.7044427 C126.62161,64.2007267 126.075918,63.9908451 125.740107,63.8649161 L125.278367,63.6760226 C124.690699,63.4241646 123.683267,62.9834131 123.683267,61.4932532 C123.683267,60.9265727 123.851172,60.5277976 124.019077,60.2759396 C124.669711,59.2265312 125.866036,59.1845549 126.474693,59.1845549 C127.272243,59.1845549 127.775959,59.3524602 128.363628,59.5413537 L128.426592,59.6253064 L128.300663,61.1364544 L128.195723,61.1784307 C127.8809,60.9475609 127.398172,60.5907621 126.642598,60.5907621 C125.887024,60.5907621 125.782083,61.0525017 125.782083,61.2204071 C125.782083,61.6191822 126.117894,61.7660994 126.537657,61.9340047 L127.125326,62.1648746 L127.125326,62.1648746 Z M4.21862152,76.7726386 C4.23960969,78.6195973 4.21862152,78.9763961 4.17664519,80.6764376 C3.92478718,80.844343 3.67292918,81.0122483 3.33711852,81.0122483 C2.14079301,81.0122483 2.14079301,79.2912186 2.14079301,78.9973843 C2.14079301,77.9269878 2.41363918,76.7306623 3.79885818,76.7306623 C3.94577535,76.7306623 4.05071618,76.7516505 4.21862152,76.7726386 L4.21862152,76.7726386 Z M6.3174382,82.4394437 C6.27546186,81.1801536 6.23348553,80.340627 6.23348553,78.5356446 C6.23348553,74.8627155 6.27546186,73.3515674 6.33842636,71.5046088 L6.25447369,71.4206561 L4.21862152,71.7774549 L4.15565702,71.8614076 C4.23960969,73.1626739 4.23960969,73.5194728 4.23960969,75.1145735 C3.31613035,75.0935853 2.16178118,75.051609 1.21731367,75.8911356 C0.356798835,76.6467096 0,77.8010588 0,79.2282541 C0,80.3196388 0.251858001,81.3900353 0.986443838,82.0826448 C1.53213617,82.5863608 2.20375751,82.6913017 2.60253268,82.6913017 C3.48403568,82.6913017 3.94577535,82.229562 4.23960969,81.9357277 L4.21862152,82.48142 L4.28158602,82.5653727 C5.14210086,82.5233963 5.37297069,82.5233963 6.29645003,82.5233963 L6.3174382,82.4394437 L6.3174382,82.4394437 Z M13.7472492,75.1985261 C13.7262611,76.4997925 13.7052729,77.822047 13.7052729,79.1233133 C13.7052729,80.9282956 13.7262611,81.4529998 13.7892256,82.4604318 L13.7052729,82.5443845 C12.9077226,82.5443845 12.6348764,82.5443845 11.7323852,82.5863608 L11.6484326,82.5024082 L11.6694207,81.8727632 C11.2286692,82.2715383 10.7249532,82.7122898 9.84345021,82.7122898 C9.23479337,82.7122898 8.62613654,82.48142 8.22736137,81.977704 C7.78660987,81.3900353 7.72364537,80.7603903 7.72364537,79.2282541 L7.72364537,78.2627985 C7.72364537,76.8565913 7.7026572,76.4578161 7.6396927,75.303467 L7.72364537,75.2195143 L9.75949754,75.1145735 L9.84345021,75.2195143 L9.82246204,78.0319286 C9.80147388,78.3887275 9.80147388,78.7455263 9.80147388,79.081337 C9.80147388,79.8998755 9.80147388,80.970272 10.6829769,80.970272 C11.0187875,80.970272 11.2706456,80.7603903 11.6064562,80.5085323 C11.6274444,79.96284 11.6274444,79.7319701 11.6274444,79.333195 C11.6274444,79.1023251 11.6274444,76.8775795 11.5434917,75.303467 L11.6274444,75.2195143 L13.6423084,75.1145735 L13.7472492,75.1985261 L13.7472492,75.1985261 Z M24.4931906,77.696118 C24.4931906,79.1652896 24.2623208,80.9492838 22.7091964,80.9492838 C22.1844923,80.9492838 21.6807763,80.6974258 21.3659538,80.1097571 C20.9671786,79.3961595 20.9042141,78.4726801 20.9042141,77.5072245 C20.9042141,77.066473 20.9252023,76.6257215 21.0091549,76.18497 C21.2400248,74.92568 21.8696698,74.2540586 22.6882083,74.2540586 C23.4227941,74.2540586 23.7795929,74.6108575 24.0314509,75.0306208 C24.3672616,75.5763131 24.5141788,76.6047333 24.4931906,77.696118 Z M26.5710191,84.9370355 L27.2216523,83.236994 L27.179676,83.1320532 C25.9623623,82.6913017 25.7314924,82.607349 24.6820841,82.1665975 C25.1438238,81.8937513 25.6685279,81.5789288 26.1512558,80.6344613 C26.6549718,79.710982 26.801889,78.5986091 26.801889,77.5072245 C26.801889,76.1639818 26.4870665,74.547893 25.5216108,73.5614491 C24.8709776,72.8898278 23.8215693,72.5120408 22.7301846,72.5120408 C20.2535809,72.5120408 18.5745276,74.3380113 18.5745276,77.7380943 C18.5745276,78.451692 18.6794684,80.8653311 20.1906164,81.977704 C20.8622378,82.4604318 21.4499064,82.607349 22.0375751,82.7122898 L22.1215278,82.733278 C23.1919243,83.2579822 23.5067468,83.4258875 26.4660783,85 L26.5710191,84.9370355 L26.5710191,84.9370355 Z M34.0637947,75.1985261 C34.0428065,76.4997925 34.0218183,77.822047 34.0218183,79.1233133 C34.0218183,80.9282956 34.0428065,81.4529998 34.105771,82.4604318 L34.0218183,82.5443845 C33.224268,82.5443845 32.9514218,82.5443845 32.0489306,82.5863608 L31.964978,82.5024082 L31.9859661,81.8727632 C31.5452146,82.2715383 31.0414986,82.7122898 30.1599956,82.7122898 C29.5513388,82.7122898 28.942682,82.48142 28.5439068,81.977704 C28.1031553,81.3900353 28.0401908,80.7603903 28.0401908,79.2282541 L28.0401908,78.2627985 C28.0401908,76.8565913 28.0192026,76.4578161 27.9562381,75.303467 L28.0401908,75.2195143 L30.076043,75.1145735 L30.1599956,75.2195143 L30.1390075,78.0319286 C30.1180193,78.3887275 30.1180193,78.7455263 30.1180193,79.081337 C30.1180193,79.8998755 30.1180193,80.970272 30.9995223,80.970272 C31.335333,80.970272 31.587191,80.7603903 31.9230016,80.5085323 C31.9439898,79.96284 31.9439898,79.7319701 31.9439898,79.333195 C31.9439898,79.1023251 31.9439898,76.8775795 31.8600371,75.303467 L31.9439898,75.2195143 L33.9588538,75.1145735 L34.0637947,75.1985261 L34.0637947,75.1985261 Z M37.253996,77.9689641 C37.2959723,77.5282126 37.379925,76.9615321 37.8416647,76.6257215 C37.9885818,76.5207806 38.1564872,76.4788043 38.3453807,76.4788043 C38.7441558,76.4788043 38.9960138,76.7096741 39.142931,76.9615321 C39.3108363,77.2763546 39.3318245,77.6121653 39.3318245,77.9269878 L37.253996,77.9689641 L37.253996,77.9689641 Z M40.1293748,71.7774549 L38.1774753,71.7984431 L38.1145108,71.8614076 C37.8206765,72.9527923 37.7367238,73.2256384 37.3589368,74.1910941 L37.4009132,74.2750468 L38.7441558,74.2750468 L38.8281085,74.2120823 C39.2058955,73.4984846 39.772576,72.5330289 40.150363,71.8614076 L40.1293748,71.7774549 L40.1293748,71.7774549 Z M40.9898897,80.466556 C40.52815,80.7394021 39.9614695,81.0752128 39.0589783,81.0752128 C38.3243925,81.0752128 37.8206765,80.8023666 37.5268422,80.3196388 C37.3379487,80.0258045 37.2959723,79.7529583 37.253996,79.4801121 L41.2417477,79.3961595 L41.3257004,79.2912186 C41.3047122,78.6195973 41.3047122,77.9059996 41.1368069,77.2133901 C40.6960553,75.5763131 39.7515878,75.2405025 39.3318245,75.1145735 C39.017002,75.0096326 38.7441558,74.9886445 38.4503215,74.9886445 C36.5194102,74.9886445 35.2181438,76.4158398 35.2181438,78.829479 C35.2181438,79.4801121 35.3230847,80.1727216 35.5119782,80.6554495 C36.2255758,82.5443845 37.9046292,82.7122898 38.7861322,82.7122898 C39.8145523,82.7122898 40.2553038,82.5024082 40.905937,82.2085738 L40.9898897,82.103633 L41.0738424,80.5295205 L40.9898897,80.466556 Z M44.5159017,76.9195558 C44.7677597,76.7726386 44.9986295,76.6467096 45.313452,76.6467096 C46.1319905,76.6467096 46.5937302,77.4652481 46.5937302,78.7455263 C46.5937302,79.7529583 46.194955,80.4035915 45.8591444,80.6764376 C45.4603692,80.9912601 44.9146769,81.0122483 44.4949135,81.0332365 L44.4949135,76.9195558 L44.5159017,76.9195558 Z M43.3405644,82.5653727 L43.5924224,82.5653727 C45.56531,82.5653727 46.8455882,82.4604318 47.7690675,81.3270708 C48.6505706,80.2776625 48.7345232,79.0183725 48.7345232,78.4307038 C48.7345232,76.4997925 47.7480794,74.9886445 46.069026,74.9886445 C45.2504875,74.9886445 44.8307242,75.303467 44.4739254,75.555325 L44.557878,71.5255969 L44.4529372,71.4416443 L42.3960969,71.7984431 L42.3121442,71.9033839 C42.417085,73.0787213 42.4380732,73.5404609 42.4380732,76.3528753 C42.4380732,77.5492008 42.417085,79.9208636 42.417085,82.5024082 L42.5010377,82.607349 L43.3405644,82.5653727 L43.3405644,82.5653727 Z M51.6308902,77.9689641 C51.6728666,77.5282126 51.7568192,76.9615321 52.2185589,76.6257215 C52.3654761,76.5207806 52.5333814,76.4788043 52.7222749,76.4788043 C53.1210501,76.4788043 53.3729081,76.7096741 53.5198252,76.9615321 C53.6877306,77.2763546 53.7087187,77.6121653 53.7087187,77.9269878 L51.6308902,77.9689641 L51.6308902,77.9689641 Z M55.3877721,80.466556 C54.9260324,80.7394021 54.3593519,81.0752128 53.4568607,81.0752128 C52.7222749,81.0752128 52.2185589,80.8023666 51.9037364,80.3196388 C51.7148429,80.0258045 51.6728666,79.7529583 51.6308902,79.4801121 L55.6186419,79.3961595 L55.7025946,79.2912186 C55.6816064,78.6195973 55.6816064,77.9059996 55.5137011,77.2133901 C55.0729496,75.5763131 54.1284821,75.2405025 53.7087187,75.1145735 C53.3938962,75.0096326 53.1210501,74.9886445 52.8272157,74.9886445 C50.8963044,74.9886445 49.5950381,76.4158398 49.5950381,78.829479 C49.5950381,79.4801121 49.6999789,80.1727216 49.8888724,80.6554495 C50.6024701,82.5443845 52.2815234,82.7122898 53.1630264,82.7122898 C54.1914466,82.7122898 54.6321981,82.5024082 55.2828312,82.2085738 L55.3667839,82.103633 L55.4507366,80.5295205 L55.3877721,80.466556 L55.3877721,80.466556 Z M61.7681748,80.592485 L61.7261984,82.2715383 L61.6422458,82.355491 C61.1175416,82.5233963 60.6977783,82.6703135 60.0471451,82.6703135 C57.2767071,82.6703135 56.5211331,80.4875441 56.5211331,78.8924435 C56.5211331,77.4652481 57.0878136,74.9886445 59.9841806,74.9886445 C60.6977783,74.9886445 61.1595179,75.1565498 61.7052103,75.3454433 L61.7681748,75.429396 C61.6632339,76.1639818 61.6632339,76.3528753 61.6002694,77.1084493 L61.4743404,77.1504256 C61.0965534,76.8775795 60.8027191,76.6467096 60.2570268,76.6467096 C59.0607013,76.6467096 58.6619261,77.822047 58.6619261,78.829479 C58.6619261,79.6690056 58.9557604,80.970272 60.3409794,80.970272 C60.9706244,80.970272 61.2854469,80.7394021 61.6212576,80.5295205 L61.7681748,80.592485 L61.7681748,80.592485 Z" id="Shape"></path>
            </g>
        </g>
    </g>
</svg>