<?xml version="1.0" encoding="UTF-8"?>
<svg width="211px" height="30px" viewBox="0 0 211 30" version="1.1" xmlns="http://www.w3.org/2000/svg" xmlns:xlink="http://www.w3.org/1999/xlink">
    <title>Group</title>
    <g id="Page-1" stroke="none" stroke-width="1" fill="none" fill-rule="evenodd">
        <g id="neobigben" transform="translate(-40.000000, -305.000000)" fill="#FFFFFF">
            <g id="Group" transform="translate(40.000000, 305.079000)">
                <path d="M51.533,0.001 C53.773,0.001 55.853,0.348 57.773,1.041 C59.693,1.734 61.36,2.721 62.773,4.001 C64.175,5.27 65.275,6.808 66.073,8.614 L66.073,1.061 L77.373,1.061 C78.473,1.061 79.673,1.161 80.973,1.361 C82.273,1.461 83.373,1.861 84.473,2.361 C85.573,2.961 86.473,3.661 87.173,4.661 C87.773,5.561 88.073,6.761 88.173,8.161 L88.173,1.061 L97.573,1.061 L97.573,10.861 C97.673,10.161 97.873,9.561 98.173,8.961 C98.973,7.061 99.973,5.561 101.373,4.261 C102.773,2.961 104.373,1.961 106.173,1.261 C108.073,0.561 109.973,0.261 112.073,0.261 C114.273,0.261 116.373,0.661 118.273,1.361 C120.273,2.061 121.873,3.061 123.073,4.261 L117.673,10.861 C117.173,10.261 116.473,9.661 115.673,9.261 C114.873,8.861 113.873,8.661 112.773,8.661 C112.073,8.661 111.273,8.861 110.573,9.161 C109.873,9.461 109.173,9.861 108.673,10.461 C108.173,10.961 107.673,11.661 107.373,12.461 C107.073,13.161 106.873,14.061 106.873,15.061 C106.873,17.061 107.373,18.661 108.373,19.861 C109.373,21.061 110.973,21.661 113.173,21.661 C113.573,21.661 113.973,21.661 114.373,21.561 C114.773,21.461 115.173,21.361 115.373,21.261 L115.373,19.061 L110.873,19.061 L110.873,11.761 L123.573,11.761 L123.573,26.961 C122.873,27.361 122.073,27.761 121.273,28.061 C120.473,28.361 119.573,28.661 118.573,28.861 C117.573,29.161 116.573,29.361 115.573,29.461 C114.573,29.561 113.473,29.661 112.473,29.661 C110.273,29.661 108.273,29.361 106.373,28.661 C104.473,28.061 102.873,27.061 101.473,25.761 C100.173,24.561 99.073,22.961 98.273,21.161 C98.073,20.561 97.873,19.861 97.673,19.261 L97.673,29.061 L88.273,29.061 L88.273,25.061 C87.673,25.961 86.973,26.661 86.073,27.261 C85.073,27.961 83.973,28.361 82.673,28.661 C81.373,28.961 80.073,29.061 78.673,29.061 L66.073,29.061 L66.073,21.048 L65.903,21.427 C65.1522435,23.0677826 64.0891198,24.5466454 62.773,25.781 C61.36,27.101 59.693,28.121 57.773,28.841 C55.853,29.561 53.773,29.921 51.533,29.921 C49.293,29.921 47.213,29.561 45.293,28.841 C43.373,28.121 41.713,27.101 40.313,25.781 C39.1516591,24.6821477 38.1885424,23.3912263 37.466,21.965 L37.467,29.121 L16.64,29.121 L8.8,15.601 L8.64,15.601 L9.04,29.121 L0,29.121 L0,0.801 L9.48,0.801 L17.306,14.71 L17.307,0.8 L36.787,0.8 L36.787,8.72 L26.36,8.72 L26.36,11.16 L36.147,11.16 L36.145,11.41 C36.345,10.444 36.635,9.528 37.014,8.66 C37.814,6.834 38.914,5.28 40.314,4 C41.714,2.72 43.374,1.734 45.294,1.04 C47.214,0.348 49.294,0 51.534,0 L51.533,0.001 Z M77.353,17.861 L74.773,17.861 L74.773,21.661 L77.573,21.661 C78.273,21.661 78.873,21.461 79.373,21.161 C79.773,20.861 79.973,20.361 79.973,19.761 C79.973,19.361 79.873,19.061 79.673,18.861 C79.473,18.561 79.273,18.361 78.973,18.261 L78.073,17.961 C77.773,17.861 77.473,17.861 77.173,17.861 L77.353,17.861 Z M36.145,18.21 L36.147,18.56 L26.36,18.56 L26.36,21.2 L37.102,21.203 C36.6749621,20.2432491 36.3543821,19.2395922 36.146,18.21 L36.145,18.21 Z M51.534,8.72 C50.734,8.72 49.987,8.868 49.294,9.16 C48.6,9.454 48.007,9.86 47.514,10.38 C47.02,10.9 46.634,11.54 46.354,12.3 C46.074,13.06 45.934,13.894 45.934,14.8 C45.934,15.734 46.074,16.588 46.354,17.36 C46.634,18.134 47.02,18.8 47.514,19.36 C48.007,19.92 48.6,20.354 49.294,20.66 C49.987,20.968 50.734,21.12 51.534,21.12 C52.334,21.12 53.074,20.968 53.754,20.66 C54.4313424,20.3552709 55.0376083,19.9124924 55.534,19.36 C56.04,18.8 56.434,18.134 56.714,17.36 C56.994,16.588 57.134,15.734 57.134,14.8 C57.134,13.894 56.994,13.06 56.714,12.3 C56.434,11.54 56.04,10.9 55.534,10.38 C55.0270499,9.85978205 54.4220739,9.4451356 53.754,9.16 C53.0521185,8.86227214 52.2963799,8.71248611 51.534,8.72 L51.534,8.72 Z M88.272,8.76 L88.248,9.056 C88.128,10.317 87.823,11.326 87.173,12.161 C86.373,13.161 85.373,13.861 84.173,14.361 L84.173,14.461 C84.773,14.661 85.473,14.861 86.073,15.261 C86.673,15.561 87.273,16.061 87.773,16.561 C87.823,16.611 87.867,16.661 87.907,16.711 L88.139,17.011 L88.273,17.161 L88.273,8.761 L88.272,8.76 Z M77.073,8.361 L74.773,8.361 L74.773,11.861 L77.373,11.861 C77.973,11.861 78.573,11.661 78.973,11.361 C79.373,11.061 79.573,10.561 79.573,9.961 C79.573,9.461 79.273,9.061 78.873,8.761 C78.373,8.461 77.773,8.361 77.073,8.361 L77.073,8.361 Z M201.273,0.961 L201.673,15.161 L201.473,15.161 L193.573,0.961 L184.273,0.961 L184.273,21.061 L172.873,21.061 L172.873,18.461 L182.573,18.461 L182.573,11.161 L172.873,11.161 L172.873,8.761 L182.573,8.761 L182.573,0.961 L164.173,0.961 L164.173,8.161 C164.173,6.661 163.773,5.461 163.173,4.561 C162.473,3.561 161.573,2.861 160.473,2.261 C159.373,1.761 158.273,1.361 156.973,1.261 C155.673,1.061 154.473,0.961 153.373,0.961 L141.973,0.961 L141.973,28.961 L154.573,28.961 C155.973,28.961 157.273,28.861 158.573,28.561 C159.873,28.261 160.973,27.861 161.973,27.161 C162.873,26.561 163.573,25.861 164.173,24.961 L164.173,28.961 L193.073,28.961 L192.673,15.561 L192.873,15.561 L200.573,28.961 L210.073,28.961 L210.073,0.961 L201.273,0.961 L201.273,0.961 Z M150.673,8.261 L153.073,8.261 C153.773,8.261 154.373,8.361 154.873,8.661 C155.273,8.961 155.573,9.361 155.573,9.861 C155.573,10.461 155.373,10.961 154.973,11.261 C154.573,11.561 153.973,11.761 153.373,11.761 L150.873,11.761 L150.873,8.261 L150.673,8.261 L150.673,8.261 Z M155.273,21.061 C154.773,21.361 154.173,21.561 153.473,21.561 L150.673,21.561 L150.673,17.761 L153.073,17.761 C153.373,17.761 153.673,17.761 153.973,17.861 L154.873,18.161 C155.173,18.261 155.373,18.461 155.573,18.761 C155.773,18.961 155.873,19.261 155.873,19.661 C155.973,20.261 155.773,20.761 155.273,21.061 Z M163.773,16.461 C163.273,15.961 162.673,15.461 162.073,15.161 C161.473,14.761 160.773,14.561 160.173,14.361 L160.173,14.261 C161.373,13.761 162.373,13.061 163.173,12.061 C163.873,11.161 164.273,9.961 164.273,8.561 L164.273,17.061 C164.073,16.861 163.973,16.661 163.773,16.461 L163.773,16.461 Z" id="Shape"></path>
                <path d="M135.473,18.561 C135.173,18.261 134.773,17.961 134.273,17.761 C133.773,17.561 133.273,17.461 132.873,17.461 C132.373,17.461 131.873,17.561 131.373,17.761 C130.873,17.961 130.473,18.261 130.173,18.561 C129.773,18.861 129.573,19.261 129.373,19.761 C129.173,20.261 129.073,20.761 129.073,21.261 C129.073,21.761 129.173,22.261 129.373,22.761 C129.573,23.161 129.873,23.561 130.173,23.961 C130.573,24.261 130.973,24.561 131.373,24.761 C131.873,24.961 132.373,25.061 132.873,25.061 C133.373,25.061 133.873,24.961 134.273,24.761 C134.773,24.561 135.173,24.261 135.473,23.961 C135.773,23.661 136.073,23.261 136.273,22.761 C136.473,22.261 136.573,21.761 136.573,21.261 C136.573,20.761 136.473,20.261 136.273,19.761 C136.073,19.261 135.873,18.861 135.473,18.561 Z M135.473,5.961 C135.173,5.661 134.773,5.361 134.273,5.161 C133.773,4.961 133.273,4.861 132.873,4.861 C132.373,4.861 131.873,4.961 131.373,5.161 C130.873,5.361 130.473,5.661 130.173,5.961 C129.773,6.261 129.573,6.661 129.373,7.161 C129.173,7.661 129.073,8.161 129.073,8.661 C129.073,9.161 129.173,9.661 129.373,10.161 C129.573,10.561 129.873,10.961 130.173,11.361 C130.573,11.661 130.973,11.961 131.373,12.161 C131.873,12.361 132.373,12.461 132.873,12.461 C133.373,12.461 133.873,12.361 134.273,12.161 C134.773,11.961 135.173,11.661 135.473,11.361 C135.773,11.061 136.073,10.661 136.273,10.161 C136.473,9.661 136.573,9.161 136.573,8.661 C136.573,8.161 136.473,7.661 136.273,7.261 C136.073,6.661 135.873,6.261 135.473,5.961 Z" id="Shape" fill-rule="nonzero"></path>
            </g>
        </g>
    </g>
</svg>