<svg width="1024" height="1024" viewBox="0 0 18 20"
    xmlns="http://www.w3.org/2000/svg">
    <path d="M11.825 4.012A3.001 3.001 0 0 1 9 6H7c-1.302 0-2.41-.83-2.825-1.988L4.17 4H3a1 1 0 0 0-.993.883L2 5v12a1 1 0 0 0 1 1h10a1 1 0 0 0 1-1v-1a1 1 0 0 1 2 0v1a3 3 0 0 1-3 3H3a3 3 0 0 1-3-3V5a3 3 0 0 1 3-3h1.17l.005-.012A3.002 3.002 0 0 1 6.824.005L7 0h2c1.302 0 2.41.83 2.825 1.988L11.83 2H13a3 3 0 0 1 2.995 2.824L16 5v3a1 1 0 0 1-2 0V5a1 1 0 0 0-1-1h-1.171l-.004.012Zm-2.532 4.28a1 1 0 0 1 1.414 1.415L9.414 11H17a1 1 0 0 1 .993.883L18 12a1 1 0 0 1-1 1H9.415l1.292 1.293a1 1 0 0 1 .083 1.32l-.083.094a1 1 0 0 1-1.414 0l-3-3-.073-.082-.007-.009-.016-.022-.041-.058-.01-.016-.006-.009-.015-.028-.023-.043-.008-.018-.01-.018-.012-.034-.014-.033-.008-.026-.007-.02-.006-.026-.01-.036-.006-.029-.005-.024-.004-.028-.005-.031-.002-.028-.003-.03-.001-.04L6 12l.001-.019v-.04l.004-.031.002-.027.005-.032.004-.027.005-.025.005-.028.011-.037.006-.026.007-.02.008-.025.014-.034.013-.033.009-.019.008-.017.023-.044.015-.027.006-.01.01-.015.041-.059.013-.018.003-.004.007-.008a.95.95 0 0 1 .073-.082l3-3v-.001ZM9 2H7a1 1 0 0 0-.117 1.993L7 4h2a1 1 0 0 0 1-1l-.007-.117a1 1 0 0 0-.876-.876L9 2Z" fill="#000" fill-rule="nonzero"/>
</svg>
