<svg width="1024" height="1024" viewBox="0 0 18 20"
    xmlns="http://www.w3.org/2000/svg">
    <path d="M9 0c1.301 0 2.41.829 2.825 1.988l.004.012h1.17a3 3 0 0 1 2.995 2.823L16 5v12a3 3 0 0 1-3 3H3a3 3 0 0 1-3-3V5a3 3 0 0 1 3-3h1.17l.004-.012A3.002 3.002 0 0 1 6.825.005L7.001 0h2H9Zm2.825 4.011A3.001 3.001 0 0 1 9 6H7c-1.302 0-2.41-.83-2.826-1.989L4.17 4H3a1 1 0 0 0-.994.883L2 5v12a1 1 0 0 0 1 1h10a1 1 0 0 0 1-1V5a1 1 0 0 0-1-1h-1.171l-.004.011Zm-1.533 5.281a1 1 0 0 1 1.415 1.415l-4 4a1 1 0 0 1-1.415 0l-2-2a1 1 0 0 1 1.415-1.415L7 12.585l3.292-3.293ZM9 2H7a1 1 0 0 0-.117 1.993L7 4h2a1 1 0 0 0 1-1l-.007-.117a1 1 0 0 0-.877-.877L9 2Z" fill="#000" fill-rule="nonzero"/>
</svg>
