<?xml version="1.0" encoding="UTF-8"?>
<svg width="72px" height="72px" viewBox="0 0 72 72" version="1.1" xmlns="http://www.w3.org/2000/svg" xmlns:xlink="http://www.w3.org/1999/xlink">
    <title>linkedin</title>
    <g id="Page-1" stroke="none" stroke-width="1" fill="none" fill-rule="evenodd">
        <g id="linkedin" fill="#007EBB" fill-rule="nonzero">
            <path d="M64,0 C68.418278,0 72,3.581722 72,8 L72,64 C72,68.418278 68.418278,72 64,72 L8,72 C3.581722,72 0,68.418278 0,64 L0,8 C0,3.581722 3.581722,0 8,0 Z M49.3825521,26.2742151 C42.0260417,26.2742151 38.9300781,32.0029283 38.9300781,32.0029283 L38.9300781,27.3333333 L28.6333333,27.3333333 L28.6333333,62 L38.9300781,62 L38.9300781,43.8021149 C38.9300781,38.9261103 41.1746094,36.0245323 45.4707031,36.0245323 C49.4197917,36.0245323 51.315625,38.8127542 51.315625,43.8021149 L51.315625,62 L62,62 L62,40.051212 C62,30.7644705 56.7356771,26.2742151 49.3825521,26.2742151 Z M21.769401,27.3333333 L11.0325521,27.3333333 L11.0325521,62 L21.769401,62 L21.769401,27.3333333 Z M16.349349,10 C12.8420573,10 10,12.8643566 10,16.3970067 C10,19.9296567 12.8420573,22.7940133 16.349349,22.7940133 C19.8566406,22.7940133 22.6970052,19.9296567 22.6970052,16.3970067 C22.6970052,12.8643566 19.8566406,10 16.349349,10 Z" id="Combined-Shape"></path>
        </g>
    </g>
</svg>