<svg width="1024" height="1024" viewBox="0 0 72 72"
    xmlns="http://www.w3.org/2000/svg">
    <path d="M64 0a8 8 0 0 1 8 8v56a8 8 0 0 1-8 8H8a8 8 0 0 1-8-8V8a8 8 0 0 1 8-8ZM49.383 26.274c-7.357 0-10.453 5.729-10.453 5.729v-4.67H28.633V62H38.93V43.802c0-4.876 2.245-7.777 6.54-7.777 3.95 0 5.846 2.788 5.846 7.777V62H62V40.051c0-9.287-5.264-13.777-12.617-13.777Zm-27.614 1.06H11.033V62h10.736V27.333ZM16.35 10C12.842 10 10 12.864 10 16.397c0 3.533 2.842 6.397 6.35 6.397 3.507 0 6.347-2.864 6.347-6.397 0-3.533-2.84-6.397-6.348-6.397Z"/>
</svg>
