<svg width="1024" height="1024" viewBox="0 0 16 16"
    xmlns="http://www.w3.org/2000/svg">
    <path d="M5.212 0a.24.24 0 0 1 .229.184c.193.8.185 1.634-.023 2.43l3.28 3.282c1.097-.3 2.35-.187 3.555.357a.238.238 0 0 1 .07.385L9.996 8.965c1.586 1.587 5.948 6.979 5.948 6.979s-5.338-4.31-6.977-5.949l-2.328 2.327a.238.238 0 0 1-.384-.07c-.545-1.204-.657-2.458-.358-3.554l-3.28-3.28a4.954 4.954 0 0 1-2.432.023.238.238 0 0 1-.115-.4L5.04.07A.236.236 0 0 1 5.214 0h-.001Z" fill="#000" fill-rule="nonzero"/>
</svg>
