<?xml version="1.0" encoding="UTF-8"?>
<svg width="61px" height="59px" viewBox="0 0 61 59" version="1.1" xmlns="http://www.w3.org/2000/svg" xmlns:xlink="http://www.w3.org/1999/xlink">
    <title>plant</title>
    <g id="Page-1" stroke="none" stroke-width="1" fill="none" fill-rule="evenodd">
        <g id="plant" transform="translate(0.832060, 0.832170)" fill="#000000" fill-rule="nonzero">
            <path d="M38.12494,51.66783 C37.49994,51.87486 36.66794,51.87486 36.04294,52.0858 C36.66794,51.87486 37.49994,51.66783 38.12494,51.66783 Z" id="Path"></path>
            <path d="M55.41794,35.41783 C55.21091,36.24986 54.99997,36.87483 54.79294,37.49983 C54.99997,36.87483 55.21091,36.04283 55.41794,35.41783 Z" id="Path"></path>
            <path d="M54.58594,37.71083 C54.16797,38.54286 53.75391,39.37883 53.33594,40.21083 C53.75,39.58583 54.16797,38.74993 54.58594,37.71083 Z" id="Path"></path>
            <path d="M56.04294,32.71083 C56.04294,33.33583 55.83591,33.96083 55.62497,34.58583 C55.83591,33.96083 55.83591,33.33583 56.04294,32.71083 Z" id="Path"></path>
            <path d="M56.24994,29.16783 C56.24994,29.99986 56.24994,31.04283 56.04291,31.87483 C56.24994,31.0428 56.24994,29.99983 56.24994,29.16783 Z" id="Path"></path>
            <path d="M35.83594,51.87483 C35,52.08577 34.16794,52.08577 33.33594,52.08577 C34.16797,52.08577 35.00004,52.08577 35.83594,51.87483 Z" id="Path"></path>
            <path d="M55.62494,34.58583 C55.62494,34.79286 55.41791,35.0038 55.41791,35.21083 C55.41791,34.99989 55.41791,34.79286 55.62494,34.58583 Z" id="Path"></path>
            <path d="M56.04294,31.87483 C56.04294,32.08186 56.04294,32.2928 55.83591,32.70686 C56.04294,32.2928 56.04294,32.08577 56.04294,31.87483 Z" id="Path"></path>
            <path d="M38.33594,51.46083 C38.125,51.46083 38.125,51.66786 38.33594,51.46083 C38.125,51.66786 38.125,51.46083 38.33594,51.46083 Z" id="Path"></path>
            <path d="M54.58594,37.49983 C54.58594,37.70686 54.58594,37.70686 54.37891,37.9178 C54.58594,37.71077 54.58594,37.49983 54.58594,37.49983 Z" id="Path"></path>
            <path d="M50.83594,43.96083 C44.16794,36.04283 34.79294,27.29283 28.12894,21.25383 C27.71097,20.83586 27.50394,20.4218 27.50394,19.79683 C27.50394,18.54683 28.33597,17.71483 29.58594,17.71483 C30.00391,17.71483 30.62894,17.92186 31.04294,18.1328 L31.24997,18.1328 C40.62497,26.6758 48.12497,33.9648 53.54297,40.2148 C53.96094,39.38277 54.375,38.5468 54.79297,37.7148 C54.79297,37.7148 54.79297,37.50777 55,37.29683 C55.20703,36.67183 55.41797,35.83983 55.625,35.21483 C55.625,35.0078 55.83203,34.79686 55.83203,34.58983 C56.03906,33.96483 56.03906,33.33983 56.25,32.71483 C56.25,32.5078 56.25,32.29686 56.45703,31.8828 C56.25,31.04296 56.25,30 56.25,29.168 C56.25,12.918 39.168,4.375 22.918,4.168 C8.125,3.96097 0,0 0,0 C0,0 2.082,21.25 6.457,33.125 C11.4609,46.668 20.625,52.086 33.336,52.086 C34.16803,52.086 35.004,52.086 35.836,51.87897 L36.04303,51.87897 C36.66803,51.87897 37.50003,51.67194 38.12503,51.461 L38.33206,51.461 C39.78906,51.04303 41.25006,50.62897 42.70706,50.004 C43.95706,49.379 45.20706,48.754 46.45706,47.922 C50.62506,52.715 53.33206,56.465 53.33206,58.129 L59.58206,58.129 C59.37503,55.0001 55.83596,49.586 50.83596,43.961 L50.83594,43.96083 Z" id="Path"></path>
        </g>
    </g>
</svg>