<svg width="1024" height="1024" viewBox="0 0 61 59"
    xmlns="http://www.w3.org/2000/svg">
    <g fill="#000" fill-rule="nonzero">
        <path d="M38.957 52.5c-.625.207-1.457.207-2.082.418.625-.211 1.457-.418 2.082-.418ZM56.25 36.25c-.207.832-.418 1.457-.625 2.082.207-.625.418-1.457.625-2.082ZM55.418 38.543c-.418.832-.832 1.668-1.25 2.5.414-.625.832-1.46 1.25-2.5ZM56.875 33.543c0 .625-.207 1.25-.418 1.875.211-.625.211-1.25.418-1.875ZM57.082 30c0 .832 0 1.875-.207 2.707.207-.832.207-1.875.207-2.707ZM36.668 52.707c-.836.21-1.668.21-2.5.21.832 0 1.664 0 2.5-.21ZM56.457 35.418c0 .207-.207.418-.207.625 0-.21 0-.418.207-.625ZM56.875 32.707c0 .207 0 .418-.207.832.207-.414.207-.621.207-.832ZM39.168 52.293c-.21 0-.21.207 0 0-.21.207-.21 0 0 0ZM55.418 38.332c0 .207 0 .207-.207.418.207-.207.207-.418.207-.418Z"/>
        <path d="M51.668 44.793C45 36.875 35.625 28.125 28.961 22.086c-.418-.418-.625-.832-.625-1.457 0-1.25.832-2.082 2.082-2.082.418 0 1.043.207 1.457.418h.207c9.375 8.543 16.875 15.832 22.293 22.082.418-.832.832-1.668 1.25-2.5 0 0 0-.207.207-.418.207-.625.418-1.457.625-2.082 0-.207.207-.418.207-.625.207-.625.207-1.25.418-1.875 0-.207 0-.418.207-.832-.207-.84-.207-1.883-.207-2.715C57.082 13.75 40 5.207 23.75 5 8.957 4.793.832.832.832.832s2.082 21.25 6.457 33.125C12.293 47.5 21.457 52.918 34.17 52.918c.831 0 1.667 0 2.5-.207h.206c.625 0 1.457-.207 2.082-.418h.207c1.457-.418 2.918-.832 4.375-1.457 1.25-.625 2.5-1.25 3.75-2.082 4.168 4.793 6.875 8.543 6.875 10.207h6.25c-.207-3.129-3.746-8.543-8.746-14.168Z"/>
    </g>
</svg>
