<svg height="51" width="170" xmlns="http://www.w3.org/2000/svg" xmlns:xlink="http://www.w3.org/1999/xlink"><mask id="a" fill="#fff"><path d="m0 0h31.8253882v37.2869231h-31.8253882z" fill="#fff" fill-rule="evenodd"/></mask><mask id="b" fill="#fff"><path d="m0 0h9.67169v9.93053886h-9.67169z" fill="#fff" fill-rule="evenodd"/></mask><mask id="c" fill="#fff"><path d="m0 50.5h169.851324v-50.5h-169.851324z" fill="#fff" fill-rule="evenodd"/></mask><mask id="d" fill="#fff"><path d="m0 50.5h169.851324v-50.5h-169.851324z" fill="#fff" fill-rule="evenodd"/></mask><mask id="e" fill="#fff"><path d="m0 50.5h169.851324v-50.5h-169.851324z" fill="#fff" fill-rule="evenodd"/></mask><mask id="f" fill="#fff"><path d="m0 50.5h169.851324v-50.5h-169.851324z" fill="#fff" fill-rule="evenodd"/></mask><mask id="g" fill="#fff"><path d="m0 50.5h169.851324v-50.5h-169.851324z" fill="#fff" fill-rule="evenodd"/></mask><mask id="h" fill="#fff"><path d="m0 50.5h169.851324v-50.5h-169.851324z" fill="#fff" fill-rule="evenodd"/></mask><mask id="i" fill="#fff"><path d="m0 50.5h169.851324v-50.5h-169.851324z" fill="#fff" fill-rule="evenodd"/></mask><g fill="#fff" fill-rule="nonzero" transform="translate(0 .5)"><path d="m44.27 6.978-4.218 4.218c6.808 6.808 6.808 17.845 0 24.654h-.001l4.218 4.218c8.816-9.269 8.816-23.821 0-33.09"/><path d="m53.06 0-4.572 4.572c10.484 10.483 10.484 27.48 0 37.964l-.001.001 4.572 4.572c12.288-13.284 12.289-33.825.001-47.109m-17.335 32.973c5.201-5.202 5.202-13.635 0-18.837l-9.418 9.418 9.418 9.42z"/><path d="m11.361 25.695c-4.128-4.128-4.128-10.822 0-14.95 4.129-4.13 10.823-4.13 14.951 0 .039.038.071.08.11.12l5.403-5.404c-7.28-7.281-19.084-7.281-26.364 0-7.281 7.28-7.281 19.084 0 26.364v.001c7.28 7.281 19.083 7.281 26.364 0l-5.837-5.838c-4.147 3.822-10.602 3.732-14.627-.293" mask="url(#a)" transform="translate(0 4.911)"/><path d="m88.38 3.243c.281.39.424.968.424 1.72v5.113h2.682v-5.335c0-1.414-.337-2.507-1.002-3.249-.67-.746-1.636-1.125-2.872-1.125-.689 0-1.333.156-1.914.462a3.77 3.77 0 0 0 -1.254 1.05c-.632-1.002-1.649-1.511-3.027-1.511-.664 0-1.258.14-1.766.417a3.466 3.466 0 0 0 -1.004.811l-.165-1.006h-2.38v9.487h2.682v-4.892c0-.796.184-1.422.546-1.86.36-.434.819-.645 1.404-.645.593 0 1.016.185 1.296.564.286.39.431.968.431 1.719v5.113h2.683v-4.891c0-.796.184-1.422.546-1.86.36-.434.825-.645 1.423-.645.58 0 .994.184 1.267.563m9.32 4.687c-.578 0-1.064-.211-1.487-.646-.418-.43-.63-1.086-.63-1.951 0-.866.212-1.522.63-1.952.423-.434.916-.645 1.505-.645.565 0 1.048.211 1.477.646.425.43.64 1.086.64 1.951 0 .864-.215 1.52-.64 1.95-.429.435-.918.647-1.496.647m4.215-.013c.425-.743.64-1.612.64-2.584 0-.973-.215-1.842-.64-2.584a4.65 4.65 0 0 0 -1.742-1.75c-.73-.42-1.555-.632-2.454-.632-.912 0-1.744.212-2.473.632a4.723 4.723 0 0 0 -1.75 1.749c-.431.742-.65 1.612-.65 2.585s.215 1.842.64 2.584a4.648 4.648 0 0 0 1.741 1.75c.73.419 1.562.63 2.473.63.9 0 1.729-.211 2.464-.63a4.641 4.641 0 0 0 1.75-1.75m4.683-2.732c0-.794.2-1.418.597-1.854.397-.438.894-.65 1.519-.65.631 0 1.08.185 1.372.566.298.39.448.967.448 1.716v5.113h2.683v-5.335c0-1.414-.33-2.506-.982-3.248-.658-.747-1.587-1.126-2.763-1.126-.752 0-1.417.17-1.976.503a3.43 3.43 0 0 0 -1.046.96l-.148-1.24h-2.388v9.486h2.683v-4.891zm-25.862 15.58c.457 0 .86.118 1.194.35.335.233.554.546.668.957l.032.116h2.81l-.039-.19c-.228-1.106-.764-1.986-1.593-2.618-.826-.628-1.853-.947-3.054-.947-.96 0-1.82.213-2.556.63a4.615 4.615 0 0 0 -1.75 1.761c-.426.747-.64 1.614-.64 2.575 0 .96.214 1.826.64 2.574a4.62 4.62 0 0 0 1.75 1.76c.736.418 1.595.63 2.556.63 1.201 0 2.229-.328 3.056-.976.827-.649 1.363-1.52 1.59-2.587l.042-.191h-2.812l-.032.116c-.115.423-.332.738-.666.965-.335.227-.738.342-1.196.342-.614 0-1.12-.225-1.548-.689-.427-.46-.643-1.114-.643-1.944 0-.831.216-1.485.643-1.945.428-.464.934-.69 1.548-.69m10.772 5.231c-.577 0-1.063-.21-1.486-.645-.418-.43-.63-1.086-.63-1.951 0-.866.212-1.522.63-1.952.423-.435.915-.646 1.505-.646.565 0 1.048.212 1.477.647.424.43.639 1.086.639 1.95 0 .865-.215 1.521-.639 1.951-.43.435-.918.646-1.496.646m2.473-6.93c-.73-.42-1.555-.632-2.454-.632-.912 0-1.744.212-2.473.631a4.723 4.723 0 0 0 -1.75 1.75c-.431.741-.65 1.612-.65 2.585s.215 1.842.64 2.584a4.648 4.648 0 0 0 1.741 1.75c.73.418 1.561.63 2.473.63.9 0 1.728-.212 2.464-.63a4.644 4.644 0 0 0 1.75-1.75c.426-.742.64-1.612.64-2.584 0-.973-.214-1.843-.64-2.584a4.654 4.654 0 0 0 -1.74-1.75m19.114 9.077v-5.335c0-1.414-.338-2.507-1.002-3.249-.67-.746-1.636-1.125-2.873-1.125-.689 0-1.332.156-1.913.462a3.757 3.757 0 0 0 -1.254 1.05c-.632-1.003-1.65-1.512-3.027-1.512-.665 0-1.26.14-1.767.417a3.48 3.48 0 0 0 -1.003.811l-.165-1.006h-2.381v9.487h2.682v-4.892c0-.796.184-1.421.547-1.859.36-.434.818-.645 1.403-.645.593 0 1.017.184 1.296.564.286.39.432.968.432 1.719v5.113h2.682v-4.892c0-.796.184-1.421.547-1.859.36-.434.825-.645 1.422-.645.58 0 .995.184 1.268.563.28.39.423.968.423 1.72v5.113zm10.605 0v-4.892c0-.796.185-1.421.547-1.859.36-.434.825-.645 1.422-.645.58 0 .994.184 1.267.563.281.39.424.968.424 1.72v5.113h2.682v-5.335c0-1.414-.337-2.507-1.001-3.249-.67-.746-1.637-1.125-2.873-1.125-.69 0-1.332.156-1.913.462a3.76 3.76 0 0 0 -1.255 1.05c-.632-1.003-1.648-1.512-3.026-1.512-.665 0-1.26.14-1.767.417a3.474 3.474 0 0 0 -1.003.811l-.165-1.006h-2.382v9.487h2.683v-4.892c0-.796.184-1.421.546-1.859.36-.434.82-.645 1.404-.645.593 0 1.017.184 1.296.564.287.39.432.968.432 1.719v5.113zm22.603-9.159a3.99 3.99 0 0 0 -1.175 1.096l-.183-1.424h-2.405v9.486h2.682v-4.336c0-.67.108-1.198.32-1.566.21-.36.503-.618.874-.765a3.64 3.64 0 0 1 1.329-.229h.824v-2.812h-.158c-.802 0-1.511.185-2.108.55m9.912 5.743c-.115.422-.332.738-.667.964-.335.227-.737.342-1.196.342-.614 0-1.12-.225-1.548-.689-.426-.46-.642-1.114-.642-1.944s.216-1.485.642-1.946c.429-.463.935-.688 1.548-.688.458 0 .86.118 1.195.35.336.233.554.546.668.958l.032.115h2.81l-.039-.19c-.229-1.106-.765-1.986-1.593-2.618-.826-.628-1.854-.947-3.055-.947-.96 0-1.82.212-2.555.631a4.609 4.609 0 0 0 -1.751 1.76c-.425.748-.64 1.614-.64 2.575 0 .96.215 1.826.64 2.574a4.62 4.62 0 0 0 1.75 1.76c.736.418 1.596.63 2.556.63 1.202 0 2.23-.327 3.056-.976.828-.65 1.363-1.52 1.592-2.587l.04-.191h-2.812z"/><path d="m3.487 2.698c.414-.304.9-.459 1.441-.459.562 0 1.037.167 1.412.497.34.298.536.68.597 1.166h-4.197c.13-.53.382-.934.748-1.204zm3.087 4.08a1.86 1.86 0 0 1 -.56.598c-.298.197-.675.297-1.123.297-.598 0-1.113-.191-1.53-.569-.38-.344-.61-.817-.681-1.408h6.943l.011-.145a11.433 11.433 0 0 0 .038-.9c0-.862-.203-1.656-.603-2.361a4.429 4.429 0 0 0 -1.677-1.677c-.712-.407-1.54-.613-2.464-.613-.985 0-1.855.216-2.585.641a4.538 4.538 0 0 0 -1.723 1.79c-.411.76-.62 1.637-.62 2.609 0 .96.212 1.82.63 2.555a4.452 4.452 0 0 0 1.744 1.724c.735.406 1.588.612 2.536.612.758 0 1.45-.142 2.053-.422.605-.28 1.12-.67 1.534-1.16.397-.47.683-1 .863-1.571z" mask="url(#b)" transform="translate(160.18 18.433)"/><path d="m134.89 21.131c.414-.304.899-.459 1.441-.459.561 0 1.037.167 1.412.497.339.298.535.68.596 1.165h-4.198c.131-.528.382-.933.749-1.203zm3.087 4.08a1.86 1.86 0 0 1 -.56.598c-.298.197-.676.297-1.123.297-.598 0-1.113-.191-1.531-.57-.38-.343-.61-.816-.68-1.407h6.942l.012-.145a11.434 11.434 0 0 0 .038-.9c0-.862-.204-1.656-.604-2.362a4.424 4.424 0 0 0 -1.676-1.676c-.712-.407-1.54-.613-2.464-.613-.985 0-1.855.216-2.585.641a4.538 4.538 0 0 0 -1.724 1.79c-.41.759-.62 1.637-.62 2.608 0 .96.213 1.82.631 2.556a4.449 4.449 0 0 0 1.743 1.724c.736.406 1.59.611 2.537.611.758 0 1.449-.141 2.053-.42.605-.28 1.12-.671 1.534-1.16.397-.47.682-1 .863-1.572zm-45.557 11.289c-.752 0-1.417.17-1.976.503a3.42 3.42 0 0 0 -1.045.96l-.148-1.24h-2.388v9.486h2.683v-4.889c0-.793.2-1.418.596-1.854.398-.438.896-.65 1.52-.65.632 0 1.08.185 1.372.566.298.39.448.967.448 1.716v5.113h2.683v-5.335c0-1.413-.33-2.506-.983-3.248-.656-.747-1.586-1.125-2.762-1.125"/><path d="m102.452728 46.2102467h2.683056v-13.6286511h-2.683056z" mask="url(#c)"/><path d="m106.894074 46.2102467h2.683057v-9.4866893h-2.683057z" mask="url(#d)"/><path d="m108.235 32.582c-.427 0-.785.128-1.064.382-.282.257-.425.59-.425.989s.142.734.424.997c.279.26.637.392 1.065.392.429 0 .787-.133 1.066-.392a1.31 1.31 0 0 0 .424-.997c0-.4-.143-.732-.426-.989-.278-.254-.637-.382-1.064-.382" mask="url(#e)"/><path d="m116.455 40.994c-.284.233-.65.351-1.092.351-.465 0-.842-.118-1.119-.35-.273-.23-.406-.553-.406-.989 0-.435.133-.76.406-.988.278-.233.654-.351 1.119-.351.44 0 .808.118 1.092.352.279.229.414.552.414.987s-.135.758-.414.988m.246 7.061c-.343.222-.799.335-1.357.335-.587 0-1.087-.108-1.487-.323-.373-.2-.555-.49-.555-.887 0-.218.067-.425.205-.634.133-.202.356-.393.664-.57.417.07.876.124 1.366.16.84.058 1.19.23 1.337.365.208.193.31.427.31.716 0 .353-.158.627-.483.838m-1.338-11.553c-.812 0-1.515.155-2.09.462a3.404 3.404 0 0 0 -1.346 1.26 3.39 3.39 0 0 0 -.476 1.764c0 .972.339 1.788 1.006 2.43l-1.542 1.63v.553l.046.046c.142.142.308.28.494.408.127.087.272.172.433.254-.707.6-1.065 1.31-1.065 2.111 0 1.029.43 1.811 1.278 2.327.822.5 1.914.753 3.243.753.981 0 1.8-.158 2.437-.469.64-.315 1.123-.733 1.434-1.244.31-.51.466-1.057.466-1.625 0-.871-.298-1.564-.888-2.062-.577-.488-1.502-.793-2.75-.907-.794-.073-1.373-.146-1.72-.219a3.85 3.85 0 0 1 -.61-.172l.46-.46a5.16 5.16 0 0 0 1.19.132c.786 0 1.48-.155 2.061-.462a3.316 3.316 0 0 0 1.348-1.262c.309-.527.465-1.12.465-1.762 0-.505-.095-.98-.284-1.413l1.487-.105v-1.746h-3.61a4.707 4.707 0 0 0 -1.467-.222" mask="url(#f)"/><path d="m127.437 36.502c-.752 0-1.417.168-1.976.502a3.415 3.415 0 0 0 -1.046.96l-.148-1.24h-2.387v9.486h2.682v-4.89c0-.793.201-1.418.597-1.854.398-.438.895-.65 1.52-.65.63 0 1.08.185 1.372.566.298.39.448.967.448 1.716v5.113h2.682v-5.335c0-1.413-.33-2.506-.982-3.248-.657-.747-1.586-1.125-2.762-1.125" mask="url(#g)"/><path d="m135.944 39.2c.413-.305.898-.46 1.44-.46.562 0 1.037.167 1.412.497.34.298.536.68.597 1.165h-4.198c.13-.528.382-.933.749-1.202zm3.086 4.08c-.143.232-.32.44-.559.598-.298.196-.676.297-1.123.297-.598 0-1.114-.192-1.532-.57-.38-.344-.609-.816-.68-1.407h6.943l.012-.146c.012-.162.02-.318.028-.468.006-.15.01-.294.01-.432 0-.861-.204-1.656-.604-2.361a4.432 4.432 0 0 0 -1.677-1.677c-.711-.406-1.54-.613-2.463-.613-.986 0-1.856.216-2.585.641a4.543 4.543 0 0 0 -1.724 1.79c-.411.76-.62 1.637-.62 2.609 0 .96.212 1.82.63 2.555a4.458 4.458 0 0 0 1.744 1.725c.735.405 1.589.611 2.536.611.759 0 1.45-.142 2.053-.422.605-.28 1.121-.67 1.534-1.16.397-.47.683-1 .863-1.57z" mask="url(#h)"/><path d="m79.293 39.2c.413-.305.898-.46 1.44-.46.562 0 1.037.167 1.412.497.34.298.536.68.597 1.165h-4.198c.13-.528.382-.933.749-1.202zm3.087 4.08a1.87 1.87 0 0 1 -.56.598c-.299.196-.676.297-1.123.297-.598 0-1.113-.192-1.531-.57-.38-.344-.61-.816-.681-1.407h6.943l.012-.146c.012-.162.02-.318.028-.468.006-.15.01-.294.01-.432 0-.861-.204-1.656-.604-2.361a4.429 4.429 0 0 0 -1.677-1.677c-.711-.406-1.54-.613-2.463-.613-.986 0-1.855.216-2.585.641a4.543 4.543 0 0 0 -1.724 1.79c-.411.76-.62 1.637-.62 2.609 0 .96.212 1.82.631 2.555a4.455 4.455 0 0 0 1.743 1.725c.735.405 1.588.611 2.536.611.758 0 1.45-.142 2.054-.422s1.12-.67 1.533-1.16c.397-.47.683-1 .863-1.57z" mask="url(#i)"/></g></svg>