<?xml version="1.0" encoding="UTF-8"?>
<svg width="170px" height="51px" viewBox="0 0 170 51" version="1.1" xmlns="http://www.w3.org/2000/svg" xmlns:xlink="http://www.w3.org/1999/xlink">
    <title>logo</title>
    <defs>
        <polygon id="path-1" points="0 0 31.8253882 0 31.8253882 37.2869231 0 37.2869231"></polygon>
        <polygon id="path-3" points="0 0 9.67169 0 9.67169 9.93053886 0 9.93053886"></polygon>
        <polygon id="path-5" points="0 50.5 169.851324 50.5 169.851324 0 0 0"></polygon>
        <polygon id="path-7" points="0 50.5 169.851324 50.5 169.851324 0 0 0"></polygon>
        <polygon id="path-9" points="0 50.5 169.851324 50.5 169.851324 0 0 0"></polygon>
        <polygon id="path-11" points="0 50.5 169.851324 50.5 169.851324 0 0 0"></polygon>
        <polygon id="path-13" points="0 50.5 169.851324 50.5 169.851324 0 0 0"></polygon>
        <polygon id="path-15" points="0 50.5 169.851324 50.5 169.851324 0 0 0"></polygon>
        <polygon id="path-17" points="0 50.5 169.851324 50.5 169.851324 0 0 0"></polygon>
    </defs>
    <g id="Page-1" stroke="none" stroke-width="1" fill="none" fill-rule="evenodd">
        <g id="logo" transform="translate(0.000000, 0.500000)">
            <path d="M44.2693318,6.97846435 L40.051811,11.1959852 C46.8601964,18.0038953 46.8601964,29.0412067 40.051811,35.8495921 L40.0508606,35.8505425 L44.2688566,40.0680633 C53.0854947,30.7994971 53.0854947,16.2470306 44.2693318,6.97846435" id="Fill-1" fill="#FFFFFF" fill-rule="nonzero"></path>
            <path d="M53.0603084,0.000142564083 L48.487803,4.57217271 C58.9724409,15.055385 58.9724409,32.0513997 48.487803,42.5360377 L48.4868526,42.5374633 L53.0588827,47.1090182 C65.3474315,33.824897 65.3479067,13.2837887 53.0603084,0.000142564083" id="Fill-3" fill="#FFFFFF" fill-rule="nonzero"></path>
            <path d="M35.724801,32.9732191 C40.9264891,27.7710557 40.9274396,19.3383902 35.7252762,14.1362268 L35.724801,14.1357516 L26.3065424,23.5544853 L35.724801,32.9732191 Z" id="Fill-5" fill="#FFFFFF" fill-rule="nonzero"></path>
            <g id="Fill-7-Clipped" transform="translate(0.000000, 4.911262)">
                <mask id="mask-2" fill="white">
                    <use xlink:href="#path-1"></use>
                </mask>
                <g id="path-1"></g>
                <path d="M11.3612645,25.6951563 C7.23260859,21.5665005 7.23260859,14.8731168 11.3612645,10.744461 C15.4899203,6.61580509 22.1837792,6.61580509 26.3119598,10.744461 C26.3509273,10.7834285 26.3832419,10.8257224 26.421259,10.86469 L31.8253882,5.4605608 C24.5446405,-1.82018693 12.7412848,-1.82018693 5.46053704,5.4605608 L5.46006183,5.46103601 C-1.8202107,12.7413086 -1.8202107,24.5446642 5.46053704,31.8254119 L5.46101225,31.8263623 C12.74176,39.1071101 24.5441652,39.1071101 31.824913,31.8263623 L31.8253882,31.8254119 L25.9878642,25.9878879 C21.840675,29.8095558 15.3858485,29.7197404 11.3612645,25.6951563" id="Fill-7" fill="#FFFFFF" fill-rule="nonzero" mask="url(#mask-2)"></path>
            </g>
            <path d="M88.3801797,3.2429052 C88.6610312,3.63305558 88.8035951,4.21139054 88.8035951,4.96270326 L88.8035951,10.0760017 L91.4857006,10.0760017 L91.4857006,4.7407785 C91.4857006,3.32701801 91.1487747,2.23402671 90.4844254,1.49221826 C89.8148498,0.746132891 88.848265,0.367387642 87.6117593,0.367387642 C86.9231747,0.367387642 86.2792601,0.522782494 85.6980742,0.828820062 C85.1938729,1.09493968 84.7733081,1.44754818 84.4439852,1.87951735 C83.8119513,0.875866204 82.7954694,0.367387642 81.4173501,0.367387642 C80.7530016,0.367387642 80.1585094,0.507575658 79.6505058,0.784149977 C79.2584549,0.997045678 78.9224784,1.26934308 78.6473295,1.59533961 L78.4824307,0.589312399 L76.1011354,0.589312399 L76.1011354,10.0760017 L78.783716,10.0760017 L78.783716,5.18462801 C78.783716,4.38864522 78.9676238,3.76278889 79.3302115,3.32559237 C79.6894731,2.89124713 80.1490045,2.68025229 80.7335179,2.68025229 C81.3265845,2.68025229 81.7504745,2.86463517 82.0299003,3.24385563 C82.3159789,3.634006 82.4613941,4.21234097 82.4613941,4.96270326 L82.4613941,10.0760017 L85.143975,10.0760017 L85.143975,5.18462801 C85.143975,4.38864522 85.3278828,3.76278889 85.6904705,3.32559237 C86.0502076,2.89124713 86.5154416,2.68025229 87.1127851,2.68025229 C87.6925461,2.68025229 88.1074075,2.86415996 88.3801797,3.2429052" id="Fill-10" fill="#FFFFFF" fill-rule="nonzero"></path>
            <path d="M97.6993091,7.9296044 C97.121924,7.9296044 96.6362562,7.71860955 96.2133155,7.28426431 C95.7951282,6.85467121 95.5831828,6.197926 95.5831828,5.33303723 C95.5831828,4.46719803 95.7951282,3.81092803 96.2133155,3.38085971 C96.6362562,2.94651447 97.1285775,2.73551963 97.7178418,2.73551963 C98.2828708,2.73551963 98.7661636,2.94698968 99.1952815,3.38181014 C99.619647,3.81187846 99.8344437,4.46814846 99.8344437,5.33303723 C99.8344437,6.19745078 99.619647,6.85324557 99.1952815,7.28331389 C98.7661636,7.71813434 98.2766935,7.9296044 97.6993091,7.9296044 M101.913503,7.91677367 C102.338819,7.17448997 102.554091,6.30532428 102.554091,5.33303723 C102.554091,4.35979975 102.338819,3.49063406 101.913503,2.74882561 C101.488187,2.00606674 100.902248,1.41680186 100.172321,0.998613882 C99.4428675,0.579475477 98.6174217,0.367054993 97.7178418,0.367054993 C96.8059074,0.367054993 95.9742835,0.579475477 95.2448304,0.998613882 C94.5149027,1.41680186 93.9261131,2.00606674 93.4946185,2.74787518 C93.0636002,3.48968363 92.8450021,4.35979975 92.8450021,5.33303723 C92.8450021,6.30579949 93.0602735,7.17496518 93.4855899,7.91677367 C93.9104309,8.65953248 94.4963692,9.24784692 95.2262969,9.66651018 C95.95575,10.0856485 96.7878494,10.2975938 97.6993091,10.2975938 C98.5988882,10.2975938 99.4276607,10.0856485 100.162816,9.66698534 C100.898447,9.24784692 101.488187,8.65953248 101.913503,7.91677367" id="Fill-12" fill="#FFFFFF" fill-rule="nonzero"></path>
            <path d="M106.59564,5.1845805 C106.59564,4.39144898 106.796656,3.76749351 107.192509,3.3307722 C107.590262,2.89310047 108.087335,2.68020477 108.711766,2.68020477 C109.343326,2.68020477 109.792402,2.86553807 110.084183,3.24665939 C110.381667,3.63633455 110.53231,4.21371909 110.53231,4.96265574 L110.53231,10.0759542 L113.21489,10.0759542 L113.21489,4.74073098 C113.21489,3.32744571 112.884142,2.23492961 112.232624,1.49312116 C111.575404,0.746085369 110.645886,0.367340121 109.469732,0.367340121 C108.717945,0.367340121 108.053121,0.536516167 107.494269,0.870116119 C107.072279,1.12245455 106.722047,1.44369895 106.447849,1.82909719 L106.300533,0.589264877 L103.913059,0.589264877 L103.913059,10.0759542 L106.59564,10.0759542 L106.59564,5.1845805 Z" id="Fill-14" fill="#FFFFFF" fill-rule="nonzero"></path>
            <path d="M80.7336127,20.7645538 C81.1912437,20.7645538 81.5932742,20.882882 81.9282997,21.1152614 C82.2633253,21.3481161 82.4819235,21.6612818 82.5964497,22.0723417 L82.6282896,22.1882938 L85.4387024,22.1882938 L85.3992595,21.9977331 C85.1706818,20.8923862 84.6346414,20.0118154 83.8063442,19.3802565 C82.980423,18.7520241 81.9525359,18.4331558 80.7516707,18.4331558 C79.7912641,18.4331558 78.9316026,18.6455763 78.1959722,19.0637642 C77.4589156,19.4833779 76.870126,20.075494 76.445285,20.8244307 C76.020444,21.5714665 75.8051723,22.4377809 75.8051723,23.3986629 C75.8051723,24.3590695 76.020444,25.225384 76.445285,25.9728949 C76.870126,26.7213563 77.4593909,27.3134726 78.1959722,27.7330862 C78.9316026,28.1512741 79.7912641,28.3636946 80.7516707,28.3636946 C81.9530106,28.3636946 82.9808977,28.035322 83.8077691,27.3871306 C84.6351161,26.7379889 85.1706818,25.8678727 85.3987848,24.7995925 L85.440128,24.6085567 L82.6278141,24.6085567 L82.595975,24.7254592 C82.481448,25.1479241 82.2638008,25.463466 81.9297254,25.6896676 C81.5946999,25.9168197 81.1921939,26.0318214 80.7336127,26.0318214 C80.1196368,26.0318214 79.6135344,25.8070454 79.1858421,25.3432369 C78.7591,24.8827549 78.5433531,24.228861 78.5433531,23.3986629 C78.5433531,22.5679894 78.7591,21.9136203 79.1858421,21.4536135 C79.6140091,20.989805 80.1201115,20.7645538 80.7336127,20.7645538" id="Fill-16" fill="#FFFFFF" fill-rule="nonzero"></path>
            <path d="M91.50623,25.9953725 C90.9288456,25.9953725 90.443177,25.7843777 90.0197617,25.3500325 C89.602049,24.9204393 89.3901036,24.2636941 89.3901036,23.3988054 C89.3901036,22.5329662 89.602049,21.8766962 90.0197617,21.4471031 C90.443177,21.0122826 90.9350229,20.8012878 91.5247635,20.8012878 C92.0897924,20.8012878 92.5726097,21.0127579 93.0022023,21.4475783 C93.4260931,21.8776466 93.6408898,22.5339166 93.6408898,23.3988054 C93.6408898,24.263219 93.4260931,24.9190138 93.0022023,25.349082 C92.5726097,25.7843777 92.0836143,25.9953725 91.50623,25.9953725 M93.9792414,19.064382 C93.2497891,18.6452436 92.4238678,18.4328231 91.5247635,18.4328231 C90.6128283,18.4328231 89.7807297,18.6452436 89.0517521,19.064382 C88.3218235,19.48257 87.7330339,20.0718349 87.3015401,20.8136434 C86.8705211,21.5554518 86.6519229,22.4255679 86.6519229,23.3988054 C86.6519229,24.3715677 86.8671951,25.2407333 87.2925107,25.9825418 C87.716877,26.7248255 88.30329,27.3136151 89.0332186,27.7322783 C89.7621962,28.1514167 90.5942948,28.363362 91.50623,28.363362 C92.405809,28.363362 93.2341069,28.1514167 93.9697373,27.7327535 C94.7053677,27.3136151 95.2951082,26.7248255 95.7204247,25.9825418 C96.1457403,25.2407333 96.360537,24.3710924 96.360537,23.3988054 C96.360537,22.4260431 96.1457403,21.5564022 95.7204247,20.8145938 C95.2951082,20.0718349 94.7086945,19.48257 93.9792414,19.064382" id="Fill-18" fill="#FFFFFF" fill-rule="nonzero"></path>
            <path d="M113.093616,28.1417224 L113.093616,22.8069743 C113.093616,21.3927387 112.756214,20.3002225 112.091866,19.5584141 C111.42229,18.8118535 110.455705,18.4331083 109.2192,18.4331083 C108.53014,18.4331083 107.886701,18.5885031 107.305515,18.8950159 C106.801313,19.1606603 106.380749,19.5132688 106.051901,19.945238 C105.419866,18.9415868 104.40291,18.4331083 103.025265,18.4331083 C102.360441,18.4331083 101.765949,18.5732963 101.257946,18.8498706 C100.865895,19.0632415 100.530394,19.3350637 100.25477,19.6610603 L100.089871,18.6550331 L97.7085755,18.6550331 L97.7085755,28.1417224 L100.391156,28.1417224 L100.391156,23.2503486 C100.391156,22.4543658 100.575064,21.8285095 100.937652,21.391313 C101.297389,20.9569677 101.756445,20.7459729 102.340958,20.7459729 C102.934024,20.7459729 103.357915,20.9303558 103.637341,21.3100515 C103.923419,21.6997266 104.068835,22.2780616 104.068835,23.0288991 L104.068835,28.1417224 L106.751415,28.1417224 L106.751415,23.2503486 C106.751415,22.4543658 106.935323,21.8285095 107.297911,21.391313 C107.657647,20.9569677 108.122882,20.7459729 108.720226,20.7459729 C109.299986,20.7459729 109.714847,20.9298806 109.98762,21.3086258 C110.268471,21.6987762 110.41056,22.2771111 110.41056,23.0288991 L110.41056,28.1417224 L113.093616,28.1417224 Z" id="Fill-20" fill="#FFFFFF" fill-rule="nonzero"></path>
            <path d="M123.699149,28.1417224 L123.699149,23.2503486 C123.699149,22.4543658 123.883531,21.8285095 124.245644,21.391313 C124.60538,20.9569677 125.07109,20.7459729 125.667959,20.7459729 C126.247719,20.7459729 126.662105,20.9298806 126.935353,21.3086258 C127.216204,21.6987762 127.358769,22.2771111 127.358769,23.0288991 L127.358769,28.1417224 L130.041349,28.1417224 L130.041349,22.8069743 C130.041349,21.3927387 129.704423,20.3002225 129.039599,19.5584141 C128.370023,18.8118535 127.403439,18.4331083 126.166933,18.4331083 C125.477873,18.4331083 124.834909,18.5885031 124.253723,18.8950159 C123.749046,19.1606603 123.328482,19.5132688 122.999159,19.945238 C122.367125,18.9415868 121.350643,18.4331083 119.972523,18.4331083 C119.308174,18.4331083 118.713682,18.5732963 118.205679,18.8498706 C117.813628,19.0632415 117.477652,19.3350637 117.202503,19.6610603 L117.037604,18.6550331 L114.656309,18.6550331 L114.656309,28.1417224 L117.33889,28.1417224 L117.33889,23.2503486 C117.33889,22.4543658 117.522797,21.8285095 117.885385,21.391313 C118.244647,20.9569677 118.704178,20.7459729 119.289166,20.7459729 C119.881757,20.7459729 120.305648,20.9303558 120.585074,21.3100515 C120.871627,21.6997266 121.016568,22.2780616 121.016568,23.0288991 L121.016568,28.1417224 L123.699149,28.1417224 Z" id="Fill-22" fill="#FFFFFF" fill-rule="nonzero"></path>
            <path d="M146.302446,18.983168 C145.835786,19.2692466 145.441359,19.6365867 145.126768,20.0790106 L144.94381,18.6547954 L142.538754,18.6547954 L142.538754,28.1414847 L145.221335,28.1414847 L145.221335,23.8051605 C145.221335,23.1341589 145.328734,22.6066718 145.541629,22.2388565 C145.750248,21.8781693 146.04393,21.6210788 146.415072,21.4742378 C146.802371,21.3226446 147.249072,21.2451848 147.743769,21.2451848 L148.568264,21.2451848 L148.568264,18.4328707 L148.410018,18.4328707 C147.607858,18.4328707 146.898839,18.618204 146.302446,18.983168" id="Fill-24" fill="#FFFFFF" fill-rule="nonzero"></path>
            <path d="M156.213691,24.7256493 C156.099165,25.1481142 155.881517,25.463656 155.547442,25.6898577 C155.212417,25.9170098 154.809911,26.0320115 154.351329,26.0320115 C153.737354,26.0320115 153.23125,25.8067602 152.803083,25.343427 C152.376817,24.882945 152.16107,24.2285759 152.16107,23.3988529 C152.16107,22.5681795 152.376817,21.9138103 152.803083,21.4533283 C153.231726,20.9895199 153.737828,20.7647438 154.351329,20.7647438 C154.80896,20.7647438 155.210991,20.8825968 155.546016,21.1149762 C155.881517,21.3483061 156.09964,21.6614719 156.214166,22.0725317 L156.246006,22.1880086 L159.056419,22.1880086 L159.016976,21.9979231 C158.788399,20.8921011 158.252357,20.0115303 157.42406,19.3804466 C156.598139,18.7522142 155.570252,18.4328707 154.369387,18.4328707 C153.408981,18.4328707 152.548844,18.6452912 151.813688,19.0639543 C151.076632,19.4830928 150.487842,20.0752089 150.063002,20.8246207 C149.638161,21.5716566 149.422889,22.437971 149.422889,23.3988529 C149.422889,24.3592596 149.638161,25.2250988 150.063002,25.973085 C150.487842,26.7210712 151.076632,27.3131874 151.813688,27.732801 C152.548844,28.1514642 153.408981,28.3634095 154.369387,28.3634095 C155.570727,28.3634095 156.59909,28.0355121 157.425486,27.3873207 C158.252833,26.7377037 158.788399,25.8675876 159.016502,24.7997826 L159.057845,24.6087467 L156.245055,24.6087467 L156.213691,24.7256493 Z" id="Fill-26" fill="#FFFFFF" fill-rule="nonzero"></path>
            <g id="Fill-28-Clipped" transform="translate(160.179634, 18.432918)">
                <mask id="mask-4" fill="white">
                    <use xlink:href="#path-3"></use>
                </mask>
                <g id="path-3"></g>
                <path d="M3.48711748,2.69826288 C3.90102853,2.39365096 4.38622163,2.23920653 4.92844035,2.23920653 C5.48966763,2.23920653 5.96488125,2.40600651 6.34029999,2.73580476 C6.6791273,3.03423891 6.87586573,3.41631065 6.93716829,3.90150374 L2.73865604,3.90150374 C2.86933978,3.372591 3.12072778,2.96818422 3.48711748,2.69826288 L3.48711748,2.69826288 Z M6.5741051,6.77797173 C6.4310658,7.01130161 6.25333591,7.21896997 6.01477867,7.37626566 C5.71634452,7.5730041 5.3385497,7.67327417 4.8913737,7.67327417 C4.29307976,7.67327417 3.7779482,7.48176309 3.36023544,7.10396827 C2.98006455,6.75991361 2.75101159,6.28707607 2.67972955,5.69638556 L9.62260043,5.69638556 L9.63448074,5.55097019 C9.64636106,5.38939756 9.65539015,5.23305228 9.66251834,5.08288478 C9.66822088,4.93271728 9.6720226,4.78920277 9.6720226,4.65139082 C9.6720226,3.78935333 9.46863121,2.99527139 9.06897654,2.28957918 L9.06897654,2.28957918 C8.66789629,1.58388696 8.10381774,1.01980841 7.39194772,0.613025558 C6.68055294,0.206242707 5.8517804,0 4.92844035,0 C3.94284733,0 3.07320642,0.215746979 2.34327831,0.641063161 C1.61239979,1.06732977 1.03216396,1.6689502 0.619678549,2.43119283 C0.208618776,3.19010897 0,4.06782851 0,5.03916513 C0,5.99957184 0.21194527,6.85970847 0.630608462,7.59486393 C1.05022208,8.33239543 1.63616046,8.9131065 2.37369199,9.31941412 C3.10884744,9.72524657 3.96233109,9.93053886 4.90990703,9.93053886 C5.66834795,9.93053886 6.35930854,9.78892521 6.96330504,9.50949954 C7.56825196,9.22959878 8.08385874,8.83897312 8.49729455,8.34950312 C8.89409791,7.87951686 9.17970129,7.3496537 9.35980728,6.77797173 L6.5741051,6.77797173 Z" id="Fill-28" fill="#FFFFFF" fill-rule="nonzero" mask="url(#mask-4)"></path>
            </g>
            <path d="M134.889859,21.1311811 C135.30377,20.8265691 135.788963,20.6721247 136.331181,20.6721247 C136.892409,20.6721247 137.367622,20.8389247 137.743041,21.1687229 C138.081869,21.4671571 138.278132,21.8492288 138.339434,22.334422 L134.141397,22.334422 C134.272081,21.8055092 134.523469,21.4011024 134.889859,21.1311811 L134.889859,21.1311811 Z M137.976847,25.2108899 C137.833807,25.4442198 137.656077,25.6518882 137.417519,25.8091839 C137.119085,26.0059223 136.741291,26.1061924 136.294115,26.1061924 C135.695821,26.1061924 135.18069,25.9146813 134.762977,25.5368865 C134.382806,25.1928318 134.153753,24.7199943 134.082471,24.1293038 L141.025341,24.1293038 L141.037222,23.9838884 C141.049102,23.8223157 141.058131,23.6659705 141.06526,23.515803 C141.070962,23.3656355 141.074764,23.222121 141.074764,23.084309 C141.074764,22.2222715 140.871372,21.4281896 140.471243,20.7224974 L140.471243,20.7224974 C140.070637,20.0168052 139.506559,19.4527266 138.794689,19.0459438 C138.083294,18.6391609 137.254522,18.4329182 136.331181,18.4329182 C135.345588,18.4329182 134.475947,18.6486652 133.74602,19.0739814 C133.015141,19.500248 132.434905,20.1018684 132.02242,20.864111 C131.61136,21.6230271 131.402741,22.5007467 131.402741,23.4720833 C131.402741,24.43249 131.614686,25.2926267 132.033349,26.0277821 C132.452488,26.7653136 133.038901,27.3460246 133.776433,27.7523323 C134.511589,28.1581647 135.365072,28.363457 136.312648,28.363457 C137.071089,28.363457 137.76205,28.2218433 138.366046,27.9424178 C138.970994,27.6625169 139.4866,27.2718913 139.900036,26.7824213 C140.296839,26.3124351 140.582442,25.7825719 140.762549,25.2108899 L137.976847,25.2108899 Z" id="Fill-31" fill="#FFFFFF" fill-rule="nonzero"></path>
            <path d="M92.4209209,36.5015851 C91.6686582,36.5015851 91.0043097,36.670286 90.4449833,37.0043611 C90.0229929,37.2566996 89.6732361,37.577944 89.3995129,37.9633422 L89.251722,36.7235099 L86.8642482,36.7235099 L86.8642482,46.2101992 L89.5468292,46.2101992 L89.5468292,41.3188255 C89.5468292,40.525694 89.7473694,39.9012633 90.1432225,39.4650172 C90.5414516,39.0268703 91.0385246,38.8144498 91.6629556,38.8144498 C92.294514,38.8144498 92.7435911,38.9997831 93.0353723,39.3809044 C93.3328561,39.7705796 93.4834984,40.3479641 93.4834984,41.0969008 L93.4834984,46.2101992 L96.1660794,46.2101992 L96.1660794,40.874976 C96.1660794,39.4616907 95.8358063,38.3691747 95.1833377,37.6273662 C94.526593,36.8803304 93.5970745,36.5015851 92.4209209,36.5015851" id="Fill-33" fill="#FFFFFF" fill-rule="nonzero"></path>
            <g id="Fill-35-Clipped">
                <mask id="mask-6" fill="white">
                    <use xlink:href="#path-5"></use>
                </mask>
                <g id="path-5"></g>
                <polygon id="Fill-35" fill="#FFFFFF" fill-rule="nonzero" mask="url(#mask-6)" points="102.452728 46.2102467 105.135784 46.2102467 105.135784 32.5815956 102.452728 32.5815956"></polygon>
            </g>
            <g id="Fill-37-Clipped">
                <mask id="mask-8" fill="white">
                    <use xlink:href="#path-7"></use>
                </mask>
                <g id="path-7"></g>
                <polygon id="Fill-37" fill="#FFFFFF" fill-rule="nonzero" mask="url(#mask-8)" points="106.894074 46.2102467 109.577131 46.2102467 109.577131 36.7235574 106.894074 36.7235574"></polygon>
            </g>
            <g id="Fill-38-Clipped">
                <mask id="mask-10" fill="white">
                    <use xlink:href="#path-9"></use>
                </mask>
                <g id="path-9"></g>
                <path d="M108.235222,32.581548 C107.808005,32.581548 107.449695,32.710331 107.171219,32.964095 C106.888942,33.2211856 106.745902,33.5538351 106.745902,33.9530145 C106.745902,34.3517188 106.888467,34.6872196 107.170269,34.9495375 C107.448744,35.2094793 107.807055,35.3415887 108.235222,35.3415887 C108.663865,35.3415887 109.022176,35.2094793 109.300651,34.9495375 C109.581978,34.6872196 109.725017,34.3517188 109.725017,33.9530145 C109.725017,33.5538351 109.581978,33.2211856 109.299225,32.964095 C109.02075,32.710331 108.66244,32.581548 108.235222,32.581548" id="Fill-38" fill="#FFFFFF" fill-rule="nonzero" mask="url(#mask-10)"></path>
            </g>
            <g id="Fill-39-Clipped">
                <mask id="mask-12" fill="white">
                    <use xlink:href="#path-11"></use>
                </mask>
                <g id="path-11"></g>
                <path d="M116.45542,40.9938269 C116.171242,41.2266816 115.804377,41.345485 115.362904,41.345485 C114.89767,41.345485 114.5213,41.2271568 114.244251,40.9943022 C113.971478,40.7657244 113.838418,40.4421039 113.838418,40.0063331 C113.838418,39.5705621 113.971478,39.2469417 114.244251,39.0178887 C114.521776,38.7845588 114.898145,38.6667059 115.362904,38.6667059 C115.803902,38.6667059 116.171242,38.7850341 116.45542,39.0188391 C116.733895,39.2478921 116.869331,39.5710374 116.869331,40.0063331 C116.869331,40.4411535 116.733895,40.7642988 116.45542,40.9938269 M116.701105,48.055026 C116.358476,48.2774259 115.902271,48.3900516 115.34437,48.3900516 C114.757482,48.3900516 114.256607,48.2817029 113.856952,48.0673815 C113.483909,47.8668414 113.302377,47.5769611 113.302377,47.1801577 C113.302377,46.9620346 113.369383,46.7548415 113.507194,46.5462228 C113.639779,46.344257 113.863129,46.1527459 114.171068,45.9769168 C114.588305,46.046298 115.046887,46.0999972 115.536832,46.1356382 C116.377485,46.1936143 116.727717,46.366592 116.873608,46.5010775 C117.082227,46.693539 117.183447,46.9278193 117.183447,47.2172243 C117.183447,47.5698329 117.025676,47.8440311 116.701105,48.055026 M115.362904,36.5016327 C114.551239,36.5016327 113.848398,36.6570275 113.273389,36.9635403 C112.69553,37.2719539 112.243127,37.6958445 111.927109,38.2238068 C111.611567,38.7522444 111.45142,39.3453109 111.45142,39.9877997 C111.45142,40.9596116 111.789773,41.7760285 112.456972,42.4175669 L110.91538,44.0480248 L110.91538,44.6011735 L110.961,44.6472692 C111.103089,44.7893581 111.269414,44.9266948 111.455222,45.0545272 C111.581629,45.1419665 111.726569,45.2270298 111.887666,45.3092417 C111.180549,45.9099117 110.822713,46.6189304 110.822713,47.4201406 C110.822713,48.4485028 111.252781,49.2311797 112.101037,49.7467864 C112.923157,50.2467111 114.014722,50.5 115.34437,50.5 C116.325211,50.5 117.144479,50.3422291 117.78079,50.0309642 C118.421854,49.7158975 118.90372,49.2981848 119.21451,48.7873302 C119.524349,48.2769508 119.68117,47.7304551 119.68117,47.1616244 C119.68117,46.2910331 119.382736,45.5976964 118.793471,45.0996725 C118.216086,44.6116281 117.290845,44.3074914 116.042935,44.1934402 C115.248852,44.1202573 114.670042,44.0465992 114.323136,43.9743667 C114.085054,43.9249445 113.880713,43.8674437 113.712962,43.8018641 L114.172494,43.3423326 C114.540309,43.4297719 114.940439,43.4739668 115.362904,43.4739668 C116.149382,43.4739668 116.842719,43.3185719 117.424381,43.0115839 C118.008893,42.7036455 118.462247,42.2792797 118.772086,41.7498918 C119.080975,41.2228799 119.237321,40.6298133 119.237321,39.9877997 C119.237321,39.4826476 119.141803,39.0088596 118.952668,38.5754648 L120.439611,38.4704426 L120.439611,36.7235574 L116.830363,36.7235574 C116.379386,36.575766 115.885639,36.5016327 115.362904,36.5016327" id="Fill-39" fill="#FFFFFF" fill-rule="nonzero" mask="url(#mask-12)"></path>
            </g>
            <g id="Fill-40-Clipped">
                <mask id="mask-14" fill="white">
                    <use xlink:href="#path-13"></use>
                </mask>
                <g id="path-13"></g>
                <path d="M127.436798,36.5015851 C126.684535,36.5015851 126.020187,36.670286 125.460861,37.0043611 C125.038871,37.2566996 124.688638,37.577944 124.41539,37.9633422 L124.267124,36.7235099 L121.880125,36.7235099 L121.880125,46.2101992 L124.562231,46.2101992 L124.562231,41.3188255 C124.562231,40.525694 124.763247,39.9012633 125.1591,39.4650172 C125.556853,39.0268703 126.053927,38.8144498 126.678357,38.8144498 C127.309917,38.8144498 127.758994,38.9997831 128.05125,39.3809044 C128.348733,39.7705796 128.498901,40.3479641 128.498901,41.0969008 L128.498901,46.2101992 L131.181482,46.2101992 L131.181482,40.874976 C131.181482,39.4616907 130.851208,38.3691747 130.199215,37.6273662 C129.54247,36.8803304 128.612952,36.5015851 127.436798,36.5015851" id="Fill-40" fill="#FFFFFF" fill-rule="nonzero" mask="url(#mask-14)"></path>
            </g>
            <g id="Fill-41-Clipped">
                <mask id="mask-16" fill="white">
                    <use xlink:href="#path-15"></use>
                </mask>
                <g id="path-15"></g>
                <path d="M135.943787,39.1997054 C136.357223,38.8946183 136.842416,38.7401739 137.384635,38.7401739 C137.945862,38.7401739 138.421076,38.9074491 138.796495,39.2367721 C139.135798,39.5352063 139.332061,39.9177532 139.393363,40.4024711 L135.194851,40.4024711 C135.325534,39.8740336 135.577397,39.4691516 135.943787,39.1997054 L135.943787,39.1997054 Z M139.0303,43.2794143 C138.887261,43.512269 138.709531,43.7199374 138.471448,43.8777082 C138.17254,44.0744467 137.794744,44.1747167 137.347568,44.1747167 C136.749749,44.1747167 136.234143,43.9827304 135.81643,43.6054108 C135.436259,43.260881 135.207206,42.7885186 135.135924,42.1978281 L142.078795,42.1978281 L142.090675,42.0519376 C142.103031,41.8903649 142.111585,41.7344949 142.118713,41.5838522 C142.124891,41.4336847 142.128217,41.2901701 142.128217,41.1523582 C142.128217,40.2907959 141.924826,39.4962388 141.525172,38.7910218 L141.525172,38.7905465 C141.124091,38.0848543 140.560013,37.521251 139.848143,37.1139929 C139.136748,36.7076853 138.307975,36.5014426 137.384635,36.5014426 C136.399042,36.5014426 135.529401,36.7167144 134.799948,37.1420305 C134.068594,37.5682971 133.488834,38.1703928 133.075873,38.9321602 C132.664814,39.6910763 132.456194,40.5692711 132.456194,41.5406077 C132.456194,42.5010144 132.66814,43.361151 133.086803,44.0963065 C133.506416,44.8333628 134.092356,45.4140738 134.829887,45.8208567 C135.565042,46.2262139 136.418526,46.4319814 137.366102,46.4319814 C138.124543,46.4319814 138.815503,46.2903678 139.4195,46.0104669 C140.024447,45.7305661 140.540053,45.3404158 140.953489,44.8509457 C141.350292,44.3804843 141.636371,43.8506211 141.816002,43.2794143 L139.0303,43.2794143 Z" id="Fill-41" fill="#FFFFFF" fill-rule="nonzero" mask="url(#mask-16)"></path>
            </g>
            <g id="Fill-42-Clipped">
                <mask id="mask-18" fill="white">
                    <use xlink:href="#path-17"></use>
                </mask>
                <g id="path-17"></g>
                <path d="M79.2926698,39.1997054 C79.7061055,38.8946183 80.1912986,38.7401739 80.7335179,38.7401739 C81.2947446,38.7401739 81.7699582,38.9074491 82.1453775,39.2367721 C82.48468,39.5352063 82.6809432,39.9177532 82.7422455,40.4024711 L78.543733,40.4024711 C78.6744169,39.8740336 78.9262806,39.4691516 79.2926698,39.1997054 L79.2926698,39.1997054 Z M82.3796579,43.2794143 C82.2366186,43.512269 82.0588881,43.7199374 81.8203315,43.8777082 C81.521422,44.0744467 81.1436269,44.1747167 80.6969264,44.1747167 C80.0986319,44.1747167 79.5835008,43.9827304 79.1657881,43.6054108 C78.7851417,43.260881 78.5565639,42.7885186 78.4848065,42.1978281 L85.4281525,42.1978281 L85.4395578,42.0519376 C85.4519139,41.8903649 85.4604671,41.7344949 85.4675954,41.5838522 C85.4737734,41.4336847 85.4771002,41.2901701 85.4771002,41.1523582 C85.4771002,40.2907959 85.2741835,39.4962388 84.8740541,38.7910218 L84.8740541,38.7905465 C84.4734485,38.0848543 83.908895,37.521251 83.1970252,37.1139929 C82.4856302,36.7076853 81.6573331,36.5014426 80.7335179,36.5014426 C79.747925,36.5014426 78.8787586,36.7167144 78.1488308,37.1420305 C77.4174771,37.5682971 76.8377165,38.1703928 76.4247558,38.9321602 C76.013696,39.6910763 75.8050772,40.5692711 75.8050772,41.5406077 C75.8050772,42.5010144 76.0174977,43.361151 76.4361609,44.0963065 C76.8552993,44.8333628 77.4417129,45.4140738 78.1792442,45.8208567 C78.9139244,46.2262139 79.7674086,46.4319814 80.7149844,46.4319814 C81.4734253,46.4319814 82.1643857,46.2903678 82.7688575,46.0104669 C83.3733293,45.7305661 83.8889358,45.3404158 84.3023716,44.8509457 C84.6991749,44.3804843 84.9852535,43.8506211 85.1653598,43.2794143 L82.3796579,43.2794143 Z" id="Fill-42" fill="#FFFFFF" fill-rule="nonzero" mask="url(#mask-18)"></path>
            </g>
        </g>
    </g>
</svg>