<svg width="131" height="68" xmlns="http://www.w3.org/2000/svg"><path d="M107.79 4.693c.38 2.632-1.06 5.992-3.035 7.688C98.945 17.323 92.47 2.083 101.549.12c2.962-.647 5.754 1.402 6.242 4.574zm18.725-2.242a8.364 8.364 0 0 0-8.358 1.595 15.388 15.388 0 0 0-2.632 3.172 57.24 57.24 0 0 0-3.655 6.871 16.234 16.234 0 0 1-5.668 6.338c-4.375 2.752-10.032.613-12.018-4.227-.783-1.901-1.515-3.762-2.775-5.419-1.827-2.417-5.441-4.187-8.51-2.707-3.53 1.703-3.734 5.493-2.168 8.086 1.566 2.593 5.975 3.83 8.585 4.738 2.61.908 5.946 2.315 6.009 4.965.073 2.837-2.123 4.96-4.358 5.918-3.337 1.43-6.508 1.9-9.436 4.358-2.026 1.702-3.115 3.915-2.531 6.616a5.805 5.805 0 0 0 2.996 3.972c2.406 1.186 5.419.295 7.444-1.458 2.962-2.565 4.37-6.946 6.242-9.947 1.135-1.833 3.405-4.012 5.964-2.837 3.971 1.957 4.13 8.829 3.971 13.101-.085 2.679.205 5.334 1.135 7.416a10.962 10.962 0 0 0 2.18 3.025c3.137 2.996 9.078 2.383 10.78-2.508 1.407-4.023-.125-8.426-2.474-11.655-2.07-2.985-5.158-5.55-7.688-8.193-.885-.931-2.128-2.667-2.117-4.25.125-2.27.75-3.405 2.344-4.857 3.433-3.11 8.624-4.239 12.687-6.344 3.705-1.918 7.603-4.154 8.29-8.665.454-2.95-1.498-6.003-4.273-7.104h.034zm-62.87 59.965a.477.477 0 0 0-.47.715 1.9 1.9 0 0 0 .68.772 3.456 3.456 0 0 0 1.856.436 8.79 8.79 0 0 0 1.668-.175c.368-.07.73-.165 1.084-.284a.874.874 0 0 1 1.061.448c.122.288.224.584.307.885.106.371.18.751.22 1.135a.965.965 0 0 1-.68.982 18.725 18.725 0 0 1-3.915.64 8.778 8.778 0 0 1-3.166-.51 5.453 5.453 0 0 1-3.405-3.592 9.544 9.544 0 0 1 0-5.486 6.19 6.19 0 0 1 1.243-2.208 5.776 5.776 0 0 1 2.048-1.498 6.968 6.968 0 0 1 2.871-.567 6.049 6.049 0 0 1 2.423.465c.685.29 1.302.722 1.81 1.266a5.59 5.59 0 0 1 1.135 1.951c.272.797.406 1.633.397 2.474.002.415-.02.83-.062 1.243l-.046.369c-.04.295-.42.567-.85.567l-6.208-.028zm1.272-5.05a2.054 2.054 0 0 0-1.385.51 1.706 1.706 0 0 0-.51.829.567.567 0 0 0 .567.76h2.548a.618.618 0 0 0 .624-.766 1.9 1.9 0 0 0-.397-.737 1.793 1.793 0 0 0-1.447-.58v-.016zm7.75 5.992a3.694 3.694 0 0 1 .568-2.077c.35-.54.825-.987 1.385-1.305a5.827 5.827 0 0 1 1.866-.68 9.425 9.425 0 0 1 1.226-.154c.426 0 1.135-.04 1.555-.04.43 0 .732-.232.675-.567a.567.567 0 0 0-.125-.267 1.6 1.6 0 0 0-.618-.431 2.877 2.877 0 0 0-.795-.233 6.605 6.605 0 0 0-.896-.062 8.364 8.364 0 0 0-1.436.142c-.32.052-.636.124-.947.215a.885.885 0 0 1-1.033-.323l-.108-.238a3.507 3.507 0 0 1-.255-.732 5.612 5.612 0 0 1-.13-.772v-.261a.987.987 0 0 1 .714-.84 17.25 17.25 0 0 1 1.702-.397c.724-.13 1.456-.2 2.19-.21a8.38 8.38 0 0 1 2.412.323c.675.194 1.3.53 1.833.988.52.466.92 1.05 1.169 1.702a7.06 7.06 0 0 1 .346 1.702c.034.426.062 1.135.062 1.555v5.952a1.067 1.067 0 0 1-.754.976s-.681.182-1.606.369a14.68 14.68 0 0 1-2.922.278 11.303 11.303 0 0 1-2.446-.244 5.396 5.396 0 0 1-1.912-.777 3.683 3.683 0 0 1-1.243-1.425 4.732 4.732 0 0 1-.476-2.167zm6.05 1.435c.223.001.447-.016.669-.05.29-.046.488-.114.567-.233.073-.208.102-.428.085-.647v-1.266a.755.755 0 0 0-.726-.777c-.403 0-1.078.04-1.504.09a2.037 2.037 0 0 0-.743.296 1.203 1.203 0 0 0-.613 1.078c-.017.287.065.572.233.806.149.194.344.348.567.448.237.103.487.172.744.204.239.032.48.05.72.051zm19.7 1.504c.005.425-.245.812-.636.982l-.402.107c-.403.103-.829.199-1.283.29a13.337 13.337 0 0 1-2.809.295 15.087 15.087 0 0 1-2.513-.204 5.186 5.186 0 0 1-2.11-.834 4.284 4.284 0 0 1-1.453-1.816 9.646 9.646 0 0 1-.477-2.417 23.89 23.89 0 0 1-.063-1.555v-5.93a.976.976 0 0 1 .75-.925l.368-.034c.37-.034.72-.05 1.067-.05.346 0 .675 0 1.05.05l.374.034a.97.97 0 0 1 .727.925v5.572c0 .426.034 1.135.079 1.55.036.47.184.925.431 1.327.416.406.987.613 1.566.568.29 0 .823-.046.823-.046s.12-.085.148-.227c.024-.188.033-.378.028-.567v-8.177a.976.976 0 0 1 .749-.925l.369-.034c.369-.034.72-.05 1.06-.05.341 0 .676 0 1.056.05l.375.034a.97.97 0 0 1 .726.925v11.082zM11.835 54.569a.636.636 0 0 0-.284-.057h-.369c-.46.024-.868.305-1.055.726l-3.813 9.828c-.08.198-.176.295-.272.3-.097.006-.199-.102-.273-.3l-3.813-9.828c-.19-.42-.6-.7-1.06-.726H.548a.488.488 0 0 0-.488.72l4.783 11.69c.198.418.61.695 1.073.72h.3a.953.953 0 0 0 .25-.04 1.26 1.26 0 0 0 .823-.68l4.783-11.69a.477.477 0 0 0-.238-.663zm2.53-5.255c-.006-.341.13-.67.375-.908a1.3 1.3 0 0 1 1.816 0 1.3 1.3 0 0 1 0 1.816 1.282 1.282 0 0 1-2.19-.908zm.432 5.98a.777.777 0 0 1 .777-.782h.148c.43.003.777.353.777.783v11.564c0 .43-.347.78-.777.783h-.148a.777.777 0 0 1-.777-.783V55.295zm5.685 9.431a.806.806 0 0 1 1.101.193c.306.402.692.734 1.135.976.68.37 1.44.564 2.213.568a3.597 3.597 0 0 0 1.084-.17 3.28 3.28 0 0 0 .964-.483c.28-.204.517-.46.698-.755.181-.303.273-.65.267-1.004a1.64 1.64 0 0 0-.567-1.367 4.409 4.409 0 0 0-1.436-.71 16.415 16.415 0 0 0-1.878-.437 7.847 7.847 0 0 1-1.873-.567 4.017 4.017 0 0 1-1.435-1.061 2.877 2.877 0 0 1-.568-1.935 3.353 3.353 0 0 1 .398-1.674 3.64 3.64 0 0 1 1.038-1.18c.433-.316.92-.553 1.435-.698a5.986 5.986 0 0 1 1.618-.227 6.15 6.15 0 0 1 2.803.567 4.477 4.477 0 0 1 1.378 1.243.71.71 0 0 1-.215 1.033l-.199.113a.84.84 0 0 1-1.135-.244 3.002 3.002 0 0 0-.771-.732 3.404 3.404 0 0 0-1.89-.465 3.37 3.37 0 0 0-.947.142c-.318.086-.62.22-.897.397a2.27 2.27 0 0 0-.692.653c-.18.267-.274.585-.267.907-.04.503.172.993.568 1.306.433.308.92.535 1.435.67.618.174 1.245.312 1.878.413a7.58 7.58 0 0 1 1.873.568 3.836 3.836 0 0 1 1.435 1.135c.418.602.618 1.328.568 2.06a3.881 3.881 0 0 1-.386 1.775 3.768 3.768 0 0 1-.999 1.22 4.738 4.738 0 0 1-1.52.766 6.196 6.196 0 0 1-1.793.256 7.376 7.376 0 0 1-3.11-.653 5.481 5.481 0 0 1-1.702-1.407.715.715 0 0 1 .164-1.05l.227-.142zm23.094-.04a.766.766 0 0 1 .091 1.09 7.025 7.025 0 0 1-1.952 1.572 7.881 7.881 0 0 1-3.223.652 7.002 7.002 0 0 1-2.73-.51 6.196 6.196 0 0 1-2.104-1.436 6.338 6.338 0 0 1-1.334-2.207 7.864 7.864 0 0 1-.47-2.798 7.479 7.479 0 0 1 .482-2.729 6.593 6.593 0 0 1 1.35-2.145 6.395 6.395 0 0 1 4.721-1.974 6.321 6.321 0 0 1 2.656.527c.731.326 1.388.8 1.929 1.39.518.575.92 1.246 1.18 1.975.166.476.277.969.33 1.47.028.29.062.567.073.902v.47a.71.71 0 0 1-.777.568h-9.47a.71.71 0 0 0-.693.466c-.028.31.015.622.125.913a4.942 4.942 0 0 0 2.27 2.996 4.75 4.75 0 0 0 2.462.568 5.43 5.43 0 0 0 2.525-.625c.525-.28.994-.652 1.385-1.1a.766.766 0 0 1 1.09-.103l.084.069zm-1.486-4.698c.567 0 .766-.25.698-.777a3.087 3.087 0 0 0-.278-.874 4.46 4.46 0 0 0-.965-1.35 4.63 4.63 0 0 0-1.447-.92 4.687 4.687 0 0 0-1.776-.34 4.358 4.358 0 0 0-2.32.567 5.05 5.05 0 0 0-1.459 1.306 5.589 5.589 0 0 0-.772 1.412 1.016 1.016 0 0 0 0 .755c.114.153.21.199.568.199l7.75.022zm13.56 6.117h-6.62c-.432 0-.568-.278-.319-.624l6.917-9.306v-.034c.148-.19.277-.393.386-.607a.902.902 0 0 0 .074-.488.601.601 0 0 0-.256-.425 1.169 1.169 0 0 0-.567-.097h-8.228a.772.772 0 1 0 0 1.538h5.919c.425 0 .567.278.312.624l-6.94 9.306c-.157.2-.295.415-.414.64a.902.902 0 0 0-.074.489c.02.172.113.327.256.425.178.08.373.112.567.097h8.988a.772.772 0 1 0 0-1.538z" fill="#FFF"/></svg>