<?xml version="1.0" encoding="UTF-8"?>
<svg width="219px" height="65px" viewBox="0 0 219 65" version="1.1" xmlns="http://www.w3.org/2000/svg" xmlns:xlink="http://www.w3.org/1999/xlink">
    <title>logo-full</title>
    <defs>
        <polygon id="path-1" points="0 0 40.9633709 0 40.9633709 47.9930694 0 47.9930694"></polygon>
        <polygon id="path-3" points="0 0 12.4487099 0 12.4487099 12.7818817 0 12.7818817"></polygon>
        <polygon id="path-5" points="0 65 218.620516 65 218.620516 0 0 0"></polygon>
        <polygon id="path-7" points="0 65 218.620516 65 218.620516 0 0 0"></polygon>
        <polygon id="path-9" points="0 65 218.620516 65 218.620516 0 0 0"></polygon>
        <polygon id="path-11" points="0 65 218.620516 65 218.620516 0 0 0"></polygon>
        <polygon id="path-13" points="0 65 218.620516 65 218.620516 0 0 0"></polygon>
        <polygon id="path-15" points="0 65 218.620516 65 218.620516 0 0 0"></polygon>
        <polygon id="path-17" points="0 65 218.620516 65 218.620516 0 0 0"></polygon>
    </defs>
    <g id="Page-1" stroke="none" stroke-width="1" fill="none" fill-rule="evenodd">
        <g id="Artboard-Copy" transform="translate(-40.000000, -270.000000)">
            <g id="logo-full" transform="translate(40.000000, 270.000000)">
                <path d="M56.980328,8.98218184 L51.5518359,14.410674 C60.3151043,23.1733306 60.3151043,37.379771 51.5518359,46.1430393 L51.5506126,46.1442626 L56.9797164,51.5727547 C68.3278645,39.642917 68.3278645,20.9120196 56.980328,8.98218184" id="Fill-1" fill="#FFFFFF" fill-rule="nonzero"></path>
                <path d="M68.2954464,0.000183498325 L62.4100435,5.88497478 C75.905122,19.3782183 75.905122,41.2542769 62.4100435,54.7493554 L62.4088202,54.7511904 L68.2936114,60.63537 C84.1105554,43.5369961 84.111167,17.0979458 68.2954464,0.000183498325" id="Fill-3" fill="#FFFFFF" fill-rule="nonzero"></path>
                <path d="M45.9824171,42.4407771 C52.6776593,35.7449232 52.6788826,24.8909973 45.9830288,18.1951434 L45.9824171,18.1945317 L33.8599061,30.3176544 L45.9824171,42.4407771 Z" id="Fill-5" fill="#FFFFFF" fill-rule="nonzero"></path>
                <g id="Fill-7-Clipped" transform="translate(0.000000, 6.321426)">
                    <mask id="mask-2" fill="white">
                        <use xlink:href="#path-1"></use>
                    </mask>
                    <g id="path-1"></g>
                    <path d="M14.6234097,33.0729735 C9.30929819,27.758862 9.30929819,19.1436157 14.6234097,13.8295042 C19.9375212,8.51539269 28.5533792,8.51539269 33.866879,13.8295042 C33.9170352,13.8796604 33.9586282,13.9340982 34.0075611,13.9842544 L40.9633709,7.02844459 C31.5921115,-2.34281486 16.3996735,-2.34281486 7.02841401,7.02844459 L7.02780235,7.02905625 C-2.34284545,16.3997041 -2.34284545,31.592142 7.02841401,40.9634015 L7.02902567,40.9646248 C16.4002851,50.3358843 31.5914998,50.3358843 40.9627593,40.9646248 L40.9633709,40.9634015 L33.4497262,33.4497567 C28.1117599,38.3687352 19.8035674,38.2531312 14.6234097,33.0729735" id="Fill-7" fill="#FFFFFF" fill-rule="nonzero" mask="url(#mask-2)"></path>
                </g>
                <path d="M113.756667,4.1740364 C114.118159,4.67621015 114.301657,5.42060169 114.301657,6.38763786 L114.301657,12.9691111 L117.753872,12.9691111 L117.753872,6.10199213 C117.753872,4.28230041 117.320205,2.87547992 116.465102,1.92067697 C115.603272,0.960369067 114.359153,0.472875183 112.767611,0.472875183 C111.881314,0.472875183 111.052513,0.672888358 110.304452,1.0667981 C109.65548,1.4093283 109.114159,1.86318083 108.690278,2.41918075 C107.876769,1.12735254 106.568426,0.472875183 104.794609,0.472875183 C103.939507,0.472875183 103.174319,0.653315203 102.520453,1.00930195 C102.015833,1.28332612 101.583388,1.63380792 101.229236,2.05340742 L101.01699,0.758520909 L97.9519564,0.758520909 L97.9519564,12.9691111 L101.404783,12.9691111 L101.404783,6.67328358 C101.404783,5.64875127 101.641496,4.84319362 102.108193,4.28046543 C102.570609,3.7214072 103.162085,3.44982968 103.914429,3.44982968 C104.677782,3.44982968 105.223383,3.68715418 105.58304,4.17525972 C105.95126,4.67743347 106.138428,5.42182501 106.138428,6.38763786 L106.138428,12.9691111 L109.591255,12.9691111 L109.591255,6.67328358 C109.591255,5.64875127 109.827968,4.84319362 110.294665,4.28046543 C110.757693,3.7214072 111.356509,3.44982968 112.125367,3.44982968 C112.871594,3.44982968 113.405574,3.68654252 113.756667,4.1740364" id="Fill-10" fill="#FFFFFF" fill-rule="nonzero"></path>
                <path d="M125.751586,10.2064215 C125.008417,10.2064215 124.3833,9.93484398 123.838921,9.37578575 C123.30066,8.82284413 123.027859,7.97752851 123.027859,6.86430534 C123.027859,5.74985885 123.30066,4.90515489 123.838921,4.35160161 C124.3833,3.79254338 125.016981,3.52096586 125.77544,3.52096586 C126.502705,3.52096586 127.124765,3.79315504 127.677095,4.35282493 C128.223308,4.90637821 128.499779,5.75108217 128.499779,6.86430534 C128.499779,7.97691685 128.223308,8.82100915 127.677095,9.37456243 C127.124765,9.93423232 126.494754,10.2064215 125.751586,10.2064215 M131.175796,10.1899067 C131.723233,9.23449204 132.000315,8.11576392 132.000315,6.86430534 C132.000315,5.61162344 131.723233,4.49289532 131.175796,3.53809237 C130.628359,2.5820661 129.874181,1.82360635 128.93467,1.2853446 C127.99577,0.745859525 126.933315,0.472447021 125.77544,0.472447021 C124.601663,0.472447021 123.531256,0.745859525 122.592356,1.2853446 C121.652845,1.82360635 120.894997,2.5820661 120.339608,3.53686905 C119.784832,4.491672 119.503468,5.61162344 119.503468,6.86430534 C119.503468,8.11637558 119.78055,9.2351037 120.327987,10.1899067 C120.874812,11.1459329 121.62899,11.9031693 122.568501,12.4420428 C123.507401,12.9815278 124.57842,13.2543287 125.751586,13.2543287 C126.90946,13.2543287 127.976197,12.9815278 128.922437,12.4426544 C129.869288,11.9031693 130.628359,11.1459329 131.175796,10.1899067" id="Fill-12" fill="#FFFFFF" fill-rule="nonzero"></path>
                <path d="M137.202309,6.67322242 C137.202309,5.65236007 137.461042,4.84924907 137.970556,4.28713253 C138.482516,3.72379268 139.122313,3.44976851 139.926036,3.44976851 C140.738934,3.44976851 141.316953,3.68831633 141.692513,4.17886852 C142.075413,4.68043061 142.26931,5.42359883 142.26931,6.38757669 L142.26931,12.9690499 L145.722136,12.9690499 L145.722136,6.10193097 C145.722136,4.28285091 145.29642,2.87664207 144.457833,1.92183912 C143.611906,0.960307901 142.415497,0.472814017 140.901635,0.472814017 C139.933988,0.472814017 139.078274,0.690565363 138.35896,1.11995144 C137.815805,1.44474348 137.365011,1.85822637 137.012083,2.35428351 L136.822468,0.758459743 L133.749482,0.758459743 L133.749482,12.9690499 L137.202309,12.9690499 L137.202309,6.67322242 Z" id="Fill-14" fill="#FFFFFF" fill-rule="nonzero"></path>
                <path d="M103.914551,26.7266534 C104.503581,26.7266534 105.021046,26.878957 105.452267,27.1780592 C105.883488,27.4777732 106.164852,27.8808578 106.312262,28.4099447 L106.353244,28.55919 L109.970607,28.55919 L109.919839,28.3139139 C109.62563,26.8911902 108.935677,25.7577822 107.869552,24.9448846 C106.806485,24.1362687 105.483462,23.7258441 103.937794,23.7258441 C102.701627,23.7258441 101.595132,23.9992566 100.648281,24.5375183 C99.6995944,25.0776151 98.9417463,25.8397448 98.3949213,26.8037227 C97.8480963,27.7652539 97.5710139,28.880312 97.5710139,30.1170908 C97.5710139,31.3532578 97.8480963,32.468316 98.3949213,33.4304588 C98.9417463,34.393825 99.7002061,35.1559548 100.648281,35.6960515 C101.595132,36.2343132 102.701627,36.5077257 103.937794,36.5077257 C105.484073,36.5077257 106.807096,36.0850679 107.871386,35.2507622 C108.936288,34.4152332 109.62563,33.2952817 109.919228,31.9202676 L109.972442,31.6743799 L106.352632,31.6743799 L106.311651,31.8248485 C106.16424,32.3686152 105.8841,32.7747582 105.454102,33.0659088 C105.022881,33.3582828 104.504804,33.5063048 103.914551,33.5063048 C103.124285,33.5063048 102.472866,33.2169891 101.922371,32.6200079 C101.373099,32.0273083 101.095405,31.1856627 101.095405,30.1170908 C101.095405,29.0479072 101.373099,28.2056499 101.922371,27.6135619 C102.473477,27.0165807 103.124896,26.7266534 103.914551,26.7266534" id="Fill-16" fill="#FFFFFF" fill-rule="nonzero"></path>
                <path d="M117.780296,33.4593904 C117.037128,33.4593904 116.41201,33.1878129 115.86702,32.6287547 C115.32937,32.075813 115.056569,31.2304974 115.056569,30.1172743 C115.056569,29.0028278 115.32937,28.1581238 115.86702,27.6051822 C116.41201,27.0455123 117.045079,26.7739348 117.804151,26.7739348 C118.531416,26.7739348 119.152864,27.046124 119.705805,27.6057938 C120.251407,28.1593471 120.527878,29.0040511 120.527878,30.1172743 C120.527878,31.2298858 120.251407,32.0739781 119.705805,32.6275313 C119.152864,33.1878129 118.523464,33.4593904 117.780296,33.4593904 M120.96338,24.5383135 C120.024481,23.9988284 118.961414,23.7254159 117.804151,23.7254159 C116.630373,23.7254159 115.559355,23.9988284 114.621067,24.5383135 C113.681555,25.0765753 112.923707,25.835035 112.368319,26.789838 C111.813542,27.7446409 111.532178,28.8645924 111.532178,30.1172743 C111.532178,31.3693445 111.809261,32.4880726 112.356697,33.4428756 C112.902911,34.3982902 113.6577,35.1561383 114.597212,35.6950117 C115.5355,36.2344967 116.606518,36.5072976 117.780296,36.5072976 C118.93817,36.5072976 120.004296,36.2344967 120.951147,35.6956233 C121.897998,35.1561383 122.65707,34.3982902 123.204507,33.4428756 C123.751943,32.4880726 124.028414,31.3687328 124.028414,30.1172743 C124.028414,28.865204 123.751943,27.7458642 123.204507,26.7910613 C122.65707,25.835035 121.90228,25.0765753 120.96338,24.5383135" id="Fill-18" fill="#FFFFFF" fill-rule="nonzero"></path>
                <path d="M145.566041,36.2220189 L145.566041,29.3555115 C145.566041,27.5352082 145.131761,26.1289993 144.276659,25.1741964 C143.414829,24.2132768 142.17071,23.7257829 140.579168,23.7257829 C139.692259,23.7257829 138.86407,23.9257961 138.116009,24.3203175 C137.467036,24.662236 136.925716,25.1160886 136.502447,25.6720885 C135.688937,24.3802603 134.379983,23.7257829 132.606777,23.7257829 C131.751063,23.7257829 130.985875,23.9062229 130.33201,24.2622097 C129.827389,24.5368455 129.395557,24.8867157 129.040793,25.3063152 L128.828547,24.0114287 L125.763513,24.0114287 L125.763513,36.2220189 L129.21634,36.2220189 L129.21634,29.9261913 C129.21634,28.901659 129.453053,28.0961014 129.91975,27.5333732 C130.382778,26.9743149 130.973642,26.7027374 131.725985,26.7027374 C132.489338,26.7027374 133.03494,26.9400619 133.394597,27.4287791 C133.762817,27.9303412 133.949985,28.6747328 133.949985,29.6411573 L133.949985,36.2220189 L137.402812,36.2220189 L137.402812,29.9261913 C137.402812,28.901659 137.639525,28.0961014 138.106222,27.5333732 C138.569249,26.9743149 139.168066,26.7027374 139.936924,26.7027374 C140.68315,26.7027374 141.21713,26.9394503 141.568224,27.4269441 C141.929715,27.9291179 142.112602,28.6735094 142.112602,29.6411573 L142.112602,36.2220189 L145.566041,36.2220189 Z" id="Fill-20" fill="#FFFFFF" fill-rule="nonzero"></path>
                <path d="M159.216726,36.2220189 L159.216726,29.9261913 C159.216726,28.901659 159.45405,28.0961014 159.920136,27.5333732 C160.383163,26.9743149 160.982591,26.7027374 161.750838,26.7027374 C162.497064,26.7027374 163.030432,26.9394503 163.382138,27.4269441 C163.743629,27.9291179 163.927128,28.6735094 163.927128,29.6411573 L163.927128,36.2220189 L167.379954,36.2220189 L167.379954,29.3555115 C167.379954,27.5352082 166.946287,26.1289993 166.090573,25.1741964 C165.228742,24.2132768 163.984624,23.7257829 162.393082,23.7257829 C161.506173,23.7257829 160.678596,23.9257961 159.930534,24.3203175 C159.28095,24.662236 158.73963,25.1160886 158.315749,25.6720885 C157.50224,24.3802603 156.193897,23.7257829 154.420079,23.7257829 C153.564977,23.7257829 152.799789,23.9062229 152.145924,24.2622097 C151.641303,24.5368455 151.208859,24.8867157 150.854707,25.3063152 L150.642461,24.0114287 L147.577427,24.0114287 L147.577427,36.2220189 L151.030254,36.2220189 L151.030254,29.9261913 C151.030254,28.901659 151.266967,28.0961014 151.733664,27.5333732 C152.19608,26.9743149 152.787556,26.7027374 153.540511,26.7027374 C154.303252,26.7027374 154.848854,26.9400619 155.208511,27.4287791 C155.577342,27.9303412 155.763899,28.6747328 155.763899,29.6411573 L155.763899,36.2220189 L159.216726,36.2220189 Z" id="Fill-22" fill="#FFFFFF" fill-rule="nonzero"></path>
                <path d="M188.310079,24.4337806 C187.709428,24.8020006 187.201749,25.2748146 186.79683,25.8442711 L186.56134,24.0111228 L183.465723,24.0111228 L183.465723,36.221713 L186.91855,36.221713 L186.91855,30.6403056 C186.91855,29.7766402 187.056786,29.0976964 187.33081,28.6242707 C187.599329,28.1600199 187.977336,27.8291113 188.455043,27.640108 C188.953547,27.4449881 189.528508,27.3452874 190.165247,27.3452874 L191.226479,27.3452874 L191.226479,23.7254771 L191.022796,23.7254771 C189.990312,23.7254771 189.077714,23.9640249 188.310079,24.4337806" id="Fill-24" fill="#FFFFFF" fill-rule="nonzero"></path>
                <path d="M201.067127,31.8250932 C200.919717,32.3688599 200.639576,32.7750028 200.209579,33.0661535 C199.778358,33.3585275 199.260281,33.5065495 198.670028,33.5065495 C197.879762,33.5065495 197.228342,33.2166221 196.677236,32.6202526 C196.128576,32.027553 195.850882,31.1852957 195.850882,30.1173354 C195.850882,29.0481518 196.128576,28.2058945 196.677236,27.6131949 C197.228954,27.0162137 197.880373,26.726898 198.670028,26.726898 C199.259057,26.726898 199.776523,26.87859 200.207744,27.1776922 C200.639576,27.4780178 200.920329,27.8811025 201.067739,28.4101893 L201.10872,28.558823 L204.726084,28.558823 L204.675316,28.3141585 C204.381107,26.8908232 203.691153,25.7574152 202.625028,24.9451293 C201.561961,24.1365133 200.238938,23.7254771 198.693271,23.7254771 C197.457104,23.7254771 196.349997,23.9988896 195.403757,24.537763 C194.455071,25.0772481 193.697223,25.8393778 193.150398,26.8039673 C192.603573,27.7654986 192.326491,28.8805567 192.326491,30.1173354 C192.326491,31.3535025 192.603573,32.467949 193.150398,33.4307035 C193.697223,34.393458 194.455071,35.1555878 195.403757,35.6956845 C196.349997,36.2345579 197.457104,36.5073588 198.693271,36.5073588 C200.23955,36.5073588 201.563185,36.0853126 202.626863,35.2510069 C203.691765,34.4148662 204.381107,33.2949147 204.674705,31.9205123 L204.727919,31.6746245 L201.107497,31.6746245 L201.067127,31.8250932 Z" id="Fill-26" fill="#FFFFFF" fill-rule="nonzero"></path>
                <g id="Fill-28-Clipped" transform="translate(206.171806, 23.725538)">
                    <mask id="mask-4" fill="white">
                        <use xlink:href="#path-3"></use>
                    </mask>
                    <g id="path-3"></g>
                    <path d="M4.48836903,3.47301163 C5.02112583,3.08093688 5.6456318,2.88214702 6.34353709,2.88214702 C7.06590883,2.88214702 7.67756992,3.09684006 8.16078217,3.52133286 C8.59689653,3.90545602 8.85012421,4.39723153 8.92902849,5.02173749 L3.52500282,5.02173749 C3.69320962,4.34095871 4.01677833,3.82043513 4.48836903,3.47301163 L4.48836903,3.47301163 Z M8.46171943,8.72412203 C8.27760944,9.02444762 8.0488482,9.29174352 7.74179433,9.49420333 C7.35767117,9.74743102 6.87140061,9.87649151 6.29582753,9.87649151 C5.52574623,9.87649151 4.86270561,9.6299921 4.32505552,9.14372153 C3.83572665,8.70087891 3.54090601,8.09227613 3.44915685,7.33198141 L12.3855253,7.33198141 L12.4008168,7.14481311 C12.4161083,6.93684835 12.4277299,6.73561185 12.4369048,6.54232695 C12.4442447,6.34904204 12.449138,6.1643204 12.449138,5.98693868 C12.449138,4.87738548 12.1873471,3.85529981 11.6729401,2.9469831 L11.6729401,2.9469831 C11.1566982,2.03866639 10.4306565,1.31262468 9.51438815,0.789042797 C8.59873151,0.26546091 7.53199458,0 6.34353709,0 C5.07495201,0 3.95561223,0.277694132 3.0161008,0.825130801 C2.07536606,1.37379079 1.32852787,2.14815372 0.797606053,3.1292581 C0.268519216,4.10608085 0,5.23581887 0,6.48605413 C0,7.72222118 0.272800843,8.82932774 0.811674258,9.77556743 C1.35177099,10.7248654 2.10594911,11.4723153 3.05524711,11.9952855 C4.00148681,12.5176441 5.10003011,12.7818817 6.31968231,12.7818817 C7.2958934,12.7818817 8.18524862,12.5996067 8.96266985,12.2399499 C9.74131441,11.8796816 10.4049667,11.3768961 10.9371118,10.7468852 C11.4478488,10.1419524 11.8154571,9.45995031 12.0472767,8.72412203 L8.46171943,8.72412203 Z" id="Fill-28" fill="#FFFFFF" fill-rule="nonzero" mask="url(#mask-4)"></path>
                </g>
                <path d="M173.62061,27.1985499 C174.153367,26.8064751 174.777873,26.6076853 175.475778,26.6076853 C176.19815,26.6076853 176.809811,26.8223783 177.293023,27.2468711 C177.729138,27.6309943 177.981754,28.1227698 178.060658,28.7472758 L172.657244,28.7472758 C172.825451,28.066497 173.149019,27.5459734 173.62061,27.1985499 L173.62061,27.1985499 Z M177.593961,32.4496603 C177.409851,32.7499859 177.181089,33.0172818 176.874035,33.2197416 C176.489912,33.4729693 176.003642,33.6020298 175.428069,33.6020298 C174.657987,33.6020298 173.994947,33.3555304 173.457297,32.8692598 C172.967968,32.4264172 172.673147,31.8178144 172.581398,31.0575197 L181.517766,31.0575197 L181.533058,30.8703514 C181.548349,30.6623866 181.559971,30.4611501 181.569146,30.2678652 C181.576486,30.0745803 181.581379,29.8898587 181.581379,29.7124769 C181.581379,28.6029237 181.319588,27.5808381 180.80457,26.6725214 L180.80457,26.6725214 C180.288939,25.7642047 179.562898,25.0381629 178.646629,24.5145811 C177.730973,23.9909992 176.664236,23.7255383 175.475778,23.7255383 C174.207193,23.7255383 173.087853,24.0032324 172.148342,24.5506691 C171.207607,25.0993291 170.460769,25.873692 169.929847,26.8547964 C169.40076,27.8316191 169.132241,28.9613571 169.132241,30.2115924 C169.132241,31.4477594 169.405042,32.554866 169.943915,33.5011057 C170.4834,34.4504037 171.23819,35.1978535 172.187488,35.7208238 C173.133728,36.2431823 174.232271,36.5074199 175.451923,36.5074199 C176.428135,36.5074199 177.31749,36.3251449 178.094911,35.9654882 C178.873556,35.6052198 179.537208,35.1024344 180.069353,34.4724235 C180.58009,33.8674907 180.947698,33.1854886 181.179518,32.4496603 L177.593961,32.4496603 Z" id="Fill-31" fill="#FFFFFF" fill-rule="nonzero"></path>
                <path d="M118.957621,46.9822383 C117.989362,46.9822383 117.13426,47.199378 116.414335,47.6293757 C115.871179,47.9541678 115.420997,48.3676507 115.06868,48.8637078 L114.878454,47.267884 L111.805468,47.267884 L111.805468,59.4784742 L115.258295,59.4784742 L115.258295,53.1826467 C115.258295,52.1617844 115.516416,51.3580617 116.02593,50.7965568 C116.538502,50.2326053 117.178299,49.9591928 117.982022,49.9591928 C118.794919,49.9591928 119.372939,50.1977406 119.748499,50.6882928 C120.131399,51.1898549 120.325295,51.9330231 120.325295,52.897001 L120.325295,59.4784742 L123.778122,59.4784742 L123.778122,52.6113553 C123.778122,50.7922752 123.353018,49.3860664 122.513207,48.4312634 C121.667892,47.4697322 120.471482,46.9822383 118.957621,46.9822383" id="Fill-33" fill="#FFFFFF" fill-rule="nonzero"></path>
                <g id="Fill-35-Clipped" transform="translate(0.000000, 0.000000)">
                    <mask id="mask-6" fill="white">
                        <use xlink:href="#path-5"></use>
                    </mask>
                    <g id="path-5"></g>
                    <polygon id="Fill-35" fill="#FFFFFF" fill-rule="nonzero" mask="url(#mask-6)" points="131.869848 59.4785354 135.323286 59.4785354 135.323286 41.9367072 131.869848 41.9367072"></polygon>
                </g>
                <g id="Fill-37-Clipped" transform="translate(0.000000, 0.000000)">
                    <mask id="mask-8" fill="white">
                        <use xlink:href="#path-7"></use>
                    </mask>
                    <g id="path-5"></g>
                    <polygon id="Fill-37" fill="#FFFFFF" fill-rule="nonzero" mask="url(#mask-8)" points="137.586432 59.4785354 141.039871 59.4785354 141.039871 47.2679452 137.586432 47.2679452"></polygon>
                </g>
                <g id="Fill-38-Clipped" transform="translate(0.000000, 0.000000)">
                    <mask id="mask-10" fill="white">
                        <use xlink:href="#path-9"></use>
                    </mask>
                    <g id="path-5"></g>
                    <path d="M139.312662,41.936646 C138.762779,41.936646 138.301587,42.1024062 137.943153,42.4290332 C137.579826,42.7599418 137.395716,43.1881046 137.395716,43.7018999 C137.395716,44.2150836 137.579215,44.6469163 137.94193,44.9845532 C138.300363,45.3191318 138.761556,45.4891736 139.312662,45.4891736 C139.864381,45.4891736 140.325573,45.3191318 140.684006,44.9845532 C141.04611,44.6469163 141.23022,44.2150836 141.23022,43.7018999 C141.23022,43.1881046 141.04611,42.7599418 140.682171,42.4290332 C140.323738,42.1024062 139.862546,41.936646 139.312662,41.936646" id="Fill-38" fill="#FFFFFF" fill-rule="nonzero" mask="url(#mask-10)"></path>
                </g>
                <g id="Fill-39-Clipped" transform="translate(0.000000, 0.000000)">
                    <mask id="mask-12" fill="white">
                        <use xlink:href="#path-11"></use>
                    </mask>
                    <g id="path-5"></g>
                    <path d="M149.893115,52.7643317 C149.527341,53.0640456 149.055139,53.2169609 148.486906,53.2169609 C147.88809,53.2169609 147.403654,53.0646573 147.047056,52.7649434 C146.695962,52.4707344 146.524697,52.0541932 146.524697,51.4933 C146.524697,50.9324067 146.695962,50.5158655 147.047056,50.2210449 C147.404266,49.9207193 147.888701,49.7690274 148.486906,49.7690274 C149.054527,49.7690274 149.527341,49.921331 149.893115,50.2222682 C150.251548,50.5170889 150.425871,50.9330184 150.425871,51.4933 C150.425871,52.0529698 150.251548,52.4688994 149.893115,52.7643317 M150.209343,61.8530037 C149.768336,62.1392611 149.181141,62.2842248 148.463051,62.2842248 C147.70765,62.2842248 147.062959,62.1447661 146.548552,61.8689069 C146.068398,61.6107859 145.834743,61.2376727 145.834743,60.7269357 C145.834743,60.4461832 145.920988,60.179499 146.098369,59.9109798 C146.269023,59.6510238 146.556503,59.4045244 146.95286,59.1782098 C147.489898,59.2675123 148.080151,59.33663 148.710774,59.3825046 C149.792802,59.4571273 150.243596,59.6797719 150.431376,59.852872 C150.699896,60.1005947 150.830179,60.4021436 150.830179,60.7746452 C150.830179,61.2284978 150.627108,61.5814262 150.209343,61.8530037 M148.486906,46.9822995 C147.442189,46.9822995 146.537542,47.1823126 145.797432,47.576834 C145.053652,47.9738021 144.471351,48.5194038 144.064596,49.1989592 C143.658453,49.8791264 143.452323,50.6424794 143.452323,51.4694452 C143.452323,52.7202921 143.887826,53.7711258 144.746598,54.5968683 L142.76237,56.6954775 L142.76237,57.407451 L142.821089,57.4667821 C143.003976,57.6496688 143.218057,57.8264388 143.457217,57.9909756 C143.619919,58.1035213 143.806475,58.2130086 144.013828,58.318826 C143.103677,59.0919656 142.643096,60.0045639 142.643096,61.0358245 C142.643096,62.3594591 143.196649,63.3668649 144.288464,64.0305172 C145.346638,64.6739846 146.751623,65 148.463051,65 C149.725519,65 150.780023,64.7969285 151.599037,64.3962905 C152.424168,63.9907592 153.044392,63.4531091 153.444419,62.7955735 C153.843222,62.1386495 154.04507,61.4352392 154.04507,60.7030809 C154.04507,59.5825178 153.660947,58.6901043 152.902487,58.0490834 C152.159319,57.4209075 150.968415,57.0294444 149.362193,56.8826458 C148.340107,56.78845 147.595104,56.6936425 147.148591,56.60067 C146.842149,56.5370573 146.579135,56.4630463 146.363218,56.378637 L146.954695,55.7871608 C147.42812,55.8997064 147.943139,55.9565909 148.486906,55.9565909 C149.499205,55.9565909 150.391618,55.7565777 151.140292,55.3614446 C151.892635,54.9650883 152.476159,54.4188749 152.874962,53.7374845 C153.272542,53.0591523 153.473779,52.2957993 153.473779,51.4694452 C153.473779,50.8192494 153.350835,50.2094233 153.107394,49.6515884 L155.021281,49.5164113 L155.021281,47.2679452 L150.375715,47.2679452 C149.795249,47.0777186 149.159733,46.9822995 148.486906,46.9822995" id="Fill-39" fill="#FFFFFF" fill-rule="nonzero" mask="url(#mask-12)"></path>
                </g>
                <g id="Fill-40-Clipped" transform="translate(0.000000, 0.000000)">
                    <mask id="mask-14" fill="white">
                        <use xlink:href="#path-13"></use>
                    </mask>
                    <g id="path-5"></g>
                    <path d="M164.027562,46.9822383 C163.059303,46.9822383 162.204201,47.199378 161.484276,47.6293757 C160.941121,47.9541678 160.490326,48.3676507 160.138621,48.8637078 L159.947783,47.267884 L156.875409,47.267884 L156.875409,59.4784742 L160.327624,59.4784742 L160.327624,53.1826467 C160.327624,52.1617844 160.586357,51.3580617 161.095871,50.7965568 C161.607831,50.2326053 162.247629,49.9591928 163.051351,49.9591928 C163.864249,49.9591928 164.442269,50.1977406 164.81844,50.6882928 C165.20134,51.1898549 165.394625,51.9330231 165.394625,52.897001 L165.394625,59.4784742 L168.847452,59.4784742 L168.847452,52.6113553 C168.847452,50.7922752 168.422347,49.3860664 167.583148,48.4312634 C166.737833,47.4697322 165.541424,46.9822383 164.027562,46.9822383" id="Fill-40" fill="#FFFFFF" fill-rule="nonzero" mask="url(#mask-14)"></path>
                </g>
                <g id="Fill-41-Clipped" transform="translate(0.000000, 0.000000)">
                    <mask id="mask-16" fill="white">
                        <use xlink:href="#path-15"></use>
                    </mask>
                    <g id="path-5"></g>
                    <path d="M174.977152,50.4550664 C175.509297,50.06238 176.133803,49.8635902 176.831709,49.8635902 C177.55408,49.8635902 178.165741,50.0788949 178.648954,50.502776 C179.08568,50.8868992 179.338296,51.3792863 179.4172,52.0031806 L174.013174,52.0031806 C174.181381,51.3230135 174.505561,50.8018783 174.977152,50.4550664 L174.977152,50.4550664 Z M178.949891,55.7061768 C178.765781,56.0058908 178.53702,56.2731867 178.230577,56.4762581 C177.845843,56.7294858 177.359572,56.8585463 176.783999,56.8585463 C176.014529,56.8585463 175.350877,56.6114352 174.813227,56.1257763 C174.323898,55.6823221 174.029077,55.0743309 173.937328,54.3140362 L182.873697,54.3140362 L182.888988,54.1262563 C182.904891,53.9182915 182.915901,53.7176667 182.925076,53.5237701 C182.933028,53.3304852 182.937309,53.1457635 182.937309,52.9683818 C182.937309,51.8594403 182.675519,50.836743 182.161112,49.9290379 L182.161112,49.9284262 C181.64487,49.0201095 180.918828,48.2946795 180.00256,47.7704859 C179.086903,47.2475157 178.020166,46.9820548 176.831709,46.9820548 C175.563123,46.9820548 174.443784,47.2591373 173.504884,47.8065739 C172.563537,48.3552339 171.817311,49.1302085 171.285777,50.1107012 C170.756691,51.087524 170.488171,52.2178737 170.488171,53.4681089 C170.488171,54.704276 170.760972,55.8113825 171.299846,56.7576222 C171.839942,57.7063086 172.594121,58.4537584 173.543419,58.9773403 C174.489658,59.4990872 175.588202,59.7639365 176.807854,59.7639365 C177.784065,59.7639365 178.67342,59.5816615 179.450841,59.2213931 C180.229486,58.8611247 180.893138,58.358951 181.425283,57.72894 C181.93602,57.1233956 182.30424,56.4413935 182.535448,55.7061768 L178.949891,55.7061768 Z" id="Fill-41" fill="#FFFFFF" fill-rule="nonzero" mask="url(#mask-16)"></path>
                </g>
                <g id="Fill-42-Clipped" transform="translate(0.000000, 0.000000)">
                    <mask id="mask-18" fill="white">
                        <use xlink:href="#path-17"></use>
                    </mask>
                    <g id="path-5"></g>
                    <path d="M102.059872,50.4550664 C102.592017,50.06238 103.216523,49.8635902 103.914429,49.8635902 C104.6368,49.8635902 105.248461,50.0788949 105.731674,50.502776 C106.1684,50.8868992 106.421016,51.3792863 106.49992,52.0031806 L101.095894,52.0031806 C101.264101,51.3230135 101.588282,50.8018783 102.059872,50.4550664 L102.059872,50.4550664 Z M106.033223,55.7061768 C105.849113,56.0058908 105.620351,56.2731867 105.313298,56.4762581 C104.928563,56.7294858 104.442292,56.8585463 103.867331,56.8585463 C103.097249,56.8585463 102.434209,56.6114352 101.896559,56.1257763 C101.406618,55.6823221 101.112409,55.0743309 101.020048,54.3140362 L109.957028,54.3140362 L109.971708,54.1262563 C109.987612,53.9182915 109.998621,53.7176667 110.007796,53.5237701 C110.015748,53.3304852 110.02003,53.1457635 110.02003,52.9683818 C110.02003,51.8594403 109.75885,50.836743 109.243832,49.9290379 L109.243832,49.9284262 C108.728201,49.0201095 108.001548,48.2946795 107.08528,47.7704859 C106.169623,47.2475157 105.103498,46.9820548 103.914429,46.9820548 C102.645844,46.9820548 101.527115,47.2591373 100.587604,47.8065739 C99.6462576,48.3552339 98.9000311,49.1302085 98.3684976,50.1107012 C97.8394107,51.087524 97.5708915,52.2178737 97.5708915,53.4681089 C97.5708915,54.704276 97.844304,55.8113825 98.3831774,56.7576222 C98.9226625,57.7063086 99.6774523,58.4537584 100.62675,58.9773403 C101.572378,59.4990872 102.670922,59.7639365 103.890574,59.7639365 C104.866785,59.7639365 105.75614,59.5816615 106.534173,59.2213931 C107.312206,58.8611247 107.975858,58.358951 108.508003,57.72894 C109.01874,57.1233956 109.38696,56.4413935 109.61878,55.7061768 L106.033223,55.7061768 Z" id="Fill-42" fill="#FFFFFF" fill-rule="nonzero" mask="url(#mask-18)"></path>
                </g>
            </g>
        </g>
    </g>
</svg>