<?xml version="1.0" encoding="UTF-8"?>
<svg width="154px" height="51px" viewBox="0 0 154 51" version="1.1" xmlns="http://www.w3.org/2000/svg" xmlns:xlink="http://www.w3.org/1999/xlink">
    <title>logo</title>
    <defs>
        <polygon id="path-1" points="0 0 92.5724334 0 92.5724334 6.42793143 0 6.42793143"></polygon>
    </defs>
    <g id="Page-1" stroke="none" stroke-width="1" fill="none" fill-rule="evenodd">
        <g id="logo" transform="translate(0.000000, 0.500000)">
            <g id="Group-8" transform="translate(61.123220, 10.137596)">
                <g id="Fill-1-Clipped" transform="translate(0.000000, 12.212626)">
                    <mask id="mask-2" fill="white">
                        <use xlink:href="#path-1"></use>
                    </mask>
                    <g id="path-1"></g>
                    <path d="M0,6.31998594 L4.12349123,6.31998594 L4.12349123,4.91373732 L1.51074748,4.91373732 L1.51074748,3.84611216 L3.8349173,3.84611216 L3.8349173,2.51934395 L1.51074748,2.51934395 L1.51074748,1.49571029 L4.0893668,1.49571029 L4.0893668,0.0894616637 L0,0.0894616637 L0,6.31998594 Z M7.04298384,6.31998594 L8.54445837,6.31998594 L8.54445837,3.05315653 L10.5982293,6.31998594 L11.954675,6.31998594 L11.954675,0.0894616637 L10.4539423,0.0894616637 L10.4539423,3.22246826 L8.47732227,0.0894616637 L7.04298384,0.0894616637 L7.04298384,6.31998594 Z M16.0618459,6.31998594 L17.5896555,6.31998594 L17.5896555,1.53119921 L19.0577475,1.53119921 L19.0577475,0.0894616637 L14.5937539,0.0894616637 L14.5937539,1.53119921 L16.0618459,1.53119921 L16.0618459,6.31998594 Z M21.7046156,6.31998594 L23.2238943,6.31998594 L23.2238943,4.38916666 L23.7665467,4.38916666 L24.7765555,6.31998594 L26.498726,6.31998594 L25.2772942,4.05978507 C25.904516,3.73003381 26.3373767,3.15149042 26.3373767,2.22508162 L26.3373767,2.18109014 C26.3373767,1.54968303 26.1511762,1.0683645 25.8203176,0.721608129 C25.4386434,0.312006794 24.8359022,0.0894616637 24.0384295,0.0894616637 L21.7046156,0.0894616637 L21.7046156,6.31998594 Z M23.2238943,3.11526213 L23.2238943,1.48720774 L23.9705516,1.48720774 C24.4798214,1.48720774 24.8017778,1.75448369 24.8017778,2.28755692 L24.8017778,2.30604074 C24.8017778,2.80510374 24.4957708,3.11526213 23.9790825,3.11526213 L23.2238943,3.11526213 Z M29.2312762,6.31998594 L33.3547674,6.31998594 L33.3547674,4.91373732 L30.7412817,4.91373732 L30.7412817,3.84611216 L33.0658225,3.84611216 L33.0658225,2.51934395 L30.7412817,2.51934395 L30.7412817,1.49571029 L33.3202719,1.49571029 L33.3202719,0.0894616637 L29.2312762,0.0894616637 L29.2312762,6.31998594 Z M36.2735181,6.31998594 L37.7927967,6.31998594 L37.7927967,4.51337789 L38.3781047,4.51337789 C39.6763164,4.49563341 40.7115475,3.7832672 40.7115475,2.28755692 L40.7115475,2.25206799 C40.7115475,0.854691593 39.7953811,0.0894616637 38.394796,0.0894616637 L36.2735181,0.0894616637 L36.2735181,6.31998594 Z M37.7927967,3.20472381 L37.7927967,1.46022137 L38.3183869,1.46022137 C38.8703124,1.46022137 39.1841086,1.75448369 39.1841086,2.32378519 L39.1841086,2.35040189 C39.1841086,2.87497255 38.8617812,3.20472381 38.3269181,3.20472381 L37.7927967,3.20472381 Z M43.4938006,6.31998594 L45.0130793,6.31998594 L45.0130793,4.38916666 L45.5561024,4.38916666 L46.5661112,6.31998594 L48.2886526,6.31998594 L47.0668502,4.05978507 C47.6944427,3.73003381 48.1273036,3.15149042 48.1273036,2.22508162 L48.1273036,2.18109014 C48.1273036,1.54968303 47.9403612,1.0683645 47.6095025,0.721608129 C47.2285701,0.312006794 46.625829,0.0894616637 45.8276142,0.0894616637 L43.4938006,0.0894616637 L43.4938006,6.31998594 Z M45.0130793,3.11526213 L45.0130793,1.48720774 L45.7601073,1.48720774 C46.2693772,1.48720774 46.5917046,1.75448369 46.5917046,2.28755692 L46.5917046,2.30604074 C46.5917046,2.80510374 46.2864394,3.11526213 45.7678966,3.11526213 L45.0130793,3.11526213 Z M51.0204609,6.31998594 L55.1439523,6.31998594 L55.1439523,4.91373732 L52.5304667,4.91373732 L52.5304667,3.84611216 L54.8564912,3.84611216 L54.8564912,2.51934395 L52.5304667,2.51934395 L52.5304667,1.49571029 L55.1105697,1.49571029 L55.1105697,0.0894616637 L51.0204609,0.0894616637 L51.0204609,6.31998594 Z M58.062703,6.31998594 L59.5656612,6.31998594 L59.5656612,3.05315653 L61.6190613,6.31998594 L62.9766198,6.31998594 L62.9766198,0.0894616637 L61.4751453,0.0894616637 L61.4751453,3.22246826 L59.4977833,0.0894616637 L58.062703,0.0894616637 L58.062703,6.31998594 Z M66.055607,6.31998594 L70.1798399,6.31998594 L70.1798399,4.91373732 L67.5670962,4.91373732 L67.5670962,3.84611216 L69.891637,3.84611216 L69.891637,2.51934395 L67.5670962,2.51934395 L67.5670962,1.49571029 L70.1457155,1.49571029 L70.1457155,0.0894616637 L66.055607,0.0894616637 L66.055607,6.31998594 Z M75.4416773,6.42793143 C76.8912234,6.42793143 77.8682202,5.63534545 77.8682202,3.82762836 L77.8682202,0.0894616637 L76.3233486,0.0894616637 L76.3233486,3.89860622 C76.3233486,4.63721946 75.9832172,4.97621261 75.4483539,4.97621261 C74.9231345,4.97621261 74.5752139,4.61947498 74.5752139,3.87161985 L74.5752139,0.0894616637 L73.039615,0.0894616637 L73.039615,3.85461474 C73.039615,5.62610354 73.9895349,6.42793143 75.4416773,6.42793143 L75.4416773,6.42793143 Z M80.8975046,6.31998594 L82.4156706,6.31998594 L82.4156706,4.38916666 L82.9583234,4.38916666 L83.9683319,6.31998594 L85.6908729,6.31998594 L84.4690705,4.05978507 C85.0966635,3.73003381 85.5291533,3.15149042 85.5291533,2.22508162 L85.5291533,2.18109014 C85.5291533,1.54968303 85.342952,1.0683645 85.0117233,0.721608129 C84.6304196,0.312006794 84.0276788,0.0894616637 83.2294641,0.0894616637 L80.8975046,0.0894616637 L80.8975046,6.31998594 Z M82.4156706,3.11526213 L82.4156706,1.48720774 L83.1623278,1.48720774 C83.6708559,1.48720774 83.9946665,1.75448369 83.9946665,2.28755692 L83.9946665,2.30604074 C83.9946665,2.80510374 83.6886598,3.11526213 83.1701173,3.11526213 L82.4156706,3.11526213 Z M90.4085744,6.40944762 C91.6819342,6.40944762 92.5725079,5.66159246 92.5725079,4.45164195 L92.5725079,4.43315813 C92.5725079,3.37403555 91.8685061,2.892717 90.7394325,2.5108414 C89.9842447,2.21731841 89.7973022,2.07499305 89.7973022,1.79847518 L89.7973022,1.78923327 C89.7973022,1.55818559 89.9920341,1.38000161 90.3406962,1.38000161 C90.8243735,1.38000161 91.3165807,1.6202912 91.7238485,1.94930311 L92.4964697,0.757836405 C91.8770375,0.231787037 91.1719231,0 90.3751916,0 C89.0762383,0 88.2542848,0.792585978 88.2542848,1.92305609 L88.2542848,1.94930311 C88.2542848,3.08088224 89.0424849,3.5074887 90.1630271,3.90784811 C90.8577556,4.16588217 91.0361674,4.3167101 91.0361674,4.56735062 L91.0361674,4.57474415 C91.0361674,4.84275946 90.8243735,5.03018536 90.4171058,5.03018536 C89.8406996,5.03018536 89.2887742,4.74516492 88.8043557,4.32595202 L87.989821,5.49302008 C88.6860334,6.12442718 89.5261615,6.40944762 90.4085744,6.40944762 L90.4085744,6.40944762 Z" id="Fill-1" fill="#FFFFFF" fill-rule="nonzero" mask="url(#mask-2)"></path>
                </g>
                <path d="M38.3194625,7.85111124 L40.2460088,7.85111124 C42.1718132,7.85111124 43.2660201,6.60493243 43.2660201,4.77133802 L43.2660201,4.66413189 C43.2660201,2.83127681 42.1799733,1.61984759 40.2704893,1.61984759 L38.3194625,1.61984759 L38.3194625,7.85111124 Z M40.2882934,3.05308259 C41.1362111,3.05308259 41.7055697,3.57913195 41.7055697,4.70109952 L41.7055697,4.78057991 C41.7055697,5.89256622 41.1362111,6.41861559 40.2882934,6.41861559 L39.8472722,6.41861559 L39.8472722,3.05308259 L40.2882934,3.05308259 Z M46.1855128,7.85111124 L50.309004,7.85111124 L50.309004,6.44412325 L47.6955183,6.44412325 L47.6955183,5.37575875 L50.0208009,5.37575875 L50.0208009,4.05046924 L47.6955183,4.05046924 L47.6955183,3.02609622 L50.2756213,3.02609622 L50.2756213,1.61984759 L46.1855128,1.61984759 L46.1855128,7.85111124 Z M55.2129059,7.94057292 C56.4855242,7.94057292 57.3768393,7.19271774 57.3768393,5.98202787 L57.3768393,5.96428342 C57.3768393,4.90516082 56.6728377,4.42384229 55.5445062,4.04196666 C54.7885761,3.74770435 54.6016335,3.60611832 54.6016335,3.32886111 L54.6016335,3.32035855 C54.6016335,3.08931087 54.797849,2.91038754 55.1465116,2.91038754 C55.6287045,2.91038754 56.1209121,3.15141649 56.5289217,3.48042838 L57.3000592,2.28748298 C56.6813686,1.76291232 55.977367,1.53112528 55.1795232,1.53112528 C53.8813116,1.53112528 53.0582452,2.32371126 53.0582452,3.45418136 L53.0582452,3.48042838 C53.0582452,4.61163784 53.8468162,5.03861396 54.9669874,5.4389734 C55.6628289,5.69626811 55.8419822,5.84783538 55.8419822,6.09810623 L55.8419822,6.10660878 C55.8419822,6.37388475 55.6287045,6.56131063 55.2214369,6.56131063 C54.6442891,6.56131063 54.0931055,6.2762902 53.6086872,5.85707728 L52.794152,7.02414536 C53.4903643,7.65629182 54.3304928,7.94057292 55.2129059,7.94057292 L55.2129059,7.94057292 Z" id="Fill-4" fill="#FFFFFF" fill-rule="nonzero"></path>
                <path d="M1.53697136,1.31789599 L2.817379,1.31789599 L4.04771276,0.400359429 L2.24913319,0 L1.53697136,1.31789599 Z M0.0176927706,7.85118512 L4.41232478,7.85118512 L4.41232478,6.21388884 L1.83259271,6.21388884 L1.83259271,5.46603371 L4.18346861,5.46603371 L4.18346861,3.97032342 L1.83259271,3.97032342 L1.83259271,3.25795719 L4.37041109,3.25795719 L4.37041109,1.6202912 L0.0176927706,1.6202912 L0.0176927706,7.85118512 Z M9.62297552,7.97613572 C10.7776421,7.97613572 11.4816438,7.40609491 11.9145046,6.73808982 L10.674898,5.58987525 C10.4801662,5.91038461 10.2079127,6.19540504 9.73350899,6.19540504 C9.18195452,6.19540504 8.73203145,5.73257031 8.73203145,4.74442557 L8.73203145,4.70893666 C8.73203145,3.79140009 9.14708823,3.27644101 9.7242361,3.27644101 C10.1826903,3.27644101 10.453831,3.55184985 10.6415154,3.86311729 L11.8796384,2.67017189 C11.4052347,1.95854501 10.7004912,1.49571029 9.69122441,1.49571029 C8.13782141,1.49571029 6.86594487,2.73264717 6.86594487,4.67418708 L6.86594487,4.82427565 C6.86594487,6.80056514 8.13782141,7.97613572 9.62297552,7.97613572 L9.62297552,7.97613572 Z M16.92894,7.98426863 C18.5580102,7.98426863 19.7542196,6.67672357 19.7542196,4.8065312 L19.7542196,4.64646135 C19.7542196,2.77737801 18.5747015,1.48720774 16.9367293,1.48720774 C15.3076591,1.48720774 14.1199809,2.7947528 14.1199809,4.66420582 L14.1199809,4.82427565 C14.1199809,6.69446804 15.2998698,7.98426863 16.92894,7.98426863 L16.92894,7.98426863 Z M16.9367293,6.26675256 C16.3432611,6.26675256 15.9690052,5.7248071 15.9690052,4.79913767 L15.9690052,4.66420582 C15.9690052,3.73927572 16.3432611,3.20398444 16.92894,3.20398444 C17.5231501,3.20398444 17.8962932,3.74777828 17.8962932,4.67418708 L17.8962932,4.8065312 C17.8962932,5.73257031 17.5309393,6.26675256 16.9367293,6.26675256 L16.9367293,6.26675256 Z M22.4099898,7.85118512 L26.5090004,7.85118512 L26.5090004,6.16065546 L24.2423228,6.16065546 L24.2423228,1.6202912 L22.4099898,1.6202912 L22.4099898,7.85118512 Z M29.0876197,7.85118512 L33.4829935,7.85118512 L33.4829935,6.21388884 L30.9028905,6.21388884 L30.9028905,5.46603371 L33.2537665,5.46603371 L33.2537665,3.97032342 L30.9028905,3.97032342 L30.9028905,3.25795719 L33.439967,3.25795719 L33.439967,1.6202912 L29.0876197,1.6202912 L29.0876197,7.85118512 Z" id="Fill-6" fill="#FFFFFF" fill-rule="nonzero"></path>
            </g>
            <polygon id="Fill-9" fill="#FFFFFF" fill-rule="nonzero" points="5.52037049e-15 0 5.52037049e-15 50.5 50.6695729 50.5 50.6695729 1.35893006 35.2954084 9.27480856 35.2954084 17.0128727 23.6552715 17.0128727 23.6552715 20.9887413 34.4185591 20.9887413 34.4185591 29.3504494 23.6552715 29.3504494 23.6552715 33.5218767 35.2954084 33.5218767 35.2954084 42.7179443 15.3734227 42.7179443 15.3734227 7.78279507 34.211587 7.78279507 49.322771 0"></polygon>
            <g id="Group-18" transform="translate(61.101186, 33.149428)" fill="#FFFFFF" fill-rule="nonzero">
                <path d="M1.553403,1.49707809 L1.553403,4.74875079 L2.00221333,4.74875079 C2.86533864,4.74875079 3.44397015,4.24155492 3.44397015,3.16579689 L3.44397015,3.08853455 C3.44397015,2.00464365 2.86533864,1.49707809 2.00221333,1.49707809 L1.553403,1.49707809 Z M0,0.112270691 L1.98515112,0.112270691 C3.92727581,0.112270691 5.03223941,1.28192649 5.03223941,3.05415465 L5.03223941,3.15729434 C5.03223941,4.9295225 3.91874469,6.13392787 1.95918689,6.13392787 L0,6.13392787 L0,0.112270691 Z" id="Fill-10"></path>
                <path d="M7.84015996,3.7510684 L7.84015996,0.112344626 L9.40246502,0.112344626 L9.40246502,3.7680735 C9.40246502,4.49079067 9.75669137,4.8349593 10.2915546,4.8349593 C10.8353198,4.8349593 11.1806441,4.50816546 11.1806441,3.79395085 L11.1806441,0.112344626 L12.7514803,0.112344626 L12.7514803,3.72519106 C12.7514803,5.47154187 11.7592756,6.2367718 10.2830235,6.2367718 C8.80677129,6.2367718 7.84015996,5.46303932 7.84015996,3.7510684" id="Fill-12"></path>
                <path d="M20.9270239,4.76623648 L20.2022509,4.08640177 L21.0390411,3.26054493 L21.5746461,3.77661303 C21.6087706,3.60471356 21.6347348,3.40693674 21.6347348,3.19178514 L21.6347348,3.08864546 C21.6347348,2.03913444 21.1343669,1.40255187 20.4088521,1.40255187 C19.692981,1.40255187 19.2007734,2.03913444 19.2007734,3.07977322 L19.2007734,3.18328259 C19.2007734,4.24979869 19.7015122,4.87787872 20.4351872,4.87787872 C20.616566,4.87787872 20.7801406,4.84349883 20.9270239,4.76623648 L20.9270239,4.76623648 Z M22.4978602,6.29743569 L21.971528,5.77249536 C21.5312488,6.07378154 20.9960146,6.24568101 20.4088521,6.24568101 C18.7864584,6.24568101 17.6125041,4.98989064 17.6125041,3.19178514 L17.6125041,3.06276811 C17.6125041,1.26503228 18.7949895,0 20.4177541,0 C22.0494206,0 23.214473,1.2476575 23.214473,3.05426556 L23.214473,3.18328259 C23.214473,3.84537282 23.0416254,4.43944264 22.7567605,4.92113085 L23.3350211,5.47157886 L22.4978602,6.29743569 Z" id="Fill-14"></path>
                <path d="M26.0398266,3.7510684 L26.0398266,0.112344626 L27.6025026,0.112344626 L27.6025026,3.7680735 C27.6025026,4.49079067 27.956358,4.8349593 28.4912213,4.8349593 C29.0349864,4.8349593 29.3803109,4.50816546 29.3803109,3.79395085 L29.3803109,0.112344626 L30.951147,0.112344626 L30.951147,3.72519106 C30.951147,5.47154187 29.9589423,6.2367718 28.4826901,6.2367718 C27.0064381,6.2367718 26.0398266,5.46303932 26.0398266,3.7510684" id="Fill-16"></path>
            </g>
            <path d="M97.372627,31.6269901 L98.8054821,32.0657957 L97.6489606,32.9090274 L96.5265639,32.9090274 L97.372627,31.6269901 Z M95.0336208,33.2616985 L99.1938325,33.2616985 L99.1938325,34.6206287 L96.5695907,34.6206287 L96.5695907,35.6098825 L98.9349322,35.6098825 L98.9349322,36.8919198 L96.5695907,36.8919198 L96.5695907,37.9240562 L99.2283279,37.9240562 L99.2283279,39.2833559 L95.0336208,39.2833559 L95.0336208,33.2616985 Z" id="Fill-19" fill="#FFFFFF" fill-rule="nonzero"></path>
            <path d="M104.514534,36.8142879 L103.608382,36.8142879 L103.608382,37.9931856 L104.523066,37.9931856 C105.006372,37.9931856 105.291236,37.7780339 105.291236,37.4079879 L105.291236,37.3991157 C105.291236,37.0464446 105.023804,36.8142879 104.514534,36.8142879 L104.514534,36.8142879 Z M105.101697,35.111189 C105.101697,34.7496457 104.842797,34.5518688 104.376182,34.5518688 L103.608382,34.5518688 L103.608382,35.6786421 L104.350589,35.6786421 C104.825363,35.6786421 105.101697,35.489368 105.101697,35.1193219 L105.101697,35.111189 Z M102.098007,33.2616985 L104.600958,33.2616985 C105.326102,33.2616985 105.887301,33.4335981 106.241156,33.7951414 C106.491155,34.0358007 106.638038,34.3629643 106.638038,34.7925281 L106.638038,34.8272778 C106.638038,35.515615 106.241156,35.9285434 105.740417,36.1521975 C106.387669,36.3928569 106.845381,36.7884104 106.845381,37.5798875 L106.845381,37.6142674 C106.845381,38.6467732 106.033442,39.2833559 104.60949,39.2833559 L102.098007,39.2833559 L102.098007,33.2616985 Z" id="Fill-20" fill="#FFFFFF" fill-rule="nonzero"></path>
            <polygon id="Fill-22" fill="#FFFFFF" fill-rule="nonzero" points="109.628005 33.2616985 113.788217 33.2616985 113.788217 34.6206287 111.163975 34.6206287 111.163975 35.6098825 113.529316 35.6098825 113.529316 36.8919198 111.163975 36.8919198 111.163975 37.9240562 113.822712 37.9240562 113.822712 39.2833559 109.628005 39.2833559"></polygon>
            <path d="M116.459158,36.3326365 L116.459158,36.2291273 C116.459158,34.3711341 117.676139,33.1582262 119.264408,33.1582262 C120.213956,33.1582262 120.861208,33.5282722 121.353045,34.1045975 L120.351938,35.1626112 C120.092667,34.8528224 119.764775,34.5947883 119.290372,34.5947883 C118.58229,34.5947883 118.055958,35.2228682 118.055958,36.2465019 L118.055958,36.2812516 C118.055958,37.3562701 118.591193,37.9496005 119.290372,37.9496005 C119.808544,37.9496005 120.119002,37.6745615 120.394965,37.3562701 L121.379009,38.3543963 C120.887172,38.9565989 120.213956,39.3861626 119.203948,39.3861626 C117.659076,39.3861626 116.459158,38.2080045 116.459158,36.3326365" id="Fill-23" fill="#FFFFFF" fill-rule="nonzero"></path>
        </g>
    </g>
</svg>