<svg xmlns="http://www.w3.org/2000/svg" width="200.116" height="37.305" viewBox="0 0 200.116 37.305">
  <path id="logo" d="M54.537,20.333l-1.542-.083v9.879H48.451V7.286a25.162,25.162,0,0,1,8.67-1.334c8.17,0,11.838,3,11.838,7.211-.042,4.252-4.21,7.878-14.422,7.169ZM56.913,7.87a14.5,14.5,0,0,0-3.918.459V18.29l1.5.125c7.294.5,9.962-1.792,9.962-5.252S62.206,7.87,56.913,7.87ZM82.38,13.5a11.653,11.653,0,0,0-6.211.333v16.3H71.751V12.5c2.668-.917,5.252-1.417,11.671-1.334L82.38,13.5Zm4.668,8.461c.5,4.21,3.376,6.294,8.253,6.294a17.926,17.926,0,0,0,6.711-1.084l1.167,2a22.336,22.336,0,0,1-8.211,1.292c-7.086,0-12.088-3.084-12.088-9.712,0-6.336,4.543-9.629,10.921-9.629,6.5,0,10.421,2.918,10.337,9.128Zm6.586-8.837c-3.918,0-6.836,2.167-6.752,7.211l13-1.334c0-4.21-2.376-5.877-6.252-5.877ZM117.31,30.128h-3.96l-9-18.632h4.71l5.71,13.338a10.652,10.652,0,0,1,.709,2.293h.083a7.733,7.733,0,0,1,.667-2.293L122.02,11.5h4.127L117.31,30.128Zm12.755-8.17c.5,4.21,3.376,6.294,8.253,6.294a17.926,17.926,0,0,0,6.711-1.084l1.167,2a22.336,22.336,0,0,1-8.211,1.292c-7.086,0-12.088-3.084-12.088-9.712,0-6.336,4.543-9.629,10.921-9.629,6.5,0,10.421,2.918,10.3,9.128Zm6.586-8.837c-3.918,0-6.836,2.167-6.753,7.211L142.9,19C142.9,14.789,140.527,13.122,136.65,13.122Zm24.259.375a11.466,11.466,0,0,0-6.169.333v16.3h-4.418V12.5c2.668-.917,5.252-1.417,11.671-1.334ZM172.039,30.5c-5.961,0-10.337-3.668-10.337-9.712,0-6.127,4.377-9.67,10.421-9.67,3.335,0,5.127.709,6,1.25l-1.042,1.751a8.178,8.178,0,0,0-4.043-.917c-4.918,0-6.836,3.084-6.836,7.461,0,4.46,2.293,7.544,6.711,7.544a8.761,8.761,0,0,0,4.127-.917l1.125,1.917C177.082,29.919,175.081,30.5,172.039,30.5Zm17.59,0c-7.378,0-10.629-4.168-10.629-9.67,0-5.585,3.251-9.67,10.587-9.67,7.461,0,10.629,4.127,10.629,9.67C200.174,26.293,196.964,30.5,189.628,30.5Zm0-17.423c-5.169,0-6.169,3.96-6.169,7.753s1.084,7.544,6.169,7.544c5.169,0,6.127-3.793,6.127-7.544s-.959-7.753-6.127-7.753ZM39.573,12.7V.242L11.854,13.705.1,10.412V22.834L27.694,9.412,39.573,12.7Zm0,24.3V27.252L19.482,37.005H39.573ZM.1-.3V9.37L19.982-.3ZM11.854,27.168.1,23.834V36.38L27.694,22.959l11.879,3.335V13.663l-27.719,13.5Z" transform="translate(-0.1 0.3)" fill="#fff"/>
</svg>
