<svg xmlns="http://www.w3.org/2000/svg" width="200.116" height="37.305"><path d="M54.437 20.633l-1.542-.083v9.879h-4.544V7.586a25.162 25.162 0 0 1 8.67-1.334c8.17 0 11.838 3 11.838 7.211-.042 4.252-4.21 7.878-14.422 7.169zM56.813 8.17a14.5 14.5 0 0 0-3.918.459v9.961l1.5.125c7.294.5 9.962-1.792 9.962-5.252S62.106 8.17 56.813 8.17zM82.28 13.8a11.653 11.653 0 0 0-6.211.333v16.3h-4.418V12.8c2.668-.917 5.252-1.417 11.671-1.334L82.28 13.8zm4.668 8.461c.5 4.21 3.376 6.294 8.253 6.294a17.926 17.926 0 0 0 6.711-1.084l1.167 2a22.336 22.336 0 0 1-8.211 1.292c-7.086 0-12.088-3.084-12.088-9.712 0-6.336 4.543-9.629 10.921-9.629 6.5 0 10.421 2.918 10.337 9.128zm6.586-8.837c-3.918 0-6.836 2.167-6.752 7.211l13-1.334c0-4.21-2.376-5.877-6.252-5.877zm23.676 17.004h-3.96l-9-18.632h4.71l5.71 13.338a10.652 10.652 0 0 1 .709 2.293h.083a7.733 7.733 0 0 1 .667-2.293L121.92 11.8h4.127l-8.837 18.628zm12.755-8.17c.5 4.21 3.376 6.294 8.253 6.294a17.926 17.926 0 0 0 6.711-1.084l1.167 2a22.336 22.336 0 0 1-8.211 1.292c-7.086 0-12.088-3.084-12.088-9.712 0-6.336 4.543-9.629 10.921-9.629 6.5 0 10.421 2.918 10.3 9.128zm6.586-8.837c-3.918 0-6.836 2.167-6.753 7.211L142.8 19.3c0-4.211-2.373-5.878-6.25-5.878zm24.259.375a11.466 11.466 0 0 0-6.169.333v16.3h-4.418V12.8c2.668-.917 5.252-1.417 11.671-1.334zM171.939 30.8c-5.961 0-10.337-3.668-10.337-9.712 0-6.127 4.377-9.67 10.421-9.67 3.335 0 5.127.709 6 1.25l-1.042 1.751a8.178 8.178 0 0 0-4.043-.917c-4.918 0-6.836 3.084-6.836 7.461 0 4.46 2.293 7.544 6.711 7.544a8.761 8.761 0 0 0 4.127-.917l1.125 1.917c-1.083.712-3.084 1.293-6.126 1.293zm17.59 0c-7.378 0-10.629-4.168-10.629-9.67 0-5.585 3.251-9.67 10.587-9.67 7.461 0 10.629 4.127 10.629 9.67-.042 5.463-3.252 9.67-10.588 9.67zm0-17.423c-5.169 0-6.169 3.96-6.169 7.753s1.084 7.544 6.169 7.544c5.169 0 6.127-3.793 6.127-7.544s-.959-7.753-6.127-7.753zM39.473 13V.542L11.754 14.005 0 10.712v12.422L27.594 9.712 39.473 13zm0 24.3v-9.748l-20.091 9.753h20.091zM0 0v9.67L19.882 0zm11.754 27.468L0 24.134V36.68l27.594-13.421 11.879 3.335V13.963l-27.719 13.5z" fill="#fff"/></svg>