<svg xmlns="http://www.w3.org/2000/svg" width="418.416" height="42.993"><g data-name="Groupe 16" fill="#fff" fill-rule="evenodd"><path d="M6.664 21.327C2.61 21.327 0 18.739 0 13.65s2.61-7.893 6.664-7.893a5.578 5.578 0 0 1 5.629 3.536l-2.825 1.466a2.668 2.668 0 0 0-2.8-2.092c-1.919 0-3.192 1.294-3.192 3.666v2.415c0 2.372 1.272 3.666 3.192 3.666a3.09 3.09 0 0 0 3-2.243l2.674 1.553a5.883 5.883 0 0 1-5.678 3.603zm13.9 0c-3.99 0-6.62-2.674-6.62-7.785s2.631-7.785 6.62-7.785 6.62 2.674 6.62 7.785-2.628 7.785-6.617 7.785zm0-2.911c1.962 0 3.148-1.359 3.148-3.752v-2.243c0-2.394-1.186-3.752-3.148-3.752s-3.148 1.359-3.148 3.752v2.243c.002 2.394 1.189 3.752 3.151 3.752zm20.8 2.652v-9.875h-.065l-1.1 2.2-2.933 5.327-2.868-5.3-1.143-2.372h-.058v10.021h-3.083V6.016h3.472l3.688 7.052h.043l3.644-7.052h3.494v15.053zm13.17 0h-7.16v-2.609h1.941V8.626h-1.934v-2.61h7.16v2.609h-1.942v9.834h1.941zm13.197-12.14h-4.075v12.141h-3.278V8.928h-4.076V6.016h11.429zm10.8-7.612l-2.89 3.8-1.9-.927L75.876.005zm1.876 19.754H70.162V6.016h10.243v2.911H73.44v3.066h5.974v2.89H73.44v3.278h6.965zm7.908.259a7.318 7.318 0 0 1-5.717-2.436l2.156-2.178a4.9 4.9 0 0 0 3.774 1.725c1.6 0 2.372-.712 2.372-1.811 0-.819-.345-1.423-1.747-1.617l-1.488-.194c-3.17-.41-4.615-1.962-4.615-4.486 0-2.7 2.113-4.572 5.65-4.572a6.7 6.7 0 0 1 5.219 2.113l-2.178 2.2a3.935 3.935 0 0 0-3.235-1.423c-1.466 0-2.178.561-2.178 1.466 0 1.035.539 1.423 1.79 1.617l1.488.237c3.084.5 4.572 1.876 4.572 4.464.001 2.888-2.113 4.893-5.865 4.893zm17.325-.259h-3.278V6.016h7.116c2.8 0 4.572 1.962 4.572 4.809s-1.768 4.809-4.572 4.809h-3.839zm0-12.206v3.925h3.45a1.4 1.4 0 0 0 1.574-1.488v-.949a1.4 1.4 0 0 0-1.574-1.488zm22.162 12.206h-3.407l-1.08-3.577h-5.025l-1.078 3.58h-3.321l4.956-15.08h4.054zm-5.283-6.362l-1.684-5.715h-.108l-1.661 5.715zm16.512-5.779h-4.076v12.14h-3.278V8.928h-4.076V6.016h11.429zm5.708 6.62v5.521h-3.278V6.016h7.138c2.782 0 4.55 1.941 4.55 4.809a4.294 4.294 0 0 1-2.739 4.335l2.954 5.909h-3.644l-2.631-5.521zm0-2.76h3.45a1.4 1.4 0 0 0 1.574-1.488v-.949a1.4 1.4 0 0 0-1.574-1.488h-3.45zm17.267 8.54c-3.99 0-6.62-2.674-6.62-7.785s2.631-7.785 6.62-7.785 6.62 2.674 6.62 7.785-2.632 7.783-6.622 7.783zm0-2.911c1.962 0 3.148-1.359 3.148-3.752v-2.245c0-2.394-1.186-3.752-3.148-3.752s-3.148 1.359-3.148 3.752v2.243c-.002 2.394 1.184 3.752 3.146 3.752zm18.259 2.652l-4.118-7.118-1.445-3.019h-.065v10.136h-3.09V6.016h3.58l4.12 7.117 1.445 3.019h.065V6.016h3.09v15.053zm19.769 0h-3.407l-1.08-3.577h-5.025l-1.078 3.58h-3.321l4.959-15.08h4.054zm-5.287-6.363l-1.681-5.714h-.108l-1.661 5.715zm6.959-8.691h3.192v9.23c0 2.113.776 3.17 2.717 3.17s2.717-1.057 2.717-3.17v-9.23h3.192v8.885c0 4.442-1.6 6.426-5.909 6.426s-5.909-1.984-5.909-6.426zm22.852 7.332l4.9 7.72h-3.8l-3.256-5.542h-.065l-3.17 5.542h-3.537l4.852-7.742-4.615-7.311h3.817l2.933 5.089h.065l2.976-5.089h3.537zm12.365 7.72V6.016h5.672c3.99 0 6.62 2.523 6.62 7.526s-2.631 7.526-6.62 7.526zm3.278-2.911h2.394c1.941 0 3.148-1.057 3.148-3.45v-2.329c0-2.394-1.208-3.45-3.148-3.45h-2.394zm22.184 2.911h-10.238V6.016h10.243v2.911h-6.965v3.066h5.973v2.89h-5.973v3.278h6.965zm17.023 0l-4.119-7.116-1.442-3.019h-.065v10.136h-3.085V6.016h3.58l4.119 7.116 1.445 3.019h.065V6.016h3.084v15.053zm15.457-19.753l-2.89 3.8-1.9-.927L292.21.004zm1.876 19.754h-10.243V6.016h10.243v2.911h-6.965v3.066h5.971v2.89h-5.973v3.278h6.965zm12.587 0v-2.394h-.108c-.216 1.51-1.6 2.652-3.86 2.652-3.45 0-6.168-2.674-6.168-7.72 0-5.068 2.739-7.85 6.815-7.85a6.023 6.023 0 0 1 5.8 3.494l-2.674 1.531a3.112 3.112 0 0 0-3.127-2.113c-2.027 0-3.343 1.165-3.343 3.666v2.415c0 2.5 1.315 3.666 3.343 3.666 1.639 0 2.954-.776 2.954-2.243v-.755h-2.8V12.68h5.93v8.389zm12.178.259c-3.99 0-6.62-2.674-6.62-7.785s2.631-7.785 6.62-7.785 6.62 2.674 6.62 7.785-2.63 7.784-6.62 7.784zm0-2.911c1.962 0 3.148-1.359 3.148-3.752v-2.244c0-2.394-1.186-3.752-3.148-3.752s-3.149 1.359-3.149 3.752v2.243c.001 2.394 1.19 3.752 3.149 3.752zm15.628 2.911c-4.054 0-6.664-2.588-6.664-7.677s2.609-7.893 6.664-7.893a5.578 5.578 0 0 1 5.628 3.537l-2.825 1.466a2.668 2.668 0 0 0-2.8-2.092c-1.919 0-3.192 1.294-3.192 3.666v2.415c0 2.372 1.272 3.666 3.192 3.666a3.09 3.09 0 0 0 3-2.243l2.674 1.553a5.883 5.883 0 0 1-5.677 3.601zm14.722-.259h-7.16v-2.61h1.941V8.626h-1.94v-2.61h7.16v2.609h-1.941v9.834h1.941zm15.606 0h-3.407l-1.078-3.576h-5.025l-1.078 3.58h-3.321l4.961-15.08h4.054zm-5.283-6.362l-1.681-5.714h-.108l-1.66 5.715zm16.512-5.779h-4.076v12.141h-3.278V8.928h-4.076V6.016h11.429zm8.921 12.141h-7.16v-2.61h1.941V8.626h-1.941v-2.61h7.16v2.609h-1.941v9.834h1.941zm8.964.259c-3.99 0-6.62-2.674-6.62-7.785s2.631-7.785 6.62-7.785 6.62 2.674 6.62 7.785-2.629 7.784-6.618 7.784zm0-2.911c1.962 0 3.148-1.359 3.148-3.752v-2.244c0-2.394-1.186-3.752-3.148-3.752s-3.148 1.359-3.148 3.752v2.243c.001 2.394 1.187 3.752 3.15 3.752zm18.259 2.652l-4.119-7.116-1.445-3.019h-.065v10.135h-3.084V6.016h3.58l4.119 7.116 1.445 3.019h.065V6.016h3.084v15.053z"/><path data-name="des-secteurs-de-lՎd" d="M6.586 39.812v-1.32h-.075a2.151 2.151 0 0 1-2.115 1.5c-2 0-3.03-1.455-3.03-4.125s1.035-4.11 3.03-4.11a2.133 2.133 0 0 1 2.115 1.5h.075v-4.545h2.22v11.1zm-1.456-1.62c.84 0 1.455-.435 1.455-1.155v-2.325c0-.72-.615-1.155-1.455-1.155a1.48 1.48 0 0 0-1.455 1.635v1.365a1.48 1.48 0 0 0 1.455 1.635zm9.125 1.8c-2.415 0-3.78-1.605-3.78-4.125 0-2.49 1.32-4.11 3.69-4.11 2.61 0 3.66 1.89 3.66 4.02v.66H12.77v.12a1.547 1.547 0 0 0 1.74 1.7 2.5 2.5 0 0 0 1.935-.945l1.11 1.38a4.269 4.269 0 0 1-3.3 1.3zm-.045-6.6a1.44 1.44 0 0 0-1.44 1.62v.12h2.76v-.135c0-.96-.435-1.605-1.32-1.605zm7.955 6.6a4.112 4.112 0 0 1-3.315-1.41l1.305-1.32a2.738 2.738 0 0 0 2.085 1.005c.87 0 1.17-.285 1.17-.75 0-.39-.24-.585-.8-.66l-.855-.105c-1.785-.225-2.655-1.005-2.655-2.43 0-1.515 1.185-2.565 3.06-2.565a3.959 3.959 0 0 1 3.21 1.23l-1.27 1.305a2.633 2.633 0 0 0-1.815-.81c-.75 0-1.05.27-1.05.66 0 .42.18.645.825.735l.885.12c1.71.225 2.6 1.005 2.6 2.37-.005 1.515-1.355 2.625-3.38 2.625zm11.289 0a4.112 4.112 0 0 1-3.315-1.41l1.305-1.32a2.738 2.738 0 0 0 2.081 1.005c.87 0 1.17-.285 1.17-.75 0-.39-.24-.585-.8-.66l-.855-.105c-1.785-.225-2.655-1.005-2.655-2.43 0-1.515 1.185-2.565 3.06-2.565a3.959 3.959 0 0 1 3.21 1.23l-1.266 1.305a2.633 2.633 0 0 0-1.815-.81c-.75 0-1.05.27-1.05.66 0 .42.18.645.825.735l.885.12c1.71.225 2.6 1.005 2.6 2.37-.009 1.515-1.355 2.625-3.38 2.625zm8.27 0c-2.415 0-3.78-1.605-3.78-4.125 0-2.49 1.32-4.11 3.69-4.11 2.61 0 3.66 1.89 3.66 4.02v.66h-5.056v.12a1.547 1.547 0 0 0 1.74 1.7 2.5 2.5 0 0 0 1.935-.945l1.11 1.38a4.269 4.269 0 0 1-3.298 1.3zm-.045-6.6a1.44 1.44 0 0 0-1.441 1.62v.12h2.76v-.135c0-.96-.435-1.605-1.32-1.605zm8.465 6.6c-2.37 0-3.675-1.605-3.675-4.125s1.305-4.11 3.675-4.11a3.1 3.1 0 0 1 3.15 2.055l-1.8.78a1.3 1.3 0 0 0-1.35-1.08c-.9 0-1.365.645-1.365 1.635v1.465c0 .99.465 1.635 1.365 1.635a1.481 1.481 0 0 0 1.47-1.185l1.725.75a3.086 3.086 0 0 1-3.196 2.18zm8.75-.18h-1.32a2.073 2.073 0 0 1-2.34-2.3v-3.85h-1.109v-1.726h.555c.6 0 .78-.3.78-.84v-1.29h2v2.13h1.56v1.726h-1.56v4.426h1.44zm4.984.18c-2.415 0-3.78-1.605-3.78-4.125 0-2.49 1.32-4.11 3.69-4.11 2.61 0 3.66 1.89 3.66 4.02v.66h-5.056v.12a1.547 1.547 0 0 0 1.74 1.7 2.5 2.5 0 0 0 1.935-.945l1.11 1.38a4.269 4.269 0 0 1-3.3 1.3zm-.045-6.6a1.44 1.44 0 0 0-1.441 1.62v.12h2.76v-.135c0-.96-.435-1.605-1.32-1.605zm9.934 6.42v-1.32h-.075a2.138 2.138 0 0 1-2.205 1.5c-1.605 0-2.46-1.125-2.46-3.105v-4.951h2.22v4.756c0 .96.315 1.5 1.125 1.5a1.254 1.254 0 0 0 1.4-1.14v-5.116h2.22v7.876zm6.6 0h-2.22v-7.876h2.22v1.71h.075a1.975 1.975 0 0 1 2.01-1.71h.39v2.07h-.555c-1.29 0-1.92.285-1.92 1.2zm6.6.18a4.112 4.112 0 0 1-3.315-1.41l1.305-1.32a2.738 2.738 0 0 0 2.085 1.005c.87 0 1.17-.285 1.17-.75 0-.39-.24-.585-.8-.66l-.855-.105c-1.785-.225-2.655-1.005-2.655-2.43 0-1.515 1.185-2.565 3.06-2.565a3.959 3.959 0 0 1 3.21 1.23l-1.261 1.305a2.633 2.633 0 0 0-1.815-.81c-.75 0-1.05.27-1.05.66 0 .42.18.645.825.735l.885.12c1.71.225 2.6 1.005 2.6 2.37-.005 1.515-1.355 2.625-3.38 2.625zm13.458-.18v-1.32h-.075a2.151 2.151 0 0 1-2.115 1.5c-2 0-3.03-1.455-3.03-4.125s1.035-4.11 3.03-4.11a2.133 2.133 0 0 1 2.115 1.5h.075v-4.545h2.22v11.1zm-1.455-1.62c.84 0 1.455-.435 1.455-1.155v-2.325c0-.72-.615-1.155-1.455-1.155a1.48 1.48 0 0 0-1.455 1.635v1.365a1.48 1.48 0 0 0 1.455 1.635zm9.125 1.8c-2.415 0-3.78-1.605-3.78-4.125 0-2.49 1.32-4.11 3.69-4.11 2.61 0 3.66 1.89 3.66 4.02v.66h-5.056v.12a1.547 1.547 0 0 0 1.74 1.7 2.5 2.5 0 0 0 1.935-.945l1.11 1.38a4.269 4.269 0 0 1-3.299 1.3zm-.045-6.6a1.44 1.44 0 0 0-1.44 1.62v.12h2.76v-.135c0-.96-.435-1.605-1.32-1.605zm12.129 6.42h-1.005a1.929 1.929 0 0 1-2.205-2.16v-8.94h2.22v9.376h.99zm2.224-11.251c.9 0 1.29.465 1.29 1.08v.315a4.193 4.193 0 0 1-1.635 3.105h-1.4a4.5 4.5 0 0 0 1.38-1.95 1.052 1.052 0 0 1-.93-1.1v-.375c.004-.61.394-1.075 1.295-1.075zm7.67-.075l-2.01 2.64-1.32-.645 1.485-2.91zm-2.236 11.506c-2.415 0-3.78-1.605-3.78-4.125 0-2.49 1.32-4.11 3.69-4.11 2.61 0 3.66 1.89 3.66 4.02v.66h-5.056v.12a1.547 1.547 0 0 0 1.74 1.7 2.5 2.5 0 0 0 1.934-.945l1.11 1.38a4.269 4.269 0 0 1-3.298 1.3zm-.045-6.6a1.44 1.44 0 0 0-1.44 1.62v.12h2.76v-.135c0-.96-.435-1.605-1.32-1.605zm10.115 6.42v-1.32h-.075a2.151 2.151 0 0 1-2.115 1.5c-2 0-3.03-1.455-3.03-4.125s1.035-4.11 3.03-4.11a2.133 2.133 0 0 1 2.115 1.5h.075v-4.545h2.22v11.1zm-1.455-1.62c.84 0 1.455-.435 1.455-1.155v-2.325c0-.72-.615-1.155-1.455-1.155a1.48 1.48 0 0 0-1.455 1.635v1.365a1.48 1.48 0 0 0 1.455 1.635zm10.49 1.62v-1.32h-.075a2.138 2.138 0 0 1-2.205 1.5c-1.605 0-2.46-1.125-2.46-3.105v-4.951h2.22v4.756c0 .96.315 1.5 1.125 1.5a1.254 1.254 0 0 0 1.4-1.14v-5.116h2.22v7.876zm7.565.18c-2.37 0-3.675-1.605-3.675-4.125s1.305-4.11 3.675-4.11a3.1 3.1 0 0 1 3.15 2.055l-1.8.78a1.3 1.3 0 0 0-1.35-1.08c-.9 0-1.365.645-1.365 1.635v1.465c0 .99.465 1.635 1.365 1.635a1.481 1.481 0 0 0 1.47-1.185l1.725.75a3.086 3.086 0 0 1-3.196 2.18zm11.72-.18h-1.23a1.5 1.5 0 0 1-1.5-1.38h-.09a2.128 2.128 0 0 1-2.31 1.56 2.194 2.194 0 0 1-2.445-2.3c0-1.665 1.29-2.46 3.375-2.46h1.245v-.5c0-.765-.375-1.245-1.305-1.245a1.945 1.945 0 0 0-1.7.93l-1.32-1.17a3.434 3.434 0 0 1 3.18-1.5c2.22 0 3.36 1.02 3.36 2.88v3.45h.735zm-4.302-1.365c.735 0 1.35-.3 1.35-1.02v-.93h-1.08c-.855 0-1.305.315-1.305.885v.23c-.004.565.371.835 1.035.835zm9.875 1.365h-1.32a2.073 2.073 0 0 1-2.34-2.3v-3.85h-1.115v-1.726h.555c.6 0 .78-.3.78-.84v-1.29h2v2.13h1.56v1.726h-1.56v4.426h1.44zm2.869-8.716c-.9 0-1.29-.465-1.29-1.1v-.33c0-.63.39-1.1 1.29-1.1s1.29.465 1.29 1.1v.33c-.004.635-.394 1.1-1.294 1.1zm-1.114 8.716v-7.876h2.22v7.876zm7.58.18c-2.31 0-3.69-1.59-3.69-4.125s1.38-4.11 3.69-4.11 3.69 1.575 3.69 4.11-1.38 4.125-3.691 4.125zm0-1.755c.87 0 1.38-.57 1.38-1.56v-1.605c0-.99-.51-1.56-1.38-1.56s-1.38.57-1.38 1.56v1.605c-.001.99.509 1.56 1.379 1.56zm7.58 1.575h-2.22v-7.876h2.22v1.336h.09a2.148 2.148 0 0 1 2.19-1.515c1.605 0 2.46 1.14 2.46 3.12v4.935h-2.22v-4.755c0-1.005-.285-1.5-1.1-1.5-.72 0-1.425.375-1.425 1.155zm13.734.18c-2.415 0-3.78-1.605-3.78-4.125 0-2.49 1.32-4.11 3.69-4.11 2.61 0 3.66 1.89 3.66 4.02v.66h-5.056v.12a1.547 1.547 0 0 0 1.74 1.7 2.5 2.5 0 0 0 1.935-.945l1.11 1.38a4.269 4.269 0 0 1-3.3 1.3zm-.045-6.6a1.44 1.44 0 0 0-1.44 1.62v.12h2.76v-.135c.001-.96-.436-1.605-1.321-1.605zm9.365 6.421h-1.32a2.073 2.073 0 0 1-2.34-2.3v-3.851h-1.11v-1.726h.555c.6 0 .78-.3.78-.84v-1.29h2v2.13h1.56v1.726h-1.569v4.426h1.44zm10.224 0v-1.321h-.075a2.151 2.151 0 0 1-2.115 1.5c-2 0-3.03-1.455-3.03-4.125s1.035-4.11 3.03-4.11a2.133 2.133 0 0 1 2.115 1.5h.075v-4.545h2.22v11.1zm-1.455-1.62c.84 0 1.455-.435 1.455-1.155v-2.326c0-.72-.615-1.155-1.455-1.155a1.48 1.48 0 0 0-1.455 1.635v1.365a1.48 1.48 0 0 0 1.453 1.635zm9.125 1.8c-2.415 0-3.78-1.605-3.78-4.125 0-2.49 1.32-4.11 3.69-4.11 2.61 0 3.66 1.89 3.66 4.02v.66h-5.056v.12a1.547 1.547 0 0 0 1.74 1.7 2.5 2.5 0 0 0 1.935-.945l1.11 1.38a4.269 4.269 0 0 1-3.301 1.299zm-.045-6.6a1.44 1.44 0 0 0-1.44 1.62v.12h2.76v-.135c-.002-.961-.437-1.606-1.322-1.606zm12.127 6.419h-1.005a1.929 1.929 0 0 1-2.205-2.16v-8.94h2.22v9.376h.99zm2.224-11.251c.9 0 1.29.465 1.29 1.08v.315a4.193 4.193 0 0 1-1.634 3.106h-1.4a4.5 4.5 0 0 0 1.38-1.95 1.052 1.052 0 0 1-.93-1.1v-.375c.004-.611.394-1.076 1.294-1.076zm5.434 11.431c-2.415 0-3.78-1.605-3.78-4.125 0-2.49 1.32-4.11 3.69-4.11 2.61 0 3.66 1.89 3.66 4.02v.66h-5.056v.12a1.547 1.547 0 0 0 1.74 1.7 2.5 2.5 0 0 0 1.935-.945l1.11 1.38a4.269 4.269 0 0 1-3.299 1.3zm-.045-6.6a1.44 1.44 0 0 0-1.44 1.62v.12h2.76v-.135c.001-.96-.435-1.605-1.32-1.605zm7.5 6.421h-2.22v-7.877h2.22v1.336h.09a2.148 2.148 0 0 1 2.19-1.515c1.605 0 2.46 1.14 2.46 3.12v4.935h-2.22v-4.755c0-1.005-.285-1.5-1.1-1.5-.72 0-1.425.375-1.425 1.155zm9.485.18a4.112 4.112 0 0 1-3.315-1.41l1.305-1.32a2.738 2.738 0 0 0 2.085 1.005c.87 0 1.17-.285 1.17-.75 0-.39-.24-.585-.8-.66l-.855-.105c-1.785-.225-2.655-1.005-2.655-2.43 0-1.515 1.185-2.565 3.06-2.565a3.959 3.959 0 0 1 3.21 1.23l-1.275 1.305a2.633 2.633 0 0 0-1.815-.81c-.75 0-1.05.27-1.05.66 0 .42.18.645.825.735l.885.12c1.71.225 2.6 1.005 2.6 2.37.007 1.514-1.345 2.624-3.37 2.624zm8.27 0c-2.415 0-3.78-1.605-3.78-4.125 0-2.49 1.32-4.11 3.69-4.11 2.61 0 3.66 1.89 3.66 4.02v.66h-5.056v.12a1.547 1.547 0 0 0 1.74 1.7 2.5 2.5 0 0 0 1.935-.945l1.11 1.38a4.269 4.269 0 0 1-3.295 1.299zm-.045-6.6a1.44 1.44 0 0 0-1.44 1.62v.12h2.76v-.135c.005-.961-.43-1.606-1.315-1.606zm6.395-2.3c-.9 0-1.29-.465-1.29-1.1v-.33c0-.63.39-1.1 1.29-1.1s1.29.465 1.29 1.1v.33c.004.638-.386 1.103-1.286 1.103zm-1.11 8.716v-7.873h2.22v7.876zm11.675.57c0 1.665-1.05 2.61-4.26 2.61-2.73 0-3.735-.69-3.735-1.83a1.468 1.468 0 0 1 1.47-1.5v-.165a1.331 1.331 0 0 1-1.14-1.38c0-.825.735-1.245 1.47-1.4v-.06a2.323 2.323 0 0 1-1.41-2.25c0-1.59 1.11-2.655 3.375-2.655a5.192 5.192 0 0 1 1.335.15v-.3a1.049 1.049 0 0 1 1.185-1.185h1.245v1.65h-1.738v.09a2.332 2.332 0 0 1 1.35 2.25c0 1.575-1.1 2.61-3.375 2.61a5.562 5.562 0 0 1-1.4-.165.737.737 0 0 0-.345.63c0 .375.27.6.945.6h2.28c1.927.008 2.752.848 2.752 2.303zm-2.085.3c0-.45-.33-.705-1.215-.705h-2.7a1.011 1.011 0 0 0-.285.705c0 .57.45.84 1.65.84h.9c1.204.004 1.654-.266 1.654-.837zm-2.145-5.116c.87 0 1.305-.39 1.305-1.08v-.18c0-.69-.435-1.08-1.305-1.08s-1.305.39-1.305 1.08v.18c.003.694.438 1.084 1.308 1.084zm7.535 4.245h-2.22v-7.872h2.22v1.336h.09a2.148 2.148 0 0 1 2.19-1.515c1.605 0 2.46 1.14 2.46 3.12v4.935h-2.22v-4.755c0-1.005-.285-1.5-1.1-1.5-.72 0-1.425.375-1.425 1.155zm10.1.18c-2.415 0-3.78-1.605-3.78-4.125 0-2.49 1.32-4.11 3.69-4.11 2.61 0 3.66 1.89 3.66 4.02v.66h-5.056v.12a1.547 1.547 0 0 0 1.74 1.7 2.5 2.5 0 0 0 1.938-.941l1.11 1.38a4.269 4.269 0 0 1-3.299 1.3zm-.045-6.6a1.44 1.44 0 0 0-1.44 1.62v.12h2.76v-.135c.003-.956-.432-1.601-1.317-1.601zm7.5 6.421h-2.22v-7.873h2.22v1.336h.09a2.1 2.1 0 0 1 2.115-1.515 2.179 2.179 0 0 1 2.205 1.59h.045a2.447 2.447 0 0 1 2.4-1.59c1.515 0 2.355 1.14 2.355 3.12v4.935h-2.22v-4.755c0-1.02-.345-1.5-1.08-1.5a1.183 1.183 0 0 0-1.305 1.155v5.1h-2.22v-4.755c0-1.02-.36-1.5-1.08-1.5a1.19 1.19 0 0 0-1.305 1.155zm14.57.18c-2.415 0-3.78-1.605-3.78-4.125 0-2.49 1.32-4.11 3.69-4.11 2.61 0 3.66 1.89 3.66 4.02v.66h-5.056v.12a1.547 1.547 0 0 0 1.74 1.7 2.5 2.5 0 0 0 1.935-.945l1.11 1.38a4.269 4.269 0 0 1-3.291 1.303zm-.045-6.6a1.44 1.44 0 0 0-1.44 1.62v.12h2.76v-.135c.008-.957-.427-1.602-1.308-1.602zm7.5 6.421h-2.22v-7.874h2.22v1.336h.09a2.148 2.148 0 0 1 2.19-1.515c1.605 0 2.46 1.14 2.46 3.12v4.935h-2.22v-4.755c0-1.005-.285-1.5-1.1-1.5-.72 0-1.425.375-1.425 1.155zm10.895 0h-1.32a2.073 2.073 0 0 1-2.34-2.3v-3.848h-1.11v-1.726h.555c.6 0 .78-.3.78-.84v-1.29h2v2.13h1.56v1.726h-1.56v4.426h1.44zm8.063.18a4.112 4.112 0 0 1-3.315-1.41l1.305-1.32a2.738 2.738 0 0 0 2.085 1.005c.87 0 1.17-.285 1.17-.75 0-.39-.24-.585-.8-.66l-.855-.105c-1.785-.225-2.655-1.005-2.655-2.43 0-1.515 1.185-2.565 3.06-2.565a3.959 3.959 0 0 1 3.21 1.23l-1.275 1.305a2.633 2.633 0 0 0-1.815-.81c-.75 0-1.05.27-1.05.66 0 .42.18.645.825.735l.885.12c1.71.225 2.6 1.005 2.6 2.37.013 1.517-1.337 2.627-3.362 2.627zm9.635-.18v-1.318h-.075a2.138 2.138 0 0 1-2.205 1.5c-1.605 0-2.46-1.125-2.46-3.105v-4.951h2.22v4.756c0 .96.315 1.5 1.125 1.5a1.254 1.254 0 0 0 1.4-1.14v-5.116h2.22v7.876zm4.384 3V31.936h2.22v1.32h.075a2.133 2.133 0 0 1 2.115-1.5c2 0 3.03 1.44 3.03 4.11s-1.035 4.125-3.03 4.125a2.151 2.151 0 0 1-2.115-1.5h-.06v4.321zm3.675-4.621a1.48 1.48 0 0 0 1.455-1.635v-1.362a1.48 1.48 0 0 0-1.455-1.635c-.84 0-1.455.435-1.455 1.155v2.325c.015.72.629 1.155 1.469 1.155zm11.06-9.706l-2.01 2.64-1.32-.645 1.485-2.91zm-2.222 11.509c-2.415 0-3.78-1.605-3.78-4.125 0-2.49 1.32-4.11 3.69-4.11 2.61 0 3.66 1.89 3.66 4.02v.66h-5.056v.12a1.547 1.547 0 0 0 1.74 1.7 2.5 2.5 0 0 0 1.935-.945l1.11 1.38a4.269 4.269 0 0 1-3.299 1.3zm-.045-6.6a1.44 1.44 0 0 0-1.44 1.62v.12h2.76v-.135c.001-.96-.435-1.605-1.32-1.605zm7.5 6.421h-2.22v-7.877h2.22v1.71h.075a1.975 1.975 0 0 1 2.01-1.71h.39v2.07h-.555c-1.29 0-1.92.285-1.92 1.2zm5.044-8.716c-.9 0-1.29-.465-1.29-1.1v-.33c0-.63.39-1.1 1.29-1.1s1.29.465 1.29 1.1v.33c.005.634-.385 1.099-1.285 1.099zm-1.11 8.716v-7.877h2.22v7.876zm7.67.18c-2.415 0-3.78-1.605-3.78-4.125 0-2.49 1.32-4.11 3.69-4.11 2.61 0 3.66 1.89 3.66 4.02v.66h-5.056v.12a1.547 1.547 0 0 0 1.74 1.7 2.5 2.5 0 0 0 1.935-.945l1.11 1.38a4.269 4.269 0 0 1-3.294 1.299zm-.045-6.6a1.44 1.44 0 0 0-1.44 1.62v.12h2.76v-.135c.005-.961-.43-1.606-1.312-1.606zm9.935 6.421v-1.322h-.075a2.138 2.138 0 0 1-2.205 1.5c-1.605 0-2.46-1.125-2.46-3.105v-4.951h2.22v4.756c0 .96.315 1.5 1.125 1.5a1.254 1.254 0 0 0 1.4-1.14v-5.116h2.22v7.876zm6.6 0h-2.22v-7.878h2.22v1.71h.075a1.975 1.975 0 0 1 2.01-1.71h.39v2.07h-.555c-1.29 0-1.92.285-1.92 1.2z"/></g></svg>