<?xml version="1.0" encoding="UTF-8"?>
<svg width="119px" height="65px" viewBox="0 0 119 65" version="1.1" xmlns="http://www.w3.org/2000/svg" xmlns:xlink="http://www.w3.org/1999/xlink">
    <title>logo-fr</title>
    <g id="Page-1" stroke="none" stroke-width="1" fill="none" fill-rule="evenodd">
        <g id="thumbnail" transform="translate(-44.000000, -271.000000)" fill-rule="nonzero">
            <g id="logo-fr" transform="translate(44.913044, 271.000000)">
                <path d="M39.1609753,10.6928451 C39.5424541,10.6077377 39.9413658,10.7073935 40.2378656,10.9612251 C40.5365958,11.2169662 40.6967159,11.5995466 40.6684245,11.992683 L40.6684245,28.1594162 C40.65461,28.7131916 40.4516873,29.2261037 40.116763,29.62939 C39.7827022,30.0316365 39.3173196,30.3248217 38.7772809,30.4407137 L2.50516762,36.8654703 C2.12570283,36.9515085 1.72829095,36.8533215 1.43270315,36.6012025 C1.13528848,36.3475253 0.97550305,35.9674702 1.00306347,35.5766481 L1.00306347,19.4044886 C1.01911259,18.8514236 1.22249582,18.3393115 1.55700245,17.9359358 C1.89052169,17.5337509 2.35439137,17.2396614 2.89289706,17.1208524 Z" id="Path" stroke="#FFFFFF" stroke-width="2"></path>
                <path d="M18.0301626,25.2442836 L9.12368118,23.6739512 L2.73131781,22.5477532 C1.15467225,22.1317594 0.0426374797,20.7239363 0.00306346807,19.0938149 L0.00306346807,40.9714009 C0.0422946774,42.6601797 1.2345397,44.1016974 2.88597176,44.4570631 L19.1167058,47.312213 L18.0182662,47.1179042 C23.8911509,48.1568615 28.6338721,44.0922384 28.6338721,38.0686652 C28.6338721,32.045092 23.8752889,26.2991029 18.0261972,25.2601456" id="Path" fill="#FFFFFF"></path>
                <path d="M23.6532217,22.0679294 L32.5557377,23.6342963 L38.9481011,24.7644598 C40.5185102,25.1872146 41.6237712,26.5925903 41.664459,28.2183981 L41.664459,6.34477754 C41.6291365,4.65318987 40.4329835,3.20893369 38.7775852,2.85911538 L22.5508166,0 L23.6532217,0.194308812 C17.788268,-0.84464851 13.0455468,3.22394009 13.0455468,9.25940972 C13.0455468,15.2948793 17.8041299,21.036903 23.6532217,22.0718949" id="Path" fill="#FFFFFF"></path>
                <path d="M60.9327552,62.4881278 C61.134995,63.0829507 60.8375836,63.4517408 60.2150023,63.4517408 L55.9402084,63.4517408 C55.4802808,63.4886515 55.065786,63.1747953 54.9765953,62.7220914 L54.2905663,60.2991795 L47.2320013,60.2991795 L46.5459722,62.7220914 C46.4567815,63.1747953 46.0422867,63.4886515 45.5823591,63.4517408 L41.3035997,63.4517408 C40.6810184,63.4517408 40.383607,63.0789852 40.5858468,62.4881278 L47.1923464,42.2403564 C47.3013901,41.7933787 47.7168455,41.4901633 48.1757869,41.5226035 L53.3626425,41.5226035 C53.821584,41.4901633 54.2370394,41.7933787 54.3460831,42.2403564 L60.9446517,62.4881278 L60.9446517,62.4881278 L60.9327552,62.4881278 Z M52.9105771,55.4533557 L50.7612838,47.883243 L48.6119904,55.4533557 L52.9105771,55.4533557 L52.9105771,55.4533557 Z" id="Shape" fill="#FFFFFF"></path>
                <path d="M61.6108533,57.3290305 C61.5811741,57.0912425 61.6605998,56.8527845 61.8269377,56.6802861 C61.9932755,56.5077876 62.2286886,56.419746 62.4673983,56.4407617 L66.381333,56.4407617 C66.8968461,56.4407617 67.1308098,56.7064492 67.2854638,57.2338589 C67.5670133,58.1578171 68.4314892,58.5900551 69.9423393,58.5900551 C71.5840505,58.5900551 72.2423212,57.9397154 72.2423212,57.1029978 C72.2423212,55.9807653 70.6918162,55.5168034 68.7963139,54.9061186 C65.7547862,53.9147471 61.852748,52.380104 61.852748,47.7682439 C61.852748,43.3110377 65.3661685,41.0269177 69.4307917,41.0269177 C73.3130024,41.0269177 76.810561,42.9700059 77.2150406,47.4708324 C77.2447199,47.7086204 77.1652941,47.9470784 76.9989563,48.1195769 C76.8326185,48.2920753 76.5972053,48.380117 76.3584956,48.3591013 L72.428699,48.3591013 C71.9290478,48.3591013 71.7069806,48.0934137 71.5285337,47.5937625 C71.2707771,46.7927343 70.5887136,46.3961857 69.4268262,46.3961857 C68.0944229,46.3961857 67.4440832,47.018767 67.4440832,47.8118642 C67.4440832,49.0411649 68.9628643,49.5328851 70.9099179,50.1911558 C73.9395492,51.1864928 77.8336564,52.665619 77.8336564,57.2259279 C77.8336564,61.6831341 74.3242013,63.967254 69.9026845,63.967254 C65.6159942,63.9196682 62.0153329,61.9607181 61.6108533,57.3290305 Z" id="Path" fill="#FFFFFF"></path>
                <path d="M92.9699163,58.189541 C93.2025154,58.1700529 93.4318889,58.254016 93.5969376,58.4190647 C93.7619863,58.5841133 93.8459494,58.8134868 93.8264613,59.0460859 L93.8264613,62.6150233 C93.8459494,62.8476224 93.7619863,63.0769959 93.5969376,63.2420446 C93.4318889,63.4070933 93.2025154,63.4910564 92.9699163,63.4715683 L81.2320779,63.4715683 C80.9994788,63.4910564 80.7701053,63.4070933 80.6050566,63.2420446 C80.4400079,63.0769959 80.3560448,62.8476224 80.3755329,62.6150233 L80.3755329,42.3910449 C80.3560448,42.1584458 80.4400079,41.9290723 80.6050566,41.7640236 C80.7701053,41.598975 80.9994788,41.5150119 81.2320779,41.5344999 L92.7954349,41.5344999 C93.028034,41.5150119 93.2574076,41.598975 93.4224562,41.7640236 C93.5875049,41.9290723 93.671468,42.1584458 93.6519799,42.3910449 L93.6519799,45.9599823 C93.6641869,46.1885944 93.5770091,46.4113295 93.4128618,46.5709171 C93.2487146,46.7305048 93.0236126,46.811375 92.7954349,46.7927343 L85.9708336,46.7927343 L85.9708336,49.8858134 L92.0261307,49.8858134 C92.2587298,49.8663253 92.4881033,49.9502884 92.6531519,50.1153371 C92.8182006,50.2803857 92.9021637,50.5097592 92.8826756,50.7423583 L92.8826756,54.0218152 C92.9021637,54.2544143 92.8182006,54.4837879 92.6531519,54.6488365 C92.4881033,54.8138852 92.2587298,54.8978483 92.0261307,54.8783602 L85.9708336,54.8783602 L85.9708336,58.1935065 L92.9659508,58.1935065 L92.9699163,58.189541 Z" id="Path" fill="#FFFFFF"></path>
                <path d="M117.048347,61.3619297 C117.226565,61.5172626 117.319525,61.7486106 117.298333,61.9840695 C117.277142,62.2195283 117.144368,62.4305604 116.941279,62.5515755 L114.248714,64.7801786 C114.083264,64.9383467 113.857546,65.0173213 113.629577,64.9968041 C113.401607,64.9762869 113.193618,64.8582786 113.059068,64.6731105 L111.472874,62.8608834 C109.937315,63.5578628 108.269758,63.9162591 106.58343,63.9117372 C101.302057,63.8369484 96.7709654,60.127411 95.6549534,54.9647558 C94.5389414,49.8021005 97.1332822,44.5522573 101.912208,42.3027323 C106.691133,40.0532072 112.39024,41.3991773 115.657805,45.5490587 C118.925369,49.6989401 118.896862,55.5547616 115.589048,59.6726327 L117.048347,61.3619297 Z M106.579464,58.447312 C106.90728,58.4479857 107.234687,58.424126 107.558939,58.3759188 L106.087744,56.6866218 C105.909526,56.531289 105.816566,56.2999409 105.837758,56.0644821 C105.858949,55.8290232 105.991723,55.6179912 106.194812,55.496976 L108.903239,53.2683729 C109.068689,53.1102049 109.294407,53.0312302 109.522376,53.0517475 C109.750345,53.0722647 109.958335,53.190273 110.092885,53.375441 L111.813906,55.358184 C112.256274,54.469172 112.481851,53.4880474 112.472176,52.4951031 C112.472176,48.9896136 109.914438,46.5468742 106.563602,46.5468742 C103.212767,46.5468742 100.655028,49.00151 100.655028,52.4951031 C100.655028,55.9886963 103.212767,58.4433321 106.563602,58.4433321 L106.563602,58.4433321 L106.579464,58.447312 Z" id="Shape" fill="#FFFFFF"></path>
            </g>
        </g>
    </g>
</svg>