<?xml version="1.0" encoding="UTF-8"?>
<svg width="186px" height="50px" viewBox="0 0 186 50" version="1.1" xmlns="http://www.w3.org/2000/svg" xmlns:xlink="http://www.w3.org/1999/xlink">
    <title>Group</title>
    <g id="Page-1" stroke="none" stroke-width="1" fill="none" fill-rule="evenodd">
        <g id="thumbnail" transform="translate(-40.000000, -285.000000)" fill="#FFFFFF">
            <g id="Group" transform="translate(40.000000, 285.000000)">
                <polygon id="Fill-2" points="29.9055819 29.1079901 29.9055819 14.3895431 40.3813583 14.3895431 43.6051831 9.8604994 25.3774833 9.8604994 25.3774833 35.4715234"></polygon>
                <polygon id="Fill-3" points="0 0 0 14.3895431 15.0369544 14.3895431 15.0369544 50 19.5659981 43.6374119 19.5659981 9.86144453 4.52904372 9.86144453 4.52904372 4.52904372 47.3990133 4.52904372 50.622838 0"></polygon>
                <polygon id="Fill-4" points="44.4326409 27.8405761 35.8253785 27.8405761 35.8253785 20.3041415 62.9419882 20.3041415 62.9419882 27.8405761 54.3337807 27.8405761 54.3337807 46.7185226 44.4326409 46.7185226"></polygon>
                <path d="M73.5534847,36.6330832 L77.7659112,36.6330832 L75.6970304,28.2101204 L73.5534847,36.6330832 Z M70.0064269,20.3041415 L82.6796212,20.3041415 L90.7698996,46.7194677 L80.2780561,46.7194677 L79.3905828,43.2092698 L71.927868,43.2092698 L71.0413398,46.7194677 L61.8792885,46.7194677 L70.0064269,20.3041415 Z" id="Fill-5"></path>
                <polygon id="Fill-6" points="94.0589381 20.3050867 114.266677 20.3050867 114.266677 27.8415213 103.922273 27.8415213 103.922273 31.5360188 111.422793 31.5360188 111.422793 38.6660492 103.922273 38.6660492 103.922273 46.7194677 94.0589381 46.7194677"></polygon>
                <polygon id="Fill-7" points="117.883674 46.7194677 127.821674 46.7194677 127.821674 20.3050867 117.883674 20.3050867"></polygon>
                <g id="Group-14" transform="translate(131.664556, 19.897737)">
                    <path d="M0,18.2503828 L9.27357617,18.2503828 C9.34729599,19.5064552 10.0495246,20.5035631 12.0437404,20.5035631 C13.5956373,20.5035631 14.0757613,19.9128594 14.0757613,19.100051 C14.0757613,18.1766629 13.262953,17.7333989 11.0834924,17.4744343 C3.21437348,16.6247661 0.516983914,14.4453056 0.516983914,8.82936695 C0.516983914,3.69449748 4.61788556,0 11.6373363,0 C18.5462072,0 22.2775646,2.69644444 22.7198836,8.75564713 L13.6324972,8.75564713 C13.5587774,7.61015443 12.8565488,6.834206 11.6004763,6.834206 C10.4181237,6.834206 9.82742,7.31527513 9.82742,8.09027843 C9.82742,8.97775173 10.5296486,9.45693061 12.782829,9.67903522 C19.3221556,10.307544 23.4967771,11.8953557 23.4967771,18.0292233 C23.4967771,23.053513 19.65484,27.3387143 12.0437404,27.3387143 C4.50730582,27.3387143 0.0737198269,24.6044648 0,18.2503828" id="Fill-8"></path>
                    <path d="M36.6642723,16.7353458 L40.8757537,16.7353458 L38.8078181,8.31238304 L36.6642723,16.7353458 Z M33.1172145,0.406404174 L45.7894637,0.406404174 L53.8797422,26.8217303 L43.3888437,26.8217303 L42.5013704,23.3115324 L35.0386557,23.3115324 L34.1521275,26.8217303 L24.9900762,26.8217303 L33.1172145,0.406404174 Z" id="Fill-10"></path>
                </g>
            </g>
        </g>
    </g>
</svg>