<?xml version="1.0" encoding="UTF-8"?>
<svg width="131px" height="68px" viewBox="0 0 131 68" version="1.1" xmlns="http://www.w3.org/2000/svg" xmlns:xlink="http://www.w3.org/1999/xlink">
    <title>visezeau_logo</title>
    <g id="Page-1" stroke="none" stroke-width="1" fill="none" fill-rule="evenodd">
        <g id="thumbnail" transform="translate(-40.000000, -267.000000)" fill="#FFFFFF" fill-rule="nonzero">
            <g id="visezeau_logo" transform="translate(40.000000, 267.000000)">
                <path d="M107.79069,4.69267415 C108.170858,7.32548329 106.729622,10.6845846 104.755015,12.3811577 C98.9446778,17.323349 92.4704639,2.08256164 101.549116,0.1193031 C104.511026,-0.527550869 107.302712,1.52082003 107.79069,4.69267415 Z M126.51541,2.45138189 C123.647004,1.42010665 120.444687,2.03100366 118.157376,4.04582018 C117.141492,4.98024324 116.255946,6.04709758 115.524566,7.21767429 C114.152035,9.42258954 112.931162,11.7183627 111.870409,14.0890792 C110.577602,16.6678707 108.620986,18.8555985 106.201925,20.4271132 C101.82715,23.1790797 96.1700147,21.0399223 94.1840595,16.1998658 C93.4010258,14.299023 92.6690595,12.4378993 91.4093965,10.7810453 C89.5823177,8.36385413 85.9678793,6.59351695 82.89816,8.07447209 C79.368834,9.77671938 79.1645643,13.5670567 80.7306318,16.1601467 C82.2966993,18.7532367 86.7055198,19.9902031 89.3156323,20.8980683 C91.9257448,21.8059336 95.2621495,23.2131246 95.3245652,25.8629563 C95.3983293,28.7000351 93.2024303,30.82217 90.9668122,31.7811027 C87.6304075,33.2109904 84.4585534,33.6819455 81.530688,36.1388557 C79.5050138,37.841103 78.4155755,40.0540245 79.0000137,42.7549235 C79.3519105,44.4614472 80.4517952,45.9196277 81.995969,46.7268338 C84.4018118,47.9127328 87.4147895,47.02189 89.4404638,45.2685753 C92.402374,42.7038561 93.8095651,38.3234064 95.6820372,35.321777 C96.8168687,33.4890241 99.0865317,31.3101476 101.645577,32.4846982 C105.617487,34.4422826 105.776364,41.3136875 105.617487,45.5863282 C105.532375,48.2645306 105.821757,50.9200363 106.752319,53.0024522 C107.30064,54.1275519 108.037583,55.1504439 108.931195,56.0267782 C112.069004,59.0227334 118.009847,58.4099244 119.712095,53.5188005 C121.119286,49.4958228 119.587263,45.0926765 117.238162,41.8640808 C115.167094,38.8794739 112.080353,36.3147546 109.549678,33.6705971 C108.66451,32.7400353 107.421869,31.0037431 107.433218,29.4206531 C107.558049,27.15099 108.182206,26.0161585 109.776645,24.5635742 C113.20951,21.4541358 118.401364,20.3249784 122.464061,18.2198659 C126.169286,16.3020007 130.067432,14.0663825 130.754005,9.55542723 C131.207938,6.60486527 129.256028,3.55216846 126.481365,2.45138189 L126.51541,2.45138189 Z" id="Shape"></path>
                <path d="M63.6457432,62.4158797 C63.465255,62.3928115 63.2873801,62.4745165 63.1872852,62.6264677 C63.0871904,62.7784189 63.0823417,62.9741015 63.1747881,63.1308235 C63.3264788,63.4457683 63.5620807,63.7127839 63.855687,63.902509 C64.4209743,64.2192265 65.0639226,64.3706241 65.7111366,64.3394191 C66.2715402,64.3341049 66.8301511,64.2752038 67.3793389,64.1635202 C67.7465472,64.093362 68.1086194,63.9985787 68.463103,63.8798124 C68.8791586,63.7419808 69.332953,63.9336908 69.5241705,64.3280708 C69.6459648,64.6159508 69.748329,64.9116696 69.830575,65.2132394 C69.9368408,65.5844479 70.0108794,65.9641332 70.0518672,66.3480709 C70.0792159,66.7933691 69.7976298,67.1993224 69.3709682,67.3297002 C68.0923,67.6814691 66.7798791,67.8964018 65.4557995,67.97088 C64.3780009,67.9965347 63.3046972,67.8234212 62.2896195,67.4602058 C60.6455555,66.8765164 59.3800384,65.5413958 58.8851249,63.868464 C58.3480436,62.0789227 58.3480436,60.171095 58.8851249,58.3815536 C59.1427769,57.5680201 59.5658454,56.8165423 60.1277655,56.1743063 C60.6910753,55.529316 61.3907483,55.0176438 62.1761364,54.6763287 C63.0822168,54.2860674 64.0608416,54.0926632 65.0472601,54.1089129 C65.8782708,54.0959031 66.7030465,54.2542909 67.4701254,54.5741938 C68.1554752,54.8644815 68.7721581,55.2955796 69.2801817,55.839531 C69.7871792,56.4062837 70.1733182,57.0704429 70.4150132,57.7914412 C70.6867676,58.587589 70.8210812,59.4241707 70.8122043,60.2653739 C70.8135611,60.6804038 70.7927261,61.0952094 70.7497885,61.5080145 L70.7043953,61.8768347 C70.6646762,62.1718909 70.2845076,62.4442505 69.8532716,62.4442505 L63.6457432,62.4158797 Z M64.9167545,57.3658794 C64.4079314,57.3587285 63.9145677,57.540707 63.53226,57.8765536 C63.2850447,58.0971162 63.1075659,58.3850264 63.0215859,58.7049806 C62.9562451,58.8846246 62.9857501,59.0850944 63.1000787,59.2382947 C63.2144073,59.391495 63.3981907,59.4768317 63.5890016,59.4653177 L66.1366984,59.4653177 C66.3307978,59.4727415 66.5171093,59.3885482 66.6398063,59.2379655 C66.7625033,59.0873829 66.8073304,58.887906 66.7608557,58.6993064 C66.6849654,58.4269467 66.5492731,58.1749467 66.3636647,57.961666 C65.9947933,57.5582823 65.4620639,57.3451905 64.9167545,57.3829019 L64.9167545,57.3658794 Z" id="Shape"></path>
                <path d="M72.6676538,63.3577899 C72.6463946,62.6245588 72.8439242,61.9016004 73.2350696,61.2810482 C73.585238,60.7413008 74.0600905,60.2936939 74.619564,59.9759919 C75.1982583,59.6438224 75.8297026,59.4135084 76.4863619,59.295093 C76.8911119,59.2172813 77.3005302,59.166104 77.71198,59.1418907 C78.1375418,59.1418907 78.8468115,59.1021716 79.2666991,59.1021716 L79.2666991,59.1021716 C79.6979351,59.1021716 79.9986655,58.8695312 79.9419239,58.5347559 C79.9245059,58.4364247 79.8814455,58.344432 79.8170924,58.2680705 C79.6482248,58.0771118 79.4361773,57.9292623 79.1986093,57.8368345 C78.9464144,57.7213991 78.6788514,57.6430413 78.4042272,57.604194 C78.1071519,57.5630582 77.8076197,57.5422047 77.5077103,57.5417783 C77.0259973,57.5476306 76.5456906,57.5950917 76.0721484,57.6836322 C75.7522016,57.7361961 75.435754,57.8082021 75.1245641,57.8992502 C74.7468381,58.0389132 74.322446,57.9059992 74.0918674,57.5758232 L73.9840584,57.3375086 C73.872155,57.1037067 73.7865194,56.8582181 73.7287213,56.6055423 C73.6673134,56.3516645 73.6237055,56.0938091 73.5982157,55.8338568 L73.5982157,55.5728456 C73.6433965,55.1734974 73.9261363,54.8413904 74.3131595,54.7330703 C74.8734981,54.5719903 75.4416432,54.4394231 76.0154068,54.3358792 C76.7385146,54.2061388 77.4710449,54.1359222 78.2056317,54.1259354 C79.0209239,54.1158631 79.8333224,54.2248201 80.6171487,54.4493624 C81.2919708,54.6428033 81.917112,54.9795667 82.4499016,55.4366658 C82.9694439,55.9029738 83.3701738,56.486561 83.618778,57.1389131 C83.8039095,57.689884 83.9201669,58.2616421 83.9649017,58.8411604 C83.9989466,59.2667222 84.0273174,59.9759919 84.0273174,60.3958796 L84.0273174,66.3480709 C84.0084661,66.8006127 83.7058923,67.1919111 83.2726544,67.324026 C83.2726544,67.324026 82.5917555,67.5055991 81.6668678,67.6928463 C80.7045405,67.8829284 79.7255834,67.9760719 78.7446766,67.97088 C77.9230441,67.9786826 77.1030104,67.8968695 76.2991147,67.7268912 C75.6176342,67.593232 74.9683604,67.3292839 74.3869236,66.9495316 C73.8558561,66.5909901 73.4275339,66.100082 73.1442831,65.5253181 C72.8158375,64.8508046 72.6524689,64.1078661 72.6676538,63.3577899 L72.6676538,63.3577899 Z M78.7163059,64.7933807 C78.9404931,64.7941827 79.1643885,64.777106 79.3858565,64.7422843 C79.6752385,64.6968911 79.873834,64.6288012 79.9532722,64.5096439 C80.0262479,64.3022742 80.0552341,64.0819786 80.0383846,63.8627899 L80.0383846,62.5974527 C80.0511492,62.1827334 79.7267222,61.8354951 79.3120924,61.8200931 C78.9092272,61.8200931 78.2340025,61.8598122 77.8084406,61.9108797 C77.5436069,61.9591503 77.2909674,62.0594347 77.065126,62.2059359 C76.6770902,62.4242065 76.4413419,62.8389489 76.452317,63.2840258 C76.4346262,63.5713944 76.5168137,63.8560441 76.6849574,64.0897562 C76.833981,64.2839333 77.0289769,64.4379801 77.2523732,64.5380146 C77.4891813,64.6410743 77.7394696,64.7098559 77.9956878,64.7422843 C78.2346035,64.7742231 78.4752737,64.7912785 78.7163059,64.7933807 L78.7163059,64.7933807 Z" id="Shape"></path>
                <path d="M98.4170658,66.2970035 C98.4223509,66.7223911 98.1717934,67.109413 97.7814755,67.2786328 L97.3786103,67.3864418 C96.9757451,67.4885766 96.5501833,67.5850373 96.0962507,67.6758238 C95.6350658,67.7734397 95.169171,67.847301 94.7004079,67.897116 C94.2310917,67.9467101 93.7594718,67.9713329 93.2875426,67.9709318 C92.4454253,67.9730862 91.6046025,67.9047575 90.7738908,67.7666103 C90.0173413,67.6478314 89.2964862,67.3629773 88.6631042,66.9325092 C88.0207705,66.4727595 87.518056,65.8443664 87.2105198,65.1167787 C86.9489764,64.3347336 86.7887937,63.5223787 86.7338906,62.6995876 C86.6998456,62.2740257 86.6714748,61.564756 86.6714748,61.1448684 L86.6714748,55.2153737 C86.6825323,54.7729079 86.9899619,54.393279 87.4204637,54.290486 L87.7892839,54.256441 C88.1581041,54.2223961 88.5099019,54.2053736 88.8560255,54.2053736 C89.2021491,54.2053736 89.5312503,54.2053736 89.9057447,54.256441 L90.2802391,54.290486 C90.7028667,54.4002388 91.0001218,54.7787747 91.0065313,55.2153737 L91.0065313,60.7873964 C91.0065313,61.2129583 91.0405762,61.922228 91.0859695,62.3364415 C91.1223024,62.806978 91.270122,63.2621067 91.5172055,63.6641944 C91.9329153,64.0704194 92.5038351,64.2772744 93.083273,64.2316101 C93.372655,64.2316101 93.9060258,64.1862169 93.9060258,64.1862169 C93.9060258,64.1862169 94.0251831,64.1011045 94.0535539,63.9592506 C94.0780017,63.7711599 94.0874884,63.581426 94.0819247,63.3918348 L94.0819247,55.2153737 C94.0929821,54.7729079 94.4004117,54.393279 94.8309135,54.290486 L95.1997338,54.256441 C95.568554,54.2223961 95.9203518,54.2053736 96.2608012,54.2053736 C96.6012507,54.2053736 96.936026,54.2053736 97.3161946,54.256441 L97.690689,54.290486 C98.1133165,54.4002388 98.4105717,54.7787747 98.4170658,55.2153737 L98.4170658,66.2970035 Z" id="Path"></path>
                <path d="M11.8350099,54.5685197 C11.7460612,54.5280438 11.6489761,54.5086268 11.551302,54.5117781 L11.1824818,54.5117781 C10.7220806,54.5361006 10.3142789,54.8167384 10.1270885,55.2380703 L6.31405453,65.0657113 C6.23461632,65.2643068 6.13815564,65.3607675 6.04169496,65.3664417 C5.94523428,65.3721158 5.84309945,65.2643068 5.7693354,65.0657113 L1.95630147,55.2380703 C1.76509572,54.8175757 1.35642369,54.537843 0.895233997,54.5117781 L0.549110382,54.5117781 C0.366777011,54.4887546 0.186971738,54.5701265 0.0839248754,54.7223004 C-0.0191219874,54.8744742 -0.0279316572,55.0716384 0.0611328256,55.2323961 L4.84444771,66.9211608 C5.04212743,67.3403657 5.45404212,67.6171549 5.9168635,67.6417789 L6.21759385,67.6417789 C6.30220913,67.6396819 6.38616823,67.6263247 6.46725679,67.6020598 C6.82891127,67.5083335 7.13030227,67.2589065 7.29000964,66.9211608 L12.0733245,55.2323961 C12.1363267,55.1138043 12.1463782,54.9741375 12.101007,54.8477462 C12.0556357,54.7213549 11.9590519,54.6199675 11.8350099,54.5685197 Z" id="Path"></path>
                <path d="M14.3656842,49.3142497 C14.3585153,48.9726576 14.4942605,48.6435783 14.7401786,48.4063845 C15.245017,47.9133549 16.0510707,47.9133549 16.555909,48.4063845 C17.0489386,48.9112229 17.0489386,49.7172766 16.555909,50.2221149 C16.1891193,50.5897978 15.6367745,50.6999431 15.1570067,50.5010756 C14.6772389,50.3022081 14.3647919,49.8335999 14.3656842,49.3142497 L14.3656842,49.3142497 Z M14.7969202,55.2948119 C14.7954081,55.0876619 14.8766402,54.8884766 15.0225877,54.7414639 C15.1685351,54.5944512 15.3671243,54.5117781 15.5742798,54.5117781 L15.7218079,54.5117781 C16.1520479,54.5148959 16.4991675,54.8645605 16.4991675,55.2948119 L16.4991675,66.8587451 C16.4991675,67.2889965 16.1520479,67.6386611 15.7218079,67.6417789 L15.5742798,67.6417789 C15.3671243,67.6417789 15.1685351,67.5591058 15.0225877,67.4120931 C14.8766402,67.2650803 14.7954081,67.0658951 14.7969202,66.8587451 L14.7969202,55.2948119 Z" id="Shape"></path>
                <path d="M20.4824261,64.7252618 C20.8415775,64.4833027 21.3277498,64.5685081 21.5832127,64.9181832 C21.8886315,65.3197027 22.2753306,65.6522639 22.7180442,65.8941383 C23.3975053,66.2631282 24.1577848,66.4580716 24.9309657,66.4615541 C25.2987986,66.4605534 25.6643023,66.4031444 26.0147298,66.2913293 C26.3607156,66.1849884 26.6866724,66.02201 26.9793366,65.8090259 C27.2585219,65.6048947 27.4955269,65.3486211 27.677258,65.054363 C27.8579889,64.750973 27.9503565,64.4031207 27.9439434,64.0500371 C27.9830491,63.529913 27.7723828,63.0222075 27.3765276,62.6825651 C26.945311,62.3604995 26.4587677,62.1201125 25.9409658,61.9732954 C25.3240192,61.790982 24.6968888,61.6450937 24.0628196,61.5363853 C23.4174353,61.4261015 22.7883899,61.2354817 22.1903476,60.9689695 C21.6383055,60.7274199 21.1476731,60.3647786 20.7547857,59.907902 C20.3384092,59.3525161 20.1368826,58.6653104 20.1873699,57.9730143 C20.1719591,57.3900097 20.3088611,56.8130652 20.584561,56.2991378 C20.8409632,55.8350569 21.1952845,55.4323311 21.6229318,55.118913 C22.0560972,54.8026811 22.5422466,54.5663318 23.0584937,54.4209916 C23.5846406,54.2718232 24.1287468,54.1954574 24.6756286,54.1940253 C25.6415773,54.1603018 26.6018778,54.3546946 27.4786625,54.761441 C28.0200329,55.0747821 28.4897334,55.4980925 28.8574828,56.0040816 C28.9764763,56.1663443 29.0209489,56.3715127 28.9798232,56.5684831 C28.9386975,56.7654535 28.8158446,56.9356858 28.6418648,57.0367783 L28.4432693,57.1502614 C28.0606173,57.3855289 27.5605813,57.2780212 27.3084378,56.9062726 C27.096833,56.618292 26.8355027,56.3704125 26.5367523,56.1743063 C25.9656031,55.8386829 25.3089434,55.6769829 24.6472578,55.7090254 C24.3262528,55.7109435 24.007168,55.7587107 23.6996735,55.8508793 C23.3822953,55.9366905 23.0799454,56.070643 22.8031566,56.2480703 C22.5289027,56.4142361 22.2929719,56.6366298 22.1109094,56.9005985 C21.9305311,57.1684834 21.8373831,57.4855832 21.844224,57.8084637 C21.8035451,58.3109441 22.0164216,58.80056 22.4116397,59.1135199 C22.8453675,59.422308 23.3318823,59.6492201 23.8472016,59.7830705 C24.4645593,59.9579584 25.0916977,60.0962698 25.7253478,60.1972841 C26.3713952,60.3047435 27.0007936,60.4954703 27.5978198,60.7646998 C28.1608877,61.0216199 28.6534241,61.4109767 29.0333817,61.8995313 C29.4511994,62.5016231 29.6513402,63.2281339 29.6007974,63.9592506 C29.6145604,64.5734485 29.4823207,65.1821399 29.2149547,65.7352619 C28.9718287,66.2077864 28.6314948,66.6235352 28.216303,66.9552058 C27.7598285,67.3002783 27.2446189,67.5598055 26.6956287,67.7212171 C26.113683,67.8936912 25.509553,67.9797223 24.9025949,67.9765542 C23.8310215,67.9874935 22.769932,67.7648196 21.7931565,67.324026 C21.1361384,66.9753211 20.5569674,66.4965398 20.0909092,65.9168349 C19.9631704,65.7595765 19.9081508,65.5555053 19.9395268,65.3553479 C19.9709029,65.1551905 20.085728,64.9777437 20.2554598,64.8671158 L20.4824261,64.7252618 Z" id="Path"></path>
                <path d="M43.5762477,64.6855427 C43.7344136,64.8169001 43.8331353,65.006325 43.8502094,65.2112145 C43.8672835,65.416104 43.8012766,65.6192563 43.6670342,65.774981 C43.1158667,66.4116566 42.4547108,66.9440408 41.715124,67.3467227 C40.6986463,67.7884191 39.6004398,68.0107673 38.4922024,67.9992508 C37.5574775,68.0129252 36.6294775,67.839287 35.7629326,67.4885766 C34.9693542,67.1610594 34.2524954,66.6722042 33.6578201,66.0530147 C33.0667824,65.416417 32.6129139,64.6651197 32.3243931,63.8457674 C31.999145,62.9495693 31.8395645,62.0016993 31.853438,61.0484077 C31.8427505,60.116547 32.0063268,59.1908974 32.3357414,58.3191379 C32.6429459,57.5235864 33.1015679,56.7951868 33.6861909,56.1743063 C34.9164026,54.8877239 36.6272149,54.1721438 38.4070901,54.1996994 C39.3199823,54.1817402 40.2259293,54.3617681 41.0625958,54.7273961 C41.7943816,55.05326 42.4511237,55.5265007 42.9918094,56.1175647 C43.5104679,56.6923222 43.9114353,57.3631716 44.1720342,58.0921716 C44.3381843,58.5676691 44.4486226,59.0608331 44.5011354,59.5617784 C44.5295061,59.8511604 44.5635511,60.1291942 44.5748994,60.4639695 C44.5748994,60.6114976 44.5748994,60.8271156 44.5748994,60.9349245 C44.5033717,61.2978246 44.1649731,61.5448309 43.7975398,61.5023403 L34.3273707,61.5023403 C34.0201745,61.4910331 33.7406625,61.6789018 33.6351235,61.9676212 C33.6069676,62.2776595 33.6496534,62.590042 33.759955,62.8811606 C34.0924205,64.1397517 34.9080245,65.2163489 36.029618,65.8771158 C36.7841713,66.2851835 37.6351607,66.481264 38.4922024,66.4445316 C39.3720043,66.444103 40.2385273,66.2299063 41.0172026,65.8203743 C41.5418331,65.5407401 42.0110193,65.1676986 42.401697,64.7195877 C42.53142,64.5597591 42.720011,64.4588668 42.9249599,64.4396529 C43.1299087,64.4204389 43.333966,64.4845205 43.4911353,64.6174528 L43.5762477,64.6855427 Z M42.0896184,59.9873402 C42.6570341,59.9873402 42.8556296,59.7376773 42.7875398,59.2099806 C42.7388848,58.906489 42.645173,58.6119664 42.509506,58.3361604 C42.2752927,57.8296248 41.9480934,57.3715458 41.5448992,56.9857108 C41.1240145,56.5919174 40.6333027,56.2801711 40.097989,56.0664973 C39.5336988,55.8387997 38.9304688,55.7231645 38.3219777,55.7260478 C37.5106469,55.6953003 36.7068602,55.8918251 36.0012472,56.2934636 C35.4347162,56.6292368 34.9393302,57.0725783 34.5429887,57.5985199 C34.2189256,58.0297669 33.9590014,58.5056576 33.7713033,59.0113851 C33.6743803,59.2536034 33.6743803,59.5238298 33.7713033,59.7660481 C33.8847864,59.9192503 33.9812471,59.9646436 34.3387191,59.9646436 L42.0896184,59.9873402 Z" id="Shape"></path>
                <path d="M55.6508551,66.1040821 L49.0291131,66.1040821 C48.5978772,66.1040821 48.4616974,65.8260484 48.7113603,65.4799248 L55.6281585,56.1743063 L55.6281585,56.1402614 C55.775758,55.9505929 55.9049557,55.7472966 56.0140012,55.5331265 C56.0834654,55.3804846 56.1090092,55.2115025 56.0877652,55.0451489 C56.0678724,54.8731558 55.9748255,54.7180775 55.8324281,54.6195871 C55.654286,54.5406422 55.4592345,54.5074834 55.2650124,54.5231264 L47.0374838,54.5231264 C46.7470319,54.4981515 46.4672974,54.6389877 46.3143776,54.8871845 C46.1614578,55.1353812 46.1614578,55.4485684 46.3143776,55.6967651 C46.4672974,55.9449618 46.7470319,56.0857981 47.0374838,56.0608231 L52.9556302,56.0608231 C53.381192,56.0608231 53.523046,56.3388569 53.2677089,56.6849805 L46.3282141,65.990599 C46.1712397,66.1915038 46.0326125,66.4060911 45.9140006,66.6317788 C45.8445364,66.7844206 45.8189926,66.9534028 45.8402366,67.1197564 C45.8601294,67.2917495 45.9531763,67.4468278 46.0955737,67.5453182 C46.2737158,67.6242631 46.4687673,67.6574218 46.6629894,67.6417789 L55.6508551,67.6417789 C55.941307,67.6667538 56.2210415,67.5259176 56.3739613,67.2777208 C56.5268811,67.0295241 56.5268811,66.7163369 56.3739613,66.4681402 C56.2210415,66.2199434 55.941307,66.0791072 55.6508551,66.1040821 L55.6508551,66.1040821 Z" id="Path"></path>
            </g>
        </g>
    </g>
</svg>