<svg xmlns="http://www.w3.org/2000/svg" width="169.958" height="38.502" viewBox="0 0 169.958 38.502">
  <g id="_Symbols" transform="translate(-0.042 -0.439)">
    <g id="Footer" transform="translate(-162 -340)">
      <g id="larochelle_seulement" transform="translate(162 340)">
        <path id="Fill-1" d="M40.728,25.748h-.871c-2.3,0-6.274.165-6.274,2.44,0,1.45,1.569,2.077,2.928,2.077,2.858,0,4.217-1.416,4.217-3.626Zm.245,4.913h-.1a6.126,6.126,0,0,1-5.37,2.572c-3.1,0-6.1-1.616-6.1-4.748,0-5.143,6.345-5.506,10.529-5.506h1.046V22.55c0-1.944-1.6-2.967-3.835-2.967a6.793,6.793,0,0,0-4.462,1.648l-2.2-2.077a10.125,10.125,0,0,1,7.111-2.538c7.145,0,7.145,4.879,7.145,7.122v9.1H40.973V30.661Z" fill="#fff" fill-rule="evenodd"/>
        <path id="Fill-2" d="M48.571,17.021h4v2.568h.067A5.086,5.086,0,0,1,58.8,16.853v3.918a7.871,7.871,0,0,0-1.932-.3,4.052,4.052,0,0,0-4.3,4.086v8.679h-4V17.021" fill="#fff" fill-rule="evenodd"/>
        <path id="Fill-3" d="M69.023,29.672a4.748,4.748,0,1,0-4.833-4.748A4.668,4.668,0,0,0,69.023,29.672Zm0-13.056c4.971,0,8.947,3.33,8.947,8.308s-3.976,8.309-8.947,8.309-8.948-3.33-8.948-8.309,3.978-8.308,8.948-8.308Z" fill="#fff" fill-rule="evenodd"/>
        <path id="Fill-4" d="M92.937,21.759a4.792,4.792,0,0,0-3.208-1.582,4.752,4.752,0,1,0,0,9.495,4.169,4.169,0,0,0,3.279-1.484l2.82,2.835a9.969,9.969,0,0,1-6.1,2.21c-5.114,0-9.2-3.33-9.2-8.309s4.09-8.308,9.2-8.308a8.56,8.56,0,0,1,6.135,2.407l-2.927,2.736" fill="#fff" fill-rule="evenodd"/>
        <path id="Fill-5" d="M101.345,19.267h.07a5.3,5.3,0,0,1,4.937-2.671c4.518,0,6.129,3.077,6.129,6.391V33.233h-4.2V25.016c0-1.792-.14-4.767-3.082-4.767-2.766,0-3.852,1.96-3.852,4.124v8.86h-4.2V7.669h4.2v11.6" fill="#fff" fill-rule="evenodd"/>
        <path id="Fill-6" d="M128.829,23.342c-.035-2.309-1.606-3.758-4.17-3.758a4.026,4.026,0,0,0-4.241,3.758Zm-8.411,2.967a4.2,4.2,0,0,0,4.412,3.758,5.462,5.462,0,0,0,4.41-2.143l2.941,2.143a8.678,8.678,0,0,1-6.941,3.165c-4.959,0-8.924-3.33-8.924-8.309s3.965-8.308,8.924-8.308c4.581,0,7.693,3.1,7.693,8.6V26.31Z" fill="#fff" fill-rule="evenodd"/>
        <path id="Fill-7" d="M136.767,33.233H140.6V7.669h-3.835Z" fill="#fff" fill-rule="evenodd"/>
        <path id="Fill-8" d="M145.714,33.233h3.835V7.669h-3.835Z" fill="#fff" fill-rule="evenodd"/>
        <path id="Fill-9" d="M165.9,23.342c-.034-2.309-1.608-3.758-4.171-3.758a4.025,4.025,0,0,0-4.24,3.758Zm-8.411,2.967a4.2,4.2,0,0,0,4.41,3.758,5.464,5.464,0,0,0,4.413-2.143l2.939,2.143a8.676,8.676,0,0,1-6.942,3.165c-4.958,0-8.923-3.33-8.923-8.309s3.966-8.308,8.923-8.308c4.583,0,7.693,3.1,7.693,8.6V26.31Z" fill="#fff" fill-rule="evenodd"/>
        <path id="Soustraction_1" data-name="Soustraction 1" d="M-1018.958-2971.059v-34.6l26.171-3.905v38.5h-26.171Zm9.525-31.271-4.453.644v22.868l4.453,2.052h13.441l-4.974-2.365-8.467,0v-23.2Z" transform="translate(1019 3010)" fill="#fff"/>
        <g id="Group-16" transform="translate(10.226 30.677)">
          <path id="Fill-14" d="M13.912,3.108H.443V.442l8.484,0,4.984,2.664" fill="none" fill-rule="evenodd"/>
        </g>
      </g>
    </g>
  </g>
</svg>
