<svg height="54.217" width="109.466" xmlns="http://www.w3.org/2000/svg"><g fill="#fff" fill-rule="evenodd" transform="translate(0 -.917)"><path d="m84.767.917c9.623.023 10.532 3.424 8.458 6.211-2.2 2.981-8.334 6.364-17.882 6.347-9.969-.018-10.331-3.584-8.356-6.261 2.484-3.37 8.983-6.32 17.78-6.297zm-44.588 45.439c6.736.006 7.383 2.386 5.921 4.34-1.536 2.092-5.821 4.453-12.515 4.439-6.974-.007-7.239-2.511-5.845-4.385 1.739-2.353 6.288-4.424 12.438-4.394zm23.44-13.513c9.612.023 10.525 3.427 8.456 6.212-2.2 2.986-8.34 6.371-17.879 6.351-9.968-.022-10.338-3.588-8.362-6.266 2.485-3.364 8.989-6.321 17.785-6.3zm45.339-10.563h-11.624a2.14 2.14 0 0 0 .164-.778c.036-2.238-3.959-2.306-4.913-2.306-3.762-.018-8.287 1.232-10.737 4.554-2.065 2.8-.952 4.493 4.041 4.5a14.244 14.244 0 0 0 9.134-3.013h11.677c-4 3.813-12.267 7.547-24.306 7.522-14.353-.031-14.883-5.17-12.028-9.023 3.573-4.847 12.937-9.1 25.607-9.071 12.344.025 14.729 3.927 12.984 7.619z"/><path d="m17.905 22.813-6.87 9.612-11.035-.012 12.427-17.443h17.266a38.255 38.255 0 0 1 8.144.647c3.95.976 3.662 3.324 2.468 5-.472.659-1.7 2.213-5.126 3.5a26.291 26.291 0 0 1 -4.279 1.181l5.752 7.125h-12zm7.4-4.076h-4.5l-2.9 4.075 4.59-.016c1.817-.008 5.348-.069 6.736-2.025 1.411-2-1.996-2.037-3.921-2.037zm20.1-3.756h30.871l-3.1 4.365h-9.932l-9.252 13.067h-10.981l9.254-13.07-9.965.012z"/></g></svg>