<?xml version="1.0" encoding="UTF-8"?>
<svg width="238px" height="64px" viewBox="0 0 238 64" version="1.1" xmlns="http://www.w3.org/2000/svg" xmlns:xlink="http://www.w3.org/1999/xlink">
    <title>Group</title>
    <g id="Page-1" stroke="none" stroke-width="1" fill="none" fill-rule="evenodd">
        <g id="tafisa" transform="translate(-40.000000, -271.000000)" fill="#FFFFFF">
            <g id="Group" transform="translate(40.000000, 271.000000)">
                <polygon id="Fill-2" points="38.2791449 37.2582273 38.2791449 18.4186152 51.6881387 18.4186152 55.8146343 12.6214392 32.4831786 12.6214392 32.4831786 45.4035499"></polygon>
                <polygon id="Fill-3" points="0 0 0 18.4186152 19.2473017 18.4186152 19.2473017 64 25.0444776 55.8558872 25.0444776 12.622649 5.79717596 12.622649 5.79717596 5.79717596 60.670737 5.79717596 64.7972327 0"></polygon>
                <polygon id="Fill-4" points="56.8737803 35.6359375 45.8564845 35.6359375 45.8564845 25.9893012 80.5657449 25.9893012 80.5657449 35.6359375 69.5472393 35.6359375 69.5472393 59.7997089 56.8737803 59.7997089"></polygon>
                <path d="M94.1484604,46.8903465 L99.5403663,46.8903465 L96.8921989,36.1089541 L94.1484604,46.8903465 Z M89.6082264,25.9893012 L105.829915,25.9893012 L116.185472,59.8009187 L102.755912,59.8009187 L101.619946,55.3078653 L92.067671,55.3078653 L90.932915,59.8009187 L79.2054893,59.8009187 L89.6082264,25.9893012 Z" id="Fill-5"></path>
                <polygon id="Fill-6" points="120.395441 25.9905109 146.261346 25.9905109 146.261346 35.6371472 133.020509 35.6371472 133.020509 40.366104 142.621175 40.366104 142.621175 49.492543 133.020509 49.492543 133.020509 59.8009187 120.395441 59.8009187"></polygon>
                <polygon id="Fill-7" points="150.891103 59.8009187 163.611742 59.8009187 163.611742 25.9905109 150.891103 25.9905109"></polygon>
                <g id="Group-14" transform="translate(168.530632, 25.469104)">
                    <path d="M0,23.36049 L11.8701775,23.36049 C11.9645389,24.9682627 12.8633915,26.2445608 15.4159878,26.2445608 C17.4024157,26.2445608 18.0169745,25.48846 18.0169745,24.4480653 C18.0169745,23.2661286 16.9765798,22.6987505 14.1868703,22.367276 C4.11439805,21.2797006 0.66173941,18.4899911 0.66173941,11.3015897 C0.66173941,4.72895677 5.91089352,0 14.8957904,0 C23.7391452,0 28.5152827,3.45144888 29.081451,11.2072283 L17.4495964,11.2072283 C17.3552351,9.74099767 16.4563824,8.74778368 14.8486097,8.74778368 C13.3351984,8.74778368 12.5790976,9.36355216 12.5790976,10.3555564 C12.5790976,11.4915222 13.4779502,12.1048712 16.3620211,12.3891651 C24.7323592,13.1936563 30.0758747,15.2260552 30.0758747,23.0774058 C30.0758747,29.5084967 25.1581952,34.9935542 15.4159878,34.9935542 C5.76935145,34.9935542 0.0943613784,31.4937149 0,23.36049" id="Fill-8"></path>
                    <path d="M46.9302686,21.4212427 L52.3209648,21.4212427 L49.6740071,10.6398503 L46.9302686,21.4212427 Z M42.3900346,0.520197342 L58.6105136,0.520197342 L68.96607,34.3318148 L55.53772,34.3318148 L54.4017542,29.8387615 L44.8494792,29.8387615 L43.7147232,34.3318148 L31.9872975,34.3318148 L42.3900346,0.520197342 Z" id="Fill-10"></path>
                </g>
            </g>
        </g>
    </g>
</svg>