<svg xmlns="http://www.w3.org/2000/svg" width="97.691" height="65.942" viewBox="0 0 97.691 65.942">
  <g id="Groupe_14" data-name="Groupe 14" transform="translate(-22.966 -23.536)">
    <g id="Groupe_12" data-name="Groupe 12" transform="translate(22.966 63.794)">
      <path id="Tracé_10" data-name="Tracé 10" d="M38.041,16.583c0,1.089.386,1.647,1.513,1.647h1.238v2.429H39.059a3.583,3.583,0,0,1-3.823-3.908V.782h2.806Zm4.1-12.871V.7h2.97V3.713Zm.083,16.947V6.505h2.8V20.659Zm-19.416,0V6.505h2.806V20.659ZM22.724,3.713V.7h2.97V3.713h-2.97Zm8.415,12.871V.781h-2.8v15.97a3.582,3.582,0,0,0,3.823,3.908H33.89V18.23H32.65c-1.128,0-1.513-.559-1.513-1.647M14.8,6.524a5.27,5.27,0,0,0-4.373,2.066A4.439,4.439,0,0,0,6.462,6.524,5.01,5.01,0,0,0,2.751,8.115V6.691H0V20.846H2.806V12.219c0-2.178,1.32-3.155,2.888-3.155S8.5,10.013,8.5,12.219v8.627h2.8V12.08a2.782,2.782,0,0,1,2.888-3.015c1.568,0,2.806.949,2.806,3.155v8.627h2.8V11.8a5.3,5.3,0,0,0-1.485-3.992A5,5,0,0,0,14.8,6.524M80.779,20.659V6.505h2.806V20.659ZM80.7,3.713V.7h2.97V3.713H80.7ZM96.289,7.622a4.793,4.793,0,0,0-3.438-1.284,4.948,4.948,0,0,0-3.712,1.591V6.505H86.389V20.659h2.8V12.034c0-2.178,1.32-3.154,2.888-3.154s2.8.949,2.8,3.154V20.66h2.806V11.615a5.242,5.242,0,0,0-1.4-3.992M64.113,16.583V.781H61.307v15.97a3.582,3.582,0,0,0,3.823,3.908h1.733V18.23H65.626c-1.128,0-1.514-.559-1.514-1.647m-6.435-8.99c1.4,1.423,1.568,3.825,1.568,5.974s-.165,4.58-1.568,6a4.714,4.714,0,0,1-3.383,1.256,4.309,4.309,0,0,1-3.658-1.619v7.175h-2.8V6.5h2.75V8.013a4.262,4.262,0,0,1,3.685-1.676A4.784,4.784,0,0,1,57.678,7.594ZM53.551,18.286c2.532,0,2.888-2.206,2.888-4.718s-.358-4.69-2.888-4.69-2.915,2.178-2.915,4.69.386,4.718,2.915,4.718ZM72.8,6.338c-3.576,0-5.913,2.651-5.913,7.23,0,5.388,2.778,7.259,6.271,7.259a6.5,6.5,0,0,0,5.225-2.206l-1.788-1.7a4.134,4.134,0,0,1-3.382,1.452A3.345,3.345,0,0,1,69.7,15.055a12.45,12.45,0,0,1-.088-1.646,12.256,12.256,0,0,1,.093-1.647,4.557,4.557,0,0,1,.322-1.264,3.03,3.03,0,0,1,5.527,0,4.517,4.517,0,0,1,.386,1.926h-4.81v1.982h7.588V13.15c0-4.021-2.173-6.812-5.913-6.812" transform="translate(0 -0.698)" fill="#fff" fill-rule="evenodd"/>
    </g>
    <g id="Groupe_13" data-name="Groupe 13" transform="translate(23.303 23.536)">
      <path id="Tracé_11" data-name="Tracé 11" d="M6.446,30.023h0Z" transform="translate(-0.975 -3.04)" fill="#fff" fill-rule="evenodd"/>
      <path id="Tracé_12" data-name="Tracé 12" d="M30.616.367c2.144-.059,2.27.424.311,1.156s-5.645,1.815-8.22,2.566c-2.568.771-2.746.225-.359-1.222a20.012,20.012,0,0,1,8.268-2.5" transform="translate(-2.384 -0.102)" fill="#fff" fill-rule="evenodd"/>
      <path id="Tracé_13" data-name="Tracé 13" d="M24.619,9.369c3.152-.694,4.677-.017,3.439,1.131-1.234,1.166-5.13,2.706-8.556,4.038-3.408,1.332-4.849,1.474-3.37-.341a17.68,17.68,0,0,1,8.487-4.829" transform="translate(-1.878 -0.967)" fill="#fff" fill-rule="evenodd"/>
      <path id="Tracé_14" data-name="Tracé 14" d="M33.547,3.43c2.63-.056,3.587.622,2.225,1.4s-4.951,1.63-8.044,2.192-4.139.221-2.323-1.1a16.808,16.808,0,0,1,8.142-2.5" transform="translate(-2.765 -0.406)" fill="#fff" fill-rule="evenodd"/>
      <path id="Tracé_15" data-name="Tracé 15" d="M42.923.222c2.029.308,2.483.825,1.085,1.214a32.492,32.492,0,0,1-7.072.582C34.4,2,33.845,1.449,35.756.768A17.509,17.509,0,0,1,42.923.222" transform="translate(-3.766 -0.073)" fill="#fff" fill-rule="evenodd"/>
      <path id="Tracé_16" data-name="Tracé 16" d="M36.35,14.049c3.8-.014,6.48,1.155,6.067,2.254-.4,1.121-4.326,1.838-8.706,2.095-4.363.254-7-.144-6.044-1.517s4.869-2.843,8.682-2.832" transform="translate(-3.058 -1.458)" fill="#fff" fill-rule="evenodd"/>
      <path id="Tracé_17" data-name="Tracé 17" d="M41.547,8.372c3.117.257,5.024,1.3,4.4,2.176s-4.045,1.324-7.745,1.275-5.752-.673-4.559-1.785,4.782-1.941,7.9-1.667" transform="translate(-3.636 -0.89)" fill="#fff" fill-rule="evenodd"/>
      <path id="Tracé_18" data-name="Tracé 18" d="M47.377,4.452c2.459.428,3.728,1.276,2.977,1.883s-3.7.768-6.715.466-4.478-1.023-3.168-1.778,4.451-1.009,6.906-.571" transform="translate(-4.298 -0.486)" fill="#fff" fill-rule="evenodd"/>
      <path id="Tracé_19" data-name="Tracé 19" d="M53.96,1.953c1.861.487,2.595,1.086,1.751,1.413s-3.336.233-5.7-.217S46.752,2.031,48.1,1.658a13.845,13.845,0,0,1,5.861.295" transform="translate(-5.039 -0.211)" fill="#fff" fill-rule="evenodd"/>
      <path id="Tracé_20" data-name="Tracé 20" d="M56.724,16.067c3.733.691,6.936,2.126,7.418,3.126s-2.62,1.263-7.186.654-8.067-1.871-7.726-2.963,3.764-1.514,7.494-.817" transform="translate(-5.211 -1.624)" fill="#fff" fill-rule="evenodd"/>
      <path id="Tracé_21" data-name="Tracé 21" d="M57.879,10.99c2.91.694,5.18,1.961,5.3,2.827s-2.507.973-6.094.274-6.157-1.9-5.6-2.768,3.491-1.032,6.395-.333" transform="translate(-5.429 -1.112)" fill="#fff" fill-rule="evenodd"/>
      <path id="Tracé_22" data-name="Tracé 22" d="M60.155,7.316c2.239.641,3.793,1.644,3.658,2.293s-2.35.627-5.148-.064-4.622-1.731-3.924-2.336,3.18-.536,5.414.108" transform="translate(-5.745 -0.739)" fill="#fff" fill-rule="evenodd"/>
      <path id="Tracé_23" data-name="Tracé 23" d="M63.994,4.807c1.683.556,2.658,1.256,2.329,1.659s-2.2.266-4.344-.367S58.633,4.647,59.43,4.318s2.887-.068,4.564.489" transform="translate(-6.199 -0.48)" fill="#fff" fill-rule="evenodd"/>
      <path id="Tracé_24" data-name="Tracé 24" d="M74.755,20.058a37.61,37.61,0,0,1,8.395,2.775c1.326.762-.589,1.006-4.832.466s-8.492-1.9-9.05-2.89c-.578-.989,2.025-1.114,5.487-.351" transform="translate(-7.19 -2.004)" fill="#fff" fill-rule="evenodd"/>
      <path id="Tracé_25" data-name="Tracé 25" d="M73.012,15.027a17.93,17.93,0,0,1,6.132,2.964c.838.848-.895.961-4.223.176s-6.391-2.207-6.572-3.073,2-.867,4.663-.067" transform="translate(-7.106 -1.496)" fill="#fff" fill-rule="evenodd"/>
      <path id="Tracé_26" data-name="Tracé 26" d="M71.758,10.942c2.033.71,3.867,1.824,4.32,2.565s-1.057.756-3.621-.038-4.734-2.033-4.651-2.688,1.925-.547,3.952.161" transform="translate(-7.053 -1.091)" fill="#fff" fill-rule="evenodd"/>
      <path id="Tracé_27" data-name="Tracé 27" d="M71.993,7.621c1.52.574,2.721,1.385,2.865,1.914s-1.157.468-3.1-.223-3.419-1.654-3.132-2.064,1.856-.2,3.37.373" transform="translate(-7.131 -0.763)" fill="#fff" fill-rule="evenodd"/>
      <path id="Tracé_28" data-name="Tracé 28" d="M91.373,23.724c2.544.523,8.345,2.418,5.549,2.459s-7.214-.748-8.356-1.721c-1.158-.96.288-1.261,2.807-.739" transform="translate(-9.07 -2.391)" fill="#fff" fill-rule="evenodd"/>
      <path id="Tracé_29" data-name="Tracé 29" d="M84.856,19.041a42.67,42.67,0,0,1,6.25,2.473c1.288.672.46.828-2.261.3S82.9,20.08,82.058,19.242s.532-.889,2.8-.2" transform="translate(-8.44 -1.905)" fill="#fff" fill-rule="evenodd"/>
      <path id="Tracé_30" data-name="Tracé 30" d="M80.876,14.388a19.228,19.228,0,0,1,4.6,2.577c.9.757.092.865-2.078.166s-4.506-1.961-4.967-2.7.716-.718,2.446-.04" transform="translate(-8.096 -1.441)" fill="#fff" fill-rule="evenodd"/>
      <path id="Tracé_31" data-name="Tracé 31" d="M79.264,10.9a10.715,10.715,0,0,1,3.4,2.139c.577.649-.214.7-1.993.02s-3.523-1.754-3.7-2.293.919-.432,2.3.135" transform="translate(-7.959 -1.097)" fill="#fff" fill-rule="evenodd"/>
      <path id="Tracé_32" data-name="Tracé 32" d="M90.284,18.948A39,39,0,0,1,94.6,20.894c1.078.569.829.714-.792.322a14.853,14.853,0,0,1-4.644-1.984c-.831-.669-.238-.775,1.125-.284" transform="translate(-9.131 -1.913)" fill="#fff" fill-rule="evenodd"/>
      <path id="Tracé_33" data-name="Tracé 33" d="M86.295,15.023a19.406,19.406,0,0,1,3.572,2.231c.881.713.563.857-.931.259a12.81,12.81,0,0,1-3.88-2.351c-.565-.655.071-.675,1.239-.138" transform="translate(-8.742 -1.517)" fill="#fff" fill-rule="evenodd"/>
      <path id="Tracé_34" data-name="Tracé 34" d="M3.325,28.693c1.935-2.033,3.724-2.429,3.579-1.241-.09.884-3.382,5.546-3.825,6.156C1.4,35.915.527,36.832.385,35.373s.97-4.651,2.941-6.68" transform="translate(-0.374 -2.72)" fill="#fff" fill-rule="evenodd"/>
      <path id="Tracé_35" data-name="Tracé 35" d="M97.144,22.616a21.257,21.257,0,0,1,4.061,1.431c1.049.509.784.71-.819.432a14.027,14.027,0,0,1-4.391-1.487c-.728-.515-.123-.66,1.15-.377" transform="translate(-9.815 -2.292)" fill="#fff" fill-rule="evenodd"/>
      <path id="Tracé_36" data-name="Tracé 36" d="M103.27,25.937a20.429,20.429,0,0,1,3.694,1.164c.956.418.721.587-.734.368a13.476,13.476,0,0,1-3.994-1.208c-.667-.425-.122-.551,1.034-.324" transform="translate(-10.435 -2.624)" fill="#fff" fill-rule="evenodd"/>
      <path id="Tracé_37" data-name="Tracé 37" d="M18.911,6.908c2.536-.892,3.7-.586,2.643.56s-4.252,3.063-7.067,4.563c-2.8,1.509-3.947,1.526-2.635-.253a17.305,17.305,0,0,1,7.059-4.871" transform="translate(-1.457 -0.699)" fill="#fff" fill-rule="evenodd"/>
      <path id="Tracé_38" data-name="Tracé 38" d="M9.076,16.547c2.617-1.817,4.3-1.766,3.629-.246s-3.613,4.41-6.219,6.917c-2.59,2.5-3.858,3.171-3.24.948a16.792,16.792,0,0,1,5.83-7.619" transform="translate(-0.643 -1.569)" fill="#fff" fill-rule="evenodd"/>
      <path id="Tracé_39" data-name="Tracé 39" d="M16.535,19.059c3.436-1.555,6.367-1.622,6.474-.5.123,1.141-3.112,3.361-6.962,5.362s-6.4,2.718-6.132,1.13,3.162-4.457,6.619-6" transform="translate(-1.317 -1.829)" fill="#fff" fill-rule="evenodd"/>
    </g>
  </g>
</svg>
