<svg xmlns="http://www.w3.org/2000/svg" width="109.466" height="54.217" viewBox="0 0 109.466 54.217">
  <g id="rtc" transform="translate(0 -0.917)">
    <path id="Tracé_46" data-name="Tracé 46" d="M200.133.917c9.623.023,10.532,3.424,8.458,6.211-2.2,2.981-8.334,6.364-17.882,6.347-9.969-.018-10.331-3.584-8.356-6.261C184.837,3.844,191.336.894,200.133.917ZM155.545,46.356c6.736.006,7.383,2.386,5.921,4.34-1.536,2.092-5.821,4.453-12.515,4.439-6.974-.007-7.239-2.511-5.845-4.385,1.739-2.353,6.288-4.424,12.438-4.394Zm23.44-13.513c9.612.023,10.525,3.427,8.456,6.212-2.2,2.986-8.34,6.371-17.879,6.351-9.968-.022-10.338-3.588-8.362-6.266,2.485-3.364,8.989-6.321,17.785-6.3ZM224.324,22.28H212.7a2.14,2.14,0,0,0,.164-.778c.036-2.238-3.959-2.306-4.913-2.306-3.762-.018-8.287,1.232-10.737,4.554-2.065,2.8-.952,4.493,4.041,4.5a14.244,14.244,0,0,0,9.134-3.013h11.677c-4,3.813-12.267,7.547-24.306,7.522-14.353-.031-14.883-5.17-12.028-9.023,3.573-4.847,12.937-9.1,25.607-9.071,12.344.025,14.729,3.927,12.984,7.619Z" transform="translate(-115.366 0)" fill="#fff" fill-rule="evenodd"/>
    <path id="Tracé_47" data-name="Tracé 47" d="M17.905,82.7l-6.87,9.612L0,92.3,12.427,74.857H29.693a38.255,38.255,0,0,1,8.144.647c3.95.976,3.662,3.324,2.468,5-.472.659-1.7,2.213-5.126,3.5A26.291,26.291,0,0,1,30.9,85.185l5.752,7.125h-12L17.905,82.7Zm7.4-4.076h-4.5l-2.9,4.075,4.59-.016c1.817-.008,5.348-.069,6.736-2.025C30.642,78.658,27.235,78.621,25.31,78.621Zm20.1-3.756,30.871,0-3.1,4.365-9.932,0L53.992,92.3H43.011L52.265,79.23l-9.965.012Z" transform="translate(0 -59.887)" fill="#fff" fill-rule="evenodd"/>
  </g>
</svg>
