<svg width="85" height="45" xmlns="http://www.w3.org/2000/svg"><g fill="#FFF"><path d="M51.146 14.992c-1.006 1.246-2.56 1.89-4.621 1.89-2.07 0-3.64-.653-4.644-1.885-.897-1.099-1.388-2.686-1.388-4.812 0-2.108.488-3.72 1.388-4.818 1.009-1.24 2.569-1.882 4.644-1.882 2.058 0 3.629.652 4.624 1.887.886 1.099 1.377 2.71 1.377 4.813 0 2.096-.491 3.708-1.38 4.807M46.525.279c-3.212 0-5.759 1.077-7.428 3.09-1.382 1.652-2.137 3.92-2.137 6.824 0 2.9.758 5.164 2.132 6.819 1.666 2.012 4.207 3.095 7.433 3.095 3.2 0 5.742-1.08 7.413-3.095 1.377-1.652 2.138-3.918 2.138-6.82 0-2.895-.764-5.155-2.132-6.813-1.666-2.012-4.208-3.1-7.42-3.1m-16.669 8.16h-8.422V.649h-3.476v19.083h3.476v-8.095h8.422v8.095h3.463V.65h-3.463zm-20.67.437l-2.53-.698c-1.699-.428-2.56-1.233-2.56-2.386 0-1.404 1.385-2.46 3.217-2.46 1.906 0 3.168 1.015 3.23 2.588h3.496C13.976 2.545 11.298.281 7.361.281 3.506.281.599 2.684.599 5.874c0 2.593 1.712 4.376 5.088 5.308l2.533.641c2.077.524 3.043 1.448 2.944 2.825-.109 1.513-1.505 2.49-3.555 2.49-1.693 0-3.547-.972-3.689-2.771H.4c.076 3.332 3.097 5.748 7.209 5.748 4.003 0 6.836-2.163 7.048-5.383.186-2.835-1.707-4.861-5.472-5.856m65.27 6.526l-2.315-5.203L76.402.65h-3.204l-2.656 5.96L67.89.648h-3.206l4.262 9.55-2.315 5.203L60.76.648h-3.755l7.697 19.083h3.19l2.65-5.88 2.65 5.88h3.193L84.091.648h-3.766zM58.981 27.487v-2.3H44.794v3.181h9.352l-9.43 13.611v2.299H59.14v-3.199h-9.624zm-17.734 0v-2.3H27.061v3.181h9.352L26.982 41.98v2.299h14.426v-3.199h-9.625zM9.572 41.09H4.626v-4.938h5.197c1.453 0 2.62.913 2.62 2.486 0 1.702-1.08 2.451-2.87 2.451zm-4.946-12.72h4.502c1.636 0 2.582.951 2.582 2.356 0 1.53-.89 2.325-2.236 2.325H4.626v-4.681zm8.919 6.015c1.006-.816 1.69-2.1 1.69-3.826 0-3.435-2.445-5.363-5.821-5.363h-8.25v19.084h8.703c3.694 0 6.11-1.94 6.11-5.52 0-2.076-1.069-3.64-2.432-4.374zm5.74 9.895h3.476V25.196h-3.477zm53.133-17.37v5.635h5.635v3.272h-5.635v5.635h-3.272v-5.635H63.51v-3.272h5.635V26.91z"/></g></svg>