<svg id="Page-1" xmlns="http://www.w3.org/2000/svg" width="104.519" height="36.274" viewBox="0 0 104.519 36.274">
  <path id="WAQ" d="M104.519,18.235a17.443,17.443,0,0,1-4.836,12.14l4.159,5.9h-5.8l-1.981-2.853-.92-1.306L93.347,29.6a18.012,18.012,0,0,0,1.862-1.5,9.461,9.461,0,0,0,1.572-1.886,14.315,14.315,0,0,0,1.74-3.242,13.912,13.912,0,0,0,.822-4.692,14.358,14.358,0,0,0-.965-5.271,13.468,13.468,0,0,0-2.709-4.328,12.893,12.893,0,0,0-4.134-2.95,13.4,13.4,0,0,0-12.455.99,12.885,12.885,0,0,0-4.692,5.853,15.473,15.473,0,0,0-.847,2.686,13.6,13.6,0,0,0-.314,2.925,13.173,13.173,0,0,0,.314,2.829,18.619,18.619,0,0,0,.847,2.781A13.133,13.133,0,0,0,79.1,29.576a12.6,12.6,0,0,0,7.181,2.056,12.072,12.072,0,0,0,4.839-.92l2.756,3.965a17.982,17.982,0,0,1-7.595,1.6A17.728,17.728,0,0,1,79.2,34.848a18.6,18.6,0,0,1-5.806-3.893A18.218,18.218,0,0,1,69.478,25.2a17.436,17.436,0,0,1-1.426-7.012,17.853,17.853,0,0,1,1.426-7.134,18.353,18.353,0,0,1,3.893-5.781,17.95,17.95,0,0,1,5.8-3.868,18.172,18.172,0,0,1,25.344,16.832ZM58.185.052,33.276,36.274h6.481L59.346,6.867h.048V36.274h5.271V.052ZM44.642,0,25.006,29.456h-.048V0L19.686,7.981,5.417,29.456H5.271V0H0V36.274H6.481L19.686,17.219V36.274h6.479L51.173,0Z" fill="#fff" fill-rule="evenodd"/>
</svg>
