<svg width="74" height="42" viewBox="0 0 74 42"
    xmlns="http://www.w3.org/2000/svg">
    <g fill="#fff" fill-rule="nonzero">
        <path d="M54.48 24.247a11.634 11.634 0 0 0-2.183-4.8c-2.177-2.873-5.703-4.688-10.475-4.688-7.418 0-11.98 5.037-13.33 10.348-1.213-3.745-4.46-6.27-7.89-7.338 2.582-1.882 3.933-4.573 3.933-7.646 0-2.852-1.187-5.449-3.174-7.138C18.445.505 14.47 0 9.573 0H0v41.337c2.712 0 5.5-.012 8.218 0 2.418.011 4.78-.003 6.982-.091 6.97-.28 11.741-3.788 13.268-9.057.524 2.343 1.533 4.252 2.85 5.702C34.002 40.845 37.894 42 41.813 42c4.825 0 8.314-1.4 10.697-3.544l-3.411-4.01c-1.717 1.295-3.923 2.058-6.4 2.058-4.86-.015-7.003-3.09-7.195-6.046H54.48v10.88h7.107V.205H54.48v24.041ZM7.303 5.585l1.975-.001c1.908 0 3.414.205 4.499.626 2.142.83 3.16 2.534 3.16 4.661.002 1.799-.686 4.625-4.47 5.398-.633.13-1.545.2-2.833.2h-2.33V5.586Zm8.036 29.702c-.89.16-1.978.196-2.862.196H7.303V21.997h4.63c1.461 0 3.115.164 4.062.412 3.248.852 5.114 3.181 5.114 6.265 0 3.193-1.718 5.883-5.77 6.613Zm20.296-9.969c.626-3.01 2.852-5.178 6.132-5.178 3.284 0 5.469 1.942 6.035 5.178H35.635ZM66.332.206h6.987v41.13h-6.987z"/>
    </g>
</svg>
