<svg xmlns="http://www.w3.org/2000/svg" width="170.361" height="28.513"><path data-name="Tracé 48" d="M155.281 28.513c-7.965-.038-14.986-5.821-14.947-14.327S147.45-.036 155.415 0s14.986 5.821 14.946 14.325-7.113 14.223-15.08 14.187zm.1-21.572a7.415 7.415 0 0 0-7.739 7.28 7.715 7.715 0 0 0 15.41.071 7.414 7.414 0 0 0-7.67-7.352zM102.94.773h25.527v6.371H102.94zm19.741 16.319h-12.705v4.242h18.491v6.448H102.94V10.869h19.741zM81.068 27.71H62.496V.754h17.183c4.786 0 8.28 2.925 8.28 7.459a5.133 5.133 0 0 1-1.866 4.241c2.3 1.363 3.637 3.362 3.637 6.774a8.515 8.515 0 0 1-8.662 8.482zM79.401 7.17h-9.963v3.643h10.2c.726 0 1.451-.935 1.451-1.821a1.732 1.732 0 0 0-1.688-1.822zm1.3 9.845H69.429v4.233h11.457a1.936 1.936 0 0 0 1.982-2.069 2.115 2.115 0 0 0-2.176-2.166zM39.121.754h7.345V27.71h-7.345zM.001.753h7.037v20.51h18v6.445H.001z" fill="#fff" fill-rule="evenodd"/></svg>