<?xml version="1.0" encoding="UTF-8"?>
<svg width="231px" height="122px" viewBox="0 0 231 122" version="1.1" xmlns="http://www.w3.org/2000/svg" xmlns:xlink="http://www.w3.org/1999/xlink">
    <title>Group 2</title>
    <g id="Thumbnail" stroke="none" stroke-width="1" fill="none" fill-rule="evenodd">
        <g transform="translate(-35.000000, -89.000000)" fill="#FFFFFF" id="Group-2">
            <g transform="translate(35.400000, 89.247747)">
                <g id="Page-1" transform="translate(-0.000000, 0.000000)">
                    <g id="Group">
                        <path d="M139.587749,40.47 C136.820249,43.8975 132.545249,45.6675 126.875249,45.6675 C121.182749,45.6675 116.862749,43.875 114.102749,40.485 C111.635249,37.4625 110.285249,33.0975 110.285249,27.2475 C110.285249,21.45 111.627749,17.0175 114.102749,13.995 C116.877749,10.5825 121.167749,8.82 126.875249,8.82 C132.537749,8.82 136.857749,10.6125 139.595249,14.01 C142.032749,17.0325 143.382749,21.465 143.382749,27.2475 C143.382749,33.015 142.032749,37.4475 139.587749,40.47 M126.875249,0 C118.040249,0 111.035249,2.9625 106.445249,8.4975 C102.642749,13.0425 100.565249,19.2825 100.565249,27.27 C100.565249,35.25 102.650249,41.475 106.430249,46.0275 C111.012749,51.5625 118.002749,54.54 126.875249,54.54 C135.680249,54.54 142.670249,51.57 147.267749,46.0275 C151.055249,41.4825 153.147749,35.25 153.147749,27.27 C153.147749,19.305 151.047749,13.0875 147.282749,8.5275 C142.700249,2.9925 135.710249,0 126.875249,0" id="Fill-1"></path>
                        <polygon id="Fill-4" points="81.023249 22.44525 57.855749 22.44525 57.855749 1.01775 48.293249 1.01775 48.293249 53.51025 57.855749 53.51025 57.855749 31.24275 81.023249 31.24275 81.023249 53.51025 90.548249 53.51025 90.548249 1.01775 81.023249 1.01775"></polygon>
                        <path d="M24.165,23.64675 L17.205,21.72675 C12.5325,20.54925 10.1625,18.33675 10.1625,15.16425 C10.1625,11.30175 13.9725,8.39925 19.0125,8.39925 C24.255,8.39925 27.7275,11.18925 27.9,15.51675 L37.515,15.51675 C37.3425,6.23175 29.9775,0.00675 19.1475,0.00675 C8.5425,0.00675 0.5475,6.61425 0.5475,15.38925 C0.5475,22.52175 5.2575,27.42675 14.5425,29.99175 L21.51,31.75425 C27.225,33.19425 29.88,35.73675 29.61,39.52425 C29.31,43.68675 25.47,46.37175 19.83,46.37175 C15.1725,46.37175 10.0725,43.70175 9.6825,38.75175 L0,38.75175 C0.21,47.91675 8.52,54.56175 19.83,54.56175 C30.84,54.56175 38.6325,48.61425 39.2175,39.75675 C39.7275,31.95675 34.5225,26.38425 24.165,23.64675" id="Fill-6"></path>
                        <polygon id="Fill-8" points="203.703749 41.598 197.336249 27.288 209.058749 1.0155 200.246249 1.0155 192.941249 17.4105 185.643749 1.0155 176.823749 1.0155 188.546249 27.288 182.178749 41.598 166.031249 1.0155 155.703749 1.0155 176.876249 53.508 185.651249 53.508 192.941249 37.3305 200.231249 53.508 209.013749 53.508 230.208749 1.0155 219.851249 1.0155"></polygon>
                    </g>
                    <polygon id="Fill-17" points="161.13825 74.8425 161.13825 68.5125 122.11575 68.5125 122.11575 77.265 147.84075 77.265 121.89825 114.705 121.89825 121.0275 161.58075 121.0275 161.58075 112.23 135.10575 112.23"></polygon>
                    <polygon id="Fill-21" points="112.359 74.8425 112.359 68.5125 73.3364998 68.5125 73.3364998 77.265 99.0614998 77.265 73.1189998 114.705 73.1189998 121.0275 112.8015 121.0275 112.8015 112.23 86.3264998 112.23"></polygon>
                    <path d="M25.2299998,112.25475 L11.6249998,112.25475 L11.6249998,98.67225 L25.9199998,98.67225 C29.9174998,98.67225 33.1274998,101.18475 33.1274998,105.51225 C33.1274998,110.19225 30.1574998,112.25475 25.2299998,112.25475 L25.2299998,112.25475 Z M11.6249998,77.26725 L24.0074998,77.26725 C28.5074998,77.26725 31.1099998,79.88475 31.1099998,83.74725 C31.1099998,87.95475 28.6649998,90.14475 24.9599998,90.14475 L11.6249998,90.14475 L11.6249998,77.26725 Z M36.1574998,93.81225 C38.9249998,91.56975 40.8074998,88.03725 40.8074998,83.28975 C40.8074998,73.83975 34.0799998,68.53725 24.7949998,68.53725 L2.09999979,68.53725 L2.09999979,121.02975 L26.0399998,121.02975 C36.2024998,121.02975 42.8474998,115.68975 42.8474998,105.84225 C42.8474998,100.13475 39.9074998,95.82975 36.1574998,93.81225 L36.1574998,93.81225 Z" id="Fill-23"></path>
                    <polygon id="Fill-25" points="51.9449998 121.03125 61.5074998 121.03125 61.5074998 68.53875 51.9449998 68.53875"></polygon>
                </g>
                <path d="M198.1,73.2522529 L198.1,88.7522529 L213.6,88.7522529 L213.6,97.7522529 L198.1,97.7522529 L198.1,113.252253 L189.1,113.252253 L189.1,97.7522529 L173.6,97.7522529 L173.6,88.7522529 L189.1,88.7522529 L189.1,73.2522529 L198.1,73.2522529 Z" id="Combined-Shape"></path>
            </g>
        </g>
    </g>
</svg>