<?xml version="1.0" encoding="UTF-8"?>
<svg width="158px" height="42px" viewBox="0 0 158 42" version="1.1" xmlns="http://www.w3.org/2000/svg" xmlns:xlink="http://www.w3.org/1999/xlink">
    <title>Group 16</title>
    <defs>
        <polygon id="path-1" points="0.25634375 0.31365 12.7054687 0.31365 12.7054687 41 0.25634375 41"></polygon>
    </defs>
    <g id="Page-1" stroke="none" stroke-width="1" fill="none" fill-rule="evenodd">
        <g id="thumbnail" transform="translate(-40.000000, -293.000000)">
            <g id="Group-16" transform="translate(40.000000, 293.000000)">
                <path d="M14.0149926,17.171607 C17.6737074,17.171607 20.5440916,15.1711742 20.5440916,11.4571446 C20.5440916,7.914145 18.1238921,6.59989285 14.578028,6.59989285 L7.82363368,6.59989285 L7.26059835,17.171607 L14.0149926,17.171607 Z M16.1538774,35.4001072 C20.0939069,35.4001072 23.470901,33.4000865 23.470901,28.5428348 C23.470901,25.0571199 20.9942763,22.7714998 16.0974521,22.7714998 L6.97928366,22.7714998 L6.30380363,35.4001072 L16.1538774,35.4001072 Z M1.74471943,4.14283065 C1.85716412,1.97136793 2.87038415,1 5.00926891,1 L15.590842,1 C22.7394016,1 27.0731905,5.00004121 27.0731905,10.7713762 C27.0731905,14.1998063 25.1031758,17.342637 22.7394016,18.7714586 C27.0171712,20.3144376 30,23.514553 30,28.48555 C30,36.200033 24.5405464,41 16.5480427,41 L2.92680947,41 C0.787924712,41 0,40.0286321 0,37.8571694 L1.74471943,4.14283065 Z" id="Fill-1" fill="#FFFFFF"></path>
                <path d="M54.9053994,27.2573666 C54.9053994,22 51.6856026,19.0286421 47.5461008,19.0286421 C42.4864793,19.0286421 39.0946006,23.1432104 39.0946006,28.6857614 C39.0946006,33.6002473 41.7964932,36.9713579 46.5687587,36.9713579 C51.3406095,36.9713579 54.9053994,33.2000824 54.9053994,27.2573666 M47.8334567,14 C55.5953855,14 61,19.0286421 61,27.1432104 C61,35.5429631 55.422889,42 46.4538992,42 C39.0369635,42 33,37.6571193 33,28.8572017 C33,20.8003297 38.519474,14 47.8334567,14" id="Fill-3" fill="#FFFFFF"></path>
                <path d="M64,32.2689655 L64.7272507,18.093712 C64.8389803,15.8997972 66.1252823,15 67.6354469,15 C69.5929332,15 70.4319135,16.1249493 70.4319135,18.093712 L69.7046628,31.9314402 C69.7046628,35.2503043 71.2704905,37.0498986 74.2908196,37.0498986 C76.6395611,37.0498986 78.4857212,36.3748479 80.2189416,34.6312373 C81.5617135,33.2247465 81.8412391,32.0438134 81.9529687,30.3561866 L82.5680865,18.093712 C82.6798161,15.8997972 83.9661181,15 85.476686,15 C87.433769,15 88.2727493,16.1249493 88.2727493,18.093712 L87.3777025,34.1249493 C87.3777025,36.0373225 87.713698,36.6 88.3288157,37.2186613 C88.7761375,37.6689655 89,38.1188641 89,39.0190669 C89,40.4247465 87.9932236,41.4377282 86.20313,41.4377282 C84.5255728,41.4377282 83.1271378,40.4811359 82.2881575,38.8503043 C79.4920942,41.2689655 76.4717651,42 73.3957728,42 C67.4676509,42 64,38.7375254 64,33.1123732 L64,32.2689655 Z" id="Fill-5" fill="#FFFFFF"></path>
                <path d="M95.9039845,4.05550269 C96.0192388,1.88908477 97.3461196,1 98.903925,1 C100.923164,1 101.788611,2.11105546 101.788611,4.05550269 L100.692239,23.0556329 L108.192091,16.0555428 C109.057538,15.222151 110.038656,14.8887943 110.961522,14.8887943 C112.403658,14.8887943 113.50003,15.8335721 113.50003,17.1669989 C113.50003,18.0552823 113.211686,18.8333817 112.230568,19.7777589 L106.519447,25.1110655 L114.077133,35.7776787 C114.711656,36.6667635 115,37.3334769 115,38.222161 C115,40.0556229 113.673119,41 112.173149,41 C110.961522,41 109.922985,40.4442719 109.057538,39.1669388 L102.076955,29.1666383 L100.288225,30.8334218 L99.8846268,37.9444973 C99.7693725,40.1109152 98.4424917,41 96.8842702,41 C94.8654475,41 94,39.8889445 94,37.9444973 L95.9039845,4.05550269 Z" id="Fill-7" fill="#FFFFFF"></path>
                <path d="M123.677643,2 C125.927643,2 127.704071,3.71526919 127.704071,5.88874084 C127.704071,8.06138765 125.927643,9.77706926 123.677643,9.77706926 C121.427216,9.77706926 119.651215,8.06138765 119.651215,5.88874084 C119.651215,3.71526919 121.427216,2 123.677643,2 L123.677643,2 Z M120.065857,17.2683291 C120.184143,15.037943 121.545929,14.1231877 123.144714,14.1231877 C125.216645,14.1231877 126.105286,15.266838 126.105286,17.2683291 L125.158142,34.1380984 C125.098785,35.3390755 125.276001,35.8533676 126.401215,36.3107452 C127.407715,36.7112084 128,37.2832397 128,38.42689 C128,39.9136766 126.7565,41 124.565857,41 C121.427216,41 119,39.8563497 119,35.5102313 L120.065857,17.2683291 Z" id="Fill-9" fill="#FFFFFF"></path>
                <g id="Group-13" transform="translate(132.000000, 0.000000)">
                    <mask id="mask-2" fill="white">
                        <use xlink:href="#path-1"></use>
                    </mask>
                    <g id="Clip-12"></g>
                    <path d="M2.0028125,3.37900294 C2.11534375,1.20560098 3.410875,0.31365 4.931875,0.31365 C6.90340625,0.31365 7.74840625,1.42828725 7.74840625,3.37900294 L6.05840625,33.308601 C5.945875,35.3147873 6.90340625,36.0953951 7.97346875,36.0953951 C9.2129375,36.0953951 9.6630625,35.5378755 10.621,35.5378755 C12.0294687,35.5378755 12.7054687,36.4298265 12.7054687,37.6558069 C12.7054687,39.55065 10.959,41.0001206 6.79046875,41.0001206 C3.2979375,41.0001206 0.25634375,39.1048755 0.25634375,34.200552 L2.0028125,3.37900294 Z" id="Fill-11" fill="#FFFFFF" mask="url(#mask-2)"></path>
                </g>
                <path d="M153.677643,2 C155.927643,2 157.704071,3.71526919 157.704071,5.88874084 C157.704071,8.06138765 155.927643,9.77706926 153.677643,9.77706926 C151.427216,9.77706926 149.651215,8.06138765 149.651215,5.88874084 C149.651215,3.71526919 151.427216,2 153.677643,2 L153.677643,2 Z M150.065857,17.2683291 C150.184143,15.037943 151.545929,14.1231877 153.144714,14.1231877 C155.216645,14.1231877 156.105286,15.266838 156.105286,17.2683291 L155.158142,34.1380984 C155.098785,35.3390755 155.276001,35.8533676 156.401215,36.3107452 C157.407715,36.7112084 158,37.2832397 158,38.42689 C158,39.9136766 156.7565,41 154.565857,41 C151.427216,41 149,39.8563497 149,35.5102313 L150.065857,17.2683291 Z" id="Fill-14" fill="#FFFFFF"></path>
            </g>
        </g>
    </g>
</svg>