<svg width="186" height="50" xmlns="http://www.w3.org/2000/svg"><g fill="#FFF" fill-rule="evenodd"><path d="M29.906 29.108V14.39H40.38l3.224-4.53H25.377v25.612z"/><path d="M0 0v14.39h15.037V50l4.529-6.363V9.861H4.529V4.53h42.87L50.623 0z"/><path d="M44.433 27.84h-8.608v-7.536h27.117v7.537h-8.608v18.878h-9.901zm29.12 8.793h4.213l-2.069-8.423-2.144 8.423zm-3.547-16.329H82.68l8.09 26.415H80.278l-.887-3.51h-7.463l-.887 3.51H61.88l8.127-26.415zm24.053.001h20.208v7.537h-10.345v3.694h7.5v7.13h-7.5v8.053H94.06zm23.825 26.414h9.938V20.305h-9.938z"/><path d="M131.665 38.148h9.274c.073 1.256.776 2.254 2.77 2.254 1.552 0 2.032-.591 2.032-1.404 0-.923-.813-1.367-2.993-1.626-7.869-.85-10.566-3.029-10.566-8.644 0-5.136 4.1-8.83 11.12-8.83 6.91 0 10.64 2.696 11.083 8.756h-9.088c-.073-1.146-.775-1.922-2.032-1.922-1.182 0-1.773.481-1.773 1.256 0 .888.703 1.367 2.956 1.589 6.54.629 10.714 2.216 10.714 8.35 0 5.025-3.842 9.31-11.453 9.31-7.537 0-11.97-2.735-12.044-9.089m36.664-1.515h4.212l-2.068-8.423-2.144 8.423zm-3.547-16.329h12.673l8.09 26.416h-10.49l-.888-3.51h-7.462l-.887 3.51h-9.163l8.127-26.416z"/></g></svg>