<svg height="30" width="222" xmlns="http://www.w3.org/2000/svg"><g fill="#fff"><path d="M.6 29h6.8V8.2C10 8.32 13 10.16 13 14v15h6.24V14c0-3.84 3-5.68 5.6-5.8V29h6.8V1.4h-6.8c-3.72 0-7.32 2-8.72 4-1.4-2-5-4-8.72-4H.6zm47.32-10.48c2.36-1.56 3.72-3.96 3.72-7.12 0-5.4-3.96-9.24-9.4-9.84-.84-.08-1.72-.16-5-.16h-4.4V29h6.8v-7.4c3.2 0 5.4 2.52 5.4 5.6V29h6.8v-1.8c0-3.92-1.4-6.84-3.92-8.68zM39.64 7.8c2.8 0 5.2 1 5.2 3.8s-2.4 3.6-5.2 3.6zm20 14.6v-21h-6.8V29h13.6v-6.6zM84.92 8V1.4h-17.4V29h17.4v-6.6h-10.6v-4h7.2V12h-7.2V8zm1.2 21h10.64c5.6 0 8.96-3.72 8.96-8 0-2.56-1.2-4.96-2.96-6.2 1.64-1.28 2.24-3.28 2.24-5.08 0-3.64-2.44-7.64-7.4-8.2-1.12-.12-2.4-.12-3.84-.12h-7.64zm6.8-17V7.8h3.16c1 0 2.12.8 2.12 2.12S97.08 12 96.08 12zm0 10.6v-4.2h3.84c1.04 0 2.16.72 2.16 2.12s-1.12 2.08-2.16 2.08zm20.4-.2v-21h-6.8V29h13.6v-6.6zm7.76-1.96V29h6.8v-4h6v4h6.8V1.4c-11.4 0-19.6 5.88-19.6 19.04zm6.88-2.04c.4-4.44 2.24-7.6 5.92-9.04v9.04zm26.92-17v4.76c-3.12-3-7.48-4.76-13-4.76V29h6.8V9.8c4.24 1.4 6.2 5.12 6.2 10.64V29h6.8V1.4zM177.52 29h.4v-6.6h-.4c-2.28 0-3.88-.44-5.16-1.32-1.76-1.2-3.04-3.48-3.04-5.88s1.28-4.68 3.04-5.88c1.28-.88 2.88-1.32 5.16-1.32h.4V1.4h-.4c-2.2 0-3.56.16-4.8.48-5.84 1.48-10.2 6.88-10.2 13.32 0 6.36 4.32 11.8 10.16 13.32 1.28.32 2.72.48 4.84.48zm11.6-27.6h-10.2v6.4h3.4V29h6.8zm11.4 28.4c6.4 0 10.4-5 10.4-10v-8.6c0-5.6-4-10.6-10.4-10.6s-10.4 5-10.4 10.6v8.6c0 5 4 10 10.4 10zm0-6.6c-3 0-3.6-2-3.6-5v-5.6c0-3.2.6-5.4 3.6-5.4s3.6 2.2 3.6 5.4v5.6c0 3-.6 5-3.6 5zm21.4-21.8h-10.2v6.4h3.4V29h6.8z"/></g></svg>