<?xml version="1.0" encoding="UTF-8"?>
<svg width="222px" height="30px" viewBox="0 0 222 30" version="1.1" xmlns="http://www.w3.org/2000/svg" xmlns:xlink="http://www.w3.org/1999/xlink">
    <title>MRLEBLANC101</title>
    <g id="Page-1" stroke="none" stroke-width="1" fill="none" fill-rule="evenodd">
        <g id="neobigben-copy" transform="translate(-40.000000, -297.000000)" fill="#FFFFFF" fill-rule="nonzero">
            <g id="MRLEBLANC101" transform="translate(40.600000, 297.600000)">
                <path d="M0,28.4 L6.8,28.4 L6.8,7.6 C9.4,7.72 12.4,9.56 12.4,13.4 L12.4,28.4 L18.64,28.4 L18.64,13.4 C18.64,9.56 21.64,7.72 24.24,7.6 L24.24,28.4 L31.04,28.4 L31.04,0.8 L24.24,0.8 C20.52,0.8 16.92,2.8 15.52,4.8 C14.12,2.8 10.52,0.8 6.8,0.8 L0,0.8 L0,28.4 Z" id="Path"></path>
                <path d="M47.32,17.92 C49.68,16.36 51.04,13.96 51.04,10.8 C51.04,5.4 47.08,1.56 41.64,0.96 C40.8,0.88 39.92,0.8 36.64,0.8 L32.24,0.8 L32.24,28.4 L39.04,28.4 L39.04,21 C42.24,21 44.44,23.52 44.44,26.6 L44.44,28.4 L51.24,28.4 L51.24,26.6 C51.24,22.68 49.84,19.76 47.32,17.92 Z M39.04,7.2 C41.84,7.2 44.24,8.2 44.24,11 C44.24,13.8 41.84,14.6 39.04,14.6 L39.04,7.2 Z" id="Shape"></path>
                <polygon id="Path" points="59.04 21.8 59.04 0.8 52.24 0.8 52.24 28.4 65.84 28.4 65.84 21.8"></polygon>
                <polygon id="Path" points="84.32 7.4 84.32 0.8 66.92 0.8 66.92 28.4 84.32 28.4 84.32 21.8 73.72 21.8 73.72 17.8 80.92 17.8 80.92 11.4 73.72 11.4 73.72 7.4"></polygon>
                <path d="M85.52,28.4 L96.16,28.4 C101.76,28.4 105.12,24.68 105.12,20.4 C105.12,17.84 103.92,15.44 102.16,14.2 C103.8,12.92 104.4,10.92 104.4,9.12 C104.4,5.48 101.96,1.48 97,0.92 C95.88,0.8 94.6,0.8 93.16,0.8 L85.52,0.8 L85.52,28.4 Z M92.32,11.4 L92.32,7.2 L95.48,7.2 C96.48,7.2 97.6,8 97.6,9.32 C97.6,10.64 96.48,11.4 95.48,11.4 L92.32,11.4 Z M92.32,22 L92.32,17.8 L96.16,17.8 C97.2,17.8 98.32,18.52 98.32,19.92 C98.32,21.32 97.2,22 96.16,22 L92.32,22 Z" id="Shape"></path>
                <polygon id="Path" points="112.72 21.8 112.72 0.8 105.92 0.8 105.92 28.4 119.52 28.4 119.52 21.8"></polygon>
                <path d="M120.48,19.84 L120.48,28.4 L127.28,28.4 L127.28,24.4 L133.28,24.4 L133.28,28.4 L140.08,28.4 L140.08,0.8 C128.68,0.8 120.48,6.68 120.48,19.84 Z M127.36,17.8 C127.76,13.36 129.6,10.2 133.28,8.76 L133.28,17.8 L127.36,17.8 Z" id="Shape"></path>
                <path d="M154.28,0.8 L154.28,5.56 C151.16,2.56 146.8,0.8 141.28,0.8 L141.28,28.4 L148.08,28.4 L148.08,9.2 C152.32,10.6 154.28,14.32 154.28,19.84 L154.28,28.4 L161.08,28.4 L161.08,0.8 L154.28,0.8 Z" id="Path"></path>
                <path d="M176.92,28.4 L177.32,28.4 L177.32,21.8 L176.92,21.8 C174.64,21.8 173.04,21.36 171.76,20.48 C170,19.28 168.72,17 168.72,14.6 C168.72,12.2 170,9.92 171.76,8.72 C173.04,7.84 174.64,7.4 176.92,7.4 L177.32,7.4 L177.32,0.8 L176.92,0.8 C174.72,0.8 173.36,0.96 172.12,1.28 C166.28,2.76 161.92,8.16 161.92,14.6 C161.92,20.96 166.24,26.4 172.08,27.92 C173.36,28.24 174.8,28.4 176.92,28.4 Z" id="Path"></path>
                <polygon id="Path" points="188.52 0.8 178.32 0.8 178.32 7.2 181.72 7.2 181.72 28.4 188.52 28.4"></polygon>
                <path d="M199.92,29.2 C206.32,29.2 210.32,24.2 210.32,19.2 L210.32,10.6 C210.32,5 206.32,0 199.92,0 C193.52,0 189.52,5 189.52,10.6 L189.52,19.2 C189.52,24.2 193.52,29.2 199.92,29.2 Z M199.92,22.6 C196.92,22.6 196.32,20.6 196.32,17.6 L196.32,12 C196.32,8.8 196.92,6.6 199.92,6.6 C202.92,6.6 203.52,8.8 203.52,12 L203.52,17.6 C203.52,20.6 202.92,22.6 199.92,22.6 Z" id="Shape"></path>
                <polygon id="Path" points="221.32 0.8 211.12 0.8 211.12 7.2 214.52 7.2 214.52 28.4 221.32 28.4"></polygon>
            </g>
        </g>
    </g>
</svg>